G04 #@! TF.GenerationSoftware,KiCad,Pcbnew,(5.1.5)-3*
G04 #@! TF.CreationDate,2020-03-09T02:33:29+08:00*
G04 #@! TF.ProjectId,plate,706c6174-652e-46b6-9963-61645f706362,rev?*
G04 #@! TF.SameCoordinates,Original*
G04 #@! TF.FileFunction,Copper,L1,Top*
G04 #@! TF.FilePolarity,Positive*
%FSLAX46Y46*%
G04 Gerber Fmt 4.6, Leading zero omitted, Abs format (unit mm)*
G04 Created by KiCad (PCBNEW (5.1.5)-3) date 2020-03-09 02:33:29*
%MOMM*%
%LPD*%
G04 APERTURE LIST*
%ADD10O,2.000000X15.200000*%
%ADD11O,15.200000X2.000000*%
%ADD12C,0.254000*%
G04 APERTURE END LIST*
D10*
X96470000Y-57870000D03*
D11*
X103070000Y-51270000D03*
D10*
X109670000Y-57870000D03*
D11*
X103070000Y-64470000D03*
D10*
X115520000Y-50820000D03*
D11*
X122120000Y-44220000D03*
D10*
X128720000Y-50820000D03*
D11*
X122120000Y-57420000D03*
D10*
X134570000Y-46060000D03*
D11*
X141170000Y-39460000D03*
D10*
X147770000Y-46060000D03*
D11*
X141170000Y-52660000D03*
D10*
X77420000Y-60350000D03*
D11*
X84020000Y-53750000D03*
D10*
X90620000Y-60350000D03*
D11*
X84020000Y-66950000D03*
D10*
X153620000Y-50830000D03*
D11*
X160220000Y-44230000D03*
D10*
X166820000Y-50830000D03*
D11*
X160220000Y-57430000D03*
D10*
X172670000Y-53110000D03*
D11*
X179270000Y-46510000D03*
D10*
X185870000Y-53110000D03*
D11*
X179270000Y-59710000D03*
D10*
X172670000Y-91210000D03*
D11*
X179270000Y-84610000D03*
D10*
X185870000Y-91210000D03*
D11*
X179270000Y-97810000D03*
D10*
X153620000Y-69880000D03*
D11*
X160220000Y-63280000D03*
D10*
X166820000Y-69880000D03*
D11*
X160220000Y-76480000D03*
D10*
X153620000Y-88930000D03*
D11*
X160220000Y-82330000D03*
D10*
X166820000Y-88930000D03*
D11*
X160220000Y-95530000D03*
D10*
X96470000Y-76920000D03*
D11*
X103070000Y-70320000D03*
D10*
X109670000Y-76920000D03*
D11*
X103070000Y-83520000D03*
D10*
X134570000Y-84160000D03*
D11*
X141170000Y-77560000D03*
D10*
X147770000Y-84160000D03*
D11*
X141170000Y-90760000D03*
D10*
X115520000Y-88920000D03*
D11*
X122120000Y-82320000D03*
D10*
X128720000Y-88920000D03*
D11*
X122120000Y-95520000D03*
D10*
X77420000Y-98450000D03*
D11*
X84020000Y-91850000D03*
D10*
X90620000Y-98450000D03*
D11*
X84020000Y-105050000D03*
D10*
X134570000Y-65110000D03*
D11*
X141170000Y-58510000D03*
D10*
X147770000Y-65110000D03*
D11*
X141170000Y-71710000D03*
D10*
X172670000Y-72160000D03*
D11*
X179270000Y-65560000D03*
D10*
X185870000Y-72160000D03*
D11*
X179270000Y-78760000D03*
D10*
X58370000Y-93680000D03*
D11*
X64970000Y-87080000D03*
D10*
X71570000Y-93680000D03*
D11*
X64970000Y-100280000D03*
D10*
X153620000Y-107980000D03*
D11*
X160220000Y-101380000D03*
D10*
X166820000Y-107980000D03*
D11*
X160220000Y-114580000D03*
D10*
X96470000Y-95970000D03*
D11*
X103070000Y-89370000D03*
D10*
X109670000Y-95970000D03*
D11*
X103070000Y-102570000D03*
D10*
X77420000Y-117500000D03*
D11*
X84020000Y-110900000D03*
D10*
X90620000Y-117500000D03*
D11*
X84020000Y-124100000D03*
D10*
X172670000Y-110260000D03*
D11*
X179270000Y-103660000D03*
D10*
X185870000Y-110260000D03*
D11*
X179270000Y-116860000D03*
D10*
X134570000Y-103210000D03*
D11*
X141170000Y-96610000D03*
D10*
X147770000Y-103210000D03*
D11*
X141170000Y-109810000D03*
D10*
X115520000Y-107970000D03*
D11*
X122120000Y-101370000D03*
D10*
X128720000Y-107970000D03*
D11*
X122120000Y-114570000D03*
D10*
X96470000Y-115020000D03*
D11*
X103070000Y-108420000D03*
D10*
X109670000Y-115020000D03*
D11*
X103070000Y-121620000D03*
D10*
X115520000Y-69870000D03*
D11*
X122120000Y-63270000D03*
D10*
X128720000Y-69870000D03*
D11*
X122120000Y-76470000D03*
D10*
X153620000Y-127030000D03*
D11*
X160220000Y-120430000D03*
D10*
X166820000Y-127030000D03*
D11*
X160220000Y-133630000D03*
D10*
X172670000Y-129310000D03*
D11*
X179270000Y-122710000D03*
D10*
X185870000Y-129310000D03*
D11*
X179270000Y-135910000D03*
D10*
X191720000Y-131780000D03*
D11*
X198320000Y-125180000D03*
D10*
X204920000Y-131780000D03*
D11*
X198320000Y-138380000D03*
D10*
X77420000Y-79400000D03*
D11*
X84020000Y-72800000D03*
D10*
X90620000Y-79400000D03*
D11*
X84020000Y-86000000D03*
D12*
G36*
X149735425Y-37227080D02*
G01*
X149798357Y-37246080D01*
X149856406Y-37276945D01*
X149907344Y-37318489D01*
X149949249Y-37369144D01*
X149980516Y-37426971D01*
X149999957Y-37489772D01*
X150010001Y-37585336D01*
X150010002Y-40352419D01*
X150012784Y-40380664D01*
X150012741Y-40386801D01*
X150013641Y-40395972D01*
X150034042Y-40590069D01*
X150046069Y-40648658D01*
X150057278Y-40707423D01*
X150059942Y-40716245D01*
X150117654Y-40902683D01*
X150140839Y-40957838D01*
X150163243Y-41013291D01*
X150167569Y-41021427D01*
X150260394Y-41193104D01*
X150293847Y-41242699D01*
X150326601Y-41292753D01*
X150332425Y-41299894D01*
X150456829Y-41450272D01*
X150499264Y-41492411D01*
X150541127Y-41535161D01*
X150548228Y-41541034D01*
X150699470Y-41664384D01*
X150749278Y-41697477D01*
X150798652Y-41731284D01*
X150806758Y-41735667D01*
X150979081Y-41827292D01*
X151034393Y-41850090D01*
X151089367Y-41873652D01*
X151098170Y-41876377D01*
X151285007Y-41932786D01*
X151343687Y-41944405D01*
X151402197Y-41956842D01*
X151411362Y-41957805D01*
X151605595Y-41976850D01*
X151605599Y-41976850D01*
X151637582Y-41980000D01*
X168687722Y-41980000D01*
X168785425Y-41989580D01*
X168848357Y-42008580D01*
X168906406Y-42039445D01*
X168957344Y-42080989D01*
X168999249Y-42131644D01*
X169030516Y-42189471D01*
X169049957Y-42252272D01*
X169060001Y-42347835D01*
X169060001Y-42638419D01*
X169062784Y-42666674D01*
X169062741Y-42672801D01*
X169063641Y-42681972D01*
X169084042Y-42876069D01*
X169096069Y-42934658D01*
X169107278Y-42993423D01*
X169109942Y-43002245D01*
X169167654Y-43188683D01*
X169190839Y-43243838D01*
X169213243Y-43299291D01*
X169217569Y-43307427D01*
X169310394Y-43479104D01*
X169343847Y-43528699D01*
X169376601Y-43578753D01*
X169382425Y-43585894D01*
X169506829Y-43736272D01*
X169549264Y-43778411D01*
X169591127Y-43821161D01*
X169598228Y-43827034D01*
X169749470Y-43950384D01*
X169799278Y-43983477D01*
X169848652Y-44017284D01*
X169856758Y-44021667D01*
X170029081Y-44113292D01*
X170084393Y-44136090D01*
X170139367Y-44159652D01*
X170148170Y-44162377D01*
X170335007Y-44218786D01*
X170393687Y-44230405D01*
X170452197Y-44242842D01*
X170461362Y-44243805D01*
X170655595Y-44262850D01*
X170655599Y-44262850D01*
X170687582Y-44266000D01*
X187737721Y-44266000D01*
X187835424Y-44275580D01*
X187898356Y-44294580D01*
X187956405Y-44325445D01*
X188007343Y-44366989D01*
X188049248Y-44417644D01*
X188080515Y-44475471D01*
X188099956Y-44538272D01*
X188110001Y-44633845D01*
X188110000Y-61107721D01*
X188100420Y-61205424D01*
X188081420Y-61268357D01*
X188050554Y-61326406D01*
X188009011Y-61377343D01*
X187958356Y-61419248D01*
X187900529Y-61450515D01*
X187837728Y-61469956D01*
X187743107Y-61479901D01*
X180657581Y-61479901D01*
X180629671Y-61482650D01*
X180626693Y-61482629D01*
X180617522Y-61483528D01*
X180569360Y-61488590D01*
X180560617Y-61489451D01*
X180560325Y-61489539D01*
X180520454Y-61493730D01*
X180461845Y-61505761D01*
X180403093Y-61516968D01*
X180394272Y-61519632D01*
X180301035Y-61548494D01*
X180245879Y-61571680D01*
X180190430Y-61594082D01*
X180182293Y-61598408D01*
X180096437Y-61644830D01*
X180046830Y-61678290D01*
X179996790Y-61711035D01*
X179989649Y-61716860D01*
X179914445Y-61779074D01*
X179872320Y-61821494D01*
X179829554Y-61863374D01*
X179823680Y-61870474D01*
X179761993Y-61946111D01*
X179728909Y-61995906D01*
X179695095Y-62045289D01*
X179690713Y-62053396D01*
X179644891Y-62139574D01*
X179622118Y-62194825D01*
X179598528Y-62249864D01*
X179595804Y-62258667D01*
X179567594Y-62352105D01*
X179555980Y-62410761D01*
X179543538Y-62469296D01*
X179542575Y-62478461D01*
X179533051Y-62575597D01*
X179533051Y-62604405D01*
X179529937Y-62633054D01*
X179529905Y-62642269D01*
X179529917Y-62645760D01*
X179532831Y-62674459D01*
X179532629Y-62703307D01*
X179533528Y-62712478D01*
X179543730Y-62809546D01*
X179555761Y-62868155D01*
X179566968Y-62926907D01*
X179569632Y-62935728D01*
X179598494Y-63028965D01*
X179621674Y-63084108D01*
X179644082Y-63139571D01*
X179648408Y-63147707D01*
X179694831Y-63233564D01*
X179728279Y-63283154D01*
X179761035Y-63333210D01*
X179766856Y-63340346D01*
X179766860Y-63340352D01*
X179766865Y-63340357D01*
X179829073Y-63415555D01*
X179871546Y-63457732D01*
X179913374Y-63500446D01*
X179920469Y-63506315D01*
X179920473Y-63506319D01*
X179920475Y-63506320D01*
X179996111Y-63568007D01*
X180045901Y-63601087D01*
X180095290Y-63634905D01*
X180103396Y-63639287D01*
X180189574Y-63685110D01*
X180244871Y-63707902D01*
X180299865Y-63731472D01*
X180308668Y-63734196D01*
X180402105Y-63762407D01*
X180460798Y-63774028D01*
X180519296Y-63786462D01*
X180528461Y-63787425D01*
X180625597Y-63796949D01*
X180625605Y-63796949D01*
X180657591Y-63800099D01*
X187737720Y-63800000D01*
X187835424Y-63809580D01*
X187898356Y-63828580D01*
X187956405Y-63859445D01*
X188007343Y-63900989D01*
X188049248Y-63951644D01*
X188080515Y-64009471D01*
X188099956Y-64072272D01*
X188110001Y-64167843D01*
X188109801Y-121262217D01*
X188112584Y-121290472D01*
X188112541Y-121296604D01*
X188113441Y-121305775D01*
X188133846Y-121499909D01*
X188145869Y-121558479D01*
X188157082Y-121617262D01*
X188159746Y-121626084D01*
X188217469Y-121812560D01*
X188240642Y-121867687D01*
X188263059Y-121923170D01*
X188267385Y-121931307D01*
X188360229Y-122103017D01*
X188393685Y-122152618D01*
X188426435Y-122202665D01*
X188432259Y-122209806D01*
X188556688Y-122360214D01*
X188599122Y-122402353D01*
X188640985Y-122445102D01*
X188648086Y-122450975D01*
X188799357Y-122574350D01*
X188849191Y-122607460D01*
X188898541Y-122641251D01*
X188906648Y-122645634D01*
X189079004Y-122737277D01*
X189134330Y-122760081D01*
X189189291Y-122783637D01*
X189198094Y-122786362D01*
X189384967Y-122842782D01*
X189443632Y-122854398D01*
X189502156Y-122866838D01*
X189511321Y-122867801D01*
X189705594Y-122886850D01*
X189705598Y-122886850D01*
X189737581Y-122890000D01*
X207160000Y-122890000D01*
X207160001Y-140250211D01*
X207150420Y-140347924D01*
X207131420Y-140410857D01*
X207100554Y-140468906D01*
X207059011Y-140519843D01*
X207008356Y-140561748D01*
X206950529Y-140593015D01*
X206887728Y-140612456D01*
X206792165Y-140622500D01*
X189852279Y-140622500D01*
X189754576Y-140612920D01*
X189691643Y-140593920D01*
X189633594Y-140563054D01*
X189582657Y-140521511D01*
X189540752Y-140470856D01*
X189509485Y-140413029D01*
X189490044Y-140350228D01*
X189480000Y-140254665D01*
X189480000Y-139777581D01*
X189477217Y-139749326D01*
X189477260Y-139743199D01*
X189476360Y-139734028D01*
X189455959Y-139539931D01*
X189443934Y-139481348D01*
X189432723Y-139422577D01*
X189430059Y-139413755D01*
X189372347Y-139227317D01*
X189349162Y-139172162D01*
X189326758Y-139116709D01*
X189322432Y-139108573D01*
X189229607Y-138936896D01*
X189196139Y-138887278D01*
X189163400Y-138837247D01*
X189157576Y-138830106D01*
X189033172Y-138679728D01*
X188990737Y-138637589D01*
X188948874Y-138594839D01*
X188941773Y-138588966D01*
X188790531Y-138465616D01*
X188740738Y-138432534D01*
X188691349Y-138398716D01*
X188683243Y-138394333D01*
X188510921Y-138302708D01*
X188455606Y-138279909D01*
X188400634Y-138256348D01*
X188391831Y-138253623D01*
X188204995Y-138197214D01*
X188146307Y-138185594D01*
X188087804Y-138173158D01*
X188078639Y-138172195D01*
X187884405Y-138153150D01*
X187884397Y-138153150D01*
X187852573Y-138150008D01*
X170802362Y-138146008D01*
X170704576Y-138136420D01*
X170641643Y-138117420D01*
X170583594Y-138086554D01*
X170532657Y-138045011D01*
X170490752Y-137994356D01*
X170459485Y-137936529D01*
X170440044Y-137873728D01*
X170430000Y-137778165D01*
X170430000Y-137487581D01*
X170427217Y-137459326D01*
X170427260Y-137453199D01*
X170426360Y-137444028D01*
X170405959Y-137249931D01*
X170393934Y-137191348D01*
X170382723Y-137132577D01*
X170380059Y-137123755D01*
X170322347Y-136937317D01*
X170299162Y-136882162D01*
X170276758Y-136826709D01*
X170272432Y-136818573D01*
X170179607Y-136646896D01*
X170146139Y-136597278D01*
X170113400Y-136547247D01*
X170107576Y-136540106D01*
X169983172Y-136389728D01*
X169940737Y-136347589D01*
X169898874Y-136304839D01*
X169891773Y-136298966D01*
X169740531Y-136175616D01*
X169690738Y-136142534D01*
X169641349Y-136108716D01*
X169633243Y-136104333D01*
X169460921Y-136012708D01*
X169405606Y-135989909D01*
X169350634Y-135966348D01*
X169341831Y-135963623D01*
X169154995Y-135907214D01*
X169096307Y-135895594D01*
X169037804Y-135883158D01*
X169028639Y-135882195D01*
X168834405Y-135863150D01*
X168834402Y-135863150D01*
X168802419Y-135860000D01*
X151752279Y-135860000D01*
X151654576Y-135850420D01*
X151591643Y-135831420D01*
X151533594Y-135800554D01*
X151482657Y-135759011D01*
X151440752Y-135708356D01*
X151409485Y-135650529D01*
X151390044Y-135587728D01*
X151380000Y-135492165D01*
X151380000Y-120430000D01*
X151977089Y-120430000D01*
X151985000Y-120510322D01*
X151985001Y-133549668D01*
X151977089Y-133630000D01*
X152008657Y-133950516D01*
X152102148Y-134258715D01*
X152253969Y-134542752D01*
X152458286Y-134791714D01*
X152707248Y-134996031D01*
X152991285Y-135147852D01*
X153299484Y-135241343D01*
X153539678Y-135265000D01*
X153620000Y-135272911D01*
X153700322Y-135265000D01*
X166739678Y-135265000D01*
X166820000Y-135272911D01*
X166900322Y-135265000D01*
X167140516Y-135241343D01*
X167448715Y-135147852D01*
X167732752Y-134996031D01*
X167981714Y-134791714D01*
X168186031Y-134542752D01*
X168337852Y-134258715D01*
X168431343Y-133950516D01*
X168462911Y-133630000D01*
X168455000Y-133549678D01*
X168455000Y-122710000D01*
X171027089Y-122710000D01*
X171035000Y-122790322D01*
X171035001Y-135829668D01*
X171027089Y-135910000D01*
X171058657Y-136230516D01*
X171152148Y-136538715D01*
X171303969Y-136822752D01*
X171508286Y-137071714D01*
X171757248Y-137276031D01*
X172041285Y-137427852D01*
X172349484Y-137521343D01*
X172589678Y-137545000D01*
X172670000Y-137552911D01*
X172750322Y-137545000D01*
X185789678Y-137545000D01*
X185870000Y-137552911D01*
X185950322Y-137545000D01*
X186190516Y-137521343D01*
X186498715Y-137427852D01*
X186782752Y-137276031D01*
X187031714Y-137071714D01*
X187236031Y-136822752D01*
X187387852Y-136538715D01*
X187481343Y-136230516D01*
X187512911Y-135910000D01*
X187505000Y-135829678D01*
X187505000Y-125180000D01*
X190077089Y-125180000D01*
X190085000Y-125260322D01*
X190085001Y-138299668D01*
X190077089Y-138380000D01*
X190108657Y-138700516D01*
X190202148Y-139008715D01*
X190353969Y-139292752D01*
X190558286Y-139541714D01*
X190807248Y-139746031D01*
X191091285Y-139897852D01*
X191399484Y-139991343D01*
X191639678Y-140015000D01*
X191720000Y-140022911D01*
X191800322Y-140015000D01*
X204839678Y-140015000D01*
X204920000Y-140022911D01*
X205000322Y-140015000D01*
X205240516Y-139991343D01*
X205548715Y-139897852D01*
X205832752Y-139746031D01*
X206081714Y-139541714D01*
X206286031Y-139292752D01*
X206437852Y-139008715D01*
X206531343Y-138700516D01*
X206562911Y-138380000D01*
X206555000Y-138299678D01*
X206555000Y-125260322D01*
X206562911Y-125180000D01*
X206531343Y-124859484D01*
X206437852Y-124551285D01*
X206286031Y-124267248D01*
X206081714Y-124018286D01*
X205832752Y-123813969D01*
X205548715Y-123662148D01*
X205240516Y-123568657D01*
X205000322Y-123545000D01*
X204920000Y-123537089D01*
X204839678Y-123545000D01*
X191800322Y-123545000D01*
X191720000Y-123537089D01*
X191639678Y-123545000D01*
X191399484Y-123568657D01*
X191091285Y-123662148D01*
X190807248Y-123813969D01*
X190558286Y-124018286D01*
X190353969Y-124267248D01*
X190202148Y-124551285D01*
X190108657Y-124859484D01*
X190077089Y-125180000D01*
X187505000Y-125180000D01*
X187505000Y-122790322D01*
X187512911Y-122710000D01*
X187481343Y-122389484D01*
X187387852Y-122081285D01*
X187236031Y-121797248D01*
X187031714Y-121548286D01*
X186782752Y-121343969D01*
X186498715Y-121192148D01*
X186190516Y-121098657D01*
X185950322Y-121075000D01*
X185870000Y-121067089D01*
X185789678Y-121075000D01*
X172750322Y-121075000D01*
X172670000Y-121067089D01*
X172589678Y-121075000D01*
X172349484Y-121098657D01*
X172041285Y-121192148D01*
X171757248Y-121343969D01*
X171508286Y-121548286D01*
X171303969Y-121797248D01*
X171152148Y-122081285D01*
X171058657Y-122389484D01*
X171027089Y-122710000D01*
X168455000Y-122710000D01*
X168455000Y-120510322D01*
X168462911Y-120430000D01*
X168445574Y-120253969D01*
X168431343Y-120109484D01*
X168337852Y-119801285D01*
X168186031Y-119517248D01*
X167981714Y-119268286D01*
X167732752Y-119063969D01*
X167448715Y-118912148D01*
X167140516Y-118818657D01*
X166820000Y-118787089D01*
X166739678Y-118795000D01*
X153700322Y-118795000D01*
X153620000Y-118787089D01*
X153539678Y-118795000D01*
X153299484Y-118818657D01*
X152991285Y-118912148D01*
X152707248Y-119063969D01*
X152458286Y-119268286D01*
X152253969Y-119517248D01*
X152102148Y-119801285D01*
X152008657Y-120109484D01*
X151977089Y-120430000D01*
X151380000Y-120430000D01*
X151380000Y-113675081D01*
X151377217Y-113646826D01*
X151377260Y-113640699D01*
X151376360Y-113631528D01*
X151355959Y-113437431D01*
X151343934Y-113378848D01*
X151332723Y-113320077D01*
X151330059Y-113311255D01*
X151272347Y-113124817D01*
X151249162Y-113069662D01*
X151226758Y-113014209D01*
X151222432Y-113006073D01*
X151129607Y-112834396D01*
X151096139Y-112784778D01*
X151063400Y-112734747D01*
X151057576Y-112727606D01*
X150933172Y-112577228D01*
X150890737Y-112535089D01*
X150848874Y-112492339D01*
X150841773Y-112486466D01*
X150690531Y-112363116D01*
X150640738Y-112330034D01*
X150591349Y-112296216D01*
X150583243Y-112291833D01*
X150410921Y-112200208D01*
X150355606Y-112177409D01*
X150300634Y-112153848D01*
X150291831Y-112151123D01*
X150104995Y-112094714D01*
X150046307Y-112083094D01*
X149987804Y-112070658D01*
X149978639Y-112069695D01*
X149784405Y-112050650D01*
X149784402Y-112050650D01*
X149752419Y-112047500D01*
X132587581Y-112047500D01*
X132559326Y-112050283D01*
X132553199Y-112050240D01*
X132544028Y-112051140D01*
X132349931Y-112071541D01*
X132291348Y-112083566D01*
X132232577Y-112094777D01*
X132223755Y-112097441D01*
X132037317Y-112155153D01*
X131982162Y-112178338D01*
X131926709Y-112200742D01*
X131918573Y-112205068D01*
X131746896Y-112297893D01*
X131697278Y-112331361D01*
X131647247Y-112364100D01*
X131640106Y-112369924D01*
X131489728Y-112494328D01*
X131447589Y-112536763D01*
X131404839Y-112578626D01*
X131398966Y-112585727D01*
X131275616Y-112736969D01*
X131242534Y-112786762D01*
X131208716Y-112836151D01*
X131204333Y-112844257D01*
X131112708Y-113016579D01*
X131089909Y-113071894D01*
X131066348Y-113126866D01*
X131063623Y-113135669D01*
X131007214Y-113322505D01*
X130995594Y-113381193D01*
X130983158Y-113439696D01*
X130982195Y-113448861D01*
X130963150Y-113643095D01*
X130960000Y-113675082D01*
X130960001Y-116437711D01*
X130950420Y-116535424D01*
X130931420Y-116598357D01*
X130900554Y-116656406D01*
X130859011Y-116707343D01*
X130808356Y-116749248D01*
X130750529Y-116780515D01*
X130687728Y-116799956D01*
X130592165Y-116810000D01*
X113537581Y-116810000D01*
X113509326Y-116812783D01*
X113503199Y-116812740D01*
X113494028Y-116813640D01*
X113299931Y-116834041D01*
X113241348Y-116846066D01*
X113182577Y-116857277D01*
X113173755Y-116859941D01*
X112987317Y-116917653D01*
X112932162Y-116940838D01*
X112876709Y-116963242D01*
X112868573Y-116967568D01*
X112696896Y-117060393D01*
X112647278Y-117093861D01*
X112597247Y-117126600D01*
X112590106Y-117132424D01*
X112439728Y-117256828D01*
X112397589Y-117299263D01*
X112354839Y-117341126D01*
X112348966Y-117348227D01*
X112225616Y-117499469D01*
X112192534Y-117549262D01*
X112158716Y-117598651D01*
X112154333Y-117606757D01*
X112062708Y-117779079D01*
X112039909Y-117834394D01*
X112016348Y-117889366D01*
X112013623Y-117898169D01*
X111957214Y-118085005D01*
X111945594Y-118143693D01*
X111933158Y-118202196D01*
X111932195Y-118211361D01*
X111913150Y-118405595D01*
X111910000Y-118437582D01*
X111910001Y-123486211D01*
X111900420Y-123583924D01*
X111881420Y-123646857D01*
X111850554Y-123704906D01*
X111809011Y-123755843D01*
X111758356Y-123797748D01*
X111700529Y-123829015D01*
X111637728Y-123848456D01*
X111542165Y-123858500D01*
X94487581Y-123858500D01*
X94459326Y-123861283D01*
X94453199Y-123861240D01*
X94444028Y-123862140D01*
X94249931Y-123882541D01*
X94191348Y-123894566D01*
X94132577Y-123905777D01*
X94123755Y-123908441D01*
X93937317Y-123966153D01*
X93882162Y-123989338D01*
X93826709Y-124011742D01*
X93818573Y-124016068D01*
X93646896Y-124108893D01*
X93597278Y-124142361D01*
X93547247Y-124175100D01*
X93540106Y-124180924D01*
X93389728Y-124305328D01*
X93347589Y-124347763D01*
X93304839Y-124389626D01*
X93298966Y-124396727D01*
X93175616Y-124547969D01*
X93142534Y-124597762D01*
X93108716Y-124647151D01*
X93104333Y-124655257D01*
X93012708Y-124827579D01*
X92989909Y-124882894D01*
X92966348Y-124937866D01*
X92963623Y-124946669D01*
X92907214Y-125133505D01*
X92895594Y-125192193D01*
X92883158Y-125250696D01*
X92882195Y-125259861D01*
X92863150Y-125454095D01*
X92860000Y-125486082D01*
X92860000Y-125962721D01*
X92850420Y-126060424D01*
X92831420Y-126123357D01*
X92800554Y-126181406D01*
X92759011Y-126232343D01*
X92708356Y-126274248D01*
X92650529Y-126305515D01*
X92587728Y-126324956D01*
X92492165Y-126335000D01*
X75552279Y-126335000D01*
X75454576Y-126325420D01*
X75391643Y-126306420D01*
X75333594Y-126275554D01*
X75282657Y-126234011D01*
X75240752Y-126183356D01*
X75209485Y-126125529D01*
X75190044Y-126062728D01*
X75180000Y-125967165D01*
X75180000Y-110900000D01*
X75777089Y-110900000D01*
X75785000Y-110980322D01*
X75785001Y-124019668D01*
X75777089Y-124100000D01*
X75808657Y-124420516D01*
X75902148Y-124728715D01*
X76053969Y-125012752D01*
X76258286Y-125261714D01*
X76507248Y-125466031D01*
X76791285Y-125617852D01*
X77099484Y-125711343D01*
X77339678Y-125735000D01*
X77420000Y-125742911D01*
X77500322Y-125735000D01*
X90539678Y-125735000D01*
X90620000Y-125742911D01*
X90700322Y-125735000D01*
X90940516Y-125711343D01*
X91248715Y-125617852D01*
X91532752Y-125466031D01*
X91781714Y-125261714D01*
X91986031Y-125012752D01*
X92137852Y-124728715D01*
X92231343Y-124420516D01*
X92262911Y-124100000D01*
X92255000Y-124019678D01*
X92255000Y-110980322D01*
X92262911Y-110900000D01*
X92231343Y-110579484D01*
X92137852Y-110271285D01*
X91986031Y-109987248D01*
X91781714Y-109738286D01*
X91532752Y-109533969D01*
X91248715Y-109382148D01*
X90940516Y-109288657D01*
X90700322Y-109265000D01*
X90620000Y-109257089D01*
X90539678Y-109265000D01*
X77500322Y-109265000D01*
X77420000Y-109257089D01*
X77339678Y-109265000D01*
X77099484Y-109288657D01*
X76791285Y-109382148D01*
X76507248Y-109533969D01*
X76258286Y-109738286D01*
X76053969Y-109987248D01*
X75902148Y-110271285D01*
X75808657Y-110579484D01*
X75777089Y-110900000D01*
X75180000Y-110900000D01*
X75180000Y-108420000D01*
X94827089Y-108420000D01*
X94835000Y-108500322D01*
X94835001Y-121539668D01*
X94827089Y-121620000D01*
X94858657Y-121940516D01*
X94952148Y-122248715D01*
X95103969Y-122532752D01*
X95308286Y-122781714D01*
X95557248Y-122986031D01*
X95841285Y-123137852D01*
X96149484Y-123231343D01*
X96389678Y-123255000D01*
X96470000Y-123262911D01*
X96550322Y-123255000D01*
X109589678Y-123255000D01*
X109670000Y-123262911D01*
X109750322Y-123255000D01*
X109990516Y-123231343D01*
X110298715Y-123137852D01*
X110582752Y-122986031D01*
X110831714Y-122781714D01*
X111036031Y-122532752D01*
X111187852Y-122248715D01*
X111281343Y-121940516D01*
X111295454Y-121797248D01*
X111305000Y-121700322D01*
X111305000Y-121700321D01*
X111312911Y-121620000D01*
X111305000Y-121539678D01*
X111305000Y-108500322D01*
X111312911Y-108420000D01*
X111281343Y-108099484D01*
X111187852Y-107791285D01*
X111036031Y-107507248D01*
X110831714Y-107258286D01*
X110582752Y-107053969D01*
X110298715Y-106902148D01*
X109990516Y-106808657D01*
X109750322Y-106785000D01*
X109670000Y-106777089D01*
X109589678Y-106785000D01*
X96550322Y-106785000D01*
X96470000Y-106777089D01*
X96389678Y-106785000D01*
X96149484Y-106808657D01*
X95841285Y-106902148D01*
X95557248Y-107053969D01*
X95308286Y-107258286D01*
X95103969Y-107507248D01*
X94952148Y-107791285D01*
X94858657Y-108099484D01*
X94827089Y-108420000D01*
X75180000Y-108420000D01*
X75180000Y-100647581D01*
X75176802Y-100615110D01*
X75176802Y-100608617D01*
X75175838Y-100599452D01*
X75171094Y-100557161D01*
X75170450Y-100550617D01*
X75170308Y-100550149D01*
X75164959Y-100502459D01*
X75152530Y-100443983D01*
X75140904Y-100385264D01*
X75138178Y-100376461D01*
X75108666Y-100283427D01*
X75085119Y-100228488D01*
X75062303Y-100173133D01*
X75057919Y-100165027D01*
X75010898Y-100079498D01*
X74977111Y-100030154D01*
X74944005Y-99980324D01*
X74938131Y-99973224D01*
X74875394Y-99898456D01*
X74832683Y-99856630D01*
X74790503Y-99814154D01*
X74783361Y-99808330D01*
X74707296Y-99747173D01*
X74657244Y-99714420D01*
X74607649Y-99680967D01*
X74599517Y-99676644D01*
X74599513Y-99676641D01*
X74599509Y-99676639D01*
X74513016Y-99631422D01*
X74457584Y-99609026D01*
X74402408Y-99585832D01*
X74393586Y-99583169D01*
X74299955Y-99555612D01*
X74241256Y-99544415D01*
X74182600Y-99532374D01*
X74173429Y-99531475D01*
X74076228Y-99522629D01*
X74016411Y-99523047D01*
X73956594Y-99522629D01*
X73947423Y-99523528D01*
X73850355Y-99533730D01*
X73791746Y-99545761D01*
X73732994Y-99556968D01*
X73724173Y-99559632D01*
X73630936Y-99588494D01*
X73575780Y-99611680D01*
X73520331Y-99634082D01*
X73512194Y-99638408D01*
X73426338Y-99684830D01*
X73376731Y-99718290D01*
X73326691Y-99751035D01*
X73319550Y-99756860D01*
X73244346Y-99819074D01*
X73205000Y-99858696D01*
X73205000Y-98641197D01*
X73207237Y-98643389D01*
X73249398Y-98685845D01*
X73256540Y-98691669D01*
X73332605Y-98752827D01*
X73382657Y-98785580D01*
X73432252Y-98819033D01*
X73440384Y-98823356D01*
X73440388Y-98823359D01*
X73440392Y-98823361D01*
X73526885Y-98868578D01*
X73582317Y-98890974D01*
X73637493Y-98914168D01*
X73646315Y-98916831D01*
X73739946Y-98944388D01*
X73798659Y-98955588D01*
X73857302Y-98967626D01*
X73866473Y-98968525D01*
X73963673Y-98977371D01*
X74023490Y-98976953D01*
X74083307Y-98977371D01*
X74092478Y-98976472D01*
X74189546Y-98966270D01*
X74248155Y-98954239D01*
X74306907Y-98943032D01*
X74315728Y-98940368D01*
X74408965Y-98911506D01*
X74464108Y-98888326D01*
X74519571Y-98865918D01*
X74527707Y-98861592D01*
X74613564Y-98815169D01*
X74663154Y-98781721D01*
X74713210Y-98748965D01*
X74720346Y-98743144D01*
X74720352Y-98743140D01*
X74720357Y-98743135D01*
X74795555Y-98680927D01*
X74837732Y-98638454D01*
X74880446Y-98596626D01*
X74886318Y-98589528D01*
X74886319Y-98589527D01*
X74886322Y-98589523D01*
X74948007Y-98513889D01*
X74981087Y-98464099D01*
X75014905Y-98414710D01*
X75019287Y-98406604D01*
X75065110Y-98320426D01*
X75087902Y-98265129D01*
X75111472Y-98210135D01*
X75114196Y-98201332D01*
X75142407Y-98107895D01*
X75154028Y-98049202D01*
X75166462Y-97990704D01*
X75167425Y-97981539D01*
X75176949Y-97884403D01*
X75176949Y-97884396D01*
X75180099Y-97852406D01*
X75179999Y-92567569D01*
X75176802Y-92535115D01*
X75176802Y-92528617D01*
X75175838Y-92519452D01*
X75171081Y-92477037D01*
X75170447Y-92470605D01*
X75170308Y-92470146D01*
X75164959Y-92422459D01*
X75152530Y-92363983D01*
X75140904Y-92305264D01*
X75138178Y-92296461D01*
X75108666Y-92203427D01*
X75085119Y-92148488D01*
X75062303Y-92093133D01*
X75057919Y-92085027D01*
X75010898Y-91999498D01*
X74977111Y-91950154D01*
X74944005Y-91900324D01*
X74938131Y-91893224D01*
X74901863Y-91850000D01*
X75777089Y-91850000D01*
X75785000Y-91930322D01*
X75785001Y-104969668D01*
X75777089Y-105050000D01*
X75808657Y-105370516D01*
X75902148Y-105678715D01*
X76053969Y-105962752D01*
X76258286Y-106211714D01*
X76507248Y-106416031D01*
X76791285Y-106567852D01*
X77099484Y-106661343D01*
X77339678Y-106685000D01*
X77420000Y-106692911D01*
X77500322Y-106685000D01*
X90539678Y-106685000D01*
X90620000Y-106692911D01*
X90700322Y-106685000D01*
X90940516Y-106661343D01*
X91248715Y-106567852D01*
X91532752Y-106416031D01*
X91781714Y-106211714D01*
X91986031Y-105962752D01*
X92137852Y-105678715D01*
X92231343Y-105370516D01*
X92262911Y-105050000D01*
X92255000Y-104969678D01*
X92255000Y-91930322D01*
X92262911Y-91850000D01*
X92253362Y-91753042D01*
X92231343Y-91529484D01*
X92137852Y-91221285D01*
X91986031Y-90937248D01*
X91781714Y-90688286D01*
X91532752Y-90483969D01*
X91248715Y-90332148D01*
X90940516Y-90238657D01*
X90620000Y-90207089D01*
X90539678Y-90215000D01*
X77500322Y-90215000D01*
X77420000Y-90207089D01*
X77339678Y-90215000D01*
X77099484Y-90238657D01*
X76791285Y-90332148D01*
X76507248Y-90483969D01*
X76258286Y-90688286D01*
X76053969Y-90937248D01*
X75902148Y-91221285D01*
X75808657Y-91529484D01*
X75777089Y-91850000D01*
X74901863Y-91850000D01*
X74875394Y-91818456D01*
X74832683Y-91776630D01*
X74790503Y-91734154D01*
X74783361Y-91728330D01*
X74707296Y-91667173D01*
X74657244Y-91634420D01*
X74607649Y-91600967D01*
X74599517Y-91596644D01*
X74599513Y-91596641D01*
X74599509Y-91596639D01*
X74513016Y-91551422D01*
X74457584Y-91529026D01*
X74402408Y-91505832D01*
X74393586Y-91503169D01*
X74299955Y-91475612D01*
X74241256Y-91464415D01*
X74182600Y-91452374D01*
X74173429Y-91451475D01*
X74076228Y-91442629D01*
X74016411Y-91443047D01*
X73956594Y-91442629D01*
X73947423Y-91443528D01*
X73850355Y-91453730D01*
X73791746Y-91465761D01*
X73732994Y-91476968D01*
X73724173Y-91479632D01*
X73630936Y-91508494D01*
X73575780Y-91531680D01*
X73520331Y-91554082D01*
X73512194Y-91558408D01*
X73426338Y-91604830D01*
X73376731Y-91638290D01*
X73326691Y-91671035D01*
X73319550Y-91676860D01*
X73244346Y-91739074D01*
X73205000Y-91778696D01*
X73205000Y-89370000D01*
X94827089Y-89370000D01*
X94835000Y-89450322D01*
X94835001Y-102489668D01*
X94827089Y-102570000D01*
X94858657Y-102890516D01*
X94952148Y-103198715D01*
X95103969Y-103482752D01*
X95308286Y-103731714D01*
X95557248Y-103936031D01*
X95841285Y-104087852D01*
X96149484Y-104181343D01*
X96389678Y-104205000D01*
X96470000Y-104212911D01*
X96550322Y-104205000D01*
X109589678Y-104205000D01*
X109670000Y-104212911D01*
X109750322Y-104205000D01*
X109990516Y-104181343D01*
X110298715Y-104087852D01*
X110582752Y-103936031D01*
X110831714Y-103731714D01*
X111036031Y-103482752D01*
X111187852Y-103198715D01*
X111281343Y-102890516D01*
X111290229Y-102800297D01*
X111305000Y-102650322D01*
X111305000Y-102650321D01*
X111312911Y-102570000D01*
X111305000Y-102489678D01*
X111305000Y-101370000D01*
X113877089Y-101370000D01*
X113885000Y-101450322D01*
X113885001Y-114489668D01*
X113877089Y-114570000D01*
X113908657Y-114890516D01*
X114002148Y-115198715D01*
X114153969Y-115482752D01*
X114358286Y-115731714D01*
X114607248Y-115936031D01*
X114891285Y-116087852D01*
X115199484Y-116181343D01*
X115439678Y-116205000D01*
X115520000Y-116212911D01*
X115600322Y-116205000D01*
X128639678Y-116205000D01*
X128720000Y-116212911D01*
X128800322Y-116205000D01*
X129040516Y-116181343D01*
X129348715Y-116087852D01*
X129632752Y-115936031D01*
X129881714Y-115731714D01*
X130086031Y-115482752D01*
X130237852Y-115198715D01*
X130331343Y-114890516D01*
X130362911Y-114570000D01*
X130355000Y-114489678D01*
X130355000Y-101450322D01*
X130362911Y-101370000D01*
X130349360Y-101232409D01*
X130331343Y-101049484D01*
X130237852Y-100741285D01*
X130086031Y-100457248D01*
X129881714Y-100208286D01*
X129632752Y-100003969D01*
X129348715Y-99852148D01*
X129040516Y-99758657D01*
X128720000Y-99727089D01*
X128639678Y-99735000D01*
X115600322Y-99735000D01*
X115520000Y-99727089D01*
X115439678Y-99735000D01*
X115199484Y-99758657D01*
X114891285Y-99852148D01*
X114607248Y-100003969D01*
X114358286Y-100208286D01*
X114153969Y-100457248D01*
X114002148Y-100741285D01*
X113908657Y-101049484D01*
X113877089Y-101370000D01*
X111305000Y-101370000D01*
X111305000Y-89450322D01*
X111312911Y-89370000D01*
X111281343Y-89049484D01*
X111187852Y-88741285D01*
X111036031Y-88457248D01*
X110831714Y-88208286D01*
X110582752Y-88003969D01*
X110298715Y-87852148D01*
X109990516Y-87758657D01*
X109750322Y-87735000D01*
X109670000Y-87727089D01*
X109589678Y-87735000D01*
X96550322Y-87735000D01*
X96470000Y-87727089D01*
X96389678Y-87735000D01*
X96149484Y-87758657D01*
X95841285Y-87852148D01*
X95557248Y-88003969D01*
X95308286Y-88208286D01*
X95103969Y-88457248D01*
X94952148Y-88741285D01*
X94858657Y-89049484D01*
X94827089Y-89370000D01*
X73205000Y-89370000D01*
X73205000Y-87550494D01*
X73206441Y-87551669D01*
X73282506Y-87612827D01*
X73332558Y-87645580D01*
X73382153Y-87679033D01*
X73390285Y-87683356D01*
X73390289Y-87683359D01*
X73390293Y-87683361D01*
X73476786Y-87728578D01*
X73532218Y-87750974D01*
X73587394Y-87774168D01*
X73596216Y-87776831D01*
X73689847Y-87804388D01*
X73748560Y-87815588D01*
X73807203Y-87827626D01*
X73816374Y-87828525D01*
X73913574Y-87837371D01*
X73973391Y-87836953D01*
X74033208Y-87837371D01*
X74042379Y-87836472D01*
X74139447Y-87826270D01*
X74198056Y-87814239D01*
X74256808Y-87803032D01*
X74265629Y-87800368D01*
X74358866Y-87771506D01*
X74414009Y-87748326D01*
X74469472Y-87725918D01*
X74477608Y-87721592D01*
X74563465Y-87675169D01*
X74613055Y-87641721D01*
X74663111Y-87608965D01*
X74670247Y-87603144D01*
X74670253Y-87603140D01*
X74670258Y-87603135D01*
X74745456Y-87540927D01*
X74787633Y-87498454D01*
X74830347Y-87456626D01*
X74836219Y-87449528D01*
X74836220Y-87449527D01*
X74836223Y-87449523D01*
X74897908Y-87373889D01*
X74930988Y-87324099D01*
X74964806Y-87274710D01*
X74969188Y-87266604D01*
X75015011Y-87180426D01*
X75037803Y-87125129D01*
X75061373Y-87070135D01*
X75064097Y-87061332D01*
X75092308Y-86967895D01*
X75103929Y-86909202D01*
X75116363Y-86850704D01*
X75117326Y-86841539D01*
X75126850Y-86744403D01*
X75126850Y-86744402D01*
X75130000Y-86712419D01*
X75130000Y-72800000D01*
X75777089Y-72800000D01*
X75785000Y-72880322D01*
X75785001Y-85919668D01*
X75777089Y-86000000D01*
X75808657Y-86320516D01*
X75902148Y-86628715D01*
X76053969Y-86912752D01*
X76258286Y-87161714D01*
X76507248Y-87366031D01*
X76791285Y-87517852D01*
X77099484Y-87611343D01*
X77339678Y-87635000D01*
X77420000Y-87642911D01*
X77500322Y-87635000D01*
X90539678Y-87635000D01*
X90620000Y-87642911D01*
X90700322Y-87635000D01*
X90940516Y-87611343D01*
X91248715Y-87517852D01*
X91532752Y-87366031D01*
X91781714Y-87161714D01*
X91986031Y-86912752D01*
X92137852Y-86628715D01*
X92231343Y-86320516D01*
X92262911Y-86000000D01*
X92255000Y-85919678D01*
X92255000Y-72880322D01*
X92262911Y-72800000D01*
X92231343Y-72479484D01*
X92137852Y-72171285D01*
X91986031Y-71887248D01*
X91781714Y-71638286D01*
X91532752Y-71433969D01*
X91248715Y-71282148D01*
X90940516Y-71188657D01*
X90700322Y-71165000D01*
X90620000Y-71157089D01*
X90539678Y-71165000D01*
X77500322Y-71165000D01*
X77420000Y-71157089D01*
X77339678Y-71165000D01*
X77099484Y-71188657D01*
X76791285Y-71282148D01*
X76507248Y-71433969D01*
X76258286Y-71638286D01*
X76053969Y-71887248D01*
X75902148Y-72171285D01*
X75808657Y-72479484D01*
X75777089Y-72800000D01*
X75130000Y-72800000D01*
X75130000Y-71402279D01*
X75139580Y-71304576D01*
X75158580Y-71241644D01*
X75189445Y-71183595D01*
X75230989Y-71132657D01*
X75281644Y-71090752D01*
X75339471Y-71059485D01*
X75402272Y-71040044D01*
X75497837Y-71030000D01*
X82622310Y-71030099D01*
X82650223Y-71027350D01*
X82653208Y-71027371D01*
X82662379Y-71026472D01*
X82710552Y-71021409D01*
X82719274Y-71020550D01*
X82719565Y-71020462D01*
X82759447Y-71016270D01*
X82818056Y-71004239D01*
X82876808Y-70993032D01*
X82885629Y-70990368D01*
X82978866Y-70961506D01*
X83034009Y-70938326D01*
X83089472Y-70915918D01*
X83097608Y-70911592D01*
X83183465Y-70865169D01*
X83233055Y-70831721D01*
X83283111Y-70798965D01*
X83290247Y-70793144D01*
X83290253Y-70793140D01*
X83290258Y-70793135D01*
X83365456Y-70730927D01*
X83407633Y-70688454D01*
X83450347Y-70646626D01*
X83456219Y-70639528D01*
X83456220Y-70639527D01*
X83456223Y-70639523D01*
X83517908Y-70563889D01*
X83550988Y-70514099D01*
X83584806Y-70464710D01*
X83589188Y-70456604D01*
X83635011Y-70370426D01*
X83657803Y-70315129D01*
X83681373Y-70260135D01*
X83684097Y-70251332D01*
X83712308Y-70157895D01*
X83723929Y-70099202D01*
X83736363Y-70040704D01*
X83737326Y-70031539D01*
X83746850Y-69934403D01*
X83746850Y-69905595D01*
X83749964Y-69876946D01*
X83749980Y-69872269D01*
X84290004Y-69872269D01*
X84290016Y-69875760D01*
X84292930Y-69904459D01*
X84292728Y-69933307D01*
X84293627Y-69942478D01*
X84303829Y-70039546D01*
X84315860Y-70098155D01*
X84327067Y-70156907D01*
X84329731Y-70165728D01*
X84358593Y-70258965D01*
X84381773Y-70314108D01*
X84404181Y-70369571D01*
X84408507Y-70377707D01*
X84454930Y-70463564D01*
X84488378Y-70513154D01*
X84521134Y-70563210D01*
X84526955Y-70570346D01*
X84526959Y-70570352D01*
X84526964Y-70570357D01*
X84589172Y-70645555D01*
X84631645Y-70687732D01*
X84673473Y-70730446D01*
X84680568Y-70736315D01*
X84680572Y-70736319D01*
X84680574Y-70736320D01*
X84756210Y-70798007D01*
X84806000Y-70831087D01*
X84855389Y-70864905D01*
X84863495Y-70869287D01*
X84949673Y-70915110D01*
X85004970Y-70937902D01*
X85059964Y-70961472D01*
X85068767Y-70964196D01*
X85162204Y-70992407D01*
X85220897Y-71004028D01*
X85279395Y-71016462D01*
X85288560Y-71017425D01*
X85385696Y-71026949D01*
X85385697Y-71026949D01*
X85417680Y-71030099D01*
X93072419Y-71030099D01*
X93101612Y-71027224D01*
X93106801Y-71027260D01*
X93115972Y-71026360D01*
X93310069Y-71005959D01*
X93368658Y-70993932D01*
X93427423Y-70982723D01*
X93436245Y-70980059D01*
X93622683Y-70922347D01*
X93677838Y-70899162D01*
X93733291Y-70876758D01*
X93741427Y-70872432D01*
X93913104Y-70779607D01*
X93962699Y-70746154D01*
X94012753Y-70713400D01*
X94019894Y-70707576D01*
X94170272Y-70583172D01*
X94212411Y-70540737D01*
X94255161Y-70498874D01*
X94261034Y-70491773D01*
X94384384Y-70340531D01*
X94398025Y-70320000D01*
X94827089Y-70320000D01*
X94835000Y-70400322D01*
X94835001Y-83439668D01*
X94827089Y-83520000D01*
X94858657Y-83840516D01*
X94952148Y-84148715D01*
X95103969Y-84432752D01*
X95308286Y-84681714D01*
X95557248Y-84886031D01*
X95841285Y-85037852D01*
X96149484Y-85131343D01*
X96389678Y-85155000D01*
X96470000Y-85162911D01*
X96550322Y-85155000D01*
X109589678Y-85155000D01*
X109670000Y-85162911D01*
X109750322Y-85155000D01*
X109990516Y-85131343D01*
X110298715Y-85037852D01*
X110582752Y-84886031D01*
X110831714Y-84681714D01*
X111036031Y-84432752D01*
X111187852Y-84148715D01*
X111281343Y-83840516D01*
X111295559Y-83696179D01*
X111305000Y-83600322D01*
X111305000Y-83600321D01*
X111312911Y-83520000D01*
X111305000Y-83439678D01*
X111305000Y-82320000D01*
X113877089Y-82320000D01*
X113885000Y-82400322D01*
X113885001Y-95439668D01*
X113877089Y-95520000D01*
X113908657Y-95840516D01*
X114002148Y-96148715D01*
X114153969Y-96432752D01*
X114358286Y-96681714D01*
X114607248Y-96886031D01*
X114891285Y-97037852D01*
X115199484Y-97131343D01*
X115439678Y-97155000D01*
X115520000Y-97162911D01*
X115600322Y-97155000D01*
X128639678Y-97155000D01*
X128720000Y-97162911D01*
X128800322Y-97155000D01*
X129040516Y-97131343D01*
X129348715Y-97037852D01*
X129632752Y-96886031D01*
X129881714Y-96681714D01*
X129940567Y-96610000D01*
X132927089Y-96610000D01*
X132935000Y-96690322D01*
X132935001Y-109729668D01*
X132927089Y-109810000D01*
X132958657Y-110130516D01*
X133052148Y-110438715D01*
X133203969Y-110722752D01*
X133408286Y-110971714D01*
X133657248Y-111176031D01*
X133941285Y-111327852D01*
X134249484Y-111421343D01*
X134489678Y-111445000D01*
X134570000Y-111452911D01*
X134650322Y-111445000D01*
X147689678Y-111445000D01*
X147770000Y-111452911D01*
X147850322Y-111445000D01*
X148090516Y-111421343D01*
X148398715Y-111327852D01*
X148682752Y-111176031D01*
X148931714Y-110971714D01*
X149136031Y-110722752D01*
X149287852Y-110438715D01*
X149381343Y-110130516D01*
X149412911Y-109810000D01*
X149405000Y-109729678D01*
X149405000Y-101380000D01*
X151977089Y-101380000D01*
X151985000Y-101460322D01*
X151985001Y-114499668D01*
X151977089Y-114580000D01*
X152008657Y-114900516D01*
X152102148Y-115208715D01*
X152253969Y-115492752D01*
X152458286Y-115741714D01*
X152707248Y-115946031D01*
X152991285Y-116097852D01*
X153299484Y-116191343D01*
X153539678Y-116215000D01*
X153620000Y-116222911D01*
X153700322Y-116215000D01*
X166739678Y-116215000D01*
X166820000Y-116222911D01*
X166900322Y-116215000D01*
X167140516Y-116191343D01*
X167448715Y-116097852D01*
X167732752Y-115946031D01*
X167981714Y-115741714D01*
X168186031Y-115492752D01*
X168337852Y-115208715D01*
X168431343Y-114900516D01*
X168462911Y-114580000D01*
X168455000Y-114499678D01*
X168455000Y-103660000D01*
X171027089Y-103660000D01*
X171035000Y-103740322D01*
X171035001Y-116779668D01*
X171027089Y-116860000D01*
X171058657Y-117180516D01*
X171152148Y-117488715D01*
X171303969Y-117772752D01*
X171508286Y-118021714D01*
X171757248Y-118226031D01*
X172041285Y-118377852D01*
X172349484Y-118471343D01*
X172589678Y-118495000D01*
X172670000Y-118502911D01*
X172750322Y-118495000D01*
X185789678Y-118495000D01*
X185870000Y-118502911D01*
X185950322Y-118495000D01*
X186190516Y-118471343D01*
X186498715Y-118377852D01*
X186782752Y-118226031D01*
X187031714Y-118021714D01*
X187236031Y-117772752D01*
X187387852Y-117488715D01*
X187481343Y-117180516D01*
X187512911Y-116860000D01*
X187505000Y-116779678D01*
X187505000Y-103740322D01*
X187512911Y-103660000D01*
X187481343Y-103339484D01*
X187387852Y-103031285D01*
X187236031Y-102747248D01*
X187031714Y-102498286D01*
X186782752Y-102293969D01*
X186498715Y-102142148D01*
X186190516Y-102048657D01*
X185950322Y-102025000D01*
X185870000Y-102017089D01*
X185789678Y-102025000D01*
X172750322Y-102025000D01*
X172670000Y-102017089D01*
X172589678Y-102025000D01*
X172349484Y-102048657D01*
X172041285Y-102142148D01*
X171757248Y-102293969D01*
X171508286Y-102498286D01*
X171303969Y-102747248D01*
X171152148Y-103031285D01*
X171058657Y-103339484D01*
X171027089Y-103660000D01*
X168455000Y-103660000D01*
X168455000Y-101460322D01*
X168462911Y-101380000D01*
X168445574Y-101203969D01*
X168431343Y-101059484D01*
X168337852Y-100751285D01*
X168186031Y-100467248D01*
X167981714Y-100218286D01*
X167732752Y-100013969D01*
X167448715Y-99862148D01*
X167140516Y-99768657D01*
X166820000Y-99737089D01*
X166739678Y-99745000D01*
X153700322Y-99745000D01*
X153620000Y-99737089D01*
X153539678Y-99745000D01*
X153299484Y-99768657D01*
X152991285Y-99862148D01*
X152707248Y-100013969D01*
X152458286Y-100218286D01*
X152253969Y-100467248D01*
X152102148Y-100751285D01*
X152008657Y-101059484D01*
X151977089Y-101380000D01*
X149405000Y-101380000D01*
X149405000Y-96690322D01*
X149412911Y-96610000D01*
X149381343Y-96289484D01*
X149287852Y-95981285D01*
X149136031Y-95697248D01*
X148931714Y-95448286D01*
X148682752Y-95243969D01*
X148398715Y-95092148D01*
X148090516Y-94998657D01*
X147850322Y-94975000D01*
X147770000Y-94967089D01*
X147689678Y-94975000D01*
X134650322Y-94975000D01*
X134570000Y-94967089D01*
X134489678Y-94975000D01*
X134249484Y-94998657D01*
X133941285Y-95092148D01*
X133657248Y-95243969D01*
X133408286Y-95448286D01*
X133203969Y-95697248D01*
X133052148Y-95981285D01*
X132958657Y-96289484D01*
X132927089Y-96610000D01*
X129940567Y-96610000D01*
X130086031Y-96432752D01*
X130237852Y-96148715D01*
X130331343Y-95840516D01*
X130362911Y-95520000D01*
X130355000Y-95439678D01*
X130355000Y-82400322D01*
X130362911Y-82320000D01*
X130331343Y-81999484D01*
X130237852Y-81691285D01*
X130086031Y-81407248D01*
X129881714Y-81158286D01*
X129632752Y-80953969D01*
X129348715Y-80802148D01*
X129040516Y-80708657D01*
X128800322Y-80685000D01*
X128720000Y-80677089D01*
X128639678Y-80685000D01*
X115600322Y-80685000D01*
X115520000Y-80677089D01*
X115439678Y-80685000D01*
X115199484Y-80708657D01*
X114891285Y-80802148D01*
X114607248Y-80953969D01*
X114358286Y-81158286D01*
X114153969Y-81407248D01*
X114002148Y-81691285D01*
X113908657Y-81999484D01*
X113877089Y-82320000D01*
X111305000Y-82320000D01*
X111305000Y-70400322D01*
X111312911Y-70320000D01*
X111303277Y-70222179D01*
X111281343Y-69999484D01*
X111187852Y-69691285D01*
X111036031Y-69407248D01*
X110831714Y-69158286D01*
X110582752Y-68953969D01*
X110298715Y-68802148D01*
X109990516Y-68708657D01*
X109806175Y-68690501D01*
X109750322Y-68685000D01*
X109670000Y-68677089D01*
X109589678Y-68685000D01*
X96550322Y-68685000D01*
X96470000Y-68677089D01*
X96389678Y-68685000D01*
X96149484Y-68708657D01*
X95841285Y-68802148D01*
X95557248Y-68953969D01*
X95308286Y-69158286D01*
X95103969Y-69407248D01*
X94952148Y-69691285D01*
X94858657Y-69999484D01*
X94827089Y-70320000D01*
X94398025Y-70320000D01*
X94417477Y-70290723D01*
X94451284Y-70241349D01*
X94455667Y-70233243D01*
X94547292Y-70060920D01*
X94570090Y-70005608D01*
X94593652Y-69950634D01*
X94596377Y-69941831D01*
X94652786Y-69754994D01*
X94664405Y-69696314D01*
X94676842Y-69637804D01*
X94677805Y-69628639D01*
X94696850Y-69434406D01*
X94696850Y-69434402D01*
X94700000Y-69402419D01*
X94700000Y-68922279D01*
X94709580Y-68824576D01*
X94728580Y-68761644D01*
X94759445Y-68703595D01*
X94800989Y-68652657D01*
X94851644Y-68610752D01*
X94909471Y-68579485D01*
X94972272Y-68560044D01*
X95067835Y-68550000D01*
X112132419Y-68550000D01*
X112160674Y-68547217D01*
X112166801Y-68547260D01*
X112175972Y-68546360D01*
X112370069Y-68525959D01*
X112428658Y-68513932D01*
X112487423Y-68502723D01*
X112496245Y-68500059D01*
X112682683Y-68442347D01*
X112737838Y-68419162D01*
X112793291Y-68396758D01*
X112801427Y-68392432D01*
X112973104Y-68299607D01*
X113022699Y-68266154D01*
X113072753Y-68233400D01*
X113079894Y-68227576D01*
X113230272Y-68103172D01*
X113272411Y-68060737D01*
X113315161Y-68018874D01*
X113321034Y-68011773D01*
X113444384Y-67860531D01*
X113477477Y-67810723D01*
X113511284Y-67761349D01*
X113515667Y-67753243D01*
X113607292Y-67580920D01*
X113630090Y-67525608D01*
X113653652Y-67470634D01*
X113656377Y-67461831D01*
X113712786Y-67274994D01*
X113724405Y-67216314D01*
X113736842Y-67157804D01*
X113737805Y-67148639D01*
X113756850Y-66954406D01*
X113756850Y-66954402D01*
X113760000Y-66922419D01*
X113760000Y-63270000D01*
X113877089Y-63270000D01*
X113885000Y-63350322D01*
X113885001Y-76389668D01*
X113877089Y-76470000D01*
X113908657Y-76790516D01*
X114002148Y-77098715D01*
X114153969Y-77382752D01*
X114358286Y-77631714D01*
X114607248Y-77836031D01*
X114891285Y-77987852D01*
X115199484Y-78081343D01*
X115439678Y-78105000D01*
X115520000Y-78112911D01*
X115600322Y-78105000D01*
X128639678Y-78105000D01*
X128720000Y-78112911D01*
X128800322Y-78105000D01*
X129040516Y-78081343D01*
X129348715Y-77987852D01*
X129632752Y-77836031D01*
X129881714Y-77631714D01*
X129940567Y-77560000D01*
X132927089Y-77560000D01*
X132935000Y-77640322D01*
X132935001Y-90679668D01*
X132927089Y-90760000D01*
X132958657Y-91080516D01*
X133052148Y-91388715D01*
X133203969Y-91672752D01*
X133408286Y-91921714D01*
X133657248Y-92126031D01*
X133941285Y-92277852D01*
X134249484Y-92371343D01*
X134489678Y-92395000D01*
X134570000Y-92402911D01*
X134650322Y-92395000D01*
X147689678Y-92395000D01*
X147770000Y-92402911D01*
X147850322Y-92395000D01*
X148090516Y-92371343D01*
X148398715Y-92277852D01*
X148682752Y-92126031D01*
X148931714Y-91921714D01*
X149136031Y-91672752D01*
X149287852Y-91388715D01*
X149381343Y-91080516D01*
X149412911Y-90760000D01*
X149405000Y-90679678D01*
X149405000Y-82330000D01*
X151977089Y-82330000D01*
X151985000Y-82410322D01*
X151985001Y-95449668D01*
X151977089Y-95530000D01*
X152008657Y-95850516D01*
X152102148Y-96158715D01*
X152253969Y-96442752D01*
X152458286Y-96691714D01*
X152707248Y-96896031D01*
X152991285Y-97047852D01*
X153299484Y-97141343D01*
X153539678Y-97165000D01*
X153620000Y-97172911D01*
X153700322Y-97165000D01*
X166739678Y-97165000D01*
X166820000Y-97172911D01*
X166900322Y-97165000D01*
X167140516Y-97141343D01*
X167448715Y-97047852D01*
X167732752Y-96896031D01*
X167981714Y-96691714D01*
X168186031Y-96442752D01*
X168337852Y-96158715D01*
X168431343Y-95850516D01*
X168462911Y-95530000D01*
X168455000Y-95449678D01*
X168455000Y-84610000D01*
X171027089Y-84610000D01*
X171035000Y-84690322D01*
X171035001Y-97729668D01*
X171027089Y-97810000D01*
X171058657Y-98130516D01*
X171152148Y-98438715D01*
X171303969Y-98722752D01*
X171508286Y-98971714D01*
X171757248Y-99176031D01*
X172041285Y-99327852D01*
X172349484Y-99421343D01*
X172589678Y-99445000D01*
X172670000Y-99452911D01*
X172750322Y-99445000D01*
X185789678Y-99445000D01*
X185870000Y-99452911D01*
X185950322Y-99445000D01*
X186190516Y-99421343D01*
X186498715Y-99327852D01*
X186782752Y-99176031D01*
X187031714Y-98971714D01*
X187236031Y-98722752D01*
X187387852Y-98438715D01*
X187481343Y-98130516D01*
X187504761Y-97892747D01*
X187505000Y-97890322D01*
X187505000Y-97890321D01*
X187512911Y-97810000D01*
X187505000Y-97729678D01*
X187505000Y-84690322D01*
X187512911Y-84610000D01*
X187481343Y-84289484D01*
X187387852Y-83981285D01*
X187236031Y-83697248D01*
X187031714Y-83448286D01*
X186782752Y-83243969D01*
X186498715Y-83092148D01*
X186190516Y-82998657D01*
X185950322Y-82975000D01*
X185870000Y-82967089D01*
X185789678Y-82975000D01*
X172750322Y-82975000D01*
X172670000Y-82967089D01*
X172589678Y-82975000D01*
X172349484Y-82998657D01*
X172041285Y-83092148D01*
X171757248Y-83243969D01*
X171508286Y-83448286D01*
X171303969Y-83697248D01*
X171152148Y-83981285D01*
X171058657Y-84289484D01*
X171027089Y-84610000D01*
X168455000Y-84610000D01*
X168455000Y-82410322D01*
X168462911Y-82330000D01*
X168445574Y-82153969D01*
X168431343Y-82009484D01*
X168337852Y-81701285D01*
X168186031Y-81417248D01*
X167981714Y-81168286D01*
X167732752Y-80963969D01*
X167448715Y-80812148D01*
X167140516Y-80718657D01*
X166820000Y-80687089D01*
X166739678Y-80695000D01*
X153700322Y-80695000D01*
X153620000Y-80687089D01*
X153539678Y-80695000D01*
X153299484Y-80718657D01*
X152991285Y-80812148D01*
X152707248Y-80963969D01*
X152458286Y-81168286D01*
X152253969Y-81417248D01*
X152102148Y-81701285D01*
X152008657Y-82009484D01*
X151977089Y-82330000D01*
X149405000Y-82330000D01*
X149405000Y-77640322D01*
X149412911Y-77560000D01*
X149381343Y-77239484D01*
X149287852Y-76931285D01*
X149136031Y-76647248D01*
X148931714Y-76398286D01*
X148682752Y-76193969D01*
X148398715Y-76042148D01*
X148090516Y-75948657D01*
X147850322Y-75925000D01*
X147770000Y-75917089D01*
X147689678Y-75925000D01*
X134650322Y-75925000D01*
X134570000Y-75917089D01*
X134489678Y-75925000D01*
X134249484Y-75948657D01*
X133941285Y-76042148D01*
X133657248Y-76193969D01*
X133408286Y-76398286D01*
X133203969Y-76647248D01*
X133052148Y-76931285D01*
X132958657Y-77239484D01*
X132927089Y-77560000D01*
X129940567Y-77560000D01*
X130086031Y-77382752D01*
X130237852Y-77098715D01*
X130331343Y-76790516D01*
X130362911Y-76470000D01*
X130355000Y-76389678D01*
X130355000Y-63350322D01*
X130362911Y-63270000D01*
X130331343Y-62949484D01*
X130237852Y-62641285D01*
X130086031Y-62357248D01*
X129881714Y-62108286D01*
X129632752Y-61903969D01*
X129348715Y-61752148D01*
X129040516Y-61658657D01*
X128800322Y-61635000D01*
X128720000Y-61627089D01*
X128639678Y-61635000D01*
X115600322Y-61635000D01*
X115520000Y-61627089D01*
X115439678Y-61635000D01*
X115199484Y-61658657D01*
X114891285Y-61752148D01*
X114607248Y-61903969D01*
X114358286Y-62108286D01*
X114153969Y-62357248D01*
X114002148Y-62641285D01*
X113908657Y-62949484D01*
X113877089Y-63270000D01*
X113760000Y-63270000D01*
X113760000Y-61872279D01*
X113769580Y-61774576D01*
X113788580Y-61711644D01*
X113819445Y-61653595D01*
X113860989Y-61602657D01*
X113911644Y-61560752D01*
X113969471Y-61529485D01*
X114032272Y-61510044D01*
X114127835Y-61500000D01*
X120722419Y-61500000D01*
X120750329Y-61497251D01*
X120753307Y-61497272D01*
X120762478Y-61496373D01*
X120810640Y-61491311D01*
X120819383Y-61490450D01*
X120819675Y-61490362D01*
X120859546Y-61486171D01*
X120918155Y-61474140D01*
X120976907Y-61462933D01*
X120985728Y-61460269D01*
X121078965Y-61431407D01*
X121134108Y-61408227D01*
X121189571Y-61385819D01*
X121197707Y-61381493D01*
X121283564Y-61335070D01*
X121333154Y-61301622D01*
X121383210Y-61268866D01*
X121390346Y-61263045D01*
X121390352Y-61263041D01*
X121390357Y-61263036D01*
X121465555Y-61200828D01*
X121507732Y-61158355D01*
X121550446Y-61116527D01*
X121556318Y-61109429D01*
X121556319Y-61109428D01*
X121556322Y-61109424D01*
X121618007Y-61033790D01*
X121651087Y-60984000D01*
X121684905Y-60934611D01*
X121689287Y-60926505D01*
X121735110Y-60840327D01*
X121757902Y-60785030D01*
X121781472Y-60730036D01*
X121784196Y-60721233D01*
X121812407Y-60627796D01*
X121824028Y-60569103D01*
X121836462Y-60510605D01*
X121837425Y-60501440D01*
X121846949Y-60404304D01*
X121846949Y-60374684D01*
X121849964Y-60346946D01*
X121849980Y-60342269D01*
X122390004Y-60342269D01*
X122390016Y-60345760D01*
X122392930Y-60374459D01*
X122392728Y-60403307D01*
X122393627Y-60412478D01*
X122403829Y-60509546D01*
X122415860Y-60568155D01*
X122427067Y-60626907D01*
X122429731Y-60635728D01*
X122458593Y-60728965D01*
X122481773Y-60784108D01*
X122504181Y-60839571D01*
X122508507Y-60847707D01*
X122554930Y-60933564D01*
X122588378Y-60983154D01*
X122621134Y-61033210D01*
X122626955Y-61040346D01*
X122626959Y-61040352D01*
X122626964Y-61040357D01*
X122689172Y-61115555D01*
X122731645Y-61157732D01*
X122773473Y-61200446D01*
X122780568Y-61206315D01*
X122780572Y-61206319D01*
X122780574Y-61206320D01*
X122856210Y-61268007D01*
X122906000Y-61301087D01*
X122955389Y-61334905D01*
X122963495Y-61339287D01*
X123049673Y-61385110D01*
X123104970Y-61407902D01*
X123159964Y-61431472D01*
X123168767Y-61434196D01*
X123262204Y-61462407D01*
X123320897Y-61474028D01*
X123379395Y-61486462D01*
X123388560Y-61487425D01*
X123485696Y-61496949D01*
X123485703Y-61496949D01*
X123517689Y-61500099D01*
X131182427Y-61499999D01*
X131210669Y-61497217D01*
X131216801Y-61497260D01*
X131225972Y-61496360D01*
X131420069Y-61475959D01*
X131478658Y-61463932D01*
X131537423Y-61452723D01*
X131546245Y-61450059D01*
X131732683Y-61392347D01*
X131787838Y-61369162D01*
X131843291Y-61346758D01*
X131851427Y-61342432D01*
X132023104Y-61249607D01*
X132072699Y-61216154D01*
X132122753Y-61183400D01*
X132129894Y-61177576D01*
X132280272Y-61053172D01*
X132322411Y-61010737D01*
X132365161Y-60968874D01*
X132371034Y-60961773D01*
X132494384Y-60810531D01*
X132527477Y-60760723D01*
X132561284Y-60711349D01*
X132565667Y-60703243D01*
X132657292Y-60530920D01*
X132680090Y-60475608D01*
X132703652Y-60420634D01*
X132706377Y-60411831D01*
X132762786Y-60224994D01*
X132774405Y-60166314D01*
X132786842Y-60107804D01*
X132787805Y-60098639D01*
X132806850Y-59904406D01*
X132806850Y-59904402D01*
X132810000Y-59872419D01*
X132810000Y-58510000D01*
X132927089Y-58510000D01*
X132935000Y-58590322D01*
X132935001Y-71629668D01*
X132927089Y-71710000D01*
X132958657Y-72030516D01*
X133052148Y-72338715D01*
X133203969Y-72622752D01*
X133408286Y-72871714D01*
X133657248Y-73076031D01*
X133941285Y-73227852D01*
X134249484Y-73321343D01*
X134489678Y-73345000D01*
X134570000Y-73352911D01*
X134650322Y-73345000D01*
X147689678Y-73345000D01*
X147770000Y-73352911D01*
X147850322Y-73345000D01*
X148090516Y-73321343D01*
X148398715Y-73227852D01*
X148682752Y-73076031D01*
X148931714Y-72871714D01*
X149136031Y-72622752D01*
X149287852Y-72338715D01*
X149381343Y-72030516D01*
X149412911Y-71710000D01*
X149405000Y-71629678D01*
X149405000Y-63280000D01*
X151977089Y-63280000D01*
X151985000Y-63360322D01*
X151985001Y-76399668D01*
X151977089Y-76480000D01*
X152008657Y-76800516D01*
X152102148Y-77108715D01*
X152253969Y-77392752D01*
X152458286Y-77641714D01*
X152707248Y-77846031D01*
X152991285Y-77997852D01*
X153299484Y-78091343D01*
X153539678Y-78115000D01*
X153620000Y-78122911D01*
X153700322Y-78115000D01*
X166739678Y-78115000D01*
X166820000Y-78122911D01*
X166900322Y-78115000D01*
X167140516Y-78091343D01*
X167448715Y-77997852D01*
X167732752Y-77846031D01*
X167981714Y-77641714D01*
X168186031Y-77392752D01*
X168337852Y-77108715D01*
X168431343Y-76800516D01*
X168462911Y-76480000D01*
X168455000Y-76399678D01*
X168455000Y-65560000D01*
X171027089Y-65560000D01*
X171035000Y-65640322D01*
X171035001Y-78679668D01*
X171027089Y-78760000D01*
X171058657Y-79080516D01*
X171152148Y-79388715D01*
X171303969Y-79672752D01*
X171508286Y-79921714D01*
X171757248Y-80126031D01*
X172041285Y-80277852D01*
X172349484Y-80371343D01*
X172589678Y-80395000D01*
X172670000Y-80402911D01*
X172750322Y-80395000D01*
X185789678Y-80395000D01*
X185870000Y-80402911D01*
X185950322Y-80395000D01*
X186190516Y-80371343D01*
X186498715Y-80277852D01*
X186782752Y-80126031D01*
X187031714Y-79921714D01*
X187236031Y-79672752D01*
X187387852Y-79388715D01*
X187481343Y-79080516D01*
X187512911Y-78760000D01*
X187505000Y-78679678D01*
X187505000Y-65640322D01*
X187512911Y-65560000D01*
X187481343Y-65239484D01*
X187387852Y-64931285D01*
X187236031Y-64647248D01*
X187031714Y-64398286D01*
X186782752Y-64193969D01*
X186498715Y-64042148D01*
X186190516Y-63948657D01*
X185950322Y-63925000D01*
X185870000Y-63917089D01*
X185789678Y-63925000D01*
X172750322Y-63925000D01*
X172670000Y-63917089D01*
X172589678Y-63925000D01*
X172349484Y-63948657D01*
X172041285Y-64042148D01*
X171757248Y-64193969D01*
X171508286Y-64398286D01*
X171303969Y-64647248D01*
X171152148Y-64931285D01*
X171058657Y-65239484D01*
X171027089Y-65560000D01*
X168455000Y-65560000D01*
X168455000Y-63360322D01*
X168462911Y-63280000D01*
X168451103Y-63160106D01*
X168431343Y-62959484D01*
X168337852Y-62651285D01*
X168186031Y-62367248D01*
X167981714Y-62118286D01*
X167732752Y-61913969D01*
X167448715Y-61762148D01*
X167140516Y-61668657D01*
X167023470Y-61657129D01*
X166900322Y-61645000D01*
X166820000Y-61637089D01*
X166739678Y-61645000D01*
X153700322Y-61645000D01*
X153620000Y-61637089D01*
X153539678Y-61645000D01*
X153299484Y-61668657D01*
X152991285Y-61762148D01*
X152707248Y-61913969D01*
X152458286Y-62118286D01*
X152253969Y-62367248D01*
X152102148Y-62651285D01*
X152008657Y-62959484D01*
X151977089Y-63280000D01*
X149405000Y-63280000D01*
X149405000Y-58590322D01*
X149412911Y-58510000D01*
X149381343Y-58189484D01*
X149287852Y-57881285D01*
X149136031Y-57597248D01*
X148931714Y-57348286D01*
X148682752Y-57143969D01*
X148398715Y-56992148D01*
X148090516Y-56898657D01*
X147850322Y-56875000D01*
X147770000Y-56867089D01*
X147689678Y-56875000D01*
X134650322Y-56875000D01*
X134570000Y-56867089D01*
X134489678Y-56875000D01*
X134249484Y-56898657D01*
X133941285Y-56992148D01*
X133657248Y-57143969D01*
X133408286Y-57348286D01*
X133203969Y-57597248D01*
X133052148Y-57881285D01*
X132958657Y-58189484D01*
X132927089Y-58510000D01*
X132810000Y-58510000D01*
X132810000Y-57122279D01*
X132819580Y-57024576D01*
X132838580Y-56961644D01*
X132869445Y-56903595D01*
X132910989Y-56852657D01*
X132961644Y-56810752D01*
X133019471Y-56779485D01*
X133082272Y-56760044D01*
X133177835Y-56750000D01*
X139772419Y-56750000D01*
X139800329Y-56747251D01*
X139803307Y-56747272D01*
X139812478Y-56746373D01*
X139860640Y-56741311D01*
X139869383Y-56740450D01*
X139869675Y-56740362D01*
X139909546Y-56736171D01*
X139968155Y-56724140D01*
X140026907Y-56712933D01*
X140035728Y-56710269D01*
X140128965Y-56681407D01*
X140184108Y-56658227D01*
X140239571Y-56635819D01*
X140247707Y-56631493D01*
X140333564Y-56585070D01*
X140383154Y-56551622D01*
X140433210Y-56518866D01*
X140440346Y-56513045D01*
X140440352Y-56513041D01*
X140440357Y-56513036D01*
X140515555Y-56450828D01*
X140557732Y-56408355D01*
X140600446Y-56366527D01*
X140606318Y-56359429D01*
X140606319Y-56359428D01*
X140606322Y-56359424D01*
X140668007Y-56283790D01*
X140701087Y-56234000D01*
X140734905Y-56184611D01*
X140739287Y-56176505D01*
X140785110Y-56090327D01*
X140807902Y-56035030D01*
X140831472Y-55980036D01*
X140834196Y-55971233D01*
X140862407Y-55877796D01*
X140874028Y-55819103D01*
X140886462Y-55760605D01*
X140887425Y-55751440D01*
X140896949Y-55654304D01*
X140896949Y-55624684D01*
X140899964Y-55596946D01*
X140899980Y-55592269D01*
X141440004Y-55592269D01*
X141440016Y-55595760D01*
X141442930Y-55624459D01*
X141442728Y-55653307D01*
X141443627Y-55662478D01*
X141453829Y-55759546D01*
X141465860Y-55818155D01*
X141477067Y-55876907D01*
X141479731Y-55885728D01*
X141508593Y-55978965D01*
X141531773Y-56034108D01*
X141554181Y-56089571D01*
X141558507Y-56097707D01*
X141604930Y-56183564D01*
X141638378Y-56233154D01*
X141671134Y-56283210D01*
X141676955Y-56290346D01*
X141676959Y-56290352D01*
X141676964Y-56290357D01*
X141739172Y-56365555D01*
X141781645Y-56407732D01*
X141823473Y-56450446D01*
X141830568Y-56456315D01*
X141830572Y-56456319D01*
X141830574Y-56456320D01*
X141906210Y-56518007D01*
X141956000Y-56551087D01*
X142005389Y-56584905D01*
X142013495Y-56589287D01*
X142099673Y-56635110D01*
X142154970Y-56657902D01*
X142209964Y-56681472D01*
X142218767Y-56684196D01*
X142312204Y-56712407D01*
X142370897Y-56724028D01*
X142429395Y-56736462D01*
X142438560Y-56737425D01*
X142535696Y-56746949D01*
X142535704Y-56746949D01*
X142567690Y-56750099D01*
X149157720Y-56750000D01*
X149255424Y-56759580D01*
X149318356Y-56778580D01*
X149376405Y-56809445D01*
X149427343Y-56850989D01*
X149469248Y-56901644D01*
X149500515Y-56959471D01*
X149519956Y-57022272D01*
X149530000Y-57117836D01*
X149530001Y-59882419D01*
X149532783Y-59910664D01*
X149532740Y-59916801D01*
X149533640Y-59925972D01*
X149554041Y-60120069D01*
X149566068Y-60178658D01*
X149577277Y-60237423D01*
X149579941Y-60246245D01*
X149637653Y-60432683D01*
X149660838Y-60487838D01*
X149683242Y-60543291D01*
X149687568Y-60551427D01*
X149780393Y-60723104D01*
X149813846Y-60772699D01*
X149846600Y-60822753D01*
X149852424Y-60829894D01*
X149976828Y-60980272D01*
X150019263Y-61022411D01*
X150061126Y-61065161D01*
X150068227Y-61071034D01*
X150219469Y-61194384D01*
X150269277Y-61227477D01*
X150318651Y-61261284D01*
X150326757Y-61265667D01*
X150499080Y-61357292D01*
X150554392Y-61380090D01*
X150609366Y-61403652D01*
X150618169Y-61406377D01*
X150805006Y-61462786D01*
X150863686Y-61474405D01*
X150922196Y-61486842D01*
X150931361Y-61487805D01*
X151125594Y-61506850D01*
X151125598Y-61506850D01*
X151157581Y-61510000D01*
X168217721Y-61510000D01*
X168315424Y-61519580D01*
X168378356Y-61538580D01*
X168436405Y-61569445D01*
X168487343Y-61610989D01*
X168529248Y-61661644D01*
X168560515Y-61719471D01*
X168579956Y-61782272D01*
X168590000Y-61877835D01*
X168590000Y-62172419D01*
X168592783Y-62200674D01*
X168592740Y-62206801D01*
X168593640Y-62215972D01*
X168614041Y-62410069D01*
X168626068Y-62468658D01*
X168637277Y-62527423D01*
X168639941Y-62536245D01*
X168697653Y-62722683D01*
X168720838Y-62777838D01*
X168743242Y-62833291D01*
X168747568Y-62841427D01*
X168840393Y-63013104D01*
X168873846Y-63062699D01*
X168906600Y-63112753D01*
X168912424Y-63119894D01*
X169036828Y-63270272D01*
X169079263Y-63312411D01*
X169121126Y-63355161D01*
X169128227Y-63361034D01*
X169279469Y-63484384D01*
X169329277Y-63517477D01*
X169378651Y-63551284D01*
X169386757Y-63555667D01*
X169559080Y-63647292D01*
X169614392Y-63670090D01*
X169669366Y-63693652D01*
X169678169Y-63696377D01*
X169865006Y-63752786D01*
X169923686Y-63764405D01*
X169982196Y-63776842D01*
X169991361Y-63777805D01*
X170185594Y-63796850D01*
X170185598Y-63796850D01*
X170217581Y-63800000D01*
X177872419Y-63800000D01*
X177900329Y-63797251D01*
X177903307Y-63797272D01*
X177912478Y-63796373D01*
X177960640Y-63791311D01*
X177969383Y-63790450D01*
X177969675Y-63790362D01*
X178009546Y-63786171D01*
X178068155Y-63774140D01*
X178126907Y-63762933D01*
X178135728Y-63760269D01*
X178228965Y-63731407D01*
X178284108Y-63708227D01*
X178339571Y-63685819D01*
X178347707Y-63681493D01*
X178433564Y-63635070D01*
X178483154Y-63601622D01*
X178533210Y-63568866D01*
X178540346Y-63563045D01*
X178540352Y-63563041D01*
X178540357Y-63563036D01*
X178615555Y-63500828D01*
X178657732Y-63458355D01*
X178700446Y-63416527D01*
X178706318Y-63409429D01*
X178706319Y-63409428D01*
X178706322Y-63409424D01*
X178768007Y-63333790D01*
X178801087Y-63284000D01*
X178834905Y-63234611D01*
X178839287Y-63226505D01*
X178885110Y-63140327D01*
X178907902Y-63085030D01*
X178931472Y-63030036D01*
X178934196Y-63021233D01*
X178962407Y-62927796D01*
X178974028Y-62869103D01*
X178986462Y-62810605D01*
X178987425Y-62801440D01*
X178996949Y-62704304D01*
X178996949Y-62674684D01*
X178999964Y-62646946D01*
X178999996Y-62637731D01*
X178999984Y-62634240D01*
X178997070Y-62605541D01*
X178997272Y-62576693D01*
X178996373Y-62567522D01*
X178986171Y-62470454D01*
X178974140Y-62411845D01*
X178962933Y-62353093D01*
X178960269Y-62344272D01*
X178931407Y-62251035D01*
X178908221Y-62195879D01*
X178885819Y-62140430D01*
X178881493Y-62132293D01*
X178835071Y-62046437D01*
X178801611Y-61996830D01*
X178768866Y-61946790D01*
X178763041Y-61939649D01*
X178700827Y-61864445D01*
X178658407Y-61822320D01*
X178616527Y-61779554D01*
X178609427Y-61773680D01*
X178533790Y-61711993D01*
X178483995Y-61678909D01*
X178434612Y-61645095D01*
X178426505Y-61640713D01*
X178426502Y-61640711D01*
X178426499Y-61640710D01*
X178340327Y-61594891D01*
X178285076Y-61572118D01*
X178230037Y-61548528D01*
X178221234Y-61545804D01*
X178127796Y-61517594D01*
X178069140Y-61505980D01*
X178010605Y-61493538D01*
X178001440Y-61492575D01*
X177904304Y-61483051D01*
X177904296Y-61483051D01*
X177872310Y-61479901D01*
X171282279Y-61480000D01*
X171184576Y-61470420D01*
X171121643Y-61451420D01*
X171063594Y-61420554D01*
X171012657Y-61379011D01*
X170970752Y-61328356D01*
X170939485Y-61270529D01*
X170920044Y-61207728D01*
X170910000Y-61112165D01*
X170910000Y-60817582D01*
X170907217Y-60789327D01*
X170907260Y-60783199D01*
X170906360Y-60774028D01*
X170885959Y-60579931D01*
X170873934Y-60521348D01*
X170862723Y-60462577D01*
X170860059Y-60453755D01*
X170802347Y-60267317D01*
X170779162Y-60212162D01*
X170756758Y-60156709D01*
X170752432Y-60148573D01*
X170659607Y-59976896D01*
X170626139Y-59927278D01*
X170593400Y-59877247D01*
X170587576Y-59870106D01*
X170463172Y-59719728D01*
X170420737Y-59677589D01*
X170378874Y-59634839D01*
X170371773Y-59628966D01*
X170220531Y-59505616D01*
X170170738Y-59472534D01*
X170121349Y-59438716D01*
X170113243Y-59434333D01*
X169940921Y-59342708D01*
X169885606Y-59319909D01*
X169830634Y-59296348D01*
X169821831Y-59293623D01*
X169634995Y-59237214D01*
X169576307Y-59225594D01*
X169517804Y-59213158D01*
X169508639Y-59212195D01*
X169314405Y-59193150D01*
X169314402Y-59193150D01*
X169282419Y-59190000D01*
X152222279Y-59190000D01*
X152124576Y-59180420D01*
X152061643Y-59161420D01*
X152003594Y-59130554D01*
X151952657Y-59089011D01*
X151910752Y-59038356D01*
X151879485Y-58980529D01*
X151860044Y-58917728D01*
X151850000Y-58822165D01*
X151850000Y-56057581D01*
X151847217Y-56029326D01*
X151847260Y-56023199D01*
X151846360Y-56014028D01*
X151825959Y-55819931D01*
X151813934Y-55761348D01*
X151802723Y-55702577D01*
X151800059Y-55693755D01*
X151742347Y-55507317D01*
X151719162Y-55452162D01*
X151696758Y-55396709D01*
X151692432Y-55388573D01*
X151599607Y-55216896D01*
X151566139Y-55167278D01*
X151533400Y-55117247D01*
X151527576Y-55110106D01*
X151403172Y-54959728D01*
X151360737Y-54917589D01*
X151318874Y-54874839D01*
X151311773Y-54868966D01*
X151160531Y-54745616D01*
X151110738Y-54712534D01*
X151061349Y-54678716D01*
X151053243Y-54674333D01*
X150880921Y-54582708D01*
X150825606Y-54559909D01*
X150770634Y-54536348D01*
X150761831Y-54533623D01*
X150574995Y-54477214D01*
X150516307Y-54465594D01*
X150457804Y-54453158D01*
X150448639Y-54452195D01*
X150254405Y-54433150D01*
X150254396Y-54433150D01*
X150222427Y-54430001D01*
X142567689Y-54429901D01*
X142539776Y-54432650D01*
X142536792Y-54432629D01*
X142527621Y-54433528D01*
X142479463Y-54438590D01*
X142470725Y-54439450D01*
X142470433Y-54439539D01*
X142430553Y-54443730D01*
X142371944Y-54455761D01*
X142313192Y-54466968D01*
X142304371Y-54469632D01*
X142211134Y-54498494D01*
X142155978Y-54521680D01*
X142100529Y-54544082D01*
X142092392Y-54548408D01*
X142006536Y-54594830D01*
X141956929Y-54628290D01*
X141906889Y-54661035D01*
X141899748Y-54666860D01*
X141824544Y-54729074D01*
X141782419Y-54771494D01*
X141739653Y-54813374D01*
X141733779Y-54820474D01*
X141672092Y-54896111D01*
X141639008Y-54945906D01*
X141605194Y-54995289D01*
X141600812Y-55003396D01*
X141554990Y-55089574D01*
X141532217Y-55144825D01*
X141508627Y-55199864D01*
X141505903Y-55208667D01*
X141477693Y-55302105D01*
X141466079Y-55360761D01*
X141453637Y-55419296D01*
X141452674Y-55428461D01*
X141443150Y-55525597D01*
X141443150Y-55554405D01*
X141440036Y-55583054D01*
X141440004Y-55592269D01*
X140899980Y-55592269D01*
X140899996Y-55587731D01*
X140899984Y-55584240D01*
X140897070Y-55555541D01*
X140897272Y-55526693D01*
X140896373Y-55517522D01*
X140886171Y-55420454D01*
X140874140Y-55361845D01*
X140862933Y-55303093D01*
X140860269Y-55294272D01*
X140831407Y-55201035D01*
X140808221Y-55145879D01*
X140785819Y-55090430D01*
X140781493Y-55082293D01*
X140735071Y-54996437D01*
X140701611Y-54946830D01*
X140668866Y-54896790D01*
X140663041Y-54889649D01*
X140600827Y-54814445D01*
X140558407Y-54772320D01*
X140516527Y-54729554D01*
X140509427Y-54723680D01*
X140433790Y-54661993D01*
X140383995Y-54628909D01*
X140334612Y-54595095D01*
X140326505Y-54590713D01*
X140326502Y-54590711D01*
X140326499Y-54590710D01*
X140240327Y-54544891D01*
X140185076Y-54522118D01*
X140130037Y-54498528D01*
X140121234Y-54495804D01*
X140027796Y-54467594D01*
X139969140Y-54455980D01*
X139910605Y-54443538D01*
X139901440Y-54442575D01*
X139804304Y-54433051D01*
X139804297Y-54433051D01*
X139772311Y-54429901D01*
X132117573Y-54430001D01*
X132089331Y-54432783D01*
X132083199Y-54432740D01*
X132074028Y-54433640D01*
X131879931Y-54454041D01*
X131821348Y-54466066D01*
X131762577Y-54477277D01*
X131753755Y-54479941D01*
X131567317Y-54537653D01*
X131512162Y-54560838D01*
X131456709Y-54583242D01*
X131448573Y-54587568D01*
X131276896Y-54680393D01*
X131227278Y-54713861D01*
X131177247Y-54746600D01*
X131170106Y-54752424D01*
X131019728Y-54876828D01*
X130977589Y-54919263D01*
X130934839Y-54961126D01*
X130928966Y-54968227D01*
X130805616Y-55119469D01*
X130772534Y-55169262D01*
X130738716Y-55218651D01*
X130734333Y-55226757D01*
X130642708Y-55399079D01*
X130619909Y-55454394D01*
X130596348Y-55509366D01*
X130593623Y-55518169D01*
X130537214Y-55705005D01*
X130525594Y-55763693D01*
X130513158Y-55822196D01*
X130512195Y-55831361D01*
X130493150Y-56025595D01*
X130490000Y-56057582D01*
X130490001Y-58807711D01*
X130480420Y-58905424D01*
X130461420Y-58968357D01*
X130430554Y-59026406D01*
X130389011Y-59077343D01*
X130338356Y-59119248D01*
X130280529Y-59150515D01*
X130217728Y-59169956D01*
X130122164Y-59180000D01*
X123517690Y-59179901D01*
X123489777Y-59182650D01*
X123486792Y-59182629D01*
X123477621Y-59183528D01*
X123429448Y-59188591D01*
X123420726Y-59189450D01*
X123420435Y-59189538D01*
X123380553Y-59193730D01*
X123321944Y-59205761D01*
X123263192Y-59216968D01*
X123254371Y-59219632D01*
X123161134Y-59248494D01*
X123105978Y-59271680D01*
X123050529Y-59294082D01*
X123042392Y-59298408D01*
X122956536Y-59344830D01*
X122906929Y-59378290D01*
X122856889Y-59411035D01*
X122849748Y-59416860D01*
X122774544Y-59479074D01*
X122732419Y-59521494D01*
X122689653Y-59563374D01*
X122683779Y-59570474D01*
X122622092Y-59646111D01*
X122589008Y-59695906D01*
X122555194Y-59745289D01*
X122550812Y-59753396D01*
X122504990Y-59839574D01*
X122482217Y-59894825D01*
X122458627Y-59949864D01*
X122455903Y-59958667D01*
X122427693Y-60052105D01*
X122416079Y-60110761D01*
X122403637Y-60169296D01*
X122402674Y-60178461D01*
X122393150Y-60275597D01*
X122393150Y-60304405D01*
X122390036Y-60333054D01*
X122390004Y-60342269D01*
X121849980Y-60342269D01*
X121849996Y-60337731D01*
X121849984Y-60334240D01*
X121847070Y-60305541D01*
X121847272Y-60276693D01*
X121846373Y-60267522D01*
X121836171Y-60170454D01*
X121824140Y-60111845D01*
X121812933Y-60053093D01*
X121810269Y-60044272D01*
X121781407Y-59951035D01*
X121758221Y-59895879D01*
X121735819Y-59840430D01*
X121731493Y-59832293D01*
X121685071Y-59746437D01*
X121651611Y-59696830D01*
X121618866Y-59646790D01*
X121613041Y-59639649D01*
X121550827Y-59564445D01*
X121508407Y-59522320D01*
X121466527Y-59479554D01*
X121459427Y-59473680D01*
X121383790Y-59411993D01*
X121333995Y-59378909D01*
X121284612Y-59345095D01*
X121276505Y-59340713D01*
X121276502Y-59340711D01*
X121276499Y-59340710D01*
X121190327Y-59294891D01*
X121135076Y-59272118D01*
X121080037Y-59248528D01*
X121071234Y-59245804D01*
X120977796Y-59217594D01*
X120919140Y-59205980D01*
X120860605Y-59193538D01*
X120851440Y-59192575D01*
X120754304Y-59183051D01*
X120754297Y-59183051D01*
X120722311Y-59179901D01*
X113067573Y-59180001D01*
X113039331Y-59182783D01*
X113033199Y-59182740D01*
X113024028Y-59183640D01*
X112829931Y-59204041D01*
X112771348Y-59216066D01*
X112712577Y-59227277D01*
X112703755Y-59229941D01*
X112517317Y-59287653D01*
X112462162Y-59310838D01*
X112406709Y-59333242D01*
X112398573Y-59337568D01*
X112226896Y-59430393D01*
X112177278Y-59463861D01*
X112127247Y-59496600D01*
X112120106Y-59502424D01*
X111969728Y-59626828D01*
X111927589Y-59669263D01*
X111884839Y-59711126D01*
X111878966Y-59718227D01*
X111755616Y-59869469D01*
X111722534Y-59919262D01*
X111688716Y-59968651D01*
X111684333Y-59976757D01*
X111592708Y-60149079D01*
X111569909Y-60204394D01*
X111546348Y-60259366D01*
X111543623Y-60268169D01*
X111487214Y-60455005D01*
X111475594Y-60513693D01*
X111463158Y-60572196D01*
X111462195Y-60581361D01*
X111443150Y-60775595D01*
X111440000Y-60807582D01*
X111440001Y-65857711D01*
X111430420Y-65955424D01*
X111411420Y-66018357D01*
X111380554Y-66076406D01*
X111339011Y-66127343D01*
X111288356Y-66169248D01*
X111230529Y-66200515D01*
X111167728Y-66219956D01*
X111072165Y-66230000D01*
X94007581Y-66230000D01*
X93979326Y-66232783D01*
X93973199Y-66232740D01*
X93964028Y-66233640D01*
X93769931Y-66254041D01*
X93711348Y-66266066D01*
X93652577Y-66277277D01*
X93643755Y-66279941D01*
X93457317Y-66337653D01*
X93402162Y-66360838D01*
X93346709Y-66383242D01*
X93338573Y-66387568D01*
X93166896Y-66480393D01*
X93117278Y-66513861D01*
X93067247Y-66546600D01*
X93060106Y-66552424D01*
X92909728Y-66676828D01*
X92867589Y-66719263D01*
X92824839Y-66761126D01*
X92818966Y-66768227D01*
X92695616Y-66919469D01*
X92662534Y-66969262D01*
X92628716Y-67018651D01*
X92624333Y-67026757D01*
X92532708Y-67199079D01*
X92509909Y-67254394D01*
X92486348Y-67309366D01*
X92483623Y-67318169D01*
X92427214Y-67505005D01*
X92415594Y-67563693D01*
X92403158Y-67622196D01*
X92402195Y-67631361D01*
X92383152Y-67825574D01*
X92380000Y-67857582D01*
X92380000Y-68337721D01*
X92370420Y-68435424D01*
X92351420Y-68498357D01*
X92320554Y-68556406D01*
X92279011Y-68607343D01*
X92228356Y-68649248D01*
X92170529Y-68680515D01*
X92107728Y-68699956D01*
X92013107Y-68709901D01*
X85417680Y-68709901D01*
X85389770Y-68712650D01*
X85386792Y-68712629D01*
X85377621Y-68713528D01*
X85329459Y-68718590D01*
X85320716Y-68719451D01*
X85320424Y-68719539D01*
X85280553Y-68723730D01*
X85221944Y-68735761D01*
X85163192Y-68746968D01*
X85154371Y-68749632D01*
X85061134Y-68778494D01*
X85005978Y-68801680D01*
X84950529Y-68824082D01*
X84942392Y-68828408D01*
X84856536Y-68874830D01*
X84806929Y-68908290D01*
X84756889Y-68941035D01*
X84749748Y-68946860D01*
X84674544Y-69009074D01*
X84632419Y-69051494D01*
X84589653Y-69093374D01*
X84583779Y-69100474D01*
X84522092Y-69176111D01*
X84489008Y-69225906D01*
X84455194Y-69275289D01*
X84450812Y-69283396D01*
X84404990Y-69369574D01*
X84382217Y-69424825D01*
X84358627Y-69479864D01*
X84355903Y-69488667D01*
X84327693Y-69582105D01*
X84316079Y-69640761D01*
X84303637Y-69699296D01*
X84302674Y-69708461D01*
X84293150Y-69805597D01*
X84293150Y-69834405D01*
X84290036Y-69863054D01*
X84290004Y-69872269D01*
X83749980Y-69872269D01*
X83749996Y-69867731D01*
X83749984Y-69864240D01*
X83747070Y-69835541D01*
X83747272Y-69806693D01*
X83746373Y-69797522D01*
X83736171Y-69700454D01*
X83724135Y-69641820D01*
X83712933Y-69583093D01*
X83710269Y-69574272D01*
X83681407Y-69481035D01*
X83658221Y-69425879D01*
X83635819Y-69370430D01*
X83631493Y-69362293D01*
X83585071Y-69276437D01*
X83551611Y-69226830D01*
X83518866Y-69176790D01*
X83513041Y-69169649D01*
X83450827Y-69094445D01*
X83408407Y-69052320D01*
X83366527Y-69009554D01*
X83359427Y-69003680D01*
X83283790Y-68941993D01*
X83233995Y-68908909D01*
X83184612Y-68875095D01*
X83176505Y-68870713D01*
X83176502Y-68870711D01*
X83176499Y-68870710D01*
X83090327Y-68824891D01*
X83035076Y-68802118D01*
X82980037Y-68778528D01*
X82971234Y-68775804D01*
X82877796Y-68747594D01*
X82819140Y-68735980D01*
X82760605Y-68723538D01*
X82751440Y-68722575D01*
X82654304Y-68713051D01*
X82654296Y-68713051D01*
X82622310Y-68709901D01*
X75502280Y-68710000D01*
X75404576Y-68700420D01*
X75341643Y-68681420D01*
X75283594Y-68650554D01*
X75232657Y-68609011D01*
X75190752Y-68558356D01*
X75159485Y-68500529D01*
X75140044Y-68437728D01*
X75130000Y-68342165D01*
X75130000Y-53750000D01*
X75777089Y-53750000D01*
X75785000Y-53830322D01*
X75785001Y-66869668D01*
X75777089Y-66950000D01*
X75808657Y-67270516D01*
X75902148Y-67578715D01*
X76053969Y-67862752D01*
X76258286Y-68111714D01*
X76507248Y-68316031D01*
X76791285Y-68467852D01*
X77099484Y-68561343D01*
X77339678Y-68585000D01*
X77420000Y-68592911D01*
X77500322Y-68585000D01*
X90539678Y-68585000D01*
X90620000Y-68592911D01*
X90700322Y-68585000D01*
X90940516Y-68561343D01*
X91248715Y-68467852D01*
X91532752Y-68316031D01*
X91781714Y-68111714D01*
X91986031Y-67862752D01*
X92137852Y-67578715D01*
X92231343Y-67270516D01*
X92262911Y-66950000D01*
X92255000Y-66869678D01*
X92255000Y-53830322D01*
X92262911Y-53750000D01*
X92231343Y-53429484D01*
X92137852Y-53121285D01*
X91986031Y-52837248D01*
X91781714Y-52588286D01*
X91532752Y-52383969D01*
X91248715Y-52232148D01*
X90940516Y-52138657D01*
X90700322Y-52115000D01*
X90620000Y-52107089D01*
X90539678Y-52115000D01*
X77500322Y-52115000D01*
X77420000Y-52107089D01*
X77339678Y-52115000D01*
X77099484Y-52138657D01*
X76791285Y-52232148D01*
X76507248Y-52383969D01*
X76258286Y-52588286D01*
X76053969Y-52837248D01*
X75902148Y-53121285D01*
X75808657Y-53429484D01*
X75777089Y-53750000D01*
X75130000Y-53750000D01*
X75130000Y-51877279D01*
X75139580Y-51779576D01*
X75158580Y-51716644D01*
X75189445Y-51658595D01*
X75230989Y-51607657D01*
X75281644Y-51565752D01*
X75339471Y-51534485D01*
X75402272Y-51515044D01*
X75497835Y-51505000D01*
X92602420Y-51505000D01*
X92630675Y-51502217D01*
X92636802Y-51502260D01*
X92645973Y-51501360D01*
X92840070Y-51480959D01*
X92898659Y-51468932D01*
X92957424Y-51457723D01*
X92966246Y-51455059D01*
X93152684Y-51397347D01*
X93207839Y-51374162D01*
X93263292Y-51351758D01*
X93271428Y-51347432D01*
X93414636Y-51270000D01*
X94827089Y-51270000D01*
X94835000Y-51350322D01*
X94835001Y-64389668D01*
X94827089Y-64470000D01*
X94858657Y-64790516D01*
X94952148Y-65098715D01*
X95103969Y-65382752D01*
X95308286Y-65631714D01*
X95557248Y-65836031D01*
X95841285Y-65987852D01*
X96149484Y-66081343D01*
X96389678Y-66105000D01*
X96470000Y-66112911D01*
X96550322Y-66105000D01*
X109589678Y-66105000D01*
X109670000Y-66112911D01*
X109750322Y-66105000D01*
X109990516Y-66081343D01*
X110298715Y-65987852D01*
X110582752Y-65836031D01*
X110831714Y-65631714D01*
X111036031Y-65382752D01*
X111187852Y-65098715D01*
X111281343Y-64790516D01*
X111295454Y-64647248D01*
X111305000Y-64550322D01*
X111305000Y-64550321D01*
X111312911Y-64470000D01*
X111305000Y-64389678D01*
X111305000Y-51350322D01*
X111312911Y-51270000D01*
X111281343Y-50949484D01*
X111187852Y-50641285D01*
X111036031Y-50357248D01*
X110831714Y-50108286D01*
X110582752Y-49903969D01*
X110298715Y-49752148D01*
X109990516Y-49658657D01*
X109750322Y-49635000D01*
X109670000Y-49627089D01*
X109589678Y-49635000D01*
X96550322Y-49635000D01*
X96470000Y-49627089D01*
X96389678Y-49635000D01*
X96149484Y-49658657D01*
X95841285Y-49752148D01*
X95557248Y-49903969D01*
X95308286Y-50108286D01*
X95103969Y-50357248D01*
X94952148Y-50641285D01*
X94858657Y-50949484D01*
X94827089Y-51270000D01*
X93414636Y-51270000D01*
X93443105Y-51254607D01*
X93492700Y-51221154D01*
X93542754Y-51188400D01*
X93549895Y-51182576D01*
X93700273Y-51058172D01*
X93742412Y-51015737D01*
X93785162Y-50973874D01*
X93791035Y-50966773D01*
X93914385Y-50815531D01*
X93947478Y-50765723D01*
X93981285Y-50716349D01*
X93985668Y-50708243D01*
X94077293Y-50535920D01*
X94100091Y-50480608D01*
X94123653Y-50425634D01*
X94126378Y-50416831D01*
X94182787Y-50229994D01*
X94194406Y-50171314D01*
X94206843Y-50112804D01*
X94207806Y-50103639D01*
X94226851Y-49909406D01*
X94226851Y-49909401D01*
X94230001Y-49877418D01*
X94230001Y-49400779D01*
X94239581Y-49303076D01*
X94258581Y-49240144D01*
X94289446Y-49182095D01*
X94330990Y-49131157D01*
X94381645Y-49089252D01*
X94439472Y-49057985D01*
X94502273Y-49038544D01*
X94597836Y-49028500D01*
X111652420Y-49028500D01*
X111680675Y-49025717D01*
X111686802Y-49025760D01*
X111695973Y-49024860D01*
X111890070Y-49004459D01*
X111948659Y-48992432D01*
X112007424Y-48981223D01*
X112016246Y-48978559D01*
X112202684Y-48920847D01*
X112257839Y-48897662D01*
X112313292Y-48875258D01*
X112321428Y-48870932D01*
X112493105Y-48778107D01*
X112542700Y-48744654D01*
X112592754Y-48711900D01*
X112599895Y-48706076D01*
X112750273Y-48581672D01*
X112792412Y-48539237D01*
X112835162Y-48497374D01*
X112841035Y-48490273D01*
X112964385Y-48339031D01*
X112997478Y-48289223D01*
X113031285Y-48239849D01*
X113035668Y-48231743D01*
X113127293Y-48059420D01*
X113150091Y-48004108D01*
X113173653Y-47949134D01*
X113176378Y-47940331D01*
X113232787Y-47753494D01*
X113244406Y-47694814D01*
X113256843Y-47636304D01*
X113257806Y-47627139D01*
X113276851Y-47432906D01*
X113276851Y-47432902D01*
X113280001Y-47400919D01*
X113280001Y-44220000D01*
X113877089Y-44220000D01*
X113885000Y-44300322D01*
X113885001Y-57339668D01*
X113877089Y-57420000D01*
X113908657Y-57740516D01*
X114002148Y-58048715D01*
X114153969Y-58332752D01*
X114358286Y-58581714D01*
X114607248Y-58786031D01*
X114891285Y-58937852D01*
X115199484Y-59031343D01*
X115439678Y-59055000D01*
X115520000Y-59062911D01*
X115600322Y-59055000D01*
X128639678Y-59055000D01*
X128720000Y-59062911D01*
X128800322Y-59055000D01*
X129040516Y-59031343D01*
X129348715Y-58937852D01*
X129632752Y-58786031D01*
X129881714Y-58581714D01*
X130086031Y-58332752D01*
X130237852Y-58048715D01*
X130331343Y-57740516D01*
X130362911Y-57420000D01*
X130355000Y-57339678D01*
X130355000Y-44300322D01*
X130362911Y-44220000D01*
X130331343Y-43899484D01*
X130237852Y-43591285D01*
X130086031Y-43307248D01*
X129881714Y-43058286D01*
X129632752Y-42853969D01*
X129348715Y-42702148D01*
X129040516Y-42608657D01*
X128800322Y-42585000D01*
X128720000Y-42577089D01*
X128639678Y-42585000D01*
X115600322Y-42585000D01*
X115520000Y-42577089D01*
X115439678Y-42585000D01*
X115199484Y-42608657D01*
X114891285Y-42702148D01*
X114607248Y-42853969D01*
X114358286Y-43058286D01*
X114153969Y-43307248D01*
X114002148Y-43591285D01*
X113908657Y-43899484D01*
X113877089Y-44220000D01*
X113280001Y-44220000D01*
X113280001Y-42352279D01*
X113289581Y-42254576D01*
X113308581Y-42191644D01*
X113339446Y-42133595D01*
X113380990Y-42082657D01*
X113431645Y-42040752D01*
X113489472Y-42009485D01*
X113552273Y-41990044D01*
X113647836Y-41980000D01*
X130702420Y-41980000D01*
X130730675Y-41977217D01*
X130736802Y-41977260D01*
X130745973Y-41976360D01*
X130940070Y-41955959D01*
X130998659Y-41943932D01*
X131057424Y-41932723D01*
X131066246Y-41930059D01*
X131252684Y-41872347D01*
X131307839Y-41849162D01*
X131363292Y-41826758D01*
X131371428Y-41822432D01*
X131543105Y-41729607D01*
X131592700Y-41696154D01*
X131642754Y-41663400D01*
X131649895Y-41657576D01*
X131800273Y-41533172D01*
X131842412Y-41490737D01*
X131885162Y-41448874D01*
X131891035Y-41441773D01*
X132014385Y-41290531D01*
X132047478Y-41240723D01*
X132081285Y-41191349D01*
X132085668Y-41183243D01*
X132177293Y-41010920D01*
X132200091Y-40955608D01*
X132223653Y-40900634D01*
X132226378Y-40891831D01*
X132282787Y-40704994D01*
X132294406Y-40646314D01*
X132306843Y-40587804D01*
X132307806Y-40578639D01*
X132326851Y-40384406D01*
X132326851Y-40384402D01*
X132330001Y-40352419D01*
X132330001Y-39460000D01*
X132927089Y-39460000D01*
X132935000Y-39540322D01*
X132935001Y-52579668D01*
X132927089Y-52660000D01*
X132958657Y-52980516D01*
X133052148Y-53288715D01*
X133203969Y-53572752D01*
X133408286Y-53821714D01*
X133657248Y-54026031D01*
X133941285Y-54177852D01*
X134249484Y-54271343D01*
X134489678Y-54295000D01*
X134570000Y-54302911D01*
X134650322Y-54295000D01*
X147689678Y-54295000D01*
X147770000Y-54302911D01*
X147850322Y-54295000D01*
X148090516Y-54271343D01*
X148398715Y-54177852D01*
X148682752Y-54026031D01*
X148931714Y-53821714D01*
X149136031Y-53572752D01*
X149287852Y-53288715D01*
X149381343Y-52980516D01*
X149412911Y-52660000D01*
X149405000Y-52579678D01*
X149405000Y-44230000D01*
X151977089Y-44230000D01*
X151985000Y-44310322D01*
X151985001Y-57349668D01*
X151977089Y-57430000D01*
X152008657Y-57750516D01*
X152102148Y-58058715D01*
X152253969Y-58342752D01*
X152458286Y-58591714D01*
X152707248Y-58796031D01*
X152991285Y-58947852D01*
X153299484Y-59041343D01*
X153539678Y-59065000D01*
X153620000Y-59072911D01*
X153700322Y-59065000D01*
X166739678Y-59065000D01*
X166820000Y-59072911D01*
X166900322Y-59065000D01*
X167140516Y-59041343D01*
X167448715Y-58947852D01*
X167732752Y-58796031D01*
X167981714Y-58591714D01*
X168186031Y-58342752D01*
X168337852Y-58058715D01*
X168431343Y-57750516D01*
X168462911Y-57430000D01*
X168455000Y-57349678D01*
X168455000Y-46510000D01*
X171027089Y-46510000D01*
X171035000Y-46590322D01*
X171035001Y-59629668D01*
X171027089Y-59710000D01*
X171058657Y-60030516D01*
X171152148Y-60338715D01*
X171303969Y-60622752D01*
X171508286Y-60871714D01*
X171757248Y-61076031D01*
X172041285Y-61227852D01*
X172349484Y-61321343D01*
X172589678Y-61345000D01*
X172670000Y-61352911D01*
X172750322Y-61345000D01*
X185789678Y-61345000D01*
X185870000Y-61352911D01*
X185950322Y-61345000D01*
X186190516Y-61321343D01*
X186498715Y-61227852D01*
X186782752Y-61076031D01*
X187031714Y-60871714D01*
X187236031Y-60622752D01*
X187387852Y-60338715D01*
X187481343Y-60030516D01*
X187501028Y-59830653D01*
X187505000Y-59790322D01*
X187505000Y-59790321D01*
X187512911Y-59710000D01*
X187505000Y-59629678D01*
X187505000Y-46590322D01*
X187512911Y-46510000D01*
X187481343Y-46189484D01*
X187387852Y-45881285D01*
X187236031Y-45597248D01*
X187031714Y-45348286D01*
X186782752Y-45143969D01*
X186498715Y-44992148D01*
X186190516Y-44898657D01*
X185950322Y-44875000D01*
X185870000Y-44867089D01*
X185789678Y-44875000D01*
X172750322Y-44875000D01*
X172670000Y-44867089D01*
X172589678Y-44875000D01*
X172349484Y-44898657D01*
X172041285Y-44992148D01*
X171757248Y-45143969D01*
X171508286Y-45348286D01*
X171303969Y-45597248D01*
X171152148Y-45881285D01*
X171058657Y-46189484D01*
X171027089Y-46510000D01*
X168455000Y-46510000D01*
X168455000Y-44310322D01*
X168462911Y-44230000D01*
X168445241Y-44050588D01*
X168431343Y-43909484D01*
X168337852Y-43601285D01*
X168186031Y-43317248D01*
X167981714Y-43068286D01*
X167732752Y-42863969D01*
X167448715Y-42712148D01*
X167140516Y-42618657D01*
X166820000Y-42587089D01*
X166739678Y-42595000D01*
X153700322Y-42595000D01*
X153620000Y-42587089D01*
X153539678Y-42595000D01*
X153299484Y-42618657D01*
X152991285Y-42712148D01*
X152707248Y-42863969D01*
X152458286Y-43068286D01*
X152253969Y-43317248D01*
X152102148Y-43601285D01*
X152008657Y-43909484D01*
X151977089Y-44230000D01*
X149405000Y-44230000D01*
X149405000Y-39540322D01*
X149412911Y-39460000D01*
X149381343Y-39139484D01*
X149287852Y-38831285D01*
X149136031Y-38547248D01*
X148931714Y-38298286D01*
X148682752Y-38093969D01*
X148398715Y-37942148D01*
X148090516Y-37848657D01*
X147850322Y-37825000D01*
X147770000Y-37817089D01*
X147689678Y-37825000D01*
X134650322Y-37825000D01*
X134570000Y-37817089D01*
X134489678Y-37825000D01*
X134249484Y-37848657D01*
X133941285Y-37942148D01*
X133657248Y-38093969D01*
X133408286Y-38298286D01*
X133203969Y-38547248D01*
X133052148Y-38831285D01*
X132958657Y-39139484D01*
X132927089Y-39460000D01*
X132330001Y-39460000D01*
X132330001Y-37589779D01*
X132339581Y-37492076D01*
X132358581Y-37429144D01*
X132389446Y-37371095D01*
X132430990Y-37320157D01*
X132481645Y-37278252D01*
X132539472Y-37246985D01*
X132602273Y-37227544D01*
X132697836Y-37217500D01*
X149637722Y-37217500D01*
X149735425Y-37227080D01*
G37*
X149735425Y-37227080D02*
X149798357Y-37246080D01*
X149856406Y-37276945D01*
X149907344Y-37318489D01*
X149949249Y-37369144D01*
X149980516Y-37426971D01*
X149999957Y-37489772D01*
X150010001Y-37585336D01*
X150010002Y-40352419D01*
X150012784Y-40380664D01*
X150012741Y-40386801D01*
X150013641Y-40395972D01*
X150034042Y-40590069D01*
X150046069Y-40648658D01*
X150057278Y-40707423D01*
X150059942Y-40716245D01*
X150117654Y-40902683D01*
X150140839Y-40957838D01*
X150163243Y-41013291D01*
X150167569Y-41021427D01*
X150260394Y-41193104D01*
X150293847Y-41242699D01*
X150326601Y-41292753D01*
X150332425Y-41299894D01*
X150456829Y-41450272D01*
X150499264Y-41492411D01*
X150541127Y-41535161D01*
X150548228Y-41541034D01*
X150699470Y-41664384D01*
X150749278Y-41697477D01*
X150798652Y-41731284D01*
X150806758Y-41735667D01*
X150979081Y-41827292D01*
X151034393Y-41850090D01*
X151089367Y-41873652D01*
X151098170Y-41876377D01*
X151285007Y-41932786D01*
X151343687Y-41944405D01*
X151402197Y-41956842D01*
X151411362Y-41957805D01*
X151605595Y-41976850D01*
X151605599Y-41976850D01*
X151637582Y-41980000D01*
X168687722Y-41980000D01*
X168785425Y-41989580D01*
X168848357Y-42008580D01*
X168906406Y-42039445D01*
X168957344Y-42080989D01*
X168999249Y-42131644D01*
X169030516Y-42189471D01*
X169049957Y-42252272D01*
X169060001Y-42347835D01*
X169060001Y-42638419D01*
X169062784Y-42666674D01*
X169062741Y-42672801D01*
X169063641Y-42681972D01*
X169084042Y-42876069D01*
X169096069Y-42934658D01*
X169107278Y-42993423D01*
X169109942Y-43002245D01*
X169167654Y-43188683D01*
X169190839Y-43243838D01*
X169213243Y-43299291D01*
X169217569Y-43307427D01*
X169310394Y-43479104D01*
X169343847Y-43528699D01*
X169376601Y-43578753D01*
X169382425Y-43585894D01*
X169506829Y-43736272D01*
X169549264Y-43778411D01*
X169591127Y-43821161D01*
X169598228Y-43827034D01*
X169749470Y-43950384D01*
X169799278Y-43983477D01*
X169848652Y-44017284D01*
X169856758Y-44021667D01*
X170029081Y-44113292D01*
X170084393Y-44136090D01*
X170139367Y-44159652D01*
X170148170Y-44162377D01*
X170335007Y-44218786D01*
X170393687Y-44230405D01*
X170452197Y-44242842D01*
X170461362Y-44243805D01*
X170655595Y-44262850D01*
X170655599Y-44262850D01*
X170687582Y-44266000D01*
X187737721Y-44266000D01*
X187835424Y-44275580D01*
X187898356Y-44294580D01*
X187956405Y-44325445D01*
X188007343Y-44366989D01*
X188049248Y-44417644D01*
X188080515Y-44475471D01*
X188099956Y-44538272D01*
X188110001Y-44633845D01*
X188110000Y-61107721D01*
X188100420Y-61205424D01*
X188081420Y-61268357D01*
X188050554Y-61326406D01*
X188009011Y-61377343D01*
X187958356Y-61419248D01*
X187900529Y-61450515D01*
X187837728Y-61469956D01*
X187743107Y-61479901D01*
X180657581Y-61479901D01*
X180629671Y-61482650D01*
X180626693Y-61482629D01*
X180617522Y-61483528D01*
X180569360Y-61488590D01*
X180560617Y-61489451D01*
X180560325Y-61489539D01*
X180520454Y-61493730D01*
X180461845Y-61505761D01*
X180403093Y-61516968D01*
X180394272Y-61519632D01*
X180301035Y-61548494D01*
X180245879Y-61571680D01*
X180190430Y-61594082D01*
X180182293Y-61598408D01*
X180096437Y-61644830D01*
X180046830Y-61678290D01*
X179996790Y-61711035D01*
X179989649Y-61716860D01*
X179914445Y-61779074D01*
X179872320Y-61821494D01*
X179829554Y-61863374D01*
X179823680Y-61870474D01*
X179761993Y-61946111D01*
X179728909Y-61995906D01*
X179695095Y-62045289D01*
X179690713Y-62053396D01*
X179644891Y-62139574D01*
X179622118Y-62194825D01*
X179598528Y-62249864D01*
X179595804Y-62258667D01*
X179567594Y-62352105D01*
X179555980Y-62410761D01*
X179543538Y-62469296D01*
X179542575Y-62478461D01*
X179533051Y-62575597D01*
X179533051Y-62604405D01*
X179529937Y-62633054D01*
X179529905Y-62642269D01*
X179529917Y-62645760D01*
X179532831Y-62674459D01*
X179532629Y-62703307D01*
X179533528Y-62712478D01*
X179543730Y-62809546D01*
X179555761Y-62868155D01*
X179566968Y-62926907D01*
X179569632Y-62935728D01*
X179598494Y-63028965D01*
X179621674Y-63084108D01*
X179644082Y-63139571D01*
X179648408Y-63147707D01*
X179694831Y-63233564D01*
X179728279Y-63283154D01*
X179761035Y-63333210D01*
X179766856Y-63340346D01*
X179766860Y-63340352D01*
X179766865Y-63340357D01*
X179829073Y-63415555D01*
X179871546Y-63457732D01*
X179913374Y-63500446D01*
X179920469Y-63506315D01*
X179920473Y-63506319D01*
X179920475Y-63506320D01*
X179996111Y-63568007D01*
X180045901Y-63601087D01*
X180095290Y-63634905D01*
X180103396Y-63639287D01*
X180189574Y-63685110D01*
X180244871Y-63707902D01*
X180299865Y-63731472D01*
X180308668Y-63734196D01*
X180402105Y-63762407D01*
X180460798Y-63774028D01*
X180519296Y-63786462D01*
X180528461Y-63787425D01*
X180625597Y-63796949D01*
X180625605Y-63796949D01*
X180657591Y-63800099D01*
X187737720Y-63800000D01*
X187835424Y-63809580D01*
X187898356Y-63828580D01*
X187956405Y-63859445D01*
X188007343Y-63900989D01*
X188049248Y-63951644D01*
X188080515Y-64009471D01*
X188099956Y-64072272D01*
X188110001Y-64167843D01*
X188109801Y-121262217D01*
X188112584Y-121290472D01*
X188112541Y-121296604D01*
X188113441Y-121305775D01*
X188133846Y-121499909D01*
X188145869Y-121558479D01*
X188157082Y-121617262D01*
X188159746Y-121626084D01*
X188217469Y-121812560D01*
X188240642Y-121867687D01*
X188263059Y-121923170D01*
X188267385Y-121931307D01*
X188360229Y-122103017D01*
X188393685Y-122152618D01*
X188426435Y-122202665D01*
X188432259Y-122209806D01*
X188556688Y-122360214D01*
X188599122Y-122402353D01*
X188640985Y-122445102D01*
X188648086Y-122450975D01*
X188799357Y-122574350D01*
X188849191Y-122607460D01*
X188898541Y-122641251D01*
X188906648Y-122645634D01*
X189079004Y-122737277D01*
X189134330Y-122760081D01*
X189189291Y-122783637D01*
X189198094Y-122786362D01*
X189384967Y-122842782D01*
X189443632Y-122854398D01*
X189502156Y-122866838D01*
X189511321Y-122867801D01*
X189705594Y-122886850D01*
X189705598Y-122886850D01*
X189737581Y-122890000D01*
X207160000Y-122890000D01*
X207160001Y-140250211D01*
X207150420Y-140347924D01*
X207131420Y-140410857D01*
X207100554Y-140468906D01*
X207059011Y-140519843D01*
X207008356Y-140561748D01*
X206950529Y-140593015D01*
X206887728Y-140612456D01*
X206792165Y-140622500D01*
X189852279Y-140622500D01*
X189754576Y-140612920D01*
X189691643Y-140593920D01*
X189633594Y-140563054D01*
X189582657Y-140521511D01*
X189540752Y-140470856D01*
X189509485Y-140413029D01*
X189490044Y-140350228D01*
X189480000Y-140254665D01*
X189480000Y-139777581D01*
X189477217Y-139749326D01*
X189477260Y-139743199D01*
X189476360Y-139734028D01*
X189455959Y-139539931D01*
X189443934Y-139481348D01*
X189432723Y-139422577D01*
X189430059Y-139413755D01*
X189372347Y-139227317D01*
X189349162Y-139172162D01*
X189326758Y-139116709D01*
X189322432Y-139108573D01*
X189229607Y-138936896D01*
X189196139Y-138887278D01*
X189163400Y-138837247D01*
X189157576Y-138830106D01*
X189033172Y-138679728D01*
X188990737Y-138637589D01*
X188948874Y-138594839D01*
X188941773Y-138588966D01*
X188790531Y-138465616D01*
X188740738Y-138432534D01*
X188691349Y-138398716D01*
X188683243Y-138394333D01*
X188510921Y-138302708D01*
X188455606Y-138279909D01*
X188400634Y-138256348D01*
X188391831Y-138253623D01*
X188204995Y-138197214D01*
X188146307Y-138185594D01*
X188087804Y-138173158D01*
X188078639Y-138172195D01*
X187884405Y-138153150D01*
X187884397Y-138153150D01*
X187852573Y-138150008D01*
X170802362Y-138146008D01*
X170704576Y-138136420D01*
X170641643Y-138117420D01*
X170583594Y-138086554D01*
X170532657Y-138045011D01*
X170490752Y-137994356D01*
X170459485Y-137936529D01*
X170440044Y-137873728D01*
X170430000Y-137778165D01*
X170430000Y-137487581D01*
X170427217Y-137459326D01*
X170427260Y-137453199D01*
X170426360Y-137444028D01*
X170405959Y-137249931D01*
X170393934Y-137191348D01*
X170382723Y-137132577D01*
X170380059Y-137123755D01*
X170322347Y-136937317D01*
X170299162Y-136882162D01*
X170276758Y-136826709D01*
X170272432Y-136818573D01*
X170179607Y-136646896D01*
X170146139Y-136597278D01*
X170113400Y-136547247D01*
X170107576Y-136540106D01*
X169983172Y-136389728D01*
X169940737Y-136347589D01*
X169898874Y-136304839D01*
X169891773Y-136298966D01*
X169740531Y-136175616D01*
X169690738Y-136142534D01*
X169641349Y-136108716D01*
X169633243Y-136104333D01*
X169460921Y-136012708D01*
X169405606Y-135989909D01*
X169350634Y-135966348D01*
X169341831Y-135963623D01*
X169154995Y-135907214D01*
X169096307Y-135895594D01*
X169037804Y-135883158D01*
X169028639Y-135882195D01*
X168834405Y-135863150D01*
X168834402Y-135863150D01*
X168802419Y-135860000D01*
X151752279Y-135860000D01*
X151654576Y-135850420D01*
X151591643Y-135831420D01*
X151533594Y-135800554D01*
X151482657Y-135759011D01*
X151440752Y-135708356D01*
X151409485Y-135650529D01*
X151390044Y-135587728D01*
X151380000Y-135492165D01*
X151380000Y-120430000D01*
X151977089Y-120430000D01*
X151985000Y-120510322D01*
X151985001Y-133549668D01*
X151977089Y-133630000D01*
X152008657Y-133950516D01*
X152102148Y-134258715D01*
X152253969Y-134542752D01*
X152458286Y-134791714D01*
X152707248Y-134996031D01*
X152991285Y-135147852D01*
X153299484Y-135241343D01*
X153539678Y-135265000D01*
X153620000Y-135272911D01*
X153700322Y-135265000D01*
X166739678Y-135265000D01*
X166820000Y-135272911D01*
X166900322Y-135265000D01*
X167140516Y-135241343D01*
X167448715Y-135147852D01*
X167732752Y-134996031D01*
X167981714Y-134791714D01*
X168186031Y-134542752D01*
X168337852Y-134258715D01*
X168431343Y-133950516D01*
X168462911Y-133630000D01*
X168455000Y-133549678D01*
X168455000Y-122710000D01*
X171027089Y-122710000D01*
X171035000Y-122790322D01*
X171035001Y-135829668D01*
X171027089Y-135910000D01*
X171058657Y-136230516D01*
X171152148Y-136538715D01*
X171303969Y-136822752D01*
X171508286Y-137071714D01*
X171757248Y-137276031D01*
X172041285Y-137427852D01*
X172349484Y-137521343D01*
X172589678Y-137545000D01*
X172670000Y-137552911D01*
X172750322Y-137545000D01*
X185789678Y-137545000D01*
X185870000Y-137552911D01*
X185950322Y-137545000D01*
X186190516Y-137521343D01*
X186498715Y-137427852D01*
X186782752Y-137276031D01*
X187031714Y-137071714D01*
X187236031Y-136822752D01*
X187387852Y-136538715D01*
X187481343Y-136230516D01*
X187512911Y-135910000D01*
X187505000Y-135829678D01*
X187505000Y-125180000D01*
X190077089Y-125180000D01*
X190085000Y-125260322D01*
X190085001Y-138299668D01*
X190077089Y-138380000D01*
X190108657Y-138700516D01*
X190202148Y-139008715D01*
X190353969Y-139292752D01*
X190558286Y-139541714D01*
X190807248Y-139746031D01*
X191091285Y-139897852D01*
X191399484Y-139991343D01*
X191639678Y-140015000D01*
X191720000Y-140022911D01*
X191800322Y-140015000D01*
X204839678Y-140015000D01*
X204920000Y-140022911D01*
X205000322Y-140015000D01*
X205240516Y-139991343D01*
X205548715Y-139897852D01*
X205832752Y-139746031D01*
X206081714Y-139541714D01*
X206286031Y-139292752D01*
X206437852Y-139008715D01*
X206531343Y-138700516D01*
X206562911Y-138380000D01*
X206555000Y-138299678D01*
X206555000Y-125260322D01*
X206562911Y-125180000D01*
X206531343Y-124859484D01*
X206437852Y-124551285D01*
X206286031Y-124267248D01*
X206081714Y-124018286D01*
X205832752Y-123813969D01*
X205548715Y-123662148D01*
X205240516Y-123568657D01*
X205000322Y-123545000D01*
X204920000Y-123537089D01*
X204839678Y-123545000D01*
X191800322Y-123545000D01*
X191720000Y-123537089D01*
X191639678Y-123545000D01*
X191399484Y-123568657D01*
X191091285Y-123662148D01*
X190807248Y-123813969D01*
X190558286Y-124018286D01*
X190353969Y-124267248D01*
X190202148Y-124551285D01*
X190108657Y-124859484D01*
X190077089Y-125180000D01*
X187505000Y-125180000D01*
X187505000Y-122790322D01*
X187512911Y-122710000D01*
X187481343Y-122389484D01*
X187387852Y-122081285D01*
X187236031Y-121797248D01*
X187031714Y-121548286D01*
X186782752Y-121343969D01*
X186498715Y-121192148D01*
X186190516Y-121098657D01*
X185950322Y-121075000D01*
X185870000Y-121067089D01*
X185789678Y-121075000D01*
X172750322Y-121075000D01*
X172670000Y-121067089D01*
X172589678Y-121075000D01*
X172349484Y-121098657D01*
X172041285Y-121192148D01*
X171757248Y-121343969D01*
X171508286Y-121548286D01*
X171303969Y-121797248D01*
X171152148Y-122081285D01*
X171058657Y-122389484D01*
X171027089Y-122710000D01*
X168455000Y-122710000D01*
X168455000Y-120510322D01*
X168462911Y-120430000D01*
X168445574Y-120253969D01*
X168431343Y-120109484D01*
X168337852Y-119801285D01*
X168186031Y-119517248D01*
X167981714Y-119268286D01*
X167732752Y-119063969D01*
X167448715Y-118912148D01*
X167140516Y-118818657D01*
X166820000Y-118787089D01*
X166739678Y-118795000D01*
X153700322Y-118795000D01*
X153620000Y-118787089D01*
X153539678Y-118795000D01*
X153299484Y-118818657D01*
X152991285Y-118912148D01*
X152707248Y-119063969D01*
X152458286Y-119268286D01*
X152253969Y-119517248D01*
X152102148Y-119801285D01*
X152008657Y-120109484D01*
X151977089Y-120430000D01*
X151380000Y-120430000D01*
X151380000Y-113675081D01*
X151377217Y-113646826D01*
X151377260Y-113640699D01*
X151376360Y-113631528D01*
X151355959Y-113437431D01*
X151343934Y-113378848D01*
X151332723Y-113320077D01*
X151330059Y-113311255D01*
X151272347Y-113124817D01*
X151249162Y-113069662D01*
X151226758Y-113014209D01*
X151222432Y-113006073D01*
X151129607Y-112834396D01*
X151096139Y-112784778D01*
X151063400Y-112734747D01*
X151057576Y-112727606D01*
X150933172Y-112577228D01*
X150890737Y-112535089D01*
X150848874Y-112492339D01*
X150841773Y-112486466D01*
X150690531Y-112363116D01*
X150640738Y-112330034D01*
X150591349Y-112296216D01*
X150583243Y-112291833D01*
X150410921Y-112200208D01*
X150355606Y-112177409D01*
X150300634Y-112153848D01*
X150291831Y-112151123D01*
X150104995Y-112094714D01*
X150046307Y-112083094D01*
X149987804Y-112070658D01*
X149978639Y-112069695D01*
X149784405Y-112050650D01*
X149784402Y-112050650D01*
X149752419Y-112047500D01*
X132587581Y-112047500D01*
X132559326Y-112050283D01*
X132553199Y-112050240D01*
X132544028Y-112051140D01*
X132349931Y-112071541D01*
X132291348Y-112083566D01*
X132232577Y-112094777D01*
X132223755Y-112097441D01*
X132037317Y-112155153D01*
X131982162Y-112178338D01*
X131926709Y-112200742D01*
X131918573Y-112205068D01*
X131746896Y-112297893D01*
X131697278Y-112331361D01*
X131647247Y-112364100D01*
X131640106Y-112369924D01*
X131489728Y-112494328D01*
X131447589Y-112536763D01*
X131404839Y-112578626D01*
X131398966Y-112585727D01*
X131275616Y-112736969D01*
X131242534Y-112786762D01*
X131208716Y-112836151D01*
X131204333Y-112844257D01*
X131112708Y-113016579D01*
X131089909Y-113071894D01*
X131066348Y-113126866D01*
X131063623Y-113135669D01*
X131007214Y-113322505D01*
X130995594Y-113381193D01*
X130983158Y-113439696D01*
X130982195Y-113448861D01*
X130963150Y-113643095D01*
X130960000Y-113675082D01*
X130960001Y-116437711D01*
X130950420Y-116535424D01*
X130931420Y-116598357D01*
X130900554Y-116656406D01*
X130859011Y-116707343D01*
X130808356Y-116749248D01*
X130750529Y-116780515D01*
X130687728Y-116799956D01*
X130592165Y-116810000D01*
X113537581Y-116810000D01*
X113509326Y-116812783D01*
X113503199Y-116812740D01*
X113494028Y-116813640D01*
X113299931Y-116834041D01*
X113241348Y-116846066D01*
X113182577Y-116857277D01*
X113173755Y-116859941D01*
X112987317Y-116917653D01*
X112932162Y-116940838D01*
X112876709Y-116963242D01*
X112868573Y-116967568D01*
X112696896Y-117060393D01*
X112647278Y-117093861D01*
X112597247Y-117126600D01*
X112590106Y-117132424D01*
X112439728Y-117256828D01*
X112397589Y-117299263D01*
X112354839Y-117341126D01*
X112348966Y-117348227D01*
X112225616Y-117499469D01*
X112192534Y-117549262D01*
X112158716Y-117598651D01*
X112154333Y-117606757D01*
X112062708Y-117779079D01*
X112039909Y-117834394D01*
X112016348Y-117889366D01*
X112013623Y-117898169D01*
X111957214Y-118085005D01*
X111945594Y-118143693D01*
X111933158Y-118202196D01*
X111932195Y-118211361D01*
X111913150Y-118405595D01*
X111910000Y-118437582D01*
X111910001Y-123486211D01*
X111900420Y-123583924D01*
X111881420Y-123646857D01*
X111850554Y-123704906D01*
X111809011Y-123755843D01*
X111758356Y-123797748D01*
X111700529Y-123829015D01*
X111637728Y-123848456D01*
X111542165Y-123858500D01*
X94487581Y-123858500D01*
X94459326Y-123861283D01*
X94453199Y-123861240D01*
X94444028Y-123862140D01*
X94249931Y-123882541D01*
X94191348Y-123894566D01*
X94132577Y-123905777D01*
X94123755Y-123908441D01*
X93937317Y-123966153D01*
X93882162Y-123989338D01*
X93826709Y-124011742D01*
X93818573Y-124016068D01*
X93646896Y-124108893D01*
X93597278Y-124142361D01*
X93547247Y-124175100D01*
X93540106Y-124180924D01*
X93389728Y-124305328D01*
X93347589Y-124347763D01*
X93304839Y-124389626D01*
X93298966Y-124396727D01*
X93175616Y-124547969D01*
X93142534Y-124597762D01*
X93108716Y-124647151D01*
X93104333Y-124655257D01*
X93012708Y-124827579D01*
X92989909Y-124882894D01*
X92966348Y-124937866D01*
X92963623Y-124946669D01*
X92907214Y-125133505D01*
X92895594Y-125192193D01*
X92883158Y-125250696D01*
X92882195Y-125259861D01*
X92863150Y-125454095D01*
X92860000Y-125486082D01*
X92860000Y-125962721D01*
X92850420Y-126060424D01*
X92831420Y-126123357D01*
X92800554Y-126181406D01*
X92759011Y-126232343D01*
X92708356Y-126274248D01*
X92650529Y-126305515D01*
X92587728Y-126324956D01*
X92492165Y-126335000D01*
X75552279Y-126335000D01*
X75454576Y-126325420D01*
X75391643Y-126306420D01*
X75333594Y-126275554D01*
X75282657Y-126234011D01*
X75240752Y-126183356D01*
X75209485Y-126125529D01*
X75190044Y-126062728D01*
X75180000Y-125967165D01*
X75180000Y-110900000D01*
X75777089Y-110900000D01*
X75785000Y-110980322D01*
X75785001Y-124019668D01*
X75777089Y-124100000D01*
X75808657Y-124420516D01*
X75902148Y-124728715D01*
X76053969Y-125012752D01*
X76258286Y-125261714D01*
X76507248Y-125466031D01*
X76791285Y-125617852D01*
X77099484Y-125711343D01*
X77339678Y-125735000D01*
X77420000Y-125742911D01*
X77500322Y-125735000D01*
X90539678Y-125735000D01*
X90620000Y-125742911D01*
X90700322Y-125735000D01*
X90940516Y-125711343D01*
X91248715Y-125617852D01*
X91532752Y-125466031D01*
X91781714Y-125261714D01*
X91986031Y-125012752D01*
X92137852Y-124728715D01*
X92231343Y-124420516D01*
X92262911Y-124100000D01*
X92255000Y-124019678D01*
X92255000Y-110980322D01*
X92262911Y-110900000D01*
X92231343Y-110579484D01*
X92137852Y-110271285D01*
X91986031Y-109987248D01*
X91781714Y-109738286D01*
X91532752Y-109533969D01*
X91248715Y-109382148D01*
X90940516Y-109288657D01*
X90700322Y-109265000D01*
X90620000Y-109257089D01*
X90539678Y-109265000D01*
X77500322Y-109265000D01*
X77420000Y-109257089D01*
X77339678Y-109265000D01*
X77099484Y-109288657D01*
X76791285Y-109382148D01*
X76507248Y-109533969D01*
X76258286Y-109738286D01*
X76053969Y-109987248D01*
X75902148Y-110271285D01*
X75808657Y-110579484D01*
X75777089Y-110900000D01*
X75180000Y-110900000D01*
X75180000Y-108420000D01*
X94827089Y-108420000D01*
X94835000Y-108500322D01*
X94835001Y-121539668D01*
X94827089Y-121620000D01*
X94858657Y-121940516D01*
X94952148Y-122248715D01*
X95103969Y-122532752D01*
X95308286Y-122781714D01*
X95557248Y-122986031D01*
X95841285Y-123137852D01*
X96149484Y-123231343D01*
X96389678Y-123255000D01*
X96470000Y-123262911D01*
X96550322Y-123255000D01*
X109589678Y-123255000D01*
X109670000Y-123262911D01*
X109750322Y-123255000D01*
X109990516Y-123231343D01*
X110298715Y-123137852D01*
X110582752Y-122986031D01*
X110831714Y-122781714D01*
X111036031Y-122532752D01*
X111187852Y-122248715D01*
X111281343Y-121940516D01*
X111295454Y-121797248D01*
X111305000Y-121700322D01*
X111305000Y-121700321D01*
X111312911Y-121620000D01*
X111305000Y-121539678D01*
X111305000Y-108500322D01*
X111312911Y-108420000D01*
X111281343Y-108099484D01*
X111187852Y-107791285D01*
X111036031Y-107507248D01*
X110831714Y-107258286D01*
X110582752Y-107053969D01*
X110298715Y-106902148D01*
X109990516Y-106808657D01*
X109750322Y-106785000D01*
X109670000Y-106777089D01*
X109589678Y-106785000D01*
X96550322Y-106785000D01*
X96470000Y-106777089D01*
X96389678Y-106785000D01*
X96149484Y-106808657D01*
X95841285Y-106902148D01*
X95557248Y-107053969D01*
X95308286Y-107258286D01*
X95103969Y-107507248D01*
X94952148Y-107791285D01*
X94858657Y-108099484D01*
X94827089Y-108420000D01*
X75180000Y-108420000D01*
X75180000Y-100647581D01*
X75176802Y-100615110D01*
X75176802Y-100608617D01*
X75175838Y-100599452D01*
X75171094Y-100557161D01*
X75170450Y-100550617D01*
X75170308Y-100550149D01*
X75164959Y-100502459D01*
X75152530Y-100443983D01*
X75140904Y-100385264D01*
X75138178Y-100376461D01*
X75108666Y-100283427D01*
X75085119Y-100228488D01*
X75062303Y-100173133D01*
X75057919Y-100165027D01*
X75010898Y-100079498D01*
X74977111Y-100030154D01*
X74944005Y-99980324D01*
X74938131Y-99973224D01*
X74875394Y-99898456D01*
X74832683Y-99856630D01*
X74790503Y-99814154D01*
X74783361Y-99808330D01*
X74707296Y-99747173D01*
X74657244Y-99714420D01*
X74607649Y-99680967D01*
X74599517Y-99676644D01*
X74599513Y-99676641D01*
X74599509Y-99676639D01*
X74513016Y-99631422D01*
X74457584Y-99609026D01*
X74402408Y-99585832D01*
X74393586Y-99583169D01*
X74299955Y-99555612D01*
X74241256Y-99544415D01*
X74182600Y-99532374D01*
X74173429Y-99531475D01*
X74076228Y-99522629D01*
X74016411Y-99523047D01*
X73956594Y-99522629D01*
X73947423Y-99523528D01*
X73850355Y-99533730D01*
X73791746Y-99545761D01*
X73732994Y-99556968D01*
X73724173Y-99559632D01*
X73630936Y-99588494D01*
X73575780Y-99611680D01*
X73520331Y-99634082D01*
X73512194Y-99638408D01*
X73426338Y-99684830D01*
X73376731Y-99718290D01*
X73326691Y-99751035D01*
X73319550Y-99756860D01*
X73244346Y-99819074D01*
X73205000Y-99858696D01*
X73205000Y-98641197D01*
X73207237Y-98643389D01*
X73249398Y-98685845D01*
X73256540Y-98691669D01*
X73332605Y-98752827D01*
X73382657Y-98785580D01*
X73432252Y-98819033D01*
X73440384Y-98823356D01*
X73440388Y-98823359D01*
X73440392Y-98823361D01*
X73526885Y-98868578D01*
X73582317Y-98890974D01*
X73637493Y-98914168D01*
X73646315Y-98916831D01*
X73739946Y-98944388D01*
X73798659Y-98955588D01*
X73857302Y-98967626D01*
X73866473Y-98968525D01*
X73963673Y-98977371D01*
X74023490Y-98976953D01*
X74083307Y-98977371D01*
X74092478Y-98976472D01*
X74189546Y-98966270D01*
X74248155Y-98954239D01*
X74306907Y-98943032D01*
X74315728Y-98940368D01*
X74408965Y-98911506D01*
X74464108Y-98888326D01*
X74519571Y-98865918D01*
X74527707Y-98861592D01*
X74613564Y-98815169D01*
X74663154Y-98781721D01*
X74713210Y-98748965D01*
X74720346Y-98743144D01*
X74720352Y-98743140D01*
X74720357Y-98743135D01*
X74795555Y-98680927D01*
X74837732Y-98638454D01*
X74880446Y-98596626D01*
X74886318Y-98589528D01*
X74886319Y-98589527D01*
X74886322Y-98589523D01*
X74948007Y-98513889D01*
X74981087Y-98464099D01*
X75014905Y-98414710D01*
X75019287Y-98406604D01*
X75065110Y-98320426D01*
X75087902Y-98265129D01*
X75111472Y-98210135D01*
X75114196Y-98201332D01*
X75142407Y-98107895D01*
X75154028Y-98049202D01*
X75166462Y-97990704D01*
X75167425Y-97981539D01*
X75176949Y-97884403D01*
X75176949Y-97884396D01*
X75180099Y-97852406D01*
X75179999Y-92567569D01*
X75176802Y-92535115D01*
X75176802Y-92528617D01*
X75175838Y-92519452D01*
X75171081Y-92477037D01*
X75170447Y-92470605D01*
X75170308Y-92470146D01*
X75164959Y-92422459D01*
X75152530Y-92363983D01*
X75140904Y-92305264D01*
X75138178Y-92296461D01*
X75108666Y-92203427D01*
X75085119Y-92148488D01*
X75062303Y-92093133D01*
X75057919Y-92085027D01*
X75010898Y-91999498D01*
X74977111Y-91950154D01*
X74944005Y-91900324D01*
X74938131Y-91893224D01*
X74901863Y-91850000D01*
X75777089Y-91850000D01*
X75785000Y-91930322D01*
X75785001Y-104969668D01*
X75777089Y-105050000D01*
X75808657Y-105370516D01*
X75902148Y-105678715D01*
X76053969Y-105962752D01*
X76258286Y-106211714D01*
X76507248Y-106416031D01*
X76791285Y-106567852D01*
X77099484Y-106661343D01*
X77339678Y-106685000D01*
X77420000Y-106692911D01*
X77500322Y-106685000D01*
X90539678Y-106685000D01*
X90620000Y-106692911D01*
X90700322Y-106685000D01*
X90940516Y-106661343D01*
X91248715Y-106567852D01*
X91532752Y-106416031D01*
X91781714Y-106211714D01*
X91986031Y-105962752D01*
X92137852Y-105678715D01*
X92231343Y-105370516D01*
X92262911Y-105050000D01*
X92255000Y-104969678D01*
X92255000Y-91930322D01*
X92262911Y-91850000D01*
X92253362Y-91753042D01*
X92231343Y-91529484D01*
X92137852Y-91221285D01*
X91986031Y-90937248D01*
X91781714Y-90688286D01*
X91532752Y-90483969D01*
X91248715Y-90332148D01*
X90940516Y-90238657D01*
X90620000Y-90207089D01*
X90539678Y-90215000D01*
X77500322Y-90215000D01*
X77420000Y-90207089D01*
X77339678Y-90215000D01*
X77099484Y-90238657D01*
X76791285Y-90332148D01*
X76507248Y-90483969D01*
X76258286Y-90688286D01*
X76053969Y-90937248D01*
X75902148Y-91221285D01*
X75808657Y-91529484D01*
X75777089Y-91850000D01*
X74901863Y-91850000D01*
X74875394Y-91818456D01*
X74832683Y-91776630D01*
X74790503Y-91734154D01*
X74783361Y-91728330D01*
X74707296Y-91667173D01*
X74657244Y-91634420D01*
X74607649Y-91600967D01*
X74599517Y-91596644D01*
X74599513Y-91596641D01*
X74599509Y-91596639D01*
X74513016Y-91551422D01*
X74457584Y-91529026D01*
X74402408Y-91505832D01*
X74393586Y-91503169D01*
X74299955Y-91475612D01*
X74241256Y-91464415D01*
X74182600Y-91452374D01*
X74173429Y-91451475D01*
X74076228Y-91442629D01*
X74016411Y-91443047D01*
X73956594Y-91442629D01*
X73947423Y-91443528D01*
X73850355Y-91453730D01*
X73791746Y-91465761D01*
X73732994Y-91476968D01*
X73724173Y-91479632D01*
X73630936Y-91508494D01*
X73575780Y-91531680D01*
X73520331Y-91554082D01*
X73512194Y-91558408D01*
X73426338Y-91604830D01*
X73376731Y-91638290D01*
X73326691Y-91671035D01*
X73319550Y-91676860D01*
X73244346Y-91739074D01*
X73205000Y-91778696D01*
X73205000Y-89370000D01*
X94827089Y-89370000D01*
X94835000Y-89450322D01*
X94835001Y-102489668D01*
X94827089Y-102570000D01*
X94858657Y-102890516D01*
X94952148Y-103198715D01*
X95103969Y-103482752D01*
X95308286Y-103731714D01*
X95557248Y-103936031D01*
X95841285Y-104087852D01*
X96149484Y-104181343D01*
X96389678Y-104205000D01*
X96470000Y-104212911D01*
X96550322Y-104205000D01*
X109589678Y-104205000D01*
X109670000Y-104212911D01*
X109750322Y-104205000D01*
X109990516Y-104181343D01*
X110298715Y-104087852D01*
X110582752Y-103936031D01*
X110831714Y-103731714D01*
X111036031Y-103482752D01*
X111187852Y-103198715D01*
X111281343Y-102890516D01*
X111290229Y-102800297D01*
X111305000Y-102650322D01*
X111305000Y-102650321D01*
X111312911Y-102570000D01*
X111305000Y-102489678D01*
X111305000Y-101370000D01*
X113877089Y-101370000D01*
X113885000Y-101450322D01*
X113885001Y-114489668D01*
X113877089Y-114570000D01*
X113908657Y-114890516D01*
X114002148Y-115198715D01*
X114153969Y-115482752D01*
X114358286Y-115731714D01*
X114607248Y-115936031D01*
X114891285Y-116087852D01*
X115199484Y-116181343D01*
X115439678Y-116205000D01*
X115520000Y-116212911D01*
X115600322Y-116205000D01*
X128639678Y-116205000D01*
X128720000Y-116212911D01*
X128800322Y-116205000D01*
X129040516Y-116181343D01*
X129348715Y-116087852D01*
X129632752Y-115936031D01*
X129881714Y-115731714D01*
X130086031Y-115482752D01*
X130237852Y-115198715D01*
X130331343Y-114890516D01*
X130362911Y-114570000D01*
X130355000Y-114489678D01*
X130355000Y-101450322D01*
X130362911Y-101370000D01*
X130349360Y-101232409D01*
X130331343Y-101049484D01*
X130237852Y-100741285D01*
X130086031Y-100457248D01*
X129881714Y-100208286D01*
X129632752Y-100003969D01*
X129348715Y-99852148D01*
X129040516Y-99758657D01*
X128720000Y-99727089D01*
X128639678Y-99735000D01*
X115600322Y-99735000D01*
X115520000Y-99727089D01*
X115439678Y-99735000D01*
X115199484Y-99758657D01*
X114891285Y-99852148D01*
X114607248Y-100003969D01*
X114358286Y-100208286D01*
X114153969Y-100457248D01*
X114002148Y-100741285D01*
X113908657Y-101049484D01*
X113877089Y-101370000D01*
X111305000Y-101370000D01*
X111305000Y-89450322D01*
X111312911Y-89370000D01*
X111281343Y-89049484D01*
X111187852Y-88741285D01*
X111036031Y-88457248D01*
X110831714Y-88208286D01*
X110582752Y-88003969D01*
X110298715Y-87852148D01*
X109990516Y-87758657D01*
X109750322Y-87735000D01*
X109670000Y-87727089D01*
X109589678Y-87735000D01*
X96550322Y-87735000D01*
X96470000Y-87727089D01*
X96389678Y-87735000D01*
X96149484Y-87758657D01*
X95841285Y-87852148D01*
X95557248Y-88003969D01*
X95308286Y-88208286D01*
X95103969Y-88457248D01*
X94952148Y-88741285D01*
X94858657Y-89049484D01*
X94827089Y-89370000D01*
X73205000Y-89370000D01*
X73205000Y-87550494D01*
X73206441Y-87551669D01*
X73282506Y-87612827D01*
X73332558Y-87645580D01*
X73382153Y-87679033D01*
X73390285Y-87683356D01*
X73390289Y-87683359D01*
X73390293Y-87683361D01*
X73476786Y-87728578D01*
X73532218Y-87750974D01*
X73587394Y-87774168D01*
X73596216Y-87776831D01*
X73689847Y-87804388D01*
X73748560Y-87815588D01*
X73807203Y-87827626D01*
X73816374Y-87828525D01*
X73913574Y-87837371D01*
X73973391Y-87836953D01*
X74033208Y-87837371D01*
X74042379Y-87836472D01*
X74139447Y-87826270D01*
X74198056Y-87814239D01*
X74256808Y-87803032D01*
X74265629Y-87800368D01*
X74358866Y-87771506D01*
X74414009Y-87748326D01*
X74469472Y-87725918D01*
X74477608Y-87721592D01*
X74563465Y-87675169D01*
X74613055Y-87641721D01*
X74663111Y-87608965D01*
X74670247Y-87603144D01*
X74670253Y-87603140D01*
X74670258Y-87603135D01*
X74745456Y-87540927D01*
X74787633Y-87498454D01*
X74830347Y-87456626D01*
X74836219Y-87449528D01*
X74836220Y-87449527D01*
X74836223Y-87449523D01*
X74897908Y-87373889D01*
X74930988Y-87324099D01*
X74964806Y-87274710D01*
X74969188Y-87266604D01*
X75015011Y-87180426D01*
X75037803Y-87125129D01*
X75061373Y-87070135D01*
X75064097Y-87061332D01*
X75092308Y-86967895D01*
X75103929Y-86909202D01*
X75116363Y-86850704D01*
X75117326Y-86841539D01*
X75126850Y-86744403D01*
X75126850Y-86744402D01*
X75130000Y-86712419D01*
X75130000Y-72800000D01*
X75777089Y-72800000D01*
X75785000Y-72880322D01*
X75785001Y-85919668D01*
X75777089Y-86000000D01*
X75808657Y-86320516D01*
X75902148Y-86628715D01*
X76053969Y-86912752D01*
X76258286Y-87161714D01*
X76507248Y-87366031D01*
X76791285Y-87517852D01*
X77099484Y-87611343D01*
X77339678Y-87635000D01*
X77420000Y-87642911D01*
X77500322Y-87635000D01*
X90539678Y-87635000D01*
X90620000Y-87642911D01*
X90700322Y-87635000D01*
X90940516Y-87611343D01*
X91248715Y-87517852D01*
X91532752Y-87366031D01*
X91781714Y-87161714D01*
X91986031Y-86912752D01*
X92137852Y-86628715D01*
X92231343Y-86320516D01*
X92262911Y-86000000D01*
X92255000Y-85919678D01*
X92255000Y-72880322D01*
X92262911Y-72800000D01*
X92231343Y-72479484D01*
X92137852Y-72171285D01*
X91986031Y-71887248D01*
X91781714Y-71638286D01*
X91532752Y-71433969D01*
X91248715Y-71282148D01*
X90940516Y-71188657D01*
X90700322Y-71165000D01*
X90620000Y-71157089D01*
X90539678Y-71165000D01*
X77500322Y-71165000D01*
X77420000Y-71157089D01*
X77339678Y-71165000D01*
X77099484Y-71188657D01*
X76791285Y-71282148D01*
X76507248Y-71433969D01*
X76258286Y-71638286D01*
X76053969Y-71887248D01*
X75902148Y-72171285D01*
X75808657Y-72479484D01*
X75777089Y-72800000D01*
X75130000Y-72800000D01*
X75130000Y-71402279D01*
X75139580Y-71304576D01*
X75158580Y-71241644D01*
X75189445Y-71183595D01*
X75230989Y-71132657D01*
X75281644Y-71090752D01*
X75339471Y-71059485D01*
X75402272Y-71040044D01*
X75497837Y-71030000D01*
X82622310Y-71030099D01*
X82650223Y-71027350D01*
X82653208Y-71027371D01*
X82662379Y-71026472D01*
X82710552Y-71021409D01*
X82719274Y-71020550D01*
X82719565Y-71020462D01*
X82759447Y-71016270D01*
X82818056Y-71004239D01*
X82876808Y-70993032D01*
X82885629Y-70990368D01*
X82978866Y-70961506D01*
X83034009Y-70938326D01*
X83089472Y-70915918D01*
X83097608Y-70911592D01*
X83183465Y-70865169D01*
X83233055Y-70831721D01*
X83283111Y-70798965D01*
X83290247Y-70793144D01*
X83290253Y-70793140D01*
X83290258Y-70793135D01*
X83365456Y-70730927D01*
X83407633Y-70688454D01*
X83450347Y-70646626D01*
X83456219Y-70639528D01*
X83456220Y-70639527D01*
X83456223Y-70639523D01*
X83517908Y-70563889D01*
X83550988Y-70514099D01*
X83584806Y-70464710D01*
X83589188Y-70456604D01*
X83635011Y-70370426D01*
X83657803Y-70315129D01*
X83681373Y-70260135D01*
X83684097Y-70251332D01*
X83712308Y-70157895D01*
X83723929Y-70099202D01*
X83736363Y-70040704D01*
X83737326Y-70031539D01*
X83746850Y-69934403D01*
X83746850Y-69905595D01*
X83749964Y-69876946D01*
X83749980Y-69872269D01*
X84290004Y-69872269D01*
X84290016Y-69875760D01*
X84292930Y-69904459D01*
X84292728Y-69933307D01*
X84293627Y-69942478D01*
X84303829Y-70039546D01*
X84315860Y-70098155D01*
X84327067Y-70156907D01*
X84329731Y-70165728D01*
X84358593Y-70258965D01*
X84381773Y-70314108D01*
X84404181Y-70369571D01*
X84408507Y-70377707D01*
X84454930Y-70463564D01*
X84488378Y-70513154D01*
X84521134Y-70563210D01*
X84526955Y-70570346D01*
X84526959Y-70570352D01*
X84526964Y-70570357D01*
X84589172Y-70645555D01*
X84631645Y-70687732D01*
X84673473Y-70730446D01*
X84680568Y-70736315D01*
X84680572Y-70736319D01*
X84680574Y-70736320D01*
X84756210Y-70798007D01*
X84806000Y-70831087D01*
X84855389Y-70864905D01*
X84863495Y-70869287D01*
X84949673Y-70915110D01*
X85004970Y-70937902D01*
X85059964Y-70961472D01*
X85068767Y-70964196D01*
X85162204Y-70992407D01*
X85220897Y-71004028D01*
X85279395Y-71016462D01*
X85288560Y-71017425D01*
X85385696Y-71026949D01*
X85385697Y-71026949D01*
X85417680Y-71030099D01*
X93072419Y-71030099D01*
X93101612Y-71027224D01*
X93106801Y-71027260D01*
X93115972Y-71026360D01*
X93310069Y-71005959D01*
X93368658Y-70993932D01*
X93427423Y-70982723D01*
X93436245Y-70980059D01*
X93622683Y-70922347D01*
X93677838Y-70899162D01*
X93733291Y-70876758D01*
X93741427Y-70872432D01*
X93913104Y-70779607D01*
X93962699Y-70746154D01*
X94012753Y-70713400D01*
X94019894Y-70707576D01*
X94170272Y-70583172D01*
X94212411Y-70540737D01*
X94255161Y-70498874D01*
X94261034Y-70491773D01*
X94384384Y-70340531D01*
X94398025Y-70320000D01*
X94827089Y-70320000D01*
X94835000Y-70400322D01*
X94835001Y-83439668D01*
X94827089Y-83520000D01*
X94858657Y-83840516D01*
X94952148Y-84148715D01*
X95103969Y-84432752D01*
X95308286Y-84681714D01*
X95557248Y-84886031D01*
X95841285Y-85037852D01*
X96149484Y-85131343D01*
X96389678Y-85155000D01*
X96470000Y-85162911D01*
X96550322Y-85155000D01*
X109589678Y-85155000D01*
X109670000Y-85162911D01*
X109750322Y-85155000D01*
X109990516Y-85131343D01*
X110298715Y-85037852D01*
X110582752Y-84886031D01*
X110831714Y-84681714D01*
X111036031Y-84432752D01*
X111187852Y-84148715D01*
X111281343Y-83840516D01*
X111295559Y-83696179D01*
X111305000Y-83600322D01*
X111305000Y-83600321D01*
X111312911Y-83520000D01*
X111305000Y-83439678D01*
X111305000Y-82320000D01*
X113877089Y-82320000D01*
X113885000Y-82400322D01*
X113885001Y-95439668D01*
X113877089Y-95520000D01*
X113908657Y-95840516D01*
X114002148Y-96148715D01*
X114153969Y-96432752D01*
X114358286Y-96681714D01*
X114607248Y-96886031D01*
X114891285Y-97037852D01*
X115199484Y-97131343D01*
X115439678Y-97155000D01*
X115520000Y-97162911D01*
X115600322Y-97155000D01*
X128639678Y-97155000D01*
X128720000Y-97162911D01*
X128800322Y-97155000D01*
X129040516Y-97131343D01*
X129348715Y-97037852D01*
X129632752Y-96886031D01*
X129881714Y-96681714D01*
X129940567Y-96610000D01*
X132927089Y-96610000D01*
X132935000Y-96690322D01*
X132935001Y-109729668D01*
X132927089Y-109810000D01*
X132958657Y-110130516D01*
X133052148Y-110438715D01*
X133203969Y-110722752D01*
X133408286Y-110971714D01*
X133657248Y-111176031D01*
X133941285Y-111327852D01*
X134249484Y-111421343D01*
X134489678Y-111445000D01*
X134570000Y-111452911D01*
X134650322Y-111445000D01*
X147689678Y-111445000D01*
X147770000Y-111452911D01*
X147850322Y-111445000D01*
X148090516Y-111421343D01*
X148398715Y-111327852D01*
X148682752Y-111176031D01*
X148931714Y-110971714D01*
X149136031Y-110722752D01*
X149287852Y-110438715D01*
X149381343Y-110130516D01*
X149412911Y-109810000D01*
X149405000Y-109729678D01*
X149405000Y-101380000D01*
X151977089Y-101380000D01*
X151985000Y-101460322D01*
X151985001Y-114499668D01*
X151977089Y-114580000D01*
X152008657Y-114900516D01*
X152102148Y-115208715D01*
X152253969Y-115492752D01*
X152458286Y-115741714D01*
X152707248Y-115946031D01*
X152991285Y-116097852D01*
X153299484Y-116191343D01*
X153539678Y-116215000D01*
X153620000Y-116222911D01*
X153700322Y-116215000D01*
X166739678Y-116215000D01*
X166820000Y-116222911D01*
X166900322Y-116215000D01*
X167140516Y-116191343D01*
X167448715Y-116097852D01*
X167732752Y-115946031D01*
X167981714Y-115741714D01*
X168186031Y-115492752D01*
X168337852Y-115208715D01*
X168431343Y-114900516D01*
X168462911Y-114580000D01*
X168455000Y-114499678D01*
X168455000Y-103660000D01*
X171027089Y-103660000D01*
X171035000Y-103740322D01*
X171035001Y-116779668D01*
X171027089Y-116860000D01*
X171058657Y-117180516D01*
X171152148Y-117488715D01*
X171303969Y-117772752D01*
X171508286Y-118021714D01*
X171757248Y-118226031D01*
X172041285Y-118377852D01*
X172349484Y-118471343D01*
X172589678Y-118495000D01*
X172670000Y-118502911D01*
X172750322Y-118495000D01*
X185789678Y-118495000D01*
X185870000Y-118502911D01*
X185950322Y-118495000D01*
X186190516Y-118471343D01*
X186498715Y-118377852D01*
X186782752Y-118226031D01*
X187031714Y-118021714D01*
X187236031Y-117772752D01*
X187387852Y-117488715D01*
X187481343Y-117180516D01*
X187512911Y-116860000D01*
X187505000Y-116779678D01*
X187505000Y-103740322D01*
X187512911Y-103660000D01*
X187481343Y-103339484D01*
X187387852Y-103031285D01*
X187236031Y-102747248D01*
X187031714Y-102498286D01*
X186782752Y-102293969D01*
X186498715Y-102142148D01*
X186190516Y-102048657D01*
X185950322Y-102025000D01*
X185870000Y-102017089D01*
X185789678Y-102025000D01*
X172750322Y-102025000D01*
X172670000Y-102017089D01*
X172589678Y-102025000D01*
X172349484Y-102048657D01*
X172041285Y-102142148D01*
X171757248Y-102293969D01*
X171508286Y-102498286D01*
X171303969Y-102747248D01*
X171152148Y-103031285D01*
X171058657Y-103339484D01*
X171027089Y-103660000D01*
X168455000Y-103660000D01*
X168455000Y-101460322D01*
X168462911Y-101380000D01*
X168445574Y-101203969D01*
X168431343Y-101059484D01*
X168337852Y-100751285D01*
X168186031Y-100467248D01*
X167981714Y-100218286D01*
X167732752Y-100013969D01*
X167448715Y-99862148D01*
X167140516Y-99768657D01*
X166820000Y-99737089D01*
X166739678Y-99745000D01*
X153700322Y-99745000D01*
X153620000Y-99737089D01*
X153539678Y-99745000D01*
X153299484Y-99768657D01*
X152991285Y-99862148D01*
X152707248Y-100013969D01*
X152458286Y-100218286D01*
X152253969Y-100467248D01*
X152102148Y-100751285D01*
X152008657Y-101059484D01*
X151977089Y-101380000D01*
X149405000Y-101380000D01*
X149405000Y-96690322D01*
X149412911Y-96610000D01*
X149381343Y-96289484D01*
X149287852Y-95981285D01*
X149136031Y-95697248D01*
X148931714Y-95448286D01*
X148682752Y-95243969D01*
X148398715Y-95092148D01*
X148090516Y-94998657D01*
X147850322Y-94975000D01*
X147770000Y-94967089D01*
X147689678Y-94975000D01*
X134650322Y-94975000D01*
X134570000Y-94967089D01*
X134489678Y-94975000D01*
X134249484Y-94998657D01*
X133941285Y-95092148D01*
X133657248Y-95243969D01*
X133408286Y-95448286D01*
X133203969Y-95697248D01*
X133052148Y-95981285D01*
X132958657Y-96289484D01*
X132927089Y-96610000D01*
X129940567Y-96610000D01*
X130086031Y-96432752D01*
X130237852Y-96148715D01*
X130331343Y-95840516D01*
X130362911Y-95520000D01*
X130355000Y-95439678D01*
X130355000Y-82400322D01*
X130362911Y-82320000D01*
X130331343Y-81999484D01*
X130237852Y-81691285D01*
X130086031Y-81407248D01*
X129881714Y-81158286D01*
X129632752Y-80953969D01*
X129348715Y-80802148D01*
X129040516Y-80708657D01*
X128800322Y-80685000D01*
X128720000Y-80677089D01*
X128639678Y-80685000D01*
X115600322Y-80685000D01*
X115520000Y-80677089D01*
X115439678Y-80685000D01*
X115199484Y-80708657D01*
X114891285Y-80802148D01*
X114607248Y-80953969D01*
X114358286Y-81158286D01*
X114153969Y-81407248D01*
X114002148Y-81691285D01*
X113908657Y-81999484D01*
X113877089Y-82320000D01*
X111305000Y-82320000D01*
X111305000Y-70400322D01*
X111312911Y-70320000D01*
X111303277Y-70222179D01*
X111281343Y-69999484D01*
X111187852Y-69691285D01*
X111036031Y-69407248D01*
X110831714Y-69158286D01*
X110582752Y-68953969D01*
X110298715Y-68802148D01*
X109990516Y-68708657D01*
X109806175Y-68690501D01*
X109750322Y-68685000D01*
X109670000Y-68677089D01*
X109589678Y-68685000D01*
X96550322Y-68685000D01*
X96470000Y-68677089D01*
X96389678Y-68685000D01*
X96149484Y-68708657D01*
X95841285Y-68802148D01*
X95557248Y-68953969D01*
X95308286Y-69158286D01*
X95103969Y-69407248D01*
X94952148Y-69691285D01*
X94858657Y-69999484D01*
X94827089Y-70320000D01*
X94398025Y-70320000D01*
X94417477Y-70290723D01*
X94451284Y-70241349D01*
X94455667Y-70233243D01*
X94547292Y-70060920D01*
X94570090Y-70005608D01*
X94593652Y-69950634D01*
X94596377Y-69941831D01*
X94652786Y-69754994D01*
X94664405Y-69696314D01*
X94676842Y-69637804D01*
X94677805Y-69628639D01*
X94696850Y-69434406D01*
X94696850Y-69434402D01*
X94700000Y-69402419D01*
X94700000Y-68922279D01*
X94709580Y-68824576D01*
X94728580Y-68761644D01*
X94759445Y-68703595D01*
X94800989Y-68652657D01*
X94851644Y-68610752D01*
X94909471Y-68579485D01*
X94972272Y-68560044D01*
X95067835Y-68550000D01*
X112132419Y-68550000D01*
X112160674Y-68547217D01*
X112166801Y-68547260D01*
X112175972Y-68546360D01*
X112370069Y-68525959D01*
X112428658Y-68513932D01*
X112487423Y-68502723D01*
X112496245Y-68500059D01*
X112682683Y-68442347D01*
X112737838Y-68419162D01*
X112793291Y-68396758D01*
X112801427Y-68392432D01*
X112973104Y-68299607D01*
X113022699Y-68266154D01*
X113072753Y-68233400D01*
X113079894Y-68227576D01*
X113230272Y-68103172D01*
X113272411Y-68060737D01*
X113315161Y-68018874D01*
X113321034Y-68011773D01*
X113444384Y-67860531D01*
X113477477Y-67810723D01*
X113511284Y-67761349D01*
X113515667Y-67753243D01*
X113607292Y-67580920D01*
X113630090Y-67525608D01*
X113653652Y-67470634D01*
X113656377Y-67461831D01*
X113712786Y-67274994D01*
X113724405Y-67216314D01*
X113736842Y-67157804D01*
X113737805Y-67148639D01*
X113756850Y-66954406D01*
X113756850Y-66954402D01*
X113760000Y-66922419D01*
X113760000Y-63270000D01*
X113877089Y-63270000D01*
X113885000Y-63350322D01*
X113885001Y-76389668D01*
X113877089Y-76470000D01*
X113908657Y-76790516D01*
X114002148Y-77098715D01*
X114153969Y-77382752D01*
X114358286Y-77631714D01*
X114607248Y-77836031D01*
X114891285Y-77987852D01*
X115199484Y-78081343D01*
X115439678Y-78105000D01*
X115520000Y-78112911D01*
X115600322Y-78105000D01*
X128639678Y-78105000D01*
X128720000Y-78112911D01*
X128800322Y-78105000D01*
X129040516Y-78081343D01*
X129348715Y-77987852D01*
X129632752Y-77836031D01*
X129881714Y-77631714D01*
X129940567Y-77560000D01*
X132927089Y-77560000D01*
X132935000Y-77640322D01*
X132935001Y-90679668D01*
X132927089Y-90760000D01*
X132958657Y-91080516D01*
X133052148Y-91388715D01*
X133203969Y-91672752D01*
X133408286Y-91921714D01*
X133657248Y-92126031D01*
X133941285Y-92277852D01*
X134249484Y-92371343D01*
X134489678Y-92395000D01*
X134570000Y-92402911D01*
X134650322Y-92395000D01*
X147689678Y-92395000D01*
X147770000Y-92402911D01*
X147850322Y-92395000D01*
X148090516Y-92371343D01*
X148398715Y-92277852D01*
X148682752Y-92126031D01*
X148931714Y-91921714D01*
X149136031Y-91672752D01*
X149287852Y-91388715D01*
X149381343Y-91080516D01*
X149412911Y-90760000D01*
X149405000Y-90679678D01*
X149405000Y-82330000D01*
X151977089Y-82330000D01*
X151985000Y-82410322D01*
X151985001Y-95449668D01*
X151977089Y-95530000D01*
X152008657Y-95850516D01*
X152102148Y-96158715D01*
X152253969Y-96442752D01*
X152458286Y-96691714D01*
X152707248Y-96896031D01*
X152991285Y-97047852D01*
X153299484Y-97141343D01*
X153539678Y-97165000D01*
X153620000Y-97172911D01*
X153700322Y-97165000D01*
X166739678Y-97165000D01*
X166820000Y-97172911D01*
X166900322Y-97165000D01*
X167140516Y-97141343D01*
X167448715Y-97047852D01*
X167732752Y-96896031D01*
X167981714Y-96691714D01*
X168186031Y-96442752D01*
X168337852Y-96158715D01*
X168431343Y-95850516D01*
X168462911Y-95530000D01*
X168455000Y-95449678D01*
X168455000Y-84610000D01*
X171027089Y-84610000D01*
X171035000Y-84690322D01*
X171035001Y-97729668D01*
X171027089Y-97810000D01*
X171058657Y-98130516D01*
X171152148Y-98438715D01*
X171303969Y-98722752D01*
X171508286Y-98971714D01*
X171757248Y-99176031D01*
X172041285Y-99327852D01*
X172349484Y-99421343D01*
X172589678Y-99445000D01*
X172670000Y-99452911D01*
X172750322Y-99445000D01*
X185789678Y-99445000D01*
X185870000Y-99452911D01*
X185950322Y-99445000D01*
X186190516Y-99421343D01*
X186498715Y-99327852D01*
X186782752Y-99176031D01*
X187031714Y-98971714D01*
X187236031Y-98722752D01*
X187387852Y-98438715D01*
X187481343Y-98130516D01*
X187504761Y-97892747D01*
X187505000Y-97890322D01*
X187505000Y-97890321D01*
X187512911Y-97810000D01*
X187505000Y-97729678D01*
X187505000Y-84690322D01*
X187512911Y-84610000D01*
X187481343Y-84289484D01*
X187387852Y-83981285D01*
X187236031Y-83697248D01*
X187031714Y-83448286D01*
X186782752Y-83243969D01*
X186498715Y-83092148D01*
X186190516Y-82998657D01*
X185950322Y-82975000D01*
X185870000Y-82967089D01*
X185789678Y-82975000D01*
X172750322Y-82975000D01*
X172670000Y-82967089D01*
X172589678Y-82975000D01*
X172349484Y-82998657D01*
X172041285Y-83092148D01*
X171757248Y-83243969D01*
X171508286Y-83448286D01*
X171303969Y-83697248D01*
X171152148Y-83981285D01*
X171058657Y-84289484D01*
X171027089Y-84610000D01*
X168455000Y-84610000D01*
X168455000Y-82410322D01*
X168462911Y-82330000D01*
X168445574Y-82153969D01*
X168431343Y-82009484D01*
X168337852Y-81701285D01*
X168186031Y-81417248D01*
X167981714Y-81168286D01*
X167732752Y-80963969D01*
X167448715Y-80812148D01*
X167140516Y-80718657D01*
X166820000Y-80687089D01*
X166739678Y-80695000D01*
X153700322Y-80695000D01*
X153620000Y-80687089D01*
X153539678Y-80695000D01*
X153299484Y-80718657D01*
X152991285Y-80812148D01*
X152707248Y-80963969D01*
X152458286Y-81168286D01*
X152253969Y-81417248D01*
X152102148Y-81701285D01*
X152008657Y-82009484D01*
X151977089Y-82330000D01*
X149405000Y-82330000D01*
X149405000Y-77640322D01*
X149412911Y-77560000D01*
X149381343Y-77239484D01*
X149287852Y-76931285D01*
X149136031Y-76647248D01*
X148931714Y-76398286D01*
X148682752Y-76193969D01*
X148398715Y-76042148D01*
X148090516Y-75948657D01*
X147850322Y-75925000D01*
X147770000Y-75917089D01*
X147689678Y-75925000D01*
X134650322Y-75925000D01*
X134570000Y-75917089D01*
X134489678Y-75925000D01*
X134249484Y-75948657D01*
X133941285Y-76042148D01*
X133657248Y-76193969D01*
X133408286Y-76398286D01*
X133203969Y-76647248D01*
X133052148Y-76931285D01*
X132958657Y-77239484D01*
X132927089Y-77560000D01*
X129940567Y-77560000D01*
X130086031Y-77382752D01*
X130237852Y-77098715D01*
X130331343Y-76790516D01*
X130362911Y-76470000D01*
X130355000Y-76389678D01*
X130355000Y-63350322D01*
X130362911Y-63270000D01*
X130331343Y-62949484D01*
X130237852Y-62641285D01*
X130086031Y-62357248D01*
X129881714Y-62108286D01*
X129632752Y-61903969D01*
X129348715Y-61752148D01*
X129040516Y-61658657D01*
X128800322Y-61635000D01*
X128720000Y-61627089D01*
X128639678Y-61635000D01*
X115600322Y-61635000D01*
X115520000Y-61627089D01*
X115439678Y-61635000D01*
X115199484Y-61658657D01*
X114891285Y-61752148D01*
X114607248Y-61903969D01*
X114358286Y-62108286D01*
X114153969Y-62357248D01*
X114002148Y-62641285D01*
X113908657Y-62949484D01*
X113877089Y-63270000D01*
X113760000Y-63270000D01*
X113760000Y-61872279D01*
X113769580Y-61774576D01*
X113788580Y-61711644D01*
X113819445Y-61653595D01*
X113860989Y-61602657D01*
X113911644Y-61560752D01*
X113969471Y-61529485D01*
X114032272Y-61510044D01*
X114127835Y-61500000D01*
X120722419Y-61500000D01*
X120750329Y-61497251D01*
X120753307Y-61497272D01*
X120762478Y-61496373D01*
X120810640Y-61491311D01*
X120819383Y-61490450D01*
X120819675Y-61490362D01*
X120859546Y-61486171D01*
X120918155Y-61474140D01*
X120976907Y-61462933D01*
X120985728Y-61460269D01*
X121078965Y-61431407D01*
X121134108Y-61408227D01*
X121189571Y-61385819D01*
X121197707Y-61381493D01*
X121283564Y-61335070D01*
X121333154Y-61301622D01*
X121383210Y-61268866D01*
X121390346Y-61263045D01*
X121390352Y-61263041D01*
X121390357Y-61263036D01*
X121465555Y-61200828D01*
X121507732Y-61158355D01*
X121550446Y-61116527D01*
X121556318Y-61109429D01*
X121556319Y-61109428D01*
X121556322Y-61109424D01*
X121618007Y-61033790D01*
X121651087Y-60984000D01*
X121684905Y-60934611D01*
X121689287Y-60926505D01*
X121735110Y-60840327D01*
X121757902Y-60785030D01*
X121781472Y-60730036D01*
X121784196Y-60721233D01*
X121812407Y-60627796D01*
X121824028Y-60569103D01*
X121836462Y-60510605D01*
X121837425Y-60501440D01*
X121846949Y-60404304D01*
X121846949Y-60374684D01*
X121849964Y-60346946D01*
X121849980Y-60342269D01*
X122390004Y-60342269D01*
X122390016Y-60345760D01*
X122392930Y-60374459D01*
X122392728Y-60403307D01*
X122393627Y-60412478D01*
X122403829Y-60509546D01*
X122415860Y-60568155D01*
X122427067Y-60626907D01*
X122429731Y-60635728D01*
X122458593Y-60728965D01*
X122481773Y-60784108D01*
X122504181Y-60839571D01*
X122508507Y-60847707D01*
X122554930Y-60933564D01*
X122588378Y-60983154D01*
X122621134Y-61033210D01*
X122626955Y-61040346D01*
X122626959Y-61040352D01*
X122626964Y-61040357D01*
X122689172Y-61115555D01*
X122731645Y-61157732D01*
X122773473Y-61200446D01*
X122780568Y-61206315D01*
X122780572Y-61206319D01*
X122780574Y-61206320D01*
X122856210Y-61268007D01*
X122906000Y-61301087D01*
X122955389Y-61334905D01*
X122963495Y-61339287D01*
X123049673Y-61385110D01*
X123104970Y-61407902D01*
X123159964Y-61431472D01*
X123168767Y-61434196D01*
X123262204Y-61462407D01*
X123320897Y-61474028D01*
X123379395Y-61486462D01*
X123388560Y-61487425D01*
X123485696Y-61496949D01*
X123485703Y-61496949D01*
X123517689Y-61500099D01*
X131182427Y-61499999D01*
X131210669Y-61497217D01*
X131216801Y-61497260D01*
X131225972Y-61496360D01*
X131420069Y-61475959D01*
X131478658Y-61463932D01*
X131537423Y-61452723D01*
X131546245Y-61450059D01*
X131732683Y-61392347D01*
X131787838Y-61369162D01*
X131843291Y-61346758D01*
X131851427Y-61342432D01*
X132023104Y-61249607D01*
X132072699Y-61216154D01*
X132122753Y-61183400D01*
X132129894Y-61177576D01*
X132280272Y-61053172D01*
X132322411Y-61010737D01*
X132365161Y-60968874D01*
X132371034Y-60961773D01*
X132494384Y-60810531D01*
X132527477Y-60760723D01*
X132561284Y-60711349D01*
X132565667Y-60703243D01*
X132657292Y-60530920D01*
X132680090Y-60475608D01*
X132703652Y-60420634D01*
X132706377Y-60411831D01*
X132762786Y-60224994D01*
X132774405Y-60166314D01*
X132786842Y-60107804D01*
X132787805Y-60098639D01*
X132806850Y-59904406D01*
X132806850Y-59904402D01*
X132810000Y-59872419D01*
X132810000Y-58510000D01*
X132927089Y-58510000D01*
X132935000Y-58590322D01*
X132935001Y-71629668D01*
X132927089Y-71710000D01*
X132958657Y-72030516D01*
X133052148Y-72338715D01*
X133203969Y-72622752D01*
X133408286Y-72871714D01*
X133657248Y-73076031D01*
X133941285Y-73227852D01*
X134249484Y-73321343D01*
X134489678Y-73345000D01*
X134570000Y-73352911D01*
X134650322Y-73345000D01*
X147689678Y-73345000D01*
X147770000Y-73352911D01*
X147850322Y-73345000D01*
X148090516Y-73321343D01*
X148398715Y-73227852D01*
X148682752Y-73076031D01*
X148931714Y-72871714D01*
X149136031Y-72622752D01*
X149287852Y-72338715D01*
X149381343Y-72030516D01*
X149412911Y-71710000D01*
X149405000Y-71629678D01*
X149405000Y-63280000D01*
X151977089Y-63280000D01*
X151985000Y-63360322D01*
X151985001Y-76399668D01*
X151977089Y-76480000D01*
X152008657Y-76800516D01*
X152102148Y-77108715D01*
X152253969Y-77392752D01*
X152458286Y-77641714D01*
X152707248Y-77846031D01*
X152991285Y-77997852D01*
X153299484Y-78091343D01*
X153539678Y-78115000D01*
X153620000Y-78122911D01*
X153700322Y-78115000D01*
X166739678Y-78115000D01*
X166820000Y-78122911D01*
X166900322Y-78115000D01*
X167140516Y-78091343D01*
X167448715Y-77997852D01*
X167732752Y-77846031D01*
X167981714Y-77641714D01*
X168186031Y-77392752D01*
X168337852Y-77108715D01*
X168431343Y-76800516D01*
X168462911Y-76480000D01*
X168455000Y-76399678D01*
X168455000Y-65560000D01*
X171027089Y-65560000D01*
X171035000Y-65640322D01*
X171035001Y-78679668D01*
X171027089Y-78760000D01*
X171058657Y-79080516D01*
X171152148Y-79388715D01*
X171303969Y-79672752D01*
X171508286Y-79921714D01*
X171757248Y-80126031D01*
X172041285Y-80277852D01*
X172349484Y-80371343D01*
X172589678Y-80395000D01*
X172670000Y-80402911D01*
X172750322Y-80395000D01*
X185789678Y-80395000D01*
X185870000Y-80402911D01*
X185950322Y-80395000D01*
X186190516Y-80371343D01*
X186498715Y-80277852D01*
X186782752Y-80126031D01*
X187031714Y-79921714D01*
X187236031Y-79672752D01*
X187387852Y-79388715D01*
X187481343Y-79080516D01*
X187512911Y-78760000D01*
X187505000Y-78679678D01*
X187505000Y-65640322D01*
X187512911Y-65560000D01*
X187481343Y-65239484D01*
X187387852Y-64931285D01*
X187236031Y-64647248D01*
X187031714Y-64398286D01*
X186782752Y-64193969D01*
X186498715Y-64042148D01*
X186190516Y-63948657D01*
X185950322Y-63925000D01*
X185870000Y-63917089D01*
X185789678Y-63925000D01*
X172750322Y-63925000D01*
X172670000Y-63917089D01*
X172589678Y-63925000D01*
X172349484Y-63948657D01*
X172041285Y-64042148D01*
X171757248Y-64193969D01*
X171508286Y-64398286D01*
X171303969Y-64647248D01*
X171152148Y-64931285D01*
X171058657Y-65239484D01*
X171027089Y-65560000D01*
X168455000Y-65560000D01*
X168455000Y-63360322D01*
X168462911Y-63280000D01*
X168451103Y-63160106D01*
X168431343Y-62959484D01*
X168337852Y-62651285D01*
X168186031Y-62367248D01*
X167981714Y-62118286D01*
X167732752Y-61913969D01*
X167448715Y-61762148D01*
X167140516Y-61668657D01*
X167023470Y-61657129D01*
X166900322Y-61645000D01*
X166820000Y-61637089D01*
X166739678Y-61645000D01*
X153700322Y-61645000D01*
X153620000Y-61637089D01*
X153539678Y-61645000D01*
X153299484Y-61668657D01*
X152991285Y-61762148D01*
X152707248Y-61913969D01*
X152458286Y-62118286D01*
X152253969Y-62367248D01*
X152102148Y-62651285D01*
X152008657Y-62959484D01*
X151977089Y-63280000D01*
X149405000Y-63280000D01*
X149405000Y-58590322D01*
X149412911Y-58510000D01*
X149381343Y-58189484D01*
X149287852Y-57881285D01*
X149136031Y-57597248D01*
X148931714Y-57348286D01*
X148682752Y-57143969D01*
X148398715Y-56992148D01*
X148090516Y-56898657D01*
X147850322Y-56875000D01*
X147770000Y-56867089D01*
X147689678Y-56875000D01*
X134650322Y-56875000D01*
X134570000Y-56867089D01*
X134489678Y-56875000D01*
X134249484Y-56898657D01*
X133941285Y-56992148D01*
X133657248Y-57143969D01*
X133408286Y-57348286D01*
X133203969Y-57597248D01*
X133052148Y-57881285D01*
X132958657Y-58189484D01*
X132927089Y-58510000D01*
X132810000Y-58510000D01*
X132810000Y-57122279D01*
X132819580Y-57024576D01*
X132838580Y-56961644D01*
X132869445Y-56903595D01*
X132910989Y-56852657D01*
X132961644Y-56810752D01*
X133019471Y-56779485D01*
X133082272Y-56760044D01*
X133177835Y-56750000D01*
X139772419Y-56750000D01*
X139800329Y-56747251D01*
X139803307Y-56747272D01*
X139812478Y-56746373D01*
X139860640Y-56741311D01*
X139869383Y-56740450D01*
X139869675Y-56740362D01*
X139909546Y-56736171D01*
X139968155Y-56724140D01*
X140026907Y-56712933D01*
X140035728Y-56710269D01*
X140128965Y-56681407D01*
X140184108Y-56658227D01*
X140239571Y-56635819D01*
X140247707Y-56631493D01*
X140333564Y-56585070D01*
X140383154Y-56551622D01*
X140433210Y-56518866D01*
X140440346Y-56513045D01*
X140440352Y-56513041D01*
X140440357Y-56513036D01*
X140515555Y-56450828D01*
X140557732Y-56408355D01*
X140600446Y-56366527D01*
X140606318Y-56359429D01*
X140606319Y-56359428D01*
X140606322Y-56359424D01*
X140668007Y-56283790D01*
X140701087Y-56234000D01*
X140734905Y-56184611D01*
X140739287Y-56176505D01*
X140785110Y-56090327D01*
X140807902Y-56035030D01*
X140831472Y-55980036D01*
X140834196Y-55971233D01*
X140862407Y-55877796D01*
X140874028Y-55819103D01*
X140886462Y-55760605D01*
X140887425Y-55751440D01*
X140896949Y-55654304D01*
X140896949Y-55624684D01*
X140899964Y-55596946D01*
X140899980Y-55592269D01*
X141440004Y-55592269D01*
X141440016Y-55595760D01*
X141442930Y-55624459D01*
X141442728Y-55653307D01*
X141443627Y-55662478D01*
X141453829Y-55759546D01*
X141465860Y-55818155D01*
X141477067Y-55876907D01*
X141479731Y-55885728D01*
X141508593Y-55978965D01*
X141531773Y-56034108D01*
X141554181Y-56089571D01*
X141558507Y-56097707D01*
X141604930Y-56183564D01*
X141638378Y-56233154D01*
X141671134Y-56283210D01*
X141676955Y-56290346D01*
X141676959Y-56290352D01*
X141676964Y-56290357D01*
X141739172Y-56365555D01*
X141781645Y-56407732D01*
X141823473Y-56450446D01*
X141830568Y-56456315D01*
X141830572Y-56456319D01*
X141830574Y-56456320D01*
X141906210Y-56518007D01*
X141956000Y-56551087D01*
X142005389Y-56584905D01*
X142013495Y-56589287D01*
X142099673Y-56635110D01*
X142154970Y-56657902D01*
X142209964Y-56681472D01*
X142218767Y-56684196D01*
X142312204Y-56712407D01*
X142370897Y-56724028D01*
X142429395Y-56736462D01*
X142438560Y-56737425D01*
X142535696Y-56746949D01*
X142535704Y-56746949D01*
X142567690Y-56750099D01*
X149157720Y-56750000D01*
X149255424Y-56759580D01*
X149318356Y-56778580D01*
X149376405Y-56809445D01*
X149427343Y-56850989D01*
X149469248Y-56901644D01*
X149500515Y-56959471D01*
X149519956Y-57022272D01*
X149530000Y-57117836D01*
X149530001Y-59882419D01*
X149532783Y-59910664D01*
X149532740Y-59916801D01*
X149533640Y-59925972D01*
X149554041Y-60120069D01*
X149566068Y-60178658D01*
X149577277Y-60237423D01*
X149579941Y-60246245D01*
X149637653Y-60432683D01*
X149660838Y-60487838D01*
X149683242Y-60543291D01*
X149687568Y-60551427D01*
X149780393Y-60723104D01*
X149813846Y-60772699D01*
X149846600Y-60822753D01*
X149852424Y-60829894D01*
X149976828Y-60980272D01*
X150019263Y-61022411D01*
X150061126Y-61065161D01*
X150068227Y-61071034D01*
X150219469Y-61194384D01*
X150269277Y-61227477D01*
X150318651Y-61261284D01*
X150326757Y-61265667D01*
X150499080Y-61357292D01*
X150554392Y-61380090D01*
X150609366Y-61403652D01*
X150618169Y-61406377D01*
X150805006Y-61462786D01*
X150863686Y-61474405D01*
X150922196Y-61486842D01*
X150931361Y-61487805D01*
X151125594Y-61506850D01*
X151125598Y-61506850D01*
X151157581Y-61510000D01*
X168217721Y-61510000D01*
X168315424Y-61519580D01*
X168378356Y-61538580D01*
X168436405Y-61569445D01*
X168487343Y-61610989D01*
X168529248Y-61661644D01*
X168560515Y-61719471D01*
X168579956Y-61782272D01*
X168590000Y-61877835D01*
X168590000Y-62172419D01*
X168592783Y-62200674D01*
X168592740Y-62206801D01*
X168593640Y-62215972D01*
X168614041Y-62410069D01*
X168626068Y-62468658D01*
X168637277Y-62527423D01*
X168639941Y-62536245D01*
X168697653Y-62722683D01*
X168720838Y-62777838D01*
X168743242Y-62833291D01*
X168747568Y-62841427D01*
X168840393Y-63013104D01*
X168873846Y-63062699D01*
X168906600Y-63112753D01*
X168912424Y-63119894D01*
X169036828Y-63270272D01*
X169079263Y-63312411D01*
X169121126Y-63355161D01*
X169128227Y-63361034D01*
X169279469Y-63484384D01*
X169329277Y-63517477D01*
X169378651Y-63551284D01*
X169386757Y-63555667D01*
X169559080Y-63647292D01*
X169614392Y-63670090D01*
X169669366Y-63693652D01*
X169678169Y-63696377D01*
X169865006Y-63752786D01*
X169923686Y-63764405D01*
X169982196Y-63776842D01*
X169991361Y-63777805D01*
X170185594Y-63796850D01*
X170185598Y-63796850D01*
X170217581Y-63800000D01*
X177872419Y-63800000D01*
X177900329Y-63797251D01*
X177903307Y-63797272D01*
X177912478Y-63796373D01*
X177960640Y-63791311D01*
X177969383Y-63790450D01*
X177969675Y-63790362D01*
X178009546Y-63786171D01*
X178068155Y-63774140D01*
X178126907Y-63762933D01*
X178135728Y-63760269D01*
X178228965Y-63731407D01*
X178284108Y-63708227D01*
X178339571Y-63685819D01*
X178347707Y-63681493D01*
X178433564Y-63635070D01*
X178483154Y-63601622D01*
X178533210Y-63568866D01*
X178540346Y-63563045D01*
X178540352Y-63563041D01*
X178540357Y-63563036D01*
X178615555Y-63500828D01*
X178657732Y-63458355D01*
X178700446Y-63416527D01*
X178706318Y-63409429D01*
X178706319Y-63409428D01*
X178706322Y-63409424D01*
X178768007Y-63333790D01*
X178801087Y-63284000D01*
X178834905Y-63234611D01*
X178839287Y-63226505D01*
X178885110Y-63140327D01*
X178907902Y-63085030D01*
X178931472Y-63030036D01*
X178934196Y-63021233D01*
X178962407Y-62927796D01*
X178974028Y-62869103D01*
X178986462Y-62810605D01*
X178987425Y-62801440D01*
X178996949Y-62704304D01*
X178996949Y-62674684D01*
X178999964Y-62646946D01*
X178999996Y-62637731D01*
X178999984Y-62634240D01*
X178997070Y-62605541D01*
X178997272Y-62576693D01*
X178996373Y-62567522D01*
X178986171Y-62470454D01*
X178974140Y-62411845D01*
X178962933Y-62353093D01*
X178960269Y-62344272D01*
X178931407Y-62251035D01*
X178908221Y-62195879D01*
X178885819Y-62140430D01*
X178881493Y-62132293D01*
X178835071Y-62046437D01*
X178801611Y-61996830D01*
X178768866Y-61946790D01*
X178763041Y-61939649D01*
X178700827Y-61864445D01*
X178658407Y-61822320D01*
X178616527Y-61779554D01*
X178609427Y-61773680D01*
X178533790Y-61711993D01*
X178483995Y-61678909D01*
X178434612Y-61645095D01*
X178426505Y-61640713D01*
X178426502Y-61640711D01*
X178426499Y-61640710D01*
X178340327Y-61594891D01*
X178285076Y-61572118D01*
X178230037Y-61548528D01*
X178221234Y-61545804D01*
X178127796Y-61517594D01*
X178069140Y-61505980D01*
X178010605Y-61493538D01*
X178001440Y-61492575D01*
X177904304Y-61483051D01*
X177904296Y-61483051D01*
X177872310Y-61479901D01*
X171282279Y-61480000D01*
X171184576Y-61470420D01*
X171121643Y-61451420D01*
X171063594Y-61420554D01*
X171012657Y-61379011D01*
X170970752Y-61328356D01*
X170939485Y-61270529D01*
X170920044Y-61207728D01*
X170910000Y-61112165D01*
X170910000Y-60817582D01*
X170907217Y-60789327D01*
X170907260Y-60783199D01*
X170906360Y-60774028D01*
X170885959Y-60579931D01*
X170873934Y-60521348D01*
X170862723Y-60462577D01*
X170860059Y-60453755D01*
X170802347Y-60267317D01*
X170779162Y-60212162D01*
X170756758Y-60156709D01*
X170752432Y-60148573D01*
X170659607Y-59976896D01*
X170626139Y-59927278D01*
X170593400Y-59877247D01*
X170587576Y-59870106D01*
X170463172Y-59719728D01*
X170420737Y-59677589D01*
X170378874Y-59634839D01*
X170371773Y-59628966D01*
X170220531Y-59505616D01*
X170170738Y-59472534D01*
X170121349Y-59438716D01*
X170113243Y-59434333D01*
X169940921Y-59342708D01*
X169885606Y-59319909D01*
X169830634Y-59296348D01*
X169821831Y-59293623D01*
X169634995Y-59237214D01*
X169576307Y-59225594D01*
X169517804Y-59213158D01*
X169508639Y-59212195D01*
X169314405Y-59193150D01*
X169314402Y-59193150D01*
X169282419Y-59190000D01*
X152222279Y-59190000D01*
X152124576Y-59180420D01*
X152061643Y-59161420D01*
X152003594Y-59130554D01*
X151952657Y-59089011D01*
X151910752Y-59038356D01*
X151879485Y-58980529D01*
X151860044Y-58917728D01*
X151850000Y-58822165D01*
X151850000Y-56057581D01*
X151847217Y-56029326D01*
X151847260Y-56023199D01*
X151846360Y-56014028D01*
X151825959Y-55819931D01*
X151813934Y-55761348D01*
X151802723Y-55702577D01*
X151800059Y-55693755D01*
X151742347Y-55507317D01*
X151719162Y-55452162D01*
X151696758Y-55396709D01*
X151692432Y-55388573D01*
X151599607Y-55216896D01*
X151566139Y-55167278D01*
X151533400Y-55117247D01*
X151527576Y-55110106D01*
X151403172Y-54959728D01*
X151360737Y-54917589D01*
X151318874Y-54874839D01*
X151311773Y-54868966D01*
X151160531Y-54745616D01*
X151110738Y-54712534D01*
X151061349Y-54678716D01*
X151053243Y-54674333D01*
X150880921Y-54582708D01*
X150825606Y-54559909D01*
X150770634Y-54536348D01*
X150761831Y-54533623D01*
X150574995Y-54477214D01*
X150516307Y-54465594D01*
X150457804Y-54453158D01*
X150448639Y-54452195D01*
X150254405Y-54433150D01*
X150254396Y-54433150D01*
X150222427Y-54430001D01*
X142567689Y-54429901D01*
X142539776Y-54432650D01*
X142536792Y-54432629D01*
X142527621Y-54433528D01*
X142479463Y-54438590D01*
X142470725Y-54439450D01*
X142470433Y-54439539D01*
X142430553Y-54443730D01*
X142371944Y-54455761D01*
X142313192Y-54466968D01*
X142304371Y-54469632D01*
X142211134Y-54498494D01*
X142155978Y-54521680D01*
X142100529Y-54544082D01*
X142092392Y-54548408D01*
X142006536Y-54594830D01*
X141956929Y-54628290D01*
X141906889Y-54661035D01*
X141899748Y-54666860D01*
X141824544Y-54729074D01*
X141782419Y-54771494D01*
X141739653Y-54813374D01*
X141733779Y-54820474D01*
X141672092Y-54896111D01*
X141639008Y-54945906D01*
X141605194Y-54995289D01*
X141600812Y-55003396D01*
X141554990Y-55089574D01*
X141532217Y-55144825D01*
X141508627Y-55199864D01*
X141505903Y-55208667D01*
X141477693Y-55302105D01*
X141466079Y-55360761D01*
X141453637Y-55419296D01*
X141452674Y-55428461D01*
X141443150Y-55525597D01*
X141443150Y-55554405D01*
X141440036Y-55583054D01*
X141440004Y-55592269D01*
X140899980Y-55592269D01*
X140899996Y-55587731D01*
X140899984Y-55584240D01*
X140897070Y-55555541D01*
X140897272Y-55526693D01*
X140896373Y-55517522D01*
X140886171Y-55420454D01*
X140874140Y-55361845D01*
X140862933Y-55303093D01*
X140860269Y-55294272D01*
X140831407Y-55201035D01*
X140808221Y-55145879D01*
X140785819Y-55090430D01*
X140781493Y-55082293D01*
X140735071Y-54996437D01*
X140701611Y-54946830D01*
X140668866Y-54896790D01*
X140663041Y-54889649D01*
X140600827Y-54814445D01*
X140558407Y-54772320D01*
X140516527Y-54729554D01*
X140509427Y-54723680D01*
X140433790Y-54661993D01*
X140383995Y-54628909D01*
X140334612Y-54595095D01*
X140326505Y-54590713D01*
X140326502Y-54590711D01*
X140326499Y-54590710D01*
X140240327Y-54544891D01*
X140185076Y-54522118D01*
X140130037Y-54498528D01*
X140121234Y-54495804D01*
X140027796Y-54467594D01*
X139969140Y-54455980D01*
X139910605Y-54443538D01*
X139901440Y-54442575D01*
X139804304Y-54433051D01*
X139804297Y-54433051D01*
X139772311Y-54429901D01*
X132117573Y-54430001D01*
X132089331Y-54432783D01*
X132083199Y-54432740D01*
X132074028Y-54433640D01*
X131879931Y-54454041D01*
X131821348Y-54466066D01*
X131762577Y-54477277D01*
X131753755Y-54479941D01*
X131567317Y-54537653D01*
X131512162Y-54560838D01*
X131456709Y-54583242D01*
X131448573Y-54587568D01*
X131276896Y-54680393D01*
X131227278Y-54713861D01*
X131177247Y-54746600D01*
X131170106Y-54752424D01*
X131019728Y-54876828D01*
X130977589Y-54919263D01*
X130934839Y-54961126D01*
X130928966Y-54968227D01*
X130805616Y-55119469D01*
X130772534Y-55169262D01*
X130738716Y-55218651D01*
X130734333Y-55226757D01*
X130642708Y-55399079D01*
X130619909Y-55454394D01*
X130596348Y-55509366D01*
X130593623Y-55518169D01*
X130537214Y-55705005D01*
X130525594Y-55763693D01*
X130513158Y-55822196D01*
X130512195Y-55831361D01*
X130493150Y-56025595D01*
X130490000Y-56057582D01*
X130490001Y-58807711D01*
X130480420Y-58905424D01*
X130461420Y-58968357D01*
X130430554Y-59026406D01*
X130389011Y-59077343D01*
X130338356Y-59119248D01*
X130280529Y-59150515D01*
X130217728Y-59169956D01*
X130122164Y-59180000D01*
X123517690Y-59179901D01*
X123489777Y-59182650D01*
X123486792Y-59182629D01*
X123477621Y-59183528D01*
X123429448Y-59188591D01*
X123420726Y-59189450D01*
X123420435Y-59189538D01*
X123380553Y-59193730D01*
X123321944Y-59205761D01*
X123263192Y-59216968D01*
X123254371Y-59219632D01*
X123161134Y-59248494D01*
X123105978Y-59271680D01*
X123050529Y-59294082D01*
X123042392Y-59298408D01*
X122956536Y-59344830D01*
X122906929Y-59378290D01*
X122856889Y-59411035D01*
X122849748Y-59416860D01*
X122774544Y-59479074D01*
X122732419Y-59521494D01*
X122689653Y-59563374D01*
X122683779Y-59570474D01*
X122622092Y-59646111D01*
X122589008Y-59695906D01*
X122555194Y-59745289D01*
X122550812Y-59753396D01*
X122504990Y-59839574D01*
X122482217Y-59894825D01*
X122458627Y-59949864D01*
X122455903Y-59958667D01*
X122427693Y-60052105D01*
X122416079Y-60110761D01*
X122403637Y-60169296D01*
X122402674Y-60178461D01*
X122393150Y-60275597D01*
X122393150Y-60304405D01*
X122390036Y-60333054D01*
X122390004Y-60342269D01*
X121849980Y-60342269D01*
X121849996Y-60337731D01*
X121849984Y-60334240D01*
X121847070Y-60305541D01*
X121847272Y-60276693D01*
X121846373Y-60267522D01*
X121836171Y-60170454D01*
X121824140Y-60111845D01*
X121812933Y-60053093D01*
X121810269Y-60044272D01*
X121781407Y-59951035D01*
X121758221Y-59895879D01*
X121735819Y-59840430D01*
X121731493Y-59832293D01*
X121685071Y-59746437D01*
X121651611Y-59696830D01*
X121618866Y-59646790D01*
X121613041Y-59639649D01*
X121550827Y-59564445D01*
X121508407Y-59522320D01*
X121466527Y-59479554D01*
X121459427Y-59473680D01*
X121383790Y-59411993D01*
X121333995Y-59378909D01*
X121284612Y-59345095D01*
X121276505Y-59340713D01*
X121276502Y-59340711D01*
X121276499Y-59340710D01*
X121190327Y-59294891D01*
X121135076Y-59272118D01*
X121080037Y-59248528D01*
X121071234Y-59245804D01*
X120977796Y-59217594D01*
X120919140Y-59205980D01*
X120860605Y-59193538D01*
X120851440Y-59192575D01*
X120754304Y-59183051D01*
X120754297Y-59183051D01*
X120722311Y-59179901D01*
X113067573Y-59180001D01*
X113039331Y-59182783D01*
X113033199Y-59182740D01*
X113024028Y-59183640D01*
X112829931Y-59204041D01*
X112771348Y-59216066D01*
X112712577Y-59227277D01*
X112703755Y-59229941D01*
X112517317Y-59287653D01*
X112462162Y-59310838D01*
X112406709Y-59333242D01*
X112398573Y-59337568D01*
X112226896Y-59430393D01*
X112177278Y-59463861D01*
X112127247Y-59496600D01*
X112120106Y-59502424D01*
X111969728Y-59626828D01*
X111927589Y-59669263D01*
X111884839Y-59711126D01*
X111878966Y-59718227D01*
X111755616Y-59869469D01*
X111722534Y-59919262D01*
X111688716Y-59968651D01*
X111684333Y-59976757D01*
X111592708Y-60149079D01*
X111569909Y-60204394D01*
X111546348Y-60259366D01*
X111543623Y-60268169D01*
X111487214Y-60455005D01*
X111475594Y-60513693D01*
X111463158Y-60572196D01*
X111462195Y-60581361D01*
X111443150Y-60775595D01*
X111440000Y-60807582D01*
X111440001Y-65857711D01*
X111430420Y-65955424D01*
X111411420Y-66018357D01*
X111380554Y-66076406D01*
X111339011Y-66127343D01*
X111288356Y-66169248D01*
X111230529Y-66200515D01*
X111167728Y-66219956D01*
X111072165Y-66230000D01*
X94007581Y-66230000D01*
X93979326Y-66232783D01*
X93973199Y-66232740D01*
X93964028Y-66233640D01*
X93769931Y-66254041D01*
X93711348Y-66266066D01*
X93652577Y-66277277D01*
X93643755Y-66279941D01*
X93457317Y-66337653D01*
X93402162Y-66360838D01*
X93346709Y-66383242D01*
X93338573Y-66387568D01*
X93166896Y-66480393D01*
X93117278Y-66513861D01*
X93067247Y-66546600D01*
X93060106Y-66552424D01*
X92909728Y-66676828D01*
X92867589Y-66719263D01*
X92824839Y-66761126D01*
X92818966Y-66768227D01*
X92695616Y-66919469D01*
X92662534Y-66969262D01*
X92628716Y-67018651D01*
X92624333Y-67026757D01*
X92532708Y-67199079D01*
X92509909Y-67254394D01*
X92486348Y-67309366D01*
X92483623Y-67318169D01*
X92427214Y-67505005D01*
X92415594Y-67563693D01*
X92403158Y-67622196D01*
X92402195Y-67631361D01*
X92383152Y-67825574D01*
X92380000Y-67857582D01*
X92380000Y-68337721D01*
X92370420Y-68435424D01*
X92351420Y-68498357D01*
X92320554Y-68556406D01*
X92279011Y-68607343D01*
X92228356Y-68649248D01*
X92170529Y-68680515D01*
X92107728Y-68699956D01*
X92013107Y-68709901D01*
X85417680Y-68709901D01*
X85389770Y-68712650D01*
X85386792Y-68712629D01*
X85377621Y-68713528D01*
X85329459Y-68718590D01*
X85320716Y-68719451D01*
X85320424Y-68719539D01*
X85280553Y-68723730D01*
X85221944Y-68735761D01*
X85163192Y-68746968D01*
X85154371Y-68749632D01*
X85061134Y-68778494D01*
X85005978Y-68801680D01*
X84950529Y-68824082D01*
X84942392Y-68828408D01*
X84856536Y-68874830D01*
X84806929Y-68908290D01*
X84756889Y-68941035D01*
X84749748Y-68946860D01*
X84674544Y-69009074D01*
X84632419Y-69051494D01*
X84589653Y-69093374D01*
X84583779Y-69100474D01*
X84522092Y-69176111D01*
X84489008Y-69225906D01*
X84455194Y-69275289D01*
X84450812Y-69283396D01*
X84404990Y-69369574D01*
X84382217Y-69424825D01*
X84358627Y-69479864D01*
X84355903Y-69488667D01*
X84327693Y-69582105D01*
X84316079Y-69640761D01*
X84303637Y-69699296D01*
X84302674Y-69708461D01*
X84293150Y-69805597D01*
X84293150Y-69834405D01*
X84290036Y-69863054D01*
X84290004Y-69872269D01*
X83749980Y-69872269D01*
X83749996Y-69867731D01*
X83749984Y-69864240D01*
X83747070Y-69835541D01*
X83747272Y-69806693D01*
X83746373Y-69797522D01*
X83736171Y-69700454D01*
X83724135Y-69641820D01*
X83712933Y-69583093D01*
X83710269Y-69574272D01*
X83681407Y-69481035D01*
X83658221Y-69425879D01*
X83635819Y-69370430D01*
X83631493Y-69362293D01*
X83585071Y-69276437D01*
X83551611Y-69226830D01*
X83518866Y-69176790D01*
X83513041Y-69169649D01*
X83450827Y-69094445D01*
X83408407Y-69052320D01*
X83366527Y-69009554D01*
X83359427Y-69003680D01*
X83283790Y-68941993D01*
X83233995Y-68908909D01*
X83184612Y-68875095D01*
X83176505Y-68870713D01*
X83176502Y-68870711D01*
X83176499Y-68870710D01*
X83090327Y-68824891D01*
X83035076Y-68802118D01*
X82980037Y-68778528D01*
X82971234Y-68775804D01*
X82877796Y-68747594D01*
X82819140Y-68735980D01*
X82760605Y-68723538D01*
X82751440Y-68722575D01*
X82654304Y-68713051D01*
X82654296Y-68713051D01*
X82622310Y-68709901D01*
X75502280Y-68710000D01*
X75404576Y-68700420D01*
X75341643Y-68681420D01*
X75283594Y-68650554D01*
X75232657Y-68609011D01*
X75190752Y-68558356D01*
X75159485Y-68500529D01*
X75140044Y-68437728D01*
X75130000Y-68342165D01*
X75130000Y-53750000D01*
X75777089Y-53750000D01*
X75785000Y-53830322D01*
X75785001Y-66869668D01*
X75777089Y-66950000D01*
X75808657Y-67270516D01*
X75902148Y-67578715D01*
X76053969Y-67862752D01*
X76258286Y-68111714D01*
X76507248Y-68316031D01*
X76791285Y-68467852D01*
X77099484Y-68561343D01*
X77339678Y-68585000D01*
X77420000Y-68592911D01*
X77500322Y-68585000D01*
X90539678Y-68585000D01*
X90620000Y-68592911D01*
X90700322Y-68585000D01*
X90940516Y-68561343D01*
X91248715Y-68467852D01*
X91532752Y-68316031D01*
X91781714Y-68111714D01*
X91986031Y-67862752D01*
X92137852Y-67578715D01*
X92231343Y-67270516D01*
X92262911Y-66950000D01*
X92255000Y-66869678D01*
X92255000Y-53830322D01*
X92262911Y-53750000D01*
X92231343Y-53429484D01*
X92137852Y-53121285D01*
X91986031Y-52837248D01*
X91781714Y-52588286D01*
X91532752Y-52383969D01*
X91248715Y-52232148D01*
X90940516Y-52138657D01*
X90700322Y-52115000D01*
X90620000Y-52107089D01*
X90539678Y-52115000D01*
X77500322Y-52115000D01*
X77420000Y-52107089D01*
X77339678Y-52115000D01*
X77099484Y-52138657D01*
X76791285Y-52232148D01*
X76507248Y-52383969D01*
X76258286Y-52588286D01*
X76053969Y-52837248D01*
X75902148Y-53121285D01*
X75808657Y-53429484D01*
X75777089Y-53750000D01*
X75130000Y-53750000D01*
X75130000Y-51877279D01*
X75139580Y-51779576D01*
X75158580Y-51716644D01*
X75189445Y-51658595D01*
X75230989Y-51607657D01*
X75281644Y-51565752D01*
X75339471Y-51534485D01*
X75402272Y-51515044D01*
X75497835Y-51505000D01*
X92602420Y-51505000D01*
X92630675Y-51502217D01*
X92636802Y-51502260D01*
X92645973Y-51501360D01*
X92840070Y-51480959D01*
X92898659Y-51468932D01*
X92957424Y-51457723D01*
X92966246Y-51455059D01*
X93152684Y-51397347D01*
X93207839Y-51374162D01*
X93263292Y-51351758D01*
X93271428Y-51347432D01*
X93414636Y-51270000D01*
X94827089Y-51270000D01*
X94835000Y-51350322D01*
X94835001Y-64389668D01*
X94827089Y-64470000D01*
X94858657Y-64790516D01*
X94952148Y-65098715D01*
X95103969Y-65382752D01*
X95308286Y-65631714D01*
X95557248Y-65836031D01*
X95841285Y-65987852D01*
X96149484Y-66081343D01*
X96389678Y-66105000D01*
X96470000Y-66112911D01*
X96550322Y-66105000D01*
X109589678Y-66105000D01*
X109670000Y-66112911D01*
X109750322Y-66105000D01*
X109990516Y-66081343D01*
X110298715Y-65987852D01*
X110582752Y-65836031D01*
X110831714Y-65631714D01*
X111036031Y-65382752D01*
X111187852Y-65098715D01*
X111281343Y-64790516D01*
X111295454Y-64647248D01*
X111305000Y-64550322D01*
X111305000Y-64550321D01*
X111312911Y-64470000D01*
X111305000Y-64389678D01*
X111305000Y-51350322D01*
X111312911Y-51270000D01*
X111281343Y-50949484D01*
X111187852Y-50641285D01*
X111036031Y-50357248D01*
X110831714Y-50108286D01*
X110582752Y-49903969D01*
X110298715Y-49752148D01*
X109990516Y-49658657D01*
X109750322Y-49635000D01*
X109670000Y-49627089D01*
X109589678Y-49635000D01*
X96550322Y-49635000D01*
X96470000Y-49627089D01*
X96389678Y-49635000D01*
X96149484Y-49658657D01*
X95841285Y-49752148D01*
X95557248Y-49903969D01*
X95308286Y-50108286D01*
X95103969Y-50357248D01*
X94952148Y-50641285D01*
X94858657Y-50949484D01*
X94827089Y-51270000D01*
X93414636Y-51270000D01*
X93443105Y-51254607D01*
X93492700Y-51221154D01*
X93542754Y-51188400D01*
X93549895Y-51182576D01*
X93700273Y-51058172D01*
X93742412Y-51015737D01*
X93785162Y-50973874D01*
X93791035Y-50966773D01*
X93914385Y-50815531D01*
X93947478Y-50765723D01*
X93981285Y-50716349D01*
X93985668Y-50708243D01*
X94077293Y-50535920D01*
X94100091Y-50480608D01*
X94123653Y-50425634D01*
X94126378Y-50416831D01*
X94182787Y-50229994D01*
X94194406Y-50171314D01*
X94206843Y-50112804D01*
X94207806Y-50103639D01*
X94226851Y-49909406D01*
X94226851Y-49909401D01*
X94230001Y-49877418D01*
X94230001Y-49400779D01*
X94239581Y-49303076D01*
X94258581Y-49240144D01*
X94289446Y-49182095D01*
X94330990Y-49131157D01*
X94381645Y-49089252D01*
X94439472Y-49057985D01*
X94502273Y-49038544D01*
X94597836Y-49028500D01*
X111652420Y-49028500D01*
X111680675Y-49025717D01*
X111686802Y-49025760D01*
X111695973Y-49024860D01*
X111890070Y-49004459D01*
X111948659Y-48992432D01*
X112007424Y-48981223D01*
X112016246Y-48978559D01*
X112202684Y-48920847D01*
X112257839Y-48897662D01*
X112313292Y-48875258D01*
X112321428Y-48870932D01*
X112493105Y-48778107D01*
X112542700Y-48744654D01*
X112592754Y-48711900D01*
X112599895Y-48706076D01*
X112750273Y-48581672D01*
X112792412Y-48539237D01*
X112835162Y-48497374D01*
X112841035Y-48490273D01*
X112964385Y-48339031D01*
X112997478Y-48289223D01*
X113031285Y-48239849D01*
X113035668Y-48231743D01*
X113127293Y-48059420D01*
X113150091Y-48004108D01*
X113173653Y-47949134D01*
X113176378Y-47940331D01*
X113232787Y-47753494D01*
X113244406Y-47694814D01*
X113256843Y-47636304D01*
X113257806Y-47627139D01*
X113276851Y-47432906D01*
X113276851Y-47432902D01*
X113280001Y-47400919D01*
X113280001Y-44220000D01*
X113877089Y-44220000D01*
X113885000Y-44300322D01*
X113885001Y-57339668D01*
X113877089Y-57420000D01*
X113908657Y-57740516D01*
X114002148Y-58048715D01*
X114153969Y-58332752D01*
X114358286Y-58581714D01*
X114607248Y-58786031D01*
X114891285Y-58937852D01*
X115199484Y-59031343D01*
X115439678Y-59055000D01*
X115520000Y-59062911D01*
X115600322Y-59055000D01*
X128639678Y-59055000D01*
X128720000Y-59062911D01*
X128800322Y-59055000D01*
X129040516Y-59031343D01*
X129348715Y-58937852D01*
X129632752Y-58786031D01*
X129881714Y-58581714D01*
X130086031Y-58332752D01*
X130237852Y-58048715D01*
X130331343Y-57740516D01*
X130362911Y-57420000D01*
X130355000Y-57339678D01*
X130355000Y-44300322D01*
X130362911Y-44220000D01*
X130331343Y-43899484D01*
X130237852Y-43591285D01*
X130086031Y-43307248D01*
X129881714Y-43058286D01*
X129632752Y-42853969D01*
X129348715Y-42702148D01*
X129040516Y-42608657D01*
X128800322Y-42585000D01*
X128720000Y-42577089D01*
X128639678Y-42585000D01*
X115600322Y-42585000D01*
X115520000Y-42577089D01*
X115439678Y-42585000D01*
X115199484Y-42608657D01*
X114891285Y-42702148D01*
X114607248Y-42853969D01*
X114358286Y-43058286D01*
X114153969Y-43307248D01*
X114002148Y-43591285D01*
X113908657Y-43899484D01*
X113877089Y-44220000D01*
X113280001Y-44220000D01*
X113280001Y-42352279D01*
X113289581Y-42254576D01*
X113308581Y-42191644D01*
X113339446Y-42133595D01*
X113380990Y-42082657D01*
X113431645Y-42040752D01*
X113489472Y-42009485D01*
X113552273Y-41990044D01*
X113647836Y-41980000D01*
X130702420Y-41980000D01*
X130730675Y-41977217D01*
X130736802Y-41977260D01*
X130745973Y-41976360D01*
X130940070Y-41955959D01*
X130998659Y-41943932D01*
X131057424Y-41932723D01*
X131066246Y-41930059D01*
X131252684Y-41872347D01*
X131307839Y-41849162D01*
X131363292Y-41826758D01*
X131371428Y-41822432D01*
X131543105Y-41729607D01*
X131592700Y-41696154D01*
X131642754Y-41663400D01*
X131649895Y-41657576D01*
X131800273Y-41533172D01*
X131842412Y-41490737D01*
X131885162Y-41448874D01*
X131891035Y-41441773D01*
X132014385Y-41290531D01*
X132047478Y-41240723D01*
X132081285Y-41191349D01*
X132085668Y-41183243D01*
X132177293Y-41010920D01*
X132200091Y-40955608D01*
X132223653Y-40900634D01*
X132226378Y-40891831D01*
X132282787Y-40704994D01*
X132294406Y-40646314D01*
X132306843Y-40587804D01*
X132307806Y-40578639D01*
X132326851Y-40384406D01*
X132326851Y-40384402D01*
X132330001Y-40352419D01*
X132330001Y-39460000D01*
X132927089Y-39460000D01*
X132935000Y-39540322D01*
X132935001Y-52579668D01*
X132927089Y-52660000D01*
X132958657Y-52980516D01*
X133052148Y-53288715D01*
X133203969Y-53572752D01*
X133408286Y-53821714D01*
X133657248Y-54026031D01*
X133941285Y-54177852D01*
X134249484Y-54271343D01*
X134489678Y-54295000D01*
X134570000Y-54302911D01*
X134650322Y-54295000D01*
X147689678Y-54295000D01*
X147770000Y-54302911D01*
X147850322Y-54295000D01*
X148090516Y-54271343D01*
X148398715Y-54177852D01*
X148682752Y-54026031D01*
X148931714Y-53821714D01*
X149136031Y-53572752D01*
X149287852Y-53288715D01*
X149381343Y-52980516D01*
X149412911Y-52660000D01*
X149405000Y-52579678D01*
X149405000Y-44230000D01*
X151977089Y-44230000D01*
X151985000Y-44310322D01*
X151985001Y-57349668D01*
X151977089Y-57430000D01*
X152008657Y-57750516D01*
X152102148Y-58058715D01*
X152253969Y-58342752D01*
X152458286Y-58591714D01*
X152707248Y-58796031D01*
X152991285Y-58947852D01*
X153299484Y-59041343D01*
X153539678Y-59065000D01*
X153620000Y-59072911D01*
X153700322Y-59065000D01*
X166739678Y-59065000D01*
X166820000Y-59072911D01*
X166900322Y-59065000D01*
X167140516Y-59041343D01*
X167448715Y-58947852D01*
X167732752Y-58796031D01*
X167981714Y-58591714D01*
X168186031Y-58342752D01*
X168337852Y-58058715D01*
X168431343Y-57750516D01*
X168462911Y-57430000D01*
X168455000Y-57349678D01*
X168455000Y-46510000D01*
X171027089Y-46510000D01*
X171035000Y-46590322D01*
X171035001Y-59629668D01*
X171027089Y-59710000D01*
X171058657Y-60030516D01*
X171152148Y-60338715D01*
X171303969Y-60622752D01*
X171508286Y-60871714D01*
X171757248Y-61076031D01*
X172041285Y-61227852D01*
X172349484Y-61321343D01*
X172589678Y-61345000D01*
X172670000Y-61352911D01*
X172750322Y-61345000D01*
X185789678Y-61345000D01*
X185870000Y-61352911D01*
X185950322Y-61345000D01*
X186190516Y-61321343D01*
X186498715Y-61227852D01*
X186782752Y-61076031D01*
X187031714Y-60871714D01*
X187236031Y-60622752D01*
X187387852Y-60338715D01*
X187481343Y-60030516D01*
X187501028Y-59830653D01*
X187505000Y-59790322D01*
X187505000Y-59790321D01*
X187512911Y-59710000D01*
X187505000Y-59629678D01*
X187505000Y-46590322D01*
X187512911Y-46510000D01*
X187481343Y-46189484D01*
X187387852Y-45881285D01*
X187236031Y-45597248D01*
X187031714Y-45348286D01*
X186782752Y-45143969D01*
X186498715Y-44992148D01*
X186190516Y-44898657D01*
X185950322Y-44875000D01*
X185870000Y-44867089D01*
X185789678Y-44875000D01*
X172750322Y-44875000D01*
X172670000Y-44867089D01*
X172589678Y-44875000D01*
X172349484Y-44898657D01*
X172041285Y-44992148D01*
X171757248Y-45143969D01*
X171508286Y-45348286D01*
X171303969Y-45597248D01*
X171152148Y-45881285D01*
X171058657Y-46189484D01*
X171027089Y-46510000D01*
X168455000Y-46510000D01*
X168455000Y-44310322D01*
X168462911Y-44230000D01*
X168445241Y-44050588D01*
X168431343Y-43909484D01*
X168337852Y-43601285D01*
X168186031Y-43317248D01*
X167981714Y-43068286D01*
X167732752Y-42863969D01*
X167448715Y-42712148D01*
X167140516Y-42618657D01*
X166820000Y-42587089D01*
X166739678Y-42595000D01*
X153700322Y-42595000D01*
X153620000Y-42587089D01*
X153539678Y-42595000D01*
X153299484Y-42618657D01*
X152991285Y-42712148D01*
X152707248Y-42863969D01*
X152458286Y-43068286D01*
X152253969Y-43317248D01*
X152102148Y-43601285D01*
X152008657Y-43909484D01*
X151977089Y-44230000D01*
X149405000Y-44230000D01*
X149405000Y-39540322D01*
X149412911Y-39460000D01*
X149381343Y-39139484D01*
X149287852Y-38831285D01*
X149136031Y-38547248D01*
X148931714Y-38298286D01*
X148682752Y-38093969D01*
X148398715Y-37942148D01*
X148090516Y-37848657D01*
X147850322Y-37825000D01*
X147770000Y-37817089D01*
X147689678Y-37825000D01*
X134650322Y-37825000D01*
X134570000Y-37817089D01*
X134489678Y-37825000D01*
X134249484Y-37848657D01*
X133941285Y-37942148D01*
X133657248Y-38093969D01*
X133408286Y-38298286D01*
X133203969Y-38547248D01*
X133052148Y-38831285D01*
X132958657Y-39139484D01*
X132927089Y-39460000D01*
X132330001Y-39460000D01*
X132330001Y-37589779D01*
X132339581Y-37492076D01*
X132358581Y-37429144D01*
X132389446Y-37371095D01*
X132430990Y-37320157D01*
X132481645Y-37278252D01*
X132539472Y-37246985D01*
X132602273Y-37227544D01*
X132697836Y-37217500D01*
X149637722Y-37217500D01*
X149735425Y-37227080D01*
G36*
X203285000Y-136745000D02*
G01*
X193355000Y-136745000D01*
X193355000Y-126815000D01*
X203285001Y-126815000D01*
X203285000Y-136745000D01*
G37*
X203285000Y-136745000D02*
X193355000Y-136745000D01*
X193355000Y-126815000D01*
X203285001Y-126815000D01*
X203285000Y-136745000D01*
G36*
X184235000Y-134275000D02*
G01*
X174305000Y-134275000D01*
X174305000Y-124345000D01*
X184235001Y-124345000D01*
X184235000Y-134275000D01*
G37*
X184235000Y-134275000D02*
X174305000Y-134275000D01*
X174305000Y-124345000D01*
X184235001Y-124345000D01*
X184235000Y-134275000D01*
G36*
X165185000Y-131995000D02*
G01*
X155255000Y-131995000D01*
X155255000Y-122065000D01*
X165185001Y-122065000D01*
X165185000Y-131995000D01*
G37*
X165185000Y-131995000D02*
X155255000Y-131995000D01*
X155255000Y-122065000D01*
X165185001Y-122065000D01*
X165185000Y-131995000D01*
G36*
X88985000Y-122465000D02*
G01*
X79055000Y-122465000D01*
X79055000Y-112535000D01*
X88985001Y-112535000D01*
X88985000Y-122465000D01*
G37*
X88985000Y-122465000D02*
X79055000Y-122465000D01*
X79055000Y-112535000D01*
X88985001Y-112535000D01*
X88985000Y-122465000D01*
G36*
X108035000Y-119985000D02*
G01*
X98105000Y-119985000D01*
X98105000Y-110055000D01*
X108035001Y-110055000D01*
X108035000Y-119985000D01*
G37*
X108035000Y-119985000D02*
X98105000Y-119985000D01*
X98105000Y-110055000D01*
X108035001Y-110055000D01*
X108035000Y-119985000D01*
G36*
X184235000Y-115225000D02*
G01*
X174305000Y-115225000D01*
X174305000Y-105295000D01*
X184235001Y-105295000D01*
X184235000Y-115225000D01*
G37*
X184235000Y-115225000D02*
X174305000Y-115225000D01*
X174305000Y-105295000D01*
X184235001Y-105295000D01*
X184235000Y-115225000D01*
G36*
X165185000Y-112945000D02*
G01*
X155255000Y-112945000D01*
X155255000Y-103015000D01*
X165185001Y-103015000D01*
X165185000Y-112945000D01*
G37*
X165185000Y-112945000D02*
X155255000Y-112945000D01*
X155255000Y-103015000D01*
X165185001Y-103015000D01*
X165185000Y-112945000D01*
G36*
X127085000Y-112935000D02*
G01*
X117155000Y-112935000D01*
X117155000Y-103005000D01*
X127085001Y-103005000D01*
X127085000Y-112935000D01*
G37*
X127085000Y-112935000D02*
X117155000Y-112935000D01*
X117155000Y-103005000D01*
X127085001Y-103005000D01*
X127085000Y-112935000D01*
G36*
X146135000Y-108175000D02*
G01*
X136205000Y-108175000D01*
X136205000Y-98245000D01*
X146135001Y-98245000D01*
X146135000Y-108175000D01*
G37*
X146135000Y-108175000D02*
X136205000Y-108175000D01*
X136205000Y-98245000D01*
X146135001Y-98245000D01*
X146135000Y-108175000D01*
G36*
X88985000Y-103415000D02*
G01*
X79055000Y-103415000D01*
X79055000Y-93485000D01*
X88985001Y-93485000D01*
X88985000Y-103415000D01*
G37*
X88985000Y-103415000D02*
X79055000Y-103415000D01*
X79055000Y-93485000D01*
X88985001Y-93485000D01*
X88985000Y-103415000D01*
G36*
X108035000Y-100935000D02*
G01*
X98105000Y-100935000D01*
X98105000Y-91005000D01*
X108035001Y-91005000D01*
X108035000Y-100935000D01*
G37*
X108035000Y-100935000D02*
X98105000Y-100935000D01*
X98105000Y-91005000D01*
X108035001Y-91005000D01*
X108035000Y-100935000D01*
G36*
X184235000Y-96175000D02*
G01*
X174305000Y-96175000D01*
X174305000Y-86245000D01*
X184235001Y-86245000D01*
X184235000Y-96175000D01*
G37*
X184235000Y-96175000D02*
X174305000Y-96175000D01*
X174305000Y-86245000D01*
X184235001Y-86245000D01*
X184235000Y-96175000D01*
G36*
X165185000Y-93895000D02*
G01*
X155255000Y-93895000D01*
X155255000Y-83965000D01*
X165185001Y-83965000D01*
X165185000Y-93895000D01*
G37*
X165185000Y-93895000D02*
X155255000Y-93895000D01*
X155255000Y-83965000D01*
X165185001Y-83965000D01*
X165185000Y-93895000D01*
G36*
X127085000Y-93885000D02*
G01*
X117155000Y-93885000D01*
X117155000Y-83955000D01*
X127085001Y-83955000D01*
X127085000Y-93885000D01*
G37*
X127085000Y-93885000D02*
X117155000Y-93885000D01*
X117155000Y-83955000D01*
X127085001Y-83955000D01*
X127085000Y-93885000D01*
G36*
X146135000Y-89125000D02*
G01*
X136205000Y-89125000D01*
X136205000Y-79195000D01*
X146135001Y-79195000D01*
X146135000Y-89125000D01*
G37*
X146135000Y-89125000D02*
X136205000Y-89125000D01*
X136205000Y-79195000D01*
X146135001Y-79195000D01*
X146135000Y-89125000D01*
G36*
X88985000Y-84365000D02*
G01*
X79055000Y-84365000D01*
X79055000Y-74435000D01*
X88985001Y-74435000D01*
X88985000Y-84365000D01*
G37*
X88985000Y-84365000D02*
X79055000Y-84365000D01*
X79055000Y-74435000D01*
X88985001Y-74435000D01*
X88985000Y-84365000D01*
G36*
X108035000Y-81885000D02*
G01*
X98105000Y-81885000D01*
X98105000Y-71955000D01*
X108035001Y-71955000D01*
X108035000Y-81885000D01*
G37*
X108035000Y-81885000D02*
X98105000Y-81885000D01*
X98105000Y-71955000D01*
X108035001Y-71955000D01*
X108035000Y-81885000D01*
G36*
X184235000Y-77125000D02*
G01*
X174305000Y-77125000D01*
X174305000Y-67195000D01*
X184235001Y-67195000D01*
X184235000Y-77125000D01*
G37*
X184235000Y-77125000D02*
X174305000Y-77125000D01*
X174305000Y-67195000D01*
X184235001Y-67195000D01*
X184235000Y-77125000D01*
G36*
X165185000Y-74845000D02*
G01*
X155255000Y-74845000D01*
X155255000Y-64915000D01*
X165185001Y-64915000D01*
X165185000Y-74845000D01*
G37*
X165185000Y-74845000D02*
X155255000Y-74845000D01*
X155255000Y-64915000D01*
X165185001Y-64915000D01*
X165185000Y-74845000D01*
G36*
X127085000Y-74835000D02*
G01*
X117155000Y-74835000D01*
X117155000Y-64905000D01*
X127085001Y-64905000D01*
X127085000Y-74835000D01*
G37*
X127085000Y-74835000D02*
X117155000Y-74835000D01*
X117155000Y-64905000D01*
X127085001Y-64905000D01*
X127085000Y-74835000D01*
G36*
X146135000Y-70075000D02*
G01*
X136205000Y-70075000D01*
X136205000Y-60145000D01*
X146135001Y-60145000D01*
X146135000Y-70075000D01*
G37*
X146135000Y-70075000D02*
X136205000Y-70075000D01*
X136205000Y-60145000D01*
X146135001Y-60145000D01*
X146135000Y-70075000D01*
G36*
X88985000Y-65315000D02*
G01*
X79055000Y-65315000D01*
X79055000Y-55385000D01*
X88985001Y-55385000D01*
X88985000Y-65315000D01*
G37*
X88985000Y-65315000D02*
X79055000Y-65315000D01*
X79055000Y-55385000D01*
X88985001Y-55385000D01*
X88985000Y-65315000D01*
G36*
X108035000Y-62835000D02*
G01*
X98105000Y-62835000D01*
X98105000Y-52905000D01*
X108035001Y-52905000D01*
X108035000Y-62835000D01*
G37*
X108035000Y-62835000D02*
X98105000Y-62835000D01*
X98105000Y-52905000D01*
X108035001Y-52905000D01*
X108035000Y-62835000D01*
G36*
X184235000Y-58075000D02*
G01*
X174305000Y-58075000D01*
X174305000Y-48145000D01*
X184235001Y-48145000D01*
X184235000Y-58075000D01*
G37*
X184235000Y-58075000D02*
X174305000Y-58075000D01*
X174305000Y-48145000D01*
X184235001Y-48145000D01*
X184235000Y-58075000D01*
G36*
X165185000Y-55795000D02*
G01*
X155255000Y-55795000D01*
X155255000Y-45865000D01*
X165185001Y-45865000D01*
X165185000Y-55795000D01*
G37*
X165185000Y-55795000D02*
X155255000Y-55795000D01*
X155255000Y-45865000D01*
X165185001Y-45865000D01*
X165185000Y-55795000D01*
G36*
X127085000Y-55785000D02*
G01*
X117155000Y-55785000D01*
X117155000Y-45855000D01*
X127085001Y-45855000D01*
X127085000Y-55785000D01*
G37*
X127085000Y-55785000D02*
X117155000Y-55785000D01*
X117155000Y-45855000D01*
X127085001Y-45855000D01*
X127085000Y-55785000D01*
G36*
X146135000Y-51025000D02*
G01*
X136205000Y-51025000D01*
X136205000Y-41095000D01*
X146135001Y-41095000D01*
X146135000Y-51025000D01*
G37*
X146135000Y-51025000D02*
X136205000Y-51025000D01*
X136205000Y-41095000D01*
X146135001Y-41095000D01*
X146135000Y-51025000D01*
G36*
X72535424Y-84852080D02*
G01*
X72598356Y-84871080D01*
X72656405Y-84901945D01*
X72707343Y-84943489D01*
X72749248Y-84994144D01*
X72780515Y-85051971D01*
X72799956Y-85114772D01*
X72809997Y-85210307D01*
X72809891Y-86013545D01*
X72731714Y-85918286D01*
X72482752Y-85713969D01*
X72198715Y-85562148D01*
X71890516Y-85468657D01*
X71650322Y-85445000D01*
X71570000Y-85437089D01*
X71489678Y-85445000D01*
X58450322Y-85445000D01*
X58370000Y-85437089D01*
X58289678Y-85445000D01*
X58049484Y-85468657D01*
X57741285Y-85562148D01*
X57457248Y-85713969D01*
X57208286Y-85918286D01*
X57003969Y-86167248D01*
X56852148Y-86451285D01*
X56758657Y-86759484D01*
X56727089Y-87080000D01*
X56735000Y-87160322D01*
X56735001Y-100199668D01*
X56727089Y-100280000D01*
X56758657Y-100600516D01*
X56852148Y-100908715D01*
X57003969Y-101192752D01*
X57208286Y-101441714D01*
X57457248Y-101646031D01*
X57741285Y-101797852D01*
X58049484Y-101891343D01*
X58289678Y-101915000D01*
X58370000Y-101922911D01*
X58450322Y-101915000D01*
X71489678Y-101915000D01*
X71570000Y-101922911D01*
X71650322Y-101915000D01*
X71890516Y-101891343D01*
X72198715Y-101797852D01*
X72482752Y-101646031D01*
X72731714Y-101441714D01*
X72859882Y-101285540D01*
X72859996Y-102150257D01*
X72850420Y-102247924D01*
X72831420Y-102310857D01*
X72800554Y-102368906D01*
X72759011Y-102419843D01*
X72708356Y-102461748D01*
X72650529Y-102493015D01*
X72587728Y-102512456D01*
X72492165Y-102522500D01*
X56502279Y-102522500D01*
X56404576Y-102512920D01*
X56341643Y-102493920D01*
X56283594Y-102463054D01*
X56232657Y-102421511D01*
X56190752Y-102370856D01*
X56159485Y-102313029D01*
X56140044Y-102250228D01*
X56130000Y-102154665D01*
X56130000Y-85214779D01*
X56139580Y-85117076D01*
X56158580Y-85054144D01*
X56189445Y-84996095D01*
X56230989Y-84945157D01*
X56281644Y-84903252D01*
X56339471Y-84871985D01*
X56402272Y-84852544D01*
X56497835Y-84842500D01*
X72437721Y-84842500D01*
X72535424Y-84852080D01*
G37*
X72535424Y-84852080D02*
X72598356Y-84871080D01*
X72656405Y-84901945D01*
X72707343Y-84943489D01*
X72749248Y-84994144D01*
X72780515Y-85051971D01*
X72799956Y-85114772D01*
X72809997Y-85210307D01*
X72809891Y-86013545D01*
X72731714Y-85918286D01*
X72482752Y-85713969D01*
X72198715Y-85562148D01*
X71890516Y-85468657D01*
X71650322Y-85445000D01*
X71570000Y-85437089D01*
X71489678Y-85445000D01*
X58450322Y-85445000D01*
X58370000Y-85437089D01*
X58289678Y-85445000D01*
X58049484Y-85468657D01*
X57741285Y-85562148D01*
X57457248Y-85713969D01*
X57208286Y-85918286D01*
X57003969Y-86167248D01*
X56852148Y-86451285D01*
X56758657Y-86759484D01*
X56727089Y-87080000D01*
X56735000Y-87160322D01*
X56735001Y-100199668D01*
X56727089Y-100280000D01*
X56758657Y-100600516D01*
X56852148Y-100908715D01*
X57003969Y-101192752D01*
X57208286Y-101441714D01*
X57457248Y-101646031D01*
X57741285Y-101797852D01*
X58049484Y-101891343D01*
X58289678Y-101915000D01*
X58370000Y-101922911D01*
X58450322Y-101915000D01*
X71489678Y-101915000D01*
X71570000Y-101922911D01*
X71650322Y-101915000D01*
X71890516Y-101891343D01*
X72198715Y-101797852D01*
X72482752Y-101646031D01*
X72731714Y-101441714D01*
X72859882Y-101285540D01*
X72859996Y-102150257D01*
X72850420Y-102247924D01*
X72831420Y-102310857D01*
X72800554Y-102368906D01*
X72759011Y-102419843D01*
X72708356Y-102461748D01*
X72650529Y-102493015D01*
X72587728Y-102512456D01*
X72492165Y-102522500D01*
X56502279Y-102522500D01*
X56404576Y-102512920D01*
X56341643Y-102493920D01*
X56283594Y-102463054D01*
X56232657Y-102421511D01*
X56190752Y-102370856D01*
X56159485Y-102313029D01*
X56140044Y-102250228D01*
X56130000Y-102154665D01*
X56130000Y-85214779D01*
X56139580Y-85117076D01*
X56158580Y-85054144D01*
X56189445Y-84996095D01*
X56230989Y-84945157D01*
X56281644Y-84903252D01*
X56339471Y-84871985D01*
X56402272Y-84852544D01*
X56497835Y-84842500D01*
X72437721Y-84842500D01*
X72535424Y-84852080D01*
G36*
X69935000Y-98645000D02*
G01*
X60005000Y-98645000D01*
X60005000Y-88715000D01*
X69935001Y-88715000D01*
X69935000Y-98645000D01*
G37*
X69935000Y-98645000D02*
X60005000Y-98645000D01*
X60005000Y-88715000D01*
X69935001Y-88715000D01*
X69935000Y-98645000D01*
M02*
