G04 #@! TF.GenerationSoftware,KiCad,Pcbnew,(5.1.5)-3*
G04 #@! TF.CreationDate,2020-04-07T23:28:36+08:00*
G04 #@! TF.ProjectId,plate,706c6174-652e-46b6-9963-61645f706362,rev?*
G04 #@! TF.SameCoordinates,Original*
G04 #@! TF.FileFunction,Legend,Top*
G04 #@! TF.FilePolarity,Positive*
%FSLAX46Y46*%
G04 Gerber Fmt 4.6, Leading zero omitted, Abs format (unit mm)*
G04 Created by KiCad (PCBNEW (5.1.5)-3) date 2020-04-07 23:28:36*
%MOMM*%
%LPD*%
G04 APERTURE LIST*
%ADD10O,2.102000X14.902000*%
%ADD11O,14.902000X2.102000*%
G04 APERTURE END LIST*
%LPC*%
D10*
X96670000Y-57880000D03*
D11*
X103070000Y-51470000D03*
D10*
X109470000Y-57870000D03*
D11*
X103070000Y-64270000D03*
D10*
X115720000Y-50830000D03*
D11*
X122120000Y-44420000D03*
D10*
X128520000Y-50820000D03*
D11*
X122120000Y-57220000D03*
D10*
X134770000Y-46070000D03*
D11*
X141170000Y-39660000D03*
D10*
X147570000Y-46060000D03*
D11*
X141170000Y-52460000D03*
D10*
X77620000Y-60360000D03*
D11*
X84020000Y-53950000D03*
D10*
X90420000Y-60350000D03*
D11*
X84020000Y-66750000D03*
D10*
X153820000Y-50840000D03*
D11*
X160220000Y-44430000D03*
D10*
X166620000Y-50830000D03*
D11*
X160220000Y-57230000D03*
D10*
X172870000Y-53120000D03*
D11*
X179270000Y-46710000D03*
D10*
X185670000Y-53110000D03*
D11*
X179270000Y-59510000D03*
D10*
X172870000Y-91220000D03*
D11*
X179270000Y-84810000D03*
D10*
X185670000Y-91210000D03*
D11*
X179270000Y-97610000D03*
D10*
X153820000Y-69890000D03*
D11*
X160220000Y-63480000D03*
D10*
X166620000Y-69880000D03*
D11*
X160220000Y-76280000D03*
D10*
X153820000Y-88940000D03*
D11*
X160220000Y-82530000D03*
D10*
X166620000Y-88930000D03*
D11*
X160220000Y-95330000D03*
D10*
X96670000Y-76930000D03*
D11*
X103070000Y-70520000D03*
D10*
X109470000Y-76920000D03*
D11*
X103070000Y-83320000D03*
D10*
X134770000Y-84170000D03*
D11*
X141170000Y-77760000D03*
D10*
X147570000Y-84160000D03*
D11*
X141170000Y-90560000D03*
D10*
X115720000Y-88930000D03*
D11*
X122120000Y-82520000D03*
D10*
X128520000Y-88920000D03*
D11*
X122120000Y-95320000D03*
D10*
X77620000Y-98460000D03*
D11*
X84020000Y-92050000D03*
D10*
X90420000Y-98450000D03*
D11*
X84020000Y-104850000D03*
D10*
X134770000Y-65120000D03*
D11*
X141170000Y-58710000D03*
D10*
X147570000Y-65110000D03*
D11*
X141170000Y-71510000D03*
D10*
X172870000Y-72170000D03*
D11*
X179270000Y-65760000D03*
D10*
X185670000Y-72160000D03*
D11*
X179270000Y-78560000D03*
D10*
X58570000Y-93690000D03*
D11*
X64970000Y-87280000D03*
D10*
X71370000Y-93680000D03*
D11*
X64970000Y-100080000D03*
D10*
X153820000Y-107990000D03*
D11*
X160220000Y-101580000D03*
D10*
X166620000Y-107980000D03*
D11*
X160220000Y-114380000D03*
D10*
X96670000Y-95980000D03*
D11*
X103070000Y-89570000D03*
D10*
X109470000Y-95970000D03*
D11*
X103070000Y-102370000D03*
D10*
X77620000Y-117510000D03*
D11*
X84020000Y-111100000D03*
D10*
X90420000Y-117500000D03*
D11*
X84020000Y-123900000D03*
D10*
X172870000Y-110270000D03*
D11*
X179270000Y-103860000D03*
D10*
X185670000Y-110260000D03*
D11*
X179270000Y-116660000D03*
D10*
X134770000Y-103220000D03*
D11*
X141170000Y-96810000D03*
D10*
X147570000Y-103210000D03*
D11*
X141170000Y-109610000D03*
D10*
X115720000Y-107980000D03*
D11*
X122120000Y-101570000D03*
D10*
X128520000Y-107970000D03*
D11*
X122120000Y-114370000D03*
D10*
X96670000Y-115030000D03*
D11*
X103070000Y-108620000D03*
D10*
X109470000Y-115020000D03*
D11*
X103070000Y-121420000D03*
D10*
X115720000Y-69880000D03*
D11*
X122120000Y-63470000D03*
D10*
X128520000Y-69870000D03*
D11*
X122120000Y-76270000D03*
D10*
X153820000Y-127040000D03*
D11*
X160220000Y-120630000D03*
D10*
X166620000Y-127030000D03*
D11*
X160220000Y-133430000D03*
D10*
X172870000Y-129320000D03*
D11*
X179270000Y-122910000D03*
D10*
X185670000Y-129310000D03*
D11*
X179270000Y-135710000D03*
D10*
X191920000Y-131790000D03*
D11*
X198320000Y-125380000D03*
D10*
X204720000Y-131780000D03*
D11*
X198320000Y-138180000D03*
D10*
X77620000Y-79410000D03*
D11*
X84020000Y-73000000D03*
D10*
X90420000Y-79400000D03*
D11*
X84020000Y-85800000D03*
M02*
