M48
; DRILL file {KiCad (5.1.5)-3} date 13/04/2020 19:14:53
; FORMAT={-:-/ absolute / inch / decimal}
; #@! TF.CreationDate,2020-04-13T19:14:53+08:00
; #@! TF.GenerationSoftware,Kicad,Pcbnew,(5.1.5)-3
; #@! TF.FileFunction,Plated,1,2,PTH
FMAT,2
INCH
T1C0.0472
%
G90
G05
T1
G00X6.0559Y-5.2535
M15
G01X6.0559Y-4.7496
M16
G05
G00X6.5598Y-4.7492
M15
G01X6.0559Y-4.7492
M16
G05
G00X6.5598Y-5.2531
M15
G01X6.0559Y-5.2531
M16
G05
G00X6.5598Y-5.2531
M15
G01X6.5598Y-4.7492
M16
G05
G00X3.8059Y-4.7807
M15
G01X3.8059Y-4.2768
M16
G05
G00X4.3098Y-4.2764
M15
G01X3.8059Y-4.2764
M16
G05
G00X4.3098Y-4.7803
M15
G01X3.8059Y-4.7803
M16
G05
G00X4.3098Y-4.7803
M15
G01X4.3098Y-4.2764
M16
G05
G00X3.0559Y-4.8783
M15
G01X3.0559Y-4.3744
M16
G05
G00X3.5598Y-4.374
M15
G01X3.0559Y-4.374
M16
G05
G00X3.5598Y-4.878
M15
G01X3.0559Y-4.878
M16
G05
G00X3.5598Y-4.878
M15
G01X3.5598Y-4.374
M16
G05
G00X3.0559Y-3.3783
M15
G01X3.0559Y-2.8744
M16
G05
G00X3.5598Y-2.874
M15
G01X3.0559Y-2.874
M16
G05
G00X3.5598Y-3.378
M15
G01X3.0559Y-3.378
M16
G05
G00X3.5598Y-3.378
M15
G01X3.5598Y-2.874
M16
G05
G00X6.0559Y-4.5035
M15
G01X6.0559Y-3.9996
M16
G05
G00X6.5598Y-3.9992
M15
G01X6.0559Y-3.9992
M16
G05
G00X6.5598Y-4.5031
M15
G01X6.0559Y-4.5031
M16
G05
G00X6.5598Y-4.5031
M15
G01X6.5598Y-3.9992
M16
G05
G00X3.8059Y-3.2807
M15
G01X3.8059Y-2.7768
M16
G05
G00X4.3098Y-2.7764
M15
G01X3.8059Y-2.7764
M16
G05
G00X4.3098Y-3.2803
M15
G01X3.8059Y-3.2803
M16
G05
G00X4.3098Y-3.2803
M15
G01X4.3098Y-2.7764
M16
G05
G00X2.3059Y-3.9406
M15
G01X2.3059Y-3.4366
M16
G05
G00X2.8098Y-3.4362
M15
G01X2.3059Y-3.4362
M16
G05
G00X2.8098Y-3.9402
M15
G01X2.3059Y-3.9402
M16
G05
G00X2.8098Y-3.9402
M15
G01X2.8098Y-3.4362
M16
G05
G00X6.8059Y-5.3433
M15
G01X6.8059Y-4.8394
M16
G05
G00X7.3098Y-4.839
M15
G01X6.8059Y-4.839
M16
G05
G00X7.3098Y-5.3429
M15
G01X6.8059Y-5.3429
M16
G05
G00X7.3098Y-5.3429
M15
G01X7.3098Y-4.839
M16
G05
G00X3.0559Y-4.1283
M15
G01X3.0559Y-3.6244
M16
G05
G00X3.5598Y-3.624
M15
G01X3.0559Y-3.624
M16
G05
G00X3.5598Y-4.128
M15
G01X3.0559Y-4.128
M16
G05
G00X3.5598Y-4.128
M15
G01X3.5598Y-3.624
M16
G05
G00X5.3059Y-2.8157
M15
G01X5.3059Y-2.3118
M16
G05
G00X5.8098Y-2.3114
M15
G01X5.3059Y-2.3114
M16
G05
G00X5.8098Y-2.8154
M15
G01X5.3059Y-2.8154
M16
G05
G00X5.8098Y-2.8154
M15
G01X5.8098Y-2.3114
M16
G05
G00X5.3059Y-3.5657
M15
G01X5.3059Y-3.0618
M16
G05
G00X5.8098Y-3.0614
M15
G01X5.3059Y-3.0614
M16
G05
G00X5.8098Y-3.5654
M15
G01X5.3059Y-3.5654
M16
G05
G00X5.8098Y-3.5654
M15
G01X5.8098Y-3.0614
M16
G05
G00X6.0559Y-3.0035
M15
G01X6.0559Y-2.4996
M16
G05
G00X6.5598Y-2.4992
M15
G01X6.0559Y-2.4992
M16
G05
G00X6.5598Y-3.0031
M15
G01X6.0559Y-3.0031
M16
G05
G00X6.5598Y-3.0031
M15
G01X6.5598Y-2.4992
M16
G05
G00X7.5559Y-5.4406
M15
G01X7.5559Y-4.9366
M16
G05
G00X8.0598Y-4.9362
M15
G01X7.5559Y-4.9362
M16
G05
G00X8.0598Y-5.4402
M15
G01X7.5559Y-5.4402
M16
G05
G00X8.0598Y-5.4402
M15
G01X8.0598Y-4.9362
M16
G05
G00X6.8059Y-4.5933
M15
G01X6.8059Y-4.0894
M16
G05
G00X7.3098Y-4.089
M15
G01X6.8059Y-4.089
M16
G05
G00X7.3098Y-4.5929
M15
G01X6.8059Y-4.5929
M16
G05
G00X7.3098Y-4.5929
M15
G01X7.3098Y-4.089
M16
G05
G00X5.3059Y-4.3157
M15
G01X5.3059Y-3.8118
M16
G05
G00X5.8098Y-3.8114
M15
G01X5.3059Y-3.8114
M16
G05
G00X5.8098Y-4.3154
M15
G01X5.3059Y-4.3154
M16
G05
G00X5.8098Y-4.3154
M15
G01X5.8098Y-3.8114
M16
G05
G00X3.8059Y-2.5307
M15
G01X3.8059Y-2.0268
M16
G05
G00X4.3098Y-2.0264
M15
G01X3.8059Y-2.0264
M16
G05
G00X4.3098Y-2.5303
M15
G01X3.8059Y-2.5303
M16
G05
G00X4.3098Y-2.5303
M15
G01X4.3098Y-2.0264
M16
G05
G00X6.8059Y-2.3433
M15
G01X6.8059Y-1.8394
M16
G05
G00X7.3098Y-1.839
M15
G01X6.8059Y-1.839
M16
G05
G00X7.3098Y-2.3429
M15
G01X6.8059Y-2.3429
M16
G05
G00X7.3098Y-2.3429
M15
G01X7.3098Y-1.839
M16
G05
G00X6.8059Y-3.0933
M15
G01X6.8059Y-2.5894
M16
G05
G00X7.3098Y-2.589
M15
G01X6.8059Y-2.589
M16
G05
G00X7.3098Y-3.0929
M15
G01X6.8059Y-3.0929
M16
G05
G00X7.3098Y-3.0929
M15
G01X7.3098Y-2.589
M16
G05
G00X4.5559Y-3.0031
M15
G01X4.5559Y-2.4992
M16
G05
G00X5.0598Y-2.4988
M15
G01X4.5559Y-2.4988
M16
G05
G00X5.0598Y-3.0028
M15
G01X4.5559Y-3.0028
M16
G05
G00X5.0598Y-3.0028
M15
G01X5.0598Y-2.4988
M16
G05
G00X4.5559Y-3.7531
M15
G01X4.5559Y-3.2492
M16
G05
G00X5.0598Y-3.2488
M15
G01X4.5559Y-3.2488
M16
G05
G00X5.0598Y-3.7528
M15
G01X4.5559Y-3.7528
M16
G05
G00X5.0598Y-3.7528
M15
G01X5.0598Y-3.2488
M16
G05
G00X6.0559Y-2.2535
M15
G01X6.0559Y-1.7496
M16
G05
G00X6.5598Y-1.7492
M15
G01X6.0559Y-1.7492
M16
G05
G00X6.5598Y-2.2531
M15
G01X6.0559Y-2.2531
M16
G05
G00X6.5598Y-2.2531
M15
G01X6.5598Y-1.7492
M16
G05
G00X3.8059Y-4.0307
M15
G01X3.8059Y-3.5268
M16
G05
G00X4.3098Y-3.5264
M15
G01X3.8059Y-3.5264
M16
G05
G00X4.3098Y-4.0303
M15
G01X3.8059Y-4.0303
M16
G05
G00X4.3098Y-4.0303
M15
G01X4.3098Y-3.5264
M16
G05
G00X6.0559Y-3.7535
M15
G01X6.0559Y-3.2496
M16
G05
G00X6.5598Y-3.2492
M15
G01X6.0559Y-3.2492
M16
G05
G00X6.5598Y-3.7531
M15
G01X6.0559Y-3.7531
M16
G05
G00X6.5598Y-3.7531
M15
G01X6.5598Y-3.2492
M16
G05
G00X4.5559Y-2.2531
M15
G01X4.5559Y-1.7492
M16
G05
G00X5.0598Y-1.7488
M15
G01X4.5559Y-1.7488
M16
G05
G00X5.0598Y-2.2528
M15
G01X4.5559Y-2.2528
M16
G05
G00X5.0598Y-2.2528
M15
G01X5.0598Y-1.7488
M16
G05
G00X4.5559Y-4.5031
M15
G01X4.5559Y-3.9992
M16
G05
G00X5.0598Y-3.9988
M15
G01X4.5559Y-3.9988
M16
G05
G00X5.0598Y-4.5028
M15
G01X4.5559Y-4.5028
M16
G05
G00X5.0598Y-4.5028
M15
G01X5.0598Y-3.9988
M16
G05
G00X5.3059Y-2.0657
M15
G01X5.3059Y-1.5618
M16
G05
G00X5.8098Y-1.5614
M15
G01X5.3059Y-1.5614
M16
G05
G00X5.8098Y-2.0654
M15
G01X5.3059Y-2.0654
M16
G05
G00X5.8098Y-2.0654
M15
G01X5.8098Y-1.5614
M16
G05
G00X6.8059Y-3.8433
M15
G01X6.8059Y-3.3394
M16
G05
G00X7.3098Y-3.339
M15
G01X6.8059Y-3.339
M16
G05
G00X7.3098Y-3.8429
M15
G01X6.8059Y-3.8429
M16
G05
G00X7.3098Y-3.8429
M15
G01X7.3098Y-3.339
M16
G05
G00X3.0559Y-2.6283
M15
G01X3.0559Y-2.1244
M16
G05
G00X3.5598Y-2.124
M15
G01X3.0559Y-2.124
M16
G05
G00X3.5598Y-2.628
M15
G01X3.0559Y-2.628
M16
G05
G00X3.5598Y-2.628
M15
G01X3.5598Y-2.124
M16
G05
T0
M30
