G04 #@! TF.GenerationSoftware,KiCad,Pcbnew,(5.1.5)-3*
G04 #@! TF.CreationDate,2020-04-07T23:28:36+08:00*
G04 #@! TF.ProjectId,plate,706c6174-652e-46b6-9963-61645f706362,rev?*
G04 #@! TF.SameCoordinates,Original*
G04 #@! TF.FileFunction,Copper,L2,Bot*
G04 #@! TF.FilePolarity,Positive*
%FSLAX46Y46*%
G04 Gerber Fmt 4.6, Leading zero omitted, Abs format (unit mm)*
G04 Created by KiCad (PCBNEW (5.1.5)-3) date 2020-04-07 23:28:36*
%MOMM*%
%LPD*%
G04 APERTURE LIST*
%ADD10O,2.000000X14.800000*%
%ADD11O,14.800000X2.000000*%
%ADD12C,0.254000*%
G04 APERTURE END LIST*
D10*
X96670000Y-57880000D03*
D11*
X103070000Y-51470000D03*
D10*
X109470000Y-57870000D03*
D11*
X103070000Y-64270000D03*
D10*
X115720000Y-50830000D03*
D11*
X122120000Y-44420000D03*
D10*
X128520000Y-50820000D03*
D11*
X122120000Y-57220000D03*
D10*
X134770000Y-46070000D03*
D11*
X141170000Y-39660000D03*
D10*
X147570000Y-46060000D03*
D11*
X141170000Y-52460000D03*
D10*
X77620000Y-60360000D03*
D11*
X84020000Y-53950000D03*
D10*
X90420000Y-60350000D03*
D11*
X84020000Y-66750000D03*
D10*
X153820000Y-50840000D03*
D11*
X160220000Y-44430000D03*
D10*
X166620000Y-50830000D03*
D11*
X160220000Y-57230000D03*
D10*
X172870000Y-53120000D03*
D11*
X179270000Y-46710000D03*
D10*
X185670000Y-53110000D03*
D11*
X179270000Y-59510000D03*
D10*
X172870000Y-91220000D03*
D11*
X179270000Y-84810000D03*
D10*
X185670000Y-91210000D03*
D11*
X179270000Y-97610000D03*
D10*
X153820000Y-69890000D03*
D11*
X160220000Y-63480000D03*
D10*
X166620000Y-69880000D03*
D11*
X160220000Y-76280000D03*
D10*
X153820000Y-88940000D03*
D11*
X160220000Y-82530000D03*
D10*
X166620000Y-88930000D03*
D11*
X160220000Y-95330000D03*
D10*
X96670000Y-76930000D03*
D11*
X103070000Y-70520000D03*
D10*
X109470000Y-76920000D03*
D11*
X103070000Y-83320000D03*
D10*
X134770000Y-84170000D03*
D11*
X141170000Y-77760000D03*
D10*
X147570000Y-84160000D03*
D11*
X141170000Y-90560000D03*
D10*
X115720000Y-88930000D03*
D11*
X122120000Y-82520000D03*
D10*
X128520000Y-88920000D03*
D11*
X122120000Y-95320000D03*
D10*
X77620000Y-98460000D03*
D11*
X84020000Y-92050000D03*
D10*
X90420000Y-98450000D03*
D11*
X84020000Y-104850000D03*
D10*
X134770000Y-65120000D03*
D11*
X141170000Y-58710000D03*
D10*
X147570000Y-65110000D03*
D11*
X141170000Y-71510000D03*
D10*
X172870000Y-72170000D03*
D11*
X179270000Y-65760000D03*
D10*
X185670000Y-72160000D03*
D11*
X179270000Y-78560000D03*
D10*
X58570000Y-93690000D03*
D11*
X64970000Y-87280000D03*
D10*
X71370000Y-93680000D03*
D11*
X64970000Y-100080000D03*
D10*
X153820000Y-107990000D03*
D11*
X160220000Y-101580000D03*
D10*
X166620000Y-107980000D03*
D11*
X160220000Y-114380000D03*
D10*
X96670000Y-95980000D03*
D11*
X103070000Y-89570000D03*
D10*
X109470000Y-95970000D03*
D11*
X103070000Y-102370000D03*
D10*
X77620000Y-117510000D03*
D11*
X84020000Y-111100000D03*
D10*
X90420000Y-117500000D03*
D11*
X84020000Y-123900000D03*
D10*
X172870000Y-110270000D03*
D11*
X179270000Y-103860000D03*
D10*
X185670000Y-110260000D03*
D11*
X179270000Y-116660000D03*
D10*
X134770000Y-103220000D03*
D11*
X141170000Y-96810000D03*
D10*
X147570000Y-103210000D03*
D11*
X141170000Y-109610000D03*
D10*
X115720000Y-107980000D03*
D11*
X122120000Y-101570000D03*
D10*
X128520000Y-107970000D03*
D11*
X122120000Y-114370000D03*
D10*
X96670000Y-115030000D03*
D11*
X103070000Y-108620000D03*
D10*
X109470000Y-115020000D03*
D11*
X103070000Y-121420000D03*
D10*
X115720000Y-69880000D03*
D11*
X122120000Y-63470000D03*
D10*
X128520000Y-69870000D03*
D11*
X122120000Y-76270000D03*
D10*
X153820000Y-127040000D03*
D11*
X160220000Y-120630000D03*
D10*
X166620000Y-127030000D03*
D11*
X160220000Y-133430000D03*
D10*
X172870000Y-129320000D03*
D11*
X179270000Y-122910000D03*
D10*
X185670000Y-129310000D03*
D11*
X179270000Y-135710000D03*
D10*
X191920000Y-131790000D03*
D11*
X198320000Y-125380000D03*
D10*
X204720000Y-131780000D03*
D11*
X198320000Y-138180000D03*
D10*
X77620000Y-79410000D03*
D11*
X84020000Y-73000000D03*
D10*
X90420000Y-79400000D03*
D11*
X84020000Y-85800000D03*
D12*
G36*
X149735425Y-37227080D02*
G01*
X149798357Y-37246080D01*
X149856406Y-37276945D01*
X149907344Y-37318489D01*
X149949249Y-37369144D01*
X149980516Y-37426971D01*
X149999957Y-37489772D01*
X150010001Y-37585336D01*
X150010002Y-40352419D01*
X150012784Y-40380664D01*
X150012741Y-40386801D01*
X150013641Y-40395972D01*
X150034042Y-40590069D01*
X150046069Y-40648658D01*
X150057278Y-40707423D01*
X150059942Y-40716245D01*
X150117654Y-40902683D01*
X150140839Y-40957838D01*
X150163243Y-41013291D01*
X150167569Y-41021427D01*
X150260394Y-41193104D01*
X150293847Y-41242699D01*
X150326601Y-41292753D01*
X150332425Y-41299894D01*
X150456829Y-41450272D01*
X150499264Y-41492411D01*
X150541127Y-41535161D01*
X150548228Y-41541034D01*
X150699470Y-41664384D01*
X150749278Y-41697477D01*
X150798652Y-41731284D01*
X150806758Y-41735667D01*
X150979081Y-41827292D01*
X151034393Y-41850090D01*
X151089367Y-41873652D01*
X151098170Y-41876377D01*
X151285007Y-41932786D01*
X151343687Y-41944405D01*
X151402197Y-41956842D01*
X151411362Y-41957805D01*
X151605595Y-41976850D01*
X151605599Y-41976850D01*
X151637582Y-41980000D01*
X168687722Y-41980000D01*
X168785425Y-41989580D01*
X168848357Y-42008580D01*
X168906406Y-42039445D01*
X168957344Y-42080989D01*
X168999249Y-42131644D01*
X169030516Y-42189471D01*
X169049957Y-42252272D01*
X169060001Y-42347835D01*
X169060001Y-42638419D01*
X169062784Y-42666674D01*
X169062741Y-42672801D01*
X169063641Y-42681972D01*
X169084042Y-42876069D01*
X169096069Y-42934658D01*
X169107278Y-42993423D01*
X169109942Y-43002245D01*
X169167654Y-43188683D01*
X169190839Y-43243838D01*
X169213243Y-43299291D01*
X169217569Y-43307427D01*
X169310394Y-43479104D01*
X169343847Y-43528699D01*
X169376601Y-43578753D01*
X169382425Y-43585894D01*
X169506829Y-43736272D01*
X169549264Y-43778411D01*
X169591127Y-43821161D01*
X169598228Y-43827034D01*
X169749470Y-43950384D01*
X169799278Y-43983477D01*
X169848652Y-44017284D01*
X169856758Y-44021667D01*
X170029081Y-44113292D01*
X170084393Y-44136090D01*
X170139367Y-44159652D01*
X170148170Y-44162377D01*
X170335007Y-44218786D01*
X170393687Y-44230405D01*
X170452197Y-44242842D01*
X170461362Y-44243805D01*
X170655595Y-44262850D01*
X170655599Y-44262850D01*
X170687582Y-44266000D01*
X187737721Y-44266000D01*
X187835424Y-44275580D01*
X187898356Y-44294580D01*
X187956405Y-44325445D01*
X188007343Y-44366989D01*
X188049248Y-44417644D01*
X188080515Y-44475471D01*
X188099956Y-44538272D01*
X188110001Y-44633845D01*
X188110000Y-61107721D01*
X188100420Y-61205424D01*
X188081420Y-61268357D01*
X188050554Y-61326406D01*
X188009011Y-61377343D01*
X187958356Y-61419248D01*
X187900529Y-61450515D01*
X187837728Y-61469956D01*
X187743107Y-61479901D01*
X180657581Y-61479901D01*
X180629671Y-61482650D01*
X180626693Y-61482629D01*
X180617522Y-61483528D01*
X180569360Y-61488590D01*
X180560617Y-61489451D01*
X180560325Y-61489539D01*
X180520454Y-61493730D01*
X180461845Y-61505761D01*
X180403093Y-61516968D01*
X180394272Y-61519632D01*
X180301035Y-61548494D01*
X180245879Y-61571680D01*
X180190430Y-61594082D01*
X180182293Y-61598408D01*
X180096437Y-61644830D01*
X180046830Y-61678290D01*
X179996790Y-61711035D01*
X179989649Y-61716860D01*
X179914445Y-61779074D01*
X179872320Y-61821494D01*
X179829554Y-61863374D01*
X179823680Y-61870474D01*
X179761993Y-61946111D01*
X179728909Y-61995906D01*
X179695095Y-62045289D01*
X179690713Y-62053396D01*
X179644891Y-62139574D01*
X179622118Y-62194825D01*
X179598528Y-62249864D01*
X179595804Y-62258667D01*
X179567594Y-62352105D01*
X179555980Y-62410761D01*
X179543538Y-62469296D01*
X179542575Y-62478461D01*
X179533051Y-62575597D01*
X179533051Y-62604405D01*
X179529937Y-62633054D01*
X179529905Y-62642269D01*
X179529917Y-62645760D01*
X179532831Y-62674459D01*
X179532629Y-62703307D01*
X179533528Y-62712478D01*
X179543730Y-62809546D01*
X179555761Y-62868155D01*
X179566968Y-62926907D01*
X179569632Y-62935728D01*
X179598494Y-63028965D01*
X179621674Y-63084108D01*
X179644082Y-63139571D01*
X179648408Y-63147707D01*
X179694831Y-63233564D01*
X179728279Y-63283154D01*
X179761035Y-63333210D01*
X179766856Y-63340346D01*
X179766860Y-63340352D01*
X179766865Y-63340357D01*
X179829073Y-63415555D01*
X179871546Y-63457732D01*
X179913374Y-63500446D01*
X179920469Y-63506315D01*
X179920473Y-63506319D01*
X179920475Y-63506320D01*
X179996111Y-63568007D01*
X180045901Y-63601087D01*
X180095290Y-63634905D01*
X180103396Y-63639287D01*
X180189574Y-63685110D01*
X180244871Y-63707902D01*
X180299865Y-63731472D01*
X180308668Y-63734196D01*
X180402105Y-63762407D01*
X180460798Y-63774028D01*
X180519296Y-63786462D01*
X180528461Y-63787425D01*
X180625597Y-63796949D01*
X180625605Y-63796949D01*
X180657591Y-63800099D01*
X187737720Y-63800000D01*
X187835424Y-63809580D01*
X187898356Y-63828580D01*
X187956405Y-63859445D01*
X188007343Y-63900989D01*
X188049248Y-63951644D01*
X188080515Y-64009471D01*
X188099956Y-64072272D01*
X188110001Y-64167843D01*
X188109801Y-121262217D01*
X188112584Y-121290472D01*
X188112541Y-121296604D01*
X188113441Y-121305775D01*
X188133846Y-121499909D01*
X188145869Y-121558479D01*
X188157082Y-121617262D01*
X188159746Y-121626084D01*
X188217469Y-121812560D01*
X188240642Y-121867687D01*
X188263059Y-121923170D01*
X188267385Y-121931307D01*
X188360229Y-122103017D01*
X188393685Y-122152618D01*
X188426435Y-122202665D01*
X188432259Y-122209806D01*
X188556688Y-122360214D01*
X188599122Y-122402353D01*
X188640985Y-122445102D01*
X188648086Y-122450975D01*
X188799357Y-122574350D01*
X188849191Y-122607460D01*
X188898541Y-122641251D01*
X188906648Y-122645634D01*
X189079004Y-122737277D01*
X189134330Y-122760081D01*
X189189291Y-122783637D01*
X189198094Y-122786362D01*
X189384967Y-122842782D01*
X189443632Y-122854398D01*
X189502156Y-122866838D01*
X189511321Y-122867801D01*
X189705594Y-122886850D01*
X189705598Y-122886850D01*
X189737581Y-122890000D01*
X207160000Y-122890000D01*
X207160001Y-140250211D01*
X207150420Y-140347924D01*
X207131420Y-140410857D01*
X207100554Y-140468906D01*
X207059011Y-140519843D01*
X207008356Y-140561748D01*
X206950529Y-140593015D01*
X206887728Y-140612456D01*
X206792165Y-140622500D01*
X189852279Y-140622500D01*
X189754576Y-140612920D01*
X189691643Y-140593920D01*
X189633594Y-140563054D01*
X189582657Y-140521511D01*
X189540752Y-140470856D01*
X189509485Y-140413029D01*
X189490044Y-140350228D01*
X189480000Y-140254665D01*
X189480000Y-139777581D01*
X189477217Y-139749326D01*
X189477260Y-139743199D01*
X189476360Y-139734028D01*
X189455959Y-139539931D01*
X189443934Y-139481348D01*
X189432723Y-139422577D01*
X189430059Y-139413755D01*
X189372347Y-139227317D01*
X189349162Y-139172162D01*
X189326758Y-139116709D01*
X189322432Y-139108573D01*
X189229607Y-138936896D01*
X189196139Y-138887278D01*
X189163400Y-138837247D01*
X189157576Y-138830106D01*
X189033172Y-138679728D01*
X188990737Y-138637589D01*
X188948874Y-138594839D01*
X188941773Y-138588966D01*
X188790531Y-138465616D01*
X188740738Y-138432534D01*
X188691349Y-138398716D01*
X188683243Y-138394333D01*
X188510921Y-138302708D01*
X188455606Y-138279909D01*
X188400634Y-138256348D01*
X188391831Y-138253623D01*
X188204995Y-138197214D01*
X188146307Y-138185594D01*
X188087804Y-138173158D01*
X188078639Y-138172195D01*
X187884405Y-138153150D01*
X187884397Y-138153150D01*
X187852573Y-138150008D01*
X170802362Y-138146008D01*
X170704576Y-138136420D01*
X170641643Y-138117420D01*
X170583594Y-138086554D01*
X170532657Y-138045011D01*
X170490752Y-137994356D01*
X170459485Y-137936529D01*
X170440044Y-137873728D01*
X170430000Y-137778165D01*
X170430000Y-137487581D01*
X170427217Y-137459326D01*
X170427260Y-137453199D01*
X170426360Y-137444028D01*
X170405959Y-137249931D01*
X170393934Y-137191348D01*
X170382723Y-137132577D01*
X170380059Y-137123755D01*
X170322347Y-136937317D01*
X170299162Y-136882162D01*
X170276758Y-136826709D01*
X170272432Y-136818573D01*
X170179607Y-136646896D01*
X170146139Y-136597278D01*
X170113400Y-136547247D01*
X170107576Y-136540106D01*
X169983172Y-136389728D01*
X169940737Y-136347589D01*
X169898874Y-136304839D01*
X169891773Y-136298966D01*
X169740531Y-136175616D01*
X169690738Y-136142534D01*
X169641349Y-136108716D01*
X169633243Y-136104333D01*
X169460921Y-136012708D01*
X169405606Y-135989909D01*
X169350634Y-135966348D01*
X169341831Y-135963623D01*
X169154995Y-135907214D01*
X169096307Y-135895594D01*
X169037804Y-135883158D01*
X169028639Y-135882195D01*
X168834405Y-135863150D01*
X168834402Y-135863150D01*
X168802419Y-135860000D01*
X151752279Y-135860000D01*
X151654576Y-135850420D01*
X151591643Y-135831420D01*
X151533594Y-135800554D01*
X151482657Y-135759011D01*
X151440752Y-135708356D01*
X151409485Y-135650529D01*
X151390044Y-135587728D01*
X151380000Y-135492165D01*
X151380000Y-120630000D01*
X152177089Y-120630000D01*
X152185000Y-120710322D01*
X152185001Y-133349668D01*
X152177089Y-133430000D01*
X152185001Y-133510332D01*
X152185001Y-133520322D01*
X152208658Y-133760516D01*
X152302149Y-134068715D01*
X152453970Y-134352752D01*
X152658287Y-134601714D01*
X152907249Y-134806031D01*
X153191286Y-134957852D01*
X153499485Y-135051343D01*
X153820000Y-135082911D01*
X154001854Y-135065000D01*
X166539678Y-135065000D01*
X166620000Y-135072911D01*
X166940516Y-135041343D01*
X167248715Y-134947852D01*
X167532752Y-134796031D01*
X167781714Y-134591714D01*
X167986031Y-134342752D01*
X168137852Y-134058715D01*
X168231343Y-133750516D01*
X168255000Y-133510322D01*
X168262911Y-133430000D01*
X168255000Y-133349678D01*
X168255000Y-122910000D01*
X171227089Y-122910000D01*
X171235000Y-122990322D01*
X171235001Y-135629668D01*
X171227089Y-135710000D01*
X171235001Y-135790332D01*
X171235001Y-135800322D01*
X171258658Y-136040516D01*
X171352149Y-136348715D01*
X171503970Y-136632752D01*
X171708287Y-136881714D01*
X171957249Y-137086031D01*
X172241286Y-137237852D01*
X172549485Y-137331343D01*
X172870000Y-137362911D01*
X173051854Y-137345000D01*
X185589678Y-137345000D01*
X185670000Y-137352911D01*
X185990516Y-137321343D01*
X186298715Y-137227852D01*
X186582752Y-137076031D01*
X186831714Y-136871714D01*
X187036031Y-136622752D01*
X187187852Y-136338715D01*
X187281343Y-136030516D01*
X187305000Y-135790322D01*
X187312911Y-135710000D01*
X187305000Y-135629678D01*
X187305000Y-125380000D01*
X190277089Y-125380000D01*
X190285000Y-125460322D01*
X190285001Y-138099668D01*
X190277089Y-138180000D01*
X190285001Y-138260332D01*
X190285001Y-138270322D01*
X190308658Y-138510516D01*
X190402149Y-138818715D01*
X190553970Y-139102752D01*
X190758287Y-139351714D01*
X191007249Y-139556031D01*
X191291286Y-139707852D01*
X191599485Y-139801343D01*
X191920000Y-139832911D01*
X192101854Y-139815000D01*
X204639678Y-139815000D01*
X204720000Y-139822911D01*
X204874126Y-139807731D01*
X205040516Y-139791343D01*
X205348715Y-139697852D01*
X205632752Y-139546031D01*
X205881714Y-139341714D01*
X206086031Y-139092752D01*
X206237852Y-138808715D01*
X206331343Y-138500516D01*
X206362911Y-138180000D01*
X206355000Y-138099678D01*
X206355000Y-125460322D01*
X206362911Y-125380000D01*
X206331343Y-125059484D01*
X206237852Y-124751285D01*
X206086031Y-124467248D01*
X205881714Y-124218286D01*
X205632752Y-124013969D01*
X205348715Y-123862148D01*
X205040516Y-123768657D01*
X204800322Y-123745000D01*
X204720000Y-123737089D01*
X204639678Y-123745000D01*
X191839678Y-123745000D01*
X191599484Y-123768657D01*
X191291285Y-123862148D01*
X191007248Y-124013969D01*
X190758286Y-124218286D01*
X190553969Y-124467248D01*
X190402148Y-124751285D01*
X190308657Y-125059484D01*
X190277089Y-125380000D01*
X187305000Y-125380000D01*
X187305000Y-122990322D01*
X187312911Y-122910000D01*
X187300248Y-122781425D01*
X187281343Y-122589484D01*
X187187852Y-122281285D01*
X187036031Y-121997248D01*
X186831714Y-121748286D01*
X186814102Y-121733832D01*
X186582752Y-121543969D01*
X186298715Y-121392148D01*
X185990516Y-121298657D01*
X185750322Y-121275000D01*
X185670000Y-121267089D01*
X185589678Y-121275000D01*
X172789678Y-121275000D01*
X172549484Y-121298657D01*
X172241285Y-121392148D01*
X171957248Y-121543969D01*
X171708286Y-121748286D01*
X171503969Y-121997248D01*
X171352148Y-122281285D01*
X171258657Y-122589484D01*
X171227089Y-122910000D01*
X168255000Y-122910000D01*
X168255000Y-120710322D01*
X168262911Y-120630000D01*
X168231343Y-120309484D01*
X168137852Y-120001285D01*
X167986031Y-119717248D01*
X167781714Y-119468286D01*
X167532752Y-119263969D01*
X167248715Y-119112148D01*
X166940516Y-119018657D01*
X166700322Y-118995000D01*
X166620000Y-118987089D01*
X166539678Y-118995000D01*
X153739678Y-118995000D01*
X153499484Y-119018657D01*
X153191285Y-119112148D01*
X152907248Y-119263969D01*
X152658286Y-119468286D01*
X152453969Y-119717248D01*
X152302148Y-120001285D01*
X152208657Y-120309484D01*
X152177089Y-120630000D01*
X151380000Y-120630000D01*
X151380000Y-113675081D01*
X151377217Y-113646826D01*
X151377260Y-113640699D01*
X151376360Y-113631528D01*
X151355959Y-113437431D01*
X151343934Y-113378848D01*
X151332723Y-113320077D01*
X151330059Y-113311255D01*
X151272347Y-113124817D01*
X151249162Y-113069662D01*
X151226758Y-113014209D01*
X151222432Y-113006073D01*
X151129607Y-112834396D01*
X151096139Y-112784778D01*
X151063400Y-112734747D01*
X151057576Y-112727606D01*
X150933172Y-112577228D01*
X150890737Y-112535089D01*
X150848874Y-112492339D01*
X150841773Y-112486466D01*
X150690531Y-112363116D01*
X150640738Y-112330034D01*
X150591349Y-112296216D01*
X150583243Y-112291833D01*
X150410921Y-112200208D01*
X150355606Y-112177409D01*
X150300634Y-112153848D01*
X150291831Y-112151123D01*
X150104995Y-112094714D01*
X150046307Y-112083094D01*
X149987804Y-112070658D01*
X149978639Y-112069695D01*
X149784405Y-112050650D01*
X149784402Y-112050650D01*
X149752419Y-112047500D01*
X132587581Y-112047500D01*
X132559326Y-112050283D01*
X132553199Y-112050240D01*
X132544028Y-112051140D01*
X132349931Y-112071541D01*
X132291348Y-112083566D01*
X132232577Y-112094777D01*
X132223755Y-112097441D01*
X132037317Y-112155153D01*
X131982162Y-112178338D01*
X131926709Y-112200742D01*
X131918573Y-112205068D01*
X131746896Y-112297893D01*
X131697278Y-112331361D01*
X131647247Y-112364100D01*
X131640106Y-112369924D01*
X131489728Y-112494328D01*
X131447589Y-112536763D01*
X131404839Y-112578626D01*
X131398966Y-112585727D01*
X131275616Y-112736969D01*
X131242534Y-112786762D01*
X131208716Y-112836151D01*
X131204333Y-112844257D01*
X131112708Y-113016579D01*
X131089909Y-113071894D01*
X131066348Y-113126866D01*
X131063623Y-113135669D01*
X131007214Y-113322505D01*
X130995594Y-113381193D01*
X130983158Y-113439696D01*
X130982195Y-113448861D01*
X130963150Y-113643095D01*
X130960000Y-113675082D01*
X130960001Y-116437711D01*
X130950420Y-116535424D01*
X130931420Y-116598357D01*
X130900554Y-116656406D01*
X130859011Y-116707343D01*
X130808356Y-116749248D01*
X130750529Y-116780515D01*
X130687728Y-116799956D01*
X130592165Y-116810000D01*
X113537581Y-116810000D01*
X113509326Y-116812783D01*
X113503199Y-116812740D01*
X113494028Y-116813640D01*
X113299931Y-116834041D01*
X113241348Y-116846066D01*
X113182577Y-116857277D01*
X113173755Y-116859941D01*
X112987317Y-116917653D01*
X112932162Y-116940838D01*
X112876709Y-116963242D01*
X112868573Y-116967568D01*
X112696896Y-117060393D01*
X112647278Y-117093861D01*
X112597247Y-117126600D01*
X112590106Y-117132424D01*
X112439728Y-117256828D01*
X112397589Y-117299263D01*
X112354839Y-117341126D01*
X112348966Y-117348227D01*
X112225616Y-117499469D01*
X112192534Y-117549262D01*
X112158716Y-117598651D01*
X112154333Y-117606757D01*
X112062708Y-117779079D01*
X112039909Y-117834394D01*
X112016348Y-117889366D01*
X112013623Y-117898169D01*
X111957214Y-118085005D01*
X111945594Y-118143693D01*
X111933158Y-118202196D01*
X111932195Y-118211361D01*
X111913150Y-118405595D01*
X111910000Y-118437582D01*
X111910001Y-123486211D01*
X111900420Y-123583924D01*
X111881420Y-123646857D01*
X111850554Y-123704906D01*
X111809011Y-123755843D01*
X111758356Y-123797748D01*
X111700529Y-123829015D01*
X111637728Y-123848456D01*
X111542165Y-123858500D01*
X94487581Y-123858500D01*
X94459326Y-123861283D01*
X94453199Y-123861240D01*
X94444028Y-123862140D01*
X94249931Y-123882541D01*
X94191348Y-123894566D01*
X94132577Y-123905777D01*
X94123755Y-123908441D01*
X93937317Y-123966153D01*
X93882162Y-123989338D01*
X93826709Y-124011742D01*
X93818573Y-124016068D01*
X93646896Y-124108893D01*
X93597278Y-124142361D01*
X93547247Y-124175100D01*
X93540106Y-124180924D01*
X93389728Y-124305328D01*
X93347589Y-124347763D01*
X93304839Y-124389626D01*
X93298966Y-124396727D01*
X93175616Y-124547969D01*
X93142534Y-124597762D01*
X93108716Y-124647151D01*
X93104333Y-124655257D01*
X93012708Y-124827579D01*
X92989909Y-124882894D01*
X92966348Y-124937866D01*
X92963623Y-124946669D01*
X92907214Y-125133505D01*
X92895594Y-125192193D01*
X92883158Y-125250696D01*
X92882195Y-125259861D01*
X92863150Y-125454095D01*
X92860000Y-125486082D01*
X92860000Y-125962721D01*
X92850420Y-126060424D01*
X92831420Y-126123357D01*
X92800554Y-126181406D01*
X92759011Y-126232343D01*
X92708356Y-126274248D01*
X92650529Y-126305515D01*
X92587728Y-126324956D01*
X92492165Y-126335000D01*
X75552279Y-126335000D01*
X75454576Y-126325420D01*
X75391643Y-126306420D01*
X75333594Y-126275554D01*
X75282657Y-126234011D01*
X75240752Y-126183356D01*
X75209485Y-126125529D01*
X75190044Y-126062728D01*
X75180000Y-125967165D01*
X75180000Y-111100000D01*
X75977089Y-111100000D01*
X75985000Y-111180322D01*
X75985001Y-123819668D01*
X75977089Y-123900000D01*
X75985001Y-123980332D01*
X75985001Y-123990322D01*
X76008658Y-124230516D01*
X76102149Y-124538715D01*
X76253970Y-124822752D01*
X76458287Y-125071714D01*
X76707249Y-125276031D01*
X76991286Y-125427852D01*
X77299485Y-125521343D01*
X77620000Y-125552911D01*
X77801854Y-125535000D01*
X90339678Y-125535000D01*
X90420000Y-125542911D01*
X90522162Y-125532849D01*
X90740516Y-125511343D01*
X91048715Y-125417852D01*
X91332752Y-125266031D01*
X91581714Y-125061714D01*
X91786031Y-124812752D01*
X91937852Y-124528715D01*
X92031343Y-124220516D01*
X92044385Y-124088098D01*
X92055000Y-123980322D01*
X92062911Y-123900000D01*
X92055000Y-123819678D01*
X92055000Y-111180322D01*
X92062911Y-111100000D01*
X92031343Y-110779484D01*
X91937852Y-110471285D01*
X91786031Y-110187248D01*
X91581714Y-109938286D01*
X91332752Y-109733969D01*
X91048715Y-109582148D01*
X90740516Y-109488657D01*
X90500322Y-109465000D01*
X90420000Y-109457089D01*
X90339678Y-109465000D01*
X77539678Y-109465000D01*
X77299484Y-109488657D01*
X76991285Y-109582148D01*
X76707248Y-109733969D01*
X76458286Y-109938286D01*
X76253969Y-110187248D01*
X76102148Y-110471285D01*
X76008657Y-110779484D01*
X75977089Y-111100000D01*
X75180000Y-111100000D01*
X75180000Y-108620000D01*
X95027089Y-108620000D01*
X95035000Y-108700322D01*
X95035001Y-121339668D01*
X95027089Y-121420000D01*
X95035001Y-121500332D01*
X95035001Y-121510322D01*
X95058658Y-121750516D01*
X95152149Y-122058715D01*
X95303970Y-122342752D01*
X95508287Y-122591714D01*
X95757249Y-122796031D01*
X96041286Y-122947852D01*
X96349485Y-123041343D01*
X96670000Y-123072911D01*
X96851854Y-123055000D01*
X109389678Y-123055000D01*
X109470000Y-123062911D01*
X109790516Y-123031343D01*
X110098715Y-122937852D01*
X110382752Y-122786031D01*
X110631714Y-122581714D01*
X110836031Y-122332752D01*
X110987852Y-122048715D01*
X111081343Y-121740516D01*
X111105000Y-121500322D01*
X111112911Y-121420000D01*
X111105000Y-121339678D01*
X111105000Y-108700322D01*
X111112911Y-108620000D01*
X111081343Y-108299484D01*
X110987852Y-107991285D01*
X110836031Y-107707248D01*
X110631714Y-107458286D01*
X110382752Y-107253969D01*
X110098715Y-107102148D01*
X109790516Y-107008657D01*
X109550322Y-106985000D01*
X109470000Y-106977089D01*
X109389678Y-106985000D01*
X96589678Y-106985000D01*
X96349484Y-107008657D01*
X96041285Y-107102148D01*
X95757248Y-107253969D01*
X95508286Y-107458286D01*
X95303969Y-107707248D01*
X95152148Y-107991285D01*
X95058657Y-108299484D01*
X95027089Y-108620000D01*
X75180000Y-108620000D01*
X75180000Y-100647581D01*
X75176802Y-100615110D01*
X75176802Y-100608617D01*
X75175838Y-100599452D01*
X75171094Y-100557161D01*
X75170450Y-100550617D01*
X75170308Y-100550149D01*
X75164959Y-100502459D01*
X75152530Y-100443983D01*
X75140904Y-100385264D01*
X75138178Y-100376461D01*
X75108666Y-100283427D01*
X75085119Y-100228488D01*
X75062303Y-100173133D01*
X75057919Y-100165027D01*
X75010898Y-100079498D01*
X74977111Y-100030154D01*
X74944005Y-99980324D01*
X74938131Y-99973224D01*
X74875394Y-99898456D01*
X74832683Y-99856630D01*
X74790503Y-99814154D01*
X74783361Y-99808330D01*
X74707296Y-99747173D01*
X74657244Y-99714420D01*
X74607649Y-99680967D01*
X74599517Y-99676644D01*
X74599513Y-99676641D01*
X74599509Y-99676639D01*
X74513016Y-99631422D01*
X74457584Y-99609026D01*
X74402408Y-99585832D01*
X74393586Y-99583169D01*
X74299955Y-99555612D01*
X74241256Y-99544415D01*
X74182600Y-99532374D01*
X74173429Y-99531475D01*
X74076228Y-99522629D01*
X74016411Y-99523047D01*
X73956594Y-99522629D01*
X73947423Y-99523528D01*
X73850355Y-99533730D01*
X73791746Y-99545761D01*
X73732994Y-99556968D01*
X73724173Y-99559632D01*
X73630936Y-99588494D01*
X73575780Y-99611680D01*
X73520331Y-99634082D01*
X73512194Y-99638408D01*
X73426338Y-99684830D01*
X73376731Y-99718290D01*
X73326691Y-99751035D01*
X73319550Y-99756860D01*
X73244346Y-99819074D01*
X73202221Y-99861494D01*
X73159455Y-99903374D01*
X73153581Y-99910474D01*
X73091894Y-99986111D01*
X73058810Y-100035906D01*
X73024996Y-100085289D01*
X73020614Y-100093396D01*
X73009540Y-100114222D01*
X73012911Y-100080000D01*
X73005000Y-99999678D01*
X73005000Y-98376843D01*
X73029002Y-98420502D01*
X73062809Y-98469874D01*
X73095896Y-98519675D01*
X73101770Y-98526776D01*
X73164507Y-98601544D01*
X73207237Y-98643389D01*
X73249398Y-98685845D01*
X73256540Y-98691669D01*
X73332605Y-98752827D01*
X73382657Y-98785580D01*
X73432252Y-98819033D01*
X73440384Y-98823356D01*
X73440388Y-98823359D01*
X73440392Y-98823361D01*
X73526885Y-98868578D01*
X73582317Y-98890974D01*
X73637493Y-98914168D01*
X73646315Y-98916831D01*
X73739946Y-98944388D01*
X73798659Y-98955588D01*
X73857302Y-98967626D01*
X73866473Y-98968525D01*
X73963673Y-98977371D01*
X74023490Y-98976953D01*
X74083307Y-98977371D01*
X74092478Y-98976472D01*
X74189546Y-98966270D01*
X74248155Y-98954239D01*
X74306907Y-98943032D01*
X74315728Y-98940368D01*
X74408965Y-98911506D01*
X74464108Y-98888326D01*
X74519571Y-98865918D01*
X74527707Y-98861592D01*
X74613564Y-98815169D01*
X74663154Y-98781721D01*
X74713210Y-98748965D01*
X74720346Y-98743144D01*
X74720352Y-98743140D01*
X74720357Y-98743135D01*
X74795555Y-98680927D01*
X74837732Y-98638454D01*
X74880446Y-98596626D01*
X74886318Y-98589528D01*
X74886319Y-98589527D01*
X74886322Y-98589523D01*
X74948007Y-98513889D01*
X74981087Y-98464099D01*
X75014905Y-98414710D01*
X75019287Y-98406604D01*
X75065110Y-98320426D01*
X75087902Y-98265129D01*
X75111472Y-98210135D01*
X75114196Y-98201332D01*
X75142407Y-98107895D01*
X75154028Y-98049202D01*
X75166462Y-97990704D01*
X75167425Y-97981539D01*
X75176949Y-97884403D01*
X75176949Y-97884396D01*
X75180099Y-97852406D01*
X75179999Y-92567569D01*
X75176802Y-92535115D01*
X75176802Y-92528617D01*
X75175838Y-92519452D01*
X75171081Y-92477037D01*
X75170447Y-92470605D01*
X75170308Y-92470146D01*
X75164959Y-92422459D01*
X75152530Y-92363983D01*
X75140904Y-92305264D01*
X75138178Y-92296461D01*
X75108666Y-92203427D01*
X75085119Y-92148488D01*
X75062303Y-92093133D01*
X75057919Y-92085027D01*
X75038663Y-92050000D01*
X75977089Y-92050000D01*
X75985000Y-92130322D01*
X75985001Y-104769668D01*
X75977089Y-104850000D01*
X75985001Y-104930332D01*
X75985001Y-104940322D01*
X76008658Y-105180516D01*
X76102149Y-105488715D01*
X76253970Y-105772752D01*
X76458287Y-106021714D01*
X76707249Y-106226031D01*
X76991286Y-106377852D01*
X77299485Y-106471343D01*
X77620000Y-106502911D01*
X77801854Y-106485000D01*
X90339678Y-106485000D01*
X90420000Y-106492911D01*
X90740516Y-106461343D01*
X91048715Y-106367852D01*
X91332752Y-106216031D01*
X91581714Y-106011714D01*
X91786031Y-105762752D01*
X91937852Y-105478715D01*
X92031343Y-105170516D01*
X92055000Y-104930322D01*
X92062911Y-104850000D01*
X92055000Y-104769678D01*
X92055000Y-92130322D01*
X92062911Y-92050000D01*
X92031343Y-91729484D01*
X91937852Y-91421285D01*
X91786031Y-91137248D01*
X91581714Y-90888286D01*
X91332752Y-90683969D01*
X91048715Y-90532148D01*
X90740516Y-90438657D01*
X90500322Y-90415000D01*
X90420000Y-90407089D01*
X90339678Y-90415000D01*
X77539678Y-90415000D01*
X77299484Y-90438657D01*
X76991285Y-90532148D01*
X76707248Y-90683969D01*
X76458286Y-90888286D01*
X76253969Y-91137248D01*
X76102148Y-91421285D01*
X76008657Y-91729484D01*
X75977089Y-92050000D01*
X75038663Y-92050000D01*
X75010898Y-91999498D01*
X74977111Y-91950154D01*
X74944005Y-91900324D01*
X74938131Y-91893224D01*
X74875394Y-91818456D01*
X74832683Y-91776630D01*
X74790503Y-91734154D01*
X74783361Y-91728330D01*
X74707296Y-91667173D01*
X74657244Y-91634420D01*
X74607649Y-91600967D01*
X74599517Y-91596644D01*
X74599513Y-91596641D01*
X74599509Y-91596639D01*
X74513016Y-91551422D01*
X74457584Y-91529026D01*
X74402408Y-91505832D01*
X74393586Y-91503169D01*
X74299955Y-91475612D01*
X74241256Y-91464415D01*
X74182600Y-91452374D01*
X74173429Y-91451475D01*
X74076228Y-91442629D01*
X74016411Y-91443047D01*
X73956594Y-91442629D01*
X73947423Y-91443528D01*
X73850355Y-91453730D01*
X73791746Y-91465761D01*
X73732994Y-91476968D01*
X73724173Y-91479632D01*
X73630936Y-91508494D01*
X73575780Y-91531680D01*
X73520331Y-91554082D01*
X73512194Y-91558408D01*
X73426338Y-91604830D01*
X73376731Y-91638290D01*
X73326691Y-91671035D01*
X73319550Y-91676860D01*
X73244346Y-91739074D01*
X73202221Y-91781494D01*
X73159455Y-91823374D01*
X73153581Y-91830474D01*
X73091894Y-91906111D01*
X73058810Y-91955906D01*
X73024996Y-92005289D01*
X73020614Y-92013396D01*
X73005000Y-92042761D01*
X73005000Y-89570000D01*
X95027089Y-89570000D01*
X95035000Y-89650322D01*
X95035001Y-102289668D01*
X95027089Y-102370000D01*
X95035001Y-102450332D01*
X95035001Y-102460322D01*
X95058658Y-102700516D01*
X95152149Y-103008715D01*
X95303970Y-103292752D01*
X95508287Y-103541714D01*
X95757249Y-103746031D01*
X96041286Y-103897852D01*
X96349485Y-103991343D01*
X96670000Y-104022911D01*
X96851854Y-104005000D01*
X109389678Y-104005000D01*
X109470000Y-104012911D01*
X109790516Y-103981343D01*
X110098715Y-103887852D01*
X110382752Y-103736031D01*
X110631714Y-103531714D01*
X110836031Y-103282752D01*
X110987852Y-102998715D01*
X111081343Y-102690516D01*
X111105000Y-102450322D01*
X111112911Y-102370000D01*
X111105000Y-102289678D01*
X111105000Y-101570000D01*
X114077089Y-101570000D01*
X114085000Y-101650322D01*
X114085001Y-114289668D01*
X114077089Y-114370000D01*
X114085001Y-114450332D01*
X114085001Y-114460322D01*
X114108658Y-114700516D01*
X114202149Y-115008715D01*
X114353970Y-115292752D01*
X114558287Y-115541714D01*
X114807249Y-115746031D01*
X115091286Y-115897852D01*
X115399485Y-115991343D01*
X115720000Y-116022911D01*
X115901854Y-116005000D01*
X128439678Y-116005000D01*
X128520000Y-116012911D01*
X128840516Y-115981343D01*
X129148715Y-115887852D01*
X129432752Y-115736031D01*
X129681714Y-115531714D01*
X129886031Y-115282752D01*
X130037852Y-114998715D01*
X130131343Y-114690516D01*
X130155000Y-114450322D01*
X130162911Y-114370000D01*
X130155000Y-114289678D01*
X130155000Y-101650322D01*
X130162911Y-101570000D01*
X130131343Y-101249484D01*
X130037852Y-100941285D01*
X129886031Y-100657248D01*
X129681714Y-100408286D01*
X129432752Y-100203969D01*
X129148715Y-100052148D01*
X128840516Y-99958657D01*
X128600322Y-99935000D01*
X128520000Y-99927089D01*
X128439678Y-99935000D01*
X115639678Y-99935000D01*
X115399484Y-99958657D01*
X115091285Y-100052148D01*
X114807248Y-100203969D01*
X114558286Y-100408286D01*
X114353969Y-100657248D01*
X114202148Y-100941285D01*
X114108657Y-101249484D01*
X114077089Y-101570000D01*
X111105000Y-101570000D01*
X111105000Y-89650322D01*
X111112911Y-89570000D01*
X111081343Y-89249484D01*
X110987852Y-88941285D01*
X110836031Y-88657248D01*
X110631714Y-88408286D01*
X110382752Y-88203969D01*
X110098715Y-88052148D01*
X109790516Y-87958657D01*
X109550322Y-87935000D01*
X109470000Y-87927089D01*
X109389678Y-87935000D01*
X96589678Y-87935000D01*
X96349484Y-87958657D01*
X96041285Y-88052148D01*
X95757248Y-88203969D01*
X95508286Y-88408286D01*
X95303969Y-88657248D01*
X95152148Y-88941285D01*
X95058657Y-89249484D01*
X95027089Y-89570000D01*
X73005000Y-89570000D01*
X73005000Y-87360322D01*
X73008591Y-87323859D01*
X73012710Y-87329874D01*
X73045797Y-87379675D01*
X73051671Y-87386776D01*
X73114408Y-87461544D01*
X73157138Y-87503389D01*
X73199299Y-87545845D01*
X73206441Y-87551669D01*
X73282506Y-87612827D01*
X73332558Y-87645580D01*
X73382153Y-87679033D01*
X73390285Y-87683356D01*
X73390289Y-87683359D01*
X73390293Y-87683361D01*
X73476786Y-87728578D01*
X73532218Y-87750974D01*
X73587394Y-87774168D01*
X73596216Y-87776831D01*
X73689847Y-87804388D01*
X73748560Y-87815588D01*
X73807203Y-87827626D01*
X73816374Y-87828525D01*
X73913574Y-87837371D01*
X73973391Y-87836953D01*
X74033208Y-87837371D01*
X74042379Y-87836472D01*
X74139447Y-87826270D01*
X74198056Y-87814239D01*
X74256808Y-87803032D01*
X74265629Y-87800368D01*
X74358866Y-87771506D01*
X74414009Y-87748326D01*
X74469472Y-87725918D01*
X74477608Y-87721592D01*
X74563465Y-87675169D01*
X74613055Y-87641721D01*
X74663111Y-87608965D01*
X74670247Y-87603144D01*
X74670253Y-87603140D01*
X74670258Y-87603135D01*
X74745456Y-87540927D01*
X74787633Y-87498454D01*
X74830347Y-87456626D01*
X74836219Y-87449528D01*
X74836220Y-87449527D01*
X74836223Y-87449523D01*
X74897908Y-87373889D01*
X74930988Y-87324099D01*
X74964806Y-87274710D01*
X74969188Y-87266604D01*
X75015011Y-87180426D01*
X75037803Y-87125129D01*
X75061373Y-87070135D01*
X75064097Y-87061332D01*
X75092308Y-86967895D01*
X75103929Y-86909202D01*
X75116363Y-86850704D01*
X75117326Y-86841539D01*
X75126850Y-86744403D01*
X75126850Y-86744402D01*
X75130000Y-86712419D01*
X75130000Y-73000000D01*
X75977089Y-73000000D01*
X75985000Y-73080322D01*
X75985001Y-85719668D01*
X75977089Y-85800000D01*
X75985001Y-85880332D01*
X75985001Y-85890322D01*
X76008658Y-86130516D01*
X76102149Y-86438715D01*
X76253970Y-86722752D01*
X76458287Y-86971714D01*
X76707249Y-87176031D01*
X76991286Y-87327852D01*
X77299485Y-87421343D01*
X77620000Y-87452911D01*
X77801854Y-87435000D01*
X90339678Y-87435000D01*
X90420000Y-87442911D01*
X90515339Y-87433521D01*
X90740516Y-87411343D01*
X91048715Y-87317852D01*
X91332752Y-87166031D01*
X91581714Y-86961714D01*
X91786031Y-86712752D01*
X91937852Y-86428715D01*
X92031343Y-86120516D01*
X92062911Y-85800000D01*
X92055000Y-85719678D01*
X92055000Y-73080322D01*
X92062911Y-73000000D01*
X92031343Y-72679484D01*
X91937852Y-72371285D01*
X91786031Y-72087248D01*
X91581714Y-71838286D01*
X91332752Y-71633969D01*
X91048715Y-71482148D01*
X90740516Y-71388657D01*
X90500322Y-71365000D01*
X90420000Y-71357089D01*
X90339678Y-71365000D01*
X77539678Y-71365000D01*
X77299484Y-71388657D01*
X76991285Y-71482148D01*
X76707248Y-71633969D01*
X76458286Y-71838286D01*
X76253969Y-72087248D01*
X76102148Y-72371285D01*
X76008657Y-72679484D01*
X75977089Y-73000000D01*
X75130000Y-73000000D01*
X75130000Y-71402279D01*
X75139580Y-71304576D01*
X75158580Y-71241644D01*
X75189445Y-71183595D01*
X75230989Y-71132657D01*
X75281644Y-71090752D01*
X75339471Y-71059485D01*
X75402272Y-71040044D01*
X75497837Y-71030000D01*
X82622310Y-71030099D01*
X82650223Y-71027350D01*
X82653208Y-71027371D01*
X82662379Y-71026472D01*
X82710552Y-71021409D01*
X82719274Y-71020550D01*
X82719565Y-71020462D01*
X82759447Y-71016270D01*
X82818056Y-71004239D01*
X82876808Y-70993032D01*
X82885629Y-70990368D01*
X82978866Y-70961506D01*
X83034009Y-70938326D01*
X83089472Y-70915918D01*
X83097608Y-70911592D01*
X83183465Y-70865169D01*
X83233055Y-70831721D01*
X83283111Y-70798965D01*
X83290247Y-70793144D01*
X83290253Y-70793140D01*
X83290258Y-70793135D01*
X83365456Y-70730927D01*
X83407633Y-70688454D01*
X83450347Y-70646626D01*
X83456219Y-70639528D01*
X83456220Y-70639527D01*
X83456223Y-70639523D01*
X83517908Y-70563889D01*
X83550988Y-70514099D01*
X83584806Y-70464710D01*
X83589188Y-70456604D01*
X83635011Y-70370426D01*
X83657803Y-70315129D01*
X83681373Y-70260135D01*
X83684097Y-70251332D01*
X83712308Y-70157895D01*
X83723929Y-70099202D01*
X83736363Y-70040704D01*
X83737326Y-70031539D01*
X83746850Y-69934403D01*
X83746850Y-69905595D01*
X83749964Y-69876946D01*
X83749980Y-69872269D01*
X84290004Y-69872269D01*
X84290016Y-69875760D01*
X84292930Y-69904459D01*
X84292728Y-69933307D01*
X84293627Y-69942478D01*
X84303829Y-70039546D01*
X84315860Y-70098155D01*
X84327067Y-70156907D01*
X84329731Y-70165728D01*
X84358593Y-70258965D01*
X84381773Y-70314108D01*
X84404181Y-70369571D01*
X84408507Y-70377707D01*
X84454930Y-70463564D01*
X84488378Y-70513154D01*
X84521134Y-70563210D01*
X84526955Y-70570346D01*
X84526959Y-70570352D01*
X84526964Y-70570357D01*
X84589172Y-70645555D01*
X84631645Y-70687732D01*
X84673473Y-70730446D01*
X84680568Y-70736315D01*
X84680572Y-70736319D01*
X84680574Y-70736320D01*
X84756210Y-70798007D01*
X84806000Y-70831087D01*
X84855389Y-70864905D01*
X84863495Y-70869287D01*
X84949673Y-70915110D01*
X85004970Y-70937902D01*
X85059964Y-70961472D01*
X85068767Y-70964196D01*
X85162204Y-70992407D01*
X85220897Y-71004028D01*
X85279395Y-71016462D01*
X85288560Y-71017425D01*
X85385696Y-71026949D01*
X85385697Y-71026949D01*
X85417680Y-71030099D01*
X93072419Y-71030099D01*
X93101612Y-71027224D01*
X93106801Y-71027260D01*
X93115972Y-71026360D01*
X93310069Y-71005959D01*
X93368658Y-70993932D01*
X93427423Y-70982723D01*
X93436245Y-70980059D01*
X93622683Y-70922347D01*
X93677838Y-70899162D01*
X93733291Y-70876758D01*
X93741427Y-70872432D01*
X93913104Y-70779607D01*
X93962699Y-70746154D01*
X94012753Y-70713400D01*
X94019894Y-70707576D01*
X94170272Y-70583172D01*
X94212411Y-70540737D01*
X94233587Y-70520000D01*
X95027089Y-70520000D01*
X95035000Y-70600322D01*
X95035001Y-83239668D01*
X95027089Y-83320000D01*
X95035001Y-83400332D01*
X95035001Y-83410322D01*
X95058658Y-83650516D01*
X95152149Y-83958715D01*
X95303970Y-84242752D01*
X95508287Y-84491714D01*
X95757249Y-84696031D01*
X96041286Y-84847852D01*
X96349485Y-84941343D01*
X96670000Y-84972911D01*
X96851854Y-84955000D01*
X109389678Y-84955000D01*
X109470000Y-84962911D01*
X109790516Y-84931343D01*
X110098715Y-84837852D01*
X110382752Y-84686031D01*
X110631714Y-84481714D01*
X110836031Y-84232752D01*
X110987852Y-83948715D01*
X111081343Y-83640516D01*
X111105000Y-83400322D01*
X111112911Y-83320000D01*
X111105000Y-83239678D01*
X111105000Y-82520000D01*
X114077089Y-82520000D01*
X114085000Y-82600322D01*
X114085001Y-95239668D01*
X114077089Y-95320000D01*
X114085001Y-95400332D01*
X114085001Y-95410322D01*
X114108658Y-95650516D01*
X114202149Y-95958715D01*
X114353970Y-96242752D01*
X114558287Y-96491714D01*
X114807249Y-96696031D01*
X115091286Y-96847852D01*
X115399485Y-96941343D01*
X115720000Y-96972911D01*
X115901854Y-96955000D01*
X128439678Y-96955000D01*
X128520000Y-96962911D01*
X128840516Y-96931343D01*
X129148715Y-96837852D01*
X129200822Y-96810000D01*
X133127089Y-96810000D01*
X133135000Y-96890322D01*
X133135001Y-109529668D01*
X133127089Y-109610000D01*
X133135001Y-109690332D01*
X133135001Y-109700322D01*
X133158658Y-109940516D01*
X133252149Y-110248715D01*
X133403970Y-110532752D01*
X133608287Y-110781714D01*
X133857249Y-110986031D01*
X134141286Y-111137852D01*
X134449485Y-111231343D01*
X134770000Y-111262911D01*
X134951854Y-111245000D01*
X147489678Y-111245000D01*
X147570000Y-111252911D01*
X147890516Y-111221343D01*
X148198715Y-111127852D01*
X148482752Y-110976031D01*
X148731714Y-110771714D01*
X148936031Y-110522752D01*
X149087852Y-110238715D01*
X149181343Y-109930516D01*
X149205000Y-109690322D01*
X149212911Y-109610000D01*
X149205000Y-109529678D01*
X149205000Y-101580000D01*
X152177089Y-101580000D01*
X152185000Y-101660322D01*
X152185001Y-114299668D01*
X152177089Y-114380000D01*
X152185001Y-114460332D01*
X152185001Y-114470322D01*
X152208658Y-114710516D01*
X152302149Y-115018715D01*
X152453970Y-115302752D01*
X152658287Y-115551714D01*
X152907249Y-115756031D01*
X153191286Y-115907852D01*
X153499485Y-116001343D01*
X153820000Y-116032911D01*
X154001854Y-116015000D01*
X166539678Y-116015000D01*
X166620000Y-116022911D01*
X166940516Y-115991343D01*
X167248715Y-115897852D01*
X167532752Y-115746031D01*
X167781714Y-115541714D01*
X167986031Y-115292752D01*
X168137852Y-115008715D01*
X168231343Y-114700516D01*
X168255000Y-114460322D01*
X168262911Y-114380000D01*
X168255000Y-114299678D01*
X168255000Y-103860000D01*
X171227089Y-103860000D01*
X171235000Y-103940322D01*
X171235001Y-116579668D01*
X171227089Y-116660000D01*
X171235001Y-116740332D01*
X171235001Y-116750322D01*
X171258658Y-116990516D01*
X171352149Y-117298715D01*
X171503970Y-117582752D01*
X171708287Y-117831714D01*
X171957249Y-118036031D01*
X172241286Y-118187852D01*
X172549485Y-118281343D01*
X172870000Y-118312911D01*
X173051854Y-118295000D01*
X185589678Y-118295000D01*
X185670000Y-118302911D01*
X185905382Y-118279728D01*
X185990516Y-118271343D01*
X186298715Y-118177852D01*
X186582752Y-118026031D01*
X186831714Y-117821714D01*
X187036031Y-117572752D01*
X187187852Y-117288715D01*
X187281343Y-116980516D01*
X187295335Y-116838450D01*
X187305000Y-116740322D01*
X187312911Y-116660000D01*
X187305000Y-116579678D01*
X187305000Y-103940322D01*
X187312911Y-103860000D01*
X187300248Y-103731425D01*
X187281343Y-103539484D01*
X187187852Y-103231285D01*
X187036031Y-102947248D01*
X186831714Y-102698286D01*
X186802046Y-102673938D01*
X186582752Y-102493969D01*
X186298715Y-102342148D01*
X185990516Y-102248657D01*
X185750322Y-102225000D01*
X185670000Y-102217089D01*
X185589678Y-102225000D01*
X172789678Y-102225000D01*
X172549484Y-102248657D01*
X172241285Y-102342148D01*
X171957248Y-102493969D01*
X171708286Y-102698286D01*
X171503969Y-102947248D01*
X171352148Y-103231285D01*
X171258657Y-103539484D01*
X171227089Y-103860000D01*
X168255000Y-103860000D01*
X168255000Y-101660322D01*
X168262911Y-101580000D01*
X168231343Y-101259484D01*
X168137852Y-100951285D01*
X167986031Y-100667248D01*
X167781714Y-100418286D01*
X167532752Y-100213969D01*
X167248715Y-100062148D01*
X166940516Y-99968657D01*
X166700322Y-99945000D01*
X166620000Y-99937089D01*
X166539678Y-99945000D01*
X153739678Y-99945000D01*
X153499484Y-99968657D01*
X153191285Y-100062148D01*
X152907248Y-100213969D01*
X152658286Y-100418286D01*
X152453969Y-100667248D01*
X152302148Y-100951285D01*
X152208657Y-101259484D01*
X152177089Y-101580000D01*
X149205000Y-101580000D01*
X149205000Y-96890322D01*
X149212911Y-96810000D01*
X149181343Y-96489484D01*
X149087852Y-96181285D01*
X148936031Y-95897248D01*
X148731714Y-95648286D01*
X148482752Y-95443969D01*
X148198715Y-95292148D01*
X147890516Y-95198657D01*
X147650322Y-95175000D01*
X147570000Y-95167089D01*
X147489678Y-95175000D01*
X134689678Y-95175000D01*
X134449484Y-95198657D01*
X134141285Y-95292148D01*
X133857248Y-95443969D01*
X133608286Y-95648286D01*
X133403969Y-95897248D01*
X133252148Y-96181285D01*
X133158657Y-96489484D01*
X133127089Y-96810000D01*
X129200822Y-96810000D01*
X129432752Y-96686031D01*
X129681714Y-96481714D01*
X129886031Y-96232752D01*
X130037852Y-95948715D01*
X130131343Y-95640516D01*
X130155000Y-95400322D01*
X130162911Y-95320000D01*
X130155000Y-95239678D01*
X130155000Y-82600322D01*
X130162911Y-82520000D01*
X130131343Y-82199484D01*
X130037852Y-81891285D01*
X129886031Y-81607248D01*
X129681714Y-81358286D01*
X129432752Y-81153969D01*
X129148715Y-81002148D01*
X128840516Y-80908657D01*
X128600322Y-80885000D01*
X128520000Y-80877089D01*
X128439678Y-80885000D01*
X115639678Y-80885000D01*
X115399484Y-80908657D01*
X115091285Y-81002148D01*
X114807248Y-81153969D01*
X114558286Y-81358286D01*
X114353969Y-81607248D01*
X114202148Y-81891285D01*
X114108657Y-82199484D01*
X114077089Y-82520000D01*
X111105000Y-82520000D01*
X111105000Y-70600322D01*
X111112911Y-70520000D01*
X111098923Y-70377972D01*
X111081343Y-70199484D01*
X110987852Y-69891285D01*
X110836031Y-69607248D01*
X110631714Y-69358286D01*
X110607602Y-69338498D01*
X110382752Y-69153969D01*
X110098715Y-69002148D01*
X109790516Y-68908657D01*
X109550322Y-68885000D01*
X109470000Y-68877089D01*
X109389678Y-68885000D01*
X96589678Y-68885000D01*
X96349484Y-68908657D01*
X96041285Y-69002148D01*
X95757248Y-69153969D01*
X95508286Y-69358286D01*
X95303969Y-69607248D01*
X95152148Y-69891285D01*
X95058657Y-70199484D01*
X95027089Y-70520000D01*
X94233587Y-70520000D01*
X94255161Y-70498874D01*
X94261034Y-70491773D01*
X94384384Y-70340531D01*
X94417477Y-70290723D01*
X94451284Y-70241349D01*
X94455667Y-70233243D01*
X94547292Y-70060920D01*
X94570090Y-70005608D01*
X94593652Y-69950634D01*
X94596377Y-69941831D01*
X94652786Y-69754994D01*
X94664405Y-69696314D01*
X94676842Y-69637804D01*
X94677805Y-69628639D01*
X94696850Y-69434406D01*
X94696850Y-69434402D01*
X94700000Y-69402419D01*
X94700000Y-68922279D01*
X94709580Y-68824576D01*
X94728580Y-68761644D01*
X94759445Y-68703595D01*
X94800989Y-68652657D01*
X94851644Y-68610752D01*
X94909471Y-68579485D01*
X94972272Y-68560044D01*
X95067835Y-68550000D01*
X112132419Y-68550000D01*
X112160674Y-68547217D01*
X112166801Y-68547260D01*
X112175972Y-68546360D01*
X112370069Y-68525959D01*
X112428658Y-68513932D01*
X112487423Y-68502723D01*
X112496245Y-68500059D01*
X112682683Y-68442347D01*
X112737838Y-68419162D01*
X112793291Y-68396758D01*
X112801427Y-68392432D01*
X112973104Y-68299607D01*
X113022699Y-68266154D01*
X113072753Y-68233400D01*
X113079894Y-68227576D01*
X113230272Y-68103172D01*
X113272411Y-68060737D01*
X113315161Y-68018874D01*
X113321034Y-68011773D01*
X113444384Y-67860531D01*
X113477477Y-67810723D01*
X113511284Y-67761349D01*
X113515667Y-67753243D01*
X113607292Y-67580920D01*
X113630090Y-67525608D01*
X113653652Y-67470634D01*
X113656377Y-67461831D01*
X113712786Y-67274994D01*
X113724405Y-67216314D01*
X113736842Y-67157804D01*
X113737805Y-67148639D01*
X113756850Y-66954406D01*
X113756850Y-66954402D01*
X113760000Y-66922419D01*
X113760000Y-63470000D01*
X114077089Y-63470000D01*
X114085000Y-63550322D01*
X114085001Y-76189668D01*
X114077089Y-76270000D01*
X114085001Y-76350332D01*
X114085001Y-76360322D01*
X114108658Y-76600516D01*
X114202149Y-76908715D01*
X114353970Y-77192752D01*
X114558287Y-77441714D01*
X114807249Y-77646031D01*
X115091286Y-77797852D01*
X115399485Y-77891343D01*
X115720000Y-77922911D01*
X115901854Y-77905000D01*
X128439678Y-77905000D01*
X128520000Y-77912911D01*
X128840516Y-77881343D01*
X129148715Y-77787852D01*
X129200822Y-77760000D01*
X133127089Y-77760000D01*
X133135000Y-77840322D01*
X133135001Y-90479668D01*
X133127089Y-90560000D01*
X133135001Y-90640332D01*
X133135001Y-90650322D01*
X133158658Y-90890516D01*
X133252149Y-91198715D01*
X133403970Y-91482752D01*
X133608287Y-91731714D01*
X133857249Y-91936031D01*
X134141286Y-92087852D01*
X134449485Y-92181343D01*
X134770000Y-92212911D01*
X134951854Y-92195000D01*
X147489678Y-92195000D01*
X147570000Y-92202911D01*
X147890516Y-92171343D01*
X148198715Y-92077852D01*
X148482752Y-91926031D01*
X148731714Y-91721714D01*
X148936031Y-91472752D01*
X149087852Y-91188715D01*
X149181343Y-90880516D01*
X149205000Y-90640322D01*
X149212911Y-90560000D01*
X149205000Y-90479678D01*
X149205000Y-82530000D01*
X152177089Y-82530000D01*
X152185000Y-82610322D01*
X152185001Y-95249668D01*
X152177089Y-95330000D01*
X152185001Y-95410332D01*
X152185001Y-95420322D01*
X152208658Y-95660516D01*
X152302149Y-95968715D01*
X152453970Y-96252752D01*
X152658287Y-96501714D01*
X152907249Y-96706031D01*
X153191286Y-96857852D01*
X153499485Y-96951343D01*
X153820000Y-96982911D01*
X154001854Y-96965000D01*
X166539678Y-96965000D01*
X166620000Y-96972911D01*
X166940516Y-96941343D01*
X167248715Y-96847852D01*
X167532752Y-96696031D01*
X167781714Y-96491714D01*
X167986031Y-96242752D01*
X168137852Y-95958715D01*
X168231343Y-95650516D01*
X168255000Y-95410322D01*
X168262911Y-95330000D01*
X168255000Y-95249678D01*
X168255000Y-84810000D01*
X171227089Y-84810000D01*
X171235000Y-84890322D01*
X171235001Y-97529668D01*
X171227089Y-97610000D01*
X171235001Y-97690332D01*
X171235001Y-97700322D01*
X171258658Y-97940516D01*
X171352149Y-98248715D01*
X171503970Y-98532752D01*
X171708287Y-98781714D01*
X171957249Y-98986031D01*
X172241286Y-99137852D01*
X172549485Y-99231343D01*
X172870000Y-99262911D01*
X173051854Y-99245000D01*
X185589678Y-99245000D01*
X185670000Y-99252911D01*
X185990516Y-99221343D01*
X186298715Y-99127852D01*
X186582752Y-98976031D01*
X186831714Y-98771714D01*
X187036031Y-98522752D01*
X187187852Y-98238715D01*
X187281343Y-97930516D01*
X187305000Y-97690322D01*
X187312911Y-97610000D01*
X187305000Y-97529678D01*
X187305000Y-84890322D01*
X187312911Y-84810000D01*
X187281343Y-84489484D01*
X187187852Y-84181285D01*
X187036031Y-83897248D01*
X186831714Y-83648286D01*
X186582752Y-83443969D01*
X186298715Y-83292148D01*
X185990516Y-83198657D01*
X185750322Y-83175000D01*
X185670000Y-83167089D01*
X185589678Y-83175000D01*
X172789678Y-83175000D01*
X172549484Y-83198657D01*
X172241285Y-83292148D01*
X171957248Y-83443969D01*
X171708286Y-83648286D01*
X171503969Y-83897248D01*
X171352148Y-84181285D01*
X171258657Y-84489484D01*
X171227089Y-84810000D01*
X168255000Y-84810000D01*
X168255000Y-82610322D01*
X168262911Y-82530000D01*
X168231343Y-82209484D01*
X168137852Y-81901285D01*
X167986031Y-81617248D01*
X167781714Y-81368286D01*
X167532752Y-81163969D01*
X167248715Y-81012148D01*
X166940516Y-80918657D01*
X166700322Y-80895000D01*
X166620000Y-80887089D01*
X166539678Y-80895000D01*
X153739678Y-80895000D01*
X153499484Y-80918657D01*
X153191285Y-81012148D01*
X152907248Y-81163969D01*
X152658286Y-81368286D01*
X152453969Y-81617248D01*
X152302148Y-81901285D01*
X152208657Y-82209484D01*
X152177089Y-82530000D01*
X149205000Y-82530000D01*
X149205000Y-77840322D01*
X149212911Y-77760000D01*
X149181343Y-77439484D01*
X149087852Y-77131285D01*
X148936031Y-76847248D01*
X148731714Y-76598286D01*
X148482752Y-76393969D01*
X148198715Y-76242148D01*
X147890516Y-76148657D01*
X147650322Y-76125000D01*
X147570000Y-76117089D01*
X147489678Y-76125000D01*
X134689678Y-76125000D01*
X134449484Y-76148657D01*
X134141285Y-76242148D01*
X133857248Y-76393969D01*
X133608286Y-76598286D01*
X133403969Y-76847248D01*
X133252148Y-77131285D01*
X133158657Y-77439484D01*
X133127089Y-77760000D01*
X129200822Y-77760000D01*
X129432752Y-77636031D01*
X129681714Y-77431714D01*
X129886031Y-77182752D01*
X130037852Y-76898715D01*
X130131343Y-76590516D01*
X130155000Y-76350322D01*
X130162911Y-76270000D01*
X130155000Y-76189678D01*
X130155000Y-63550322D01*
X130162911Y-63470000D01*
X130131343Y-63149484D01*
X130037852Y-62841285D01*
X129886031Y-62557248D01*
X129681714Y-62308286D01*
X129432752Y-62103969D01*
X129148715Y-61952148D01*
X128840516Y-61858657D01*
X128600322Y-61835000D01*
X128520000Y-61827089D01*
X128439678Y-61835000D01*
X115639678Y-61835000D01*
X115399484Y-61858657D01*
X115091285Y-61952148D01*
X114807248Y-62103969D01*
X114558286Y-62308286D01*
X114353969Y-62557248D01*
X114202148Y-62841285D01*
X114108657Y-63149484D01*
X114077089Y-63470000D01*
X113760000Y-63470000D01*
X113760000Y-61872279D01*
X113769580Y-61774576D01*
X113788580Y-61711644D01*
X113819445Y-61653595D01*
X113860989Y-61602657D01*
X113911644Y-61560752D01*
X113969471Y-61529485D01*
X114032272Y-61510044D01*
X114127835Y-61500000D01*
X120722419Y-61500000D01*
X120750329Y-61497251D01*
X120753307Y-61497272D01*
X120762478Y-61496373D01*
X120810640Y-61491311D01*
X120819383Y-61490450D01*
X120819675Y-61490362D01*
X120859546Y-61486171D01*
X120918155Y-61474140D01*
X120976907Y-61462933D01*
X120985728Y-61460269D01*
X121078965Y-61431407D01*
X121134108Y-61408227D01*
X121189571Y-61385819D01*
X121197707Y-61381493D01*
X121283564Y-61335070D01*
X121333154Y-61301622D01*
X121383210Y-61268866D01*
X121390346Y-61263045D01*
X121390352Y-61263041D01*
X121390357Y-61263036D01*
X121465555Y-61200828D01*
X121507732Y-61158355D01*
X121550446Y-61116527D01*
X121556318Y-61109429D01*
X121556319Y-61109428D01*
X121556322Y-61109424D01*
X121618007Y-61033790D01*
X121651087Y-60984000D01*
X121684905Y-60934611D01*
X121689287Y-60926505D01*
X121735110Y-60840327D01*
X121757902Y-60785030D01*
X121781472Y-60730036D01*
X121784196Y-60721233D01*
X121812407Y-60627796D01*
X121824028Y-60569103D01*
X121836462Y-60510605D01*
X121837425Y-60501440D01*
X121846949Y-60404304D01*
X121846949Y-60374684D01*
X121849964Y-60346946D01*
X121849980Y-60342269D01*
X122390004Y-60342269D01*
X122390016Y-60345760D01*
X122392930Y-60374459D01*
X122392728Y-60403307D01*
X122393627Y-60412478D01*
X122403829Y-60509546D01*
X122415860Y-60568155D01*
X122427067Y-60626907D01*
X122429731Y-60635728D01*
X122458593Y-60728965D01*
X122481773Y-60784108D01*
X122504181Y-60839571D01*
X122508507Y-60847707D01*
X122554930Y-60933564D01*
X122588378Y-60983154D01*
X122621134Y-61033210D01*
X122626955Y-61040346D01*
X122626959Y-61040352D01*
X122626964Y-61040357D01*
X122689172Y-61115555D01*
X122731645Y-61157732D01*
X122773473Y-61200446D01*
X122780568Y-61206315D01*
X122780572Y-61206319D01*
X122780574Y-61206320D01*
X122856210Y-61268007D01*
X122906000Y-61301087D01*
X122955389Y-61334905D01*
X122963495Y-61339287D01*
X123049673Y-61385110D01*
X123104970Y-61407902D01*
X123159964Y-61431472D01*
X123168767Y-61434196D01*
X123262204Y-61462407D01*
X123320897Y-61474028D01*
X123379395Y-61486462D01*
X123388560Y-61487425D01*
X123485696Y-61496949D01*
X123485703Y-61496949D01*
X123517689Y-61500099D01*
X131182427Y-61499999D01*
X131210669Y-61497217D01*
X131216801Y-61497260D01*
X131225972Y-61496360D01*
X131420069Y-61475959D01*
X131478658Y-61463932D01*
X131537423Y-61452723D01*
X131546245Y-61450059D01*
X131732683Y-61392347D01*
X131787838Y-61369162D01*
X131843291Y-61346758D01*
X131851427Y-61342432D01*
X132023104Y-61249607D01*
X132072699Y-61216154D01*
X132122753Y-61183400D01*
X132129894Y-61177576D01*
X132280272Y-61053172D01*
X132322411Y-61010737D01*
X132365161Y-60968874D01*
X132371034Y-60961773D01*
X132494384Y-60810531D01*
X132527477Y-60760723D01*
X132561284Y-60711349D01*
X132565667Y-60703243D01*
X132657292Y-60530920D01*
X132680090Y-60475608D01*
X132703652Y-60420634D01*
X132706377Y-60411831D01*
X132762786Y-60224994D01*
X132774405Y-60166314D01*
X132786842Y-60107804D01*
X132787805Y-60098639D01*
X132806850Y-59904406D01*
X132806850Y-59904402D01*
X132810000Y-59872419D01*
X132810000Y-58710000D01*
X133127089Y-58710000D01*
X133135000Y-58790322D01*
X133135001Y-71429668D01*
X133127089Y-71510000D01*
X133135001Y-71590332D01*
X133135001Y-71600322D01*
X133158658Y-71840516D01*
X133252149Y-72148715D01*
X133403970Y-72432752D01*
X133608287Y-72681714D01*
X133857249Y-72886031D01*
X134141286Y-73037852D01*
X134449485Y-73131343D01*
X134770000Y-73162911D01*
X134951854Y-73145000D01*
X147489678Y-73145000D01*
X147570000Y-73152911D01*
X147890516Y-73121343D01*
X148198715Y-73027852D01*
X148482752Y-72876031D01*
X148731714Y-72671714D01*
X148936031Y-72422752D01*
X149087852Y-72138715D01*
X149181343Y-71830516D01*
X149205000Y-71590322D01*
X149212911Y-71510000D01*
X149205000Y-71429678D01*
X149205000Y-63480000D01*
X152177089Y-63480000D01*
X152185000Y-63560322D01*
X152185001Y-76199668D01*
X152177089Y-76280000D01*
X152185001Y-76360332D01*
X152185001Y-76370322D01*
X152208658Y-76610516D01*
X152302149Y-76918715D01*
X152453970Y-77202752D01*
X152658287Y-77451714D01*
X152907249Y-77656031D01*
X153191286Y-77807852D01*
X153499485Y-77901343D01*
X153820000Y-77932911D01*
X154001854Y-77915000D01*
X166539678Y-77915000D01*
X166620000Y-77922911D01*
X166940516Y-77891343D01*
X167248715Y-77797852D01*
X167532752Y-77646031D01*
X167781714Y-77441714D01*
X167986031Y-77192752D01*
X168137852Y-76908715D01*
X168231343Y-76600516D01*
X168255000Y-76360322D01*
X168262911Y-76280000D01*
X168255000Y-76199678D01*
X168255000Y-65760000D01*
X171227089Y-65760000D01*
X171235000Y-65840322D01*
X171235001Y-78479668D01*
X171227089Y-78560000D01*
X171235001Y-78640332D01*
X171235001Y-78650322D01*
X171258658Y-78890516D01*
X171352149Y-79198715D01*
X171503970Y-79482752D01*
X171708287Y-79731714D01*
X171957249Y-79936031D01*
X172241286Y-80087852D01*
X172549485Y-80181343D01*
X172870000Y-80212911D01*
X173051854Y-80195000D01*
X185589678Y-80195000D01*
X185670000Y-80202911D01*
X185990516Y-80171343D01*
X186298715Y-80077852D01*
X186582752Y-79926031D01*
X186831714Y-79721714D01*
X187036031Y-79472752D01*
X187187852Y-79188715D01*
X187281343Y-78880516D01*
X187305000Y-78640322D01*
X187312911Y-78560000D01*
X187305000Y-78479678D01*
X187305000Y-65840322D01*
X187312911Y-65760000D01*
X187281343Y-65439484D01*
X187187852Y-65131285D01*
X187036031Y-64847248D01*
X186831714Y-64598286D01*
X186582752Y-64393969D01*
X186298715Y-64242148D01*
X185990516Y-64148657D01*
X185750322Y-64125000D01*
X185670000Y-64117089D01*
X185589678Y-64125000D01*
X172789678Y-64125000D01*
X172549484Y-64148657D01*
X172241285Y-64242148D01*
X171957248Y-64393969D01*
X171708286Y-64598286D01*
X171503969Y-64847248D01*
X171352148Y-65131285D01*
X171258657Y-65439484D01*
X171227089Y-65760000D01*
X168255000Y-65760000D01*
X168255000Y-63560322D01*
X168262911Y-63480000D01*
X168247343Y-63321930D01*
X168231343Y-63159484D01*
X168137852Y-62851285D01*
X167986031Y-62567248D01*
X167781714Y-62318286D01*
X167735980Y-62280753D01*
X167532752Y-62113969D01*
X167248715Y-61962148D01*
X166940516Y-61868657D01*
X166700322Y-61845000D01*
X166620000Y-61837089D01*
X166539678Y-61845000D01*
X153739678Y-61845000D01*
X153499484Y-61868657D01*
X153191285Y-61962148D01*
X152907248Y-62113969D01*
X152658286Y-62318286D01*
X152453969Y-62567248D01*
X152302148Y-62851285D01*
X152208657Y-63159484D01*
X152177089Y-63480000D01*
X149205000Y-63480000D01*
X149205000Y-58790322D01*
X149212911Y-58710000D01*
X149181343Y-58389484D01*
X149087852Y-58081285D01*
X148936031Y-57797248D01*
X148731714Y-57548286D01*
X148482752Y-57343969D01*
X148198715Y-57192148D01*
X147890516Y-57098657D01*
X147650322Y-57075000D01*
X147570000Y-57067089D01*
X147489678Y-57075000D01*
X134689678Y-57075000D01*
X134449484Y-57098657D01*
X134141285Y-57192148D01*
X133857248Y-57343969D01*
X133608286Y-57548286D01*
X133403969Y-57797248D01*
X133252148Y-58081285D01*
X133158657Y-58389484D01*
X133127089Y-58710000D01*
X132810000Y-58710000D01*
X132810000Y-57122279D01*
X132819580Y-57024576D01*
X132838580Y-56961644D01*
X132869445Y-56903595D01*
X132910989Y-56852657D01*
X132961644Y-56810752D01*
X133019471Y-56779485D01*
X133082272Y-56760044D01*
X133177835Y-56750000D01*
X139772419Y-56750000D01*
X139800329Y-56747251D01*
X139803307Y-56747272D01*
X139812478Y-56746373D01*
X139860640Y-56741311D01*
X139869383Y-56740450D01*
X139869675Y-56740362D01*
X139909546Y-56736171D01*
X139968155Y-56724140D01*
X140026907Y-56712933D01*
X140035728Y-56710269D01*
X140128965Y-56681407D01*
X140184108Y-56658227D01*
X140239571Y-56635819D01*
X140247707Y-56631493D01*
X140333564Y-56585070D01*
X140383154Y-56551622D01*
X140433210Y-56518866D01*
X140440346Y-56513045D01*
X140440352Y-56513041D01*
X140440357Y-56513036D01*
X140515555Y-56450828D01*
X140557732Y-56408355D01*
X140600446Y-56366527D01*
X140606318Y-56359429D01*
X140606319Y-56359428D01*
X140606322Y-56359424D01*
X140668007Y-56283790D01*
X140701087Y-56234000D01*
X140734905Y-56184611D01*
X140739287Y-56176505D01*
X140785110Y-56090327D01*
X140807902Y-56035030D01*
X140831472Y-55980036D01*
X140834196Y-55971233D01*
X140862407Y-55877796D01*
X140874028Y-55819103D01*
X140886462Y-55760605D01*
X140887425Y-55751440D01*
X140896949Y-55654304D01*
X140896949Y-55624684D01*
X140899964Y-55596946D01*
X140899980Y-55592269D01*
X141440004Y-55592269D01*
X141440016Y-55595760D01*
X141442930Y-55624459D01*
X141442728Y-55653307D01*
X141443627Y-55662478D01*
X141453829Y-55759546D01*
X141465860Y-55818155D01*
X141477067Y-55876907D01*
X141479731Y-55885728D01*
X141508593Y-55978965D01*
X141531773Y-56034108D01*
X141554181Y-56089571D01*
X141558507Y-56097707D01*
X141604930Y-56183564D01*
X141638378Y-56233154D01*
X141671134Y-56283210D01*
X141676955Y-56290346D01*
X141676959Y-56290352D01*
X141676964Y-56290357D01*
X141739172Y-56365555D01*
X141781645Y-56407732D01*
X141823473Y-56450446D01*
X141830568Y-56456315D01*
X141830572Y-56456319D01*
X141830574Y-56456320D01*
X141906210Y-56518007D01*
X141956000Y-56551087D01*
X142005389Y-56584905D01*
X142013495Y-56589287D01*
X142099673Y-56635110D01*
X142154970Y-56657902D01*
X142209964Y-56681472D01*
X142218767Y-56684196D01*
X142312204Y-56712407D01*
X142370897Y-56724028D01*
X142429395Y-56736462D01*
X142438560Y-56737425D01*
X142535696Y-56746949D01*
X142535704Y-56746949D01*
X142567690Y-56750099D01*
X149157720Y-56750000D01*
X149255424Y-56759580D01*
X149318356Y-56778580D01*
X149376405Y-56809445D01*
X149427343Y-56850989D01*
X149469248Y-56901644D01*
X149500515Y-56959471D01*
X149519956Y-57022272D01*
X149530000Y-57117836D01*
X149530001Y-59882419D01*
X149532783Y-59910664D01*
X149532740Y-59916801D01*
X149533640Y-59925972D01*
X149554041Y-60120069D01*
X149566068Y-60178658D01*
X149577277Y-60237423D01*
X149579941Y-60246245D01*
X149637653Y-60432683D01*
X149660838Y-60487838D01*
X149683242Y-60543291D01*
X149687568Y-60551427D01*
X149780393Y-60723104D01*
X149813846Y-60772699D01*
X149846600Y-60822753D01*
X149852424Y-60829894D01*
X149976828Y-60980272D01*
X150019263Y-61022411D01*
X150061126Y-61065161D01*
X150068227Y-61071034D01*
X150219469Y-61194384D01*
X150269277Y-61227477D01*
X150318651Y-61261284D01*
X150326757Y-61265667D01*
X150499080Y-61357292D01*
X150554392Y-61380090D01*
X150609366Y-61403652D01*
X150618169Y-61406377D01*
X150805006Y-61462786D01*
X150863686Y-61474405D01*
X150922196Y-61486842D01*
X150931361Y-61487805D01*
X151125594Y-61506850D01*
X151125598Y-61506850D01*
X151157581Y-61510000D01*
X168217721Y-61510000D01*
X168315424Y-61519580D01*
X168378356Y-61538580D01*
X168436405Y-61569445D01*
X168487343Y-61610989D01*
X168529248Y-61661644D01*
X168560515Y-61719471D01*
X168579956Y-61782272D01*
X168590000Y-61877835D01*
X168590000Y-62172419D01*
X168592783Y-62200674D01*
X168592740Y-62206801D01*
X168593640Y-62215972D01*
X168614041Y-62410069D01*
X168626068Y-62468658D01*
X168637277Y-62527423D01*
X168639941Y-62536245D01*
X168697653Y-62722683D01*
X168720838Y-62777838D01*
X168743242Y-62833291D01*
X168747568Y-62841427D01*
X168840393Y-63013104D01*
X168873846Y-63062699D01*
X168906600Y-63112753D01*
X168912424Y-63119894D01*
X169036828Y-63270272D01*
X169079263Y-63312411D01*
X169121126Y-63355161D01*
X169128227Y-63361034D01*
X169279469Y-63484384D01*
X169329277Y-63517477D01*
X169378651Y-63551284D01*
X169386757Y-63555667D01*
X169559080Y-63647292D01*
X169614392Y-63670090D01*
X169669366Y-63693652D01*
X169678169Y-63696377D01*
X169865006Y-63752786D01*
X169923686Y-63764405D01*
X169982196Y-63776842D01*
X169991361Y-63777805D01*
X170185594Y-63796850D01*
X170185598Y-63796850D01*
X170217581Y-63800000D01*
X177872419Y-63800000D01*
X177900329Y-63797251D01*
X177903307Y-63797272D01*
X177912478Y-63796373D01*
X177960640Y-63791311D01*
X177969383Y-63790450D01*
X177969675Y-63790362D01*
X178009546Y-63786171D01*
X178068155Y-63774140D01*
X178126907Y-63762933D01*
X178135728Y-63760269D01*
X178228965Y-63731407D01*
X178284108Y-63708227D01*
X178339571Y-63685819D01*
X178347707Y-63681493D01*
X178433564Y-63635070D01*
X178483154Y-63601622D01*
X178533210Y-63568866D01*
X178540346Y-63563045D01*
X178540352Y-63563041D01*
X178540357Y-63563036D01*
X178615555Y-63500828D01*
X178657732Y-63458355D01*
X178700446Y-63416527D01*
X178706318Y-63409429D01*
X178706319Y-63409428D01*
X178706322Y-63409424D01*
X178768007Y-63333790D01*
X178801087Y-63284000D01*
X178834905Y-63234611D01*
X178839287Y-63226505D01*
X178885110Y-63140327D01*
X178907902Y-63085030D01*
X178931472Y-63030036D01*
X178934196Y-63021233D01*
X178962407Y-62927796D01*
X178974028Y-62869103D01*
X178986462Y-62810605D01*
X178987425Y-62801440D01*
X178996949Y-62704304D01*
X178996949Y-62674684D01*
X178999964Y-62646946D01*
X178999996Y-62637731D01*
X178999984Y-62634240D01*
X178997070Y-62605541D01*
X178997272Y-62576693D01*
X178996373Y-62567522D01*
X178986171Y-62470454D01*
X178974140Y-62411845D01*
X178962933Y-62353093D01*
X178960269Y-62344272D01*
X178931407Y-62251035D01*
X178908221Y-62195879D01*
X178885819Y-62140430D01*
X178881493Y-62132293D01*
X178835071Y-62046437D01*
X178801611Y-61996830D01*
X178768866Y-61946790D01*
X178763041Y-61939649D01*
X178700827Y-61864445D01*
X178658407Y-61822320D01*
X178616527Y-61779554D01*
X178609427Y-61773680D01*
X178533790Y-61711993D01*
X178483995Y-61678909D01*
X178434612Y-61645095D01*
X178426505Y-61640713D01*
X178426502Y-61640711D01*
X178426499Y-61640710D01*
X178340327Y-61594891D01*
X178285076Y-61572118D01*
X178230037Y-61548528D01*
X178221234Y-61545804D01*
X178127796Y-61517594D01*
X178069140Y-61505980D01*
X178010605Y-61493538D01*
X178001440Y-61492575D01*
X177904304Y-61483051D01*
X177904296Y-61483051D01*
X177872310Y-61479901D01*
X171282279Y-61480000D01*
X171184576Y-61470420D01*
X171121643Y-61451420D01*
X171063594Y-61420554D01*
X171012657Y-61379011D01*
X170970752Y-61328356D01*
X170939485Y-61270529D01*
X170920044Y-61207728D01*
X170910000Y-61112165D01*
X170910000Y-60817582D01*
X170907217Y-60789327D01*
X170907260Y-60783199D01*
X170906360Y-60774028D01*
X170885959Y-60579931D01*
X170873934Y-60521348D01*
X170862723Y-60462577D01*
X170860059Y-60453755D01*
X170802347Y-60267317D01*
X170779162Y-60212162D01*
X170756758Y-60156709D01*
X170752432Y-60148573D01*
X170659607Y-59976896D01*
X170626139Y-59927278D01*
X170593400Y-59877247D01*
X170587576Y-59870106D01*
X170463172Y-59719728D01*
X170420737Y-59677589D01*
X170378874Y-59634839D01*
X170371773Y-59628966D01*
X170220531Y-59505616D01*
X170170738Y-59472534D01*
X170121349Y-59438716D01*
X170113243Y-59434333D01*
X169940921Y-59342708D01*
X169885606Y-59319909D01*
X169830634Y-59296348D01*
X169821831Y-59293623D01*
X169634995Y-59237214D01*
X169576307Y-59225594D01*
X169517804Y-59213158D01*
X169508639Y-59212195D01*
X169314405Y-59193150D01*
X169314402Y-59193150D01*
X169282419Y-59190000D01*
X152222279Y-59190000D01*
X152124576Y-59180420D01*
X152061643Y-59161420D01*
X152003594Y-59130554D01*
X151952657Y-59089011D01*
X151910752Y-59038356D01*
X151879485Y-58980529D01*
X151860044Y-58917728D01*
X151850000Y-58822165D01*
X151850000Y-56057581D01*
X151847217Y-56029326D01*
X151847260Y-56023199D01*
X151846360Y-56014028D01*
X151825959Y-55819931D01*
X151813934Y-55761348D01*
X151802723Y-55702577D01*
X151800059Y-55693755D01*
X151742347Y-55507317D01*
X151719162Y-55452162D01*
X151696758Y-55396709D01*
X151692432Y-55388573D01*
X151599607Y-55216896D01*
X151566139Y-55167278D01*
X151533400Y-55117247D01*
X151527576Y-55110106D01*
X151403172Y-54959728D01*
X151360737Y-54917589D01*
X151318874Y-54874839D01*
X151311773Y-54868966D01*
X151160531Y-54745616D01*
X151110738Y-54712534D01*
X151061349Y-54678716D01*
X151053243Y-54674333D01*
X150880921Y-54582708D01*
X150825606Y-54559909D01*
X150770634Y-54536348D01*
X150761831Y-54533623D01*
X150574995Y-54477214D01*
X150516307Y-54465594D01*
X150457804Y-54453158D01*
X150448639Y-54452195D01*
X150254405Y-54433150D01*
X150254396Y-54433150D01*
X150222427Y-54430001D01*
X142567689Y-54429901D01*
X142539776Y-54432650D01*
X142536792Y-54432629D01*
X142527621Y-54433528D01*
X142479463Y-54438590D01*
X142470725Y-54439450D01*
X142470433Y-54439539D01*
X142430553Y-54443730D01*
X142371944Y-54455761D01*
X142313192Y-54466968D01*
X142304371Y-54469632D01*
X142211134Y-54498494D01*
X142155978Y-54521680D01*
X142100529Y-54544082D01*
X142092392Y-54548408D01*
X142006536Y-54594830D01*
X141956929Y-54628290D01*
X141906889Y-54661035D01*
X141899748Y-54666860D01*
X141824544Y-54729074D01*
X141782419Y-54771494D01*
X141739653Y-54813374D01*
X141733779Y-54820474D01*
X141672092Y-54896111D01*
X141639008Y-54945906D01*
X141605194Y-54995289D01*
X141600812Y-55003396D01*
X141554990Y-55089574D01*
X141532217Y-55144825D01*
X141508627Y-55199864D01*
X141505903Y-55208667D01*
X141477693Y-55302105D01*
X141466079Y-55360761D01*
X141453637Y-55419296D01*
X141452674Y-55428461D01*
X141443150Y-55525597D01*
X141443150Y-55554405D01*
X141440036Y-55583054D01*
X141440004Y-55592269D01*
X140899980Y-55592269D01*
X140899996Y-55587731D01*
X140899984Y-55584240D01*
X140897070Y-55555541D01*
X140897272Y-55526693D01*
X140896373Y-55517522D01*
X140886171Y-55420454D01*
X140874140Y-55361845D01*
X140862933Y-55303093D01*
X140860269Y-55294272D01*
X140831407Y-55201035D01*
X140808221Y-55145879D01*
X140785819Y-55090430D01*
X140781493Y-55082293D01*
X140735071Y-54996437D01*
X140701611Y-54946830D01*
X140668866Y-54896790D01*
X140663041Y-54889649D01*
X140600827Y-54814445D01*
X140558407Y-54772320D01*
X140516527Y-54729554D01*
X140509427Y-54723680D01*
X140433790Y-54661993D01*
X140383995Y-54628909D01*
X140334612Y-54595095D01*
X140326505Y-54590713D01*
X140326502Y-54590711D01*
X140326499Y-54590710D01*
X140240327Y-54544891D01*
X140185076Y-54522118D01*
X140130037Y-54498528D01*
X140121234Y-54495804D01*
X140027796Y-54467594D01*
X139969140Y-54455980D01*
X139910605Y-54443538D01*
X139901440Y-54442575D01*
X139804304Y-54433051D01*
X139804297Y-54433051D01*
X139772311Y-54429901D01*
X132117573Y-54430001D01*
X132089331Y-54432783D01*
X132083199Y-54432740D01*
X132074028Y-54433640D01*
X131879931Y-54454041D01*
X131821348Y-54466066D01*
X131762577Y-54477277D01*
X131753755Y-54479941D01*
X131567317Y-54537653D01*
X131512162Y-54560838D01*
X131456709Y-54583242D01*
X131448573Y-54587568D01*
X131276896Y-54680393D01*
X131227278Y-54713861D01*
X131177247Y-54746600D01*
X131170106Y-54752424D01*
X131019728Y-54876828D01*
X130977589Y-54919263D01*
X130934839Y-54961126D01*
X130928966Y-54968227D01*
X130805616Y-55119469D01*
X130772534Y-55169262D01*
X130738716Y-55218651D01*
X130734333Y-55226757D01*
X130642708Y-55399079D01*
X130619909Y-55454394D01*
X130596348Y-55509366D01*
X130593623Y-55518169D01*
X130537214Y-55705005D01*
X130525594Y-55763693D01*
X130513158Y-55822196D01*
X130512195Y-55831361D01*
X130493150Y-56025595D01*
X130490000Y-56057582D01*
X130490001Y-58807711D01*
X130480420Y-58905424D01*
X130461420Y-58968357D01*
X130430554Y-59026406D01*
X130389011Y-59077343D01*
X130338356Y-59119248D01*
X130280529Y-59150515D01*
X130217728Y-59169956D01*
X130122164Y-59180000D01*
X123517690Y-59179901D01*
X123489777Y-59182650D01*
X123486792Y-59182629D01*
X123477621Y-59183528D01*
X123429448Y-59188591D01*
X123420726Y-59189450D01*
X123420435Y-59189538D01*
X123380553Y-59193730D01*
X123321944Y-59205761D01*
X123263192Y-59216968D01*
X123254371Y-59219632D01*
X123161134Y-59248494D01*
X123105978Y-59271680D01*
X123050529Y-59294082D01*
X123042392Y-59298408D01*
X122956536Y-59344830D01*
X122906929Y-59378290D01*
X122856889Y-59411035D01*
X122849748Y-59416860D01*
X122774544Y-59479074D01*
X122732419Y-59521494D01*
X122689653Y-59563374D01*
X122683779Y-59570474D01*
X122622092Y-59646111D01*
X122589008Y-59695906D01*
X122555194Y-59745289D01*
X122550812Y-59753396D01*
X122504990Y-59839574D01*
X122482217Y-59894825D01*
X122458627Y-59949864D01*
X122455903Y-59958667D01*
X122427693Y-60052105D01*
X122416079Y-60110761D01*
X122403637Y-60169296D01*
X122402674Y-60178461D01*
X122393150Y-60275597D01*
X122393150Y-60304405D01*
X122390036Y-60333054D01*
X122390004Y-60342269D01*
X121849980Y-60342269D01*
X121849996Y-60337731D01*
X121849984Y-60334240D01*
X121847070Y-60305541D01*
X121847272Y-60276693D01*
X121846373Y-60267522D01*
X121836171Y-60170454D01*
X121824140Y-60111845D01*
X121812933Y-60053093D01*
X121810269Y-60044272D01*
X121781407Y-59951035D01*
X121758221Y-59895879D01*
X121735819Y-59840430D01*
X121731493Y-59832293D01*
X121685071Y-59746437D01*
X121651611Y-59696830D01*
X121618866Y-59646790D01*
X121613041Y-59639649D01*
X121550827Y-59564445D01*
X121508407Y-59522320D01*
X121466527Y-59479554D01*
X121459427Y-59473680D01*
X121383790Y-59411993D01*
X121333995Y-59378909D01*
X121284612Y-59345095D01*
X121276505Y-59340713D01*
X121276502Y-59340711D01*
X121276499Y-59340710D01*
X121190327Y-59294891D01*
X121135076Y-59272118D01*
X121080037Y-59248528D01*
X121071234Y-59245804D01*
X120977796Y-59217594D01*
X120919140Y-59205980D01*
X120860605Y-59193538D01*
X120851440Y-59192575D01*
X120754304Y-59183051D01*
X120754297Y-59183051D01*
X120722311Y-59179901D01*
X113067573Y-59180001D01*
X113039331Y-59182783D01*
X113033199Y-59182740D01*
X113024028Y-59183640D01*
X112829931Y-59204041D01*
X112771348Y-59216066D01*
X112712577Y-59227277D01*
X112703755Y-59229941D01*
X112517317Y-59287653D01*
X112462162Y-59310838D01*
X112406709Y-59333242D01*
X112398573Y-59337568D01*
X112226896Y-59430393D01*
X112177278Y-59463861D01*
X112127247Y-59496600D01*
X112120106Y-59502424D01*
X111969728Y-59626828D01*
X111927589Y-59669263D01*
X111884839Y-59711126D01*
X111878966Y-59718227D01*
X111755616Y-59869469D01*
X111722534Y-59919262D01*
X111688716Y-59968651D01*
X111684333Y-59976757D01*
X111592708Y-60149079D01*
X111569909Y-60204394D01*
X111546348Y-60259366D01*
X111543623Y-60268169D01*
X111487214Y-60455005D01*
X111475594Y-60513693D01*
X111463158Y-60572196D01*
X111462195Y-60581361D01*
X111443150Y-60775595D01*
X111440000Y-60807582D01*
X111440001Y-65857711D01*
X111430420Y-65955424D01*
X111411420Y-66018357D01*
X111380554Y-66076406D01*
X111339011Y-66127343D01*
X111288356Y-66169248D01*
X111230529Y-66200515D01*
X111167728Y-66219956D01*
X111072165Y-66230000D01*
X94007581Y-66230000D01*
X93979326Y-66232783D01*
X93973199Y-66232740D01*
X93964028Y-66233640D01*
X93769931Y-66254041D01*
X93711348Y-66266066D01*
X93652577Y-66277277D01*
X93643755Y-66279941D01*
X93457317Y-66337653D01*
X93402162Y-66360838D01*
X93346709Y-66383242D01*
X93338573Y-66387568D01*
X93166896Y-66480393D01*
X93117278Y-66513861D01*
X93067247Y-66546600D01*
X93060106Y-66552424D01*
X92909728Y-66676828D01*
X92867589Y-66719263D01*
X92824839Y-66761126D01*
X92818966Y-66768227D01*
X92695616Y-66919469D01*
X92662534Y-66969262D01*
X92628716Y-67018651D01*
X92624333Y-67026757D01*
X92532708Y-67199079D01*
X92509909Y-67254394D01*
X92486348Y-67309366D01*
X92483623Y-67318169D01*
X92427214Y-67505005D01*
X92415594Y-67563693D01*
X92403158Y-67622196D01*
X92402195Y-67631361D01*
X92383152Y-67825574D01*
X92380000Y-67857582D01*
X92380000Y-68337721D01*
X92370420Y-68435424D01*
X92351420Y-68498357D01*
X92320554Y-68556406D01*
X92279011Y-68607343D01*
X92228356Y-68649248D01*
X92170529Y-68680515D01*
X92107728Y-68699956D01*
X92013107Y-68709901D01*
X85417680Y-68709901D01*
X85389770Y-68712650D01*
X85386792Y-68712629D01*
X85377621Y-68713528D01*
X85329459Y-68718590D01*
X85320716Y-68719451D01*
X85320424Y-68719539D01*
X85280553Y-68723730D01*
X85221944Y-68735761D01*
X85163192Y-68746968D01*
X85154371Y-68749632D01*
X85061134Y-68778494D01*
X85005978Y-68801680D01*
X84950529Y-68824082D01*
X84942392Y-68828408D01*
X84856536Y-68874830D01*
X84806929Y-68908290D01*
X84756889Y-68941035D01*
X84749748Y-68946860D01*
X84674544Y-69009074D01*
X84632419Y-69051494D01*
X84589653Y-69093374D01*
X84583779Y-69100474D01*
X84522092Y-69176111D01*
X84489008Y-69225906D01*
X84455194Y-69275289D01*
X84450812Y-69283396D01*
X84404990Y-69369574D01*
X84382217Y-69424825D01*
X84358627Y-69479864D01*
X84355903Y-69488667D01*
X84327693Y-69582105D01*
X84316079Y-69640761D01*
X84303637Y-69699296D01*
X84302674Y-69708461D01*
X84293150Y-69805597D01*
X84293150Y-69834405D01*
X84290036Y-69863054D01*
X84290004Y-69872269D01*
X83749980Y-69872269D01*
X83749996Y-69867731D01*
X83749984Y-69864240D01*
X83747070Y-69835541D01*
X83747272Y-69806693D01*
X83746373Y-69797522D01*
X83736171Y-69700454D01*
X83724135Y-69641820D01*
X83712933Y-69583093D01*
X83710269Y-69574272D01*
X83681407Y-69481035D01*
X83658221Y-69425879D01*
X83635819Y-69370430D01*
X83631493Y-69362293D01*
X83585071Y-69276437D01*
X83551611Y-69226830D01*
X83518866Y-69176790D01*
X83513041Y-69169649D01*
X83450827Y-69094445D01*
X83408407Y-69052320D01*
X83366527Y-69009554D01*
X83359427Y-69003680D01*
X83283790Y-68941993D01*
X83233995Y-68908909D01*
X83184612Y-68875095D01*
X83176505Y-68870713D01*
X83176502Y-68870711D01*
X83176499Y-68870710D01*
X83090327Y-68824891D01*
X83035076Y-68802118D01*
X82980037Y-68778528D01*
X82971234Y-68775804D01*
X82877796Y-68747594D01*
X82819140Y-68735980D01*
X82760605Y-68723538D01*
X82751440Y-68722575D01*
X82654304Y-68713051D01*
X82654296Y-68713051D01*
X82622310Y-68709901D01*
X75502280Y-68710000D01*
X75404576Y-68700420D01*
X75341643Y-68681420D01*
X75283594Y-68650554D01*
X75232657Y-68609011D01*
X75190752Y-68558356D01*
X75159485Y-68500529D01*
X75140044Y-68437728D01*
X75130000Y-68342165D01*
X75130000Y-53950000D01*
X75977089Y-53950000D01*
X75985000Y-54030322D01*
X75985001Y-66669668D01*
X75977089Y-66750000D01*
X75985001Y-66830332D01*
X75985001Y-66840322D01*
X76008658Y-67080516D01*
X76102149Y-67388715D01*
X76253970Y-67672752D01*
X76458287Y-67921714D01*
X76707249Y-68126031D01*
X76991286Y-68277852D01*
X77299485Y-68371343D01*
X77620000Y-68402911D01*
X77801854Y-68385000D01*
X90339678Y-68385000D01*
X90420000Y-68392911D01*
X90740516Y-68361343D01*
X91048715Y-68267852D01*
X91332752Y-68116031D01*
X91581714Y-67911714D01*
X91786031Y-67662752D01*
X91937852Y-67378715D01*
X92031343Y-67070516D01*
X92055000Y-66830322D01*
X92062911Y-66750000D01*
X92055000Y-66669678D01*
X92055000Y-54030322D01*
X92062911Y-53950000D01*
X92031343Y-53629484D01*
X91937852Y-53321285D01*
X91786031Y-53037248D01*
X91581714Y-52788286D01*
X91332752Y-52583969D01*
X91048715Y-52432148D01*
X90740516Y-52338657D01*
X90500322Y-52315000D01*
X90420000Y-52307089D01*
X90339678Y-52315000D01*
X77539678Y-52315000D01*
X77299484Y-52338657D01*
X76991285Y-52432148D01*
X76707248Y-52583969D01*
X76458286Y-52788286D01*
X76253969Y-53037248D01*
X76102148Y-53321285D01*
X76008657Y-53629484D01*
X75977089Y-53950000D01*
X75130000Y-53950000D01*
X75130000Y-51877279D01*
X75139580Y-51779576D01*
X75158580Y-51716644D01*
X75189445Y-51658595D01*
X75230989Y-51607657D01*
X75281644Y-51565752D01*
X75339471Y-51534485D01*
X75402272Y-51515044D01*
X75497835Y-51505000D01*
X92602420Y-51505000D01*
X92630675Y-51502217D01*
X92636802Y-51502260D01*
X92645973Y-51501360D01*
X92840070Y-51480959D01*
X92893456Y-51470000D01*
X95027089Y-51470000D01*
X95035000Y-51550322D01*
X95035001Y-64189668D01*
X95027089Y-64270000D01*
X95035001Y-64350332D01*
X95035001Y-64360322D01*
X95058658Y-64600516D01*
X95152149Y-64908715D01*
X95303970Y-65192752D01*
X95508287Y-65441714D01*
X95757249Y-65646031D01*
X96041286Y-65797852D01*
X96349485Y-65891343D01*
X96670000Y-65922911D01*
X96851854Y-65905000D01*
X109389678Y-65905000D01*
X109470000Y-65912911D01*
X109790516Y-65881343D01*
X110098715Y-65787852D01*
X110382752Y-65636031D01*
X110631714Y-65431714D01*
X110836031Y-65182752D01*
X110987852Y-64898715D01*
X111081343Y-64590516D01*
X111105000Y-64350322D01*
X111112911Y-64270000D01*
X111105000Y-64189678D01*
X111105000Y-51550322D01*
X111112911Y-51470000D01*
X111081343Y-51149484D01*
X110987852Y-50841285D01*
X110836031Y-50557248D01*
X110631714Y-50308286D01*
X110382752Y-50103969D01*
X110098715Y-49952148D01*
X109790516Y-49858657D01*
X109550322Y-49835000D01*
X109470000Y-49827089D01*
X109389678Y-49835000D01*
X96589678Y-49835000D01*
X96349484Y-49858657D01*
X96041285Y-49952148D01*
X95757248Y-50103969D01*
X95508286Y-50308286D01*
X95303969Y-50557248D01*
X95152148Y-50841285D01*
X95058657Y-51149484D01*
X95027089Y-51470000D01*
X92893456Y-51470000D01*
X92898659Y-51468932D01*
X92957424Y-51457723D01*
X92966246Y-51455059D01*
X93152684Y-51397347D01*
X93207839Y-51374162D01*
X93263292Y-51351758D01*
X93271428Y-51347432D01*
X93443105Y-51254607D01*
X93492700Y-51221154D01*
X93542754Y-51188400D01*
X93549895Y-51182576D01*
X93700273Y-51058172D01*
X93742412Y-51015737D01*
X93785162Y-50973874D01*
X93791035Y-50966773D01*
X93914385Y-50815531D01*
X93947478Y-50765723D01*
X93981285Y-50716349D01*
X93985668Y-50708243D01*
X94077293Y-50535920D01*
X94100091Y-50480608D01*
X94123653Y-50425634D01*
X94126378Y-50416831D01*
X94182787Y-50229994D01*
X94194406Y-50171314D01*
X94206843Y-50112804D01*
X94207806Y-50103639D01*
X94226851Y-49909406D01*
X94226851Y-49909401D01*
X94230001Y-49877418D01*
X94230001Y-49400779D01*
X94239581Y-49303076D01*
X94258581Y-49240144D01*
X94289446Y-49182095D01*
X94330990Y-49131157D01*
X94381645Y-49089252D01*
X94439472Y-49057985D01*
X94502273Y-49038544D01*
X94597836Y-49028500D01*
X111652420Y-49028500D01*
X111680675Y-49025717D01*
X111686802Y-49025760D01*
X111695973Y-49024860D01*
X111890070Y-49004459D01*
X111948659Y-48992432D01*
X112007424Y-48981223D01*
X112016246Y-48978559D01*
X112202684Y-48920847D01*
X112257839Y-48897662D01*
X112313292Y-48875258D01*
X112321428Y-48870932D01*
X112493105Y-48778107D01*
X112542700Y-48744654D01*
X112592754Y-48711900D01*
X112599895Y-48706076D01*
X112750273Y-48581672D01*
X112792412Y-48539237D01*
X112835162Y-48497374D01*
X112841035Y-48490273D01*
X112964385Y-48339031D01*
X112997478Y-48289223D01*
X113031285Y-48239849D01*
X113035668Y-48231743D01*
X113127293Y-48059420D01*
X113150091Y-48004108D01*
X113173653Y-47949134D01*
X113176378Y-47940331D01*
X113232787Y-47753494D01*
X113244406Y-47694814D01*
X113256843Y-47636304D01*
X113257806Y-47627139D01*
X113276851Y-47432906D01*
X113276851Y-47432902D01*
X113280001Y-47400919D01*
X113280001Y-44420000D01*
X114077089Y-44420000D01*
X114085000Y-44500322D01*
X114085001Y-57139668D01*
X114077089Y-57220000D01*
X114085001Y-57300332D01*
X114085001Y-57310322D01*
X114108658Y-57550516D01*
X114202149Y-57858715D01*
X114353970Y-58142752D01*
X114558287Y-58391714D01*
X114807249Y-58596031D01*
X115091286Y-58747852D01*
X115399485Y-58841343D01*
X115720000Y-58872911D01*
X115901854Y-58855000D01*
X128439678Y-58855000D01*
X128520000Y-58862911D01*
X128674126Y-58847731D01*
X128840516Y-58831343D01*
X129148715Y-58737852D01*
X129432752Y-58586031D01*
X129681714Y-58381714D01*
X129886031Y-58132752D01*
X130037852Y-57848715D01*
X130131343Y-57540516D01*
X130162911Y-57220000D01*
X130155000Y-57139678D01*
X130155000Y-44500322D01*
X130162911Y-44420000D01*
X130145463Y-44242842D01*
X130131343Y-44099484D01*
X130037852Y-43791285D01*
X129886031Y-43507248D01*
X129681714Y-43258286D01*
X129624689Y-43211487D01*
X129432752Y-43053969D01*
X129148715Y-42902148D01*
X128840516Y-42808657D01*
X128600322Y-42785000D01*
X128520000Y-42777089D01*
X128439678Y-42785000D01*
X115639678Y-42785000D01*
X115399484Y-42808657D01*
X115091285Y-42902148D01*
X114807248Y-43053969D01*
X114558286Y-43258286D01*
X114353969Y-43507248D01*
X114202148Y-43791285D01*
X114108657Y-44099484D01*
X114077089Y-44420000D01*
X113280001Y-44420000D01*
X113280001Y-42352279D01*
X113289581Y-42254576D01*
X113308581Y-42191644D01*
X113339446Y-42133595D01*
X113380990Y-42082657D01*
X113431645Y-42040752D01*
X113489472Y-42009485D01*
X113552273Y-41990044D01*
X113647836Y-41980000D01*
X130702420Y-41980000D01*
X130730675Y-41977217D01*
X130736802Y-41977260D01*
X130745973Y-41976360D01*
X130940070Y-41955959D01*
X130998659Y-41943932D01*
X131057424Y-41932723D01*
X131066246Y-41930059D01*
X131252684Y-41872347D01*
X131307839Y-41849162D01*
X131363292Y-41826758D01*
X131371428Y-41822432D01*
X131543105Y-41729607D01*
X131592700Y-41696154D01*
X131642754Y-41663400D01*
X131649895Y-41657576D01*
X131800273Y-41533172D01*
X131842412Y-41490737D01*
X131885162Y-41448874D01*
X131891035Y-41441773D01*
X132014385Y-41290531D01*
X132047478Y-41240723D01*
X132081285Y-41191349D01*
X132085668Y-41183243D01*
X132177293Y-41010920D01*
X132200091Y-40955608D01*
X132223653Y-40900634D01*
X132226378Y-40891831D01*
X132282787Y-40704994D01*
X132294406Y-40646314D01*
X132306843Y-40587804D01*
X132307806Y-40578639D01*
X132326851Y-40384406D01*
X132326851Y-40384402D01*
X132330001Y-40352419D01*
X132330001Y-39660000D01*
X133127089Y-39660000D01*
X133135000Y-39740322D01*
X133135001Y-52379668D01*
X133127089Y-52460000D01*
X133135001Y-52540332D01*
X133135001Y-52550322D01*
X133158658Y-52790516D01*
X133252149Y-53098715D01*
X133403970Y-53382752D01*
X133608287Y-53631714D01*
X133857249Y-53836031D01*
X134141286Y-53987852D01*
X134449485Y-54081343D01*
X134770000Y-54112911D01*
X134951854Y-54095000D01*
X147489678Y-54095000D01*
X147570000Y-54102911D01*
X147890516Y-54071343D01*
X148198715Y-53977852D01*
X148482752Y-53826031D01*
X148731714Y-53621714D01*
X148936031Y-53372752D01*
X149087852Y-53088715D01*
X149181343Y-52780516D01*
X149205000Y-52540322D01*
X149212911Y-52460000D01*
X149205000Y-52379678D01*
X149205000Y-44430000D01*
X152177089Y-44430000D01*
X152185000Y-44510322D01*
X152185001Y-57149668D01*
X152177089Y-57230000D01*
X152185001Y-57310332D01*
X152185001Y-57320322D01*
X152208658Y-57560516D01*
X152302149Y-57868715D01*
X152453970Y-58152752D01*
X152658287Y-58401714D01*
X152907249Y-58606031D01*
X153191286Y-58757852D01*
X153499485Y-58851343D01*
X153820000Y-58882911D01*
X154001854Y-58865000D01*
X166539678Y-58865000D01*
X166620000Y-58872911D01*
X166940516Y-58841343D01*
X167248715Y-58747852D01*
X167532752Y-58596031D01*
X167781714Y-58391714D01*
X167986031Y-58142752D01*
X168137852Y-57858715D01*
X168231343Y-57550516D01*
X168255000Y-57310322D01*
X168262911Y-57230000D01*
X168255000Y-57149678D01*
X168255000Y-46710000D01*
X171227089Y-46710000D01*
X171235000Y-46790322D01*
X171235001Y-59429668D01*
X171227089Y-59510000D01*
X171235001Y-59590332D01*
X171235001Y-59600322D01*
X171258658Y-59840516D01*
X171352149Y-60148715D01*
X171503970Y-60432752D01*
X171708287Y-60681714D01*
X171957249Y-60886031D01*
X172241286Y-61037852D01*
X172549485Y-61131343D01*
X172870000Y-61162911D01*
X173051854Y-61145000D01*
X185589678Y-61145000D01*
X185670000Y-61152911D01*
X185751683Y-61144866D01*
X185990516Y-61121343D01*
X186298715Y-61027852D01*
X186582752Y-60876031D01*
X186831714Y-60671714D01*
X187036031Y-60422752D01*
X187187852Y-60138715D01*
X187281343Y-59830516D01*
X187312911Y-59510000D01*
X187305000Y-59429678D01*
X187305000Y-46790322D01*
X187312911Y-46710000D01*
X187281343Y-46389484D01*
X187187852Y-46081285D01*
X187036031Y-45797248D01*
X186831714Y-45548286D01*
X186582752Y-45343969D01*
X186298715Y-45192148D01*
X185990516Y-45098657D01*
X185750322Y-45075000D01*
X185670000Y-45067089D01*
X185589678Y-45075000D01*
X172789678Y-45075000D01*
X172549484Y-45098657D01*
X172241285Y-45192148D01*
X171957248Y-45343969D01*
X171708286Y-45548286D01*
X171503969Y-45797248D01*
X171352148Y-46081285D01*
X171258657Y-46389484D01*
X171227089Y-46710000D01*
X168255000Y-46710000D01*
X168255000Y-44510322D01*
X168262911Y-44430000D01*
X168231343Y-44109484D01*
X168137852Y-43801285D01*
X167986031Y-43517248D01*
X167781714Y-43268286D01*
X167532752Y-43063969D01*
X167248715Y-42912148D01*
X166940516Y-42818657D01*
X166700322Y-42795000D01*
X166620000Y-42787089D01*
X166539678Y-42795000D01*
X153739678Y-42795000D01*
X153499484Y-42818657D01*
X153191285Y-42912148D01*
X152907248Y-43063969D01*
X152658286Y-43268286D01*
X152453969Y-43517248D01*
X152302148Y-43801285D01*
X152208657Y-44109484D01*
X152177089Y-44430000D01*
X149205000Y-44430000D01*
X149205000Y-39740322D01*
X149212911Y-39660000D01*
X149181343Y-39339484D01*
X149087852Y-39031285D01*
X148936031Y-38747248D01*
X148731714Y-38498286D01*
X148482752Y-38293969D01*
X148198715Y-38142148D01*
X147890516Y-38048657D01*
X147650322Y-38025000D01*
X147570000Y-38017089D01*
X147489678Y-38025000D01*
X134689678Y-38025000D01*
X134449484Y-38048657D01*
X134141285Y-38142148D01*
X133857248Y-38293969D01*
X133608286Y-38498286D01*
X133403969Y-38747248D01*
X133252148Y-39031285D01*
X133158657Y-39339484D01*
X133127089Y-39660000D01*
X132330001Y-39660000D01*
X132330001Y-37589779D01*
X132339581Y-37492076D01*
X132358581Y-37429144D01*
X132389446Y-37371095D01*
X132430990Y-37320157D01*
X132481645Y-37278252D01*
X132539472Y-37246985D01*
X132602273Y-37227544D01*
X132697836Y-37217500D01*
X149637722Y-37217500D01*
X149735425Y-37227080D01*
G37*
X149735425Y-37227080D02*
X149798357Y-37246080D01*
X149856406Y-37276945D01*
X149907344Y-37318489D01*
X149949249Y-37369144D01*
X149980516Y-37426971D01*
X149999957Y-37489772D01*
X150010001Y-37585336D01*
X150010002Y-40352419D01*
X150012784Y-40380664D01*
X150012741Y-40386801D01*
X150013641Y-40395972D01*
X150034042Y-40590069D01*
X150046069Y-40648658D01*
X150057278Y-40707423D01*
X150059942Y-40716245D01*
X150117654Y-40902683D01*
X150140839Y-40957838D01*
X150163243Y-41013291D01*
X150167569Y-41021427D01*
X150260394Y-41193104D01*
X150293847Y-41242699D01*
X150326601Y-41292753D01*
X150332425Y-41299894D01*
X150456829Y-41450272D01*
X150499264Y-41492411D01*
X150541127Y-41535161D01*
X150548228Y-41541034D01*
X150699470Y-41664384D01*
X150749278Y-41697477D01*
X150798652Y-41731284D01*
X150806758Y-41735667D01*
X150979081Y-41827292D01*
X151034393Y-41850090D01*
X151089367Y-41873652D01*
X151098170Y-41876377D01*
X151285007Y-41932786D01*
X151343687Y-41944405D01*
X151402197Y-41956842D01*
X151411362Y-41957805D01*
X151605595Y-41976850D01*
X151605599Y-41976850D01*
X151637582Y-41980000D01*
X168687722Y-41980000D01*
X168785425Y-41989580D01*
X168848357Y-42008580D01*
X168906406Y-42039445D01*
X168957344Y-42080989D01*
X168999249Y-42131644D01*
X169030516Y-42189471D01*
X169049957Y-42252272D01*
X169060001Y-42347835D01*
X169060001Y-42638419D01*
X169062784Y-42666674D01*
X169062741Y-42672801D01*
X169063641Y-42681972D01*
X169084042Y-42876069D01*
X169096069Y-42934658D01*
X169107278Y-42993423D01*
X169109942Y-43002245D01*
X169167654Y-43188683D01*
X169190839Y-43243838D01*
X169213243Y-43299291D01*
X169217569Y-43307427D01*
X169310394Y-43479104D01*
X169343847Y-43528699D01*
X169376601Y-43578753D01*
X169382425Y-43585894D01*
X169506829Y-43736272D01*
X169549264Y-43778411D01*
X169591127Y-43821161D01*
X169598228Y-43827034D01*
X169749470Y-43950384D01*
X169799278Y-43983477D01*
X169848652Y-44017284D01*
X169856758Y-44021667D01*
X170029081Y-44113292D01*
X170084393Y-44136090D01*
X170139367Y-44159652D01*
X170148170Y-44162377D01*
X170335007Y-44218786D01*
X170393687Y-44230405D01*
X170452197Y-44242842D01*
X170461362Y-44243805D01*
X170655595Y-44262850D01*
X170655599Y-44262850D01*
X170687582Y-44266000D01*
X187737721Y-44266000D01*
X187835424Y-44275580D01*
X187898356Y-44294580D01*
X187956405Y-44325445D01*
X188007343Y-44366989D01*
X188049248Y-44417644D01*
X188080515Y-44475471D01*
X188099956Y-44538272D01*
X188110001Y-44633845D01*
X188110000Y-61107721D01*
X188100420Y-61205424D01*
X188081420Y-61268357D01*
X188050554Y-61326406D01*
X188009011Y-61377343D01*
X187958356Y-61419248D01*
X187900529Y-61450515D01*
X187837728Y-61469956D01*
X187743107Y-61479901D01*
X180657581Y-61479901D01*
X180629671Y-61482650D01*
X180626693Y-61482629D01*
X180617522Y-61483528D01*
X180569360Y-61488590D01*
X180560617Y-61489451D01*
X180560325Y-61489539D01*
X180520454Y-61493730D01*
X180461845Y-61505761D01*
X180403093Y-61516968D01*
X180394272Y-61519632D01*
X180301035Y-61548494D01*
X180245879Y-61571680D01*
X180190430Y-61594082D01*
X180182293Y-61598408D01*
X180096437Y-61644830D01*
X180046830Y-61678290D01*
X179996790Y-61711035D01*
X179989649Y-61716860D01*
X179914445Y-61779074D01*
X179872320Y-61821494D01*
X179829554Y-61863374D01*
X179823680Y-61870474D01*
X179761993Y-61946111D01*
X179728909Y-61995906D01*
X179695095Y-62045289D01*
X179690713Y-62053396D01*
X179644891Y-62139574D01*
X179622118Y-62194825D01*
X179598528Y-62249864D01*
X179595804Y-62258667D01*
X179567594Y-62352105D01*
X179555980Y-62410761D01*
X179543538Y-62469296D01*
X179542575Y-62478461D01*
X179533051Y-62575597D01*
X179533051Y-62604405D01*
X179529937Y-62633054D01*
X179529905Y-62642269D01*
X179529917Y-62645760D01*
X179532831Y-62674459D01*
X179532629Y-62703307D01*
X179533528Y-62712478D01*
X179543730Y-62809546D01*
X179555761Y-62868155D01*
X179566968Y-62926907D01*
X179569632Y-62935728D01*
X179598494Y-63028965D01*
X179621674Y-63084108D01*
X179644082Y-63139571D01*
X179648408Y-63147707D01*
X179694831Y-63233564D01*
X179728279Y-63283154D01*
X179761035Y-63333210D01*
X179766856Y-63340346D01*
X179766860Y-63340352D01*
X179766865Y-63340357D01*
X179829073Y-63415555D01*
X179871546Y-63457732D01*
X179913374Y-63500446D01*
X179920469Y-63506315D01*
X179920473Y-63506319D01*
X179920475Y-63506320D01*
X179996111Y-63568007D01*
X180045901Y-63601087D01*
X180095290Y-63634905D01*
X180103396Y-63639287D01*
X180189574Y-63685110D01*
X180244871Y-63707902D01*
X180299865Y-63731472D01*
X180308668Y-63734196D01*
X180402105Y-63762407D01*
X180460798Y-63774028D01*
X180519296Y-63786462D01*
X180528461Y-63787425D01*
X180625597Y-63796949D01*
X180625605Y-63796949D01*
X180657591Y-63800099D01*
X187737720Y-63800000D01*
X187835424Y-63809580D01*
X187898356Y-63828580D01*
X187956405Y-63859445D01*
X188007343Y-63900989D01*
X188049248Y-63951644D01*
X188080515Y-64009471D01*
X188099956Y-64072272D01*
X188110001Y-64167843D01*
X188109801Y-121262217D01*
X188112584Y-121290472D01*
X188112541Y-121296604D01*
X188113441Y-121305775D01*
X188133846Y-121499909D01*
X188145869Y-121558479D01*
X188157082Y-121617262D01*
X188159746Y-121626084D01*
X188217469Y-121812560D01*
X188240642Y-121867687D01*
X188263059Y-121923170D01*
X188267385Y-121931307D01*
X188360229Y-122103017D01*
X188393685Y-122152618D01*
X188426435Y-122202665D01*
X188432259Y-122209806D01*
X188556688Y-122360214D01*
X188599122Y-122402353D01*
X188640985Y-122445102D01*
X188648086Y-122450975D01*
X188799357Y-122574350D01*
X188849191Y-122607460D01*
X188898541Y-122641251D01*
X188906648Y-122645634D01*
X189079004Y-122737277D01*
X189134330Y-122760081D01*
X189189291Y-122783637D01*
X189198094Y-122786362D01*
X189384967Y-122842782D01*
X189443632Y-122854398D01*
X189502156Y-122866838D01*
X189511321Y-122867801D01*
X189705594Y-122886850D01*
X189705598Y-122886850D01*
X189737581Y-122890000D01*
X207160000Y-122890000D01*
X207160001Y-140250211D01*
X207150420Y-140347924D01*
X207131420Y-140410857D01*
X207100554Y-140468906D01*
X207059011Y-140519843D01*
X207008356Y-140561748D01*
X206950529Y-140593015D01*
X206887728Y-140612456D01*
X206792165Y-140622500D01*
X189852279Y-140622500D01*
X189754576Y-140612920D01*
X189691643Y-140593920D01*
X189633594Y-140563054D01*
X189582657Y-140521511D01*
X189540752Y-140470856D01*
X189509485Y-140413029D01*
X189490044Y-140350228D01*
X189480000Y-140254665D01*
X189480000Y-139777581D01*
X189477217Y-139749326D01*
X189477260Y-139743199D01*
X189476360Y-139734028D01*
X189455959Y-139539931D01*
X189443934Y-139481348D01*
X189432723Y-139422577D01*
X189430059Y-139413755D01*
X189372347Y-139227317D01*
X189349162Y-139172162D01*
X189326758Y-139116709D01*
X189322432Y-139108573D01*
X189229607Y-138936896D01*
X189196139Y-138887278D01*
X189163400Y-138837247D01*
X189157576Y-138830106D01*
X189033172Y-138679728D01*
X188990737Y-138637589D01*
X188948874Y-138594839D01*
X188941773Y-138588966D01*
X188790531Y-138465616D01*
X188740738Y-138432534D01*
X188691349Y-138398716D01*
X188683243Y-138394333D01*
X188510921Y-138302708D01*
X188455606Y-138279909D01*
X188400634Y-138256348D01*
X188391831Y-138253623D01*
X188204995Y-138197214D01*
X188146307Y-138185594D01*
X188087804Y-138173158D01*
X188078639Y-138172195D01*
X187884405Y-138153150D01*
X187884397Y-138153150D01*
X187852573Y-138150008D01*
X170802362Y-138146008D01*
X170704576Y-138136420D01*
X170641643Y-138117420D01*
X170583594Y-138086554D01*
X170532657Y-138045011D01*
X170490752Y-137994356D01*
X170459485Y-137936529D01*
X170440044Y-137873728D01*
X170430000Y-137778165D01*
X170430000Y-137487581D01*
X170427217Y-137459326D01*
X170427260Y-137453199D01*
X170426360Y-137444028D01*
X170405959Y-137249931D01*
X170393934Y-137191348D01*
X170382723Y-137132577D01*
X170380059Y-137123755D01*
X170322347Y-136937317D01*
X170299162Y-136882162D01*
X170276758Y-136826709D01*
X170272432Y-136818573D01*
X170179607Y-136646896D01*
X170146139Y-136597278D01*
X170113400Y-136547247D01*
X170107576Y-136540106D01*
X169983172Y-136389728D01*
X169940737Y-136347589D01*
X169898874Y-136304839D01*
X169891773Y-136298966D01*
X169740531Y-136175616D01*
X169690738Y-136142534D01*
X169641349Y-136108716D01*
X169633243Y-136104333D01*
X169460921Y-136012708D01*
X169405606Y-135989909D01*
X169350634Y-135966348D01*
X169341831Y-135963623D01*
X169154995Y-135907214D01*
X169096307Y-135895594D01*
X169037804Y-135883158D01*
X169028639Y-135882195D01*
X168834405Y-135863150D01*
X168834402Y-135863150D01*
X168802419Y-135860000D01*
X151752279Y-135860000D01*
X151654576Y-135850420D01*
X151591643Y-135831420D01*
X151533594Y-135800554D01*
X151482657Y-135759011D01*
X151440752Y-135708356D01*
X151409485Y-135650529D01*
X151390044Y-135587728D01*
X151380000Y-135492165D01*
X151380000Y-120630000D01*
X152177089Y-120630000D01*
X152185000Y-120710322D01*
X152185001Y-133349668D01*
X152177089Y-133430000D01*
X152185001Y-133510332D01*
X152185001Y-133520322D01*
X152208658Y-133760516D01*
X152302149Y-134068715D01*
X152453970Y-134352752D01*
X152658287Y-134601714D01*
X152907249Y-134806031D01*
X153191286Y-134957852D01*
X153499485Y-135051343D01*
X153820000Y-135082911D01*
X154001854Y-135065000D01*
X166539678Y-135065000D01*
X166620000Y-135072911D01*
X166940516Y-135041343D01*
X167248715Y-134947852D01*
X167532752Y-134796031D01*
X167781714Y-134591714D01*
X167986031Y-134342752D01*
X168137852Y-134058715D01*
X168231343Y-133750516D01*
X168255000Y-133510322D01*
X168262911Y-133430000D01*
X168255000Y-133349678D01*
X168255000Y-122910000D01*
X171227089Y-122910000D01*
X171235000Y-122990322D01*
X171235001Y-135629668D01*
X171227089Y-135710000D01*
X171235001Y-135790332D01*
X171235001Y-135800322D01*
X171258658Y-136040516D01*
X171352149Y-136348715D01*
X171503970Y-136632752D01*
X171708287Y-136881714D01*
X171957249Y-137086031D01*
X172241286Y-137237852D01*
X172549485Y-137331343D01*
X172870000Y-137362911D01*
X173051854Y-137345000D01*
X185589678Y-137345000D01*
X185670000Y-137352911D01*
X185990516Y-137321343D01*
X186298715Y-137227852D01*
X186582752Y-137076031D01*
X186831714Y-136871714D01*
X187036031Y-136622752D01*
X187187852Y-136338715D01*
X187281343Y-136030516D01*
X187305000Y-135790322D01*
X187312911Y-135710000D01*
X187305000Y-135629678D01*
X187305000Y-125380000D01*
X190277089Y-125380000D01*
X190285000Y-125460322D01*
X190285001Y-138099668D01*
X190277089Y-138180000D01*
X190285001Y-138260332D01*
X190285001Y-138270322D01*
X190308658Y-138510516D01*
X190402149Y-138818715D01*
X190553970Y-139102752D01*
X190758287Y-139351714D01*
X191007249Y-139556031D01*
X191291286Y-139707852D01*
X191599485Y-139801343D01*
X191920000Y-139832911D01*
X192101854Y-139815000D01*
X204639678Y-139815000D01*
X204720000Y-139822911D01*
X204874126Y-139807731D01*
X205040516Y-139791343D01*
X205348715Y-139697852D01*
X205632752Y-139546031D01*
X205881714Y-139341714D01*
X206086031Y-139092752D01*
X206237852Y-138808715D01*
X206331343Y-138500516D01*
X206362911Y-138180000D01*
X206355000Y-138099678D01*
X206355000Y-125460322D01*
X206362911Y-125380000D01*
X206331343Y-125059484D01*
X206237852Y-124751285D01*
X206086031Y-124467248D01*
X205881714Y-124218286D01*
X205632752Y-124013969D01*
X205348715Y-123862148D01*
X205040516Y-123768657D01*
X204800322Y-123745000D01*
X204720000Y-123737089D01*
X204639678Y-123745000D01*
X191839678Y-123745000D01*
X191599484Y-123768657D01*
X191291285Y-123862148D01*
X191007248Y-124013969D01*
X190758286Y-124218286D01*
X190553969Y-124467248D01*
X190402148Y-124751285D01*
X190308657Y-125059484D01*
X190277089Y-125380000D01*
X187305000Y-125380000D01*
X187305000Y-122990322D01*
X187312911Y-122910000D01*
X187300248Y-122781425D01*
X187281343Y-122589484D01*
X187187852Y-122281285D01*
X187036031Y-121997248D01*
X186831714Y-121748286D01*
X186814102Y-121733832D01*
X186582752Y-121543969D01*
X186298715Y-121392148D01*
X185990516Y-121298657D01*
X185750322Y-121275000D01*
X185670000Y-121267089D01*
X185589678Y-121275000D01*
X172789678Y-121275000D01*
X172549484Y-121298657D01*
X172241285Y-121392148D01*
X171957248Y-121543969D01*
X171708286Y-121748286D01*
X171503969Y-121997248D01*
X171352148Y-122281285D01*
X171258657Y-122589484D01*
X171227089Y-122910000D01*
X168255000Y-122910000D01*
X168255000Y-120710322D01*
X168262911Y-120630000D01*
X168231343Y-120309484D01*
X168137852Y-120001285D01*
X167986031Y-119717248D01*
X167781714Y-119468286D01*
X167532752Y-119263969D01*
X167248715Y-119112148D01*
X166940516Y-119018657D01*
X166700322Y-118995000D01*
X166620000Y-118987089D01*
X166539678Y-118995000D01*
X153739678Y-118995000D01*
X153499484Y-119018657D01*
X153191285Y-119112148D01*
X152907248Y-119263969D01*
X152658286Y-119468286D01*
X152453969Y-119717248D01*
X152302148Y-120001285D01*
X152208657Y-120309484D01*
X152177089Y-120630000D01*
X151380000Y-120630000D01*
X151380000Y-113675081D01*
X151377217Y-113646826D01*
X151377260Y-113640699D01*
X151376360Y-113631528D01*
X151355959Y-113437431D01*
X151343934Y-113378848D01*
X151332723Y-113320077D01*
X151330059Y-113311255D01*
X151272347Y-113124817D01*
X151249162Y-113069662D01*
X151226758Y-113014209D01*
X151222432Y-113006073D01*
X151129607Y-112834396D01*
X151096139Y-112784778D01*
X151063400Y-112734747D01*
X151057576Y-112727606D01*
X150933172Y-112577228D01*
X150890737Y-112535089D01*
X150848874Y-112492339D01*
X150841773Y-112486466D01*
X150690531Y-112363116D01*
X150640738Y-112330034D01*
X150591349Y-112296216D01*
X150583243Y-112291833D01*
X150410921Y-112200208D01*
X150355606Y-112177409D01*
X150300634Y-112153848D01*
X150291831Y-112151123D01*
X150104995Y-112094714D01*
X150046307Y-112083094D01*
X149987804Y-112070658D01*
X149978639Y-112069695D01*
X149784405Y-112050650D01*
X149784402Y-112050650D01*
X149752419Y-112047500D01*
X132587581Y-112047500D01*
X132559326Y-112050283D01*
X132553199Y-112050240D01*
X132544028Y-112051140D01*
X132349931Y-112071541D01*
X132291348Y-112083566D01*
X132232577Y-112094777D01*
X132223755Y-112097441D01*
X132037317Y-112155153D01*
X131982162Y-112178338D01*
X131926709Y-112200742D01*
X131918573Y-112205068D01*
X131746896Y-112297893D01*
X131697278Y-112331361D01*
X131647247Y-112364100D01*
X131640106Y-112369924D01*
X131489728Y-112494328D01*
X131447589Y-112536763D01*
X131404839Y-112578626D01*
X131398966Y-112585727D01*
X131275616Y-112736969D01*
X131242534Y-112786762D01*
X131208716Y-112836151D01*
X131204333Y-112844257D01*
X131112708Y-113016579D01*
X131089909Y-113071894D01*
X131066348Y-113126866D01*
X131063623Y-113135669D01*
X131007214Y-113322505D01*
X130995594Y-113381193D01*
X130983158Y-113439696D01*
X130982195Y-113448861D01*
X130963150Y-113643095D01*
X130960000Y-113675082D01*
X130960001Y-116437711D01*
X130950420Y-116535424D01*
X130931420Y-116598357D01*
X130900554Y-116656406D01*
X130859011Y-116707343D01*
X130808356Y-116749248D01*
X130750529Y-116780515D01*
X130687728Y-116799956D01*
X130592165Y-116810000D01*
X113537581Y-116810000D01*
X113509326Y-116812783D01*
X113503199Y-116812740D01*
X113494028Y-116813640D01*
X113299931Y-116834041D01*
X113241348Y-116846066D01*
X113182577Y-116857277D01*
X113173755Y-116859941D01*
X112987317Y-116917653D01*
X112932162Y-116940838D01*
X112876709Y-116963242D01*
X112868573Y-116967568D01*
X112696896Y-117060393D01*
X112647278Y-117093861D01*
X112597247Y-117126600D01*
X112590106Y-117132424D01*
X112439728Y-117256828D01*
X112397589Y-117299263D01*
X112354839Y-117341126D01*
X112348966Y-117348227D01*
X112225616Y-117499469D01*
X112192534Y-117549262D01*
X112158716Y-117598651D01*
X112154333Y-117606757D01*
X112062708Y-117779079D01*
X112039909Y-117834394D01*
X112016348Y-117889366D01*
X112013623Y-117898169D01*
X111957214Y-118085005D01*
X111945594Y-118143693D01*
X111933158Y-118202196D01*
X111932195Y-118211361D01*
X111913150Y-118405595D01*
X111910000Y-118437582D01*
X111910001Y-123486211D01*
X111900420Y-123583924D01*
X111881420Y-123646857D01*
X111850554Y-123704906D01*
X111809011Y-123755843D01*
X111758356Y-123797748D01*
X111700529Y-123829015D01*
X111637728Y-123848456D01*
X111542165Y-123858500D01*
X94487581Y-123858500D01*
X94459326Y-123861283D01*
X94453199Y-123861240D01*
X94444028Y-123862140D01*
X94249931Y-123882541D01*
X94191348Y-123894566D01*
X94132577Y-123905777D01*
X94123755Y-123908441D01*
X93937317Y-123966153D01*
X93882162Y-123989338D01*
X93826709Y-124011742D01*
X93818573Y-124016068D01*
X93646896Y-124108893D01*
X93597278Y-124142361D01*
X93547247Y-124175100D01*
X93540106Y-124180924D01*
X93389728Y-124305328D01*
X93347589Y-124347763D01*
X93304839Y-124389626D01*
X93298966Y-124396727D01*
X93175616Y-124547969D01*
X93142534Y-124597762D01*
X93108716Y-124647151D01*
X93104333Y-124655257D01*
X93012708Y-124827579D01*
X92989909Y-124882894D01*
X92966348Y-124937866D01*
X92963623Y-124946669D01*
X92907214Y-125133505D01*
X92895594Y-125192193D01*
X92883158Y-125250696D01*
X92882195Y-125259861D01*
X92863150Y-125454095D01*
X92860000Y-125486082D01*
X92860000Y-125962721D01*
X92850420Y-126060424D01*
X92831420Y-126123357D01*
X92800554Y-126181406D01*
X92759011Y-126232343D01*
X92708356Y-126274248D01*
X92650529Y-126305515D01*
X92587728Y-126324956D01*
X92492165Y-126335000D01*
X75552279Y-126335000D01*
X75454576Y-126325420D01*
X75391643Y-126306420D01*
X75333594Y-126275554D01*
X75282657Y-126234011D01*
X75240752Y-126183356D01*
X75209485Y-126125529D01*
X75190044Y-126062728D01*
X75180000Y-125967165D01*
X75180000Y-111100000D01*
X75977089Y-111100000D01*
X75985000Y-111180322D01*
X75985001Y-123819668D01*
X75977089Y-123900000D01*
X75985001Y-123980332D01*
X75985001Y-123990322D01*
X76008658Y-124230516D01*
X76102149Y-124538715D01*
X76253970Y-124822752D01*
X76458287Y-125071714D01*
X76707249Y-125276031D01*
X76991286Y-125427852D01*
X77299485Y-125521343D01*
X77620000Y-125552911D01*
X77801854Y-125535000D01*
X90339678Y-125535000D01*
X90420000Y-125542911D01*
X90522162Y-125532849D01*
X90740516Y-125511343D01*
X91048715Y-125417852D01*
X91332752Y-125266031D01*
X91581714Y-125061714D01*
X91786031Y-124812752D01*
X91937852Y-124528715D01*
X92031343Y-124220516D01*
X92044385Y-124088098D01*
X92055000Y-123980322D01*
X92062911Y-123900000D01*
X92055000Y-123819678D01*
X92055000Y-111180322D01*
X92062911Y-111100000D01*
X92031343Y-110779484D01*
X91937852Y-110471285D01*
X91786031Y-110187248D01*
X91581714Y-109938286D01*
X91332752Y-109733969D01*
X91048715Y-109582148D01*
X90740516Y-109488657D01*
X90500322Y-109465000D01*
X90420000Y-109457089D01*
X90339678Y-109465000D01*
X77539678Y-109465000D01*
X77299484Y-109488657D01*
X76991285Y-109582148D01*
X76707248Y-109733969D01*
X76458286Y-109938286D01*
X76253969Y-110187248D01*
X76102148Y-110471285D01*
X76008657Y-110779484D01*
X75977089Y-111100000D01*
X75180000Y-111100000D01*
X75180000Y-108620000D01*
X95027089Y-108620000D01*
X95035000Y-108700322D01*
X95035001Y-121339668D01*
X95027089Y-121420000D01*
X95035001Y-121500332D01*
X95035001Y-121510322D01*
X95058658Y-121750516D01*
X95152149Y-122058715D01*
X95303970Y-122342752D01*
X95508287Y-122591714D01*
X95757249Y-122796031D01*
X96041286Y-122947852D01*
X96349485Y-123041343D01*
X96670000Y-123072911D01*
X96851854Y-123055000D01*
X109389678Y-123055000D01*
X109470000Y-123062911D01*
X109790516Y-123031343D01*
X110098715Y-122937852D01*
X110382752Y-122786031D01*
X110631714Y-122581714D01*
X110836031Y-122332752D01*
X110987852Y-122048715D01*
X111081343Y-121740516D01*
X111105000Y-121500322D01*
X111112911Y-121420000D01*
X111105000Y-121339678D01*
X111105000Y-108700322D01*
X111112911Y-108620000D01*
X111081343Y-108299484D01*
X110987852Y-107991285D01*
X110836031Y-107707248D01*
X110631714Y-107458286D01*
X110382752Y-107253969D01*
X110098715Y-107102148D01*
X109790516Y-107008657D01*
X109550322Y-106985000D01*
X109470000Y-106977089D01*
X109389678Y-106985000D01*
X96589678Y-106985000D01*
X96349484Y-107008657D01*
X96041285Y-107102148D01*
X95757248Y-107253969D01*
X95508286Y-107458286D01*
X95303969Y-107707248D01*
X95152148Y-107991285D01*
X95058657Y-108299484D01*
X95027089Y-108620000D01*
X75180000Y-108620000D01*
X75180000Y-100647581D01*
X75176802Y-100615110D01*
X75176802Y-100608617D01*
X75175838Y-100599452D01*
X75171094Y-100557161D01*
X75170450Y-100550617D01*
X75170308Y-100550149D01*
X75164959Y-100502459D01*
X75152530Y-100443983D01*
X75140904Y-100385264D01*
X75138178Y-100376461D01*
X75108666Y-100283427D01*
X75085119Y-100228488D01*
X75062303Y-100173133D01*
X75057919Y-100165027D01*
X75010898Y-100079498D01*
X74977111Y-100030154D01*
X74944005Y-99980324D01*
X74938131Y-99973224D01*
X74875394Y-99898456D01*
X74832683Y-99856630D01*
X74790503Y-99814154D01*
X74783361Y-99808330D01*
X74707296Y-99747173D01*
X74657244Y-99714420D01*
X74607649Y-99680967D01*
X74599517Y-99676644D01*
X74599513Y-99676641D01*
X74599509Y-99676639D01*
X74513016Y-99631422D01*
X74457584Y-99609026D01*
X74402408Y-99585832D01*
X74393586Y-99583169D01*
X74299955Y-99555612D01*
X74241256Y-99544415D01*
X74182600Y-99532374D01*
X74173429Y-99531475D01*
X74076228Y-99522629D01*
X74016411Y-99523047D01*
X73956594Y-99522629D01*
X73947423Y-99523528D01*
X73850355Y-99533730D01*
X73791746Y-99545761D01*
X73732994Y-99556968D01*
X73724173Y-99559632D01*
X73630936Y-99588494D01*
X73575780Y-99611680D01*
X73520331Y-99634082D01*
X73512194Y-99638408D01*
X73426338Y-99684830D01*
X73376731Y-99718290D01*
X73326691Y-99751035D01*
X73319550Y-99756860D01*
X73244346Y-99819074D01*
X73202221Y-99861494D01*
X73159455Y-99903374D01*
X73153581Y-99910474D01*
X73091894Y-99986111D01*
X73058810Y-100035906D01*
X73024996Y-100085289D01*
X73020614Y-100093396D01*
X73009540Y-100114222D01*
X73012911Y-100080000D01*
X73005000Y-99999678D01*
X73005000Y-98376843D01*
X73029002Y-98420502D01*
X73062809Y-98469874D01*
X73095896Y-98519675D01*
X73101770Y-98526776D01*
X73164507Y-98601544D01*
X73207237Y-98643389D01*
X73249398Y-98685845D01*
X73256540Y-98691669D01*
X73332605Y-98752827D01*
X73382657Y-98785580D01*
X73432252Y-98819033D01*
X73440384Y-98823356D01*
X73440388Y-98823359D01*
X73440392Y-98823361D01*
X73526885Y-98868578D01*
X73582317Y-98890974D01*
X73637493Y-98914168D01*
X73646315Y-98916831D01*
X73739946Y-98944388D01*
X73798659Y-98955588D01*
X73857302Y-98967626D01*
X73866473Y-98968525D01*
X73963673Y-98977371D01*
X74023490Y-98976953D01*
X74083307Y-98977371D01*
X74092478Y-98976472D01*
X74189546Y-98966270D01*
X74248155Y-98954239D01*
X74306907Y-98943032D01*
X74315728Y-98940368D01*
X74408965Y-98911506D01*
X74464108Y-98888326D01*
X74519571Y-98865918D01*
X74527707Y-98861592D01*
X74613564Y-98815169D01*
X74663154Y-98781721D01*
X74713210Y-98748965D01*
X74720346Y-98743144D01*
X74720352Y-98743140D01*
X74720357Y-98743135D01*
X74795555Y-98680927D01*
X74837732Y-98638454D01*
X74880446Y-98596626D01*
X74886318Y-98589528D01*
X74886319Y-98589527D01*
X74886322Y-98589523D01*
X74948007Y-98513889D01*
X74981087Y-98464099D01*
X75014905Y-98414710D01*
X75019287Y-98406604D01*
X75065110Y-98320426D01*
X75087902Y-98265129D01*
X75111472Y-98210135D01*
X75114196Y-98201332D01*
X75142407Y-98107895D01*
X75154028Y-98049202D01*
X75166462Y-97990704D01*
X75167425Y-97981539D01*
X75176949Y-97884403D01*
X75176949Y-97884396D01*
X75180099Y-97852406D01*
X75179999Y-92567569D01*
X75176802Y-92535115D01*
X75176802Y-92528617D01*
X75175838Y-92519452D01*
X75171081Y-92477037D01*
X75170447Y-92470605D01*
X75170308Y-92470146D01*
X75164959Y-92422459D01*
X75152530Y-92363983D01*
X75140904Y-92305264D01*
X75138178Y-92296461D01*
X75108666Y-92203427D01*
X75085119Y-92148488D01*
X75062303Y-92093133D01*
X75057919Y-92085027D01*
X75038663Y-92050000D01*
X75977089Y-92050000D01*
X75985000Y-92130322D01*
X75985001Y-104769668D01*
X75977089Y-104850000D01*
X75985001Y-104930332D01*
X75985001Y-104940322D01*
X76008658Y-105180516D01*
X76102149Y-105488715D01*
X76253970Y-105772752D01*
X76458287Y-106021714D01*
X76707249Y-106226031D01*
X76991286Y-106377852D01*
X77299485Y-106471343D01*
X77620000Y-106502911D01*
X77801854Y-106485000D01*
X90339678Y-106485000D01*
X90420000Y-106492911D01*
X90740516Y-106461343D01*
X91048715Y-106367852D01*
X91332752Y-106216031D01*
X91581714Y-106011714D01*
X91786031Y-105762752D01*
X91937852Y-105478715D01*
X92031343Y-105170516D01*
X92055000Y-104930322D01*
X92062911Y-104850000D01*
X92055000Y-104769678D01*
X92055000Y-92130322D01*
X92062911Y-92050000D01*
X92031343Y-91729484D01*
X91937852Y-91421285D01*
X91786031Y-91137248D01*
X91581714Y-90888286D01*
X91332752Y-90683969D01*
X91048715Y-90532148D01*
X90740516Y-90438657D01*
X90500322Y-90415000D01*
X90420000Y-90407089D01*
X90339678Y-90415000D01*
X77539678Y-90415000D01*
X77299484Y-90438657D01*
X76991285Y-90532148D01*
X76707248Y-90683969D01*
X76458286Y-90888286D01*
X76253969Y-91137248D01*
X76102148Y-91421285D01*
X76008657Y-91729484D01*
X75977089Y-92050000D01*
X75038663Y-92050000D01*
X75010898Y-91999498D01*
X74977111Y-91950154D01*
X74944005Y-91900324D01*
X74938131Y-91893224D01*
X74875394Y-91818456D01*
X74832683Y-91776630D01*
X74790503Y-91734154D01*
X74783361Y-91728330D01*
X74707296Y-91667173D01*
X74657244Y-91634420D01*
X74607649Y-91600967D01*
X74599517Y-91596644D01*
X74599513Y-91596641D01*
X74599509Y-91596639D01*
X74513016Y-91551422D01*
X74457584Y-91529026D01*
X74402408Y-91505832D01*
X74393586Y-91503169D01*
X74299955Y-91475612D01*
X74241256Y-91464415D01*
X74182600Y-91452374D01*
X74173429Y-91451475D01*
X74076228Y-91442629D01*
X74016411Y-91443047D01*
X73956594Y-91442629D01*
X73947423Y-91443528D01*
X73850355Y-91453730D01*
X73791746Y-91465761D01*
X73732994Y-91476968D01*
X73724173Y-91479632D01*
X73630936Y-91508494D01*
X73575780Y-91531680D01*
X73520331Y-91554082D01*
X73512194Y-91558408D01*
X73426338Y-91604830D01*
X73376731Y-91638290D01*
X73326691Y-91671035D01*
X73319550Y-91676860D01*
X73244346Y-91739074D01*
X73202221Y-91781494D01*
X73159455Y-91823374D01*
X73153581Y-91830474D01*
X73091894Y-91906111D01*
X73058810Y-91955906D01*
X73024996Y-92005289D01*
X73020614Y-92013396D01*
X73005000Y-92042761D01*
X73005000Y-89570000D01*
X95027089Y-89570000D01*
X95035000Y-89650322D01*
X95035001Y-102289668D01*
X95027089Y-102370000D01*
X95035001Y-102450332D01*
X95035001Y-102460322D01*
X95058658Y-102700516D01*
X95152149Y-103008715D01*
X95303970Y-103292752D01*
X95508287Y-103541714D01*
X95757249Y-103746031D01*
X96041286Y-103897852D01*
X96349485Y-103991343D01*
X96670000Y-104022911D01*
X96851854Y-104005000D01*
X109389678Y-104005000D01*
X109470000Y-104012911D01*
X109790516Y-103981343D01*
X110098715Y-103887852D01*
X110382752Y-103736031D01*
X110631714Y-103531714D01*
X110836031Y-103282752D01*
X110987852Y-102998715D01*
X111081343Y-102690516D01*
X111105000Y-102450322D01*
X111112911Y-102370000D01*
X111105000Y-102289678D01*
X111105000Y-101570000D01*
X114077089Y-101570000D01*
X114085000Y-101650322D01*
X114085001Y-114289668D01*
X114077089Y-114370000D01*
X114085001Y-114450332D01*
X114085001Y-114460322D01*
X114108658Y-114700516D01*
X114202149Y-115008715D01*
X114353970Y-115292752D01*
X114558287Y-115541714D01*
X114807249Y-115746031D01*
X115091286Y-115897852D01*
X115399485Y-115991343D01*
X115720000Y-116022911D01*
X115901854Y-116005000D01*
X128439678Y-116005000D01*
X128520000Y-116012911D01*
X128840516Y-115981343D01*
X129148715Y-115887852D01*
X129432752Y-115736031D01*
X129681714Y-115531714D01*
X129886031Y-115282752D01*
X130037852Y-114998715D01*
X130131343Y-114690516D01*
X130155000Y-114450322D01*
X130162911Y-114370000D01*
X130155000Y-114289678D01*
X130155000Y-101650322D01*
X130162911Y-101570000D01*
X130131343Y-101249484D01*
X130037852Y-100941285D01*
X129886031Y-100657248D01*
X129681714Y-100408286D01*
X129432752Y-100203969D01*
X129148715Y-100052148D01*
X128840516Y-99958657D01*
X128600322Y-99935000D01*
X128520000Y-99927089D01*
X128439678Y-99935000D01*
X115639678Y-99935000D01*
X115399484Y-99958657D01*
X115091285Y-100052148D01*
X114807248Y-100203969D01*
X114558286Y-100408286D01*
X114353969Y-100657248D01*
X114202148Y-100941285D01*
X114108657Y-101249484D01*
X114077089Y-101570000D01*
X111105000Y-101570000D01*
X111105000Y-89650322D01*
X111112911Y-89570000D01*
X111081343Y-89249484D01*
X110987852Y-88941285D01*
X110836031Y-88657248D01*
X110631714Y-88408286D01*
X110382752Y-88203969D01*
X110098715Y-88052148D01*
X109790516Y-87958657D01*
X109550322Y-87935000D01*
X109470000Y-87927089D01*
X109389678Y-87935000D01*
X96589678Y-87935000D01*
X96349484Y-87958657D01*
X96041285Y-88052148D01*
X95757248Y-88203969D01*
X95508286Y-88408286D01*
X95303969Y-88657248D01*
X95152148Y-88941285D01*
X95058657Y-89249484D01*
X95027089Y-89570000D01*
X73005000Y-89570000D01*
X73005000Y-87360322D01*
X73008591Y-87323859D01*
X73012710Y-87329874D01*
X73045797Y-87379675D01*
X73051671Y-87386776D01*
X73114408Y-87461544D01*
X73157138Y-87503389D01*
X73199299Y-87545845D01*
X73206441Y-87551669D01*
X73282506Y-87612827D01*
X73332558Y-87645580D01*
X73382153Y-87679033D01*
X73390285Y-87683356D01*
X73390289Y-87683359D01*
X73390293Y-87683361D01*
X73476786Y-87728578D01*
X73532218Y-87750974D01*
X73587394Y-87774168D01*
X73596216Y-87776831D01*
X73689847Y-87804388D01*
X73748560Y-87815588D01*
X73807203Y-87827626D01*
X73816374Y-87828525D01*
X73913574Y-87837371D01*
X73973391Y-87836953D01*
X74033208Y-87837371D01*
X74042379Y-87836472D01*
X74139447Y-87826270D01*
X74198056Y-87814239D01*
X74256808Y-87803032D01*
X74265629Y-87800368D01*
X74358866Y-87771506D01*
X74414009Y-87748326D01*
X74469472Y-87725918D01*
X74477608Y-87721592D01*
X74563465Y-87675169D01*
X74613055Y-87641721D01*
X74663111Y-87608965D01*
X74670247Y-87603144D01*
X74670253Y-87603140D01*
X74670258Y-87603135D01*
X74745456Y-87540927D01*
X74787633Y-87498454D01*
X74830347Y-87456626D01*
X74836219Y-87449528D01*
X74836220Y-87449527D01*
X74836223Y-87449523D01*
X74897908Y-87373889D01*
X74930988Y-87324099D01*
X74964806Y-87274710D01*
X74969188Y-87266604D01*
X75015011Y-87180426D01*
X75037803Y-87125129D01*
X75061373Y-87070135D01*
X75064097Y-87061332D01*
X75092308Y-86967895D01*
X75103929Y-86909202D01*
X75116363Y-86850704D01*
X75117326Y-86841539D01*
X75126850Y-86744403D01*
X75126850Y-86744402D01*
X75130000Y-86712419D01*
X75130000Y-73000000D01*
X75977089Y-73000000D01*
X75985000Y-73080322D01*
X75985001Y-85719668D01*
X75977089Y-85800000D01*
X75985001Y-85880332D01*
X75985001Y-85890322D01*
X76008658Y-86130516D01*
X76102149Y-86438715D01*
X76253970Y-86722752D01*
X76458287Y-86971714D01*
X76707249Y-87176031D01*
X76991286Y-87327852D01*
X77299485Y-87421343D01*
X77620000Y-87452911D01*
X77801854Y-87435000D01*
X90339678Y-87435000D01*
X90420000Y-87442911D01*
X90515339Y-87433521D01*
X90740516Y-87411343D01*
X91048715Y-87317852D01*
X91332752Y-87166031D01*
X91581714Y-86961714D01*
X91786031Y-86712752D01*
X91937852Y-86428715D01*
X92031343Y-86120516D01*
X92062911Y-85800000D01*
X92055000Y-85719678D01*
X92055000Y-73080322D01*
X92062911Y-73000000D01*
X92031343Y-72679484D01*
X91937852Y-72371285D01*
X91786031Y-72087248D01*
X91581714Y-71838286D01*
X91332752Y-71633969D01*
X91048715Y-71482148D01*
X90740516Y-71388657D01*
X90500322Y-71365000D01*
X90420000Y-71357089D01*
X90339678Y-71365000D01*
X77539678Y-71365000D01*
X77299484Y-71388657D01*
X76991285Y-71482148D01*
X76707248Y-71633969D01*
X76458286Y-71838286D01*
X76253969Y-72087248D01*
X76102148Y-72371285D01*
X76008657Y-72679484D01*
X75977089Y-73000000D01*
X75130000Y-73000000D01*
X75130000Y-71402279D01*
X75139580Y-71304576D01*
X75158580Y-71241644D01*
X75189445Y-71183595D01*
X75230989Y-71132657D01*
X75281644Y-71090752D01*
X75339471Y-71059485D01*
X75402272Y-71040044D01*
X75497837Y-71030000D01*
X82622310Y-71030099D01*
X82650223Y-71027350D01*
X82653208Y-71027371D01*
X82662379Y-71026472D01*
X82710552Y-71021409D01*
X82719274Y-71020550D01*
X82719565Y-71020462D01*
X82759447Y-71016270D01*
X82818056Y-71004239D01*
X82876808Y-70993032D01*
X82885629Y-70990368D01*
X82978866Y-70961506D01*
X83034009Y-70938326D01*
X83089472Y-70915918D01*
X83097608Y-70911592D01*
X83183465Y-70865169D01*
X83233055Y-70831721D01*
X83283111Y-70798965D01*
X83290247Y-70793144D01*
X83290253Y-70793140D01*
X83290258Y-70793135D01*
X83365456Y-70730927D01*
X83407633Y-70688454D01*
X83450347Y-70646626D01*
X83456219Y-70639528D01*
X83456220Y-70639527D01*
X83456223Y-70639523D01*
X83517908Y-70563889D01*
X83550988Y-70514099D01*
X83584806Y-70464710D01*
X83589188Y-70456604D01*
X83635011Y-70370426D01*
X83657803Y-70315129D01*
X83681373Y-70260135D01*
X83684097Y-70251332D01*
X83712308Y-70157895D01*
X83723929Y-70099202D01*
X83736363Y-70040704D01*
X83737326Y-70031539D01*
X83746850Y-69934403D01*
X83746850Y-69905595D01*
X83749964Y-69876946D01*
X83749980Y-69872269D01*
X84290004Y-69872269D01*
X84290016Y-69875760D01*
X84292930Y-69904459D01*
X84292728Y-69933307D01*
X84293627Y-69942478D01*
X84303829Y-70039546D01*
X84315860Y-70098155D01*
X84327067Y-70156907D01*
X84329731Y-70165728D01*
X84358593Y-70258965D01*
X84381773Y-70314108D01*
X84404181Y-70369571D01*
X84408507Y-70377707D01*
X84454930Y-70463564D01*
X84488378Y-70513154D01*
X84521134Y-70563210D01*
X84526955Y-70570346D01*
X84526959Y-70570352D01*
X84526964Y-70570357D01*
X84589172Y-70645555D01*
X84631645Y-70687732D01*
X84673473Y-70730446D01*
X84680568Y-70736315D01*
X84680572Y-70736319D01*
X84680574Y-70736320D01*
X84756210Y-70798007D01*
X84806000Y-70831087D01*
X84855389Y-70864905D01*
X84863495Y-70869287D01*
X84949673Y-70915110D01*
X85004970Y-70937902D01*
X85059964Y-70961472D01*
X85068767Y-70964196D01*
X85162204Y-70992407D01*
X85220897Y-71004028D01*
X85279395Y-71016462D01*
X85288560Y-71017425D01*
X85385696Y-71026949D01*
X85385697Y-71026949D01*
X85417680Y-71030099D01*
X93072419Y-71030099D01*
X93101612Y-71027224D01*
X93106801Y-71027260D01*
X93115972Y-71026360D01*
X93310069Y-71005959D01*
X93368658Y-70993932D01*
X93427423Y-70982723D01*
X93436245Y-70980059D01*
X93622683Y-70922347D01*
X93677838Y-70899162D01*
X93733291Y-70876758D01*
X93741427Y-70872432D01*
X93913104Y-70779607D01*
X93962699Y-70746154D01*
X94012753Y-70713400D01*
X94019894Y-70707576D01*
X94170272Y-70583172D01*
X94212411Y-70540737D01*
X94233587Y-70520000D01*
X95027089Y-70520000D01*
X95035000Y-70600322D01*
X95035001Y-83239668D01*
X95027089Y-83320000D01*
X95035001Y-83400332D01*
X95035001Y-83410322D01*
X95058658Y-83650516D01*
X95152149Y-83958715D01*
X95303970Y-84242752D01*
X95508287Y-84491714D01*
X95757249Y-84696031D01*
X96041286Y-84847852D01*
X96349485Y-84941343D01*
X96670000Y-84972911D01*
X96851854Y-84955000D01*
X109389678Y-84955000D01*
X109470000Y-84962911D01*
X109790516Y-84931343D01*
X110098715Y-84837852D01*
X110382752Y-84686031D01*
X110631714Y-84481714D01*
X110836031Y-84232752D01*
X110987852Y-83948715D01*
X111081343Y-83640516D01*
X111105000Y-83400322D01*
X111112911Y-83320000D01*
X111105000Y-83239678D01*
X111105000Y-82520000D01*
X114077089Y-82520000D01*
X114085000Y-82600322D01*
X114085001Y-95239668D01*
X114077089Y-95320000D01*
X114085001Y-95400332D01*
X114085001Y-95410322D01*
X114108658Y-95650516D01*
X114202149Y-95958715D01*
X114353970Y-96242752D01*
X114558287Y-96491714D01*
X114807249Y-96696031D01*
X115091286Y-96847852D01*
X115399485Y-96941343D01*
X115720000Y-96972911D01*
X115901854Y-96955000D01*
X128439678Y-96955000D01*
X128520000Y-96962911D01*
X128840516Y-96931343D01*
X129148715Y-96837852D01*
X129200822Y-96810000D01*
X133127089Y-96810000D01*
X133135000Y-96890322D01*
X133135001Y-109529668D01*
X133127089Y-109610000D01*
X133135001Y-109690332D01*
X133135001Y-109700322D01*
X133158658Y-109940516D01*
X133252149Y-110248715D01*
X133403970Y-110532752D01*
X133608287Y-110781714D01*
X133857249Y-110986031D01*
X134141286Y-111137852D01*
X134449485Y-111231343D01*
X134770000Y-111262911D01*
X134951854Y-111245000D01*
X147489678Y-111245000D01*
X147570000Y-111252911D01*
X147890516Y-111221343D01*
X148198715Y-111127852D01*
X148482752Y-110976031D01*
X148731714Y-110771714D01*
X148936031Y-110522752D01*
X149087852Y-110238715D01*
X149181343Y-109930516D01*
X149205000Y-109690322D01*
X149212911Y-109610000D01*
X149205000Y-109529678D01*
X149205000Y-101580000D01*
X152177089Y-101580000D01*
X152185000Y-101660322D01*
X152185001Y-114299668D01*
X152177089Y-114380000D01*
X152185001Y-114460332D01*
X152185001Y-114470322D01*
X152208658Y-114710516D01*
X152302149Y-115018715D01*
X152453970Y-115302752D01*
X152658287Y-115551714D01*
X152907249Y-115756031D01*
X153191286Y-115907852D01*
X153499485Y-116001343D01*
X153820000Y-116032911D01*
X154001854Y-116015000D01*
X166539678Y-116015000D01*
X166620000Y-116022911D01*
X166940516Y-115991343D01*
X167248715Y-115897852D01*
X167532752Y-115746031D01*
X167781714Y-115541714D01*
X167986031Y-115292752D01*
X168137852Y-115008715D01*
X168231343Y-114700516D01*
X168255000Y-114460322D01*
X168262911Y-114380000D01*
X168255000Y-114299678D01*
X168255000Y-103860000D01*
X171227089Y-103860000D01*
X171235000Y-103940322D01*
X171235001Y-116579668D01*
X171227089Y-116660000D01*
X171235001Y-116740332D01*
X171235001Y-116750322D01*
X171258658Y-116990516D01*
X171352149Y-117298715D01*
X171503970Y-117582752D01*
X171708287Y-117831714D01*
X171957249Y-118036031D01*
X172241286Y-118187852D01*
X172549485Y-118281343D01*
X172870000Y-118312911D01*
X173051854Y-118295000D01*
X185589678Y-118295000D01*
X185670000Y-118302911D01*
X185905382Y-118279728D01*
X185990516Y-118271343D01*
X186298715Y-118177852D01*
X186582752Y-118026031D01*
X186831714Y-117821714D01*
X187036031Y-117572752D01*
X187187852Y-117288715D01*
X187281343Y-116980516D01*
X187295335Y-116838450D01*
X187305000Y-116740322D01*
X187312911Y-116660000D01*
X187305000Y-116579678D01*
X187305000Y-103940322D01*
X187312911Y-103860000D01*
X187300248Y-103731425D01*
X187281343Y-103539484D01*
X187187852Y-103231285D01*
X187036031Y-102947248D01*
X186831714Y-102698286D01*
X186802046Y-102673938D01*
X186582752Y-102493969D01*
X186298715Y-102342148D01*
X185990516Y-102248657D01*
X185750322Y-102225000D01*
X185670000Y-102217089D01*
X185589678Y-102225000D01*
X172789678Y-102225000D01*
X172549484Y-102248657D01*
X172241285Y-102342148D01*
X171957248Y-102493969D01*
X171708286Y-102698286D01*
X171503969Y-102947248D01*
X171352148Y-103231285D01*
X171258657Y-103539484D01*
X171227089Y-103860000D01*
X168255000Y-103860000D01*
X168255000Y-101660322D01*
X168262911Y-101580000D01*
X168231343Y-101259484D01*
X168137852Y-100951285D01*
X167986031Y-100667248D01*
X167781714Y-100418286D01*
X167532752Y-100213969D01*
X167248715Y-100062148D01*
X166940516Y-99968657D01*
X166700322Y-99945000D01*
X166620000Y-99937089D01*
X166539678Y-99945000D01*
X153739678Y-99945000D01*
X153499484Y-99968657D01*
X153191285Y-100062148D01*
X152907248Y-100213969D01*
X152658286Y-100418286D01*
X152453969Y-100667248D01*
X152302148Y-100951285D01*
X152208657Y-101259484D01*
X152177089Y-101580000D01*
X149205000Y-101580000D01*
X149205000Y-96890322D01*
X149212911Y-96810000D01*
X149181343Y-96489484D01*
X149087852Y-96181285D01*
X148936031Y-95897248D01*
X148731714Y-95648286D01*
X148482752Y-95443969D01*
X148198715Y-95292148D01*
X147890516Y-95198657D01*
X147650322Y-95175000D01*
X147570000Y-95167089D01*
X147489678Y-95175000D01*
X134689678Y-95175000D01*
X134449484Y-95198657D01*
X134141285Y-95292148D01*
X133857248Y-95443969D01*
X133608286Y-95648286D01*
X133403969Y-95897248D01*
X133252148Y-96181285D01*
X133158657Y-96489484D01*
X133127089Y-96810000D01*
X129200822Y-96810000D01*
X129432752Y-96686031D01*
X129681714Y-96481714D01*
X129886031Y-96232752D01*
X130037852Y-95948715D01*
X130131343Y-95640516D01*
X130155000Y-95400322D01*
X130162911Y-95320000D01*
X130155000Y-95239678D01*
X130155000Y-82600322D01*
X130162911Y-82520000D01*
X130131343Y-82199484D01*
X130037852Y-81891285D01*
X129886031Y-81607248D01*
X129681714Y-81358286D01*
X129432752Y-81153969D01*
X129148715Y-81002148D01*
X128840516Y-80908657D01*
X128600322Y-80885000D01*
X128520000Y-80877089D01*
X128439678Y-80885000D01*
X115639678Y-80885000D01*
X115399484Y-80908657D01*
X115091285Y-81002148D01*
X114807248Y-81153969D01*
X114558286Y-81358286D01*
X114353969Y-81607248D01*
X114202148Y-81891285D01*
X114108657Y-82199484D01*
X114077089Y-82520000D01*
X111105000Y-82520000D01*
X111105000Y-70600322D01*
X111112911Y-70520000D01*
X111098923Y-70377972D01*
X111081343Y-70199484D01*
X110987852Y-69891285D01*
X110836031Y-69607248D01*
X110631714Y-69358286D01*
X110607602Y-69338498D01*
X110382752Y-69153969D01*
X110098715Y-69002148D01*
X109790516Y-68908657D01*
X109550322Y-68885000D01*
X109470000Y-68877089D01*
X109389678Y-68885000D01*
X96589678Y-68885000D01*
X96349484Y-68908657D01*
X96041285Y-69002148D01*
X95757248Y-69153969D01*
X95508286Y-69358286D01*
X95303969Y-69607248D01*
X95152148Y-69891285D01*
X95058657Y-70199484D01*
X95027089Y-70520000D01*
X94233587Y-70520000D01*
X94255161Y-70498874D01*
X94261034Y-70491773D01*
X94384384Y-70340531D01*
X94417477Y-70290723D01*
X94451284Y-70241349D01*
X94455667Y-70233243D01*
X94547292Y-70060920D01*
X94570090Y-70005608D01*
X94593652Y-69950634D01*
X94596377Y-69941831D01*
X94652786Y-69754994D01*
X94664405Y-69696314D01*
X94676842Y-69637804D01*
X94677805Y-69628639D01*
X94696850Y-69434406D01*
X94696850Y-69434402D01*
X94700000Y-69402419D01*
X94700000Y-68922279D01*
X94709580Y-68824576D01*
X94728580Y-68761644D01*
X94759445Y-68703595D01*
X94800989Y-68652657D01*
X94851644Y-68610752D01*
X94909471Y-68579485D01*
X94972272Y-68560044D01*
X95067835Y-68550000D01*
X112132419Y-68550000D01*
X112160674Y-68547217D01*
X112166801Y-68547260D01*
X112175972Y-68546360D01*
X112370069Y-68525959D01*
X112428658Y-68513932D01*
X112487423Y-68502723D01*
X112496245Y-68500059D01*
X112682683Y-68442347D01*
X112737838Y-68419162D01*
X112793291Y-68396758D01*
X112801427Y-68392432D01*
X112973104Y-68299607D01*
X113022699Y-68266154D01*
X113072753Y-68233400D01*
X113079894Y-68227576D01*
X113230272Y-68103172D01*
X113272411Y-68060737D01*
X113315161Y-68018874D01*
X113321034Y-68011773D01*
X113444384Y-67860531D01*
X113477477Y-67810723D01*
X113511284Y-67761349D01*
X113515667Y-67753243D01*
X113607292Y-67580920D01*
X113630090Y-67525608D01*
X113653652Y-67470634D01*
X113656377Y-67461831D01*
X113712786Y-67274994D01*
X113724405Y-67216314D01*
X113736842Y-67157804D01*
X113737805Y-67148639D01*
X113756850Y-66954406D01*
X113756850Y-66954402D01*
X113760000Y-66922419D01*
X113760000Y-63470000D01*
X114077089Y-63470000D01*
X114085000Y-63550322D01*
X114085001Y-76189668D01*
X114077089Y-76270000D01*
X114085001Y-76350332D01*
X114085001Y-76360322D01*
X114108658Y-76600516D01*
X114202149Y-76908715D01*
X114353970Y-77192752D01*
X114558287Y-77441714D01*
X114807249Y-77646031D01*
X115091286Y-77797852D01*
X115399485Y-77891343D01*
X115720000Y-77922911D01*
X115901854Y-77905000D01*
X128439678Y-77905000D01*
X128520000Y-77912911D01*
X128840516Y-77881343D01*
X129148715Y-77787852D01*
X129200822Y-77760000D01*
X133127089Y-77760000D01*
X133135000Y-77840322D01*
X133135001Y-90479668D01*
X133127089Y-90560000D01*
X133135001Y-90640332D01*
X133135001Y-90650322D01*
X133158658Y-90890516D01*
X133252149Y-91198715D01*
X133403970Y-91482752D01*
X133608287Y-91731714D01*
X133857249Y-91936031D01*
X134141286Y-92087852D01*
X134449485Y-92181343D01*
X134770000Y-92212911D01*
X134951854Y-92195000D01*
X147489678Y-92195000D01*
X147570000Y-92202911D01*
X147890516Y-92171343D01*
X148198715Y-92077852D01*
X148482752Y-91926031D01*
X148731714Y-91721714D01*
X148936031Y-91472752D01*
X149087852Y-91188715D01*
X149181343Y-90880516D01*
X149205000Y-90640322D01*
X149212911Y-90560000D01*
X149205000Y-90479678D01*
X149205000Y-82530000D01*
X152177089Y-82530000D01*
X152185000Y-82610322D01*
X152185001Y-95249668D01*
X152177089Y-95330000D01*
X152185001Y-95410332D01*
X152185001Y-95420322D01*
X152208658Y-95660516D01*
X152302149Y-95968715D01*
X152453970Y-96252752D01*
X152658287Y-96501714D01*
X152907249Y-96706031D01*
X153191286Y-96857852D01*
X153499485Y-96951343D01*
X153820000Y-96982911D01*
X154001854Y-96965000D01*
X166539678Y-96965000D01*
X166620000Y-96972911D01*
X166940516Y-96941343D01*
X167248715Y-96847852D01*
X167532752Y-96696031D01*
X167781714Y-96491714D01*
X167986031Y-96242752D01*
X168137852Y-95958715D01*
X168231343Y-95650516D01*
X168255000Y-95410322D01*
X168262911Y-95330000D01*
X168255000Y-95249678D01*
X168255000Y-84810000D01*
X171227089Y-84810000D01*
X171235000Y-84890322D01*
X171235001Y-97529668D01*
X171227089Y-97610000D01*
X171235001Y-97690332D01*
X171235001Y-97700322D01*
X171258658Y-97940516D01*
X171352149Y-98248715D01*
X171503970Y-98532752D01*
X171708287Y-98781714D01*
X171957249Y-98986031D01*
X172241286Y-99137852D01*
X172549485Y-99231343D01*
X172870000Y-99262911D01*
X173051854Y-99245000D01*
X185589678Y-99245000D01*
X185670000Y-99252911D01*
X185990516Y-99221343D01*
X186298715Y-99127852D01*
X186582752Y-98976031D01*
X186831714Y-98771714D01*
X187036031Y-98522752D01*
X187187852Y-98238715D01*
X187281343Y-97930516D01*
X187305000Y-97690322D01*
X187312911Y-97610000D01*
X187305000Y-97529678D01*
X187305000Y-84890322D01*
X187312911Y-84810000D01*
X187281343Y-84489484D01*
X187187852Y-84181285D01*
X187036031Y-83897248D01*
X186831714Y-83648286D01*
X186582752Y-83443969D01*
X186298715Y-83292148D01*
X185990516Y-83198657D01*
X185750322Y-83175000D01*
X185670000Y-83167089D01*
X185589678Y-83175000D01*
X172789678Y-83175000D01*
X172549484Y-83198657D01*
X172241285Y-83292148D01*
X171957248Y-83443969D01*
X171708286Y-83648286D01*
X171503969Y-83897248D01*
X171352148Y-84181285D01*
X171258657Y-84489484D01*
X171227089Y-84810000D01*
X168255000Y-84810000D01*
X168255000Y-82610322D01*
X168262911Y-82530000D01*
X168231343Y-82209484D01*
X168137852Y-81901285D01*
X167986031Y-81617248D01*
X167781714Y-81368286D01*
X167532752Y-81163969D01*
X167248715Y-81012148D01*
X166940516Y-80918657D01*
X166700322Y-80895000D01*
X166620000Y-80887089D01*
X166539678Y-80895000D01*
X153739678Y-80895000D01*
X153499484Y-80918657D01*
X153191285Y-81012148D01*
X152907248Y-81163969D01*
X152658286Y-81368286D01*
X152453969Y-81617248D01*
X152302148Y-81901285D01*
X152208657Y-82209484D01*
X152177089Y-82530000D01*
X149205000Y-82530000D01*
X149205000Y-77840322D01*
X149212911Y-77760000D01*
X149181343Y-77439484D01*
X149087852Y-77131285D01*
X148936031Y-76847248D01*
X148731714Y-76598286D01*
X148482752Y-76393969D01*
X148198715Y-76242148D01*
X147890516Y-76148657D01*
X147650322Y-76125000D01*
X147570000Y-76117089D01*
X147489678Y-76125000D01*
X134689678Y-76125000D01*
X134449484Y-76148657D01*
X134141285Y-76242148D01*
X133857248Y-76393969D01*
X133608286Y-76598286D01*
X133403969Y-76847248D01*
X133252148Y-77131285D01*
X133158657Y-77439484D01*
X133127089Y-77760000D01*
X129200822Y-77760000D01*
X129432752Y-77636031D01*
X129681714Y-77431714D01*
X129886031Y-77182752D01*
X130037852Y-76898715D01*
X130131343Y-76590516D01*
X130155000Y-76350322D01*
X130162911Y-76270000D01*
X130155000Y-76189678D01*
X130155000Y-63550322D01*
X130162911Y-63470000D01*
X130131343Y-63149484D01*
X130037852Y-62841285D01*
X129886031Y-62557248D01*
X129681714Y-62308286D01*
X129432752Y-62103969D01*
X129148715Y-61952148D01*
X128840516Y-61858657D01*
X128600322Y-61835000D01*
X128520000Y-61827089D01*
X128439678Y-61835000D01*
X115639678Y-61835000D01*
X115399484Y-61858657D01*
X115091285Y-61952148D01*
X114807248Y-62103969D01*
X114558286Y-62308286D01*
X114353969Y-62557248D01*
X114202148Y-62841285D01*
X114108657Y-63149484D01*
X114077089Y-63470000D01*
X113760000Y-63470000D01*
X113760000Y-61872279D01*
X113769580Y-61774576D01*
X113788580Y-61711644D01*
X113819445Y-61653595D01*
X113860989Y-61602657D01*
X113911644Y-61560752D01*
X113969471Y-61529485D01*
X114032272Y-61510044D01*
X114127835Y-61500000D01*
X120722419Y-61500000D01*
X120750329Y-61497251D01*
X120753307Y-61497272D01*
X120762478Y-61496373D01*
X120810640Y-61491311D01*
X120819383Y-61490450D01*
X120819675Y-61490362D01*
X120859546Y-61486171D01*
X120918155Y-61474140D01*
X120976907Y-61462933D01*
X120985728Y-61460269D01*
X121078965Y-61431407D01*
X121134108Y-61408227D01*
X121189571Y-61385819D01*
X121197707Y-61381493D01*
X121283564Y-61335070D01*
X121333154Y-61301622D01*
X121383210Y-61268866D01*
X121390346Y-61263045D01*
X121390352Y-61263041D01*
X121390357Y-61263036D01*
X121465555Y-61200828D01*
X121507732Y-61158355D01*
X121550446Y-61116527D01*
X121556318Y-61109429D01*
X121556319Y-61109428D01*
X121556322Y-61109424D01*
X121618007Y-61033790D01*
X121651087Y-60984000D01*
X121684905Y-60934611D01*
X121689287Y-60926505D01*
X121735110Y-60840327D01*
X121757902Y-60785030D01*
X121781472Y-60730036D01*
X121784196Y-60721233D01*
X121812407Y-60627796D01*
X121824028Y-60569103D01*
X121836462Y-60510605D01*
X121837425Y-60501440D01*
X121846949Y-60404304D01*
X121846949Y-60374684D01*
X121849964Y-60346946D01*
X121849980Y-60342269D01*
X122390004Y-60342269D01*
X122390016Y-60345760D01*
X122392930Y-60374459D01*
X122392728Y-60403307D01*
X122393627Y-60412478D01*
X122403829Y-60509546D01*
X122415860Y-60568155D01*
X122427067Y-60626907D01*
X122429731Y-60635728D01*
X122458593Y-60728965D01*
X122481773Y-60784108D01*
X122504181Y-60839571D01*
X122508507Y-60847707D01*
X122554930Y-60933564D01*
X122588378Y-60983154D01*
X122621134Y-61033210D01*
X122626955Y-61040346D01*
X122626959Y-61040352D01*
X122626964Y-61040357D01*
X122689172Y-61115555D01*
X122731645Y-61157732D01*
X122773473Y-61200446D01*
X122780568Y-61206315D01*
X122780572Y-61206319D01*
X122780574Y-61206320D01*
X122856210Y-61268007D01*
X122906000Y-61301087D01*
X122955389Y-61334905D01*
X122963495Y-61339287D01*
X123049673Y-61385110D01*
X123104970Y-61407902D01*
X123159964Y-61431472D01*
X123168767Y-61434196D01*
X123262204Y-61462407D01*
X123320897Y-61474028D01*
X123379395Y-61486462D01*
X123388560Y-61487425D01*
X123485696Y-61496949D01*
X123485703Y-61496949D01*
X123517689Y-61500099D01*
X131182427Y-61499999D01*
X131210669Y-61497217D01*
X131216801Y-61497260D01*
X131225972Y-61496360D01*
X131420069Y-61475959D01*
X131478658Y-61463932D01*
X131537423Y-61452723D01*
X131546245Y-61450059D01*
X131732683Y-61392347D01*
X131787838Y-61369162D01*
X131843291Y-61346758D01*
X131851427Y-61342432D01*
X132023104Y-61249607D01*
X132072699Y-61216154D01*
X132122753Y-61183400D01*
X132129894Y-61177576D01*
X132280272Y-61053172D01*
X132322411Y-61010737D01*
X132365161Y-60968874D01*
X132371034Y-60961773D01*
X132494384Y-60810531D01*
X132527477Y-60760723D01*
X132561284Y-60711349D01*
X132565667Y-60703243D01*
X132657292Y-60530920D01*
X132680090Y-60475608D01*
X132703652Y-60420634D01*
X132706377Y-60411831D01*
X132762786Y-60224994D01*
X132774405Y-60166314D01*
X132786842Y-60107804D01*
X132787805Y-60098639D01*
X132806850Y-59904406D01*
X132806850Y-59904402D01*
X132810000Y-59872419D01*
X132810000Y-58710000D01*
X133127089Y-58710000D01*
X133135000Y-58790322D01*
X133135001Y-71429668D01*
X133127089Y-71510000D01*
X133135001Y-71590332D01*
X133135001Y-71600322D01*
X133158658Y-71840516D01*
X133252149Y-72148715D01*
X133403970Y-72432752D01*
X133608287Y-72681714D01*
X133857249Y-72886031D01*
X134141286Y-73037852D01*
X134449485Y-73131343D01*
X134770000Y-73162911D01*
X134951854Y-73145000D01*
X147489678Y-73145000D01*
X147570000Y-73152911D01*
X147890516Y-73121343D01*
X148198715Y-73027852D01*
X148482752Y-72876031D01*
X148731714Y-72671714D01*
X148936031Y-72422752D01*
X149087852Y-72138715D01*
X149181343Y-71830516D01*
X149205000Y-71590322D01*
X149212911Y-71510000D01*
X149205000Y-71429678D01*
X149205000Y-63480000D01*
X152177089Y-63480000D01*
X152185000Y-63560322D01*
X152185001Y-76199668D01*
X152177089Y-76280000D01*
X152185001Y-76360332D01*
X152185001Y-76370322D01*
X152208658Y-76610516D01*
X152302149Y-76918715D01*
X152453970Y-77202752D01*
X152658287Y-77451714D01*
X152907249Y-77656031D01*
X153191286Y-77807852D01*
X153499485Y-77901343D01*
X153820000Y-77932911D01*
X154001854Y-77915000D01*
X166539678Y-77915000D01*
X166620000Y-77922911D01*
X166940516Y-77891343D01*
X167248715Y-77797852D01*
X167532752Y-77646031D01*
X167781714Y-77441714D01*
X167986031Y-77192752D01*
X168137852Y-76908715D01*
X168231343Y-76600516D01*
X168255000Y-76360322D01*
X168262911Y-76280000D01*
X168255000Y-76199678D01*
X168255000Y-65760000D01*
X171227089Y-65760000D01*
X171235000Y-65840322D01*
X171235001Y-78479668D01*
X171227089Y-78560000D01*
X171235001Y-78640332D01*
X171235001Y-78650322D01*
X171258658Y-78890516D01*
X171352149Y-79198715D01*
X171503970Y-79482752D01*
X171708287Y-79731714D01*
X171957249Y-79936031D01*
X172241286Y-80087852D01*
X172549485Y-80181343D01*
X172870000Y-80212911D01*
X173051854Y-80195000D01*
X185589678Y-80195000D01*
X185670000Y-80202911D01*
X185990516Y-80171343D01*
X186298715Y-80077852D01*
X186582752Y-79926031D01*
X186831714Y-79721714D01*
X187036031Y-79472752D01*
X187187852Y-79188715D01*
X187281343Y-78880516D01*
X187305000Y-78640322D01*
X187312911Y-78560000D01*
X187305000Y-78479678D01*
X187305000Y-65840322D01*
X187312911Y-65760000D01*
X187281343Y-65439484D01*
X187187852Y-65131285D01*
X187036031Y-64847248D01*
X186831714Y-64598286D01*
X186582752Y-64393969D01*
X186298715Y-64242148D01*
X185990516Y-64148657D01*
X185750322Y-64125000D01*
X185670000Y-64117089D01*
X185589678Y-64125000D01*
X172789678Y-64125000D01*
X172549484Y-64148657D01*
X172241285Y-64242148D01*
X171957248Y-64393969D01*
X171708286Y-64598286D01*
X171503969Y-64847248D01*
X171352148Y-65131285D01*
X171258657Y-65439484D01*
X171227089Y-65760000D01*
X168255000Y-65760000D01*
X168255000Y-63560322D01*
X168262911Y-63480000D01*
X168247343Y-63321930D01*
X168231343Y-63159484D01*
X168137852Y-62851285D01*
X167986031Y-62567248D01*
X167781714Y-62318286D01*
X167735980Y-62280753D01*
X167532752Y-62113969D01*
X167248715Y-61962148D01*
X166940516Y-61868657D01*
X166700322Y-61845000D01*
X166620000Y-61837089D01*
X166539678Y-61845000D01*
X153739678Y-61845000D01*
X153499484Y-61868657D01*
X153191285Y-61962148D01*
X152907248Y-62113969D01*
X152658286Y-62318286D01*
X152453969Y-62567248D01*
X152302148Y-62851285D01*
X152208657Y-63159484D01*
X152177089Y-63480000D01*
X149205000Y-63480000D01*
X149205000Y-58790322D01*
X149212911Y-58710000D01*
X149181343Y-58389484D01*
X149087852Y-58081285D01*
X148936031Y-57797248D01*
X148731714Y-57548286D01*
X148482752Y-57343969D01*
X148198715Y-57192148D01*
X147890516Y-57098657D01*
X147650322Y-57075000D01*
X147570000Y-57067089D01*
X147489678Y-57075000D01*
X134689678Y-57075000D01*
X134449484Y-57098657D01*
X134141285Y-57192148D01*
X133857248Y-57343969D01*
X133608286Y-57548286D01*
X133403969Y-57797248D01*
X133252148Y-58081285D01*
X133158657Y-58389484D01*
X133127089Y-58710000D01*
X132810000Y-58710000D01*
X132810000Y-57122279D01*
X132819580Y-57024576D01*
X132838580Y-56961644D01*
X132869445Y-56903595D01*
X132910989Y-56852657D01*
X132961644Y-56810752D01*
X133019471Y-56779485D01*
X133082272Y-56760044D01*
X133177835Y-56750000D01*
X139772419Y-56750000D01*
X139800329Y-56747251D01*
X139803307Y-56747272D01*
X139812478Y-56746373D01*
X139860640Y-56741311D01*
X139869383Y-56740450D01*
X139869675Y-56740362D01*
X139909546Y-56736171D01*
X139968155Y-56724140D01*
X140026907Y-56712933D01*
X140035728Y-56710269D01*
X140128965Y-56681407D01*
X140184108Y-56658227D01*
X140239571Y-56635819D01*
X140247707Y-56631493D01*
X140333564Y-56585070D01*
X140383154Y-56551622D01*
X140433210Y-56518866D01*
X140440346Y-56513045D01*
X140440352Y-56513041D01*
X140440357Y-56513036D01*
X140515555Y-56450828D01*
X140557732Y-56408355D01*
X140600446Y-56366527D01*
X140606318Y-56359429D01*
X140606319Y-56359428D01*
X140606322Y-56359424D01*
X140668007Y-56283790D01*
X140701087Y-56234000D01*
X140734905Y-56184611D01*
X140739287Y-56176505D01*
X140785110Y-56090327D01*
X140807902Y-56035030D01*
X140831472Y-55980036D01*
X140834196Y-55971233D01*
X140862407Y-55877796D01*
X140874028Y-55819103D01*
X140886462Y-55760605D01*
X140887425Y-55751440D01*
X140896949Y-55654304D01*
X140896949Y-55624684D01*
X140899964Y-55596946D01*
X140899980Y-55592269D01*
X141440004Y-55592269D01*
X141440016Y-55595760D01*
X141442930Y-55624459D01*
X141442728Y-55653307D01*
X141443627Y-55662478D01*
X141453829Y-55759546D01*
X141465860Y-55818155D01*
X141477067Y-55876907D01*
X141479731Y-55885728D01*
X141508593Y-55978965D01*
X141531773Y-56034108D01*
X141554181Y-56089571D01*
X141558507Y-56097707D01*
X141604930Y-56183564D01*
X141638378Y-56233154D01*
X141671134Y-56283210D01*
X141676955Y-56290346D01*
X141676959Y-56290352D01*
X141676964Y-56290357D01*
X141739172Y-56365555D01*
X141781645Y-56407732D01*
X141823473Y-56450446D01*
X141830568Y-56456315D01*
X141830572Y-56456319D01*
X141830574Y-56456320D01*
X141906210Y-56518007D01*
X141956000Y-56551087D01*
X142005389Y-56584905D01*
X142013495Y-56589287D01*
X142099673Y-56635110D01*
X142154970Y-56657902D01*
X142209964Y-56681472D01*
X142218767Y-56684196D01*
X142312204Y-56712407D01*
X142370897Y-56724028D01*
X142429395Y-56736462D01*
X142438560Y-56737425D01*
X142535696Y-56746949D01*
X142535704Y-56746949D01*
X142567690Y-56750099D01*
X149157720Y-56750000D01*
X149255424Y-56759580D01*
X149318356Y-56778580D01*
X149376405Y-56809445D01*
X149427343Y-56850989D01*
X149469248Y-56901644D01*
X149500515Y-56959471D01*
X149519956Y-57022272D01*
X149530000Y-57117836D01*
X149530001Y-59882419D01*
X149532783Y-59910664D01*
X149532740Y-59916801D01*
X149533640Y-59925972D01*
X149554041Y-60120069D01*
X149566068Y-60178658D01*
X149577277Y-60237423D01*
X149579941Y-60246245D01*
X149637653Y-60432683D01*
X149660838Y-60487838D01*
X149683242Y-60543291D01*
X149687568Y-60551427D01*
X149780393Y-60723104D01*
X149813846Y-60772699D01*
X149846600Y-60822753D01*
X149852424Y-60829894D01*
X149976828Y-60980272D01*
X150019263Y-61022411D01*
X150061126Y-61065161D01*
X150068227Y-61071034D01*
X150219469Y-61194384D01*
X150269277Y-61227477D01*
X150318651Y-61261284D01*
X150326757Y-61265667D01*
X150499080Y-61357292D01*
X150554392Y-61380090D01*
X150609366Y-61403652D01*
X150618169Y-61406377D01*
X150805006Y-61462786D01*
X150863686Y-61474405D01*
X150922196Y-61486842D01*
X150931361Y-61487805D01*
X151125594Y-61506850D01*
X151125598Y-61506850D01*
X151157581Y-61510000D01*
X168217721Y-61510000D01*
X168315424Y-61519580D01*
X168378356Y-61538580D01*
X168436405Y-61569445D01*
X168487343Y-61610989D01*
X168529248Y-61661644D01*
X168560515Y-61719471D01*
X168579956Y-61782272D01*
X168590000Y-61877835D01*
X168590000Y-62172419D01*
X168592783Y-62200674D01*
X168592740Y-62206801D01*
X168593640Y-62215972D01*
X168614041Y-62410069D01*
X168626068Y-62468658D01*
X168637277Y-62527423D01*
X168639941Y-62536245D01*
X168697653Y-62722683D01*
X168720838Y-62777838D01*
X168743242Y-62833291D01*
X168747568Y-62841427D01*
X168840393Y-63013104D01*
X168873846Y-63062699D01*
X168906600Y-63112753D01*
X168912424Y-63119894D01*
X169036828Y-63270272D01*
X169079263Y-63312411D01*
X169121126Y-63355161D01*
X169128227Y-63361034D01*
X169279469Y-63484384D01*
X169329277Y-63517477D01*
X169378651Y-63551284D01*
X169386757Y-63555667D01*
X169559080Y-63647292D01*
X169614392Y-63670090D01*
X169669366Y-63693652D01*
X169678169Y-63696377D01*
X169865006Y-63752786D01*
X169923686Y-63764405D01*
X169982196Y-63776842D01*
X169991361Y-63777805D01*
X170185594Y-63796850D01*
X170185598Y-63796850D01*
X170217581Y-63800000D01*
X177872419Y-63800000D01*
X177900329Y-63797251D01*
X177903307Y-63797272D01*
X177912478Y-63796373D01*
X177960640Y-63791311D01*
X177969383Y-63790450D01*
X177969675Y-63790362D01*
X178009546Y-63786171D01*
X178068155Y-63774140D01*
X178126907Y-63762933D01*
X178135728Y-63760269D01*
X178228965Y-63731407D01*
X178284108Y-63708227D01*
X178339571Y-63685819D01*
X178347707Y-63681493D01*
X178433564Y-63635070D01*
X178483154Y-63601622D01*
X178533210Y-63568866D01*
X178540346Y-63563045D01*
X178540352Y-63563041D01*
X178540357Y-63563036D01*
X178615555Y-63500828D01*
X178657732Y-63458355D01*
X178700446Y-63416527D01*
X178706318Y-63409429D01*
X178706319Y-63409428D01*
X178706322Y-63409424D01*
X178768007Y-63333790D01*
X178801087Y-63284000D01*
X178834905Y-63234611D01*
X178839287Y-63226505D01*
X178885110Y-63140327D01*
X178907902Y-63085030D01*
X178931472Y-63030036D01*
X178934196Y-63021233D01*
X178962407Y-62927796D01*
X178974028Y-62869103D01*
X178986462Y-62810605D01*
X178987425Y-62801440D01*
X178996949Y-62704304D01*
X178996949Y-62674684D01*
X178999964Y-62646946D01*
X178999996Y-62637731D01*
X178999984Y-62634240D01*
X178997070Y-62605541D01*
X178997272Y-62576693D01*
X178996373Y-62567522D01*
X178986171Y-62470454D01*
X178974140Y-62411845D01*
X178962933Y-62353093D01*
X178960269Y-62344272D01*
X178931407Y-62251035D01*
X178908221Y-62195879D01*
X178885819Y-62140430D01*
X178881493Y-62132293D01*
X178835071Y-62046437D01*
X178801611Y-61996830D01*
X178768866Y-61946790D01*
X178763041Y-61939649D01*
X178700827Y-61864445D01*
X178658407Y-61822320D01*
X178616527Y-61779554D01*
X178609427Y-61773680D01*
X178533790Y-61711993D01*
X178483995Y-61678909D01*
X178434612Y-61645095D01*
X178426505Y-61640713D01*
X178426502Y-61640711D01*
X178426499Y-61640710D01*
X178340327Y-61594891D01*
X178285076Y-61572118D01*
X178230037Y-61548528D01*
X178221234Y-61545804D01*
X178127796Y-61517594D01*
X178069140Y-61505980D01*
X178010605Y-61493538D01*
X178001440Y-61492575D01*
X177904304Y-61483051D01*
X177904296Y-61483051D01*
X177872310Y-61479901D01*
X171282279Y-61480000D01*
X171184576Y-61470420D01*
X171121643Y-61451420D01*
X171063594Y-61420554D01*
X171012657Y-61379011D01*
X170970752Y-61328356D01*
X170939485Y-61270529D01*
X170920044Y-61207728D01*
X170910000Y-61112165D01*
X170910000Y-60817582D01*
X170907217Y-60789327D01*
X170907260Y-60783199D01*
X170906360Y-60774028D01*
X170885959Y-60579931D01*
X170873934Y-60521348D01*
X170862723Y-60462577D01*
X170860059Y-60453755D01*
X170802347Y-60267317D01*
X170779162Y-60212162D01*
X170756758Y-60156709D01*
X170752432Y-60148573D01*
X170659607Y-59976896D01*
X170626139Y-59927278D01*
X170593400Y-59877247D01*
X170587576Y-59870106D01*
X170463172Y-59719728D01*
X170420737Y-59677589D01*
X170378874Y-59634839D01*
X170371773Y-59628966D01*
X170220531Y-59505616D01*
X170170738Y-59472534D01*
X170121349Y-59438716D01*
X170113243Y-59434333D01*
X169940921Y-59342708D01*
X169885606Y-59319909D01*
X169830634Y-59296348D01*
X169821831Y-59293623D01*
X169634995Y-59237214D01*
X169576307Y-59225594D01*
X169517804Y-59213158D01*
X169508639Y-59212195D01*
X169314405Y-59193150D01*
X169314402Y-59193150D01*
X169282419Y-59190000D01*
X152222279Y-59190000D01*
X152124576Y-59180420D01*
X152061643Y-59161420D01*
X152003594Y-59130554D01*
X151952657Y-59089011D01*
X151910752Y-59038356D01*
X151879485Y-58980529D01*
X151860044Y-58917728D01*
X151850000Y-58822165D01*
X151850000Y-56057581D01*
X151847217Y-56029326D01*
X151847260Y-56023199D01*
X151846360Y-56014028D01*
X151825959Y-55819931D01*
X151813934Y-55761348D01*
X151802723Y-55702577D01*
X151800059Y-55693755D01*
X151742347Y-55507317D01*
X151719162Y-55452162D01*
X151696758Y-55396709D01*
X151692432Y-55388573D01*
X151599607Y-55216896D01*
X151566139Y-55167278D01*
X151533400Y-55117247D01*
X151527576Y-55110106D01*
X151403172Y-54959728D01*
X151360737Y-54917589D01*
X151318874Y-54874839D01*
X151311773Y-54868966D01*
X151160531Y-54745616D01*
X151110738Y-54712534D01*
X151061349Y-54678716D01*
X151053243Y-54674333D01*
X150880921Y-54582708D01*
X150825606Y-54559909D01*
X150770634Y-54536348D01*
X150761831Y-54533623D01*
X150574995Y-54477214D01*
X150516307Y-54465594D01*
X150457804Y-54453158D01*
X150448639Y-54452195D01*
X150254405Y-54433150D01*
X150254396Y-54433150D01*
X150222427Y-54430001D01*
X142567689Y-54429901D01*
X142539776Y-54432650D01*
X142536792Y-54432629D01*
X142527621Y-54433528D01*
X142479463Y-54438590D01*
X142470725Y-54439450D01*
X142470433Y-54439539D01*
X142430553Y-54443730D01*
X142371944Y-54455761D01*
X142313192Y-54466968D01*
X142304371Y-54469632D01*
X142211134Y-54498494D01*
X142155978Y-54521680D01*
X142100529Y-54544082D01*
X142092392Y-54548408D01*
X142006536Y-54594830D01*
X141956929Y-54628290D01*
X141906889Y-54661035D01*
X141899748Y-54666860D01*
X141824544Y-54729074D01*
X141782419Y-54771494D01*
X141739653Y-54813374D01*
X141733779Y-54820474D01*
X141672092Y-54896111D01*
X141639008Y-54945906D01*
X141605194Y-54995289D01*
X141600812Y-55003396D01*
X141554990Y-55089574D01*
X141532217Y-55144825D01*
X141508627Y-55199864D01*
X141505903Y-55208667D01*
X141477693Y-55302105D01*
X141466079Y-55360761D01*
X141453637Y-55419296D01*
X141452674Y-55428461D01*
X141443150Y-55525597D01*
X141443150Y-55554405D01*
X141440036Y-55583054D01*
X141440004Y-55592269D01*
X140899980Y-55592269D01*
X140899996Y-55587731D01*
X140899984Y-55584240D01*
X140897070Y-55555541D01*
X140897272Y-55526693D01*
X140896373Y-55517522D01*
X140886171Y-55420454D01*
X140874140Y-55361845D01*
X140862933Y-55303093D01*
X140860269Y-55294272D01*
X140831407Y-55201035D01*
X140808221Y-55145879D01*
X140785819Y-55090430D01*
X140781493Y-55082293D01*
X140735071Y-54996437D01*
X140701611Y-54946830D01*
X140668866Y-54896790D01*
X140663041Y-54889649D01*
X140600827Y-54814445D01*
X140558407Y-54772320D01*
X140516527Y-54729554D01*
X140509427Y-54723680D01*
X140433790Y-54661993D01*
X140383995Y-54628909D01*
X140334612Y-54595095D01*
X140326505Y-54590713D01*
X140326502Y-54590711D01*
X140326499Y-54590710D01*
X140240327Y-54544891D01*
X140185076Y-54522118D01*
X140130037Y-54498528D01*
X140121234Y-54495804D01*
X140027796Y-54467594D01*
X139969140Y-54455980D01*
X139910605Y-54443538D01*
X139901440Y-54442575D01*
X139804304Y-54433051D01*
X139804297Y-54433051D01*
X139772311Y-54429901D01*
X132117573Y-54430001D01*
X132089331Y-54432783D01*
X132083199Y-54432740D01*
X132074028Y-54433640D01*
X131879931Y-54454041D01*
X131821348Y-54466066D01*
X131762577Y-54477277D01*
X131753755Y-54479941D01*
X131567317Y-54537653D01*
X131512162Y-54560838D01*
X131456709Y-54583242D01*
X131448573Y-54587568D01*
X131276896Y-54680393D01*
X131227278Y-54713861D01*
X131177247Y-54746600D01*
X131170106Y-54752424D01*
X131019728Y-54876828D01*
X130977589Y-54919263D01*
X130934839Y-54961126D01*
X130928966Y-54968227D01*
X130805616Y-55119469D01*
X130772534Y-55169262D01*
X130738716Y-55218651D01*
X130734333Y-55226757D01*
X130642708Y-55399079D01*
X130619909Y-55454394D01*
X130596348Y-55509366D01*
X130593623Y-55518169D01*
X130537214Y-55705005D01*
X130525594Y-55763693D01*
X130513158Y-55822196D01*
X130512195Y-55831361D01*
X130493150Y-56025595D01*
X130490000Y-56057582D01*
X130490001Y-58807711D01*
X130480420Y-58905424D01*
X130461420Y-58968357D01*
X130430554Y-59026406D01*
X130389011Y-59077343D01*
X130338356Y-59119248D01*
X130280529Y-59150515D01*
X130217728Y-59169956D01*
X130122164Y-59180000D01*
X123517690Y-59179901D01*
X123489777Y-59182650D01*
X123486792Y-59182629D01*
X123477621Y-59183528D01*
X123429448Y-59188591D01*
X123420726Y-59189450D01*
X123420435Y-59189538D01*
X123380553Y-59193730D01*
X123321944Y-59205761D01*
X123263192Y-59216968D01*
X123254371Y-59219632D01*
X123161134Y-59248494D01*
X123105978Y-59271680D01*
X123050529Y-59294082D01*
X123042392Y-59298408D01*
X122956536Y-59344830D01*
X122906929Y-59378290D01*
X122856889Y-59411035D01*
X122849748Y-59416860D01*
X122774544Y-59479074D01*
X122732419Y-59521494D01*
X122689653Y-59563374D01*
X122683779Y-59570474D01*
X122622092Y-59646111D01*
X122589008Y-59695906D01*
X122555194Y-59745289D01*
X122550812Y-59753396D01*
X122504990Y-59839574D01*
X122482217Y-59894825D01*
X122458627Y-59949864D01*
X122455903Y-59958667D01*
X122427693Y-60052105D01*
X122416079Y-60110761D01*
X122403637Y-60169296D01*
X122402674Y-60178461D01*
X122393150Y-60275597D01*
X122393150Y-60304405D01*
X122390036Y-60333054D01*
X122390004Y-60342269D01*
X121849980Y-60342269D01*
X121849996Y-60337731D01*
X121849984Y-60334240D01*
X121847070Y-60305541D01*
X121847272Y-60276693D01*
X121846373Y-60267522D01*
X121836171Y-60170454D01*
X121824140Y-60111845D01*
X121812933Y-60053093D01*
X121810269Y-60044272D01*
X121781407Y-59951035D01*
X121758221Y-59895879D01*
X121735819Y-59840430D01*
X121731493Y-59832293D01*
X121685071Y-59746437D01*
X121651611Y-59696830D01*
X121618866Y-59646790D01*
X121613041Y-59639649D01*
X121550827Y-59564445D01*
X121508407Y-59522320D01*
X121466527Y-59479554D01*
X121459427Y-59473680D01*
X121383790Y-59411993D01*
X121333995Y-59378909D01*
X121284612Y-59345095D01*
X121276505Y-59340713D01*
X121276502Y-59340711D01*
X121276499Y-59340710D01*
X121190327Y-59294891D01*
X121135076Y-59272118D01*
X121080037Y-59248528D01*
X121071234Y-59245804D01*
X120977796Y-59217594D01*
X120919140Y-59205980D01*
X120860605Y-59193538D01*
X120851440Y-59192575D01*
X120754304Y-59183051D01*
X120754297Y-59183051D01*
X120722311Y-59179901D01*
X113067573Y-59180001D01*
X113039331Y-59182783D01*
X113033199Y-59182740D01*
X113024028Y-59183640D01*
X112829931Y-59204041D01*
X112771348Y-59216066D01*
X112712577Y-59227277D01*
X112703755Y-59229941D01*
X112517317Y-59287653D01*
X112462162Y-59310838D01*
X112406709Y-59333242D01*
X112398573Y-59337568D01*
X112226896Y-59430393D01*
X112177278Y-59463861D01*
X112127247Y-59496600D01*
X112120106Y-59502424D01*
X111969728Y-59626828D01*
X111927589Y-59669263D01*
X111884839Y-59711126D01*
X111878966Y-59718227D01*
X111755616Y-59869469D01*
X111722534Y-59919262D01*
X111688716Y-59968651D01*
X111684333Y-59976757D01*
X111592708Y-60149079D01*
X111569909Y-60204394D01*
X111546348Y-60259366D01*
X111543623Y-60268169D01*
X111487214Y-60455005D01*
X111475594Y-60513693D01*
X111463158Y-60572196D01*
X111462195Y-60581361D01*
X111443150Y-60775595D01*
X111440000Y-60807582D01*
X111440001Y-65857711D01*
X111430420Y-65955424D01*
X111411420Y-66018357D01*
X111380554Y-66076406D01*
X111339011Y-66127343D01*
X111288356Y-66169248D01*
X111230529Y-66200515D01*
X111167728Y-66219956D01*
X111072165Y-66230000D01*
X94007581Y-66230000D01*
X93979326Y-66232783D01*
X93973199Y-66232740D01*
X93964028Y-66233640D01*
X93769931Y-66254041D01*
X93711348Y-66266066D01*
X93652577Y-66277277D01*
X93643755Y-66279941D01*
X93457317Y-66337653D01*
X93402162Y-66360838D01*
X93346709Y-66383242D01*
X93338573Y-66387568D01*
X93166896Y-66480393D01*
X93117278Y-66513861D01*
X93067247Y-66546600D01*
X93060106Y-66552424D01*
X92909728Y-66676828D01*
X92867589Y-66719263D01*
X92824839Y-66761126D01*
X92818966Y-66768227D01*
X92695616Y-66919469D01*
X92662534Y-66969262D01*
X92628716Y-67018651D01*
X92624333Y-67026757D01*
X92532708Y-67199079D01*
X92509909Y-67254394D01*
X92486348Y-67309366D01*
X92483623Y-67318169D01*
X92427214Y-67505005D01*
X92415594Y-67563693D01*
X92403158Y-67622196D01*
X92402195Y-67631361D01*
X92383152Y-67825574D01*
X92380000Y-67857582D01*
X92380000Y-68337721D01*
X92370420Y-68435424D01*
X92351420Y-68498357D01*
X92320554Y-68556406D01*
X92279011Y-68607343D01*
X92228356Y-68649248D01*
X92170529Y-68680515D01*
X92107728Y-68699956D01*
X92013107Y-68709901D01*
X85417680Y-68709901D01*
X85389770Y-68712650D01*
X85386792Y-68712629D01*
X85377621Y-68713528D01*
X85329459Y-68718590D01*
X85320716Y-68719451D01*
X85320424Y-68719539D01*
X85280553Y-68723730D01*
X85221944Y-68735761D01*
X85163192Y-68746968D01*
X85154371Y-68749632D01*
X85061134Y-68778494D01*
X85005978Y-68801680D01*
X84950529Y-68824082D01*
X84942392Y-68828408D01*
X84856536Y-68874830D01*
X84806929Y-68908290D01*
X84756889Y-68941035D01*
X84749748Y-68946860D01*
X84674544Y-69009074D01*
X84632419Y-69051494D01*
X84589653Y-69093374D01*
X84583779Y-69100474D01*
X84522092Y-69176111D01*
X84489008Y-69225906D01*
X84455194Y-69275289D01*
X84450812Y-69283396D01*
X84404990Y-69369574D01*
X84382217Y-69424825D01*
X84358627Y-69479864D01*
X84355903Y-69488667D01*
X84327693Y-69582105D01*
X84316079Y-69640761D01*
X84303637Y-69699296D01*
X84302674Y-69708461D01*
X84293150Y-69805597D01*
X84293150Y-69834405D01*
X84290036Y-69863054D01*
X84290004Y-69872269D01*
X83749980Y-69872269D01*
X83749996Y-69867731D01*
X83749984Y-69864240D01*
X83747070Y-69835541D01*
X83747272Y-69806693D01*
X83746373Y-69797522D01*
X83736171Y-69700454D01*
X83724135Y-69641820D01*
X83712933Y-69583093D01*
X83710269Y-69574272D01*
X83681407Y-69481035D01*
X83658221Y-69425879D01*
X83635819Y-69370430D01*
X83631493Y-69362293D01*
X83585071Y-69276437D01*
X83551611Y-69226830D01*
X83518866Y-69176790D01*
X83513041Y-69169649D01*
X83450827Y-69094445D01*
X83408407Y-69052320D01*
X83366527Y-69009554D01*
X83359427Y-69003680D01*
X83283790Y-68941993D01*
X83233995Y-68908909D01*
X83184612Y-68875095D01*
X83176505Y-68870713D01*
X83176502Y-68870711D01*
X83176499Y-68870710D01*
X83090327Y-68824891D01*
X83035076Y-68802118D01*
X82980037Y-68778528D01*
X82971234Y-68775804D01*
X82877796Y-68747594D01*
X82819140Y-68735980D01*
X82760605Y-68723538D01*
X82751440Y-68722575D01*
X82654304Y-68713051D01*
X82654296Y-68713051D01*
X82622310Y-68709901D01*
X75502280Y-68710000D01*
X75404576Y-68700420D01*
X75341643Y-68681420D01*
X75283594Y-68650554D01*
X75232657Y-68609011D01*
X75190752Y-68558356D01*
X75159485Y-68500529D01*
X75140044Y-68437728D01*
X75130000Y-68342165D01*
X75130000Y-53950000D01*
X75977089Y-53950000D01*
X75985000Y-54030322D01*
X75985001Y-66669668D01*
X75977089Y-66750000D01*
X75985001Y-66830332D01*
X75985001Y-66840322D01*
X76008658Y-67080516D01*
X76102149Y-67388715D01*
X76253970Y-67672752D01*
X76458287Y-67921714D01*
X76707249Y-68126031D01*
X76991286Y-68277852D01*
X77299485Y-68371343D01*
X77620000Y-68402911D01*
X77801854Y-68385000D01*
X90339678Y-68385000D01*
X90420000Y-68392911D01*
X90740516Y-68361343D01*
X91048715Y-68267852D01*
X91332752Y-68116031D01*
X91581714Y-67911714D01*
X91786031Y-67662752D01*
X91937852Y-67378715D01*
X92031343Y-67070516D01*
X92055000Y-66830322D01*
X92062911Y-66750000D01*
X92055000Y-66669678D01*
X92055000Y-54030322D01*
X92062911Y-53950000D01*
X92031343Y-53629484D01*
X91937852Y-53321285D01*
X91786031Y-53037248D01*
X91581714Y-52788286D01*
X91332752Y-52583969D01*
X91048715Y-52432148D01*
X90740516Y-52338657D01*
X90500322Y-52315000D01*
X90420000Y-52307089D01*
X90339678Y-52315000D01*
X77539678Y-52315000D01*
X77299484Y-52338657D01*
X76991285Y-52432148D01*
X76707248Y-52583969D01*
X76458286Y-52788286D01*
X76253969Y-53037248D01*
X76102148Y-53321285D01*
X76008657Y-53629484D01*
X75977089Y-53950000D01*
X75130000Y-53950000D01*
X75130000Y-51877279D01*
X75139580Y-51779576D01*
X75158580Y-51716644D01*
X75189445Y-51658595D01*
X75230989Y-51607657D01*
X75281644Y-51565752D01*
X75339471Y-51534485D01*
X75402272Y-51515044D01*
X75497835Y-51505000D01*
X92602420Y-51505000D01*
X92630675Y-51502217D01*
X92636802Y-51502260D01*
X92645973Y-51501360D01*
X92840070Y-51480959D01*
X92893456Y-51470000D01*
X95027089Y-51470000D01*
X95035000Y-51550322D01*
X95035001Y-64189668D01*
X95027089Y-64270000D01*
X95035001Y-64350332D01*
X95035001Y-64360322D01*
X95058658Y-64600516D01*
X95152149Y-64908715D01*
X95303970Y-65192752D01*
X95508287Y-65441714D01*
X95757249Y-65646031D01*
X96041286Y-65797852D01*
X96349485Y-65891343D01*
X96670000Y-65922911D01*
X96851854Y-65905000D01*
X109389678Y-65905000D01*
X109470000Y-65912911D01*
X109790516Y-65881343D01*
X110098715Y-65787852D01*
X110382752Y-65636031D01*
X110631714Y-65431714D01*
X110836031Y-65182752D01*
X110987852Y-64898715D01*
X111081343Y-64590516D01*
X111105000Y-64350322D01*
X111112911Y-64270000D01*
X111105000Y-64189678D01*
X111105000Y-51550322D01*
X111112911Y-51470000D01*
X111081343Y-51149484D01*
X110987852Y-50841285D01*
X110836031Y-50557248D01*
X110631714Y-50308286D01*
X110382752Y-50103969D01*
X110098715Y-49952148D01*
X109790516Y-49858657D01*
X109550322Y-49835000D01*
X109470000Y-49827089D01*
X109389678Y-49835000D01*
X96589678Y-49835000D01*
X96349484Y-49858657D01*
X96041285Y-49952148D01*
X95757248Y-50103969D01*
X95508286Y-50308286D01*
X95303969Y-50557248D01*
X95152148Y-50841285D01*
X95058657Y-51149484D01*
X95027089Y-51470000D01*
X92893456Y-51470000D01*
X92898659Y-51468932D01*
X92957424Y-51457723D01*
X92966246Y-51455059D01*
X93152684Y-51397347D01*
X93207839Y-51374162D01*
X93263292Y-51351758D01*
X93271428Y-51347432D01*
X93443105Y-51254607D01*
X93492700Y-51221154D01*
X93542754Y-51188400D01*
X93549895Y-51182576D01*
X93700273Y-51058172D01*
X93742412Y-51015737D01*
X93785162Y-50973874D01*
X93791035Y-50966773D01*
X93914385Y-50815531D01*
X93947478Y-50765723D01*
X93981285Y-50716349D01*
X93985668Y-50708243D01*
X94077293Y-50535920D01*
X94100091Y-50480608D01*
X94123653Y-50425634D01*
X94126378Y-50416831D01*
X94182787Y-50229994D01*
X94194406Y-50171314D01*
X94206843Y-50112804D01*
X94207806Y-50103639D01*
X94226851Y-49909406D01*
X94226851Y-49909401D01*
X94230001Y-49877418D01*
X94230001Y-49400779D01*
X94239581Y-49303076D01*
X94258581Y-49240144D01*
X94289446Y-49182095D01*
X94330990Y-49131157D01*
X94381645Y-49089252D01*
X94439472Y-49057985D01*
X94502273Y-49038544D01*
X94597836Y-49028500D01*
X111652420Y-49028500D01*
X111680675Y-49025717D01*
X111686802Y-49025760D01*
X111695973Y-49024860D01*
X111890070Y-49004459D01*
X111948659Y-48992432D01*
X112007424Y-48981223D01*
X112016246Y-48978559D01*
X112202684Y-48920847D01*
X112257839Y-48897662D01*
X112313292Y-48875258D01*
X112321428Y-48870932D01*
X112493105Y-48778107D01*
X112542700Y-48744654D01*
X112592754Y-48711900D01*
X112599895Y-48706076D01*
X112750273Y-48581672D01*
X112792412Y-48539237D01*
X112835162Y-48497374D01*
X112841035Y-48490273D01*
X112964385Y-48339031D01*
X112997478Y-48289223D01*
X113031285Y-48239849D01*
X113035668Y-48231743D01*
X113127293Y-48059420D01*
X113150091Y-48004108D01*
X113173653Y-47949134D01*
X113176378Y-47940331D01*
X113232787Y-47753494D01*
X113244406Y-47694814D01*
X113256843Y-47636304D01*
X113257806Y-47627139D01*
X113276851Y-47432906D01*
X113276851Y-47432902D01*
X113280001Y-47400919D01*
X113280001Y-44420000D01*
X114077089Y-44420000D01*
X114085000Y-44500322D01*
X114085001Y-57139668D01*
X114077089Y-57220000D01*
X114085001Y-57300332D01*
X114085001Y-57310322D01*
X114108658Y-57550516D01*
X114202149Y-57858715D01*
X114353970Y-58142752D01*
X114558287Y-58391714D01*
X114807249Y-58596031D01*
X115091286Y-58747852D01*
X115399485Y-58841343D01*
X115720000Y-58872911D01*
X115901854Y-58855000D01*
X128439678Y-58855000D01*
X128520000Y-58862911D01*
X128674126Y-58847731D01*
X128840516Y-58831343D01*
X129148715Y-58737852D01*
X129432752Y-58586031D01*
X129681714Y-58381714D01*
X129886031Y-58132752D01*
X130037852Y-57848715D01*
X130131343Y-57540516D01*
X130162911Y-57220000D01*
X130155000Y-57139678D01*
X130155000Y-44500322D01*
X130162911Y-44420000D01*
X130145463Y-44242842D01*
X130131343Y-44099484D01*
X130037852Y-43791285D01*
X129886031Y-43507248D01*
X129681714Y-43258286D01*
X129624689Y-43211487D01*
X129432752Y-43053969D01*
X129148715Y-42902148D01*
X128840516Y-42808657D01*
X128600322Y-42785000D01*
X128520000Y-42777089D01*
X128439678Y-42785000D01*
X115639678Y-42785000D01*
X115399484Y-42808657D01*
X115091285Y-42902148D01*
X114807248Y-43053969D01*
X114558286Y-43258286D01*
X114353969Y-43507248D01*
X114202148Y-43791285D01*
X114108657Y-44099484D01*
X114077089Y-44420000D01*
X113280001Y-44420000D01*
X113280001Y-42352279D01*
X113289581Y-42254576D01*
X113308581Y-42191644D01*
X113339446Y-42133595D01*
X113380990Y-42082657D01*
X113431645Y-42040752D01*
X113489472Y-42009485D01*
X113552273Y-41990044D01*
X113647836Y-41980000D01*
X130702420Y-41980000D01*
X130730675Y-41977217D01*
X130736802Y-41977260D01*
X130745973Y-41976360D01*
X130940070Y-41955959D01*
X130998659Y-41943932D01*
X131057424Y-41932723D01*
X131066246Y-41930059D01*
X131252684Y-41872347D01*
X131307839Y-41849162D01*
X131363292Y-41826758D01*
X131371428Y-41822432D01*
X131543105Y-41729607D01*
X131592700Y-41696154D01*
X131642754Y-41663400D01*
X131649895Y-41657576D01*
X131800273Y-41533172D01*
X131842412Y-41490737D01*
X131885162Y-41448874D01*
X131891035Y-41441773D01*
X132014385Y-41290531D01*
X132047478Y-41240723D01*
X132081285Y-41191349D01*
X132085668Y-41183243D01*
X132177293Y-41010920D01*
X132200091Y-40955608D01*
X132223653Y-40900634D01*
X132226378Y-40891831D01*
X132282787Y-40704994D01*
X132294406Y-40646314D01*
X132306843Y-40587804D01*
X132307806Y-40578639D01*
X132326851Y-40384406D01*
X132326851Y-40384402D01*
X132330001Y-40352419D01*
X132330001Y-39660000D01*
X133127089Y-39660000D01*
X133135000Y-39740322D01*
X133135001Y-52379668D01*
X133127089Y-52460000D01*
X133135001Y-52540332D01*
X133135001Y-52550322D01*
X133158658Y-52790516D01*
X133252149Y-53098715D01*
X133403970Y-53382752D01*
X133608287Y-53631714D01*
X133857249Y-53836031D01*
X134141286Y-53987852D01*
X134449485Y-54081343D01*
X134770000Y-54112911D01*
X134951854Y-54095000D01*
X147489678Y-54095000D01*
X147570000Y-54102911D01*
X147890516Y-54071343D01*
X148198715Y-53977852D01*
X148482752Y-53826031D01*
X148731714Y-53621714D01*
X148936031Y-53372752D01*
X149087852Y-53088715D01*
X149181343Y-52780516D01*
X149205000Y-52540322D01*
X149212911Y-52460000D01*
X149205000Y-52379678D01*
X149205000Y-44430000D01*
X152177089Y-44430000D01*
X152185000Y-44510322D01*
X152185001Y-57149668D01*
X152177089Y-57230000D01*
X152185001Y-57310332D01*
X152185001Y-57320322D01*
X152208658Y-57560516D01*
X152302149Y-57868715D01*
X152453970Y-58152752D01*
X152658287Y-58401714D01*
X152907249Y-58606031D01*
X153191286Y-58757852D01*
X153499485Y-58851343D01*
X153820000Y-58882911D01*
X154001854Y-58865000D01*
X166539678Y-58865000D01*
X166620000Y-58872911D01*
X166940516Y-58841343D01*
X167248715Y-58747852D01*
X167532752Y-58596031D01*
X167781714Y-58391714D01*
X167986031Y-58142752D01*
X168137852Y-57858715D01*
X168231343Y-57550516D01*
X168255000Y-57310322D01*
X168262911Y-57230000D01*
X168255000Y-57149678D01*
X168255000Y-46710000D01*
X171227089Y-46710000D01*
X171235000Y-46790322D01*
X171235001Y-59429668D01*
X171227089Y-59510000D01*
X171235001Y-59590332D01*
X171235001Y-59600322D01*
X171258658Y-59840516D01*
X171352149Y-60148715D01*
X171503970Y-60432752D01*
X171708287Y-60681714D01*
X171957249Y-60886031D01*
X172241286Y-61037852D01*
X172549485Y-61131343D01*
X172870000Y-61162911D01*
X173051854Y-61145000D01*
X185589678Y-61145000D01*
X185670000Y-61152911D01*
X185751683Y-61144866D01*
X185990516Y-61121343D01*
X186298715Y-61027852D01*
X186582752Y-60876031D01*
X186831714Y-60671714D01*
X187036031Y-60422752D01*
X187187852Y-60138715D01*
X187281343Y-59830516D01*
X187312911Y-59510000D01*
X187305000Y-59429678D01*
X187305000Y-46790322D01*
X187312911Y-46710000D01*
X187281343Y-46389484D01*
X187187852Y-46081285D01*
X187036031Y-45797248D01*
X186831714Y-45548286D01*
X186582752Y-45343969D01*
X186298715Y-45192148D01*
X185990516Y-45098657D01*
X185750322Y-45075000D01*
X185670000Y-45067089D01*
X185589678Y-45075000D01*
X172789678Y-45075000D01*
X172549484Y-45098657D01*
X172241285Y-45192148D01*
X171957248Y-45343969D01*
X171708286Y-45548286D01*
X171503969Y-45797248D01*
X171352148Y-46081285D01*
X171258657Y-46389484D01*
X171227089Y-46710000D01*
X168255000Y-46710000D01*
X168255000Y-44510322D01*
X168262911Y-44430000D01*
X168231343Y-44109484D01*
X168137852Y-43801285D01*
X167986031Y-43517248D01*
X167781714Y-43268286D01*
X167532752Y-43063969D01*
X167248715Y-42912148D01*
X166940516Y-42818657D01*
X166700322Y-42795000D01*
X166620000Y-42787089D01*
X166539678Y-42795000D01*
X153739678Y-42795000D01*
X153499484Y-42818657D01*
X153191285Y-42912148D01*
X152907248Y-43063969D01*
X152658286Y-43268286D01*
X152453969Y-43517248D01*
X152302148Y-43801285D01*
X152208657Y-44109484D01*
X152177089Y-44430000D01*
X149205000Y-44430000D01*
X149205000Y-39740322D01*
X149212911Y-39660000D01*
X149181343Y-39339484D01*
X149087852Y-39031285D01*
X148936031Y-38747248D01*
X148731714Y-38498286D01*
X148482752Y-38293969D01*
X148198715Y-38142148D01*
X147890516Y-38048657D01*
X147650322Y-38025000D01*
X147570000Y-38017089D01*
X147489678Y-38025000D01*
X134689678Y-38025000D01*
X134449484Y-38048657D01*
X134141285Y-38142148D01*
X133857248Y-38293969D01*
X133608286Y-38498286D01*
X133403969Y-38747248D01*
X133252148Y-39031285D01*
X133158657Y-39339484D01*
X133127089Y-39660000D01*
X132330001Y-39660000D01*
X132330001Y-37589779D01*
X132339581Y-37492076D01*
X132358581Y-37429144D01*
X132389446Y-37371095D01*
X132430990Y-37320157D01*
X132481645Y-37278252D01*
X132539472Y-37246985D01*
X132602273Y-37227544D01*
X132697836Y-37217500D01*
X149637722Y-37217500D01*
X149735425Y-37227080D01*
G36*
X203085001Y-136545000D02*
G01*
X193555000Y-136545000D01*
X193555000Y-127015000D01*
X203085000Y-127015000D01*
X203085001Y-136545000D01*
G37*
X203085001Y-136545000D02*
X193555000Y-136545000D01*
X193555000Y-127015000D01*
X203085000Y-127015000D01*
X203085001Y-136545000D01*
G36*
X184035001Y-134075000D02*
G01*
X174505000Y-134075000D01*
X174505000Y-124545000D01*
X184035000Y-124545000D01*
X184035001Y-134075000D01*
G37*
X184035001Y-134075000D02*
X174505000Y-134075000D01*
X174505000Y-124545000D01*
X184035000Y-124545000D01*
X184035001Y-134075000D01*
G36*
X164985001Y-131795000D02*
G01*
X155455000Y-131795000D01*
X155455000Y-122265000D01*
X164985000Y-122265000D01*
X164985001Y-131795000D01*
G37*
X164985001Y-131795000D02*
X155455000Y-131795000D01*
X155455000Y-122265000D01*
X164985000Y-122265000D01*
X164985001Y-131795000D01*
G36*
X88785001Y-122265000D02*
G01*
X79255000Y-122265000D01*
X79255000Y-112735000D01*
X88785000Y-112735000D01*
X88785001Y-122265000D01*
G37*
X88785001Y-122265000D02*
X79255000Y-122265000D01*
X79255000Y-112735000D01*
X88785000Y-112735000D01*
X88785001Y-122265000D01*
G36*
X107835001Y-119785000D02*
G01*
X98305000Y-119785000D01*
X98305000Y-110255000D01*
X107835000Y-110255000D01*
X107835001Y-119785000D01*
G37*
X107835001Y-119785000D02*
X98305000Y-119785000D01*
X98305000Y-110255000D01*
X107835000Y-110255000D01*
X107835001Y-119785000D01*
G36*
X184035001Y-115025000D02*
G01*
X174505000Y-115025000D01*
X174505000Y-105495000D01*
X184035000Y-105495000D01*
X184035001Y-115025000D01*
G37*
X184035001Y-115025000D02*
X174505000Y-115025000D01*
X174505000Y-105495000D01*
X184035000Y-105495000D01*
X184035001Y-115025000D01*
G36*
X164985001Y-112745000D02*
G01*
X155455000Y-112745000D01*
X155455000Y-103215000D01*
X164985000Y-103215000D01*
X164985001Y-112745000D01*
G37*
X164985001Y-112745000D02*
X155455000Y-112745000D01*
X155455000Y-103215000D01*
X164985000Y-103215000D01*
X164985001Y-112745000D01*
G36*
X126885001Y-112735000D02*
G01*
X117355000Y-112735000D01*
X117355000Y-103205000D01*
X126885000Y-103205000D01*
X126885001Y-112735000D01*
G37*
X126885001Y-112735000D02*
X117355000Y-112735000D01*
X117355000Y-103205000D01*
X126885000Y-103205000D01*
X126885001Y-112735000D01*
G36*
X145935001Y-107975000D02*
G01*
X136405000Y-107975000D01*
X136405000Y-98445000D01*
X145935000Y-98445000D01*
X145935001Y-107975000D01*
G37*
X145935001Y-107975000D02*
X136405000Y-107975000D01*
X136405000Y-98445000D01*
X145935000Y-98445000D01*
X145935001Y-107975000D01*
G36*
X88785001Y-103215000D02*
G01*
X79255000Y-103215000D01*
X79255000Y-93685000D01*
X88785000Y-93685000D01*
X88785001Y-103215000D01*
G37*
X88785001Y-103215000D02*
X79255000Y-103215000D01*
X79255000Y-93685000D01*
X88785000Y-93685000D01*
X88785001Y-103215000D01*
G36*
X107835001Y-100735000D02*
G01*
X98305000Y-100735000D01*
X98305000Y-91205000D01*
X107835000Y-91205000D01*
X107835001Y-100735000D01*
G37*
X107835001Y-100735000D02*
X98305000Y-100735000D01*
X98305000Y-91205000D01*
X107835000Y-91205000D01*
X107835001Y-100735000D01*
G36*
X184035001Y-95975000D02*
G01*
X174505000Y-95975000D01*
X174505000Y-86445000D01*
X184035000Y-86445000D01*
X184035001Y-95975000D01*
G37*
X184035001Y-95975000D02*
X174505000Y-95975000D01*
X174505000Y-86445000D01*
X184035000Y-86445000D01*
X184035001Y-95975000D01*
G36*
X164985001Y-93695000D02*
G01*
X155455000Y-93695000D01*
X155455000Y-84165000D01*
X164985000Y-84165000D01*
X164985001Y-93695000D01*
G37*
X164985001Y-93695000D02*
X155455000Y-93695000D01*
X155455000Y-84165000D01*
X164985000Y-84165000D01*
X164985001Y-93695000D01*
G36*
X126885001Y-93685000D02*
G01*
X117355000Y-93685000D01*
X117355000Y-84155000D01*
X126885000Y-84155000D01*
X126885001Y-93685000D01*
G37*
X126885001Y-93685000D02*
X117355000Y-93685000D01*
X117355000Y-84155000D01*
X126885000Y-84155000D01*
X126885001Y-93685000D01*
G36*
X145935001Y-88925000D02*
G01*
X136405000Y-88925000D01*
X136405000Y-79395000D01*
X145935000Y-79395000D01*
X145935001Y-88925000D01*
G37*
X145935001Y-88925000D02*
X136405000Y-88925000D01*
X136405000Y-79395000D01*
X145935000Y-79395000D01*
X145935001Y-88925000D01*
G36*
X88785001Y-84165000D02*
G01*
X79255000Y-84165000D01*
X79255000Y-74635000D01*
X88785000Y-74635000D01*
X88785001Y-84165000D01*
G37*
X88785001Y-84165000D02*
X79255000Y-84165000D01*
X79255000Y-74635000D01*
X88785000Y-74635000D01*
X88785001Y-84165000D01*
G36*
X107835001Y-81685000D02*
G01*
X98305000Y-81685000D01*
X98305000Y-72155000D01*
X107835000Y-72155000D01*
X107835001Y-81685000D01*
G37*
X107835001Y-81685000D02*
X98305000Y-81685000D01*
X98305000Y-72155000D01*
X107835000Y-72155000D01*
X107835001Y-81685000D01*
G36*
X184035001Y-76925000D02*
G01*
X174505000Y-76925000D01*
X174505000Y-67395000D01*
X184035000Y-67395000D01*
X184035001Y-76925000D01*
G37*
X184035001Y-76925000D02*
X174505000Y-76925000D01*
X174505000Y-67395000D01*
X184035000Y-67395000D01*
X184035001Y-76925000D01*
G36*
X164985001Y-74645000D02*
G01*
X155455000Y-74645000D01*
X155455000Y-65115000D01*
X164985000Y-65115000D01*
X164985001Y-74645000D01*
G37*
X164985001Y-74645000D02*
X155455000Y-74645000D01*
X155455000Y-65115000D01*
X164985000Y-65115000D01*
X164985001Y-74645000D01*
G36*
X126885001Y-74635000D02*
G01*
X117355000Y-74635000D01*
X117355000Y-65105000D01*
X126885000Y-65105000D01*
X126885001Y-74635000D01*
G37*
X126885001Y-74635000D02*
X117355000Y-74635000D01*
X117355000Y-65105000D01*
X126885000Y-65105000D01*
X126885001Y-74635000D01*
G36*
X145935001Y-69875000D02*
G01*
X136405000Y-69875000D01*
X136405000Y-60345000D01*
X145935000Y-60345000D01*
X145935001Y-69875000D01*
G37*
X145935001Y-69875000D02*
X136405000Y-69875000D01*
X136405000Y-60345000D01*
X145935000Y-60345000D01*
X145935001Y-69875000D01*
G36*
X88785001Y-65115000D02*
G01*
X79255000Y-65115000D01*
X79255000Y-55585000D01*
X88785000Y-55585000D01*
X88785001Y-65115000D01*
G37*
X88785001Y-65115000D02*
X79255000Y-65115000D01*
X79255000Y-55585000D01*
X88785000Y-55585000D01*
X88785001Y-65115000D01*
G36*
X107835001Y-62635000D02*
G01*
X98305000Y-62635000D01*
X98305000Y-53105000D01*
X107835000Y-53105000D01*
X107835001Y-62635000D01*
G37*
X107835001Y-62635000D02*
X98305000Y-62635000D01*
X98305000Y-53105000D01*
X107835000Y-53105000D01*
X107835001Y-62635000D01*
G36*
X184035001Y-57875000D02*
G01*
X174505000Y-57875000D01*
X174505000Y-48345000D01*
X184035000Y-48345000D01*
X184035001Y-57875000D01*
G37*
X184035001Y-57875000D02*
X174505000Y-57875000D01*
X174505000Y-48345000D01*
X184035000Y-48345000D01*
X184035001Y-57875000D01*
G36*
X164985001Y-55595000D02*
G01*
X155455000Y-55595000D01*
X155455000Y-46065000D01*
X164985000Y-46065000D01*
X164985001Y-55595000D01*
G37*
X164985001Y-55595000D02*
X155455000Y-55595000D01*
X155455000Y-46065000D01*
X164985000Y-46065000D01*
X164985001Y-55595000D01*
G36*
X126885001Y-55585000D02*
G01*
X117355000Y-55585000D01*
X117355000Y-46055000D01*
X126885000Y-46055000D01*
X126885001Y-55585000D01*
G37*
X126885001Y-55585000D02*
X117355000Y-55585000D01*
X117355000Y-46055000D01*
X126885000Y-46055000D01*
X126885001Y-55585000D01*
G36*
X145935001Y-50825000D02*
G01*
X136405000Y-50825000D01*
X136405000Y-41295000D01*
X145935000Y-41295000D01*
X145935001Y-50825000D01*
G37*
X145935001Y-50825000D02*
X136405000Y-50825000D01*
X136405000Y-41295000D01*
X145935000Y-41295000D01*
X145935001Y-50825000D01*
G36*
X72535424Y-84852080D02*
G01*
X72598356Y-84871080D01*
X72656405Y-84901945D01*
X72707343Y-84943489D01*
X72749248Y-84994144D01*
X72780515Y-85051971D01*
X72799956Y-85114772D01*
X72809997Y-85210307D01*
X72809825Y-86505308D01*
X72736031Y-86367248D01*
X72531714Y-86118286D01*
X72282752Y-85913969D01*
X71998715Y-85762148D01*
X71690516Y-85668657D01*
X71450322Y-85645000D01*
X71370000Y-85637089D01*
X71289678Y-85645000D01*
X58489678Y-85645000D01*
X58249484Y-85668657D01*
X57941285Y-85762148D01*
X57657248Y-85913969D01*
X57408286Y-86118286D01*
X57203969Y-86367248D01*
X57052148Y-86651285D01*
X56958657Y-86959484D01*
X56927089Y-87280000D01*
X56935000Y-87360322D01*
X56935001Y-99999668D01*
X56927089Y-100080000D01*
X56935001Y-100160332D01*
X56935001Y-100170322D01*
X56958658Y-100410516D01*
X57052149Y-100718715D01*
X57203970Y-101002752D01*
X57408287Y-101251714D01*
X57657249Y-101456031D01*
X57941286Y-101607852D01*
X58249485Y-101701343D01*
X58570000Y-101732911D01*
X58751854Y-101715000D01*
X71289678Y-101715000D01*
X71370000Y-101722911D01*
X71690516Y-101691343D01*
X71998715Y-101597852D01*
X72282752Y-101446031D01*
X72531714Y-101241714D01*
X72736031Y-100992752D01*
X72859813Y-100761172D01*
X72859996Y-102150257D01*
X72850420Y-102247924D01*
X72831420Y-102310857D01*
X72800554Y-102368906D01*
X72759011Y-102419843D01*
X72708356Y-102461748D01*
X72650529Y-102493015D01*
X72587728Y-102512456D01*
X72492165Y-102522500D01*
X56502279Y-102522500D01*
X56404576Y-102512920D01*
X56341643Y-102493920D01*
X56283594Y-102463054D01*
X56232657Y-102421511D01*
X56190752Y-102370856D01*
X56159485Y-102313029D01*
X56140044Y-102250228D01*
X56130000Y-102154665D01*
X56130000Y-85214779D01*
X56139580Y-85117076D01*
X56158580Y-85054144D01*
X56189445Y-84996095D01*
X56230989Y-84945157D01*
X56281644Y-84903252D01*
X56339471Y-84871985D01*
X56402272Y-84852544D01*
X56497835Y-84842500D01*
X72437721Y-84842500D01*
X72535424Y-84852080D01*
G37*
X72535424Y-84852080D02*
X72598356Y-84871080D01*
X72656405Y-84901945D01*
X72707343Y-84943489D01*
X72749248Y-84994144D01*
X72780515Y-85051971D01*
X72799956Y-85114772D01*
X72809997Y-85210307D01*
X72809825Y-86505308D01*
X72736031Y-86367248D01*
X72531714Y-86118286D01*
X72282752Y-85913969D01*
X71998715Y-85762148D01*
X71690516Y-85668657D01*
X71450322Y-85645000D01*
X71370000Y-85637089D01*
X71289678Y-85645000D01*
X58489678Y-85645000D01*
X58249484Y-85668657D01*
X57941285Y-85762148D01*
X57657248Y-85913969D01*
X57408286Y-86118286D01*
X57203969Y-86367248D01*
X57052148Y-86651285D01*
X56958657Y-86959484D01*
X56927089Y-87280000D01*
X56935000Y-87360322D01*
X56935001Y-99999668D01*
X56927089Y-100080000D01*
X56935001Y-100160332D01*
X56935001Y-100170322D01*
X56958658Y-100410516D01*
X57052149Y-100718715D01*
X57203970Y-101002752D01*
X57408287Y-101251714D01*
X57657249Y-101456031D01*
X57941286Y-101607852D01*
X58249485Y-101701343D01*
X58570000Y-101732911D01*
X58751854Y-101715000D01*
X71289678Y-101715000D01*
X71370000Y-101722911D01*
X71690516Y-101691343D01*
X71998715Y-101597852D01*
X72282752Y-101446031D01*
X72531714Y-101241714D01*
X72736031Y-100992752D01*
X72859813Y-100761172D01*
X72859996Y-102150257D01*
X72850420Y-102247924D01*
X72831420Y-102310857D01*
X72800554Y-102368906D01*
X72759011Y-102419843D01*
X72708356Y-102461748D01*
X72650529Y-102493015D01*
X72587728Y-102512456D01*
X72492165Y-102522500D01*
X56502279Y-102522500D01*
X56404576Y-102512920D01*
X56341643Y-102493920D01*
X56283594Y-102463054D01*
X56232657Y-102421511D01*
X56190752Y-102370856D01*
X56159485Y-102313029D01*
X56140044Y-102250228D01*
X56130000Y-102154665D01*
X56130000Y-85214779D01*
X56139580Y-85117076D01*
X56158580Y-85054144D01*
X56189445Y-84996095D01*
X56230989Y-84945157D01*
X56281644Y-84903252D01*
X56339471Y-84871985D01*
X56402272Y-84852544D01*
X56497835Y-84842500D01*
X72437721Y-84842500D01*
X72535424Y-84852080D01*
G36*
X69735001Y-98445000D02*
G01*
X60205000Y-98445000D01*
X60205000Y-88915000D01*
X69735000Y-88915000D01*
X69735001Y-98445000D01*
G37*
X69735001Y-98445000D02*
X60205000Y-98445000D01*
X60205000Y-88915000D01*
X69735000Y-88915000D01*
X69735001Y-98445000D01*
M02*
