G04 #@! TF.GenerationSoftware,KiCad,Pcbnew,(5.1.5)-3*
G04 #@! TF.CreationDate,2020-03-09T02:33:29+08:00*
G04 #@! TF.ProjectId,plate,706c6174-652e-46b6-9963-61645f706362,rev?*
G04 #@! TF.SameCoordinates,Original*
G04 #@! TF.FileFunction,Soldermask,Bot*
G04 #@! TF.FilePolarity,Negative*
%FSLAX46Y46*%
G04 Gerber Fmt 4.6, Leading zero omitted, Abs format (unit mm)*
G04 Created by KiCad (PCBNEW (5.1.5)-3) date 2020-03-09 02:33:29*
%MOMM*%
%LPD*%
G04 APERTURE LIST*
%ADD10C,0.100000*%
G04 APERTURE END LIST*
D10*
G36*
X204965519Y-124128398D02*
G01*
X205029248Y-124134675D01*
X205126032Y-124144207D01*
X205324146Y-124204305D01*
X205324149Y-124204306D01*
X205420975Y-124256061D01*
X205506729Y-124301897D01*
X205666765Y-124433235D01*
X205798103Y-124593271D01*
X205843939Y-124679025D01*
X205895694Y-124775851D01*
X205895695Y-124775854D01*
X205955793Y-124973968D01*
X205955793Y-124973970D01*
X205976085Y-125180000D01*
X205971602Y-125225519D01*
X205971000Y-125237771D01*
X205971000Y-138322229D01*
X205971602Y-138334481D01*
X205976085Y-138380000D01*
X205955793Y-138586032D01*
X205895695Y-138784145D01*
X205895694Y-138784149D01*
X205843939Y-138880975D01*
X205798103Y-138966729D01*
X205666765Y-139126765D01*
X205506729Y-139258103D01*
X205420975Y-139303939D01*
X205324149Y-139355694D01*
X205324146Y-139355695D01*
X205126032Y-139415793D01*
X205029248Y-139425325D01*
X204965519Y-139431602D01*
X204920000Y-139436085D01*
X204874481Y-139431602D01*
X204862229Y-139431000D01*
X191777771Y-139431000D01*
X191765519Y-139431602D01*
X191720000Y-139436085D01*
X191674481Y-139431602D01*
X191610752Y-139425325D01*
X191513968Y-139415793D01*
X191315854Y-139355695D01*
X191315851Y-139355694D01*
X191219025Y-139303939D01*
X191133271Y-139258103D01*
X190973235Y-139126765D01*
X190841897Y-138966729D01*
X190796061Y-138880975D01*
X190744306Y-138784149D01*
X190744305Y-138784145D01*
X190684207Y-138586032D01*
X190663915Y-138380000D01*
X190668399Y-138334471D01*
X190669001Y-138322219D01*
X190669001Y-126355999D01*
X192771000Y-126355999D01*
X192771000Y-137204001D01*
X192773402Y-137228387D01*
X192780515Y-137251836D01*
X192792066Y-137273447D01*
X192807611Y-137292389D01*
X192826553Y-137307934D01*
X192848164Y-137319485D01*
X192871613Y-137326598D01*
X192895999Y-137329000D01*
X203744001Y-137329000D01*
X203768387Y-137326598D01*
X203791836Y-137319485D01*
X203813447Y-137307934D01*
X203832389Y-137292389D01*
X203847934Y-137273447D01*
X203859485Y-137251836D01*
X203866598Y-137228387D01*
X203869000Y-137204001D01*
X203869001Y-126355999D01*
X203866599Y-126331613D01*
X203859486Y-126308164D01*
X203847935Y-126286553D01*
X203832390Y-126267611D01*
X203813448Y-126252066D01*
X203791837Y-126240515D01*
X203768388Y-126233402D01*
X203744002Y-126231000D01*
X192895999Y-126231000D01*
X192871613Y-126233402D01*
X192848164Y-126240515D01*
X192826553Y-126252066D01*
X192807611Y-126267611D01*
X192792066Y-126286553D01*
X192780515Y-126308164D01*
X192773402Y-126331613D01*
X192771000Y-126355999D01*
X190669001Y-126355999D01*
X190669000Y-125237771D01*
X190668398Y-125225519D01*
X190663915Y-125180000D01*
X190684207Y-124973970D01*
X190684207Y-124973968D01*
X190744305Y-124775854D01*
X190744306Y-124775851D01*
X190796061Y-124679025D01*
X190841897Y-124593271D01*
X190973235Y-124433235D01*
X191133271Y-124301897D01*
X191219025Y-124256061D01*
X191315851Y-124204306D01*
X191315854Y-124204305D01*
X191513968Y-124144207D01*
X191610752Y-124134675D01*
X191674481Y-124128398D01*
X191720000Y-124123915D01*
X191765519Y-124128398D01*
X191777771Y-124129000D01*
X204862229Y-124129000D01*
X204874481Y-124128398D01*
X204920000Y-124123915D01*
X204965519Y-124128398D01*
G37*
G36*
X185915519Y-121658398D02*
G01*
X185979248Y-121664675D01*
X186076032Y-121674207D01*
X186274146Y-121734305D01*
X186274149Y-121734306D01*
X186370975Y-121786061D01*
X186456729Y-121831897D01*
X186616765Y-121963235D01*
X186748103Y-122123271D01*
X186792711Y-122206728D01*
X186845694Y-122305851D01*
X186845695Y-122305854D01*
X186905793Y-122503968D01*
X186905793Y-122503970D01*
X186926085Y-122710000D01*
X186921602Y-122755519D01*
X186921000Y-122767771D01*
X186921000Y-135852229D01*
X186921602Y-135864481D01*
X186926085Y-135910000D01*
X186905793Y-136116032D01*
X186845695Y-136314145D01*
X186845694Y-136314149D01*
X186793939Y-136410975D01*
X186748103Y-136496729D01*
X186616765Y-136656765D01*
X186456729Y-136788103D01*
X186370975Y-136833939D01*
X186274149Y-136885694D01*
X186274146Y-136885695D01*
X186076032Y-136945793D01*
X185979248Y-136955325D01*
X185915519Y-136961602D01*
X185870000Y-136966085D01*
X185824481Y-136961602D01*
X185812229Y-136961000D01*
X172727771Y-136961000D01*
X172715519Y-136961602D01*
X172670000Y-136966085D01*
X172624481Y-136961602D01*
X172560752Y-136955325D01*
X172463968Y-136945793D01*
X172265854Y-136885695D01*
X172265851Y-136885694D01*
X172169025Y-136833939D01*
X172083271Y-136788103D01*
X171923235Y-136656765D01*
X171791897Y-136496729D01*
X171746061Y-136410975D01*
X171694306Y-136314149D01*
X171694305Y-136314145D01*
X171634207Y-136116032D01*
X171613915Y-135910000D01*
X171618399Y-135864471D01*
X171619001Y-135852219D01*
X171619001Y-123885999D01*
X173721000Y-123885999D01*
X173721000Y-134734001D01*
X173723402Y-134758387D01*
X173730515Y-134781836D01*
X173742066Y-134803447D01*
X173757611Y-134822389D01*
X173776553Y-134837934D01*
X173798164Y-134849485D01*
X173821613Y-134856598D01*
X173845999Y-134859000D01*
X184694001Y-134859000D01*
X184718387Y-134856598D01*
X184741836Y-134849485D01*
X184763447Y-134837934D01*
X184782389Y-134822389D01*
X184797934Y-134803447D01*
X184809485Y-134781836D01*
X184816598Y-134758387D01*
X184819000Y-134734001D01*
X184819001Y-123885999D01*
X184816599Y-123861613D01*
X184809486Y-123838164D01*
X184797935Y-123816553D01*
X184782390Y-123797611D01*
X184763448Y-123782066D01*
X184741837Y-123770515D01*
X184718388Y-123763402D01*
X184694002Y-123761000D01*
X173845999Y-123761000D01*
X173821613Y-123763402D01*
X173798164Y-123770515D01*
X173776553Y-123782066D01*
X173757611Y-123797611D01*
X173742066Y-123816553D01*
X173730515Y-123838164D01*
X173723402Y-123861613D01*
X173721000Y-123885999D01*
X171619001Y-123885999D01*
X171619000Y-122767771D01*
X171618398Y-122755519D01*
X171613915Y-122710000D01*
X171634207Y-122503970D01*
X171634207Y-122503968D01*
X171694305Y-122305854D01*
X171694306Y-122305851D01*
X171747289Y-122206728D01*
X171791897Y-122123271D01*
X171923235Y-121963235D01*
X172083271Y-121831897D01*
X172169025Y-121786061D01*
X172265851Y-121734306D01*
X172265854Y-121734305D01*
X172463968Y-121674207D01*
X172560752Y-121664675D01*
X172624481Y-121658398D01*
X172670000Y-121653915D01*
X172715519Y-121658398D01*
X172727771Y-121659000D01*
X185812229Y-121659000D01*
X185824481Y-121658398D01*
X185870000Y-121653915D01*
X185915519Y-121658398D01*
G37*
G36*
X166865519Y-119378398D02*
G01*
X166929248Y-119384675D01*
X167026032Y-119394207D01*
X167224146Y-119454305D01*
X167224149Y-119454306D01*
X167320975Y-119506061D01*
X167406729Y-119551897D01*
X167566765Y-119683235D01*
X167698103Y-119843271D01*
X167743939Y-119929025D01*
X167795694Y-120025851D01*
X167795695Y-120025854D01*
X167855793Y-120223968D01*
X167855793Y-120223970D01*
X167876085Y-120430000D01*
X167871602Y-120475519D01*
X167871000Y-120487771D01*
X167871000Y-133572229D01*
X167871602Y-133584481D01*
X167876085Y-133630000D01*
X167855793Y-133836032D01*
X167795695Y-134034145D01*
X167795694Y-134034149D01*
X167743939Y-134130975D01*
X167698103Y-134216729D01*
X167566765Y-134376765D01*
X167406729Y-134508103D01*
X167320975Y-134553939D01*
X167224149Y-134605694D01*
X167224146Y-134605695D01*
X167026032Y-134665793D01*
X166929248Y-134675325D01*
X166865519Y-134681602D01*
X166820000Y-134686085D01*
X166774481Y-134681602D01*
X166762229Y-134681000D01*
X153677771Y-134681000D01*
X153665519Y-134681602D01*
X153620000Y-134686085D01*
X153574481Y-134681602D01*
X153510752Y-134675325D01*
X153413968Y-134665793D01*
X153215854Y-134605695D01*
X153215851Y-134605694D01*
X153119025Y-134553939D01*
X153033271Y-134508103D01*
X152873235Y-134376765D01*
X152741897Y-134216729D01*
X152696061Y-134130975D01*
X152644306Y-134034149D01*
X152644305Y-134034145D01*
X152584207Y-133836032D01*
X152563915Y-133630000D01*
X152568399Y-133584471D01*
X152569001Y-133572219D01*
X152569001Y-121605999D01*
X154671000Y-121605999D01*
X154671000Y-132454001D01*
X154673402Y-132478387D01*
X154680515Y-132501836D01*
X154692066Y-132523447D01*
X154707611Y-132542389D01*
X154726553Y-132557934D01*
X154748164Y-132569485D01*
X154771613Y-132576598D01*
X154795999Y-132579000D01*
X165644001Y-132579000D01*
X165668387Y-132576598D01*
X165691836Y-132569485D01*
X165713447Y-132557934D01*
X165732389Y-132542389D01*
X165747934Y-132523447D01*
X165759485Y-132501836D01*
X165766598Y-132478387D01*
X165769000Y-132454001D01*
X165769001Y-121605999D01*
X165766599Y-121581613D01*
X165759486Y-121558164D01*
X165747935Y-121536553D01*
X165732390Y-121517611D01*
X165713448Y-121502066D01*
X165691837Y-121490515D01*
X165668388Y-121483402D01*
X165644002Y-121481000D01*
X154795999Y-121481000D01*
X154771613Y-121483402D01*
X154748164Y-121490515D01*
X154726553Y-121502066D01*
X154707611Y-121517611D01*
X154692066Y-121536553D01*
X154680515Y-121558164D01*
X154673402Y-121581613D01*
X154671000Y-121605999D01*
X152569001Y-121605999D01*
X152569000Y-120487771D01*
X152568398Y-120475519D01*
X152563915Y-120430000D01*
X152584207Y-120223970D01*
X152584207Y-120223968D01*
X152644305Y-120025854D01*
X152644306Y-120025851D01*
X152696061Y-119929025D01*
X152741897Y-119843271D01*
X152873235Y-119683235D01*
X153033271Y-119551897D01*
X153119025Y-119506061D01*
X153215851Y-119454306D01*
X153215854Y-119454305D01*
X153413968Y-119394207D01*
X153510752Y-119384675D01*
X153574481Y-119378398D01*
X153620000Y-119373915D01*
X153665519Y-119378398D01*
X153677771Y-119379000D01*
X166762229Y-119379000D01*
X166774481Y-119378398D01*
X166820000Y-119373915D01*
X166865519Y-119378398D01*
G37*
G36*
X90665519Y-109848398D02*
G01*
X90729248Y-109854675D01*
X90826032Y-109864207D01*
X91024146Y-109924305D01*
X91024149Y-109924306D01*
X91120975Y-109976061D01*
X91206729Y-110021897D01*
X91366765Y-110153235D01*
X91498103Y-110313271D01*
X91542711Y-110396728D01*
X91595694Y-110495851D01*
X91595695Y-110495854D01*
X91655793Y-110693968D01*
X91655793Y-110693970D01*
X91676085Y-110900000D01*
X91671602Y-110945519D01*
X91671000Y-110957771D01*
X91671000Y-124042229D01*
X91671602Y-124054481D01*
X91676085Y-124100000D01*
X91655793Y-124306032D01*
X91617206Y-124433235D01*
X91595694Y-124504149D01*
X91543939Y-124600975D01*
X91498103Y-124686729D01*
X91366765Y-124846765D01*
X91206729Y-124978103D01*
X91120975Y-125023939D01*
X91024149Y-125075694D01*
X91024146Y-125075695D01*
X90826032Y-125135793D01*
X90729248Y-125145325D01*
X90665519Y-125151602D01*
X90620000Y-125156085D01*
X90574481Y-125151602D01*
X90562229Y-125151000D01*
X77477771Y-125151000D01*
X77465519Y-125151602D01*
X77420000Y-125156085D01*
X77374481Y-125151602D01*
X77310752Y-125145325D01*
X77213968Y-125135793D01*
X77015854Y-125075695D01*
X77015851Y-125075694D01*
X76919025Y-125023939D01*
X76833271Y-124978103D01*
X76673235Y-124846765D01*
X76541897Y-124686729D01*
X76496061Y-124600975D01*
X76444306Y-124504149D01*
X76422794Y-124433235D01*
X76384207Y-124306032D01*
X76363915Y-124100000D01*
X76368399Y-124054471D01*
X76369001Y-124042219D01*
X76369001Y-112075999D01*
X78471000Y-112075999D01*
X78471000Y-122924001D01*
X78473402Y-122948387D01*
X78480515Y-122971836D01*
X78492066Y-122993447D01*
X78507611Y-123012389D01*
X78526553Y-123027934D01*
X78548164Y-123039485D01*
X78571613Y-123046598D01*
X78595999Y-123049000D01*
X89444001Y-123049000D01*
X89468387Y-123046598D01*
X89491836Y-123039485D01*
X89513447Y-123027934D01*
X89532389Y-123012389D01*
X89547934Y-122993447D01*
X89559485Y-122971836D01*
X89566598Y-122948387D01*
X89569000Y-122924001D01*
X89569001Y-112075999D01*
X89566599Y-112051613D01*
X89559486Y-112028164D01*
X89547935Y-112006553D01*
X89532390Y-111987611D01*
X89513448Y-111972066D01*
X89491837Y-111960515D01*
X89468388Y-111953402D01*
X89444002Y-111951000D01*
X78595999Y-111951000D01*
X78571613Y-111953402D01*
X78548164Y-111960515D01*
X78526553Y-111972066D01*
X78507611Y-111987611D01*
X78492066Y-112006553D01*
X78480515Y-112028164D01*
X78473402Y-112051613D01*
X78471000Y-112075999D01*
X76369001Y-112075999D01*
X76369000Y-110957771D01*
X76368398Y-110945519D01*
X76363915Y-110900000D01*
X76384207Y-110693970D01*
X76384207Y-110693968D01*
X76444305Y-110495854D01*
X76444306Y-110495851D01*
X76497289Y-110396728D01*
X76541897Y-110313271D01*
X76673235Y-110153235D01*
X76833271Y-110021897D01*
X76919025Y-109976061D01*
X77015851Y-109924306D01*
X77015854Y-109924305D01*
X77213968Y-109864207D01*
X77310752Y-109854675D01*
X77374481Y-109848398D01*
X77420000Y-109843915D01*
X77465519Y-109848398D01*
X77477771Y-109849000D01*
X90562229Y-109849000D01*
X90574481Y-109848398D01*
X90620000Y-109843915D01*
X90665519Y-109848398D01*
G37*
G36*
X109715519Y-107368398D02*
G01*
X109779248Y-107374675D01*
X109876032Y-107384207D01*
X110074146Y-107444305D01*
X110074149Y-107444306D01*
X110170975Y-107496061D01*
X110256729Y-107541897D01*
X110416765Y-107673235D01*
X110548103Y-107833271D01*
X110593939Y-107919025D01*
X110645694Y-108015851D01*
X110645695Y-108015854D01*
X110705793Y-108213968D01*
X110705793Y-108213970D01*
X110726085Y-108420000D01*
X110721602Y-108465519D01*
X110721000Y-108477771D01*
X110721000Y-121562229D01*
X110721602Y-121574481D01*
X110726085Y-121620000D01*
X110705793Y-121826032D01*
X110664172Y-121963235D01*
X110645694Y-122024149D01*
X110593939Y-122120975D01*
X110548103Y-122206729D01*
X110416765Y-122366765D01*
X110256729Y-122498103D01*
X110170975Y-122543939D01*
X110074149Y-122595694D01*
X110074146Y-122595695D01*
X109876032Y-122655793D01*
X109779248Y-122665325D01*
X109715519Y-122671602D01*
X109670000Y-122676085D01*
X109624481Y-122671602D01*
X109612229Y-122671000D01*
X96527771Y-122671000D01*
X96515519Y-122671602D01*
X96470000Y-122676085D01*
X96424481Y-122671602D01*
X96360752Y-122665325D01*
X96263968Y-122655793D01*
X96065854Y-122595695D01*
X96065851Y-122595694D01*
X95969025Y-122543939D01*
X95883271Y-122498103D01*
X95723235Y-122366765D01*
X95591897Y-122206729D01*
X95546061Y-122120975D01*
X95494306Y-122024149D01*
X95475828Y-121963235D01*
X95434207Y-121826032D01*
X95413915Y-121620000D01*
X95418399Y-121574471D01*
X95419001Y-121562219D01*
X95419001Y-109595999D01*
X97521000Y-109595999D01*
X97521000Y-120444001D01*
X97523402Y-120468387D01*
X97530515Y-120491836D01*
X97542066Y-120513447D01*
X97557611Y-120532389D01*
X97576553Y-120547934D01*
X97598164Y-120559485D01*
X97621613Y-120566598D01*
X97645999Y-120569000D01*
X108494001Y-120569000D01*
X108518387Y-120566598D01*
X108541836Y-120559485D01*
X108563447Y-120547934D01*
X108582389Y-120532389D01*
X108597934Y-120513447D01*
X108609485Y-120491836D01*
X108616598Y-120468387D01*
X108619000Y-120444001D01*
X108619001Y-109595999D01*
X108616599Y-109571613D01*
X108609486Y-109548164D01*
X108597935Y-109526553D01*
X108582390Y-109507611D01*
X108563448Y-109492066D01*
X108541837Y-109480515D01*
X108518388Y-109473402D01*
X108494002Y-109471000D01*
X97645999Y-109471000D01*
X97621613Y-109473402D01*
X97598164Y-109480515D01*
X97576553Y-109492066D01*
X97557611Y-109507611D01*
X97542066Y-109526553D01*
X97530515Y-109548164D01*
X97523402Y-109571613D01*
X97521000Y-109595999D01*
X95419001Y-109595999D01*
X95419000Y-108477771D01*
X95418398Y-108465519D01*
X95413915Y-108420000D01*
X95434207Y-108213970D01*
X95434207Y-108213968D01*
X95494305Y-108015854D01*
X95494306Y-108015851D01*
X95546061Y-107919025D01*
X95591897Y-107833271D01*
X95723235Y-107673235D01*
X95883271Y-107541897D01*
X95969025Y-107496061D01*
X96065851Y-107444306D01*
X96065854Y-107444305D01*
X96263968Y-107384207D01*
X96360752Y-107374675D01*
X96424481Y-107368398D01*
X96470000Y-107363915D01*
X96515519Y-107368398D01*
X96527771Y-107369000D01*
X109612229Y-107369000D01*
X109624481Y-107368398D01*
X109670000Y-107363915D01*
X109715519Y-107368398D01*
G37*
G36*
X185915519Y-102608398D02*
G01*
X185979248Y-102614675D01*
X186076032Y-102624207D01*
X186274146Y-102684305D01*
X186274149Y-102684306D01*
X186370975Y-102736061D01*
X186456729Y-102781897D01*
X186616765Y-102913235D01*
X186748103Y-103073271D01*
X186792711Y-103156728D01*
X186845694Y-103255851D01*
X186845695Y-103255854D01*
X186905793Y-103453968D01*
X186905793Y-103453970D01*
X186926085Y-103660000D01*
X186921602Y-103705519D01*
X186921000Y-103717771D01*
X186921000Y-116802229D01*
X186921602Y-116814481D01*
X186926085Y-116860000D01*
X186905793Y-117066032D01*
X186845695Y-117264145D01*
X186845694Y-117264149D01*
X186793939Y-117360975D01*
X186748103Y-117446729D01*
X186616765Y-117606765D01*
X186456729Y-117738103D01*
X186370975Y-117783939D01*
X186274149Y-117835694D01*
X186274146Y-117835695D01*
X186076032Y-117895793D01*
X185979248Y-117905325D01*
X185915519Y-117911602D01*
X185870000Y-117916085D01*
X185824481Y-117911602D01*
X185812229Y-117911000D01*
X172727771Y-117911000D01*
X172715519Y-117911602D01*
X172670000Y-117916085D01*
X172624481Y-117911602D01*
X172560752Y-117905325D01*
X172463968Y-117895793D01*
X172265854Y-117835695D01*
X172265851Y-117835694D01*
X172169025Y-117783939D01*
X172083271Y-117738103D01*
X171923235Y-117606765D01*
X171791897Y-117446729D01*
X171746061Y-117360975D01*
X171694306Y-117264149D01*
X171694305Y-117264145D01*
X171634207Y-117066032D01*
X171613915Y-116860000D01*
X171618399Y-116814471D01*
X171619001Y-116802219D01*
X171619001Y-104835999D01*
X173721000Y-104835999D01*
X173721000Y-115684001D01*
X173723402Y-115708387D01*
X173730515Y-115731836D01*
X173742066Y-115753447D01*
X173757611Y-115772389D01*
X173776553Y-115787934D01*
X173798164Y-115799485D01*
X173821613Y-115806598D01*
X173845999Y-115809000D01*
X184694001Y-115809000D01*
X184718387Y-115806598D01*
X184741836Y-115799485D01*
X184763447Y-115787934D01*
X184782389Y-115772389D01*
X184797934Y-115753447D01*
X184809485Y-115731836D01*
X184816598Y-115708387D01*
X184819000Y-115684001D01*
X184819001Y-104835999D01*
X184816599Y-104811613D01*
X184809486Y-104788164D01*
X184797935Y-104766553D01*
X184782390Y-104747611D01*
X184763448Y-104732066D01*
X184741837Y-104720515D01*
X184718388Y-104713402D01*
X184694002Y-104711000D01*
X173845999Y-104711000D01*
X173821613Y-104713402D01*
X173798164Y-104720515D01*
X173776553Y-104732066D01*
X173757611Y-104747611D01*
X173742066Y-104766553D01*
X173730515Y-104788164D01*
X173723402Y-104811613D01*
X173721000Y-104835999D01*
X171619001Y-104835999D01*
X171619000Y-103717771D01*
X171618398Y-103705519D01*
X171613915Y-103660000D01*
X171634207Y-103453970D01*
X171634207Y-103453968D01*
X171694305Y-103255854D01*
X171694306Y-103255851D01*
X171747289Y-103156728D01*
X171791897Y-103073271D01*
X171923235Y-102913235D01*
X172083271Y-102781897D01*
X172169025Y-102736061D01*
X172265851Y-102684306D01*
X172265854Y-102684305D01*
X172463968Y-102624207D01*
X172560752Y-102614675D01*
X172624481Y-102608398D01*
X172670000Y-102603915D01*
X172715519Y-102608398D01*
X172727771Y-102609000D01*
X185812229Y-102609000D01*
X185824481Y-102608398D01*
X185870000Y-102603915D01*
X185915519Y-102608398D01*
G37*
G36*
X166865519Y-100328398D02*
G01*
X166929248Y-100334675D01*
X167026032Y-100344207D01*
X167191184Y-100394306D01*
X167224149Y-100404306D01*
X167320975Y-100456061D01*
X167406729Y-100501897D01*
X167566765Y-100633235D01*
X167698103Y-100793271D01*
X167737366Y-100866728D01*
X167795694Y-100975851D01*
X167795695Y-100975854D01*
X167855793Y-101173968D01*
X167855793Y-101173970D01*
X167876085Y-101380000D01*
X167871602Y-101425519D01*
X167871000Y-101437771D01*
X167871000Y-114522229D01*
X167871602Y-114534481D01*
X167876085Y-114580000D01*
X167855793Y-114786032D01*
X167795695Y-114984145D01*
X167795694Y-114984149D01*
X167743939Y-115080975D01*
X167698103Y-115166729D01*
X167566765Y-115326765D01*
X167406729Y-115458103D01*
X167320975Y-115503939D01*
X167224149Y-115555694D01*
X167224146Y-115555695D01*
X167026032Y-115615793D01*
X166929248Y-115625325D01*
X166865519Y-115631602D01*
X166820000Y-115636085D01*
X166774481Y-115631602D01*
X166762229Y-115631000D01*
X153677771Y-115631000D01*
X153665519Y-115631602D01*
X153620000Y-115636085D01*
X153574481Y-115631602D01*
X153510752Y-115625325D01*
X153413968Y-115615793D01*
X153215854Y-115555695D01*
X153215851Y-115555694D01*
X153119025Y-115503939D01*
X153033271Y-115458103D01*
X152873235Y-115326765D01*
X152741897Y-115166729D01*
X152696061Y-115080975D01*
X152644306Y-114984149D01*
X152644305Y-114984145D01*
X152584207Y-114786032D01*
X152563915Y-114580000D01*
X152568399Y-114534471D01*
X152569001Y-114522219D01*
X152569001Y-102555999D01*
X154671000Y-102555999D01*
X154671000Y-113404001D01*
X154673402Y-113428387D01*
X154680515Y-113451836D01*
X154692066Y-113473447D01*
X154707611Y-113492389D01*
X154726553Y-113507934D01*
X154748164Y-113519485D01*
X154771613Y-113526598D01*
X154795999Y-113529000D01*
X165644001Y-113529000D01*
X165668387Y-113526598D01*
X165691836Y-113519485D01*
X165713447Y-113507934D01*
X165732389Y-113492389D01*
X165747934Y-113473447D01*
X165759485Y-113451836D01*
X165766598Y-113428387D01*
X165769000Y-113404001D01*
X165769001Y-102555999D01*
X165766599Y-102531613D01*
X165759486Y-102508164D01*
X165747935Y-102486553D01*
X165732390Y-102467611D01*
X165713448Y-102452066D01*
X165691837Y-102440515D01*
X165668388Y-102433402D01*
X165644002Y-102431000D01*
X154795999Y-102431000D01*
X154771613Y-102433402D01*
X154748164Y-102440515D01*
X154726553Y-102452066D01*
X154707611Y-102467611D01*
X154692066Y-102486553D01*
X154680515Y-102508164D01*
X154673402Y-102531613D01*
X154671000Y-102555999D01*
X152569001Y-102555999D01*
X152569000Y-101437771D01*
X152568398Y-101425519D01*
X152563915Y-101380000D01*
X152584207Y-101173970D01*
X152584207Y-101173968D01*
X152644305Y-100975854D01*
X152644306Y-100975851D01*
X152702634Y-100866728D01*
X152741897Y-100793271D01*
X152873235Y-100633235D01*
X153033271Y-100501897D01*
X153119025Y-100456061D01*
X153215851Y-100404306D01*
X153248816Y-100394306D01*
X153413968Y-100344207D01*
X153510752Y-100334675D01*
X153574481Y-100328398D01*
X153620000Y-100323915D01*
X153665519Y-100328398D01*
X153677771Y-100329000D01*
X166762229Y-100329000D01*
X166774481Y-100328398D01*
X166820000Y-100323915D01*
X166865519Y-100328398D01*
G37*
G36*
X128765519Y-100318398D02*
G01*
X128821534Y-100323915D01*
X128926032Y-100334207D01*
X129124146Y-100394305D01*
X129124149Y-100394306D01*
X129220975Y-100446061D01*
X129306729Y-100491897D01*
X129466765Y-100623235D01*
X129598103Y-100783271D01*
X129642711Y-100866728D01*
X129695694Y-100965851D01*
X129695695Y-100965854D01*
X129755793Y-101163968D01*
X129755793Y-101163970D01*
X129776085Y-101370000D01*
X129771602Y-101415519D01*
X129771000Y-101427771D01*
X129771000Y-114512229D01*
X129771602Y-114524481D01*
X129776085Y-114570000D01*
X129755793Y-114776032D01*
X129752759Y-114786032D01*
X129695694Y-114974149D01*
X129643939Y-115070975D01*
X129598103Y-115156729D01*
X129466765Y-115316765D01*
X129306729Y-115448103D01*
X129220975Y-115493939D01*
X129124149Y-115545694D01*
X129124146Y-115545695D01*
X128926032Y-115605793D01*
X128829248Y-115615325D01*
X128765519Y-115621602D01*
X128720000Y-115626085D01*
X128674481Y-115621602D01*
X128662229Y-115621000D01*
X115577771Y-115621000D01*
X115565519Y-115621602D01*
X115520000Y-115626085D01*
X115474481Y-115621602D01*
X115410752Y-115615325D01*
X115313968Y-115605793D01*
X115115854Y-115545695D01*
X115115851Y-115545694D01*
X115019025Y-115493939D01*
X114933271Y-115448103D01*
X114773235Y-115316765D01*
X114641897Y-115156729D01*
X114596061Y-115070975D01*
X114544306Y-114974149D01*
X114487241Y-114786032D01*
X114484207Y-114776032D01*
X114463915Y-114570000D01*
X114468399Y-114524471D01*
X114469001Y-114512219D01*
X114469001Y-102545999D01*
X116571000Y-102545999D01*
X116571000Y-113394001D01*
X116573402Y-113418387D01*
X116580515Y-113441836D01*
X116592066Y-113463447D01*
X116607611Y-113482389D01*
X116626553Y-113497934D01*
X116648164Y-113509485D01*
X116671613Y-113516598D01*
X116695999Y-113519000D01*
X127544001Y-113519000D01*
X127568387Y-113516598D01*
X127591836Y-113509485D01*
X127613447Y-113497934D01*
X127632389Y-113482389D01*
X127647934Y-113463447D01*
X127659485Y-113441836D01*
X127666598Y-113418387D01*
X127669000Y-113394001D01*
X127669001Y-102545999D01*
X127666599Y-102521613D01*
X127659486Y-102498164D01*
X127647935Y-102476553D01*
X127632390Y-102457611D01*
X127613448Y-102442066D01*
X127591837Y-102430515D01*
X127568388Y-102423402D01*
X127544002Y-102421000D01*
X116695999Y-102421000D01*
X116671613Y-102423402D01*
X116648164Y-102430515D01*
X116626553Y-102442066D01*
X116607611Y-102457611D01*
X116592066Y-102476553D01*
X116580515Y-102498164D01*
X116573402Y-102521613D01*
X116571000Y-102545999D01*
X114469001Y-102545999D01*
X114469000Y-101427771D01*
X114468398Y-101415519D01*
X114463915Y-101370000D01*
X114484207Y-101163970D01*
X114484207Y-101163968D01*
X114544305Y-100965854D01*
X114544306Y-100965851D01*
X114597289Y-100866728D01*
X114641897Y-100783271D01*
X114773235Y-100623235D01*
X114933271Y-100491897D01*
X115019025Y-100446061D01*
X115115851Y-100394306D01*
X115115854Y-100394305D01*
X115313968Y-100334207D01*
X115418466Y-100323915D01*
X115474481Y-100318398D01*
X115520000Y-100313915D01*
X115565519Y-100318398D01*
X115577771Y-100319000D01*
X128662229Y-100319000D01*
X128674481Y-100318398D01*
X128720000Y-100313915D01*
X128765519Y-100318398D01*
G37*
G36*
X147815519Y-95558398D02*
G01*
X147879248Y-95564675D01*
X147976032Y-95574207D01*
X148174146Y-95634305D01*
X148174149Y-95634306D01*
X148270975Y-95686061D01*
X148356729Y-95731897D01*
X148516765Y-95863235D01*
X148648103Y-96023271D01*
X148692711Y-96106728D01*
X148745694Y-96205851D01*
X148745695Y-96205854D01*
X148805793Y-96403968D01*
X148805793Y-96403970D01*
X148826085Y-96610000D01*
X148821602Y-96655519D01*
X148821000Y-96667771D01*
X148821000Y-109752229D01*
X148821602Y-109764481D01*
X148826085Y-109810000D01*
X148805793Y-110016032D01*
X148764172Y-110153235D01*
X148745694Y-110214149D01*
X148693939Y-110310975D01*
X148648103Y-110396729D01*
X148516765Y-110556765D01*
X148356729Y-110688103D01*
X148270975Y-110733939D01*
X148174149Y-110785694D01*
X148174146Y-110785695D01*
X147976032Y-110845793D01*
X147879248Y-110855325D01*
X147815519Y-110861602D01*
X147770000Y-110866085D01*
X147724481Y-110861602D01*
X147712229Y-110861000D01*
X134627771Y-110861000D01*
X134615519Y-110861602D01*
X134570000Y-110866085D01*
X134524481Y-110861602D01*
X134460752Y-110855325D01*
X134363968Y-110845793D01*
X134165854Y-110785695D01*
X134165851Y-110785694D01*
X134069025Y-110733939D01*
X133983271Y-110688103D01*
X133823235Y-110556765D01*
X133691897Y-110396729D01*
X133646061Y-110310975D01*
X133594306Y-110214149D01*
X133575828Y-110153235D01*
X133534207Y-110016032D01*
X133513915Y-109810000D01*
X133518399Y-109764471D01*
X133519001Y-109752219D01*
X133519001Y-97785999D01*
X135621000Y-97785999D01*
X135621000Y-108634001D01*
X135623402Y-108658387D01*
X135630515Y-108681836D01*
X135642066Y-108703447D01*
X135657611Y-108722389D01*
X135676553Y-108737934D01*
X135698164Y-108749485D01*
X135721613Y-108756598D01*
X135745999Y-108759000D01*
X146594001Y-108759000D01*
X146618387Y-108756598D01*
X146641836Y-108749485D01*
X146663447Y-108737934D01*
X146682389Y-108722389D01*
X146697934Y-108703447D01*
X146709485Y-108681836D01*
X146716598Y-108658387D01*
X146719000Y-108634001D01*
X146719001Y-97785999D01*
X146716599Y-97761613D01*
X146709486Y-97738164D01*
X146697935Y-97716553D01*
X146682390Y-97697611D01*
X146663448Y-97682066D01*
X146641837Y-97670515D01*
X146618388Y-97663402D01*
X146594002Y-97661000D01*
X135745999Y-97661000D01*
X135721613Y-97663402D01*
X135698164Y-97670515D01*
X135676553Y-97682066D01*
X135657611Y-97697611D01*
X135642066Y-97716553D01*
X135630515Y-97738164D01*
X135623402Y-97761613D01*
X135621000Y-97785999D01*
X133519001Y-97785999D01*
X133519000Y-96667771D01*
X133518398Y-96655519D01*
X133513915Y-96610000D01*
X133534207Y-96403970D01*
X133534207Y-96403968D01*
X133594305Y-96205854D01*
X133594306Y-96205851D01*
X133647289Y-96106728D01*
X133691897Y-96023271D01*
X133823235Y-95863235D01*
X133983271Y-95731897D01*
X134069025Y-95686061D01*
X134165851Y-95634306D01*
X134165854Y-95634305D01*
X134363968Y-95574207D01*
X134460752Y-95564675D01*
X134524481Y-95558398D01*
X134570000Y-95553915D01*
X134615519Y-95558398D01*
X134627771Y-95559000D01*
X147712229Y-95559000D01*
X147724481Y-95558398D01*
X147770000Y-95553915D01*
X147815519Y-95558398D01*
G37*
G36*
X90665519Y-90798398D02*
G01*
X90729248Y-90804675D01*
X90826032Y-90814207D01*
X91024146Y-90874305D01*
X91024149Y-90874306D01*
X91120975Y-90926061D01*
X91206729Y-90971897D01*
X91366765Y-91103235D01*
X91498103Y-91263271D01*
X91542711Y-91346728D01*
X91595694Y-91445851D01*
X91595695Y-91445854D01*
X91655793Y-91643968D01*
X91655793Y-91643970D01*
X91676085Y-91850000D01*
X91671602Y-91895519D01*
X91671000Y-91907771D01*
X91671000Y-104992229D01*
X91671602Y-105004481D01*
X91676085Y-105050000D01*
X91655793Y-105256032D01*
X91595695Y-105454145D01*
X91595694Y-105454149D01*
X91543939Y-105550975D01*
X91498103Y-105636729D01*
X91366765Y-105796765D01*
X91206729Y-105928103D01*
X91120975Y-105973939D01*
X91024149Y-106025694D01*
X91024146Y-106025695D01*
X90826032Y-106085793D01*
X90729248Y-106095325D01*
X90665519Y-106101602D01*
X90620000Y-106106085D01*
X90574481Y-106101602D01*
X90562229Y-106101000D01*
X77477771Y-106101000D01*
X77465519Y-106101602D01*
X77420000Y-106106085D01*
X77374481Y-106101602D01*
X77310752Y-106095325D01*
X77213968Y-106085793D01*
X77015854Y-106025695D01*
X77015851Y-106025694D01*
X76919025Y-105973939D01*
X76833271Y-105928103D01*
X76673235Y-105796765D01*
X76541897Y-105636729D01*
X76496061Y-105550975D01*
X76444306Y-105454149D01*
X76444305Y-105454145D01*
X76384207Y-105256032D01*
X76363915Y-105050000D01*
X76368399Y-105004471D01*
X76369001Y-104992219D01*
X76369001Y-93025999D01*
X78471000Y-93025999D01*
X78471000Y-103874001D01*
X78473402Y-103898387D01*
X78480515Y-103921836D01*
X78492066Y-103943447D01*
X78507611Y-103962389D01*
X78526553Y-103977934D01*
X78548164Y-103989485D01*
X78571613Y-103996598D01*
X78595999Y-103999000D01*
X89444001Y-103999000D01*
X89468387Y-103996598D01*
X89491836Y-103989485D01*
X89513447Y-103977934D01*
X89532389Y-103962389D01*
X89547934Y-103943447D01*
X89559485Y-103921836D01*
X89566598Y-103898387D01*
X89569000Y-103874001D01*
X89569001Y-93025999D01*
X89566599Y-93001613D01*
X89559486Y-92978164D01*
X89547935Y-92956553D01*
X89532390Y-92937611D01*
X89513448Y-92922066D01*
X89491837Y-92910515D01*
X89468388Y-92903402D01*
X89444002Y-92901000D01*
X78595999Y-92901000D01*
X78571613Y-92903402D01*
X78548164Y-92910515D01*
X78526553Y-92922066D01*
X78507611Y-92937611D01*
X78492066Y-92956553D01*
X78480515Y-92978164D01*
X78473402Y-93001613D01*
X78471000Y-93025999D01*
X76369001Y-93025999D01*
X76369000Y-91907771D01*
X76368398Y-91895519D01*
X76363915Y-91850000D01*
X76384207Y-91643970D01*
X76384207Y-91643968D01*
X76444305Y-91445854D01*
X76444306Y-91445851D01*
X76497289Y-91346728D01*
X76541897Y-91263271D01*
X76673235Y-91103235D01*
X76833271Y-90971897D01*
X76919025Y-90926061D01*
X77015851Y-90874306D01*
X77015854Y-90874305D01*
X77213968Y-90814207D01*
X77310752Y-90804675D01*
X77374481Y-90798398D01*
X77420000Y-90793915D01*
X77465519Y-90798398D01*
X77477771Y-90799000D01*
X90562229Y-90799000D01*
X90574481Y-90798398D01*
X90620000Y-90793915D01*
X90665519Y-90798398D01*
G37*
G36*
X109715519Y-88318398D02*
G01*
X109779248Y-88324675D01*
X109876032Y-88334207D01*
X110074146Y-88394305D01*
X110074149Y-88394306D01*
X110170975Y-88446061D01*
X110256729Y-88491897D01*
X110416765Y-88623235D01*
X110548103Y-88783271D01*
X110593939Y-88869025D01*
X110645694Y-88965851D01*
X110645695Y-88965854D01*
X110705793Y-89163968D01*
X110705793Y-89163970D01*
X110726085Y-89370000D01*
X110721602Y-89415519D01*
X110721000Y-89427771D01*
X110721000Y-102512229D01*
X110721602Y-102524481D01*
X110726085Y-102570000D01*
X110705793Y-102776032D01*
X110664172Y-102913235D01*
X110645694Y-102974149D01*
X110593939Y-103070975D01*
X110548103Y-103156729D01*
X110416765Y-103316765D01*
X110256729Y-103448103D01*
X110170975Y-103493939D01*
X110074149Y-103545694D01*
X110074146Y-103545695D01*
X109876032Y-103605793D01*
X109779248Y-103615325D01*
X109715519Y-103621602D01*
X109670000Y-103626085D01*
X109624481Y-103621602D01*
X109612229Y-103621000D01*
X96527771Y-103621000D01*
X96515519Y-103621602D01*
X96470000Y-103626085D01*
X96424481Y-103621602D01*
X96360752Y-103615325D01*
X96263968Y-103605793D01*
X96065854Y-103545695D01*
X96065851Y-103545694D01*
X95969025Y-103493939D01*
X95883271Y-103448103D01*
X95723235Y-103316765D01*
X95591897Y-103156729D01*
X95546061Y-103070975D01*
X95494306Y-102974149D01*
X95475828Y-102913235D01*
X95434207Y-102776032D01*
X95413915Y-102570000D01*
X95418399Y-102524471D01*
X95419001Y-102512219D01*
X95419001Y-90545999D01*
X97521000Y-90545999D01*
X97521000Y-101394001D01*
X97523402Y-101418387D01*
X97530515Y-101441836D01*
X97542066Y-101463447D01*
X97557611Y-101482389D01*
X97576553Y-101497934D01*
X97598164Y-101509485D01*
X97621613Y-101516598D01*
X97645999Y-101519000D01*
X108494001Y-101519000D01*
X108518387Y-101516598D01*
X108541836Y-101509485D01*
X108563447Y-101497934D01*
X108582389Y-101482389D01*
X108597934Y-101463447D01*
X108609485Y-101441836D01*
X108616598Y-101418387D01*
X108619000Y-101394001D01*
X108619001Y-90545999D01*
X108616599Y-90521613D01*
X108609486Y-90498164D01*
X108597935Y-90476553D01*
X108582390Y-90457611D01*
X108563448Y-90442066D01*
X108541837Y-90430515D01*
X108518388Y-90423402D01*
X108494002Y-90421000D01*
X97645999Y-90421000D01*
X97621613Y-90423402D01*
X97598164Y-90430515D01*
X97576553Y-90442066D01*
X97557611Y-90457611D01*
X97542066Y-90476553D01*
X97530515Y-90498164D01*
X97523402Y-90521613D01*
X97521000Y-90545999D01*
X95419001Y-90545999D01*
X95419000Y-89427771D01*
X95418398Y-89415519D01*
X95413915Y-89370000D01*
X95434207Y-89163970D01*
X95434207Y-89163968D01*
X95494305Y-88965854D01*
X95494306Y-88965851D01*
X95546061Y-88869025D01*
X95591897Y-88783271D01*
X95723235Y-88623235D01*
X95883271Y-88491897D01*
X95969025Y-88446061D01*
X96065851Y-88394306D01*
X96065854Y-88394305D01*
X96263968Y-88334207D01*
X96360752Y-88324675D01*
X96424481Y-88318398D01*
X96470000Y-88313915D01*
X96515519Y-88318398D01*
X96527771Y-88319000D01*
X109612229Y-88319000D01*
X109624481Y-88318398D01*
X109670000Y-88313915D01*
X109715519Y-88318398D01*
G37*
G36*
X71615519Y-86028398D02*
G01*
X71679248Y-86034675D01*
X71776032Y-86044207D01*
X71974146Y-86104305D01*
X71974149Y-86104306D01*
X72070975Y-86156061D01*
X72156729Y-86201897D01*
X72316765Y-86333235D01*
X72448103Y-86493271D01*
X72493939Y-86579025D01*
X72545694Y-86675851D01*
X72545695Y-86675854D01*
X72605793Y-86873968D01*
X72605793Y-86873970D01*
X72626085Y-87080000D01*
X72621602Y-87125519D01*
X72621000Y-87137771D01*
X72621000Y-100222229D01*
X72621602Y-100234481D01*
X72626085Y-100280000D01*
X72605793Y-100486032D01*
X72600980Y-100501897D01*
X72545694Y-100684149D01*
X72493939Y-100780975D01*
X72448103Y-100866729D01*
X72316765Y-101026765D01*
X72156729Y-101158103D01*
X72070975Y-101203939D01*
X71974149Y-101255694D01*
X71974146Y-101255695D01*
X71776032Y-101315793D01*
X71679248Y-101325325D01*
X71615519Y-101331602D01*
X71570000Y-101336085D01*
X71524481Y-101331602D01*
X71512229Y-101331000D01*
X58427771Y-101331000D01*
X58415519Y-101331602D01*
X58370000Y-101336085D01*
X58324481Y-101331602D01*
X58260752Y-101325325D01*
X58163968Y-101315793D01*
X57965854Y-101255695D01*
X57965851Y-101255694D01*
X57869025Y-101203939D01*
X57783271Y-101158103D01*
X57623235Y-101026765D01*
X57491897Y-100866729D01*
X57446061Y-100780975D01*
X57394306Y-100684149D01*
X57339020Y-100501897D01*
X57334207Y-100486032D01*
X57313915Y-100280000D01*
X57318399Y-100234471D01*
X57319001Y-100222219D01*
X57319001Y-88255999D01*
X59421000Y-88255999D01*
X59421000Y-99104001D01*
X59423402Y-99128387D01*
X59430515Y-99151836D01*
X59442066Y-99173447D01*
X59457611Y-99192389D01*
X59476553Y-99207934D01*
X59498164Y-99219485D01*
X59521613Y-99226598D01*
X59545999Y-99229000D01*
X70394001Y-99229000D01*
X70418387Y-99226598D01*
X70441836Y-99219485D01*
X70463447Y-99207934D01*
X70482389Y-99192389D01*
X70497934Y-99173447D01*
X70509485Y-99151836D01*
X70516598Y-99128387D01*
X70519000Y-99104001D01*
X70519001Y-88255999D01*
X70516599Y-88231613D01*
X70509486Y-88208164D01*
X70497935Y-88186553D01*
X70482390Y-88167611D01*
X70463448Y-88152066D01*
X70441837Y-88140515D01*
X70418388Y-88133402D01*
X70394002Y-88131000D01*
X59545999Y-88131000D01*
X59521613Y-88133402D01*
X59498164Y-88140515D01*
X59476553Y-88152066D01*
X59457611Y-88167611D01*
X59442066Y-88186553D01*
X59430515Y-88208164D01*
X59423402Y-88231613D01*
X59421000Y-88255999D01*
X57319001Y-88255999D01*
X57319000Y-87137771D01*
X57318398Y-87125519D01*
X57313915Y-87080000D01*
X57334207Y-86873970D01*
X57334207Y-86873968D01*
X57394305Y-86675854D01*
X57394306Y-86675851D01*
X57446061Y-86579025D01*
X57491897Y-86493271D01*
X57623235Y-86333235D01*
X57783271Y-86201897D01*
X57869025Y-86156061D01*
X57965851Y-86104306D01*
X57965854Y-86104305D01*
X58163968Y-86044207D01*
X58260752Y-86034675D01*
X58324481Y-86028398D01*
X58370000Y-86023915D01*
X58415519Y-86028398D01*
X58427771Y-86029000D01*
X71512229Y-86029000D01*
X71524481Y-86028398D01*
X71570000Y-86023915D01*
X71615519Y-86028398D01*
G37*
G36*
X185915519Y-83558398D02*
G01*
X185979248Y-83564675D01*
X186076032Y-83574207D01*
X186274146Y-83634305D01*
X186274149Y-83634306D01*
X186370975Y-83686061D01*
X186456729Y-83731897D01*
X186616765Y-83863235D01*
X186748103Y-84023271D01*
X186792711Y-84106728D01*
X186845694Y-84205851D01*
X186845695Y-84205854D01*
X186905793Y-84403968D01*
X186905793Y-84403970D01*
X186926085Y-84610000D01*
X186921602Y-84655519D01*
X186921000Y-84667771D01*
X186921000Y-97752229D01*
X186921602Y-97764481D01*
X186926085Y-97810000D01*
X186905793Y-98016032D01*
X186845695Y-98214145D01*
X186845694Y-98214149D01*
X186793939Y-98310975D01*
X186748103Y-98396729D01*
X186616765Y-98556765D01*
X186456729Y-98688103D01*
X186370975Y-98733939D01*
X186274149Y-98785694D01*
X186274146Y-98785695D01*
X186076032Y-98845793D01*
X185979248Y-98855325D01*
X185915519Y-98861602D01*
X185870000Y-98866085D01*
X185824481Y-98861602D01*
X185812229Y-98861000D01*
X172727771Y-98861000D01*
X172715519Y-98861602D01*
X172670000Y-98866085D01*
X172624481Y-98861602D01*
X172560752Y-98855325D01*
X172463968Y-98845793D01*
X172265854Y-98785695D01*
X172265851Y-98785694D01*
X172169025Y-98733939D01*
X172083271Y-98688103D01*
X171923235Y-98556765D01*
X171791897Y-98396729D01*
X171746061Y-98310975D01*
X171694306Y-98214149D01*
X171694305Y-98214145D01*
X171634207Y-98016032D01*
X171613915Y-97810000D01*
X171618399Y-97764471D01*
X171619001Y-97752219D01*
X171619001Y-85785999D01*
X173721000Y-85785999D01*
X173721000Y-96634001D01*
X173723402Y-96658387D01*
X173730515Y-96681836D01*
X173742066Y-96703447D01*
X173757611Y-96722389D01*
X173776553Y-96737934D01*
X173798164Y-96749485D01*
X173821613Y-96756598D01*
X173845999Y-96759000D01*
X184694001Y-96759000D01*
X184718387Y-96756598D01*
X184741836Y-96749485D01*
X184763447Y-96737934D01*
X184782389Y-96722389D01*
X184797934Y-96703447D01*
X184809485Y-96681836D01*
X184816598Y-96658387D01*
X184819000Y-96634001D01*
X184819001Y-85785999D01*
X184816599Y-85761613D01*
X184809486Y-85738164D01*
X184797935Y-85716553D01*
X184782390Y-85697611D01*
X184763448Y-85682066D01*
X184741837Y-85670515D01*
X184718388Y-85663402D01*
X184694002Y-85661000D01*
X173845999Y-85661000D01*
X173821613Y-85663402D01*
X173798164Y-85670515D01*
X173776553Y-85682066D01*
X173757611Y-85697611D01*
X173742066Y-85716553D01*
X173730515Y-85738164D01*
X173723402Y-85761613D01*
X173721000Y-85785999D01*
X171619001Y-85785999D01*
X171619000Y-84667771D01*
X171618398Y-84655519D01*
X171613915Y-84610000D01*
X171634207Y-84403970D01*
X171634207Y-84403968D01*
X171694305Y-84205854D01*
X171694306Y-84205851D01*
X171747289Y-84106728D01*
X171791897Y-84023271D01*
X171923235Y-83863235D01*
X172083271Y-83731897D01*
X172169025Y-83686061D01*
X172265851Y-83634306D01*
X172265854Y-83634305D01*
X172463968Y-83574207D01*
X172560752Y-83564675D01*
X172624481Y-83558398D01*
X172670000Y-83553915D01*
X172715519Y-83558398D01*
X172727771Y-83559000D01*
X185812229Y-83559000D01*
X185824481Y-83558398D01*
X185870000Y-83553915D01*
X185915519Y-83558398D01*
G37*
G36*
X166865519Y-81278398D02*
G01*
X166929248Y-81284675D01*
X167026032Y-81294207D01*
X167191184Y-81344306D01*
X167224149Y-81354306D01*
X167320975Y-81406061D01*
X167406729Y-81451897D01*
X167566765Y-81583235D01*
X167698103Y-81743271D01*
X167743939Y-81829025D01*
X167795694Y-81925851D01*
X167795695Y-81925854D01*
X167855793Y-82123968D01*
X167855793Y-82123970D01*
X167876085Y-82330000D01*
X167871602Y-82375519D01*
X167871000Y-82387771D01*
X167871000Y-95472229D01*
X167871602Y-95484481D01*
X167876085Y-95530000D01*
X167855793Y-95736032D01*
X167795695Y-95934145D01*
X167795694Y-95934149D01*
X167743939Y-96030975D01*
X167698103Y-96116729D01*
X167566765Y-96276765D01*
X167406729Y-96408103D01*
X167320975Y-96453939D01*
X167224149Y-96505694D01*
X167224146Y-96505695D01*
X167026032Y-96565793D01*
X166929248Y-96575325D01*
X166865519Y-96581602D01*
X166820000Y-96586085D01*
X166774481Y-96581602D01*
X166762229Y-96581000D01*
X153677771Y-96581000D01*
X153665519Y-96581602D01*
X153620000Y-96586085D01*
X153574481Y-96581602D01*
X153510752Y-96575325D01*
X153413968Y-96565793D01*
X153215854Y-96505695D01*
X153215851Y-96505694D01*
X153119025Y-96453939D01*
X153033271Y-96408103D01*
X152873235Y-96276765D01*
X152741897Y-96116729D01*
X152696061Y-96030975D01*
X152644306Y-95934149D01*
X152644305Y-95934145D01*
X152584207Y-95736032D01*
X152563915Y-95530000D01*
X152568399Y-95484471D01*
X152569001Y-95472219D01*
X152569001Y-83505999D01*
X154671000Y-83505999D01*
X154671000Y-94354001D01*
X154673402Y-94378387D01*
X154680515Y-94401836D01*
X154692066Y-94423447D01*
X154707611Y-94442389D01*
X154726553Y-94457934D01*
X154748164Y-94469485D01*
X154771613Y-94476598D01*
X154795999Y-94479000D01*
X165644001Y-94479000D01*
X165668387Y-94476598D01*
X165691836Y-94469485D01*
X165713447Y-94457934D01*
X165732389Y-94442389D01*
X165747934Y-94423447D01*
X165759485Y-94401836D01*
X165766598Y-94378387D01*
X165769000Y-94354001D01*
X165769001Y-83505999D01*
X165766599Y-83481613D01*
X165759486Y-83458164D01*
X165747935Y-83436553D01*
X165732390Y-83417611D01*
X165713448Y-83402066D01*
X165691837Y-83390515D01*
X165668388Y-83383402D01*
X165644002Y-83381000D01*
X154795999Y-83381000D01*
X154771613Y-83383402D01*
X154748164Y-83390515D01*
X154726553Y-83402066D01*
X154707611Y-83417611D01*
X154692066Y-83436553D01*
X154680515Y-83458164D01*
X154673402Y-83481613D01*
X154671000Y-83505999D01*
X152569001Y-83505999D01*
X152569000Y-82387771D01*
X152568398Y-82375519D01*
X152563915Y-82330000D01*
X152584207Y-82123970D01*
X152584207Y-82123968D01*
X152644305Y-81925854D01*
X152644306Y-81925851D01*
X152696061Y-81829025D01*
X152741897Y-81743271D01*
X152873235Y-81583235D01*
X153033271Y-81451897D01*
X153119025Y-81406061D01*
X153215851Y-81354306D01*
X153248816Y-81344306D01*
X153413968Y-81294207D01*
X153510752Y-81284675D01*
X153574481Y-81278398D01*
X153620000Y-81273915D01*
X153665519Y-81278398D01*
X153677771Y-81279000D01*
X166762229Y-81279000D01*
X166774481Y-81278398D01*
X166820000Y-81273915D01*
X166865519Y-81278398D01*
G37*
G36*
X128765519Y-81268398D02*
G01*
X128821534Y-81273915D01*
X128926032Y-81284207D01*
X129124146Y-81344305D01*
X129124149Y-81344306D01*
X129220975Y-81396061D01*
X129306729Y-81441897D01*
X129466765Y-81573235D01*
X129598103Y-81733271D01*
X129643939Y-81819025D01*
X129695694Y-81915851D01*
X129695695Y-81915854D01*
X129755793Y-82113968D01*
X129755793Y-82113970D01*
X129776085Y-82320000D01*
X129771602Y-82365519D01*
X129771000Y-82377771D01*
X129771000Y-95462229D01*
X129771602Y-95474481D01*
X129776085Y-95520000D01*
X129755793Y-95726032D01*
X129752759Y-95736032D01*
X129695694Y-95924149D01*
X129643939Y-96020975D01*
X129598103Y-96106729D01*
X129466765Y-96266765D01*
X129306729Y-96398103D01*
X129220975Y-96443939D01*
X129124149Y-96495694D01*
X129124146Y-96495695D01*
X128926032Y-96555793D01*
X128829248Y-96565325D01*
X128765519Y-96571602D01*
X128720000Y-96576085D01*
X128674481Y-96571602D01*
X128662229Y-96571000D01*
X115577771Y-96571000D01*
X115565519Y-96571602D01*
X115520000Y-96576085D01*
X115474481Y-96571602D01*
X115410752Y-96565325D01*
X115313968Y-96555793D01*
X115115854Y-96495695D01*
X115115851Y-96495694D01*
X115019025Y-96443939D01*
X114933271Y-96398103D01*
X114773235Y-96266765D01*
X114641897Y-96106729D01*
X114596061Y-96020975D01*
X114544306Y-95924149D01*
X114487241Y-95736032D01*
X114484207Y-95726032D01*
X114463915Y-95520000D01*
X114468399Y-95474471D01*
X114469001Y-95462219D01*
X114469001Y-83495999D01*
X116571000Y-83495999D01*
X116571000Y-94344001D01*
X116573402Y-94368387D01*
X116580515Y-94391836D01*
X116592066Y-94413447D01*
X116607611Y-94432389D01*
X116626553Y-94447934D01*
X116648164Y-94459485D01*
X116671613Y-94466598D01*
X116695999Y-94469000D01*
X127544001Y-94469000D01*
X127568387Y-94466598D01*
X127591836Y-94459485D01*
X127613447Y-94447934D01*
X127632389Y-94432389D01*
X127647934Y-94413447D01*
X127659485Y-94391836D01*
X127666598Y-94368387D01*
X127669000Y-94344001D01*
X127669001Y-83495999D01*
X127666599Y-83471613D01*
X127659486Y-83448164D01*
X127647935Y-83426553D01*
X127632390Y-83407611D01*
X127613448Y-83392066D01*
X127591837Y-83380515D01*
X127568388Y-83373402D01*
X127544002Y-83371000D01*
X116695999Y-83371000D01*
X116671613Y-83373402D01*
X116648164Y-83380515D01*
X116626553Y-83392066D01*
X116607611Y-83407611D01*
X116592066Y-83426553D01*
X116580515Y-83448164D01*
X116573402Y-83471613D01*
X116571000Y-83495999D01*
X114469001Y-83495999D01*
X114469000Y-82377771D01*
X114468398Y-82365519D01*
X114463915Y-82320000D01*
X114484207Y-82113970D01*
X114484207Y-82113968D01*
X114544305Y-81915854D01*
X114544306Y-81915851D01*
X114596061Y-81819025D01*
X114641897Y-81733271D01*
X114773235Y-81573235D01*
X114933271Y-81441897D01*
X115019025Y-81396061D01*
X115115851Y-81344306D01*
X115115854Y-81344305D01*
X115313968Y-81284207D01*
X115418466Y-81273915D01*
X115474481Y-81268398D01*
X115520000Y-81263915D01*
X115565519Y-81268398D01*
X115577771Y-81269000D01*
X128662229Y-81269000D01*
X128674481Y-81268398D01*
X128720000Y-81263915D01*
X128765519Y-81268398D01*
G37*
G36*
X147815519Y-76508398D02*
G01*
X147879248Y-76514675D01*
X147976032Y-76524207D01*
X148174146Y-76584305D01*
X148174149Y-76584306D01*
X148270975Y-76636061D01*
X148356729Y-76681897D01*
X148516765Y-76813235D01*
X148648103Y-76973271D01*
X148692711Y-77056728D01*
X148745694Y-77155851D01*
X148745695Y-77155854D01*
X148805793Y-77353968D01*
X148805793Y-77353970D01*
X148826085Y-77560000D01*
X148821602Y-77605519D01*
X148821000Y-77617771D01*
X148821000Y-90702229D01*
X148821602Y-90714481D01*
X148826085Y-90760000D01*
X148805793Y-90966032D01*
X148764172Y-91103235D01*
X148745694Y-91164149D01*
X148693939Y-91260975D01*
X148648103Y-91346729D01*
X148516765Y-91506765D01*
X148356729Y-91638103D01*
X148270975Y-91683939D01*
X148174149Y-91735694D01*
X148174146Y-91735695D01*
X147976032Y-91795793D01*
X147879248Y-91805325D01*
X147815519Y-91811602D01*
X147770000Y-91816085D01*
X147724481Y-91811602D01*
X147712229Y-91811000D01*
X134627771Y-91811000D01*
X134615519Y-91811602D01*
X134570000Y-91816085D01*
X134524481Y-91811602D01*
X134460752Y-91805325D01*
X134363968Y-91795793D01*
X134165854Y-91735695D01*
X134165851Y-91735694D01*
X134069025Y-91683939D01*
X133983271Y-91638103D01*
X133823235Y-91506765D01*
X133691897Y-91346729D01*
X133646061Y-91260975D01*
X133594306Y-91164149D01*
X133575828Y-91103235D01*
X133534207Y-90966032D01*
X133513915Y-90760000D01*
X133518399Y-90714471D01*
X133519001Y-90702219D01*
X133519001Y-78735999D01*
X135621000Y-78735999D01*
X135621000Y-89584001D01*
X135623402Y-89608387D01*
X135630515Y-89631836D01*
X135642066Y-89653447D01*
X135657611Y-89672389D01*
X135676553Y-89687934D01*
X135698164Y-89699485D01*
X135721613Y-89706598D01*
X135745999Y-89709000D01*
X146594001Y-89709000D01*
X146618387Y-89706598D01*
X146641836Y-89699485D01*
X146663447Y-89687934D01*
X146682389Y-89672389D01*
X146697934Y-89653447D01*
X146709485Y-89631836D01*
X146716598Y-89608387D01*
X146719000Y-89584001D01*
X146719001Y-78735999D01*
X146716599Y-78711613D01*
X146709486Y-78688164D01*
X146697935Y-78666553D01*
X146682390Y-78647611D01*
X146663448Y-78632066D01*
X146641837Y-78620515D01*
X146618388Y-78613402D01*
X146594002Y-78611000D01*
X135745999Y-78611000D01*
X135721613Y-78613402D01*
X135698164Y-78620515D01*
X135676553Y-78632066D01*
X135657611Y-78647611D01*
X135642066Y-78666553D01*
X135630515Y-78688164D01*
X135623402Y-78711613D01*
X135621000Y-78735999D01*
X133519001Y-78735999D01*
X133519000Y-77617771D01*
X133518398Y-77605519D01*
X133513915Y-77560000D01*
X133534207Y-77353970D01*
X133534207Y-77353968D01*
X133594305Y-77155854D01*
X133594306Y-77155851D01*
X133647289Y-77056728D01*
X133691897Y-76973271D01*
X133823235Y-76813235D01*
X133983271Y-76681897D01*
X134069025Y-76636061D01*
X134165851Y-76584306D01*
X134165854Y-76584305D01*
X134363968Y-76524207D01*
X134460752Y-76514675D01*
X134524481Y-76508398D01*
X134570000Y-76503915D01*
X134615519Y-76508398D01*
X134627771Y-76509000D01*
X147712229Y-76509000D01*
X147724481Y-76508398D01*
X147770000Y-76503915D01*
X147815519Y-76508398D01*
G37*
G36*
X90665519Y-71748398D02*
G01*
X90729248Y-71754675D01*
X90826032Y-71764207D01*
X91024146Y-71824305D01*
X91024149Y-71824306D01*
X91120975Y-71876061D01*
X91206729Y-71921897D01*
X91366765Y-72053235D01*
X91498103Y-72213271D01*
X91542711Y-72296728D01*
X91595694Y-72395851D01*
X91595695Y-72395854D01*
X91655793Y-72593968D01*
X91655793Y-72593970D01*
X91676085Y-72800000D01*
X91671602Y-72845519D01*
X91671000Y-72857771D01*
X91671000Y-85942229D01*
X91671602Y-85954481D01*
X91676085Y-86000000D01*
X91655793Y-86206032D01*
X91617206Y-86333235D01*
X91595694Y-86404149D01*
X91543939Y-86500975D01*
X91498103Y-86586729D01*
X91366765Y-86746765D01*
X91206729Y-86878103D01*
X91120975Y-86923939D01*
X91024149Y-86975694D01*
X91024146Y-86975695D01*
X90826032Y-87035793D01*
X90729248Y-87045325D01*
X90665519Y-87051602D01*
X90620000Y-87056085D01*
X90574481Y-87051602D01*
X90562229Y-87051000D01*
X77477771Y-87051000D01*
X77465519Y-87051602D01*
X77420000Y-87056085D01*
X77374481Y-87051602D01*
X77310752Y-87045325D01*
X77213968Y-87035793D01*
X77015854Y-86975695D01*
X77015851Y-86975694D01*
X76919025Y-86923939D01*
X76833271Y-86878103D01*
X76673235Y-86746765D01*
X76541897Y-86586729D01*
X76496061Y-86500975D01*
X76444306Y-86404149D01*
X76422794Y-86333235D01*
X76384207Y-86206032D01*
X76363915Y-86000000D01*
X76368399Y-85954471D01*
X76369001Y-85942219D01*
X76369001Y-73975999D01*
X78471000Y-73975999D01*
X78471000Y-84824001D01*
X78473402Y-84848387D01*
X78480515Y-84871836D01*
X78492066Y-84893447D01*
X78507611Y-84912389D01*
X78526553Y-84927934D01*
X78548164Y-84939485D01*
X78571613Y-84946598D01*
X78595999Y-84949000D01*
X89444001Y-84949000D01*
X89468387Y-84946598D01*
X89491836Y-84939485D01*
X89513447Y-84927934D01*
X89532389Y-84912389D01*
X89547934Y-84893447D01*
X89559485Y-84871836D01*
X89566598Y-84848387D01*
X89569000Y-84824001D01*
X89569001Y-73975999D01*
X89566599Y-73951613D01*
X89559486Y-73928164D01*
X89547935Y-73906553D01*
X89532390Y-73887611D01*
X89513448Y-73872066D01*
X89491837Y-73860515D01*
X89468388Y-73853402D01*
X89444002Y-73851000D01*
X78595999Y-73851000D01*
X78571613Y-73853402D01*
X78548164Y-73860515D01*
X78526553Y-73872066D01*
X78507611Y-73887611D01*
X78492066Y-73906553D01*
X78480515Y-73928164D01*
X78473402Y-73951613D01*
X78471000Y-73975999D01*
X76369001Y-73975999D01*
X76369000Y-72857771D01*
X76368398Y-72845519D01*
X76363915Y-72800000D01*
X76384207Y-72593970D01*
X76384207Y-72593968D01*
X76444305Y-72395854D01*
X76444306Y-72395851D01*
X76497289Y-72296728D01*
X76541897Y-72213271D01*
X76673235Y-72053235D01*
X76833271Y-71921897D01*
X76919025Y-71876061D01*
X77015851Y-71824306D01*
X77015854Y-71824305D01*
X77213968Y-71764207D01*
X77310752Y-71754675D01*
X77374481Y-71748398D01*
X77420000Y-71743915D01*
X77465519Y-71748398D01*
X77477771Y-71749000D01*
X90562229Y-71749000D01*
X90574481Y-71748398D01*
X90620000Y-71743915D01*
X90665519Y-71748398D01*
G37*
G36*
X109715519Y-69268398D02*
G01*
X109779248Y-69274675D01*
X109876032Y-69284207D01*
X110074146Y-69344305D01*
X110074149Y-69344306D01*
X110170975Y-69396061D01*
X110256729Y-69441897D01*
X110416765Y-69573235D01*
X110548103Y-69733271D01*
X110593939Y-69819025D01*
X110645694Y-69915851D01*
X110645695Y-69915854D01*
X110705793Y-70113968D01*
X110705793Y-70113970D01*
X110726085Y-70320000D01*
X110721602Y-70365519D01*
X110721000Y-70377771D01*
X110721000Y-83462229D01*
X110721602Y-83474481D01*
X110726085Y-83520000D01*
X110705793Y-83726032D01*
X110664172Y-83863235D01*
X110645694Y-83924149D01*
X110593939Y-84020975D01*
X110548103Y-84106729D01*
X110416765Y-84266765D01*
X110256729Y-84398103D01*
X110170975Y-84443939D01*
X110074149Y-84495694D01*
X110074146Y-84495695D01*
X109876032Y-84555793D01*
X109779248Y-84565325D01*
X109715519Y-84571602D01*
X109670000Y-84576085D01*
X109624481Y-84571602D01*
X109612229Y-84571000D01*
X96527771Y-84571000D01*
X96515519Y-84571602D01*
X96470000Y-84576085D01*
X96424481Y-84571602D01*
X96360752Y-84565325D01*
X96263968Y-84555793D01*
X96065854Y-84495695D01*
X96065851Y-84495694D01*
X95969025Y-84443939D01*
X95883271Y-84398103D01*
X95723235Y-84266765D01*
X95591897Y-84106729D01*
X95546061Y-84020975D01*
X95494306Y-83924149D01*
X95475828Y-83863235D01*
X95434207Y-83726032D01*
X95413915Y-83520000D01*
X95418399Y-83474471D01*
X95419001Y-83462219D01*
X95419001Y-71495999D01*
X97521000Y-71495999D01*
X97521000Y-82344001D01*
X97523402Y-82368387D01*
X97530515Y-82391836D01*
X97542066Y-82413447D01*
X97557611Y-82432389D01*
X97576553Y-82447934D01*
X97598164Y-82459485D01*
X97621613Y-82466598D01*
X97645999Y-82469000D01*
X108494001Y-82469000D01*
X108518387Y-82466598D01*
X108541836Y-82459485D01*
X108563447Y-82447934D01*
X108582389Y-82432389D01*
X108597934Y-82413447D01*
X108609485Y-82391836D01*
X108616598Y-82368387D01*
X108619000Y-82344001D01*
X108619001Y-71495999D01*
X108616599Y-71471613D01*
X108609486Y-71448164D01*
X108597935Y-71426553D01*
X108582390Y-71407611D01*
X108563448Y-71392066D01*
X108541837Y-71380515D01*
X108518388Y-71373402D01*
X108494002Y-71371000D01*
X97645999Y-71371000D01*
X97621613Y-71373402D01*
X97598164Y-71380515D01*
X97576553Y-71392066D01*
X97557611Y-71407611D01*
X97542066Y-71426553D01*
X97530515Y-71448164D01*
X97523402Y-71471613D01*
X97521000Y-71495999D01*
X95419001Y-71495999D01*
X95419000Y-70377771D01*
X95418398Y-70365519D01*
X95413915Y-70320000D01*
X95434207Y-70113970D01*
X95434207Y-70113968D01*
X95494305Y-69915854D01*
X95494306Y-69915851D01*
X95546061Y-69819025D01*
X95591897Y-69733271D01*
X95723235Y-69573235D01*
X95883271Y-69441897D01*
X95969025Y-69396061D01*
X96065851Y-69344306D01*
X96065854Y-69344305D01*
X96263968Y-69284207D01*
X96360752Y-69274675D01*
X96424481Y-69268398D01*
X96470000Y-69263915D01*
X96515519Y-69268398D01*
X96527771Y-69269000D01*
X109612229Y-69269000D01*
X109624481Y-69268398D01*
X109670000Y-69263915D01*
X109715519Y-69268398D01*
G37*
G36*
X185915519Y-64508398D02*
G01*
X185979248Y-64514675D01*
X186076032Y-64524207D01*
X186274146Y-64584305D01*
X186274149Y-64584306D01*
X186370975Y-64636061D01*
X186456729Y-64681897D01*
X186616765Y-64813235D01*
X186748103Y-64973271D01*
X186792711Y-65056728D01*
X186845694Y-65155851D01*
X186845695Y-65155854D01*
X186905793Y-65353968D01*
X186905793Y-65353970D01*
X186926085Y-65560000D01*
X186921602Y-65605519D01*
X186921000Y-65617771D01*
X186921000Y-78702229D01*
X186921602Y-78714481D01*
X186926085Y-78760000D01*
X186905793Y-78966032D01*
X186845695Y-79164145D01*
X186845694Y-79164149D01*
X186793939Y-79260975D01*
X186748103Y-79346729D01*
X186616765Y-79506765D01*
X186456729Y-79638103D01*
X186370975Y-79683939D01*
X186274149Y-79735694D01*
X186274146Y-79735695D01*
X186076032Y-79795793D01*
X185979248Y-79805325D01*
X185915519Y-79811602D01*
X185870000Y-79816085D01*
X185824481Y-79811602D01*
X185812229Y-79811000D01*
X172727771Y-79811000D01*
X172715519Y-79811602D01*
X172670000Y-79816085D01*
X172624481Y-79811602D01*
X172560752Y-79805325D01*
X172463968Y-79795793D01*
X172265854Y-79735695D01*
X172265851Y-79735694D01*
X172169025Y-79683939D01*
X172083271Y-79638103D01*
X171923235Y-79506765D01*
X171791897Y-79346729D01*
X171746061Y-79260975D01*
X171694306Y-79164149D01*
X171694305Y-79164145D01*
X171634207Y-78966032D01*
X171613915Y-78760000D01*
X171618399Y-78714471D01*
X171619001Y-78702219D01*
X171619001Y-66735999D01*
X173721000Y-66735999D01*
X173721000Y-77584001D01*
X173723402Y-77608387D01*
X173730515Y-77631836D01*
X173742066Y-77653447D01*
X173757611Y-77672389D01*
X173776553Y-77687934D01*
X173798164Y-77699485D01*
X173821613Y-77706598D01*
X173845999Y-77709000D01*
X184694001Y-77709000D01*
X184718387Y-77706598D01*
X184741836Y-77699485D01*
X184763447Y-77687934D01*
X184782389Y-77672389D01*
X184797934Y-77653447D01*
X184809485Y-77631836D01*
X184816598Y-77608387D01*
X184819000Y-77584001D01*
X184819001Y-66735999D01*
X184816599Y-66711613D01*
X184809486Y-66688164D01*
X184797935Y-66666553D01*
X184782390Y-66647611D01*
X184763448Y-66632066D01*
X184741837Y-66620515D01*
X184718388Y-66613402D01*
X184694002Y-66611000D01*
X173845999Y-66611000D01*
X173821613Y-66613402D01*
X173798164Y-66620515D01*
X173776553Y-66632066D01*
X173757611Y-66647611D01*
X173742066Y-66666553D01*
X173730515Y-66688164D01*
X173723402Y-66711613D01*
X173721000Y-66735999D01*
X171619001Y-66735999D01*
X171619000Y-65617771D01*
X171618398Y-65605519D01*
X171613915Y-65560000D01*
X171634207Y-65353970D01*
X171634207Y-65353968D01*
X171694305Y-65155854D01*
X171694306Y-65155851D01*
X171747289Y-65056728D01*
X171791897Y-64973271D01*
X171923235Y-64813235D01*
X172083271Y-64681897D01*
X172169025Y-64636061D01*
X172265851Y-64584306D01*
X172265854Y-64584305D01*
X172463968Y-64524207D01*
X172560752Y-64514675D01*
X172624481Y-64508398D01*
X172670000Y-64503915D01*
X172715519Y-64508398D01*
X172727771Y-64509000D01*
X185812229Y-64509000D01*
X185824481Y-64508398D01*
X185870000Y-64503915D01*
X185915519Y-64508398D01*
G37*
G36*
X166865519Y-62228398D02*
G01*
X166929248Y-62234675D01*
X167026032Y-62244207D01*
X167191184Y-62294306D01*
X167224149Y-62304306D01*
X167320975Y-62356061D01*
X167406729Y-62401897D01*
X167566765Y-62533235D01*
X167698103Y-62693271D01*
X167743939Y-62779025D01*
X167795694Y-62875851D01*
X167795695Y-62875854D01*
X167855793Y-63073968D01*
X167855793Y-63073970D01*
X167876085Y-63280000D01*
X167871602Y-63325519D01*
X167871000Y-63337771D01*
X167871000Y-76422229D01*
X167871602Y-76434481D01*
X167876085Y-76480000D01*
X167855793Y-76686032D01*
X167795695Y-76884145D01*
X167795694Y-76884149D01*
X167743939Y-76980975D01*
X167698103Y-77066729D01*
X167566765Y-77226765D01*
X167406729Y-77358103D01*
X167320975Y-77403939D01*
X167224149Y-77455694D01*
X167224146Y-77455695D01*
X167026032Y-77515793D01*
X166929248Y-77525325D01*
X166865519Y-77531602D01*
X166820000Y-77536085D01*
X166774481Y-77531602D01*
X166762229Y-77531000D01*
X153677771Y-77531000D01*
X153665519Y-77531602D01*
X153620000Y-77536085D01*
X153574481Y-77531602D01*
X153510752Y-77525325D01*
X153413968Y-77515793D01*
X153215854Y-77455695D01*
X153215851Y-77455694D01*
X153119025Y-77403939D01*
X153033271Y-77358103D01*
X152873235Y-77226765D01*
X152741897Y-77066729D01*
X152696061Y-76980975D01*
X152644306Y-76884149D01*
X152644305Y-76884145D01*
X152584207Y-76686032D01*
X152563915Y-76480000D01*
X152568399Y-76434471D01*
X152569001Y-76422219D01*
X152569001Y-64455999D01*
X154671000Y-64455999D01*
X154671000Y-75304001D01*
X154673402Y-75328387D01*
X154680515Y-75351836D01*
X154692066Y-75373447D01*
X154707611Y-75392389D01*
X154726553Y-75407934D01*
X154748164Y-75419485D01*
X154771613Y-75426598D01*
X154795999Y-75429000D01*
X165644001Y-75429000D01*
X165668387Y-75426598D01*
X165691836Y-75419485D01*
X165713447Y-75407934D01*
X165732389Y-75392389D01*
X165747934Y-75373447D01*
X165759485Y-75351836D01*
X165766598Y-75328387D01*
X165769000Y-75304001D01*
X165769001Y-64455999D01*
X165766599Y-64431613D01*
X165759486Y-64408164D01*
X165747935Y-64386553D01*
X165732390Y-64367611D01*
X165713448Y-64352066D01*
X165691837Y-64340515D01*
X165668388Y-64333402D01*
X165644002Y-64331000D01*
X154795999Y-64331000D01*
X154771613Y-64333402D01*
X154748164Y-64340515D01*
X154726553Y-64352066D01*
X154707611Y-64367611D01*
X154692066Y-64386553D01*
X154680515Y-64408164D01*
X154673402Y-64431613D01*
X154671000Y-64455999D01*
X152569001Y-64455999D01*
X152569000Y-63337771D01*
X152568398Y-63325519D01*
X152563915Y-63280000D01*
X152584207Y-63073970D01*
X152584207Y-63073968D01*
X152644305Y-62875854D01*
X152644306Y-62875851D01*
X152696061Y-62779025D01*
X152741897Y-62693271D01*
X152873235Y-62533235D01*
X153033271Y-62401897D01*
X153119025Y-62356061D01*
X153215851Y-62304306D01*
X153248816Y-62294306D01*
X153413968Y-62244207D01*
X153510752Y-62234675D01*
X153574481Y-62228398D01*
X153620000Y-62223915D01*
X153665519Y-62228398D01*
X153677771Y-62229000D01*
X166762229Y-62229000D01*
X166774481Y-62228398D01*
X166820000Y-62223915D01*
X166865519Y-62228398D01*
G37*
G36*
X128765519Y-62218398D02*
G01*
X128821534Y-62223915D01*
X128926032Y-62234207D01*
X129124146Y-62294305D01*
X129124149Y-62294306D01*
X129220975Y-62346061D01*
X129306729Y-62391897D01*
X129466765Y-62523235D01*
X129598103Y-62683271D01*
X129643939Y-62769025D01*
X129695694Y-62865851D01*
X129695695Y-62865854D01*
X129755793Y-63063968D01*
X129755793Y-63063970D01*
X129776085Y-63270000D01*
X129771602Y-63315519D01*
X129771000Y-63327771D01*
X129771000Y-76412229D01*
X129771602Y-76424481D01*
X129776085Y-76470000D01*
X129755793Y-76676032D01*
X129752759Y-76686032D01*
X129695694Y-76874149D01*
X129643939Y-76970975D01*
X129598103Y-77056729D01*
X129466765Y-77216765D01*
X129306729Y-77348103D01*
X129220975Y-77393939D01*
X129124149Y-77445694D01*
X129124146Y-77445695D01*
X128926032Y-77505793D01*
X128829248Y-77515325D01*
X128765519Y-77521602D01*
X128720000Y-77526085D01*
X128674481Y-77521602D01*
X128662229Y-77521000D01*
X115577771Y-77521000D01*
X115565519Y-77521602D01*
X115520000Y-77526085D01*
X115474481Y-77521602D01*
X115410752Y-77515325D01*
X115313968Y-77505793D01*
X115115854Y-77445695D01*
X115115851Y-77445694D01*
X115019025Y-77393939D01*
X114933271Y-77348103D01*
X114773235Y-77216765D01*
X114641897Y-77056729D01*
X114596061Y-76970975D01*
X114544306Y-76874149D01*
X114487241Y-76686032D01*
X114484207Y-76676032D01*
X114463915Y-76470000D01*
X114468399Y-76424471D01*
X114469001Y-76412219D01*
X114469001Y-64445999D01*
X116571000Y-64445999D01*
X116571000Y-75294001D01*
X116573402Y-75318387D01*
X116580515Y-75341836D01*
X116592066Y-75363447D01*
X116607611Y-75382389D01*
X116626553Y-75397934D01*
X116648164Y-75409485D01*
X116671613Y-75416598D01*
X116695999Y-75419000D01*
X127544001Y-75419000D01*
X127568387Y-75416598D01*
X127591836Y-75409485D01*
X127613447Y-75397934D01*
X127632389Y-75382389D01*
X127647934Y-75363447D01*
X127659485Y-75341836D01*
X127666598Y-75318387D01*
X127669000Y-75294001D01*
X127669001Y-64445999D01*
X127666599Y-64421613D01*
X127659486Y-64398164D01*
X127647935Y-64376553D01*
X127632390Y-64357611D01*
X127613448Y-64342066D01*
X127591837Y-64330515D01*
X127568388Y-64323402D01*
X127544002Y-64321000D01*
X116695999Y-64321000D01*
X116671613Y-64323402D01*
X116648164Y-64330515D01*
X116626553Y-64342066D01*
X116607611Y-64357611D01*
X116592066Y-64376553D01*
X116580515Y-64398164D01*
X116573402Y-64421613D01*
X116571000Y-64445999D01*
X114469001Y-64445999D01*
X114469000Y-63327771D01*
X114468398Y-63315519D01*
X114463915Y-63270000D01*
X114484207Y-63063970D01*
X114484207Y-63063968D01*
X114544305Y-62865854D01*
X114544306Y-62865851D01*
X114596061Y-62769025D01*
X114641897Y-62683271D01*
X114773235Y-62523235D01*
X114933271Y-62391897D01*
X115019025Y-62346061D01*
X115115851Y-62294306D01*
X115115854Y-62294305D01*
X115313968Y-62234207D01*
X115418466Y-62223915D01*
X115474481Y-62218398D01*
X115520000Y-62213915D01*
X115565519Y-62218398D01*
X115577771Y-62219000D01*
X128662229Y-62219000D01*
X128674481Y-62218398D01*
X128720000Y-62213915D01*
X128765519Y-62218398D01*
G37*
G36*
X147815519Y-57458398D02*
G01*
X147879248Y-57464675D01*
X147976032Y-57474207D01*
X148174146Y-57534305D01*
X148174149Y-57534306D01*
X148270975Y-57586061D01*
X148356729Y-57631897D01*
X148516765Y-57763235D01*
X148648103Y-57923271D01*
X148692711Y-58006728D01*
X148745694Y-58105851D01*
X148745695Y-58105854D01*
X148805793Y-58303968D01*
X148805793Y-58303970D01*
X148826085Y-58510000D01*
X148821602Y-58555519D01*
X148821000Y-58567771D01*
X148821000Y-71652229D01*
X148821602Y-71664481D01*
X148826085Y-71710000D01*
X148805793Y-71916032D01*
X148764172Y-72053235D01*
X148745694Y-72114149D01*
X148693939Y-72210975D01*
X148648103Y-72296729D01*
X148516765Y-72456765D01*
X148356729Y-72588103D01*
X148270975Y-72633939D01*
X148174149Y-72685694D01*
X148174146Y-72685695D01*
X147976032Y-72745793D01*
X147879248Y-72755325D01*
X147815519Y-72761602D01*
X147770000Y-72766085D01*
X147724481Y-72761602D01*
X147712229Y-72761000D01*
X134627771Y-72761000D01*
X134615519Y-72761602D01*
X134570000Y-72766085D01*
X134524481Y-72761602D01*
X134460752Y-72755325D01*
X134363968Y-72745793D01*
X134165854Y-72685695D01*
X134165851Y-72685694D01*
X134069025Y-72633939D01*
X133983271Y-72588103D01*
X133823235Y-72456765D01*
X133691897Y-72296729D01*
X133646061Y-72210975D01*
X133594306Y-72114149D01*
X133575828Y-72053235D01*
X133534207Y-71916032D01*
X133513915Y-71710000D01*
X133518399Y-71664471D01*
X133519001Y-71652219D01*
X133519001Y-59685999D01*
X135621000Y-59685999D01*
X135621000Y-70534001D01*
X135623402Y-70558387D01*
X135630515Y-70581836D01*
X135642066Y-70603447D01*
X135657611Y-70622389D01*
X135676553Y-70637934D01*
X135698164Y-70649485D01*
X135721613Y-70656598D01*
X135745999Y-70659000D01*
X146594001Y-70659000D01*
X146618387Y-70656598D01*
X146641836Y-70649485D01*
X146663447Y-70637934D01*
X146682389Y-70622389D01*
X146697934Y-70603447D01*
X146709485Y-70581836D01*
X146716598Y-70558387D01*
X146719000Y-70534001D01*
X146719001Y-59685999D01*
X146716599Y-59661613D01*
X146709486Y-59638164D01*
X146697935Y-59616553D01*
X146682390Y-59597611D01*
X146663448Y-59582066D01*
X146641837Y-59570515D01*
X146618388Y-59563402D01*
X146594002Y-59561000D01*
X135745999Y-59561000D01*
X135721613Y-59563402D01*
X135698164Y-59570515D01*
X135676553Y-59582066D01*
X135657611Y-59597611D01*
X135642066Y-59616553D01*
X135630515Y-59638164D01*
X135623402Y-59661613D01*
X135621000Y-59685999D01*
X133519001Y-59685999D01*
X133519000Y-58567771D01*
X133518398Y-58555519D01*
X133513915Y-58510000D01*
X133534207Y-58303970D01*
X133534207Y-58303968D01*
X133594305Y-58105854D01*
X133594306Y-58105851D01*
X133647289Y-58006728D01*
X133691897Y-57923271D01*
X133823235Y-57763235D01*
X133983271Y-57631897D01*
X134069025Y-57586061D01*
X134165851Y-57534306D01*
X134165854Y-57534305D01*
X134363968Y-57474207D01*
X134460752Y-57464675D01*
X134524481Y-57458398D01*
X134570000Y-57453915D01*
X134615519Y-57458398D01*
X134627771Y-57459000D01*
X147712229Y-57459000D01*
X147724481Y-57458398D01*
X147770000Y-57453915D01*
X147815519Y-57458398D01*
G37*
G36*
X90665519Y-52698398D02*
G01*
X90729248Y-52704675D01*
X90826032Y-52714207D01*
X91024146Y-52774305D01*
X91024149Y-52774306D01*
X91120975Y-52826061D01*
X91206729Y-52871897D01*
X91366765Y-53003235D01*
X91498103Y-53163271D01*
X91542711Y-53246728D01*
X91595694Y-53345851D01*
X91595695Y-53345854D01*
X91655793Y-53543968D01*
X91655793Y-53543970D01*
X91676085Y-53750000D01*
X91671602Y-53795519D01*
X91671000Y-53807771D01*
X91671000Y-66892229D01*
X91671602Y-66904481D01*
X91676085Y-66950000D01*
X91655793Y-67156032D01*
X91595695Y-67354145D01*
X91595694Y-67354149D01*
X91543939Y-67450975D01*
X91498103Y-67536729D01*
X91366765Y-67696765D01*
X91206729Y-67828103D01*
X91120975Y-67873939D01*
X91024149Y-67925694D01*
X91024146Y-67925695D01*
X90826032Y-67985793D01*
X90729248Y-67995325D01*
X90665519Y-68001602D01*
X90620000Y-68006085D01*
X90574481Y-68001602D01*
X90562229Y-68001000D01*
X77477771Y-68001000D01*
X77465519Y-68001602D01*
X77420000Y-68006085D01*
X77374481Y-68001602D01*
X77310752Y-67995325D01*
X77213968Y-67985793D01*
X77015854Y-67925695D01*
X77015851Y-67925694D01*
X76919025Y-67873939D01*
X76833271Y-67828103D01*
X76673235Y-67696765D01*
X76541897Y-67536729D01*
X76496061Y-67450975D01*
X76444306Y-67354149D01*
X76444305Y-67354145D01*
X76384207Y-67156032D01*
X76363915Y-66950000D01*
X76368399Y-66904471D01*
X76369001Y-66892219D01*
X76369001Y-54925999D01*
X78471000Y-54925999D01*
X78471000Y-65774001D01*
X78473402Y-65798387D01*
X78480515Y-65821836D01*
X78492066Y-65843447D01*
X78507611Y-65862389D01*
X78526553Y-65877934D01*
X78548164Y-65889485D01*
X78571613Y-65896598D01*
X78595999Y-65899000D01*
X89444001Y-65899000D01*
X89468387Y-65896598D01*
X89491836Y-65889485D01*
X89513447Y-65877934D01*
X89532389Y-65862389D01*
X89547934Y-65843447D01*
X89559485Y-65821836D01*
X89566598Y-65798387D01*
X89569000Y-65774001D01*
X89569001Y-54925999D01*
X89566599Y-54901613D01*
X89559486Y-54878164D01*
X89547935Y-54856553D01*
X89532390Y-54837611D01*
X89513448Y-54822066D01*
X89491837Y-54810515D01*
X89468388Y-54803402D01*
X89444002Y-54801000D01*
X78595999Y-54801000D01*
X78571613Y-54803402D01*
X78548164Y-54810515D01*
X78526553Y-54822066D01*
X78507611Y-54837611D01*
X78492066Y-54856553D01*
X78480515Y-54878164D01*
X78473402Y-54901613D01*
X78471000Y-54925999D01*
X76369001Y-54925999D01*
X76369000Y-53807771D01*
X76368398Y-53795519D01*
X76363915Y-53750000D01*
X76384207Y-53543970D01*
X76384207Y-53543968D01*
X76444305Y-53345854D01*
X76444306Y-53345851D01*
X76497289Y-53246728D01*
X76541897Y-53163271D01*
X76673235Y-53003235D01*
X76833271Y-52871897D01*
X76919025Y-52826061D01*
X77015851Y-52774306D01*
X77015854Y-52774305D01*
X77213968Y-52714207D01*
X77310752Y-52704675D01*
X77374481Y-52698398D01*
X77420000Y-52693915D01*
X77465519Y-52698398D01*
X77477771Y-52699000D01*
X90562229Y-52699000D01*
X90574481Y-52698398D01*
X90620000Y-52693915D01*
X90665519Y-52698398D01*
G37*
G36*
X109715519Y-50218398D02*
G01*
X109779248Y-50224675D01*
X109876032Y-50234207D01*
X110074146Y-50294305D01*
X110074149Y-50294306D01*
X110170975Y-50346061D01*
X110256729Y-50391897D01*
X110416765Y-50523235D01*
X110548103Y-50683271D01*
X110593939Y-50769025D01*
X110645694Y-50865851D01*
X110645695Y-50865854D01*
X110705793Y-51063968D01*
X110705793Y-51063970D01*
X110726085Y-51270000D01*
X110721602Y-51315519D01*
X110721000Y-51327771D01*
X110721000Y-64412229D01*
X110721602Y-64424481D01*
X110726085Y-64470000D01*
X110705793Y-64676032D01*
X110664172Y-64813235D01*
X110645694Y-64874149D01*
X110593939Y-64970975D01*
X110548103Y-65056729D01*
X110416765Y-65216765D01*
X110256729Y-65348103D01*
X110170975Y-65393939D01*
X110074149Y-65445694D01*
X110074146Y-65445695D01*
X109876032Y-65505793D01*
X109779248Y-65515325D01*
X109715519Y-65521602D01*
X109670000Y-65526085D01*
X109624481Y-65521602D01*
X109612229Y-65521000D01*
X96527771Y-65521000D01*
X96515519Y-65521602D01*
X96470000Y-65526085D01*
X96424481Y-65521602D01*
X96360752Y-65515325D01*
X96263968Y-65505793D01*
X96065854Y-65445695D01*
X96065851Y-65445694D01*
X95969025Y-65393939D01*
X95883271Y-65348103D01*
X95723235Y-65216765D01*
X95591897Y-65056729D01*
X95546061Y-64970975D01*
X95494306Y-64874149D01*
X95475828Y-64813235D01*
X95434207Y-64676032D01*
X95413915Y-64470000D01*
X95418399Y-64424471D01*
X95419001Y-64412219D01*
X95419001Y-52445999D01*
X97521000Y-52445999D01*
X97521000Y-63294001D01*
X97523402Y-63318387D01*
X97530515Y-63341836D01*
X97542066Y-63363447D01*
X97557611Y-63382389D01*
X97576553Y-63397934D01*
X97598164Y-63409485D01*
X97621613Y-63416598D01*
X97645999Y-63419000D01*
X108494001Y-63419000D01*
X108518387Y-63416598D01*
X108541836Y-63409485D01*
X108563447Y-63397934D01*
X108582389Y-63382389D01*
X108597934Y-63363447D01*
X108609485Y-63341836D01*
X108616598Y-63318387D01*
X108619000Y-63294001D01*
X108619001Y-52445999D01*
X108616599Y-52421613D01*
X108609486Y-52398164D01*
X108597935Y-52376553D01*
X108582390Y-52357611D01*
X108563448Y-52342066D01*
X108541837Y-52330515D01*
X108518388Y-52323402D01*
X108494002Y-52321000D01*
X97645999Y-52321000D01*
X97621613Y-52323402D01*
X97598164Y-52330515D01*
X97576553Y-52342066D01*
X97557611Y-52357611D01*
X97542066Y-52376553D01*
X97530515Y-52398164D01*
X97523402Y-52421613D01*
X97521000Y-52445999D01*
X95419001Y-52445999D01*
X95419000Y-51327771D01*
X95418398Y-51315519D01*
X95413915Y-51270000D01*
X95434207Y-51063970D01*
X95434207Y-51063968D01*
X95494305Y-50865854D01*
X95494306Y-50865851D01*
X95546061Y-50769025D01*
X95591897Y-50683271D01*
X95723235Y-50523235D01*
X95883271Y-50391897D01*
X95969025Y-50346061D01*
X96065851Y-50294306D01*
X96065854Y-50294305D01*
X96263968Y-50234207D01*
X96360752Y-50224675D01*
X96424481Y-50218398D01*
X96470000Y-50213915D01*
X96515519Y-50218398D01*
X96527771Y-50219000D01*
X109612229Y-50219000D01*
X109624481Y-50218398D01*
X109670000Y-50213915D01*
X109715519Y-50218398D01*
G37*
G36*
X185915519Y-45458398D02*
G01*
X185979248Y-45464675D01*
X186076032Y-45474207D01*
X186274146Y-45534305D01*
X186274149Y-45534306D01*
X186370975Y-45586061D01*
X186456729Y-45631897D01*
X186616765Y-45763235D01*
X186748103Y-45923271D01*
X186793939Y-46009025D01*
X186845694Y-46105851D01*
X186845695Y-46105854D01*
X186905793Y-46303968D01*
X186905793Y-46303970D01*
X186926085Y-46510000D01*
X186921602Y-46555519D01*
X186921000Y-46567771D01*
X186921000Y-59652229D01*
X186921602Y-59664481D01*
X186926085Y-59710000D01*
X186905793Y-59916032D01*
X186845695Y-60114145D01*
X186845694Y-60114149D01*
X186793939Y-60210975D01*
X186748103Y-60296729D01*
X186616765Y-60456765D01*
X186456729Y-60588103D01*
X186370975Y-60633939D01*
X186274149Y-60685694D01*
X186274146Y-60685695D01*
X186076032Y-60745793D01*
X185979248Y-60755325D01*
X185915519Y-60761602D01*
X185870000Y-60766085D01*
X185824481Y-60761602D01*
X185812229Y-60761000D01*
X172727771Y-60761000D01*
X172715519Y-60761602D01*
X172670000Y-60766085D01*
X172624481Y-60761602D01*
X172560752Y-60755325D01*
X172463968Y-60745793D01*
X172265854Y-60685695D01*
X172265851Y-60685694D01*
X172169025Y-60633939D01*
X172083271Y-60588103D01*
X171923235Y-60456765D01*
X171791897Y-60296729D01*
X171746061Y-60210975D01*
X171694306Y-60114149D01*
X171694305Y-60114145D01*
X171634207Y-59916032D01*
X171613915Y-59710000D01*
X171618399Y-59664471D01*
X171619001Y-59652219D01*
X171619001Y-47685999D01*
X173721000Y-47685999D01*
X173721000Y-58534001D01*
X173723402Y-58558387D01*
X173730515Y-58581836D01*
X173742066Y-58603447D01*
X173757611Y-58622389D01*
X173776553Y-58637934D01*
X173798164Y-58649485D01*
X173821613Y-58656598D01*
X173845999Y-58659000D01*
X184694001Y-58659000D01*
X184718387Y-58656598D01*
X184741836Y-58649485D01*
X184763447Y-58637934D01*
X184782389Y-58622389D01*
X184797934Y-58603447D01*
X184809485Y-58581836D01*
X184816598Y-58558387D01*
X184819000Y-58534001D01*
X184819001Y-47685999D01*
X184816599Y-47661613D01*
X184809486Y-47638164D01*
X184797935Y-47616553D01*
X184782390Y-47597611D01*
X184763448Y-47582066D01*
X184741837Y-47570515D01*
X184718388Y-47563402D01*
X184694002Y-47561000D01*
X173845999Y-47561000D01*
X173821613Y-47563402D01*
X173798164Y-47570515D01*
X173776553Y-47582066D01*
X173757611Y-47597611D01*
X173742066Y-47616553D01*
X173730515Y-47638164D01*
X173723402Y-47661613D01*
X173721000Y-47685999D01*
X171619001Y-47685999D01*
X171619000Y-46567771D01*
X171618398Y-46555519D01*
X171613915Y-46510000D01*
X171634207Y-46303970D01*
X171634207Y-46303968D01*
X171694305Y-46105854D01*
X171694306Y-46105851D01*
X171746061Y-46009025D01*
X171791897Y-45923271D01*
X171923235Y-45763235D01*
X172083271Y-45631897D01*
X172169025Y-45586061D01*
X172265851Y-45534306D01*
X172265854Y-45534305D01*
X172463968Y-45474207D01*
X172560752Y-45464675D01*
X172624481Y-45458398D01*
X172670000Y-45453915D01*
X172715519Y-45458398D01*
X172727771Y-45459000D01*
X185812229Y-45459000D01*
X185824481Y-45458398D01*
X185870000Y-45453915D01*
X185915519Y-45458398D01*
G37*
G36*
X166865519Y-43178398D02*
G01*
X166929248Y-43184675D01*
X167026032Y-43194207D01*
X167191184Y-43244306D01*
X167224149Y-43254306D01*
X167320975Y-43306061D01*
X167406729Y-43351897D01*
X167566765Y-43483235D01*
X167698103Y-43643271D01*
X167743939Y-43729025D01*
X167795694Y-43825851D01*
X167795695Y-43825854D01*
X167855793Y-44023968D01*
X167855793Y-44023970D01*
X167876085Y-44230000D01*
X167871602Y-44275519D01*
X167871000Y-44287771D01*
X167871000Y-57372229D01*
X167871602Y-57384481D01*
X167876085Y-57430000D01*
X167855793Y-57636032D01*
X167795695Y-57834145D01*
X167795694Y-57834149D01*
X167743939Y-57930975D01*
X167698103Y-58016729D01*
X167566765Y-58176765D01*
X167406729Y-58308103D01*
X167320975Y-58353939D01*
X167224149Y-58405694D01*
X167224146Y-58405695D01*
X167026032Y-58465793D01*
X166929248Y-58475325D01*
X166865519Y-58481602D01*
X166820000Y-58486085D01*
X166774481Y-58481602D01*
X166762229Y-58481000D01*
X153677771Y-58481000D01*
X153665519Y-58481602D01*
X153620000Y-58486085D01*
X153574481Y-58481602D01*
X153510752Y-58475325D01*
X153413968Y-58465793D01*
X153215854Y-58405695D01*
X153215851Y-58405694D01*
X153119025Y-58353939D01*
X153033271Y-58308103D01*
X152873235Y-58176765D01*
X152741897Y-58016729D01*
X152696061Y-57930975D01*
X152644306Y-57834149D01*
X152644305Y-57834145D01*
X152584207Y-57636032D01*
X152563915Y-57430000D01*
X152568399Y-57384471D01*
X152569001Y-57372219D01*
X152569001Y-45405999D01*
X154671000Y-45405999D01*
X154671000Y-56254001D01*
X154673402Y-56278387D01*
X154680515Y-56301836D01*
X154692066Y-56323447D01*
X154707611Y-56342389D01*
X154726553Y-56357934D01*
X154748164Y-56369485D01*
X154771613Y-56376598D01*
X154795999Y-56379000D01*
X165644001Y-56379000D01*
X165668387Y-56376598D01*
X165691836Y-56369485D01*
X165713447Y-56357934D01*
X165732389Y-56342389D01*
X165747934Y-56323447D01*
X165759485Y-56301836D01*
X165766598Y-56278387D01*
X165769000Y-56254001D01*
X165769001Y-45405999D01*
X165766599Y-45381613D01*
X165759486Y-45358164D01*
X165747935Y-45336553D01*
X165732390Y-45317611D01*
X165713448Y-45302066D01*
X165691837Y-45290515D01*
X165668388Y-45283402D01*
X165644002Y-45281000D01*
X154795999Y-45281000D01*
X154771613Y-45283402D01*
X154748164Y-45290515D01*
X154726553Y-45302066D01*
X154707611Y-45317611D01*
X154692066Y-45336553D01*
X154680515Y-45358164D01*
X154673402Y-45381613D01*
X154671000Y-45405999D01*
X152569001Y-45405999D01*
X152569000Y-44287771D01*
X152568398Y-44275519D01*
X152563915Y-44230000D01*
X152584207Y-44023970D01*
X152584207Y-44023968D01*
X152644305Y-43825854D01*
X152644306Y-43825851D01*
X152696061Y-43729025D01*
X152741897Y-43643271D01*
X152873235Y-43483235D01*
X153033271Y-43351897D01*
X153119025Y-43306061D01*
X153215851Y-43254306D01*
X153248816Y-43244306D01*
X153413968Y-43194207D01*
X153510752Y-43184675D01*
X153574481Y-43178398D01*
X153620000Y-43173915D01*
X153665519Y-43178398D01*
X153677771Y-43179000D01*
X166762229Y-43179000D01*
X166774481Y-43178398D01*
X166820000Y-43173915D01*
X166865519Y-43178398D01*
G37*
G36*
X128765519Y-43168398D02*
G01*
X128821534Y-43173915D01*
X128926032Y-43184207D01*
X129124146Y-43244305D01*
X129124149Y-43244306D01*
X129220975Y-43296061D01*
X129306729Y-43341897D01*
X129466765Y-43473235D01*
X129598103Y-43633271D01*
X129643939Y-43719025D01*
X129695694Y-43815851D01*
X129695695Y-43815854D01*
X129755793Y-44013968D01*
X129755793Y-44013970D01*
X129776085Y-44220000D01*
X129771602Y-44265519D01*
X129771000Y-44277771D01*
X129771000Y-57362229D01*
X129771602Y-57374481D01*
X129776085Y-57420000D01*
X129755793Y-57626032D01*
X129752759Y-57636032D01*
X129695694Y-57824149D01*
X129643939Y-57920975D01*
X129598103Y-58006729D01*
X129466765Y-58166765D01*
X129306729Y-58298103D01*
X129220975Y-58343939D01*
X129124149Y-58395694D01*
X129124146Y-58395695D01*
X128926032Y-58455793D01*
X128829248Y-58465325D01*
X128765519Y-58471602D01*
X128720000Y-58476085D01*
X128674481Y-58471602D01*
X128662229Y-58471000D01*
X115577771Y-58471000D01*
X115565519Y-58471602D01*
X115520000Y-58476085D01*
X115474481Y-58471602D01*
X115410752Y-58465325D01*
X115313968Y-58455793D01*
X115115854Y-58395695D01*
X115115851Y-58395694D01*
X115019025Y-58343939D01*
X114933271Y-58298103D01*
X114773235Y-58166765D01*
X114641897Y-58006729D01*
X114596061Y-57920975D01*
X114544306Y-57824149D01*
X114487241Y-57636032D01*
X114484207Y-57626032D01*
X114463915Y-57420000D01*
X114468399Y-57374471D01*
X114469001Y-57362219D01*
X114469001Y-45395999D01*
X116571000Y-45395999D01*
X116571000Y-56244001D01*
X116573402Y-56268387D01*
X116580515Y-56291836D01*
X116592066Y-56313447D01*
X116607611Y-56332389D01*
X116626553Y-56347934D01*
X116648164Y-56359485D01*
X116671613Y-56366598D01*
X116695999Y-56369000D01*
X127544001Y-56369000D01*
X127568387Y-56366598D01*
X127591836Y-56359485D01*
X127613447Y-56347934D01*
X127632389Y-56332389D01*
X127647934Y-56313447D01*
X127659485Y-56291836D01*
X127666598Y-56268387D01*
X127669000Y-56244001D01*
X127669001Y-45395999D01*
X127666599Y-45371613D01*
X127659486Y-45348164D01*
X127647935Y-45326553D01*
X127632390Y-45307611D01*
X127613448Y-45292066D01*
X127591837Y-45280515D01*
X127568388Y-45273402D01*
X127544002Y-45271000D01*
X116695999Y-45271000D01*
X116671613Y-45273402D01*
X116648164Y-45280515D01*
X116626553Y-45292066D01*
X116607611Y-45307611D01*
X116592066Y-45326553D01*
X116580515Y-45348164D01*
X116573402Y-45371613D01*
X116571000Y-45395999D01*
X114469001Y-45395999D01*
X114469000Y-44277771D01*
X114468398Y-44265519D01*
X114463915Y-44220000D01*
X114484207Y-44013970D01*
X114484207Y-44013968D01*
X114544305Y-43815854D01*
X114544306Y-43815851D01*
X114596061Y-43719025D01*
X114641897Y-43633271D01*
X114773235Y-43473235D01*
X114933271Y-43341897D01*
X115019025Y-43296061D01*
X115115851Y-43244306D01*
X115115854Y-43244305D01*
X115313968Y-43184207D01*
X115418466Y-43173915D01*
X115474481Y-43168398D01*
X115520000Y-43163915D01*
X115565519Y-43168398D01*
X115577771Y-43169000D01*
X128662229Y-43169000D01*
X128674481Y-43168398D01*
X128720000Y-43163915D01*
X128765519Y-43168398D01*
G37*
G36*
X147815519Y-38408398D02*
G01*
X147879248Y-38414675D01*
X147976032Y-38424207D01*
X148174146Y-38484305D01*
X148174149Y-38484306D01*
X148270975Y-38536061D01*
X148356729Y-38581897D01*
X148516765Y-38713235D01*
X148648103Y-38873271D01*
X148693939Y-38959025D01*
X148745694Y-39055851D01*
X148745695Y-39055854D01*
X148805793Y-39253968D01*
X148805793Y-39253970D01*
X148826085Y-39460000D01*
X148821602Y-39505519D01*
X148821000Y-39517771D01*
X148821000Y-52602229D01*
X148821602Y-52614481D01*
X148826085Y-52660000D01*
X148805793Y-52866032D01*
X148764172Y-53003235D01*
X148745694Y-53064149D01*
X148693939Y-53160975D01*
X148648103Y-53246729D01*
X148516765Y-53406765D01*
X148356729Y-53538103D01*
X148270975Y-53583939D01*
X148174149Y-53635694D01*
X148174146Y-53635695D01*
X147976032Y-53695793D01*
X147879248Y-53705325D01*
X147815519Y-53711602D01*
X147770000Y-53716085D01*
X147724481Y-53711602D01*
X147712229Y-53711000D01*
X134627771Y-53711000D01*
X134615519Y-53711602D01*
X134570000Y-53716085D01*
X134524481Y-53711602D01*
X134460752Y-53705325D01*
X134363968Y-53695793D01*
X134165854Y-53635695D01*
X134165851Y-53635694D01*
X134069025Y-53583939D01*
X133983271Y-53538103D01*
X133823235Y-53406765D01*
X133691897Y-53246729D01*
X133646061Y-53160975D01*
X133594306Y-53064149D01*
X133575828Y-53003235D01*
X133534207Y-52866032D01*
X133513915Y-52660000D01*
X133518399Y-52614471D01*
X133519001Y-52602219D01*
X133519001Y-40635999D01*
X135621000Y-40635999D01*
X135621000Y-51484001D01*
X135623402Y-51508387D01*
X135630515Y-51531836D01*
X135642066Y-51553447D01*
X135657611Y-51572389D01*
X135676553Y-51587934D01*
X135698164Y-51599485D01*
X135721613Y-51606598D01*
X135745999Y-51609000D01*
X146594001Y-51609000D01*
X146618387Y-51606598D01*
X146641836Y-51599485D01*
X146663447Y-51587934D01*
X146682389Y-51572389D01*
X146697934Y-51553447D01*
X146709485Y-51531836D01*
X146716598Y-51508387D01*
X146719000Y-51484001D01*
X146719001Y-40635999D01*
X146716599Y-40611613D01*
X146709486Y-40588164D01*
X146697935Y-40566553D01*
X146682390Y-40547611D01*
X146663448Y-40532066D01*
X146641837Y-40520515D01*
X146618388Y-40513402D01*
X146594002Y-40511000D01*
X135745999Y-40511000D01*
X135721613Y-40513402D01*
X135698164Y-40520515D01*
X135676553Y-40532066D01*
X135657611Y-40547611D01*
X135642066Y-40566553D01*
X135630515Y-40588164D01*
X135623402Y-40611613D01*
X135621000Y-40635999D01*
X133519001Y-40635999D01*
X133519000Y-39517771D01*
X133518398Y-39505519D01*
X133513915Y-39460000D01*
X133534207Y-39253970D01*
X133534207Y-39253968D01*
X133594305Y-39055854D01*
X133594306Y-39055851D01*
X133646061Y-38959025D01*
X133691897Y-38873271D01*
X133823235Y-38713235D01*
X133983271Y-38581897D01*
X134069025Y-38536061D01*
X134165851Y-38484306D01*
X134165854Y-38484305D01*
X134363968Y-38424207D01*
X134460752Y-38414675D01*
X134524481Y-38408398D01*
X134570000Y-38403915D01*
X134615519Y-38408398D01*
X134627771Y-38409000D01*
X147712229Y-38409000D01*
X147724481Y-38408398D01*
X147770000Y-38403915D01*
X147815519Y-38408398D01*
G37*
M02*
