G04 #@! TF.GenerationSoftware,KiCad,Pcbnew,(5.1.5)-3*
G04 #@! TF.CreationDate,2020-04-13T19:14:52+08:00*
G04 #@! TF.ProjectId,plate,706c6174-652e-46b6-9963-61645f706362,rev?*
G04 #@! TF.SameCoordinates,Original*
G04 #@! TF.FileFunction,Soldermask,Bot*
G04 #@! TF.FilePolarity,Negative*
%FSLAX46Y46*%
G04 Gerber Fmt 4.6, Leading zero omitted, Abs format (unit mm)*
G04 Created by KiCad (PCBNEW (5.1.5)-3) date 2020-04-13 19:14:52*
%MOMM*%
%LPD*%
G04 APERTURE LIST*
%ADD10C,0.100000*%
G04 APERTURE END LIST*
D10*
G36*
X204765519Y-124328398D02*
G01*
X204821534Y-124333915D01*
X204926032Y-124344207D01*
X205124146Y-124404305D01*
X205124149Y-124404306D01*
X205220975Y-124456061D01*
X205306729Y-124501897D01*
X205466765Y-124633235D01*
X205598103Y-124793271D01*
X205603448Y-124803271D01*
X205695694Y-124975851D01*
X205695695Y-124975854D01*
X205755793Y-125173968D01*
X205755793Y-125173970D01*
X205776085Y-125380000D01*
X205771602Y-125425519D01*
X205771000Y-125437771D01*
X205771000Y-138122229D01*
X205771602Y-138134481D01*
X205776085Y-138180000D01*
X205771000Y-138231630D01*
X205755793Y-138386032D01*
X205752760Y-138396030D01*
X205695694Y-138584149D01*
X205643939Y-138680975D01*
X205598103Y-138766729D01*
X205466765Y-138926765D01*
X205306729Y-139058103D01*
X205220975Y-139103939D01*
X205124149Y-139155694D01*
X205124146Y-139155695D01*
X204926032Y-139215793D01*
X204833860Y-139224871D01*
X204765519Y-139231602D01*
X204720000Y-139236085D01*
X204674481Y-139231602D01*
X204662229Y-139231000D01*
X192079302Y-139231000D01*
X192067052Y-139231602D01*
X191920000Y-139246085D01*
X191713969Y-139225793D01*
X191515855Y-139165695D01*
X191515852Y-139165694D01*
X191419026Y-139113939D01*
X191333272Y-139068103D01*
X191173236Y-138936765D01*
X191041898Y-138776729D01*
X190996062Y-138690975D01*
X190944307Y-138594149D01*
X190944306Y-138594146D01*
X190884208Y-138396032D01*
X190869001Y-138241630D01*
X190869001Y-138237781D01*
X190868399Y-138225529D01*
X190863915Y-138180000D01*
X190868399Y-138134471D01*
X190869001Y-138122219D01*
X190869001Y-126555999D01*
X192971000Y-126555999D01*
X192971000Y-137004001D01*
X192973402Y-137028387D01*
X192980515Y-137051836D01*
X192992066Y-137073447D01*
X193007611Y-137092389D01*
X193026553Y-137107934D01*
X193048164Y-137119485D01*
X193071613Y-137126598D01*
X193095999Y-137129000D01*
X203544002Y-137129000D01*
X203568388Y-137126598D01*
X203591837Y-137119485D01*
X203613448Y-137107934D01*
X203632390Y-137092389D01*
X203647935Y-137073447D01*
X203659486Y-137051836D01*
X203666599Y-137028387D01*
X203669001Y-137004001D01*
X203669000Y-126555999D01*
X203666598Y-126531613D01*
X203659485Y-126508164D01*
X203647934Y-126486553D01*
X203632389Y-126467611D01*
X203613447Y-126452066D01*
X203591836Y-126440515D01*
X203568387Y-126433402D01*
X203544001Y-126431000D01*
X193095999Y-126431000D01*
X193071613Y-126433402D01*
X193048164Y-126440515D01*
X193026553Y-126452066D01*
X193007611Y-126467611D01*
X192992066Y-126486553D01*
X192980515Y-126508164D01*
X192973402Y-126531613D01*
X192971000Y-126555999D01*
X190869001Y-126555999D01*
X190869000Y-125437771D01*
X190868398Y-125425519D01*
X190863915Y-125380000D01*
X190884207Y-125173970D01*
X190884207Y-125173968D01*
X190944305Y-124975854D01*
X190944306Y-124975851D01*
X191036552Y-124803271D01*
X191041897Y-124793271D01*
X191173235Y-124633235D01*
X191333271Y-124501897D01*
X191419025Y-124456061D01*
X191515851Y-124404306D01*
X191515854Y-124404305D01*
X191713968Y-124344207D01*
X191818466Y-124333915D01*
X191868369Y-124329000D01*
X204662229Y-124329000D01*
X204674481Y-124328398D01*
X204720000Y-124323915D01*
X204765519Y-124328398D01*
G37*
G36*
X185715519Y-121858398D02*
G01*
X185771534Y-121863915D01*
X185876032Y-121874207D01*
X186074146Y-121934305D01*
X186074149Y-121934306D01*
X186170975Y-121986061D01*
X186256729Y-122031897D01*
X186416765Y-122163235D01*
X186548103Y-122323271D01*
X186553448Y-122333271D01*
X186645694Y-122505851D01*
X186645695Y-122505854D01*
X186705793Y-122703968D01*
X186705793Y-122703970D01*
X186726085Y-122910000D01*
X186721602Y-122955519D01*
X186721000Y-122967771D01*
X186721000Y-135652229D01*
X186721602Y-135664481D01*
X186726085Y-135710000D01*
X186721000Y-135761630D01*
X186705793Y-135916032D01*
X186702760Y-135926030D01*
X186645694Y-136114149D01*
X186593939Y-136210975D01*
X186548103Y-136296729D01*
X186416765Y-136456765D01*
X186256729Y-136588103D01*
X186170975Y-136633939D01*
X186074149Y-136685694D01*
X186074146Y-136685695D01*
X185876032Y-136745793D01*
X185783860Y-136754871D01*
X185715519Y-136761602D01*
X185670000Y-136766085D01*
X185624481Y-136761602D01*
X185612229Y-136761000D01*
X173029302Y-136761000D01*
X173017052Y-136761602D01*
X172870000Y-136776085D01*
X172663969Y-136755793D01*
X172465855Y-136695695D01*
X172465852Y-136695694D01*
X172369026Y-136643939D01*
X172283272Y-136598103D01*
X172123236Y-136466765D01*
X171991898Y-136306729D01*
X171946062Y-136220975D01*
X171894307Y-136124149D01*
X171894306Y-136124146D01*
X171834208Y-135926032D01*
X171819001Y-135771630D01*
X171819001Y-135767781D01*
X171818399Y-135755529D01*
X171813915Y-135710000D01*
X171818399Y-135664471D01*
X171819001Y-135652219D01*
X171819001Y-124085999D01*
X173921000Y-124085999D01*
X173921000Y-134534001D01*
X173923402Y-134558387D01*
X173930515Y-134581836D01*
X173942066Y-134603447D01*
X173957611Y-134622389D01*
X173976553Y-134637934D01*
X173998164Y-134649485D01*
X174021613Y-134656598D01*
X174045999Y-134659000D01*
X184494002Y-134659000D01*
X184518388Y-134656598D01*
X184541837Y-134649485D01*
X184563448Y-134637934D01*
X184582390Y-134622389D01*
X184597935Y-134603447D01*
X184609486Y-134581836D01*
X184616599Y-134558387D01*
X184619001Y-134534001D01*
X184619000Y-124085999D01*
X184616598Y-124061613D01*
X184609485Y-124038164D01*
X184597934Y-124016553D01*
X184582389Y-123997611D01*
X184563447Y-123982066D01*
X184541836Y-123970515D01*
X184518387Y-123963402D01*
X184494001Y-123961000D01*
X174045999Y-123961000D01*
X174021613Y-123963402D01*
X173998164Y-123970515D01*
X173976553Y-123982066D01*
X173957611Y-123997611D01*
X173942066Y-124016553D01*
X173930515Y-124038164D01*
X173923402Y-124061613D01*
X173921000Y-124085999D01*
X171819001Y-124085999D01*
X171819000Y-122967771D01*
X171818398Y-122955519D01*
X171813915Y-122910000D01*
X171834207Y-122703970D01*
X171834207Y-122703968D01*
X171894305Y-122505854D01*
X171894306Y-122505851D01*
X171986552Y-122333271D01*
X171991897Y-122323271D01*
X172123235Y-122163235D01*
X172283271Y-122031897D01*
X172369025Y-121986061D01*
X172465851Y-121934306D01*
X172465854Y-121934305D01*
X172663968Y-121874207D01*
X172768466Y-121863915D01*
X172818369Y-121859000D01*
X185612229Y-121859000D01*
X185624481Y-121858398D01*
X185670000Y-121853915D01*
X185715519Y-121858398D01*
G37*
G36*
X166665519Y-119578398D02*
G01*
X166721534Y-119583915D01*
X166826032Y-119594207D01*
X167024146Y-119654305D01*
X167024149Y-119654306D01*
X167120975Y-119706061D01*
X167206729Y-119751897D01*
X167366765Y-119883235D01*
X167498103Y-120043271D01*
X167503448Y-120053271D01*
X167595694Y-120225851D01*
X167595695Y-120225854D01*
X167655793Y-120423968D01*
X167655793Y-120423970D01*
X167676085Y-120630000D01*
X167671602Y-120675519D01*
X167671000Y-120687771D01*
X167671000Y-133372229D01*
X167671602Y-133384481D01*
X167676085Y-133430000D01*
X167671000Y-133481630D01*
X167655793Y-133636032D01*
X167652760Y-133646030D01*
X167595694Y-133834149D01*
X167543939Y-133930975D01*
X167498103Y-134016729D01*
X167366765Y-134176765D01*
X167206729Y-134308103D01*
X167120975Y-134353939D01*
X167024149Y-134405694D01*
X167024146Y-134405695D01*
X166826032Y-134465793D01*
X166733860Y-134474871D01*
X166665519Y-134481602D01*
X166620000Y-134486085D01*
X166574481Y-134481602D01*
X166562229Y-134481000D01*
X153979302Y-134481000D01*
X153967052Y-134481602D01*
X153820000Y-134496085D01*
X153613969Y-134475793D01*
X153415855Y-134415695D01*
X153415852Y-134415694D01*
X153319026Y-134363939D01*
X153233272Y-134318103D01*
X153073236Y-134186765D01*
X152941898Y-134026729D01*
X152896062Y-133940975D01*
X152844307Y-133844149D01*
X152844306Y-133844146D01*
X152784208Y-133646032D01*
X152769001Y-133491630D01*
X152769001Y-133487781D01*
X152768399Y-133475529D01*
X152763915Y-133430000D01*
X152768399Y-133384471D01*
X152769001Y-133372219D01*
X152769001Y-121805999D01*
X154871000Y-121805999D01*
X154871000Y-132254001D01*
X154873402Y-132278387D01*
X154880515Y-132301836D01*
X154892066Y-132323447D01*
X154907611Y-132342389D01*
X154926553Y-132357934D01*
X154948164Y-132369485D01*
X154971613Y-132376598D01*
X154995999Y-132379000D01*
X165444002Y-132379000D01*
X165468388Y-132376598D01*
X165491837Y-132369485D01*
X165513448Y-132357934D01*
X165532390Y-132342389D01*
X165547935Y-132323447D01*
X165559486Y-132301836D01*
X165566599Y-132278387D01*
X165569001Y-132254001D01*
X165569000Y-121805999D01*
X165566598Y-121781613D01*
X165559485Y-121758164D01*
X165547934Y-121736553D01*
X165532389Y-121717611D01*
X165513447Y-121702066D01*
X165491836Y-121690515D01*
X165468387Y-121683402D01*
X165444001Y-121681000D01*
X154995999Y-121681000D01*
X154971613Y-121683402D01*
X154948164Y-121690515D01*
X154926553Y-121702066D01*
X154907611Y-121717611D01*
X154892066Y-121736553D01*
X154880515Y-121758164D01*
X154873402Y-121781613D01*
X154871000Y-121805999D01*
X152769001Y-121805999D01*
X152769000Y-120687771D01*
X152768398Y-120675519D01*
X152763915Y-120630000D01*
X152784207Y-120423970D01*
X152784207Y-120423968D01*
X152844305Y-120225854D01*
X152844306Y-120225851D01*
X152936552Y-120053271D01*
X152941897Y-120043271D01*
X153073235Y-119883235D01*
X153233271Y-119751897D01*
X153319025Y-119706061D01*
X153415851Y-119654306D01*
X153415854Y-119654305D01*
X153613968Y-119594207D01*
X153718466Y-119583915D01*
X153768369Y-119579000D01*
X166562229Y-119579000D01*
X166574481Y-119578398D01*
X166620000Y-119573915D01*
X166665519Y-119578398D01*
G37*
G36*
X90465519Y-110048398D02*
G01*
X90521534Y-110053915D01*
X90626032Y-110064207D01*
X90824146Y-110124305D01*
X90824149Y-110124306D01*
X90920975Y-110176061D01*
X91006729Y-110221897D01*
X91166765Y-110353235D01*
X91298103Y-110513271D01*
X91303448Y-110523271D01*
X91395694Y-110695851D01*
X91395695Y-110695854D01*
X91455793Y-110893968D01*
X91455793Y-110893970D01*
X91476085Y-111100000D01*
X91471602Y-111145519D01*
X91471000Y-111157771D01*
X91471000Y-123842229D01*
X91471602Y-123854481D01*
X91476085Y-123900000D01*
X91471000Y-123951630D01*
X91455793Y-124106032D01*
X91452760Y-124116030D01*
X91395694Y-124304149D01*
X91374282Y-124344207D01*
X91298103Y-124486729D01*
X91166765Y-124646765D01*
X91006729Y-124778103D01*
X90920975Y-124823939D01*
X90824149Y-124875694D01*
X90824146Y-124875695D01*
X90626032Y-124935793D01*
X90533860Y-124944871D01*
X90465519Y-124951602D01*
X90420000Y-124956085D01*
X90374481Y-124951602D01*
X90362229Y-124951000D01*
X77779302Y-124951000D01*
X77767052Y-124951602D01*
X77620000Y-124966085D01*
X77413969Y-124945793D01*
X77215855Y-124885695D01*
X77215852Y-124885694D01*
X77042943Y-124793272D01*
X77033272Y-124788103D01*
X76873236Y-124656765D01*
X76741898Y-124496729D01*
X76665719Y-124354207D01*
X76644307Y-124314149D01*
X76644306Y-124314146D01*
X76584208Y-124116032D01*
X76569876Y-123970515D01*
X76569001Y-123961631D01*
X76569001Y-123957781D01*
X76568399Y-123945529D01*
X76563915Y-123900000D01*
X76568399Y-123854471D01*
X76569001Y-123842219D01*
X76569001Y-112275999D01*
X78671000Y-112275999D01*
X78671000Y-122724001D01*
X78673402Y-122748387D01*
X78680515Y-122771836D01*
X78692066Y-122793447D01*
X78707611Y-122812389D01*
X78726553Y-122827934D01*
X78748164Y-122839485D01*
X78771613Y-122846598D01*
X78795999Y-122849000D01*
X89244002Y-122849000D01*
X89268388Y-122846598D01*
X89291837Y-122839485D01*
X89313448Y-122827934D01*
X89332390Y-122812389D01*
X89347935Y-122793447D01*
X89359486Y-122771836D01*
X89366599Y-122748387D01*
X89369001Y-122724001D01*
X89369000Y-112275999D01*
X89366598Y-112251613D01*
X89359485Y-112228164D01*
X89347934Y-112206553D01*
X89332389Y-112187611D01*
X89313447Y-112172066D01*
X89291836Y-112160515D01*
X89268387Y-112153402D01*
X89244001Y-112151000D01*
X78795999Y-112151000D01*
X78771613Y-112153402D01*
X78748164Y-112160515D01*
X78726553Y-112172066D01*
X78707611Y-112187611D01*
X78692066Y-112206553D01*
X78680515Y-112228164D01*
X78673402Y-112251613D01*
X78671000Y-112275999D01*
X76569001Y-112275999D01*
X76569000Y-111157771D01*
X76568398Y-111145519D01*
X76563915Y-111100000D01*
X76584207Y-110893970D01*
X76584207Y-110893968D01*
X76644305Y-110695854D01*
X76644306Y-110695851D01*
X76736552Y-110523271D01*
X76741897Y-110513271D01*
X76873235Y-110353235D01*
X77033271Y-110221897D01*
X77119025Y-110176061D01*
X77215851Y-110124306D01*
X77215854Y-110124305D01*
X77413968Y-110064207D01*
X77518466Y-110053915D01*
X77568369Y-110049000D01*
X90362229Y-110049000D01*
X90374481Y-110048398D01*
X90420000Y-110043915D01*
X90465519Y-110048398D01*
G37*
G36*
X109515519Y-107568398D02*
G01*
X109571534Y-107573915D01*
X109676032Y-107584207D01*
X109874146Y-107644305D01*
X109874149Y-107644306D01*
X109970975Y-107696061D01*
X110056729Y-107741897D01*
X110216765Y-107873235D01*
X110348103Y-108033271D01*
X110353448Y-108043271D01*
X110445694Y-108215851D01*
X110445695Y-108215854D01*
X110505793Y-108413968D01*
X110505793Y-108413970D01*
X110526085Y-108620000D01*
X110521602Y-108665519D01*
X110521000Y-108677771D01*
X110521000Y-121362229D01*
X110521602Y-121374481D01*
X110526085Y-121420000D01*
X110521000Y-121471630D01*
X110505793Y-121626032D01*
X110458597Y-121781613D01*
X110445694Y-121824149D01*
X110418937Y-121874207D01*
X110348103Y-122006729D01*
X110216765Y-122166765D01*
X110056729Y-122298103D01*
X109990934Y-122333271D01*
X109874149Y-122395694D01*
X109874146Y-122395695D01*
X109676032Y-122455793D01*
X109583860Y-122464871D01*
X109515519Y-122471602D01*
X109470000Y-122476085D01*
X109424481Y-122471602D01*
X109412229Y-122471000D01*
X96829302Y-122471000D01*
X96817052Y-122471602D01*
X96670000Y-122486085D01*
X96463969Y-122465793D01*
X96265855Y-122405695D01*
X96265852Y-122405694D01*
X96169026Y-122353939D01*
X96083272Y-122308103D01*
X95923236Y-122176765D01*
X95791898Y-122016729D01*
X95715719Y-121874207D01*
X95694307Y-121834149D01*
X95694306Y-121834146D01*
X95634208Y-121636032D01*
X95619001Y-121481630D01*
X95619001Y-121477781D01*
X95618399Y-121465529D01*
X95613915Y-121420000D01*
X95618399Y-121374471D01*
X95619001Y-121362219D01*
X95619001Y-109795999D01*
X97721000Y-109795999D01*
X97721000Y-120244001D01*
X97723402Y-120268387D01*
X97730515Y-120291836D01*
X97742066Y-120313447D01*
X97757611Y-120332389D01*
X97776553Y-120347934D01*
X97798164Y-120359485D01*
X97821613Y-120366598D01*
X97845999Y-120369000D01*
X108294002Y-120369000D01*
X108318388Y-120366598D01*
X108341837Y-120359485D01*
X108363448Y-120347934D01*
X108382390Y-120332389D01*
X108397935Y-120313447D01*
X108409486Y-120291836D01*
X108416599Y-120268387D01*
X108419001Y-120244001D01*
X108419000Y-109795999D01*
X108416598Y-109771613D01*
X108409485Y-109748164D01*
X108397934Y-109726553D01*
X108382389Y-109707611D01*
X108363447Y-109692066D01*
X108341836Y-109680515D01*
X108318387Y-109673402D01*
X108294001Y-109671000D01*
X97845999Y-109671000D01*
X97821613Y-109673402D01*
X97798164Y-109680515D01*
X97776553Y-109692066D01*
X97757611Y-109707611D01*
X97742066Y-109726553D01*
X97730515Y-109748164D01*
X97723402Y-109771613D01*
X97721000Y-109795999D01*
X95619001Y-109795999D01*
X95619000Y-108677771D01*
X95618398Y-108665519D01*
X95613915Y-108620000D01*
X95634207Y-108413970D01*
X95634207Y-108413968D01*
X95694305Y-108215854D01*
X95694306Y-108215851D01*
X95786552Y-108043271D01*
X95791897Y-108033271D01*
X95923235Y-107873235D01*
X96083271Y-107741897D01*
X96169025Y-107696061D01*
X96265851Y-107644306D01*
X96265854Y-107644305D01*
X96463968Y-107584207D01*
X96568466Y-107573915D01*
X96618369Y-107569000D01*
X109412229Y-107569000D01*
X109424481Y-107568398D01*
X109470000Y-107563915D01*
X109515519Y-107568398D01*
G37*
G36*
X185715519Y-102808398D02*
G01*
X185771534Y-102813915D01*
X185876032Y-102824207D01*
X186074146Y-102884305D01*
X186074149Y-102884306D01*
X186170975Y-102936061D01*
X186256729Y-102981897D01*
X186416765Y-103113235D01*
X186548103Y-103273271D01*
X186553448Y-103283271D01*
X186645694Y-103455851D01*
X186645695Y-103455854D01*
X186705793Y-103653968D01*
X186705793Y-103653970D01*
X186726085Y-103860000D01*
X186721602Y-103905519D01*
X186721000Y-103917771D01*
X186721000Y-116602229D01*
X186721602Y-116614481D01*
X186726085Y-116660000D01*
X186721000Y-116711630D01*
X186705793Y-116866032D01*
X186702760Y-116876030D01*
X186645694Y-117064149D01*
X186593939Y-117160975D01*
X186548103Y-117246729D01*
X186416765Y-117406765D01*
X186256729Y-117538103D01*
X186170975Y-117583939D01*
X186074149Y-117635694D01*
X186074146Y-117635695D01*
X185876032Y-117695793D01*
X185783860Y-117704871D01*
X185715519Y-117711602D01*
X185670000Y-117716085D01*
X185624481Y-117711602D01*
X185612229Y-117711000D01*
X173029302Y-117711000D01*
X173017052Y-117711602D01*
X172870000Y-117726085D01*
X172663969Y-117705793D01*
X172465855Y-117645695D01*
X172465852Y-117645694D01*
X172369026Y-117593939D01*
X172283272Y-117548103D01*
X172123236Y-117416765D01*
X171991898Y-117256729D01*
X171946062Y-117170975D01*
X171894307Y-117074149D01*
X171894306Y-117074146D01*
X171834208Y-116876032D01*
X171819001Y-116721630D01*
X171819001Y-116717781D01*
X171818399Y-116705529D01*
X171813915Y-116660000D01*
X171818399Y-116614471D01*
X171819001Y-116602219D01*
X171819001Y-105035999D01*
X173921000Y-105035999D01*
X173921000Y-115484001D01*
X173923402Y-115508387D01*
X173930515Y-115531836D01*
X173942066Y-115553447D01*
X173957611Y-115572389D01*
X173976553Y-115587934D01*
X173998164Y-115599485D01*
X174021613Y-115606598D01*
X174045999Y-115609000D01*
X184494002Y-115609000D01*
X184518388Y-115606598D01*
X184541837Y-115599485D01*
X184563448Y-115587934D01*
X184582390Y-115572389D01*
X184597935Y-115553447D01*
X184609486Y-115531836D01*
X184616599Y-115508387D01*
X184619001Y-115484001D01*
X184619000Y-105035999D01*
X184616598Y-105011613D01*
X184609485Y-104988164D01*
X184597934Y-104966553D01*
X184582389Y-104947611D01*
X184563447Y-104932066D01*
X184541836Y-104920515D01*
X184518387Y-104913402D01*
X184494001Y-104911000D01*
X174045999Y-104911000D01*
X174021613Y-104913402D01*
X173998164Y-104920515D01*
X173976553Y-104932066D01*
X173957611Y-104947611D01*
X173942066Y-104966553D01*
X173930515Y-104988164D01*
X173923402Y-105011613D01*
X173921000Y-105035999D01*
X171819001Y-105035999D01*
X171819000Y-103917771D01*
X171818398Y-103905519D01*
X171813915Y-103860000D01*
X171834207Y-103653970D01*
X171834207Y-103653968D01*
X171894305Y-103455854D01*
X171894306Y-103455851D01*
X171986552Y-103283271D01*
X171991897Y-103273271D01*
X172123235Y-103113235D01*
X172283271Y-102981897D01*
X172369025Y-102936061D01*
X172465851Y-102884306D01*
X172465854Y-102884305D01*
X172663968Y-102824207D01*
X172768466Y-102813915D01*
X172818369Y-102809000D01*
X185612229Y-102809000D01*
X185624481Y-102808398D01*
X185670000Y-102803915D01*
X185715519Y-102808398D01*
G37*
G36*
X166665519Y-100528398D02*
G01*
X166729248Y-100534675D01*
X166826032Y-100544207D01*
X166991184Y-100594306D01*
X167024149Y-100604306D01*
X167120975Y-100656061D01*
X167206729Y-100701897D01*
X167366765Y-100833235D01*
X167498103Y-100993271D01*
X167531469Y-101055695D01*
X167595694Y-101175851D01*
X167595695Y-101175854D01*
X167655793Y-101373968D01*
X167655793Y-101373970D01*
X167676085Y-101580000D01*
X167671602Y-101625519D01*
X167671000Y-101637771D01*
X167671000Y-114322229D01*
X167671602Y-114334481D01*
X167676085Y-114380000D01*
X167655793Y-114586032D01*
X167595695Y-114784146D01*
X167595694Y-114784149D01*
X167543939Y-114880975D01*
X167498103Y-114966729D01*
X167366765Y-115126765D01*
X167206729Y-115258103D01*
X167120975Y-115303939D01*
X167024149Y-115355694D01*
X167024146Y-115355695D01*
X166826032Y-115415793D01*
X166773164Y-115421000D01*
X166733860Y-115424871D01*
X166665519Y-115431602D01*
X166620000Y-115436085D01*
X166574481Y-115431602D01*
X166562229Y-115431000D01*
X153979302Y-115431000D01*
X153967052Y-115431602D01*
X153820000Y-115446085D01*
X153613969Y-115425793D01*
X153415855Y-115365695D01*
X153415852Y-115365694D01*
X153319026Y-115313939D01*
X153233272Y-115268103D01*
X153073236Y-115136765D01*
X152941898Y-114976729D01*
X152896062Y-114890975D01*
X152844307Y-114794149D01*
X152844306Y-114794146D01*
X152784208Y-114596032D01*
X152769001Y-114441630D01*
X152769001Y-114437781D01*
X152768399Y-114425529D01*
X152763915Y-114380000D01*
X152768399Y-114334471D01*
X152769001Y-114322219D01*
X152769001Y-102755999D01*
X154871000Y-102755999D01*
X154871000Y-113204001D01*
X154873402Y-113228387D01*
X154880515Y-113251836D01*
X154892066Y-113273447D01*
X154907611Y-113292389D01*
X154926553Y-113307934D01*
X154948164Y-113319485D01*
X154971613Y-113326598D01*
X154995999Y-113329000D01*
X165444002Y-113329000D01*
X165468388Y-113326598D01*
X165491837Y-113319485D01*
X165513448Y-113307934D01*
X165532390Y-113292389D01*
X165547935Y-113273447D01*
X165559486Y-113251836D01*
X165566599Y-113228387D01*
X165569001Y-113204001D01*
X165569000Y-102755999D01*
X165566598Y-102731613D01*
X165559485Y-102708164D01*
X165547934Y-102686553D01*
X165532389Y-102667611D01*
X165513447Y-102652066D01*
X165491836Y-102640515D01*
X165468387Y-102633402D01*
X165444001Y-102631000D01*
X154995999Y-102631000D01*
X154971613Y-102633402D01*
X154948164Y-102640515D01*
X154926553Y-102652066D01*
X154907611Y-102667611D01*
X154892066Y-102686553D01*
X154880515Y-102708164D01*
X154873402Y-102731613D01*
X154871000Y-102755999D01*
X152769001Y-102755999D01*
X152769000Y-101637771D01*
X152768398Y-101625519D01*
X152763915Y-101580000D01*
X152784207Y-101373970D01*
X152784207Y-101373968D01*
X152844305Y-101175854D01*
X152844306Y-101175851D01*
X152908531Y-101055695D01*
X152941897Y-100993271D01*
X153073235Y-100833235D01*
X153233271Y-100701897D01*
X153319025Y-100656061D01*
X153415851Y-100604306D01*
X153448816Y-100594306D01*
X153613968Y-100544207D01*
X153718466Y-100533915D01*
X153768369Y-100529000D01*
X166562229Y-100529000D01*
X166574481Y-100528398D01*
X166620000Y-100523915D01*
X166665519Y-100528398D01*
G37*
G36*
X128565519Y-100518398D02*
G01*
X128621534Y-100523915D01*
X128726032Y-100534207D01*
X128924146Y-100594305D01*
X128924149Y-100594306D01*
X128961564Y-100614305D01*
X129106729Y-100691897D01*
X129266765Y-100823235D01*
X129398103Y-100983271D01*
X129408793Y-101003271D01*
X129495694Y-101165851D01*
X129495695Y-101165854D01*
X129555793Y-101363968D01*
X129555793Y-101363970D01*
X129576085Y-101570000D01*
X129571602Y-101615519D01*
X129571000Y-101627771D01*
X129571000Y-114312229D01*
X129571602Y-114324481D01*
X129576085Y-114370000D01*
X129571000Y-114421630D01*
X129555793Y-114576032D01*
X129495695Y-114774146D01*
X129495694Y-114774149D01*
X129443939Y-114870975D01*
X129398103Y-114956729D01*
X129266765Y-115116765D01*
X129106729Y-115248103D01*
X129069311Y-115268103D01*
X128924149Y-115345694D01*
X128924146Y-115345695D01*
X128726032Y-115405793D01*
X128633860Y-115414871D01*
X128565519Y-115421602D01*
X128520000Y-115426085D01*
X128474481Y-115421602D01*
X128462229Y-115421000D01*
X115879302Y-115421000D01*
X115867052Y-115421602D01*
X115720000Y-115436085D01*
X115513969Y-115415793D01*
X115315855Y-115355695D01*
X115315852Y-115355694D01*
X115219026Y-115303939D01*
X115133272Y-115258103D01*
X114973236Y-115126765D01*
X114841898Y-114966729D01*
X114796062Y-114880975D01*
X114744307Y-114784149D01*
X114744306Y-114784146D01*
X114684208Y-114586032D01*
X114669001Y-114431630D01*
X114669001Y-114427781D01*
X114668399Y-114415529D01*
X114663915Y-114370000D01*
X114668399Y-114324471D01*
X114669001Y-114312219D01*
X114669001Y-102745999D01*
X116771000Y-102745999D01*
X116771000Y-113194001D01*
X116773402Y-113218387D01*
X116780515Y-113241836D01*
X116792066Y-113263447D01*
X116807611Y-113282389D01*
X116826553Y-113297934D01*
X116848164Y-113309485D01*
X116871613Y-113316598D01*
X116895999Y-113319000D01*
X127344002Y-113319000D01*
X127368388Y-113316598D01*
X127391837Y-113309485D01*
X127413448Y-113297934D01*
X127432390Y-113282389D01*
X127447935Y-113263447D01*
X127459486Y-113241836D01*
X127466599Y-113218387D01*
X127469001Y-113194001D01*
X127469000Y-102745999D01*
X127466598Y-102721613D01*
X127459485Y-102698164D01*
X127447934Y-102676553D01*
X127432389Y-102657611D01*
X127413447Y-102642066D01*
X127391836Y-102630515D01*
X127368387Y-102623402D01*
X127344001Y-102621000D01*
X116895999Y-102621000D01*
X116871613Y-102623402D01*
X116848164Y-102630515D01*
X116826553Y-102642066D01*
X116807611Y-102657611D01*
X116792066Y-102676553D01*
X116780515Y-102698164D01*
X116773402Y-102721613D01*
X116771000Y-102745999D01*
X114669001Y-102745999D01*
X114669000Y-101627771D01*
X114668398Y-101615519D01*
X114663915Y-101570000D01*
X114684207Y-101363970D01*
X114684207Y-101363968D01*
X114744305Y-101165854D01*
X114744306Y-101165851D01*
X114831207Y-101003271D01*
X114841897Y-100983271D01*
X114973235Y-100823235D01*
X115133271Y-100691897D01*
X115278436Y-100614305D01*
X115315851Y-100594306D01*
X115315854Y-100594305D01*
X115513968Y-100534207D01*
X115618466Y-100523915D01*
X115668369Y-100519000D01*
X128462229Y-100519000D01*
X128474481Y-100518398D01*
X128520000Y-100513915D01*
X128565519Y-100518398D01*
G37*
G36*
X147615519Y-95758398D02*
G01*
X147671534Y-95763915D01*
X147776032Y-95774207D01*
X147974146Y-95834305D01*
X147974149Y-95834306D01*
X148070975Y-95886061D01*
X148156729Y-95931897D01*
X148316765Y-96063235D01*
X148448103Y-96223271D01*
X148453448Y-96233271D01*
X148545694Y-96405851D01*
X148545695Y-96405854D01*
X148605793Y-96603968D01*
X148605793Y-96603970D01*
X148626085Y-96810000D01*
X148621602Y-96855519D01*
X148621000Y-96867771D01*
X148621000Y-109552229D01*
X148621602Y-109564481D01*
X148626085Y-109610000D01*
X148621000Y-109661630D01*
X148605793Y-109816032D01*
X148602760Y-109826030D01*
X148545694Y-110014149D01*
X148518937Y-110064207D01*
X148448103Y-110196729D01*
X148316765Y-110356765D01*
X148156729Y-110488103D01*
X148090934Y-110523271D01*
X147974149Y-110585694D01*
X147974146Y-110585695D01*
X147776032Y-110645793D01*
X147683860Y-110654871D01*
X147615519Y-110661602D01*
X147570000Y-110666085D01*
X147524481Y-110661602D01*
X147512229Y-110661000D01*
X134929302Y-110661000D01*
X134917052Y-110661602D01*
X134770000Y-110676085D01*
X134563969Y-110655793D01*
X134365855Y-110595695D01*
X134365852Y-110595694D01*
X134269026Y-110543939D01*
X134183272Y-110498103D01*
X134023236Y-110366765D01*
X133891898Y-110206729D01*
X133815719Y-110064207D01*
X133794307Y-110024149D01*
X133794306Y-110024146D01*
X133734208Y-109826032D01*
X133719876Y-109680515D01*
X133719001Y-109671631D01*
X133719001Y-109667781D01*
X133718399Y-109655529D01*
X133713915Y-109610000D01*
X133718399Y-109564471D01*
X133719001Y-109552219D01*
X133719001Y-97985999D01*
X135821000Y-97985999D01*
X135821000Y-108434001D01*
X135823402Y-108458387D01*
X135830515Y-108481836D01*
X135842066Y-108503447D01*
X135857611Y-108522389D01*
X135876553Y-108537934D01*
X135898164Y-108549485D01*
X135921613Y-108556598D01*
X135945999Y-108559000D01*
X146394002Y-108559000D01*
X146418388Y-108556598D01*
X146441837Y-108549485D01*
X146463448Y-108537934D01*
X146482390Y-108522389D01*
X146497935Y-108503447D01*
X146509486Y-108481836D01*
X146516599Y-108458387D01*
X146519001Y-108434001D01*
X146519000Y-97985999D01*
X146516598Y-97961613D01*
X146509485Y-97938164D01*
X146497934Y-97916553D01*
X146482389Y-97897611D01*
X146463447Y-97882066D01*
X146441836Y-97870515D01*
X146418387Y-97863402D01*
X146394001Y-97861000D01*
X135945999Y-97861000D01*
X135921613Y-97863402D01*
X135898164Y-97870515D01*
X135876553Y-97882066D01*
X135857611Y-97897611D01*
X135842066Y-97916553D01*
X135830515Y-97938164D01*
X135823402Y-97961613D01*
X135821000Y-97985999D01*
X133719001Y-97985999D01*
X133719000Y-96867771D01*
X133718398Y-96855519D01*
X133713915Y-96810000D01*
X133734207Y-96603970D01*
X133734207Y-96603968D01*
X133794305Y-96405854D01*
X133794306Y-96405851D01*
X133886552Y-96233271D01*
X133891897Y-96223271D01*
X134023235Y-96063235D01*
X134183271Y-95931897D01*
X134269025Y-95886061D01*
X134365851Y-95834306D01*
X134365854Y-95834305D01*
X134563968Y-95774207D01*
X134668466Y-95763915D01*
X134718369Y-95759000D01*
X147512229Y-95759000D01*
X147524481Y-95758398D01*
X147570000Y-95753915D01*
X147615519Y-95758398D01*
G37*
G36*
X90465519Y-90998398D02*
G01*
X90521534Y-91003915D01*
X90626032Y-91014207D01*
X90824146Y-91074305D01*
X90824149Y-91074306D01*
X90920975Y-91126061D01*
X91006729Y-91171897D01*
X91166765Y-91303235D01*
X91298103Y-91463271D01*
X91303448Y-91473271D01*
X91395694Y-91645851D01*
X91395695Y-91645854D01*
X91455793Y-91843968D01*
X91455793Y-91843970D01*
X91476085Y-92050000D01*
X91471602Y-92095519D01*
X91471000Y-92107771D01*
X91471000Y-104792229D01*
X91471602Y-104804481D01*
X91476085Y-104850000D01*
X91471000Y-104901630D01*
X91455793Y-105056032D01*
X91452760Y-105066030D01*
X91395694Y-105254149D01*
X91343939Y-105350975D01*
X91298103Y-105436729D01*
X91166765Y-105596765D01*
X91006729Y-105728103D01*
X90920975Y-105773939D01*
X90824149Y-105825694D01*
X90824146Y-105825695D01*
X90626032Y-105885793D01*
X90533860Y-105894871D01*
X90465519Y-105901602D01*
X90420000Y-105906085D01*
X90374481Y-105901602D01*
X90362229Y-105901000D01*
X77779302Y-105901000D01*
X77767052Y-105901602D01*
X77620000Y-105916085D01*
X77413969Y-105895793D01*
X77215855Y-105835695D01*
X77215852Y-105835694D01*
X77119026Y-105783939D01*
X77033272Y-105738103D01*
X76873236Y-105606765D01*
X76741898Y-105446729D01*
X76696062Y-105360975D01*
X76644307Y-105264149D01*
X76644306Y-105264146D01*
X76584208Y-105066032D01*
X76569876Y-104920515D01*
X76569001Y-104911631D01*
X76569001Y-104907781D01*
X76568399Y-104895529D01*
X76563915Y-104850000D01*
X76568399Y-104804471D01*
X76569001Y-104792219D01*
X76569001Y-93225999D01*
X78671000Y-93225999D01*
X78671000Y-103674001D01*
X78673402Y-103698387D01*
X78680515Y-103721836D01*
X78692066Y-103743447D01*
X78707611Y-103762389D01*
X78726553Y-103777934D01*
X78748164Y-103789485D01*
X78771613Y-103796598D01*
X78795999Y-103799000D01*
X89244002Y-103799000D01*
X89268388Y-103796598D01*
X89291837Y-103789485D01*
X89313448Y-103777934D01*
X89332390Y-103762389D01*
X89347935Y-103743447D01*
X89359486Y-103721836D01*
X89366599Y-103698387D01*
X89369001Y-103674001D01*
X89369000Y-93225999D01*
X89366598Y-93201613D01*
X89359485Y-93178164D01*
X89347934Y-93156553D01*
X89332389Y-93137611D01*
X89313447Y-93122066D01*
X89291836Y-93110515D01*
X89268387Y-93103402D01*
X89244001Y-93101000D01*
X78795999Y-93101000D01*
X78771613Y-93103402D01*
X78748164Y-93110515D01*
X78726553Y-93122066D01*
X78707611Y-93137611D01*
X78692066Y-93156553D01*
X78680515Y-93178164D01*
X78673402Y-93201613D01*
X78671000Y-93225999D01*
X76569001Y-93225999D01*
X76569000Y-92107771D01*
X76568398Y-92095519D01*
X76563915Y-92050000D01*
X76584207Y-91843970D01*
X76584207Y-91843968D01*
X76644305Y-91645854D01*
X76644306Y-91645851D01*
X76736552Y-91473271D01*
X76741897Y-91463271D01*
X76873235Y-91303235D01*
X77033271Y-91171897D01*
X77119025Y-91126061D01*
X77215851Y-91074306D01*
X77215854Y-91074305D01*
X77413968Y-91014207D01*
X77518466Y-91003915D01*
X77568369Y-90999000D01*
X90362229Y-90999000D01*
X90374481Y-90998398D01*
X90420000Y-90993915D01*
X90465519Y-90998398D01*
G37*
G36*
X109515519Y-88518398D02*
G01*
X109571534Y-88523915D01*
X109676032Y-88534207D01*
X109874146Y-88594305D01*
X109874149Y-88594306D01*
X109970975Y-88646061D01*
X110056729Y-88691897D01*
X110216765Y-88823235D01*
X110348103Y-88983271D01*
X110353448Y-88993271D01*
X110445694Y-89165851D01*
X110445695Y-89165854D01*
X110505793Y-89363968D01*
X110505793Y-89363970D01*
X110526085Y-89570000D01*
X110521602Y-89615519D01*
X110521000Y-89627771D01*
X110521000Y-102312229D01*
X110521602Y-102324481D01*
X110526085Y-102370000D01*
X110521000Y-102421630D01*
X110505793Y-102576032D01*
X110461631Y-102721613D01*
X110445694Y-102774149D01*
X110418937Y-102824207D01*
X110348103Y-102956729D01*
X110216765Y-103116765D01*
X110056729Y-103248103D01*
X109990934Y-103283271D01*
X109874149Y-103345694D01*
X109874146Y-103345695D01*
X109676032Y-103405793D01*
X109583860Y-103414871D01*
X109515519Y-103421602D01*
X109470000Y-103426085D01*
X109424481Y-103421602D01*
X109412229Y-103421000D01*
X96829302Y-103421000D01*
X96817052Y-103421602D01*
X96670000Y-103436085D01*
X96463969Y-103415793D01*
X96265855Y-103355695D01*
X96265852Y-103355694D01*
X96169026Y-103303939D01*
X96083272Y-103258103D01*
X95923236Y-103126765D01*
X95791898Y-102966729D01*
X95715719Y-102824207D01*
X95694307Y-102784149D01*
X95694306Y-102784146D01*
X95634208Y-102586032D01*
X95619001Y-102431630D01*
X95619001Y-102427781D01*
X95618399Y-102415529D01*
X95613915Y-102370000D01*
X95618399Y-102324471D01*
X95619001Y-102312219D01*
X95619001Y-90745999D01*
X97721000Y-90745999D01*
X97721000Y-101194001D01*
X97723402Y-101218387D01*
X97730515Y-101241836D01*
X97742066Y-101263447D01*
X97757611Y-101282389D01*
X97776553Y-101297934D01*
X97798164Y-101309485D01*
X97821613Y-101316598D01*
X97845999Y-101319000D01*
X108294002Y-101319000D01*
X108318388Y-101316598D01*
X108341837Y-101309485D01*
X108363448Y-101297934D01*
X108382390Y-101282389D01*
X108397935Y-101263447D01*
X108409486Y-101241836D01*
X108416599Y-101218387D01*
X108419001Y-101194001D01*
X108419000Y-90745999D01*
X108416598Y-90721613D01*
X108409485Y-90698164D01*
X108397934Y-90676553D01*
X108382389Y-90657611D01*
X108363447Y-90642066D01*
X108341836Y-90630515D01*
X108318387Y-90623402D01*
X108294001Y-90621000D01*
X97845999Y-90621000D01*
X97821613Y-90623402D01*
X97798164Y-90630515D01*
X97776553Y-90642066D01*
X97757611Y-90657611D01*
X97742066Y-90676553D01*
X97730515Y-90698164D01*
X97723402Y-90721613D01*
X97721000Y-90745999D01*
X95619001Y-90745999D01*
X95619000Y-89627771D01*
X95618398Y-89615519D01*
X95613915Y-89570000D01*
X95634207Y-89363970D01*
X95634207Y-89363968D01*
X95694305Y-89165854D01*
X95694306Y-89165851D01*
X95786552Y-88993271D01*
X95791897Y-88983271D01*
X95923235Y-88823235D01*
X96083271Y-88691897D01*
X96169025Y-88646061D01*
X96265851Y-88594306D01*
X96265854Y-88594305D01*
X96463968Y-88534207D01*
X96568466Y-88523915D01*
X96618369Y-88519000D01*
X109412229Y-88519000D01*
X109424481Y-88518398D01*
X109470000Y-88513915D01*
X109515519Y-88518398D01*
G37*
G36*
X71415519Y-86228398D02*
G01*
X71471534Y-86233915D01*
X71576032Y-86244207D01*
X71774146Y-86304305D01*
X71774149Y-86304306D01*
X71870975Y-86356061D01*
X71956729Y-86401897D01*
X72116765Y-86533235D01*
X72248103Y-86693271D01*
X72253448Y-86703271D01*
X72345694Y-86875851D01*
X72345695Y-86875854D01*
X72405793Y-87073968D01*
X72405793Y-87073970D01*
X72426085Y-87280000D01*
X72421602Y-87325519D01*
X72421000Y-87337771D01*
X72421000Y-100022229D01*
X72421602Y-100034481D01*
X72426085Y-100080000D01*
X72421000Y-100131630D01*
X72405793Y-100286032D01*
X72402760Y-100296030D01*
X72345694Y-100484149D01*
X72319093Y-100533915D01*
X72248103Y-100666729D01*
X72116765Y-100826765D01*
X71956729Y-100958103D01*
X71890934Y-100993271D01*
X71774149Y-101055694D01*
X71774146Y-101055695D01*
X71576032Y-101115793D01*
X71483860Y-101124871D01*
X71415519Y-101131602D01*
X71370000Y-101136085D01*
X71324481Y-101131602D01*
X71312229Y-101131000D01*
X58729302Y-101131000D01*
X58717052Y-101131602D01*
X58570000Y-101146085D01*
X58363969Y-101125793D01*
X58165855Y-101065695D01*
X58165852Y-101065694D01*
X58049067Y-101003271D01*
X57983272Y-100968103D01*
X57823236Y-100836765D01*
X57691898Y-100676729D01*
X57615719Y-100534207D01*
X57594307Y-100494149D01*
X57594306Y-100494146D01*
X57534208Y-100296032D01*
X57519001Y-100141630D01*
X57519001Y-100137781D01*
X57518399Y-100125529D01*
X57513915Y-100080000D01*
X57518399Y-100034471D01*
X57519001Y-100022219D01*
X57519001Y-88455999D01*
X59621000Y-88455999D01*
X59621000Y-98904001D01*
X59623402Y-98928387D01*
X59630515Y-98951836D01*
X59642066Y-98973447D01*
X59657611Y-98992389D01*
X59676553Y-99007934D01*
X59698164Y-99019485D01*
X59721613Y-99026598D01*
X59745999Y-99029000D01*
X70194002Y-99029000D01*
X70218388Y-99026598D01*
X70241837Y-99019485D01*
X70263448Y-99007934D01*
X70282390Y-98992389D01*
X70297935Y-98973447D01*
X70309486Y-98951836D01*
X70316599Y-98928387D01*
X70319001Y-98904001D01*
X70319000Y-88455999D01*
X70316598Y-88431613D01*
X70309485Y-88408164D01*
X70297934Y-88386553D01*
X70282389Y-88367611D01*
X70263447Y-88352066D01*
X70241836Y-88340515D01*
X70218387Y-88333402D01*
X70194001Y-88331000D01*
X59745999Y-88331000D01*
X59721613Y-88333402D01*
X59698164Y-88340515D01*
X59676553Y-88352066D01*
X59657611Y-88367611D01*
X59642066Y-88386553D01*
X59630515Y-88408164D01*
X59623402Y-88431613D01*
X59621000Y-88455999D01*
X57519001Y-88455999D01*
X57519000Y-87337771D01*
X57518398Y-87325519D01*
X57513915Y-87280000D01*
X57534207Y-87073970D01*
X57534207Y-87073968D01*
X57594305Y-86875854D01*
X57594306Y-86875851D01*
X57686552Y-86703271D01*
X57691897Y-86693271D01*
X57823235Y-86533235D01*
X57983271Y-86401897D01*
X58069025Y-86356061D01*
X58165851Y-86304306D01*
X58165854Y-86304305D01*
X58363968Y-86244207D01*
X58468466Y-86233915D01*
X58518369Y-86229000D01*
X71312229Y-86229000D01*
X71324481Y-86228398D01*
X71370000Y-86223915D01*
X71415519Y-86228398D01*
G37*
G36*
X185715519Y-83758398D02*
G01*
X185771534Y-83763915D01*
X185876032Y-83774207D01*
X186074146Y-83834305D01*
X186074149Y-83834306D01*
X186170975Y-83886061D01*
X186256729Y-83931897D01*
X186416765Y-84063235D01*
X186548103Y-84223271D01*
X186553448Y-84233271D01*
X186645694Y-84405851D01*
X186645695Y-84405854D01*
X186705793Y-84603968D01*
X186705793Y-84603970D01*
X186726085Y-84810000D01*
X186721602Y-84855519D01*
X186721000Y-84867771D01*
X186721000Y-97552229D01*
X186721602Y-97564481D01*
X186726085Y-97610000D01*
X186721000Y-97661630D01*
X186705793Y-97816032D01*
X186681046Y-97897611D01*
X186645694Y-98014149D01*
X186593939Y-98110975D01*
X186548103Y-98196729D01*
X186416765Y-98356765D01*
X186256729Y-98488103D01*
X186170975Y-98533939D01*
X186074149Y-98585694D01*
X186074146Y-98585695D01*
X185876032Y-98645793D01*
X185783860Y-98654871D01*
X185715519Y-98661602D01*
X185670000Y-98666085D01*
X185624481Y-98661602D01*
X185612229Y-98661000D01*
X173029302Y-98661000D01*
X173017052Y-98661602D01*
X172870000Y-98676085D01*
X172663969Y-98655793D01*
X172465855Y-98595695D01*
X172465852Y-98595694D01*
X172369026Y-98543939D01*
X172283272Y-98498103D01*
X172123236Y-98366765D01*
X171991898Y-98206729D01*
X171946062Y-98120975D01*
X171894307Y-98024149D01*
X171894306Y-98024146D01*
X171834208Y-97826032D01*
X171819001Y-97671630D01*
X171819001Y-97667781D01*
X171818399Y-97655529D01*
X171813915Y-97610000D01*
X171818399Y-97564471D01*
X171819001Y-97552219D01*
X171819001Y-85985999D01*
X173921000Y-85985999D01*
X173921000Y-96434001D01*
X173923402Y-96458387D01*
X173930515Y-96481836D01*
X173942066Y-96503447D01*
X173957611Y-96522389D01*
X173976553Y-96537934D01*
X173998164Y-96549485D01*
X174021613Y-96556598D01*
X174045999Y-96559000D01*
X184494002Y-96559000D01*
X184518388Y-96556598D01*
X184541837Y-96549485D01*
X184563448Y-96537934D01*
X184582390Y-96522389D01*
X184597935Y-96503447D01*
X184609486Y-96481836D01*
X184616599Y-96458387D01*
X184619001Y-96434001D01*
X184619000Y-85985999D01*
X184616598Y-85961613D01*
X184609485Y-85938164D01*
X184597934Y-85916553D01*
X184582389Y-85897611D01*
X184563447Y-85882066D01*
X184541836Y-85870515D01*
X184518387Y-85863402D01*
X184494001Y-85861000D01*
X174045999Y-85861000D01*
X174021613Y-85863402D01*
X173998164Y-85870515D01*
X173976553Y-85882066D01*
X173957611Y-85897611D01*
X173942066Y-85916553D01*
X173930515Y-85938164D01*
X173923402Y-85961613D01*
X173921000Y-85985999D01*
X171819001Y-85985999D01*
X171819000Y-84867771D01*
X171818398Y-84855519D01*
X171813915Y-84810000D01*
X171834207Y-84603970D01*
X171834207Y-84603968D01*
X171894305Y-84405854D01*
X171894306Y-84405851D01*
X171986552Y-84233271D01*
X171991897Y-84223271D01*
X172123235Y-84063235D01*
X172283271Y-83931897D01*
X172369025Y-83886061D01*
X172465851Y-83834306D01*
X172465854Y-83834305D01*
X172663968Y-83774207D01*
X172768466Y-83763915D01*
X172818369Y-83759000D01*
X185612229Y-83759000D01*
X185624481Y-83758398D01*
X185670000Y-83753915D01*
X185715519Y-83758398D01*
G37*
G36*
X166665519Y-81478398D02*
G01*
X166729248Y-81484675D01*
X166826032Y-81494207D01*
X166991184Y-81544306D01*
X167024149Y-81554306D01*
X167120975Y-81606061D01*
X167206729Y-81651897D01*
X167366765Y-81783235D01*
X167498103Y-81943271D01*
X167503448Y-81953271D01*
X167595694Y-82125851D01*
X167595695Y-82125854D01*
X167655793Y-82323968D01*
X167655793Y-82323970D01*
X167676085Y-82530000D01*
X167671602Y-82575519D01*
X167671000Y-82587771D01*
X167671000Y-95272229D01*
X167671602Y-95284481D01*
X167676085Y-95330000D01*
X167655793Y-95536032D01*
X167595695Y-95734146D01*
X167595694Y-95734149D01*
X167574282Y-95774207D01*
X167498103Y-95916729D01*
X167366765Y-96076765D01*
X167206729Y-96208103D01*
X167120975Y-96253939D01*
X167024149Y-96305694D01*
X167024146Y-96305695D01*
X166826032Y-96365793D01*
X166773164Y-96371000D01*
X166733860Y-96374871D01*
X166665519Y-96381602D01*
X166620000Y-96386085D01*
X166574481Y-96381602D01*
X166562229Y-96381000D01*
X153979302Y-96381000D01*
X153967052Y-96381602D01*
X153820000Y-96396085D01*
X153613969Y-96375793D01*
X153415855Y-96315695D01*
X153415852Y-96315694D01*
X153242943Y-96223272D01*
X153233272Y-96218103D01*
X153073236Y-96086765D01*
X152941898Y-95926729D01*
X152865719Y-95784207D01*
X152844307Y-95744149D01*
X152844306Y-95744146D01*
X152784208Y-95546032D01*
X152769001Y-95391630D01*
X152769001Y-95387781D01*
X152768399Y-95375529D01*
X152763915Y-95330000D01*
X152768399Y-95284471D01*
X152769001Y-95272219D01*
X152769001Y-83705999D01*
X154871000Y-83705999D01*
X154871000Y-94154001D01*
X154873402Y-94178387D01*
X154880515Y-94201836D01*
X154892066Y-94223447D01*
X154907611Y-94242389D01*
X154926553Y-94257934D01*
X154948164Y-94269485D01*
X154971613Y-94276598D01*
X154995999Y-94279000D01*
X165444002Y-94279000D01*
X165468388Y-94276598D01*
X165491837Y-94269485D01*
X165513448Y-94257934D01*
X165532390Y-94242389D01*
X165547935Y-94223447D01*
X165559486Y-94201836D01*
X165566599Y-94178387D01*
X165569001Y-94154001D01*
X165569000Y-83705999D01*
X165566598Y-83681613D01*
X165559485Y-83658164D01*
X165547934Y-83636553D01*
X165532389Y-83617611D01*
X165513447Y-83602066D01*
X165491836Y-83590515D01*
X165468387Y-83583402D01*
X165444001Y-83581000D01*
X154995999Y-83581000D01*
X154971613Y-83583402D01*
X154948164Y-83590515D01*
X154926553Y-83602066D01*
X154907611Y-83617611D01*
X154892066Y-83636553D01*
X154880515Y-83658164D01*
X154873402Y-83681613D01*
X154871000Y-83705999D01*
X152769001Y-83705999D01*
X152769000Y-82587771D01*
X152768398Y-82575519D01*
X152763915Y-82530000D01*
X152784207Y-82323970D01*
X152784207Y-82323968D01*
X152844305Y-82125854D01*
X152844306Y-82125851D01*
X152936552Y-81953271D01*
X152941897Y-81943271D01*
X153073235Y-81783235D01*
X153233271Y-81651897D01*
X153319025Y-81606061D01*
X153415851Y-81554306D01*
X153448816Y-81544306D01*
X153613968Y-81494207D01*
X153718466Y-81483915D01*
X153768369Y-81479000D01*
X166562229Y-81479000D01*
X166574481Y-81478398D01*
X166620000Y-81473915D01*
X166665519Y-81478398D01*
G37*
G36*
X128565519Y-81468398D02*
G01*
X128621534Y-81473915D01*
X128726032Y-81484207D01*
X128924146Y-81544305D01*
X128924149Y-81544306D01*
X128961564Y-81564305D01*
X129106729Y-81641897D01*
X129266765Y-81773235D01*
X129398103Y-81933271D01*
X129408793Y-81953271D01*
X129495694Y-82115851D01*
X129495695Y-82115854D01*
X129555793Y-82313968D01*
X129555793Y-82313970D01*
X129576085Y-82520000D01*
X129571602Y-82565519D01*
X129571000Y-82577771D01*
X129571000Y-95262229D01*
X129571602Y-95274481D01*
X129576085Y-95320000D01*
X129571000Y-95371630D01*
X129555793Y-95526032D01*
X129495695Y-95724146D01*
X129495694Y-95724149D01*
X129468937Y-95774207D01*
X129398103Y-95906729D01*
X129266765Y-96066765D01*
X129106729Y-96198103D01*
X129040934Y-96233271D01*
X128924149Y-96295694D01*
X128924146Y-96295695D01*
X128726032Y-96355793D01*
X128633860Y-96364871D01*
X128565519Y-96371602D01*
X128520000Y-96376085D01*
X128474481Y-96371602D01*
X128462229Y-96371000D01*
X115879302Y-96371000D01*
X115867052Y-96371602D01*
X115720000Y-96386085D01*
X115513969Y-96365793D01*
X115315855Y-96305695D01*
X115315852Y-96305694D01*
X115219026Y-96253939D01*
X115133272Y-96208103D01*
X114973236Y-96076765D01*
X114841898Y-95916729D01*
X114765719Y-95774207D01*
X114744307Y-95734149D01*
X114744306Y-95734146D01*
X114684208Y-95536032D01*
X114669001Y-95381630D01*
X114669001Y-95377781D01*
X114668399Y-95365529D01*
X114663915Y-95320000D01*
X114668399Y-95274471D01*
X114669001Y-95262219D01*
X114669001Y-83695999D01*
X116771000Y-83695999D01*
X116771000Y-94144001D01*
X116773402Y-94168387D01*
X116780515Y-94191836D01*
X116792066Y-94213447D01*
X116807611Y-94232389D01*
X116826553Y-94247934D01*
X116848164Y-94259485D01*
X116871613Y-94266598D01*
X116895999Y-94269000D01*
X127344002Y-94269000D01*
X127368388Y-94266598D01*
X127391837Y-94259485D01*
X127413448Y-94247934D01*
X127432390Y-94232389D01*
X127447935Y-94213447D01*
X127459486Y-94191836D01*
X127466599Y-94168387D01*
X127469001Y-94144001D01*
X127469000Y-83695999D01*
X127466598Y-83671613D01*
X127459485Y-83648164D01*
X127447934Y-83626553D01*
X127432389Y-83607611D01*
X127413447Y-83592066D01*
X127391836Y-83580515D01*
X127368387Y-83573402D01*
X127344001Y-83571000D01*
X116895999Y-83571000D01*
X116871613Y-83573402D01*
X116848164Y-83580515D01*
X116826553Y-83592066D01*
X116807611Y-83607611D01*
X116792066Y-83626553D01*
X116780515Y-83648164D01*
X116773402Y-83671613D01*
X116771000Y-83695999D01*
X114669001Y-83695999D01*
X114669000Y-82577771D01*
X114668398Y-82565519D01*
X114663915Y-82520000D01*
X114684207Y-82313970D01*
X114684207Y-82313968D01*
X114744305Y-82115854D01*
X114744306Y-82115851D01*
X114831207Y-81953271D01*
X114841897Y-81933271D01*
X114973235Y-81773235D01*
X115133271Y-81641897D01*
X115278436Y-81564305D01*
X115315851Y-81544306D01*
X115315854Y-81544305D01*
X115513968Y-81484207D01*
X115618466Y-81473915D01*
X115668369Y-81469000D01*
X128462229Y-81469000D01*
X128474481Y-81468398D01*
X128520000Y-81463915D01*
X128565519Y-81468398D01*
G37*
G36*
X147615519Y-76708398D02*
G01*
X147671534Y-76713915D01*
X147776032Y-76724207D01*
X147974146Y-76784305D01*
X147974149Y-76784306D01*
X148070975Y-76836061D01*
X148156729Y-76881897D01*
X148316765Y-77013235D01*
X148448103Y-77173271D01*
X148453448Y-77183271D01*
X148545694Y-77355851D01*
X148545695Y-77355854D01*
X148605793Y-77553968D01*
X148605793Y-77553970D01*
X148626085Y-77760000D01*
X148621602Y-77805519D01*
X148621000Y-77817771D01*
X148621000Y-90502229D01*
X148621602Y-90514481D01*
X148626085Y-90560000D01*
X148621000Y-90611630D01*
X148605793Y-90766032D01*
X148602760Y-90776030D01*
X148545694Y-90964149D01*
X148518937Y-91014207D01*
X148448103Y-91146729D01*
X148316765Y-91306765D01*
X148156729Y-91438103D01*
X148090934Y-91473271D01*
X147974149Y-91535694D01*
X147974146Y-91535695D01*
X147776032Y-91595793D01*
X147683860Y-91604871D01*
X147615519Y-91611602D01*
X147570000Y-91616085D01*
X147524481Y-91611602D01*
X147512229Y-91611000D01*
X134929302Y-91611000D01*
X134917052Y-91611602D01*
X134770000Y-91626085D01*
X134563969Y-91605793D01*
X134365855Y-91545695D01*
X134365852Y-91545694D01*
X134269026Y-91493939D01*
X134183272Y-91448103D01*
X134023236Y-91316765D01*
X133891898Y-91156729D01*
X133815719Y-91014207D01*
X133794307Y-90974149D01*
X133794306Y-90974146D01*
X133734208Y-90776032D01*
X133719876Y-90630515D01*
X133719001Y-90621631D01*
X133719001Y-90617781D01*
X133718399Y-90605529D01*
X133713915Y-90560000D01*
X133718399Y-90514471D01*
X133719001Y-90502219D01*
X133719001Y-78935999D01*
X135821000Y-78935999D01*
X135821000Y-89384001D01*
X135823402Y-89408387D01*
X135830515Y-89431836D01*
X135842066Y-89453447D01*
X135857611Y-89472389D01*
X135876553Y-89487934D01*
X135898164Y-89499485D01*
X135921613Y-89506598D01*
X135945999Y-89509000D01*
X146394002Y-89509000D01*
X146418388Y-89506598D01*
X146441837Y-89499485D01*
X146463448Y-89487934D01*
X146482390Y-89472389D01*
X146497935Y-89453447D01*
X146509486Y-89431836D01*
X146516599Y-89408387D01*
X146519001Y-89384001D01*
X146519000Y-78935999D01*
X146516598Y-78911613D01*
X146509485Y-78888164D01*
X146497934Y-78866553D01*
X146482389Y-78847611D01*
X146463447Y-78832066D01*
X146441836Y-78820515D01*
X146418387Y-78813402D01*
X146394001Y-78811000D01*
X135945999Y-78811000D01*
X135921613Y-78813402D01*
X135898164Y-78820515D01*
X135876553Y-78832066D01*
X135857611Y-78847611D01*
X135842066Y-78866553D01*
X135830515Y-78888164D01*
X135823402Y-78911613D01*
X135821000Y-78935999D01*
X133719001Y-78935999D01*
X133719000Y-77817771D01*
X133718398Y-77805519D01*
X133713915Y-77760000D01*
X133734207Y-77553970D01*
X133734207Y-77553968D01*
X133794305Y-77355854D01*
X133794306Y-77355851D01*
X133886552Y-77183271D01*
X133891897Y-77173271D01*
X134023235Y-77013235D01*
X134183271Y-76881897D01*
X134269025Y-76836061D01*
X134365851Y-76784306D01*
X134365854Y-76784305D01*
X134563968Y-76724207D01*
X134668466Y-76713915D01*
X134718369Y-76709000D01*
X147512229Y-76709000D01*
X147524481Y-76708398D01*
X147570000Y-76703915D01*
X147615519Y-76708398D01*
G37*
G36*
X90465519Y-71948398D02*
G01*
X90521534Y-71953915D01*
X90626032Y-71964207D01*
X90824146Y-72024305D01*
X90824149Y-72024306D01*
X90920975Y-72076061D01*
X91006729Y-72121897D01*
X91166765Y-72253235D01*
X91298103Y-72413271D01*
X91303448Y-72423271D01*
X91395694Y-72595851D01*
X91395695Y-72595854D01*
X91455793Y-72793968D01*
X91455793Y-72793970D01*
X91476085Y-73000000D01*
X91471602Y-73045519D01*
X91471000Y-73057771D01*
X91471000Y-85742229D01*
X91471602Y-85754481D01*
X91476085Y-85800000D01*
X91471000Y-85851630D01*
X91455793Y-86006032D01*
X91452760Y-86016030D01*
X91395694Y-86204149D01*
X91374282Y-86244207D01*
X91298103Y-86386729D01*
X91166765Y-86546765D01*
X91006729Y-86678103D01*
X90920975Y-86723939D01*
X90824149Y-86775694D01*
X90824146Y-86775695D01*
X90626032Y-86835793D01*
X90533860Y-86844871D01*
X90465519Y-86851602D01*
X90420000Y-86856085D01*
X90374481Y-86851602D01*
X90362229Y-86851000D01*
X77779302Y-86851000D01*
X77767052Y-86851602D01*
X77620000Y-86866085D01*
X77413969Y-86845793D01*
X77215855Y-86785695D01*
X77215852Y-86785694D01*
X77042943Y-86693272D01*
X77033272Y-86688103D01*
X76873236Y-86556765D01*
X76741898Y-86396729D01*
X76665719Y-86254207D01*
X76644307Y-86214149D01*
X76644306Y-86214146D01*
X76584208Y-86016032D01*
X76569876Y-85870515D01*
X76569001Y-85861631D01*
X76569001Y-85857781D01*
X76568399Y-85845529D01*
X76563915Y-85800000D01*
X76568399Y-85754471D01*
X76569001Y-85742219D01*
X76569001Y-74175999D01*
X78671000Y-74175999D01*
X78671000Y-84624001D01*
X78673402Y-84648387D01*
X78680515Y-84671836D01*
X78692066Y-84693447D01*
X78707611Y-84712389D01*
X78726553Y-84727934D01*
X78748164Y-84739485D01*
X78771613Y-84746598D01*
X78795999Y-84749000D01*
X89244002Y-84749000D01*
X89268388Y-84746598D01*
X89291837Y-84739485D01*
X89313448Y-84727934D01*
X89332390Y-84712389D01*
X89347935Y-84693447D01*
X89359486Y-84671836D01*
X89366599Y-84648387D01*
X89369001Y-84624001D01*
X89369000Y-74175999D01*
X89366598Y-74151613D01*
X89359485Y-74128164D01*
X89347934Y-74106553D01*
X89332389Y-74087611D01*
X89313447Y-74072066D01*
X89291836Y-74060515D01*
X89268387Y-74053402D01*
X89244001Y-74051000D01*
X78795999Y-74051000D01*
X78771613Y-74053402D01*
X78748164Y-74060515D01*
X78726553Y-74072066D01*
X78707611Y-74087611D01*
X78692066Y-74106553D01*
X78680515Y-74128164D01*
X78673402Y-74151613D01*
X78671000Y-74175999D01*
X76569001Y-74175999D01*
X76569000Y-73057771D01*
X76568398Y-73045519D01*
X76563915Y-73000000D01*
X76584207Y-72793970D01*
X76584207Y-72793968D01*
X76644305Y-72595854D01*
X76644306Y-72595851D01*
X76736552Y-72423271D01*
X76741897Y-72413271D01*
X76873235Y-72253235D01*
X77033271Y-72121897D01*
X77119025Y-72076061D01*
X77215851Y-72024306D01*
X77215854Y-72024305D01*
X77413968Y-71964207D01*
X77518466Y-71953915D01*
X77568369Y-71949000D01*
X90362229Y-71949000D01*
X90374481Y-71948398D01*
X90420000Y-71943915D01*
X90465519Y-71948398D01*
G37*
G36*
X109515519Y-69468398D02*
G01*
X109571534Y-69473915D01*
X109676032Y-69484207D01*
X109874146Y-69544305D01*
X109874149Y-69544306D01*
X109970975Y-69596061D01*
X110056729Y-69641897D01*
X110216765Y-69773235D01*
X110348103Y-69933271D01*
X110353448Y-69943271D01*
X110445694Y-70115851D01*
X110445695Y-70115854D01*
X110505793Y-70313968D01*
X110505793Y-70313970D01*
X110526085Y-70520000D01*
X110521602Y-70565519D01*
X110521000Y-70577771D01*
X110521000Y-83262229D01*
X110521602Y-83274481D01*
X110526085Y-83320000D01*
X110521000Y-83371630D01*
X110505793Y-83526032D01*
X110461631Y-83671613D01*
X110445694Y-83724149D01*
X110418937Y-83774207D01*
X110348103Y-83906729D01*
X110216765Y-84066765D01*
X110056729Y-84198103D01*
X109990934Y-84233271D01*
X109874149Y-84295694D01*
X109874146Y-84295695D01*
X109676032Y-84355793D01*
X109583860Y-84364871D01*
X109515519Y-84371602D01*
X109470000Y-84376085D01*
X109424481Y-84371602D01*
X109412229Y-84371000D01*
X96829302Y-84371000D01*
X96817052Y-84371602D01*
X96670000Y-84386085D01*
X96463969Y-84365793D01*
X96265855Y-84305695D01*
X96265852Y-84305694D01*
X96169026Y-84253939D01*
X96083272Y-84208103D01*
X95923236Y-84076765D01*
X95791898Y-83916729D01*
X95715719Y-83774207D01*
X95694307Y-83734149D01*
X95694306Y-83734146D01*
X95634208Y-83536032D01*
X95619001Y-83381630D01*
X95619001Y-83377781D01*
X95618399Y-83365529D01*
X95613915Y-83320000D01*
X95618399Y-83274471D01*
X95619001Y-83262219D01*
X95619001Y-71695999D01*
X97721000Y-71695999D01*
X97721000Y-82144001D01*
X97723402Y-82168387D01*
X97730515Y-82191836D01*
X97742066Y-82213447D01*
X97757611Y-82232389D01*
X97776553Y-82247934D01*
X97798164Y-82259485D01*
X97821613Y-82266598D01*
X97845999Y-82269000D01*
X108294002Y-82269000D01*
X108318388Y-82266598D01*
X108341837Y-82259485D01*
X108363448Y-82247934D01*
X108382390Y-82232389D01*
X108397935Y-82213447D01*
X108409486Y-82191836D01*
X108416599Y-82168387D01*
X108419001Y-82144001D01*
X108419000Y-71695999D01*
X108416598Y-71671613D01*
X108409485Y-71648164D01*
X108397934Y-71626553D01*
X108382389Y-71607611D01*
X108363447Y-71592066D01*
X108341836Y-71580515D01*
X108318387Y-71573402D01*
X108294001Y-71571000D01*
X97845999Y-71571000D01*
X97821613Y-71573402D01*
X97798164Y-71580515D01*
X97776553Y-71592066D01*
X97757611Y-71607611D01*
X97742066Y-71626553D01*
X97730515Y-71648164D01*
X97723402Y-71671613D01*
X97721000Y-71695999D01*
X95619001Y-71695999D01*
X95619000Y-70577771D01*
X95618398Y-70565519D01*
X95613915Y-70520000D01*
X95634207Y-70313970D01*
X95634207Y-70313968D01*
X95694305Y-70115854D01*
X95694306Y-70115851D01*
X95786552Y-69943271D01*
X95791897Y-69933271D01*
X95923235Y-69773235D01*
X96083271Y-69641897D01*
X96169025Y-69596061D01*
X96265851Y-69544306D01*
X96265854Y-69544305D01*
X96463968Y-69484207D01*
X96568466Y-69473915D01*
X96618369Y-69469000D01*
X109412229Y-69469000D01*
X109424481Y-69468398D01*
X109470000Y-69463915D01*
X109515519Y-69468398D01*
G37*
G36*
X185715519Y-64708398D02*
G01*
X185771534Y-64713915D01*
X185876032Y-64724207D01*
X186074146Y-64784305D01*
X186074149Y-64784306D01*
X186170975Y-64836061D01*
X186256729Y-64881897D01*
X186416765Y-65013235D01*
X186548103Y-65173271D01*
X186553448Y-65183271D01*
X186645694Y-65355851D01*
X186645695Y-65355854D01*
X186705793Y-65553968D01*
X186705793Y-65553970D01*
X186726085Y-65760000D01*
X186721602Y-65805519D01*
X186721000Y-65817771D01*
X186721000Y-78502229D01*
X186721602Y-78514481D01*
X186726085Y-78560000D01*
X186721000Y-78611630D01*
X186705793Y-78766032D01*
X186681046Y-78847611D01*
X186645694Y-78964149D01*
X186593939Y-79060975D01*
X186548103Y-79146729D01*
X186416765Y-79306765D01*
X186256729Y-79438103D01*
X186170975Y-79483939D01*
X186074149Y-79535694D01*
X186074146Y-79535695D01*
X185876032Y-79595793D01*
X185783860Y-79604871D01*
X185715519Y-79611602D01*
X185670000Y-79616085D01*
X185624481Y-79611602D01*
X185612229Y-79611000D01*
X173029302Y-79611000D01*
X173017052Y-79611602D01*
X172870000Y-79626085D01*
X172663969Y-79605793D01*
X172465855Y-79545695D01*
X172465852Y-79545694D01*
X172369026Y-79493939D01*
X172283272Y-79448103D01*
X172123236Y-79316765D01*
X171991898Y-79156729D01*
X171946062Y-79070975D01*
X171894307Y-78974149D01*
X171894306Y-78974146D01*
X171834208Y-78776032D01*
X171819001Y-78621630D01*
X171819001Y-78617781D01*
X171818399Y-78605529D01*
X171813915Y-78560000D01*
X171818399Y-78514471D01*
X171819001Y-78502219D01*
X171819001Y-66935999D01*
X173921000Y-66935999D01*
X173921000Y-77384001D01*
X173923402Y-77408387D01*
X173930515Y-77431836D01*
X173942066Y-77453447D01*
X173957611Y-77472389D01*
X173976553Y-77487934D01*
X173998164Y-77499485D01*
X174021613Y-77506598D01*
X174045999Y-77509000D01*
X184494002Y-77509000D01*
X184518388Y-77506598D01*
X184541837Y-77499485D01*
X184563448Y-77487934D01*
X184582390Y-77472389D01*
X184597935Y-77453447D01*
X184609486Y-77431836D01*
X184616599Y-77408387D01*
X184619001Y-77384001D01*
X184619000Y-66935999D01*
X184616598Y-66911613D01*
X184609485Y-66888164D01*
X184597934Y-66866553D01*
X184582389Y-66847611D01*
X184563447Y-66832066D01*
X184541836Y-66820515D01*
X184518387Y-66813402D01*
X184494001Y-66811000D01*
X174045999Y-66811000D01*
X174021613Y-66813402D01*
X173998164Y-66820515D01*
X173976553Y-66832066D01*
X173957611Y-66847611D01*
X173942066Y-66866553D01*
X173930515Y-66888164D01*
X173923402Y-66911613D01*
X173921000Y-66935999D01*
X171819001Y-66935999D01*
X171819000Y-65817771D01*
X171818398Y-65805519D01*
X171813915Y-65760000D01*
X171834207Y-65553970D01*
X171834207Y-65553968D01*
X171894305Y-65355854D01*
X171894306Y-65355851D01*
X171986552Y-65183271D01*
X171991897Y-65173271D01*
X172123235Y-65013235D01*
X172283271Y-64881897D01*
X172369025Y-64836061D01*
X172465851Y-64784306D01*
X172465854Y-64784305D01*
X172663968Y-64724207D01*
X172768466Y-64713915D01*
X172818369Y-64709000D01*
X185612229Y-64709000D01*
X185624481Y-64708398D01*
X185670000Y-64703915D01*
X185715519Y-64708398D01*
G37*
G36*
X166665519Y-62428398D02*
G01*
X166729248Y-62434675D01*
X166826032Y-62444207D01*
X166991184Y-62494306D01*
X167024149Y-62504306D01*
X167120975Y-62556061D01*
X167206729Y-62601897D01*
X167366765Y-62733235D01*
X167498103Y-62893271D01*
X167503448Y-62903271D01*
X167595694Y-63075851D01*
X167595695Y-63075854D01*
X167655793Y-63273968D01*
X167655793Y-63273970D01*
X167676085Y-63480000D01*
X167671602Y-63525519D01*
X167671000Y-63537771D01*
X167671000Y-76222229D01*
X167671602Y-76234481D01*
X167676085Y-76280000D01*
X167655793Y-76486032D01*
X167595695Y-76684146D01*
X167595694Y-76684149D01*
X167574282Y-76724207D01*
X167498103Y-76866729D01*
X167366765Y-77026765D01*
X167206729Y-77158103D01*
X167120975Y-77203939D01*
X167024149Y-77255694D01*
X167024146Y-77255695D01*
X166826032Y-77315793D01*
X166773164Y-77321000D01*
X166733860Y-77324871D01*
X166665519Y-77331602D01*
X166620000Y-77336085D01*
X166574481Y-77331602D01*
X166562229Y-77331000D01*
X153979302Y-77331000D01*
X153967052Y-77331602D01*
X153820000Y-77346085D01*
X153613969Y-77325793D01*
X153415855Y-77265695D01*
X153415852Y-77265694D01*
X153242943Y-77173272D01*
X153233272Y-77168103D01*
X153073236Y-77036765D01*
X152941898Y-76876729D01*
X152865719Y-76734207D01*
X152844307Y-76694149D01*
X152844306Y-76694146D01*
X152784208Y-76496032D01*
X152769001Y-76341630D01*
X152769001Y-76337781D01*
X152768399Y-76325529D01*
X152763915Y-76280000D01*
X152768399Y-76234471D01*
X152769001Y-76222219D01*
X152769001Y-64655999D01*
X154871000Y-64655999D01*
X154871000Y-75104001D01*
X154873402Y-75128387D01*
X154880515Y-75151836D01*
X154892066Y-75173447D01*
X154907611Y-75192389D01*
X154926553Y-75207934D01*
X154948164Y-75219485D01*
X154971613Y-75226598D01*
X154995999Y-75229000D01*
X165444002Y-75229000D01*
X165468388Y-75226598D01*
X165491837Y-75219485D01*
X165513448Y-75207934D01*
X165532390Y-75192389D01*
X165547935Y-75173447D01*
X165559486Y-75151836D01*
X165566599Y-75128387D01*
X165569001Y-75104001D01*
X165569000Y-64655999D01*
X165566598Y-64631613D01*
X165559485Y-64608164D01*
X165547934Y-64586553D01*
X165532389Y-64567611D01*
X165513447Y-64552066D01*
X165491836Y-64540515D01*
X165468387Y-64533402D01*
X165444001Y-64531000D01*
X154995999Y-64531000D01*
X154971613Y-64533402D01*
X154948164Y-64540515D01*
X154926553Y-64552066D01*
X154907611Y-64567611D01*
X154892066Y-64586553D01*
X154880515Y-64608164D01*
X154873402Y-64631613D01*
X154871000Y-64655999D01*
X152769001Y-64655999D01*
X152769000Y-63537771D01*
X152768398Y-63525519D01*
X152763915Y-63480000D01*
X152784207Y-63273970D01*
X152784207Y-63273968D01*
X152844305Y-63075854D01*
X152844306Y-63075851D01*
X152936552Y-62903271D01*
X152941897Y-62893271D01*
X153073235Y-62733235D01*
X153233271Y-62601897D01*
X153319025Y-62556061D01*
X153415851Y-62504306D01*
X153448816Y-62494306D01*
X153613968Y-62444207D01*
X153718466Y-62433915D01*
X153768369Y-62429000D01*
X166562229Y-62429000D01*
X166574481Y-62428398D01*
X166620000Y-62423915D01*
X166665519Y-62428398D01*
G37*
G36*
X128565519Y-62418398D02*
G01*
X128621534Y-62423915D01*
X128726032Y-62434207D01*
X128924146Y-62494305D01*
X128924149Y-62494306D01*
X128961564Y-62514305D01*
X129106729Y-62591897D01*
X129266765Y-62723235D01*
X129398103Y-62883271D01*
X129408793Y-62903271D01*
X129495694Y-63065851D01*
X129495695Y-63065854D01*
X129555793Y-63263968D01*
X129555793Y-63263970D01*
X129576085Y-63470000D01*
X129571602Y-63515519D01*
X129571000Y-63527771D01*
X129571000Y-76212229D01*
X129571602Y-76224481D01*
X129576085Y-76270000D01*
X129571000Y-76321630D01*
X129555793Y-76476032D01*
X129495695Y-76674146D01*
X129495694Y-76674149D01*
X129468937Y-76724207D01*
X129398103Y-76856729D01*
X129266765Y-77016765D01*
X129106729Y-77148103D01*
X129040934Y-77183271D01*
X128924149Y-77245694D01*
X128924146Y-77245695D01*
X128726032Y-77305793D01*
X128633860Y-77314871D01*
X128565519Y-77321602D01*
X128520000Y-77326085D01*
X128474481Y-77321602D01*
X128462229Y-77321000D01*
X115879302Y-77321000D01*
X115867052Y-77321602D01*
X115720000Y-77336085D01*
X115513969Y-77315793D01*
X115315855Y-77255695D01*
X115315852Y-77255694D01*
X115219026Y-77203939D01*
X115133272Y-77158103D01*
X114973236Y-77026765D01*
X114841898Y-76866729D01*
X114765719Y-76724207D01*
X114744307Y-76684149D01*
X114744306Y-76684146D01*
X114684208Y-76486032D01*
X114669001Y-76331630D01*
X114669001Y-76327781D01*
X114668399Y-76315529D01*
X114663915Y-76270000D01*
X114668399Y-76224471D01*
X114669001Y-76212219D01*
X114669001Y-64645999D01*
X116771000Y-64645999D01*
X116771000Y-75094001D01*
X116773402Y-75118387D01*
X116780515Y-75141836D01*
X116792066Y-75163447D01*
X116807611Y-75182389D01*
X116826553Y-75197934D01*
X116848164Y-75209485D01*
X116871613Y-75216598D01*
X116895999Y-75219000D01*
X127344002Y-75219000D01*
X127368388Y-75216598D01*
X127391837Y-75209485D01*
X127413448Y-75197934D01*
X127432390Y-75182389D01*
X127447935Y-75163447D01*
X127459486Y-75141836D01*
X127466599Y-75118387D01*
X127469001Y-75094001D01*
X127469000Y-64645999D01*
X127466598Y-64621613D01*
X127459485Y-64598164D01*
X127447934Y-64576553D01*
X127432389Y-64557611D01*
X127413447Y-64542066D01*
X127391836Y-64530515D01*
X127368387Y-64523402D01*
X127344001Y-64521000D01*
X116895999Y-64521000D01*
X116871613Y-64523402D01*
X116848164Y-64530515D01*
X116826553Y-64542066D01*
X116807611Y-64557611D01*
X116792066Y-64576553D01*
X116780515Y-64598164D01*
X116773402Y-64621613D01*
X116771000Y-64645999D01*
X114669001Y-64645999D01*
X114669000Y-63527771D01*
X114668398Y-63515519D01*
X114663915Y-63470000D01*
X114684207Y-63263970D01*
X114684207Y-63263968D01*
X114744305Y-63065854D01*
X114744306Y-63065851D01*
X114831207Y-62903271D01*
X114841897Y-62883271D01*
X114973235Y-62723235D01*
X115133271Y-62591897D01*
X115278436Y-62514305D01*
X115315851Y-62494306D01*
X115315854Y-62494305D01*
X115513968Y-62434207D01*
X115618466Y-62423915D01*
X115668369Y-62419000D01*
X128462229Y-62419000D01*
X128474481Y-62418398D01*
X128520000Y-62413915D01*
X128565519Y-62418398D01*
G37*
G36*
X147615519Y-57658398D02*
G01*
X147671534Y-57663915D01*
X147776032Y-57674207D01*
X147974146Y-57734305D01*
X147974149Y-57734306D01*
X148070975Y-57786061D01*
X148156729Y-57831897D01*
X148316765Y-57963235D01*
X148448103Y-58123271D01*
X148453448Y-58133271D01*
X148545694Y-58305851D01*
X148545695Y-58305854D01*
X148605793Y-58503968D01*
X148605793Y-58503970D01*
X148626085Y-58710000D01*
X148621602Y-58755519D01*
X148621000Y-58767771D01*
X148621000Y-71452229D01*
X148621602Y-71464481D01*
X148626085Y-71510000D01*
X148621000Y-71561630D01*
X148605793Y-71716032D01*
X148602760Y-71726030D01*
X148545694Y-71914149D01*
X148518937Y-71964207D01*
X148448103Y-72096729D01*
X148316765Y-72256765D01*
X148156729Y-72388103D01*
X148090934Y-72423271D01*
X147974149Y-72485694D01*
X147974146Y-72485695D01*
X147776032Y-72545793D01*
X147683860Y-72554871D01*
X147615519Y-72561602D01*
X147570000Y-72566085D01*
X147524481Y-72561602D01*
X147512229Y-72561000D01*
X134929302Y-72561000D01*
X134917052Y-72561602D01*
X134770000Y-72576085D01*
X134563969Y-72555793D01*
X134365855Y-72495695D01*
X134365852Y-72495694D01*
X134269026Y-72443939D01*
X134183272Y-72398103D01*
X134023236Y-72266765D01*
X133891898Y-72106729D01*
X133815719Y-71964207D01*
X133794307Y-71924149D01*
X133794306Y-71924146D01*
X133734208Y-71726032D01*
X133719876Y-71580515D01*
X133719001Y-71571631D01*
X133719001Y-71567781D01*
X133718399Y-71555529D01*
X133713915Y-71510000D01*
X133718399Y-71464471D01*
X133719001Y-71452219D01*
X133719001Y-59885999D01*
X135821000Y-59885999D01*
X135821000Y-70334001D01*
X135823402Y-70358387D01*
X135830515Y-70381836D01*
X135842066Y-70403447D01*
X135857611Y-70422389D01*
X135876553Y-70437934D01*
X135898164Y-70449485D01*
X135921613Y-70456598D01*
X135945999Y-70459000D01*
X146394002Y-70459000D01*
X146418388Y-70456598D01*
X146441837Y-70449485D01*
X146463448Y-70437934D01*
X146482390Y-70422389D01*
X146497935Y-70403447D01*
X146509486Y-70381836D01*
X146516599Y-70358387D01*
X146519001Y-70334001D01*
X146519000Y-59885999D01*
X146516598Y-59861613D01*
X146509485Y-59838164D01*
X146497934Y-59816553D01*
X146482389Y-59797611D01*
X146463447Y-59782066D01*
X146441836Y-59770515D01*
X146418387Y-59763402D01*
X146394001Y-59761000D01*
X135945999Y-59761000D01*
X135921613Y-59763402D01*
X135898164Y-59770515D01*
X135876553Y-59782066D01*
X135857611Y-59797611D01*
X135842066Y-59816553D01*
X135830515Y-59838164D01*
X135823402Y-59861613D01*
X135821000Y-59885999D01*
X133719001Y-59885999D01*
X133719000Y-58767771D01*
X133718398Y-58755519D01*
X133713915Y-58710000D01*
X133734207Y-58503970D01*
X133734207Y-58503968D01*
X133794305Y-58305854D01*
X133794306Y-58305851D01*
X133886552Y-58133271D01*
X133891897Y-58123271D01*
X134023235Y-57963235D01*
X134183271Y-57831897D01*
X134269025Y-57786061D01*
X134365851Y-57734306D01*
X134365854Y-57734305D01*
X134563968Y-57674207D01*
X134668466Y-57663915D01*
X134718369Y-57659000D01*
X147512229Y-57659000D01*
X147524481Y-57658398D01*
X147570000Y-57653915D01*
X147615519Y-57658398D01*
G37*
G36*
X90465519Y-52898398D02*
G01*
X90521534Y-52903915D01*
X90626032Y-52914207D01*
X90824146Y-52974305D01*
X90824149Y-52974306D01*
X90920975Y-53026061D01*
X91006729Y-53071897D01*
X91166765Y-53203235D01*
X91298103Y-53363271D01*
X91303448Y-53373271D01*
X91395694Y-53545851D01*
X91395695Y-53545854D01*
X91455793Y-53743968D01*
X91455793Y-53743970D01*
X91476085Y-53950000D01*
X91471602Y-53995519D01*
X91471000Y-54007771D01*
X91471000Y-66692229D01*
X91471602Y-66704481D01*
X91476085Y-66750000D01*
X91471000Y-66801630D01*
X91455793Y-66956032D01*
X91452760Y-66966030D01*
X91395694Y-67154149D01*
X91343939Y-67250975D01*
X91298103Y-67336729D01*
X91166765Y-67496765D01*
X91006729Y-67628103D01*
X90920975Y-67673939D01*
X90824149Y-67725694D01*
X90824146Y-67725695D01*
X90626032Y-67785793D01*
X90533860Y-67794871D01*
X90465519Y-67801602D01*
X90420000Y-67806085D01*
X90374481Y-67801602D01*
X90362229Y-67801000D01*
X77779302Y-67801000D01*
X77767052Y-67801602D01*
X77620000Y-67816085D01*
X77413969Y-67795793D01*
X77215855Y-67735695D01*
X77215852Y-67735694D01*
X77119026Y-67683939D01*
X77033272Y-67638103D01*
X76873236Y-67506765D01*
X76741898Y-67346729D01*
X76696062Y-67260975D01*
X76644307Y-67164149D01*
X76644306Y-67164146D01*
X76584208Y-66966032D01*
X76569876Y-66820515D01*
X76569001Y-66811631D01*
X76569001Y-66807781D01*
X76568399Y-66795529D01*
X76563915Y-66750000D01*
X76568399Y-66704471D01*
X76569001Y-66692219D01*
X76569001Y-55125999D01*
X78671000Y-55125999D01*
X78671000Y-65574001D01*
X78673402Y-65598387D01*
X78680515Y-65621836D01*
X78692066Y-65643447D01*
X78707611Y-65662389D01*
X78726553Y-65677934D01*
X78748164Y-65689485D01*
X78771613Y-65696598D01*
X78795999Y-65699000D01*
X89244002Y-65699000D01*
X89268388Y-65696598D01*
X89291837Y-65689485D01*
X89313448Y-65677934D01*
X89332390Y-65662389D01*
X89347935Y-65643447D01*
X89359486Y-65621836D01*
X89366599Y-65598387D01*
X89369001Y-65574001D01*
X89369000Y-55125999D01*
X89366598Y-55101613D01*
X89359485Y-55078164D01*
X89347934Y-55056553D01*
X89332389Y-55037611D01*
X89313447Y-55022066D01*
X89291836Y-55010515D01*
X89268387Y-55003402D01*
X89244001Y-55001000D01*
X78795999Y-55001000D01*
X78771613Y-55003402D01*
X78748164Y-55010515D01*
X78726553Y-55022066D01*
X78707611Y-55037611D01*
X78692066Y-55056553D01*
X78680515Y-55078164D01*
X78673402Y-55101613D01*
X78671000Y-55125999D01*
X76569001Y-55125999D01*
X76569000Y-54007771D01*
X76568398Y-53995519D01*
X76563915Y-53950000D01*
X76584207Y-53743970D01*
X76584207Y-53743968D01*
X76644305Y-53545854D01*
X76644306Y-53545851D01*
X76736552Y-53373271D01*
X76741897Y-53363271D01*
X76873235Y-53203235D01*
X77033271Y-53071897D01*
X77119025Y-53026061D01*
X77215851Y-52974306D01*
X77215854Y-52974305D01*
X77413968Y-52914207D01*
X77518466Y-52903915D01*
X77568369Y-52899000D01*
X90362229Y-52899000D01*
X90374481Y-52898398D01*
X90420000Y-52893915D01*
X90465519Y-52898398D01*
G37*
G36*
X109515519Y-50418398D02*
G01*
X109571534Y-50423915D01*
X109676032Y-50434207D01*
X109874146Y-50494305D01*
X109874149Y-50494306D01*
X109970975Y-50546061D01*
X110056729Y-50591897D01*
X110216765Y-50723235D01*
X110348103Y-50883271D01*
X110353448Y-50893271D01*
X110445694Y-51065851D01*
X110445695Y-51065854D01*
X110505793Y-51263968D01*
X110505793Y-51263970D01*
X110526085Y-51470000D01*
X110521602Y-51515519D01*
X110521000Y-51527771D01*
X110521000Y-64212229D01*
X110521602Y-64224481D01*
X110526085Y-64270000D01*
X110521000Y-64321630D01*
X110505793Y-64476032D01*
X110461631Y-64621613D01*
X110445694Y-64674149D01*
X110418937Y-64724207D01*
X110348103Y-64856729D01*
X110216765Y-65016765D01*
X110056729Y-65148103D01*
X109990934Y-65183271D01*
X109874149Y-65245694D01*
X109874146Y-65245695D01*
X109676032Y-65305793D01*
X109583860Y-65314871D01*
X109515519Y-65321602D01*
X109470000Y-65326085D01*
X109424481Y-65321602D01*
X109412229Y-65321000D01*
X96829302Y-65321000D01*
X96817052Y-65321602D01*
X96670000Y-65336085D01*
X96463969Y-65315793D01*
X96265855Y-65255695D01*
X96265852Y-65255694D01*
X96169026Y-65203939D01*
X96083272Y-65158103D01*
X95923236Y-65026765D01*
X95791898Y-64866729D01*
X95715719Y-64724207D01*
X95694307Y-64684149D01*
X95694306Y-64684146D01*
X95634208Y-64486032D01*
X95619001Y-64331630D01*
X95619001Y-64327781D01*
X95618399Y-64315529D01*
X95613915Y-64270000D01*
X95618399Y-64224471D01*
X95619001Y-64212219D01*
X95619001Y-52645999D01*
X97721000Y-52645999D01*
X97721000Y-63094001D01*
X97723402Y-63118387D01*
X97730515Y-63141836D01*
X97742066Y-63163447D01*
X97757611Y-63182389D01*
X97776553Y-63197934D01*
X97798164Y-63209485D01*
X97821613Y-63216598D01*
X97845999Y-63219000D01*
X108294002Y-63219000D01*
X108318388Y-63216598D01*
X108341837Y-63209485D01*
X108363448Y-63197934D01*
X108382390Y-63182389D01*
X108397935Y-63163447D01*
X108409486Y-63141836D01*
X108416599Y-63118387D01*
X108419001Y-63094001D01*
X108419000Y-52645999D01*
X108416598Y-52621613D01*
X108409485Y-52598164D01*
X108397934Y-52576553D01*
X108382389Y-52557611D01*
X108363447Y-52542066D01*
X108341836Y-52530515D01*
X108318387Y-52523402D01*
X108294001Y-52521000D01*
X97845999Y-52521000D01*
X97821613Y-52523402D01*
X97798164Y-52530515D01*
X97776553Y-52542066D01*
X97757611Y-52557611D01*
X97742066Y-52576553D01*
X97730515Y-52598164D01*
X97723402Y-52621613D01*
X97721000Y-52645999D01*
X95619001Y-52645999D01*
X95619000Y-51527771D01*
X95618398Y-51515519D01*
X95613915Y-51470000D01*
X95634207Y-51263970D01*
X95634207Y-51263968D01*
X95694305Y-51065854D01*
X95694306Y-51065851D01*
X95786552Y-50893271D01*
X95791897Y-50883271D01*
X95923235Y-50723235D01*
X96083271Y-50591897D01*
X96169025Y-50546061D01*
X96265851Y-50494306D01*
X96265854Y-50494305D01*
X96463968Y-50434207D01*
X96568466Y-50423915D01*
X96618369Y-50419000D01*
X109412229Y-50419000D01*
X109424481Y-50418398D01*
X109470000Y-50413915D01*
X109515519Y-50418398D01*
G37*
G36*
X185715519Y-45658398D02*
G01*
X185771534Y-45663915D01*
X185876032Y-45674207D01*
X186074146Y-45734305D01*
X186074149Y-45734306D01*
X186170975Y-45786061D01*
X186256729Y-45831897D01*
X186416765Y-45963235D01*
X186548103Y-46123271D01*
X186553448Y-46133271D01*
X186645694Y-46305851D01*
X186645695Y-46305854D01*
X186705793Y-46503968D01*
X186705793Y-46503970D01*
X186726085Y-46710000D01*
X186721602Y-46755519D01*
X186721000Y-46767771D01*
X186721000Y-59452229D01*
X186721602Y-59464481D01*
X186726085Y-59510000D01*
X186721000Y-59561630D01*
X186705793Y-59716032D01*
X186681046Y-59797611D01*
X186645694Y-59914149D01*
X186593939Y-60010975D01*
X186548103Y-60096729D01*
X186416765Y-60256765D01*
X186256729Y-60388103D01*
X186170975Y-60433939D01*
X186074149Y-60485694D01*
X186074146Y-60485695D01*
X185876032Y-60545793D01*
X185783860Y-60554871D01*
X185715519Y-60561602D01*
X185670000Y-60566085D01*
X185624481Y-60561602D01*
X185612229Y-60561000D01*
X173029302Y-60561000D01*
X173017052Y-60561602D01*
X172870000Y-60576085D01*
X172663969Y-60555793D01*
X172465855Y-60495695D01*
X172465852Y-60495694D01*
X172369026Y-60443939D01*
X172283272Y-60398103D01*
X172123236Y-60266765D01*
X171991898Y-60106729D01*
X171946062Y-60020975D01*
X171894307Y-59924149D01*
X171894306Y-59924146D01*
X171834208Y-59726032D01*
X171819001Y-59571630D01*
X171819001Y-59567781D01*
X171818399Y-59555529D01*
X171813915Y-59510000D01*
X171818399Y-59464471D01*
X171819001Y-59452219D01*
X171819001Y-47885999D01*
X173921000Y-47885999D01*
X173921000Y-58334001D01*
X173923402Y-58358387D01*
X173930515Y-58381836D01*
X173942066Y-58403447D01*
X173957611Y-58422389D01*
X173976553Y-58437934D01*
X173998164Y-58449485D01*
X174021613Y-58456598D01*
X174045999Y-58459000D01*
X184494002Y-58459000D01*
X184518388Y-58456598D01*
X184541837Y-58449485D01*
X184563448Y-58437934D01*
X184582390Y-58422389D01*
X184597935Y-58403447D01*
X184609486Y-58381836D01*
X184616599Y-58358387D01*
X184619001Y-58334001D01*
X184619000Y-47885999D01*
X184616598Y-47861613D01*
X184609485Y-47838164D01*
X184597934Y-47816553D01*
X184582389Y-47797611D01*
X184563447Y-47782066D01*
X184541836Y-47770515D01*
X184518387Y-47763402D01*
X184494001Y-47761000D01*
X174045999Y-47761000D01*
X174021613Y-47763402D01*
X173998164Y-47770515D01*
X173976553Y-47782066D01*
X173957611Y-47797611D01*
X173942066Y-47816553D01*
X173930515Y-47838164D01*
X173923402Y-47861613D01*
X173921000Y-47885999D01*
X171819001Y-47885999D01*
X171819000Y-46767771D01*
X171818398Y-46755519D01*
X171813915Y-46710000D01*
X171834207Y-46503970D01*
X171834207Y-46503968D01*
X171894305Y-46305854D01*
X171894306Y-46305851D01*
X171986552Y-46133271D01*
X171991897Y-46123271D01*
X172123235Y-45963235D01*
X172283271Y-45831897D01*
X172369025Y-45786061D01*
X172465851Y-45734306D01*
X172465854Y-45734305D01*
X172663968Y-45674207D01*
X172768466Y-45663915D01*
X172818369Y-45659000D01*
X185612229Y-45659000D01*
X185624481Y-45658398D01*
X185670000Y-45653915D01*
X185715519Y-45658398D01*
G37*
G36*
X166665519Y-43378398D02*
G01*
X166729248Y-43384675D01*
X166826032Y-43394207D01*
X166991184Y-43444306D01*
X167024149Y-43454306D01*
X167120975Y-43506061D01*
X167206729Y-43551897D01*
X167366765Y-43683235D01*
X167498103Y-43843271D01*
X167503448Y-43853271D01*
X167595694Y-44025851D01*
X167595695Y-44025854D01*
X167655793Y-44223968D01*
X167655793Y-44223970D01*
X167676085Y-44430000D01*
X167671602Y-44475519D01*
X167671000Y-44487771D01*
X167671000Y-57172229D01*
X167671602Y-57184481D01*
X167676085Y-57230000D01*
X167655793Y-57436032D01*
X167595695Y-57634146D01*
X167595694Y-57634149D01*
X167574282Y-57674207D01*
X167498103Y-57816729D01*
X167366765Y-57976765D01*
X167206729Y-58108103D01*
X167120975Y-58153939D01*
X167024149Y-58205694D01*
X167024146Y-58205695D01*
X166826032Y-58265793D01*
X166773164Y-58271000D01*
X166733860Y-58274871D01*
X166665519Y-58281602D01*
X166620000Y-58286085D01*
X166574481Y-58281602D01*
X166562229Y-58281000D01*
X153979302Y-58281000D01*
X153967052Y-58281602D01*
X153820000Y-58296085D01*
X153613969Y-58275793D01*
X153415855Y-58215695D01*
X153415852Y-58215694D01*
X153242943Y-58123272D01*
X153233272Y-58118103D01*
X153073236Y-57986765D01*
X152941898Y-57826729D01*
X152865719Y-57684207D01*
X152844307Y-57644149D01*
X152844306Y-57644146D01*
X152784208Y-57446032D01*
X152769001Y-57291630D01*
X152769001Y-57287781D01*
X152768399Y-57275529D01*
X152763915Y-57230000D01*
X152768399Y-57184471D01*
X152769001Y-57172219D01*
X152769001Y-45605999D01*
X154871000Y-45605999D01*
X154871000Y-56054001D01*
X154873402Y-56078387D01*
X154880515Y-56101836D01*
X154892066Y-56123447D01*
X154907611Y-56142389D01*
X154926553Y-56157934D01*
X154948164Y-56169485D01*
X154971613Y-56176598D01*
X154995999Y-56179000D01*
X165444002Y-56179000D01*
X165468388Y-56176598D01*
X165491837Y-56169485D01*
X165513448Y-56157934D01*
X165532390Y-56142389D01*
X165547935Y-56123447D01*
X165559486Y-56101836D01*
X165566599Y-56078387D01*
X165569001Y-56054001D01*
X165569000Y-45605999D01*
X165566598Y-45581613D01*
X165559485Y-45558164D01*
X165547934Y-45536553D01*
X165532389Y-45517611D01*
X165513447Y-45502066D01*
X165491836Y-45490515D01*
X165468387Y-45483402D01*
X165444001Y-45481000D01*
X154995999Y-45481000D01*
X154971613Y-45483402D01*
X154948164Y-45490515D01*
X154926553Y-45502066D01*
X154907611Y-45517611D01*
X154892066Y-45536553D01*
X154880515Y-45558164D01*
X154873402Y-45581613D01*
X154871000Y-45605999D01*
X152769001Y-45605999D01*
X152769000Y-44487771D01*
X152768398Y-44475519D01*
X152763915Y-44430000D01*
X152784207Y-44223970D01*
X152784207Y-44223968D01*
X152844305Y-44025854D01*
X152844306Y-44025851D01*
X152936552Y-43853271D01*
X152941897Y-43843271D01*
X153073235Y-43683235D01*
X153233271Y-43551897D01*
X153319025Y-43506061D01*
X153415851Y-43454306D01*
X153448816Y-43444306D01*
X153613968Y-43394207D01*
X153718466Y-43383915D01*
X153768369Y-43379000D01*
X166562229Y-43379000D01*
X166574481Y-43378398D01*
X166620000Y-43373915D01*
X166665519Y-43378398D01*
G37*
G36*
X128565519Y-43368398D02*
G01*
X128621534Y-43373915D01*
X128726032Y-43384207D01*
X128924146Y-43444305D01*
X128924149Y-43444306D01*
X128961564Y-43464305D01*
X129106729Y-43541897D01*
X129266765Y-43673235D01*
X129398103Y-43833271D01*
X129408793Y-43853271D01*
X129495694Y-44015851D01*
X129495695Y-44015854D01*
X129555793Y-44213968D01*
X129555793Y-44213970D01*
X129576085Y-44420000D01*
X129571602Y-44465519D01*
X129571000Y-44477771D01*
X129571000Y-57162229D01*
X129571602Y-57174481D01*
X129576085Y-57220000D01*
X129571000Y-57271630D01*
X129555793Y-57426032D01*
X129495695Y-57624146D01*
X129495694Y-57624149D01*
X129468937Y-57674207D01*
X129398103Y-57806729D01*
X129266765Y-57966765D01*
X129106729Y-58098103D01*
X129040934Y-58133271D01*
X128924149Y-58195694D01*
X128924146Y-58195695D01*
X128726032Y-58255793D01*
X128633860Y-58264871D01*
X128565519Y-58271602D01*
X128520000Y-58276085D01*
X128474481Y-58271602D01*
X128462229Y-58271000D01*
X115879302Y-58271000D01*
X115867052Y-58271602D01*
X115720000Y-58286085D01*
X115513969Y-58265793D01*
X115315855Y-58205695D01*
X115315852Y-58205694D01*
X115219026Y-58153939D01*
X115133272Y-58108103D01*
X114973236Y-57976765D01*
X114841898Y-57816729D01*
X114765719Y-57674207D01*
X114744307Y-57634149D01*
X114744306Y-57634146D01*
X114684208Y-57436032D01*
X114669001Y-57281630D01*
X114669001Y-57277781D01*
X114668399Y-57265529D01*
X114663915Y-57220000D01*
X114668399Y-57174471D01*
X114669001Y-57162219D01*
X114669001Y-45595999D01*
X116771000Y-45595999D01*
X116771000Y-56044001D01*
X116773402Y-56068387D01*
X116780515Y-56091836D01*
X116792066Y-56113447D01*
X116807611Y-56132389D01*
X116826553Y-56147934D01*
X116848164Y-56159485D01*
X116871613Y-56166598D01*
X116895999Y-56169000D01*
X127344002Y-56169000D01*
X127368388Y-56166598D01*
X127391837Y-56159485D01*
X127413448Y-56147934D01*
X127432390Y-56132389D01*
X127447935Y-56113447D01*
X127459486Y-56091836D01*
X127466599Y-56068387D01*
X127469001Y-56044001D01*
X127469000Y-45595999D01*
X127466598Y-45571613D01*
X127459485Y-45548164D01*
X127447934Y-45526553D01*
X127432389Y-45507611D01*
X127413447Y-45492066D01*
X127391836Y-45480515D01*
X127368387Y-45473402D01*
X127344001Y-45471000D01*
X116895999Y-45471000D01*
X116871613Y-45473402D01*
X116848164Y-45480515D01*
X116826553Y-45492066D01*
X116807611Y-45507611D01*
X116792066Y-45526553D01*
X116780515Y-45548164D01*
X116773402Y-45571613D01*
X116771000Y-45595999D01*
X114669001Y-45595999D01*
X114669000Y-44477771D01*
X114668398Y-44465519D01*
X114663915Y-44420000D01*
X114684207Y-44213970D01*
X114684207Y-44213968D01*
X114744305Y-44015854D01*
X114744306Y-44015851D01*
X114831207Y-43853271D01*
X114841897Y-43833271D01*
X114973235Y-43673235D01*
X115133271Y-43541897D01*
X115278436Y-43464305D01*
X115315851Y-43444306D01*
X115315854Y-43444305D01*
X115513968Y-43384207D01*
X115618466Y-43373915D01*
X115668369Y-43369000D01*
X128462229Y-43369000D01*
X128474481Y-43368398D01*
X128520000Y-43363915D01*
X128565519Y-43368398D01*
G37*
G36*
X147615519Y-38608398D02*
G01*
X147671534Y-38613915D01*
X147776032Y-38624207D01*
X147974146Y-38684305D01*
X147974149Y-38684306D01*
X148070975Y-38736061D01*
X148156729Y-38781897D01*
X148316765Y-38913235D01*
X148448103Y-39073271D01*
X148453448Y-39083271D01*
X148545694Y-39255851D01*
X148545695Y-39255854D01*
X148605793Y-39453968D01*
X148605793Y-39453970D01*
X148626085Y-39660000D01*
X148621602Y-39705519D01*
X148621000Y-39717771D01*
X148621000Y-52402229D01*
X148621602Y-52414481D01*
X148626085Y-52460000D01*
X148621000Y-52511630D01*
X148605793Y-52666032D01*
X148602760Y-52676030D01*
X148545694Y-52864149D01*
X148518937Y-52914207D01*
X148448103Y-53046729D01*
X148316765Y-53206765D01*
X148156729Y-53338103D01*
X148090934Y-53373271D01*
X147974149Y-53435694D01*
X147974146Y-53435695D01*
X147776032Y-53495793D01*
X147683860Y-53504871D01*
X147615519Y-53511602D01*
X147570000Y-53516085D01*
X147524481Y-53511602D01*
X147512229Y-53511000D01*
X134929302Y-53511000D01*
X134917052Y-53511602D01*
X134770000Y-53526085D01*
X134563969Y-53505793D01*
X134365855Y-53445695D01*
X134365852Y-53445694D01*
X134269026Y-53393939D01*
X134183272Y-53348103D01*
X134023236Y-53216765D01*
X133891898Y-53056729D01*
X133815719Y-52914207D01*
X133794307Y-52874149D01*
X133794306Y-52874146D01*
X133734208Y-52676032D01*
X133719876Y-52530515D01*
X133719001Y-52521631D01*
X133719001Y-52517781D01*
X133718399Y-52505529D01*
X133713915Y-52460000D01*
X133718399Y-52414471D01*
X133719001Y-52402219D01*
X133719001Y-40835999D01*
X135821000Y-40835999D01*
X135821000Y-51284001D01*
X135823402Y-51308387D01*
X135830515Y-51331836D01*
X135842066Y-51353447D01*
X135857611Y-51372389D01*
X135876553Y-51387934D01*
X135898164Y-51399485D01*
X135921613Y-51406598D01*
X135945999Y-51409000D01*
X146394002Y-51409000D01*
X146418388Y-51406598D01*
X146441837Y-51399485D01*
X146463448Y-51387934D01*
X146482390Y-51372389D01*
X146497935Y-51353447D01*
X146509486Y-51331836D01*
X146516599Y-51308387D01*
X146519001Y-51284001D01*
X146519000Y-40835999D01*
X146516598Y-40811613D01*
X146509485Y-40788164D01*
X146497934Y-40766553D01*
X146482389Y-40747611D01*
X146463447Y-40732066D01*
X146441836Y-40720515D01*
X146418387Y-40713402D01*
X146394001Y-40711000D01*
X135945999Y-40711000D01*
X135921613Y-40713402D01*
X135898164Y-40720515D01*
X135876553Y-40732066D01*
X135857611Y-40747611D01*
X135842066Y-40766553D01*
X135830515Y-40788164D01*
X135823402Y-40811613D01*
X135821000Y-40835999D01*
X133719001Y-40835999D01*
X133719000Y-39717771D01*
X133718398Y-39705519D01*
X133713915Y-39660000D01*
X133734207Y-39453970D01*
X133734207Y-39453968D01*
X133794305Y-39255854D01*
X133794306Y-39255851D01*
X133886552Y-39083271D01*
X133891897Y-39073271D01*
X134023235Y-38913235D01*
X134183271Y-38781897D01*
X134269025Y-38736061D01*
X134365851Y-38684306D01*
X134365854Y-38684305D01*
X134563968Y-38624207D01*
X134668466Y-38613915D01*
X134718369Y-38609000D01*
X147512229Y-38609000D01*
X147524481Y-38608398D01*
X147570000Y-38603915D01*
X147615519Y-38608398D01*
G37*
M02*
