G04 #@! TF.GenerationSoftware,KiCad,Pcbnew,(5.1.2)-2*
G04 #@! TF.CreationDate,2020-03-06T16:41:25+08:00*
G04 #@! TF.ProjectId,plate,706c6174-652e-46b6-9963-61645f706362,rev?*
G04 #@! TF.SameCoordinates,Original*
G04 #@! TF.FileFunction,Soldermask,Top*
G04 #@! TF.FilePolarity,Negative*
%FSLAX46Y46*%
G04 Gerber Fmt 4.6, Leading zero omitted, Abs format (unit mm)*
G04 Created by KiCad (PCBNEW (5.1.2)-2) date 2020-03-06 16:41:25*
%MOMM*%
%LPD*%
G04 APERTURE LIST*
%ADD10C,0.100000*%
G04 APERTURE END LIST*
D10*
G36*
X93078254Y-97147818D02*
G01*
X93451511Y-97302426D01*
X93451513Y-97302427D01*
X93787436Y-97526884D01*
X94073116Y-97812564D01*
X94297574Y-98148489D01*
X94452182Y-98521746D01*
X94531000Y-98917993D01*
X94531000Y-99322007D01*
X94452182Y-99718254D01*
X94297574Y-100091511D01*
X94297573Y-100091513D01*
X94073116Y-100427436D01*
X93787436Y-100713116D01*
X93451513Y-100937573D01*
X93451512Y-100937574D01*
X93451511Y-100937574D01*
X93078254Y-101092182D01*
X92682007Y-101171000D01*
X92277993Y-101171000D01*
X91881746Y-101092182D01*
X91508489Y-100937574D01*
X91508488Y-100937574D01*
X91508487Y-100937573D01*
X91172564Y-100713116D01*
X90886884Y-100427436D01*
X90662427Y-100091513D01*
X90662426Y-100091511D01*
X90507818Y-99718254D01*
X90429000Y-99322007D01*
X90429000Y-98917993D01*
X90507818Y-98521746D01*
X90662426Y-98148489D01*
X90886884Y-97812564D01*
X91172564Y-97526884D01*
X91508487Y-97302427D01*
X91508489Y-97302426D01*
X91881746Y-97147818D01*
X92277993Y-97069000D01*
X92682007Y-97069000D01*
X93078254Y-97147818D01*
X93078254Y-97147818D01*
G37*
M02*
