M48
; DRILL file {KiCad (5.1.5)-3} date 09/03/2020 02:33:31
; FORMAT={-:-/ absolute / inch / decimal}
; #@! TF.CreationDate,2020-03-09T02:33:31+08:00
; #@! TF.GenerationSoftware,Kicad,Pcbnew,(5.1.5)-3
; #@! TF.FileFunction,Plated,1,2,PTH
FMAT,2
INCH
T1C0.0472
%
G90
G05
T1
G00X5.298Y-2.0732
M15
G01X5.298Y-1.5535
M16
G05
G00X5.298Y-1.5535
M15
G01X5.8177Y-1.5535
M16
G05
G00X5.8177Y-2.0732
M15
G01X5.298Y-2.0732
M16
G05
G00X5.8177Y-1.5535
M15
G01X5.8177Y-2.0732
M16
G05
G00X3.798Y-4.7882
M15
G01X3.798Y-4.2685
M16
G05
G00X3.798Y-4.2685
M15
G01X4.3177Y-4.2685
M16
G05
G00X4.3177Y-4.7882
M15
G01X3.798Y-4.7882
M16
G05
G00X4.3177Y-4.2685
M15
G01X4.3177Y-4.7882
M16
G05
G00X4.548Y-3.0106
M15
G01X4.548Y-2.4909
M16
G05
G00X4.548Y-2.4909
M15
G01X5.0677Y-2.4909
M16
G05
G00X5.0677Y-3.0106
M15
G01X4.548Y-3.0106
M16
G05
G00X5.0677Y-2.4909
M15
G01X5.0677Y-3.0106
M16
G05
G00X6.798Y-3.8508
M15
G01X6.798Y-3.3311
M16
G05
G00X6.798Y-3.3311
M15
G01X7.3177Y-3.3311
M16
G05
G00X7.3177Y-3.8508
M15
G01X6.798Y-3.8508
M16
G05
G00X7.3177Y-3.3311
M15
G01X7.3177Y-3.8508
M16
G05
G00X6.798Y-2.3508
M15
G01X6.798Y-1.8311
M16
G05
G00X6.798Y-1.8311
M15
G01X7.3177Y-1.8311
M16
G05
G00X7.3177Y-2.3508
M15
G01X6.798Y-2.3508
M16
G05
G00X7.3177Y-1.8311
M15
G01X7.3177Y-2.3508
M16
G05
G00X4.548Y-3.7606
M15
G01X4.548Y-3.2409
M16
G05
G00X4.548Y-3.2409
M15
G01X5.0677Y-3.2409
M16
G05
G00X5.0677Y-3.7606
M15
G01X4.548Y-3.7606
M16
G05
G00X5.0677Y-3.2409
M15
G01X5.0677Y-3.7606
M16
G05
G00X5.298Y-2.8232
M15
G01X5.298Y-2.3035
M16
G05
G00X5.298Y-2.3035
M15
G01X5.8177Y-2.3035
M16
G05
G00X5.8177Y-2.8232
M15
G01X5.298Y-2.8232
M16
G05
G00X5.8177Y-2.3035
M15
G01X5.8177Y-2.8232
M16
G05
G00X6.048Y-2.261
M15
G01X6.048Y-1.7413
M16
G05
G00X6.048Y-1.7413
M15
G01X6.5677Y-1.7413
M16
G05
G00X6.5677Y-2.261
M15
G01X6.048Y-2.261
M16
G05
G00X6.5677Y-1.7413
M15
G01X6.5677Y-2.261
M16
G05
G00X3.798Y-3.2882
M15
G01X3.798Y-2.7685
M16
G05
G00X3.798Y-2.7685
M15
G01X4.3177Y-2.7685
M16
G05
G00X4.3177Y-3.2882
M15
G01X3.798Y-3.2882
M16
G05
G00X4.3177Y-2.7685
M15
G01X4.3177Y-3.2882
M16
G05
G00X3.798Y-4.0382
M15
G01X3.798Y-3.5185
M16
G05
G00X3.798Y-3.5185
M15
G01X4.3177Y-3.5185
M16
G05
G00X4.3177Y-4.0382
M15
G01X3.798Y-4.0382
M16
G05
G00X4.3177Y-3.5185
M15
G01X4.3177Y-4.0382
M16
G05
G00X6.048Y-4.511
M15
G01X6.048Y-3.9913
M16
G05
G00X6.048Y-3.9913
M15
G01X6.5677Y-3.9913
M16
G05
G00X6.5677Y-4.511
M15
G01X6.048Y-4.511
M16
G05
G00X6.5677Y-3.9913
M15
G01X6.5677Y-4.511
M16
G05
G00X6.048Y-3.761
M15
G01X6.048Y-3.2413
M16
G05
G00X6.048Y-3.2413
M15
G01X6.5677Y-3.2413
M16
G05
G00X6.5677Y-3.761
M15
G01X6.048Y-3.761
M16
G05
G00X6.5677Y-3.2413
M15
G01X6.5677Y-3.761
M16
G05
G00X3.048Y-3.3858
M15
G01X3.048Y-2.8661
M16
G05
G00X3.048Y-2.8661
M15
G01X3.5677Y-2.8661
M16
G05
G00X3.5677Y-3.3858
M15
G01X3.048Y-3.3858
M16
G05
G00X3.5677Y-2.8661
M15
G01X3.5677Y-3.3858
M16
G05
G00X4.548Y-4.5106
M15
G01X4.548Y-3.9909
M16
G05
G00X4.548Y-3.9909
M15
G01X5.0677Y-3.9909
M16
G05
G00X5.0677Y-4.5106
M15
G01X4.548Y-4.5106
M16
G05
G00X5.0677Y-3.9909
M15
G01X5.0677Y-4.5106
M16
G05
G00X6.798Y-3.1008
M15
G01X6.798Y-2.5811
M16
G05
G00X6.798Y-2.5811
M15
G01X7.3177Y-2.5811
M16
G05
G00X7.3177Y-3.1008
M15
G01X6.798Y-3.1008
M16
G05
G00X7.3177Y-2.5811
M15
G01X7.3177Y-3.1008
M16
G05
G00X2.298Y-3.948
M15
G01X2.298Y-3.4283
M16
G05
G00X2.298Y-3.4283
M15
G01X2.8177Y-3.4283
M16
G05
G00X2.8177Y-3.948
M15
G01X2.298Y-3.948
M16
G05
G00X2.8177Y-3.4283
M15
G01X2.8177Y-3.948
M16
G05
G00X6.798Y-4.6008
M15
G01X6.798Y-4.0811
M16
G05
G00X6.798Y-4.0811
M15
G01X7.3177Y-4.0811
M16
G05
G00X7.3177Y-4.6008
M15
G01X6.798Y-4.6008
M16
G05
G00X7.3177Y-4.0811
M15
G01X7.3177Y-4.6008
M16
G05
G00X4.548Y-2.2606
M15
G01X4.548Y-1.7409
M16
G05
G00X4.548Y-1.7409
M15
G01X5.0677Y-1.7409
M16
G05
G00X5.0677Y-2.2606
M15
G01X4.548Y-2.2606
M16
G05
G00X5.0677Y-1.7409
M15
G01X5.0677Y-2.2606
M16
G05
G00X5.298Y-4.3232
M15
G01X5.298Y-3.8035
M16
G05
G00X5.298Y-3.8035
M15
G01X5.8177Y-3.8035
M16
G05
G00X5.8177Y-4.3232
M15
G01X5.298Y-4.3232
M16
G05
G00X5.8177Y-3.8035
M15
G01X5.8177Y-4.3232
M16
G05
G00X6.048Y-5.261
M15
G01X6.048Y-4.7413
M16
G05
G00X6.048Y-4.7413
M15
G01X6.5677Y-4.7413
M16
G05
G00X6.5677Y-5.261
M15
G01X6.048Y-5.261
M16
G05
G00X6.5677Y-4.7413
M15
G01X6.5677Y-5.261
M16
G05
G00X3.048Y-4.8858
M15
G01X3.048Y-4.3661
M16
G05
G00X3.048Y-4.3661
M15
G01X3.5677Y-4.3661
M16
G05
G00X3.5677Y-4.8858
M15
G01X3.048Y-4.8858
M16
G05
G00X3.5677Y-4.3661
M15
G01X3.5677Y-4.8858
M16
G05
G00X6.048Y-3.011
M15
G01X6.048Y-2.4913
M16
G05
G00X6.048Y-2.4913
M15
G01X6.5677Y-2.4913
M16
G05
G00X6.5677Y-3.011
M15
G01X6.048Y-3.011
M16
G05
G00X6.5677Y-2.4913
M15
G01X6.5677Y-3.011
M16
G05
G00X3.798Y-2.5382
M15
G01X3.798Y-2.0185
M16
G05
G00X3.798Y-2.0185
M15
G01X4.3177Y-2.0185
M16
G05
G00X4.3177Y-2.5382
M15
G01X3.798Y-2.5382
M16
G05
G00X4.3177Y-2.0185
M15
G01X4.3177Y-2.5382
M16
G05
G00X6.798Y-5.3508
M15
G01X6.798Y-4.8311
M16
G05
G00X6.798Y-4.8311
M15
G01X7.3177Y-4.8311
M16
G05
G00X7.3177Y-5.3508
M15
G01X6.798Y-5.3508
M16
G05
G00X7.3177Y-4.8311
M15
G01X7.3177Y-5.3508
M16
G05
G00X5.298Y-3.5732
M15
G01X5.298Y-3.0535
M16
G05
G00X5.298Y-3.0535
M15
G01X5.8177Y-3.0535
M16
G05
G00X5.8177Y-3.5732
M15
G01X5.298Y-3.5732
M16
G05
G00X5.8177Y-3.0535
M15
G01X5.8177Y-3.5732
M16
G05
G00X3.048Y-2.6358
M15
G01X3.048Y-2.1161
M16
G05
G00X3.048Y-2.1161
M15
G01X3.5677Y-2.1161
M16
G05
G00X3.5677Y-2.6358
M15
G01X3.048Y-2.6358
M16
G05
G00X3.5677Y-2.1161
M15
G01X3.5677Y-2.6358
M16
G05
G00X3.048Y-4.1358
M15
G01X3.048Y-3.6161
M16
G05
G00X3.048Y-3.6161
M15
G01X3.5677Y-3.6161
M16
G05
G00X3.5677Y-4.1358
M15
G01X3.048Y-4.1358
M16
G05
G00X3.5677Y-3.6161
M15
G01X3.5677Y-4.1358
M16
G05
G00X7.548Y-5.448
M15
G01X7.548Y-4.9283
M16
G05
G00X7.548Y-4.9283
M15
G01X8.0677Y-4.9283
M16
G05
G00X8.0677Y-5.448
M15
G01X7.548Y-5.448
M16
G05
G00X8.0677Y-4.9283
M15
G01X8.0677Y-5.448
M16
G05
T0
M30
