G04 #@! TF.GenerationSoftware,KiCad,Pcbnew,(5.1.5)-3*
G04 #@! TF.CreationDate,2020-04-13T19:14:52+08:00*
G04 #@! TF.ProjectId,plate,706c6174-652e-46b6-9963-61645f706362,rev?*
G04 #@! TF.SameCoordinates,Original*
G04 #@! TF.FileFunction,Profile,NP*
%FSLAX46Y46*%
G04 Gerber Fmt 4.6, Leading zero omitted, Abs format (unit mm)*
G04 Created by KiCad (PCBNEW (5.1.5)-3) date 2020-04-13 19:14:52*
%MOMM*%
%LPD*%
G04 APERTURE LIST*
%ADD10C,0.050000*%
G04 APERTURE END LIST*
D10*
X189770000Y-122230000D02*
G75*
G02X188769801Y-121229801I0J1000199D01*
G01*
X207820000Y-122230000D02*
X207820000Y-140282500D01*
X188770000Y-64140000D02*
X188769801Y-121229801D01*
X207820000Y-122230000D02*
X189770000Y-122230000D01*
X113100000Y-66890000D02*
G75*
G02X112100000Y-67890000I-1000000J0D01*
G01*
X131150000Y-58840000D02*
G75*
G02X130150000Y-59840000I-1000000J0D01*
G01*
X150190000Y-55090000D02*
G75*
G02X151190000Y-56090000I0J-1000000D01*
G01*
X149720000Y-112707500D02*
G75*
G02X150720000Y-113707500I0J-1000000D01*
G01*
X131150000Y-56090000D02*
G75*
G02X132150000Y-55090000I1000000J0D01*
G01*
X139239901Y-55089901D02*
X132150000Y-55090000D01*
X112570000Y-123518500D02*
G75*
G02X111570000Y-124518500I-1000000J0D01*
G01*
X131150000Y-56090000D02*
X131150000Y-58840000D01*
X120189901Y-59839901D02*
X113100000Y-59840000D01*
X169250000Y-61850000D02*
X169250000Y-62140000D01*
X112100000Y-60840000D02*
G75*
G02X113100000Y-59840000I1000000J0D01*
G01*
X113100000Y-66890000D02*
X113100000Y-61840000D01*
X150190000Y-57090000D02*
X150190000Y-59850000D01*
X113100000Y-61840000D02*
G75*
G02X114100000Y-60840000I1000000J0D01*
G01*
X149190000Y-56090000D02*
G75*
G02X150190000Y-57090000I0J-1000000D01*
G01*
X95040000Y-67890000D02*
X112100000Y-67890000D01*
X177339901Y-62139901D02*
X171250000Y-62140000D01*
X93040000Y-67890000D02*
X93040000Y-68370000D01*
X168250000Y-60850000D02*
G75*
G02X169250000Y-61850000I0J-1000000D01*
G01*
X152190000Y-59850000D02*
G75*
G02X151190000Y-58850000I0J1000000D01*
G01*
X169250000Y-59850000D02*
G75*
G02X170250000Y-60850000I0J-1000000D01*
G01*
X188770000Y-61140000D02*
G75*
G02X187770000Y-62140000I-1000000J0D01*
G01*
X151190000Y-58850000D02*
X151190000Y-56090000D01*
X93040000Y-67890000D02*
G75*
G02X94040000Y-66890000I1000000J0D01*
G01*
X151190000Y-60850000D02*
G75*
G02X150190000Y-59850000I0J1000000D01*
G01*
X171250000Y-62140000D02*
G75*
G02X170250000Y-61140000I0J1000000D01*
G01*
X73520000Y-102182500D02*
G75*
G02X72520000Y-103182500I-1000000J0D01*
G01*
X131620000Y-113707500D02*
G75*
G02X132620000Y-112707500I1000000J0D01*
G01*
X82089802Y-70370099D02*
X75470000Y-70370000D01*
X132150000Y-59840000D02*
X132150000Y-57090000D01*
X187770000Y-43606000D02*
G75*
G02X188770000Y-44606000I0J-1000000D01*
G01*
X74470000Y-68370000D02*
X74470000Y-51845000D01*
X111100000Y-66890000D02*
X94040000Y-66890000D01*
X151190000Y-60850000D02*
X168250000Y-60850000D01*
X112100000Y-65890000D02*
G75*
G02X111100000Y-66890000I-1000000J0D01*
G01*
X169250000Y-59850000D02*
X152190000Y-59850000D01*
X94040000Y-69370000D02*
X94040000Y-68890000D01*
X94040000Y-68890000D02*
G75*
G02X95040000Y-67890000I1000000J0D01*
G01*
X94040000Y-69370000D02*
G75*
G02X93040000Y-70370000I-1000000J0D01*
G01*
X168770000Y-136520000D02*
G75*
G02X169770000Y-137520000I0J-1000000D01*
G01*
X75520000Y-126995000D02*
G75*
G02X74520000Y-125995000I0J1000000D01*
G01*
X112100000Y-60840000D02*
X112100000Y-65890000D01*
X133150000Y-56090000D02*
X139239901Y-56090099D01*
X75470000Y-69370000D02*
G75*
G02X74470000Y-68370000I0J1000000D01*
G01*
X170720001Y-43606000D02*
G75*
G02X169720001Y-42606000I0J1000000D01*
G01*
X114100000Y-60840000D02*
X120189901Y-60840099D01*
X93040000Y-68370000D02*
G75*
G02X92040000Y-69370000I-1000000J0D01*
G01*
X74470000Y-51845000D02*
G75*
G02X75470000Y-50845000I1000000J0D01*
G01*
X74470000Y-71370000D02*
G75*
G02X75470000Y-70370000I1000000J0D01*
G01*
X132150000Y-57090000D02*
G75*
G02X133150000Y-56090000I1000000J0D01*
G01*
X82089802Y-69369901D02*
X75470000Y-69370000D01*
X177339901Y-63140099D02*
X170250000Y-63140000D01*
X170250000Y-61140000D02*
X170250000Y-60850000D01*
X132150000Y-59840000D02*
G75*
G02X131150000Y-60840000I-1000000J0D01*
G01*
X170250000Y-63140000D02*
G75*
G02X169250000Y-62140000I0J1000000D01*
G01*
X143100198Y-56090099D02*
X149190000Y-56090000D01*
X73520000Y-102182500D02*
X73519802Y-100680000D01*
X74470000Y-86680000D02*
G75*
G02X73469802Y-86680000I-500099J0D01*
G01*
X74470000Y-71370000D02*
X74470000Y-86680000D01*
X73519901Y-89560000D02*
X73519901Y-97820000D01*
X85950198Y-70370099D02*
G75*
G02X85450099Y-69870000I0J500099D01*
G01*
X181190099Y-62139901D02*
X187770000Y-62139901D01*
X73519901Y-89560000D02*
G75*
G02X74520099Y-89560000I500099J0D01*
G01*
X187820000Y-138810000D02*
G75*
G02X188820000Y-139810000I0J-1000000D01*
G01*
X85450099Y-69870000D02*
G75*
G02X85950198Y-69369901I500099J0D01*
G01*
X139239901Y-55089901D02*
G75*
G02X139740000Y-55590000I0J-500099D01*
G01*
X85950198Y-70370099D02*
X93040000Y-70370099D01*
X74520099Y-97820000D02*
X74520099Y-89560000D01*
X177840000Y-62640000D02*
G75*
G02X177339901Y-63140099I-500099J0D01*
G01*
X124050198Y-60840099D02*
G75*
G02X123550099Y-60340000I0J500099D01*
G01*
X143100198Y-56090099D02*
G75*
G02X142600099Y-55590000I0J500099D01*
G01*
X73519802Y-100680000D02*
G75*
G02X74520000Y-100680000I500099J0D01*
G01*
X187770000Y-63140000D02*
G75*
G02X188770000Y-64140000I0J-1000000D01*
G01*
X139740000Y-55590000D02*
G75*
G02X139239901Y-56090099I-500099J0D01*
G01*
X82589901Y-69870000D02*
G75*
G02X82089802Y-70370099I-500099J0D01*
G01*
X124050198Y-59839901D02*
X130150000Y-59840000D01*
X181190099Y-63140099D02*
G75*
G02X180690000Y-62640000I0J500099D01*
G01*
X74520099Y-97820000D02*
G75*
G02X73519901Y-97820000I-500099J0D01*
G01*
X82089802Y-69369901D02*
G75*
G02X82589901Y-69870000I0J-500099D01*
G01*
X123550099Y-60340000D02*
G75*
G02X124050198Y-59839901I500099J0D01*
G01*
X73469802Y-86680000D02*
X73470000Y-85182500D01*
X181190099Y-63140099D02*
X187770000Y-63140000D01*
X74520000Y-103180000D02*
X74520000Y-100680000D01*
X177339901Y-62139901D02*
G75*
G02X177840000Y-62640000I0J-500099D01*
G01*
X124050198Y-60840099D02*
X131150000Y-60840000D01*
X180690000Y-62640000D02*
G75*
G02X181190099Y-62139901I500099J0D01*
G01*
X142600099Y-55590000D02*
G75*
G02X143100198Y-55089901I500099J0D01*
G01*
X120189901Y-59839901D02*
G75*
G02X120690000Y-60340000I0J-500099D01*
G01*
X143100198Y-55089901D02*
X150190000Y-55090000D01*
X120690000Y-60340000D02*
G75*
G02X120189901Y-60840099I-500099J0D01*
G01*
X85950198Y-69369901D02*
X92040000Y-69369901D01*
X170770000Y-138806000D02*
G75*
G02X169770000Y-137806000I0J1000000D01*
G01*
X189820000Y-141282500D02*
X206820000Y-141282500D01*
X94520000Y-124518500D02*
X111570000Y-124518500D01*
X75470000Y-50845000D02*
X92570001Y-50845000D01*
X112620001Y-42320000D02*
X112620001Y-47368500D01*
X93520000Y-125995000D02*
G75*
G02X92520000Y-126995000I-1000000J0D01*
G01*
X93570001Y-49368500D02*
G75*
G02X94570001Y-48368500I1000000J0D01*
G01*
X170720001Y-43606000D02*
X187770000Y-43606000D01*
X93520000Y-125518500D02*
X93520000Y-125995000D01*
X112620001Y-47368500D02*
G75*
G02X111620001Y-48368500I-1000000J0D01*
G01*
X168720001Y-41320000D02*
G75*
G02X169720001Y-42320000I0J-1000000D01*
G01*
X131670001Y-40320000D02*
G75*
G02X130670001Y-41320000I-1000000J0D01*
G01*
X207820000Y-140282500D02*
G75*
G02X206820000Y-141282500I-1000000J0D01*
G01*
X170770000Y-138806000D02*
X187820000Y-138810000D01*
X188820000Y-139810000D02*
X188820000Y-140282500D01*
X112620001Y-42320000D02*
G75*
G02X113620001Y-41320000I1000000J0D01*
G01*
X151670001Y-41320000D02*
G75*
G02X150670001Y-40320000I0J1000000D01*
G01*
X74520000Y-103180000D02*
X74520000Y-125995000D01*
X131620000Y-116470000D02*
G75*
G02X130620000Y-117470000I-1000000J0D01*
G01*
X169720001Y-42320000D02*
X169720001Y-42606000D01*
X189820000Y-141282500D02*
G75*
G02X188820000Y-140282500I0J1000000D01*
G01*
X55470000Y-85182500D02*
G75*
G02X56470000Y-84182500I1000000J0D01*
G01*
X149670001Y-36557500D02*
G75*
G02X150670001Y-37557500I0J-1000000D01*
G01*
X93520000Y-125518500D02*
G75*
G02X94520000Y-124518500I1000000J0D01*
G01*
X55470000Y-85182500D02*
X55470000Y-102182500D01*
X56470000Y-103182500D02*
X72520000Y-103182500D01*
X150720000Y-135520000D02*
X150720000Y-113707500D01*
X113570000Y-117470000D02*
X130620000Y-117470000D01*
X56470000Y-103182500D02*
G75*
G02X55470000Y-102182500I0J1000000D01*
G01*
X169770000Y-137520000D02*
X169770000Y-137806000D01*
X94570001Y-48368500D02*
X111620001Y-48368500D01*
X132620000Y-112707500D02*
X149720000Y-112707500D01*
X72470000Y-84182500D02*
G75*
G02X73470000Y-85182500I0J-1000000D01*
G01*
X151670001Y-41320000D02*
X168720001Y-41320000D01*
X131670001Y-37557500D02*
G75*
G02X132670001Y-36557500I1000000J0D01*
G01*
X151720000Y-136520000D02*
G75*
G02X150720000Y-135520000I0J1000000D01*
G01*
X132670001Y-36557500D02*
X149670001Y-36557500D01*
X75520000Y-126995000D02*
X92520000Y-126995000D01*
X131620000Y-113707500D02*
X131620000Y-116470000D01*
X112570000Y-118470000D02*
X112570000Y-123518500D01*
X93570001Y-49845000D02*
G75*
G02X92570001Y-50845000I-1000000J0D01*
G01*
X56470000Y-84182500D02*
X72470000Y-84182500D01*
X93570001Y-49368500D02*
X93570001Y-49845000D01*
X151720000Y-136520000D02*
X168770000Y-136520000D01*
X188770000Y-61140000D02*
X188770000Y-44606000D01*
X131670001Y-37557500D02*
X131670001Y-40320000D01*
X112570000Y-118470000D02*
G75*
G02X113570000Y-117470000I1000000J0D01*
G01*
X150670001Y-37557500D02*
X150670001Y-40320000D01*
X113620001Y-41320000D02*
X130670001Y-41320000D01*
M02*
