  0
SECTION
  2
HEADER
  9
$ACADVER
  1
AC1032
  9
$ACADMAINTVER
 90
      155
  9
$DWGCODEPAGE
  3
ANSI_1251
  9
$LASTSAVEDBY
  1
Ladniy
  9
$REQUIREDVERSIONS
160
                 0
  9
$INSBASE
 10
0.0
 20
0.0
 30
0.0
  9
$EXTMIN
 10
1.728432475427325
 20
1.215334304022462
 30
-0.0015258207003583
  9
$EXTMAX
 10
350.5967265341956
 20
212.5131872652971
 30
0.0000000349246037
  9
$LIMMIN
 10
0.0
 20
0.0
  9
$LIMMAX
 10
12.0
 20
9.0
  9
$ORTHOMODE
 70
     0
  9
$REGENMODE
 70
     1
  9
$FILLMODE
 70
     1
  9
$QTEXTMODE
 70
     0
  9
$MIRRTEXT
 70
     0
  9
$LTSCALE
 40
1.0
  9
$ATTMODE
 70
     1
  9
$TEXTSIZE
 40
0.2
  9
$TRACEWID
 40
0.05
  9
$TEXTSTYLE
  7
Notes
  9
$CLAYER
  8
0
  9
$CELTYPE
  6
ByLayer
  9
$CECOLOR
 62
   256
  9
$CELTSCALE
 40
1.0
  9
$DISPSILH
 70
     0
  9
$DIMSCALE
 40
1.0
  9
$DIMASZ
 40
3.0
  9
$DIMEXO
 40
1.5
  9
$DIMDLI
 40
6.0
  9
$DIMRND
 40
0.0
  9
$DIMDLE
 40
0.0
  9
$DIMEXE
 40
3.0
  9
$DIMTP
 40
0.0
  9
$DIMTM
 40
0.0
  9
$DIMTXT
 40
3.0
  9
$DIMCEN
 40
3.0
  9
$DIMTSZ
 40
0.0
  9
$DIMTOL
 70
     0
  9
$DIMLIM
 70
     0
  9
$DIMTIH
 70
     0
  9
$DIMTOH
 70
     0
  9
$DIMSE1
 70
     0
  9
$DIMSE2
 70
     0
  9
$DIMTAD
 70
     1
  9
$DIMZIN
 70
     3
  9
$DIMBLK
  1

  9
$DIMASO
 70
     1
  9
$DIMSHO
 70
     1
  9
$DIMPOST
  1

  9
$DIMAPOST
  1

  9
$DIMALT
 70
     0
  9
$DIMALTD
 70
     2
  9
$DIMALTF
 40
25.4
  9
$DIMLFAC
 40
1.0
  9
$DIMTOFL
 70
     0
  9
$DIMTVP
 40
0.0
  9
$DIMTIX
 70
     0
  9
$DIMSOXD
 70
     0
  9
$DIMSAH
 70
     0
  9
$DIMBLK1
  1

  9
$DIMBLK2
  1

  9
$DIMSTYLE
  2
Civil-Metric
  9
$DIMCLRD
 70
     0
  9
$DIMCLRE
 70
     0
  9
$DIMCLRT
 70
     0
  9
$DIMTFAC
 40
1.0
  9
$DIMGAP
 40
2.0
  9
$DIMJUST
 70
     0
  9
$DIMSD1
 70
     0
  9
$DIMSD2
 70
     0
  9
$DIMTOLJ
 70
     1
  9
$DIMTZIN
 70
     0
  9
$DIMALTZ
 70
     0
  9
$DIMALTTZ
 70
     0
  9
$DIMUPT
 70
     0
  9
$DIMDEC
 70
     2
  9
$DIMTDEC
 70
     2
  9
$DIMALTU
 70
     2
  9
$DIMALTTD
 70
     2
  9
$DIMTXSTY
  7
Standard
  9
$DIMAUNIT
 70
     0
  9
$DIMADEC
 70
     2
  9
$DIMALTRND
 40
0.0
  9
$DIMAZIN
 70
     2
  9
$DIMDSEP
 70
    46
  9
$DIMATFIT
 70
     3
  9
$DIMFRAC
 70
     1
  9
$DIMLDRBLK
  1

  9
$DIMLUNIT
 70
     2
  9
$DIMLWD
 70
    -2
  9
$DIMLWE
 70
    -2
  9
$DIMTMOVE
 70
     0
  9
$DIMFXL
 40
1.0
  9
$DIMFXLON
 70
     0
  9
$DIMJOGANG
 40
0.7853981633974483
  9
$DIMTFILL
 70
     0
  9
$DIMTFILLCLR
 70
     0
  9
$DIMARCSYM
 70
     0
  9
$DIMLTYPE
  6

  9
$DIMLTEX1
  6

  9
$DIMLTEX2
  6

  9
$DIMTXTDIRECTION
 70
     0
  9
$LUNITS
 70
     2
  9
$LUPREC
 70
     4
  9
$SKETCHINC
 40
0.1
  9
$FILLETRAD
 40
1.0
  9
$AUNITS
 70
     4
  9
$AUPREC
 70
     5
  9
$MENU
  1
.
  9
$ELEVATION
 40
0.0
  9
$PELEVATION
 40
0.0
  9
$THICKNESS
 40
0.0
  9
$LIMCHECK
 70
     0
  9
$CHAMFERA
 40
0.0
  9
$CHAMFERB
 40
0.0
  9
$CHAMFERC
 40
0.0
  9
$CHAMFERD
 40
0.0
  9
$SKPOLY
 70
     0
  9
$TDCREATE
 40
2458775.849224537
  9
$TDUCREATE
 40
2458775.515891204
  9
$TDUPDATE
 40
2459157.731122685
  9
$TDUUPDATE
 40
2459157.397789352
  9
$TDINDWG
 40
0.4050694444
  9
$TDUSRTIMER
 40
0.4050694444
  9
$USRTIMER
 70
     1
  9
$ANGBASE
 50
0.0
  9
$ANGDIR
 70
     0
  9
$PDMODE
 70
     0
  9
$PDSIZE
 40
0.0
  9
$PLINEWID
 40
0.0
  9
$SPLFRAME
 70
     0
  9
$SPLINETYPE
 70
     6
  9
$SPLINESEGS
 70
     8
  9
$HANDSEED
  5
2125
  9
$SURFTAB1
 70
     6
  9
$SURFTAB2
 70
     6
  9
$SURFTYPE
 70
     6
  9
$SURFU
 70
     6
  9
$SURFV
 70
     6
  9
$UCSBASE
  2

  9
$UCSNAME
  2

  9
$UCSORG
 10
0.0
 20
0.0
 30
0.0
  9
$UCSXDIR
 10
1.0
 20
0.0
 30
0.0
  9
$UCSYDIR
 10
0.0
 20
1.0
 30
0.0
  9
$UCSORTHOREF
  2

  9
$UCSORTHOVIEW
 70
     0
  9
$UCSORGTOP
 10
0.0
 20
0.0
 30
0.0
  9
$UCSORGBOTTOM
 10
0.0
 20
0.0
 30
0.0
  9
$UCSORGLEFT
 10
0.0
 20
0.0
 30
0.0
  9
$UCSORGRIGHT
 10
0.0
 20
0.0
 30
0.0
  9
$UCSORGFRONT
 10
0.0
 20
0.0
 30
0.0
  9
$UCSORGBACK
 10
0.0
 20
0.0
 30
0.0
  9
$PUCSBASE
  2

  9
$PUCSNAME
  2

  9
$PUCSORG
 10
0.0
 20
0.0
 30
0.0
  9
$PUCSXDIR
 10
1.0
 20
0.0
 30
0.0
  9
$PUCSYDIR
 10
0.0
 20
1.0
 30
0.0
  9
$PUCSORTHOREF
  2

  9
$PUCSORTHOVIEW
 70
     0
  9
$PUCSORGTOP
 10
0.0
 20
0.0
 30
0.0
  9
$PUCSORGBOTTOM
 10
0.0
 20
0.0
 30
0.0
  9
$PUCSORGLEFT
 10
0.0
 20
0.0
 30
0.0
  9
$PUCSORGRIGHT
 10
0.0
 20
0.0
 30
0.0
  9
$PUCSORGFRONT
 10
0.0
 20
0.0
 30
0.0
  9
$PUCSORGBACK
 10
0.0
 20
0.0
 30
0.0
  9
$USERI1
 70
     0
  9
$USERI2
 70
     0
  9
$USERI3
 70
     0
  9
$USERI4
 70
     0
  9
$USERI5
 70
     0
  9
$USERR1
 40
0.0
  9
$USERR2
 40
0.0
  9
$USERR3
 40
0.0
  9
$USERR4
 40
0.0
  9
$USERR5
 40
0.0
  9
$WORLDVIEW
 70
     1
  9
$SHADEDGE
 70
     3
  9
$SHADEDIF
 70
    70
  9
$TILEMODE
 70
     1
  9
$MAXACTVP
 70
    64
  9
$PINSBASE
 10
0.0
 20
0.0
 30
0.0
  9
$PLIMCHECK
 70
     0
  9
$PEXTMIN
 10
0.6288667663970601
 20
0.7999999523162842
 30
0.0
  9
$PEXTMAX
 10
9.028866384927335
 20
7.199999570846557
 30
0.0
  9
$PLIMMIN
 10
-0.7005418191744587
 20
-0.2281003861915408
  9
$PLIMMAX
 10
10.29945794052965
 20
8.271899373512571
  9
$UNITMODE
 70
     0
  9
$VISRETAIN
 70
     1
  9
$PLINEGEN
 70
     0
  9
$PSLTSCALE
 70
     1
  9
$TREEDEPTH
 70
  3020
  9
$CMLSTYLE
  2
Standard
  9
$CMLJUST
 70
     0
  9
$CMLSCALE
 40
1.0
  9
$PROXYGRAPHICS
 70
     1
  9
$MEASUREMENT
 70
     1
  9
$CELWEIGHT
370
    -1
  9
$ENDCAPS
280
     0
  9
$JOINSTYLE
280
     0
  9
$LWDISPLAY
290
     0
  9
$INSUNITS
 70
     4
  9
$HYPERLINKBASE
  1

  9
$STYLESHEET
  1

  9
$XEDIT
290
     1
  9
$CEPSNTYPE
380
     0
  9
$PSTYLEMODE
290
     1
  9
$FINGERPRINTGUID
  2
BCF53B60-F21F-11E9-BE28-4E5CEDBD4935
  9
$VERSIONGUID
  2
{4D05CBA0-099D-E746-8A45-025F9F38A24F}
  9
$EXTNAMES
290
     1
  9
$PSVPSCALE
 40
0.0
  9
$OLESTARTUP
290
     0
  9
$SORTENTS
280
   127
  9
$INDEXCTL
280
     0
  9
$HIDETEXT
280
     1
  9
$XCLIPFRAME
280
     0
  9
$HALOGAP
280
     0
  9
$OBSCOLOR
 70
   257
  9
$OBSLTYPE
280
     0
  9
$INTERSECTIONDISPLAY
280
     0
  9
$INTERSECTIONCOLOR
 70
   257
  9
$DIMASSOC
280
     2
  9
$PROJECTNAME
  1

  9
$CAMERADISPLAY
290
     0
  9
$LENSLENGTH
 40
50.0
  9
$CAMERAHEIGHT
 40
0.0
  9
$STEPSPERSEC
 40
2.0
  9
$STEPSIZE
 40
6.0
  9
$3DDWFPREC
 40
2.0
  9
$PSOLWIDTH
 40
0.25
  9
$PSOLHEIGHT
 40
4.0
  9
$LOFTANG1
 40
1.570796326794896
  9
$LOFTANG2
 40
1.570796326794896
  9
$LOFTMAG1
 40
0.0
  9
$LOFTMAG2
 40
0.0
  9
$LOFTPARAM
 70
     7
  9
$LOFTNORMALS
280
     1
  9
$LATITUDE
 40
37.795
  9
$LONGITUDE
 40
-122.394
  9
$NORTHDIRECTION
 40
0.0
  9
$TIMEZONE
 70
 -8000
  9
$LIGHTGLYPHDISPLAY
280
     1
  9
$TILEMODELIGHTSYNCH
280
     1
  9
$CMATERIAL
347
651
  9
$SOLIDHIST
280
     1
  9
$SHOWHIST
280
     1
  9
$DWFFRAME
280
     2
  9
$DGNFRAME
280
     0
  9
$REALWORLDSCALE
290
     1
  9
$INTERFERECOLOR
 62
     1
  9
$INTERFEREOBJVS
345
672
  9
$INTERFEREVPVS
346
66F
  9
$CSHADOW
280
     0
  9
$SHADOWPLANELOCATION
 40
0.0
  0
ENDSEC
  0
SECTION
  2
CLASSES
  0
CLASS
  1
ACDBDICTIONARYWDFLT
  2
AcDbDictionaryWithDefault
  3
ObjectDBX Classes
 90
        0
 91
        1
280
     0
281
     0
  0
CLASS
  1
DICTIONARYVAR
  2
AcDbDictionaryVar
  3
ObjectDBX Classes
 90
        0
 91
        5
280
     0
281
     0
  0
CLASS
  1
TABLESTYLE
  2
AcDbTableStyle
  3
ObjectDBX Classes
 90
     4095
 91
        1
280
     0
281
     0
  0
CLASS
  1
MATERIAL
  2
AcDbMaterial
  3
ObjectDBX Classes
 90
     1153
 91
        3
280
     0
281
     0
  0
CLASS
  1
VISUALSTYLE
  2
AcDbVisualStyle
  3
ObjectDBX Classes
 90
     4095
 91
       24
280
     0
281
     0
  0
CLASS
  1
SCALE
  2
AcDbScale
  3
ObjectDBX Classes
 90
     1153
 91
       17
280
     0
281
     0
  0
CLASS
  1
MLEADERSTYLE
  2
AcDbMLeaderStyle
  3
ACDB_MLEADERSTYLE_CLASS
 90
     4095
 91
        1
280
     0
281
     0
  0
CLASS
  1
CELLSTYLEMAP
  2
AcDbCellStyleMap
  3
ObjectDBX Classes
 90
     1152
 91
        2
280
     0
281
     0
  0
CLASS
  1
EXACXREFPANELOBJECT
  2
ExAcXREFPanelObject
  3
EXAC_ESW
 90
     1025
 91
        0
280
     0
281
     0
  0
CLASS
  1
NPOCOLLECTION
  2
AcDbImpNonPersistentObjectsCollection
  3
ObjectDBX Classes
 90
     1153
 91
        0
280
     0
281
     0
  0
CLASS
  1
LAYER_INDEX
  2
AcDbLayerIndex
  3
ObjectDBX Classes
 90
        0
 91
        0
280
     0
281
     0
  0
CLASS
  1
SPATIAL_INDEX
  2
AcDbSpatialIndex
  3
ObjectDBX Classes
 90
        0
 91
        0
280
     0
281
     0
  0
CLASS
  1
IDBUFFER
  2
AcDbIdBuffer
  3
ObjectDBX Classes
 90
        0
 91
        0
280
     0
281
     0
  0
CLASS
  1
DIMASSOC
  2
AcDbDimAssoc
  3
"AcDbDimAssoc|Product Desc:     AcDim ARX App For Dimension|Company:          Autodesk, Inc.|WEB Address:      www.autodesk.com"
 90
        0
 91
        0
280
     0
281
     0
  0
CLASS
  1
IMAGEDEF
  2
AcDbRasterImageDef
  3
ISM
 90
        0
 91
        0
280
     0
281
     0
  0
CLASS
  1
RASTERVARIABLES
  2
AcDbRasterVariables
  3
ISM
 90
        0
 91
        0
280
     0
281
     0
  0
CLASS
  1
IMAGEDEF_REACTOR
  2
AcDbRasterImageDefReactor
  3
ISM
 90
        1
 91
        0
280
     0
281
     0
  0
CLASS
  1
IMAGE
  2
AcDbRasterImage
  3
ISM
 90
     2175
 91
        0
280
     0
281
     1
  0
CLASS
  1
PDFDEFINITION
  2
AcDbPdfDefinition
  3
ObjectDBX Classes
 90
     1153
 91
        0
280
     0
281
     0
  0
CLASS
  1
PDFUNDERLAY
  2
AcDbPdfReference
  3
ObjectDBX Classes
 90
     4095
 91
        0
280
     0
281
     1
  0
CLASS
  1
DWFDEFINITION
  2
AcDbDwfDefinition
  3
ObjectDBX Classes
 90
     1153
 91
        0
280
     0
281
     0
  0
CLASS
  1
DWFUNDERLAY
  2
AcDbDwfReference
  3
ObjectDBX Classes
 90
     1153
 91
        0
280
     0
281
     1
  0
CLASS
  1
DGNDEFINITION
  2
AcDbDgnDefinition
  3
ObjectDBX Classes
 90
     1153
 91
        0
280
     0
281
     0
  0
CLASS
  1
DGNUNDERLAY
  2
AcDbDgnReference
  3
ObjectDBX Classes
 90
     1153
 91
        0
280
     0
281
     1
  0
CLASS
  1
ACDBSECTIONVIEWSTYLE
  2
AcDbSectionViewStyle
  3
ObjectDBX Classes
 90
     1025
 91
        1
280
     0
281
     0
  0
CLASS
  1
ACDBDETAILVIEWSTYLE
  2
AcDbDetailViewStyle
  3
ObjectDBX Classes
 90
     1025
 91
        1
280
     0
281
     0
  0
CLASS
  1
SORTENTSTABLE
  2
AcDbSortentsTable
  3
ObjectDBX Classes
 90
        0
 91
        2
280
     0
281
     0
  0
ENDSEC
  0
SECTION
  2
TABLES
  0
TABLE
  2
VPORT
  5
8
330
0
100
AcDbSymbolTable
 70
     1
1001
ACAD
1000
DbSaveVer
1071
      207
  0
VPORT
  5
69C
330
8
100
AcDbSymbolTableRecord
100
AcDbViewportTableRecord
  2
*Active
 70
     0
 10
0.0
 20
0.0
 11
1.0
 21
1.0
 12
176.1625795048114
 22
106.8642607846598
 13
0.0
 23
0.0
 14
1.0
 24
1.0
 15
0.0
 25
0.0
 16
0.0
 26
0.0
 36
1.0
 17
0.0
 27
0.0
 37
0.0
 40
212.8630222424693
 41
2.325092707045735
 42
50.0
 43
0.0
 44
0.0
 50
0.0
 51
0.0
 71
     0
 72
  1000
 73
     1
 74
     3
 75
     0
 76
     1
 77
     0
 78
     0
281
     0
 65
     1
110
0.0
120
0.0
130
0.0
111
1.0
121
0.0
131
0.0
112
0.0
122
1.0
132
0.0
 79
     0
146
0.0
348
66E
 60
     3
 61
     5
292
     1
282
     1
141
0.0
142
0.0
 63
   250
421
  3355443
1001
ACAD_NAV_VCDISPLAY
1070
     1
  0
ENDTAB
  0
TABLE
  2
LTYPE
  5
5F
330
0
100
AcDbSymbolTable
 70
     5
  0
LTYPE
  5
14
330
5F
100
AcDbSymbolTableRecord
100
AcDbLinetypeTableRecord
  2
ByBlock
 70
     0
  3

 72
    65
 73
     0
 40
0.0
  0
LTYPE
  5
15
330
5F
100
AcDbSymbolTableRecord
100
AcDbLinetypeTableRecord
  2
ByLayer
 70
     0
  3

 72
    65
 73
     0
 40
0.0
  0
LTYPE
  5
16
330
5F
100
AcDbSymbolTableRecord
100
AcDbLinetypeTableRecord
  2
Continuous
 70
     0
  3
Solid line
 72
    65
 73
     0
 40
0.0
  0
LTYPE
  5
1B1
330
5F
100
AcDbSymbolTableRecord
100
AcDbLinetypeTableRecord
  2
CENTER
 70
     0
  3
Center ____ _ ____ _ ____ _ ____ _ ____ _ ____
 72
    65
 73
     4
 40
2.0
 49
1.25
 74
     0
 49
-0.25
 74
     0
 49
0.25
 74
     0
 49
-0.25
 74
     0
  0
LTYPE
  5
1B2
330
5F
100
AcDbSymbolTableRecord
100
AcDbLinetypeTableRecord
  2
DASHED
 70
     0
  3
Dashed __ __ __ __ __ __ __ __ __ __ __ __ __ _
 72
    65
 73
     2
 40
0.75
 49
0.5
 74
     0
 49
-0.25
 74
     0
  0
LTYPE
  5
1B3
330
5F
100
AcDbSymbolTableRecord
100
AcDbLinetypeTableRecord
  2
PHANTOM
 70
     0
  3
Phantom ______  __  __  ______  __  __  ______
 72
    65
 73
     6
 40
2.5
 49
1.25
 74
     0
 49
-0.25
 74
     0
 49
0.25
 74
     0
 49
-0.25
 74
     0
 49
0.25
 74
     0
 49
-0.25
 74
     0
  0
LTYPE
  5
39E
330
5F
100
AcDbSymbolTableRecord
100
AcDbLinetypeTableRecord
  2
HIDDEN
 70
     0
  3
Hidden __ __ __ __ __ __ __ __ __ __ __ __ __ __
 72
    65
 73
     2
 40
9.525
 49
6.349999999999997
 74
     0
 49
-3.174999999999998
 74
     0
  0
ENDTAB
  0
TABLE
  2
LAYER
  5
2
102
{ACAD_XDICTIONARY
360
6AB
102
}
330
0
100
AcDbSymbolTable
 70
     3
  0
LAYER
  5
10
330
2
100
AcDbSymbolTableRecord
100
AcDbLayerTableRecord
  2
0
 70
     0
 62
     7
  6
Continuous
370
    -3
390
4E8
347
661
348
0
  0
LAYER
  5
1B4
330
2
100
AcDbSymbolTableRecord
100
AcDbLayerTableRecord
  2
View Port
 70
     0
 62
     7
  6
Continuous
290
     0
370
    -3
390
4E8
347
661
348
0
  0
LAYER
  5
21D
330
2
100
AcDbSymbolTableRecord
100
AcDbLayerTableRecord
  2
Defpoints
 70
     0
 62
     7
  6
Continuous
290
     0
370
    -3
390
4E8
347
661
348
0
  0
ENDTAB
  0
TABLE
  2
STYLE
  5
3
330
0
100
AcDbSymbolTable
 70
     3
  0
STYLE
  5
11
330
3
100
AcDbSymbolTableRecord
100
AcDbTextStyleTableRecord
  2
Standard
 70
     0
 40
0.0
 41
1.0
 50
0.0
 71
     0
 42
0.2
  3
arial.ttf
  4

1001
ACAD
1000
Arial
1071
       34
  0
STYLE
  5
DC
330
3
100
AcDbSymbolTableRecord
100
AcDbTextStyleTableRecord
  2
Annotative
 70
     0
 40
0.0
 41
1.0
 50
0.0
 71
     0
 42
0.2
  3
arial.ttf
  4

1001
ACAD
1000
Arial
1071
       34
  0
STYLE
  5
178
330
3
100
AcDbSymbolTableRecord
100
AcDbTextStyleTableRecord
  2
Notes
 70
     0
 40
3.0
 41
1.0
 50
0.0
 71
     0
 42
0.2
  3
arial.ttf
  4

1001
ACAD
1000
Arial
1071
       34
  0
ENDTAB
  0
TABLE
  2
VIEW
  5
6
330
0
100
AcDbSymbolTable
 70
     0
  0
ENDTAB
  0
TABLE
  2
UCS
  5
7
330
0
100
AcDbSymbolTable
 70
     0
  0
ENDTAB
  0
TABLE
  2
APPID
  5
9
330
0
100
AcDbSymbolTable
 70
    12
  0
APPID
  5
12
330
9
100
AcDbSymbolTableRecord
100
AcDbRegAppTableRecord
  2
ACAD
 70
     0
  0
APPID
  5
DD
330
9
100
AcDbSymbolTableRecord
100
AcDbRegAppTableRecord
  2
AcadAnnoPO
 70
     0
  0
APPID
  5
DE
330
9
100
AcDbSymbolTableRecord
100
AcDbRegAppTableRecord
  2
AcadAnnotative
 70
     0
  0
APPID
  5
DF
330
9
100
AcDbSymbolTableRecord
100
AcDbRegAppTableRecord
  2
ACAD_DSTYLE_DIMJAG
 70
     0
  0
APPID
  5
E0
330
9
100
AcDbSymbolTableRecord
100
AcDbRegAppTableRecord
  2
ACAD_DSTYLE_DIMTALN
 70
     0
  0
APPID
  5
107
330
9
100
AcDbSymbolTableRecord
100
AcDbRegAppTableRecord
  2
ACAD_MLEADERVER
 70
     0
  0
APPID
  5
1B5
330
9
100
AcDbSymbolTableRecord
100
AcDbRegAppTableRecord
  2
AcAecLayerStandard
 70
     0
  0
APPID
  5
1BA
330
9
100
AcDbSymbolTableRecord
100
AcDbRegAppTableRecord
  2
ACAD_EXEMPT_FROM_CAD_STANDARDS
 70
     0
  0
APPID
  5
237
330
9
100
AcDbSymbolTableRecord
100
AcDbRegAppTableRecord
  2
ACAD_DSTYLE_DIMBREAK
 70
     0
  0
APPID
  5
28E
330
9
100
AcDbSymbolTableRecord
100
AcDbRegAppTableRecord
  2
ACAD_PSEXT
 70
     0
  0
APPID
  5
4C4
330
9
100
AcDbSymbolTableRecord
100
AcDbRegAppTableRecord
  2
HATCHBACKGROUNDCOLOR
 70
     0
  0
APPID
  5
69B
330
9
100
AcDbSymbolTableRecord
100
AcDbRegAppTableRecord
  2
ACAD_NAV_VCDISPLAY
 70
     0
  0
ENDTAB
  0
TABLE
  2
DIMSTYLE
  5
A
330
0
100
AcDbSymbolTable
 70
     5
100
AcDbDimStyleTable
 71
     3
340
242
340
27
340
E1
  0
DIMSTYLE
105
27
330
A
100
AcDbSymbolTableRecord
100
AcDbDimStyleTableRecord
  2
Standard
 70
     0
 41
3.0
 42
2.0
 43
9.0
 44
5.0
140
3.0
141
2.0
147
2.0
340
11
1001
ACAD_DSTYLE_DIMJAG
1070
   388
1040
38.0
1001
ACAD_DSTYLE_DIMBREAK
1070
   391
1040
90.0
1001
ACAD_DSTYLE_DIMTALN
1070
   392
1070
     0
  0
DIMSTYLE
105
E1
330
A
100
AcDbSymbolTableRecord
100
AcDbDimStyleTableRecord
  2
Annotative
 70
     0
 40
0.0
 41
3.0
 42
2.5
 43
10.0
 44
5.0
140
3.0
141
2.0
147
2.0
340
11
1001
AcadAnnotative
1000
AnnotativeData
1002
{
1070
     1
1070
     1
1002
}
1001
ACAD_DSTYLE_DIMJAG
1070
   388
1040
38.0
1001
ACAD_DSTYLE_DIMBREAK
1070
   391
1040
90.0
1001
ACAD_DSTYLE_DIMTALN
1070
   392
1070
     0
  0
DIMSTYLE
105
242
330
A
100
AcDbSymbolTableRecord
100
AcDbDimStyleTableRecord
  2
Civil-Metric
 70
     0
 41
3.0
 42
1.5
 43
6.0
 44
3.0
 73
     0
 74
     0
 77
     1
 78
     3
 79
     2
140
3.0
141
3.0
147
2.0
179
     2
271
     2
272
     2
276
     1
340
11
1001
ACAD_DSTYLE_DIMBREAK
1070
   391
1040
3.0
1001
ACAD_DSTYLE_DIMJAG
1070
   388
1040
38.0
1001
ACAD_DSTYLE_DIMTALN
1070
   392
1070
     0
  0
DIMSTYLE
105
F70
330
A
100
AcDbSymbolTableRecord
100
AcDbDimStyleTableRecord
  2
Аннотативный
 70
     0
 40
0.0
 41
2.5
 42
0.625
 43
3.75
 44
1.25
 73
     0
 74
     0
 77
     1
 78
     8
140
2.5
141
2.5
143
0.03937007874016
147
0.625
171
     3
172
     1
271
     2
272
     2
274
     3
278
    44
283
     0
284
     8
340
11
1001
AcadAnnotative
1000
AnnotativeData
1002
{
1070
     1
1070
     1
1002
}
1001
ACAD_DSTYLE_DIMJAG
1070
   388
1040
1.5
1001
ACAD_DSTYLE_DIMTALN
1070
   392
1070
     0
  0
DIMSTYLE
105
F71
330
A
100
AcDbSymbolTableRecord
100
AcDbDimStyleTableRecord
  2
ISO-25
 70
     0
 41
2.5
 42
0.625
 43
3.75
 44
1.25
 73
     0
 74
     0
 77
     1
 78
     8
140
2.5
141
2.5
143
0.03937007874016
147
0.625
171
     3
172
     1
271
     2
272
     2
274
     3
278
    44
283
     0
284
     8
340
11
  0
ENDTAB
  0
TABLE
  2
BLOCK_RECORD
  5
1
330
0
100
AcDbSymbolTable
 70
     4
  0
BLOCK_RECORD
  5
1F
102
{ACAD_XDICTIONARY
360
882
102
}
330
1
100
AcDbSymbolTableRecord
100
AcDbBlockTableRecord
  2
*Model_Space
340
4ED
 70
     0
280
     1
281
     0
  0
BLOCK_RECORD
  5
58
330
1
100
AcDbSymbolTableRecord
100
AcDbBlockTableRecord
  2
*Paper_Space
340
4EE
 70
     0
280
     1
281
     0
  0
BLOCK_RECORD
  5
238
330
1
100
AcDbSymbolTableRecord
100
AcDbBlockTableRecord
  2
_ArchTick
340
0
 70
     0
280
     1
281
     0
  0
BLOCK_RECORD
  5
23C
330
1
100
AcDbSymbolTableRecord
100
AcDbBlockTableRecord
  2
_Open30
340
0
 70
     0
280
     1
281
     0
  0
BLOCK_RECORD
  5
6E6
330
1
100
AcDbSymbolTableRecord
100
AcDbBlockTableRecord
  2
A$C51dd9ed7
340
0
 70
     4
280
     1
281
     0
  0
BLOCK_RECORD
  5
EFB
102
{ACAD_XDICTIONARY
360
F00
102
}
330
1
100
AcDbSymbolTableRecord
100
AcDbBlockTableRecord
  2
A$C7211f684
340
0
 70
     4
280
     1
281
     0
  0
ENDTAB
  0
ENDSEC
  0
SECTION
  2
BLOCKS
  0
BLOCK
  5
20
330
1F
100
AcDbEntity
  8
0
100
AcDbBlockBegin
  2
*Model_Space
 70
     0
 10
0.0
 20
0.0
 30
0.0
  3
*Model_Space
  1

  0
ENDBLK
  5
21
330
1F
100
AcDbEntity
  8
0
100
AcDbBlockEnd
  0
BLOCK
  5
5A
330
58
100
AcDbEntity
 67
     1
  8
0
100
AcDbBlockBegin
  2
*Paper_Space
 70
     0
 10
0.0
 20
0.0
 30
0.0
  3
*Paper_Space
  1

  0
ENDBLK
  5
5B
330
58
100
AcDbEntity
 67
     1
  8
0
100
AcDbBlockEnd
  0
BLOCK
  5
23A
330
238
100
AcDbEntity
  8
0
100
AcDbBlockBegin
  2
_ArchTick
 70
     0
 10
0.0
 20
0.0
 30
0.0
  3
_ArchTick
  1

  0
LWPOLYLINE
  5
239
330
238
100
AcDbEntity
  8
0
  6
ByBlock
 62
     0
100
AcDbPolyline
 90
        2
 70
     0
 43
0.15
 10
-0.5
 20
-0.5
 10
0.5
 20
0.5
  0
ENDBLK
  5
23B
330
238
100
AcDbEntity
  8
0
100
AcDbBlockEnd
  0
BLOCK
  5
240
330
23C
100
AcDbEntity
  8
0
100
AcDbBlockBegin
  2
_Open30
 70
     0
 10
0.0
 20
0.0
 30
0.0
  3
_Open30
  1

  0
LINE
  5
23D
330
23C
100
AcDbEntity
  8
0
  6
ByBlock
 62
     0
370
    -2
100
AcDbLine
 10
-1.0
 20
0.26794919
 30
0.0
 11
0.0
 21
0.0
 31
0.0
  0
LINE
  5
23E
330
23C
100
AcDbEntity
  8
0
  6
ByBlock
 62
     0
370
    -2
100
AcDbLine
 10
0.0
 20
0.0
 30
0.0
 11
-1.0
 21
-0.26794919
 31
0.0
  0
LINE
  5
23F
330
23C
100
AcDbEntity
  8
0
  6
ByBlock
 62
     0
370
    -2
100
AcDbLine
 10
0.0
 20
0.0
 30
0.0
 11
-1.0
 21
0.0
 31
0.0
  0
ENDBLK
  5
241
330
23C
100
AcDbEntity
  8
0
100
AcDbBlockEnd
  0
BLOCK
  5
6E8
330
6E6
100
AcDbEntity
  8
0
100
AcDbBlockBegin
  2
A$C51dd9ed7
 70
     0
 10
0.0
 20
0.0
 30
0.0
  3
A$C51dd9ed7
  1

  0
LINE
  5
6E7
330
6E6
100
AcDbEntity
  8
0
100
AcDbLine
 10
-0.00000031730616
 20
2.499999897510829
 30
0.0
 11
-0.00000031730616
 21
-0.0000001024891674
 31
0.0
  0
ENDBLK
  5
6E9
330
6E6
100
AcDbEntity
  8
0
100
AcDbBlockEnd
  0
BLOCK
  5
F02
330
EFB
100
AcDbEntity
  8
0
100
AcDbBlockBegin
  2
A$C7211f684
 70
     0
 10
0.0
 20
0.0
 30
0.0
  3
A$C7211f684
  1

  0
LINE
  5
EFC
330
EFB
100
AcDbEntity
  8
0
100
AcDbLine
 10
0.0
 20
1.99999996447684
 30
0.0
 11
0.0
 21
-0.0000000355231577
 31
0.0
  0
LINE
  5
EFD
330
EFB
100
AcDbEntity
  8
0
100
AcDbLine
 10
0.0
 20
-0.0000000355231577
 30
0.0
 11
2.0
 21
-0.0000000355231577
 31
0.0
  0
LINE
  5
EFE
330
EFB
100
AcDbEntity
  8
0
100
AcDbLine
 10
2.0
 20
-0.0000000355231577
 30
0.0
 11
2.0
 21
1.99999996447684
 31
0.0
  0
LINE
  5
EFF
330
EFB
100
AcDbEntity
  8
0
100
AcDbLine
 10
2.0
 20
1.99999996447684
 30
0.0
 11
0.0
 21
1.99999996447684
 31
0.0
  0
ENDBLK
  5
F03
330
EFB
100
AcDbEntity
  8
0
100
AcDbBlockEnd
  0
ENDSEC
  0
SECTION
  2
ENTITIES
  0
LINE
  5
56B
330
1F
100
AcDbEntity
  8
0
100
AcDbLine
 10
80.96758067710878
 20
103.4589781588513
 30
0.0
 11
93.96758067710878
 21
103.4589781588513
 31
0.0
  0
LINE
  5
56C
330
1F
100
AcDbEntity
  8
0
100
AcDbLine
 10
80.96758067710878
 20
89.4589781588513
 30
0.0
 11
93.96758067710878
 21
89.4589781588513
 31
0.0
  0
LINE
  5
56D
330
1F
100
AcDbEntity
  8
0
100
AcDbLine
 10
80.46758067710877
 20
102.9589781588513
 30
0.0
 11
80.46758067710877
 21
89.95897815885129
 31
0.0
  0
LINE
  5
56E
330
1F
100
AcDbEntity
  8
0
100
AcDbLine
 10
94.46758067710868
 20
102.9589781588513
 30
0.0
 11
94.46758067710868
 21
89.95897815885129
 31
0.0
  0
ARC
  5
56F
330
1F
100
AcDbEntity
  8
0
100
AcDbCircle
 10
80.96758067710878
 20
102.9589781588513
 30
0.0
 40
0.5
100
AcDbArc
 50
90.0
 51
180.0
  0
ARC
  5
570
330
1F
100
AcDbEntity
  8
0
100
AcDbCircle
 10
93.96758067710878
 20
102.9589781588513
 30
0.0
 40
0.5
100
AcDbArc
 50
0.0
 51
90.0
  0
ARC
  5
571
330
1F
100
AcDbEntity
  8
0
100
AcDbCircle
 10
80.96758067710878
 20
89.95897815885129
 30
0.0
 40
0.5
100
AcDbArc
 50
180.0
 51
270.0
  0
ARC
  5
572
330
1F
100
AcDbEntity
  8
0
100
AcDbCircle
 10
93.96758067710878
 20
89.95897815885129
 30
0.0
 40
0.5
100
AcDbArc
 50
270.0
 51
0.0
  0
LINE
  5
573
330
1F
100
AcDbEntity
  8
0
100
AcDbLine
 10
61.91758067710875
 20
98.6964781588513
 30
0.0
 11
74.91758067710875
 21
98.6964781588513
 31
0.0
  0
LINE
  5
574
330
1F
100
AcDbEntity
  8
0
100
AcDbLine
 10
61.91758067710875
 20
84.69647815885128
 30
0.0
 11
74.91758067710875
 21
84.69647815885128
 31
0.0
  0
LINE
  5
575
330
1F
100
AcDbEntity
  8
0
100
AcDbLine
 10
61.41758067710874
 20
98.19647815885128
 30
0.0
 11
61.41758067710874
 21
85.1964781588513
 31
0.0
  0
LINE
  5
576
330
1F
100
AcDbEntity
  8
0
100
AcDbLine
 10
75.41758067710873
 20
98.19647815885128
 30
0.0
 11
75.41758067710873
 21
85.1964781588513
 31
0.0
  0
ARC
  5
577
330
1F
100
AcDbEntity
  8
0
100
AcDbCircle
 10
61.91758067710875
 20
98.19647815885128
 30
0.0
 40
0.5
100
AcDbArc
 50
90.0
 51
180.0
  0
ARC
  5
578
330
1F
100
AcDbEntity
  8
0
100
AcDbCircle
 10
74.91758067710875
 20
98.19647815885128
 30
0.0
 40
0.5
100
AcDbArc
 50
0.0
 51
90.0
  0
ARC
  5
579
330
1F
100
AcDbEntity
  8
0
100
AcDbCircle
 10
61.91758067710875
 20
85.1964781588513
 30
0.0
 40
0.5
100
AcDbArc
 50
180.0
 51
270.0
  0
ARC
  5
57A
330
1F
100
AcDbEntity
  8
0
100
AcDbCircle
 10
74.91758067710875
 20
85.1964781588513
 30
0.0
 40
0.5
100
AcDbArc
 50
270.0
 51
0.0
  0
LINE
  5
57B
330
1F
100
AcDbEntity
  8
0
100
AcDbLine
 10
100.0175806771087
 20
98.6964781588513
 30
0.0
 11
113.0175806771088
 21
98.6964781588513
 31
0.0
  0
LINE
  5
57C
330
1F
100
AcDbEntity
  8
0
100
AcDbLine
 10
100.0175806771087
 20
84.69647815885128
 30
0.0
 11
113.0175806771088
 21
84.69647815885128
 31
0.0
  0
LINE
  5
57D
330
1F
100
AcDbEntity
  8
0
100
AcDbLine
 10
99.51758067710878
 20
98.19647815885128
 30
0.0
 11
99.51758067710878
 21
85.1964781588513
 31
0.0
  0
LINE
  5
57E
330
1F
100
AcDbEntity
  8
0
100
AcDbLine
 10
113.5175806771087
 20
98.19647815885128
 30
0.0
 11
113.5175806771087
 21
85.1964781588513
 31
0.0
  0
ARC
  5
57F
330
1F
100
AcDbEntity
  8
0
100
AcDbCircle
 10
100.0175806771087
 20
98.19647815885128
 30
0.0
 40
0.5
100
AcDbArc
 50
90.0
 51
180.0
  0
ARC
  5
580
330
1F
100
AcDbEntity
  8
0
100
AcDbCircle
 10
113.0175806771088
 20
98.19647815885128
 30
0.0
 40
0.5
100
AcDbArc
 50
0.0
 51
90.0
  0
ARC
  5
581
330
1F
100
AcDbEntity
  8
0
100
AcDbCircle
 10
100.0175806771087
 20
85.1964781588513
 30
0.0
 40
0.5
100
AcDbArc
 50
180.0
 51
270.0
  0
ARC
  5
582
330
1F
100
AcDbEntity
  8
0
100
AcDbCircle
 10
113.0175806771088
 20
85.1964781588513
 30
0.0
 40
0.5
100
AcDbArc
 50
270.0
 51
0.0
  0
LINE
  5
583
330
1F
100
AcDbEntity
  8
0
100
AcDbLine
 10
119.0675806771087
 20
96.4104781588513
 30
0.0
 11
132.0675806771087
 21
96.4104781588513
 31
0.0
  0
LINE
  5
584
330
1F
100
AcDbEntity
  8
0
100
AcDbLine
 10
119.0675806771087
 20
82.41047815885128
 30
0.0
 11
132.0675806771087
 21
82.41047815885128
 31
0.0
  0
LINE
  5
585
330
1F
100
AcDbEntity
  8
0
100
AcDbLine
 10
118.5675806771088
 20
95.91047815885128
 30
0.0
 11
118.5675806771088
 21
82.9104781588513
 31
0.0
  0
LINE
  5
586
330
1F
100
AcDbEntity
  8
0
100
AcDbLine
 10
132.5675806771086
 20
95.91047815885128
 30
0.0
 11
132.5675806771086
 21
82.9104781588513
 31
0.0
  0
ARC
  5
587
330
1F
100
AcDbEntity
  8
0
100
AcDbCircle
 10
119.0675806771087
 20
95.91047815885128
 30
0.0
 40
0.5
100
AcDbArc
 50
90.0
 51
180.0
  0
ARC
  5
588
330
1F
100
AcDbEntity
  8
0
100
AcDbCircle
 10
132.0675806771087
 20
95.91047815885128
 30
0.0
 40
0.5
100
AcDbArc
 50
0.0
 51
90.0
  0
ARC
  5
589
330
1F
100
AcDbEntity
  8
0
100
AcDbCircle
 10
119.0675806771087
 20
82.9104781588513
 30
0.0
 40
0.5
100
AcDbArc
 50
180.0
 51
270.0
  0
ARC
  5
58A
330
1F
100
AcDbEntity
  8
0
100
AcDbCircle
 10
132.0675806771087
 20
82.9104781588513
 30
0.0
 40
0.5
100
AcDbArc
 50
270.0
 51
0.0
  0
LINE
  5
58B
330
1F
100
AcDbEntity
  8
0
100
AcDbLine
 10
42.86758067710876
 20
91.6479781588513
 30
0.0
 11
55.86758067710874
 21
91.6479781588513
 31
0.0
  0
LINE
  5
58C
330
1F
100
AcDbEntity
  8
0
100
AcDbLine
 10
42.86758067710876
 20
77.6479781588513
 30
0.0
 11
55.86758067710874
 21
77.6479781588513
 31
0.0
  0
LINE
  5
58D
330
1F
100
AcDbEntity
  8
0
100
AcDbLine
 10
42.36758067710876
 20
91.14797815885131
 30
0.0
 11
42.36758067710876
 21
78.1479781588513
 31
0.0
  0
LINE
  5
58E
330
1F
100
AcDbEntity
  8
0
100
AcDbLine
 10
56.36758067710875
 20
91.14797815885131
 30
0.0
 11
56.36758067710875
 21
78.1479781588513
 31
0.0
  0
ARC
  5
58F
330
1F
100
AcDbEntity
  8
0
100
AcDbCircle
 10
42.86758067710876
 20
91.14797815885131
 30
0.0
 40
0.5
100
AcDbArc
 50
90.0
 51
180.0
  0
ARC
  5
590
330
1F
100
AcDbEntity
  8
0
100
AcDbCircle
 10
55.86758067710874
 20
91.14797815885131
 30
0.0
 40
0.5
100
AcDbArc
 50
0.0
 51
90.0
  0
ARC
  5
591
330
1F
100
AcDbEntity
  8
0
100
AcDbCircle
 10
42.86758067710876
 20
78.1479781588513
 30
0.0
 40
0.5
100
AcDbArc
 50
180.0
 51
270.0
  0
ARC
  5
592
330
1F
100
AcDbEntity
  8
0
100
AcDbCircle
 10
55.86758067710874
 20
78.1479781588513
 30
0.0
 40
0.5
100
AcDbArc
 50
270.0
 51
0.0
  0
LINE
  5
593
330
1F
100
AcDbEntity
  8
0
100
AcDbLine
 10
23.81758067710876
 20
89.1714781588513
 30
0.0
 11
36.81758067710876
 21
89.1714781588513
 31
0.0
  0
LINE
  5
594
330
1F
100
AcDbEntity
  8
0
100
AcDbLine
 10
23.81758067710876
 20
75.1714781588513
 30
0.0
 11
36.81758067710876
 21
75.1714781588513
 31
0.0
  0
LINE
  5
595
330
1F
100
AcDbEntity
  8
0
100
AcDbLine
 10
23.31758067710877
 20
88.67147815885131
 30
0.0
 11
23.31758067710877
 21
75.6714781588513
 31
0.0
  0
LINE
  5
596
330
1F
100
AcDbEntity
  8
0
100
AcDbLine
 10
37.31758067710875
 20
88.67147815885131
 30
0.0
 11
37.31758067710875
 21
75.6714781588513
 31
0.0
  0
ARC
  5
597
330
1F
100
AcDbEntity
  8
0
100
AcDbCircle
 10
23.81758067710876
 20
88.67147815885131
 30
0.0
 40
0.5
100
AcDbArc
 50
90.0
 51
180.0
  0
ARC
  5
598
330
1F
100
AcDbEntity
  8
0
100
AcDbCircle
 10
36.81758067710876
 20
88.67147815885131
 30
0.0
 40
0.5
100
AcDbArc
 50
0.0
 51
90.0
  0
ARC
  5
599
330
1F
100
AcDbEntity
  8
0
100
AcDbCircle
 10
23.81758067710876
 20
75.6714781588513
 30
0.0
 40
0.5
100
AcDbArc
 50
180.0
 51
270.0
  0
ARC
  5
59A
330
1F
100
AcDbEntity
  8
0
100
AcDbCircle
 10
36.81758067710876
 20
75.6714781588513
 30
0.0
 40
0.5
100
AcDbArc
 50
270.0
 51
0.0
  0
LINE
  5
59B
330
1F
100
AcDbEntity
  8
0
100
AcDbLine
 10
80.96758067710878
 20
84.40897815885129
 30
0.0
 11
93.96758067710878
 21
84.40897815885129
 31
0.0
  0
LINE
  5
59C
330
1F
100
AcDbEntity
  8
0
100
AcDbLine
 10
80.96758067710878
 20
70.40897815885131
 30
0.0
 11
93.96758067710878
 21
70.40897815885131
 31
0.0
  0
LINE
  5
59D
330
1F
100
AcDbEntity
  8
0
100
AcDbLine
 10
80.46758067710877
 20
83.9089781588513
 30
0.0
 11
80.46758067710877
 21
70.90897815885131
 31
0.0
  0
LINE
  5
59E
330
1F
100
AcDbEntity
  8
0
100
AcDbLine
 10
94.46758067710868
 20
83.9089781588513
 30
0.0
 11
94.46758067710868
 21
70.90897815885131
 31
0.0
  0
ARC
  5
59F
330
1F
100
AcDbEntity
  8
0
100
AcDbCircle
 10
80.96758067710878
 20
83.9089781588513
 30
0.0
 40
0.5
100
AcDbArc
 50
90.0
 51
180.0
  0
ARC
  5
5A0
330
1F
100
AcDbEntity
  8
0
100
AcDbCircle
 10
93.96758067710878
 20
83.9089781588513
 30
0.0
 40
0.5
100
AcDbArc
 50
0.0
 51
90.0
  0
ARC
  5
5A1
330
1F
100
AcDbEntity
  8
0
100
AcDbCircle
 10
80.96758067710878
 20
70.90897815885131
 30
0.0
 40
0.5
100
AcDbArc
 50
180.0
 51
270.0
  0
ARC
  5
5A2
330
1F
100
AcDbEntity
  8
0
100
AcDbCircle
 10
93.96758067710878
 20
70.90897815885131
 30
0.0
 40
0.5
100
AcDbArc
 50
270.0
 51
0.0
  0
LINE
  5
5A3
330
1F
100
AcDbEntity
  8
0
100
AcDbLine
 10
61.91758067710875
 20
79.64647815885129
 30
0.0
 11
74.91758067710875
 21
79.64647815885129
 31
0.0
  0
LINE
  5
5A4
330
1F
100
AcDbEntity
  8
0
100
AcDbLine
 10
61.91758067710875
 20
65.6464781588513
 30
0.0
 11
74.91758067710875
 21
65.6464781588513
 31
0.0
  0
LINE
  5
5A5
330
1F
100
AcDbEntity
  8
0
100
AcDbLine
 10
61.41758067710874
 20
79.14647815885129
 30
0.0
 11
61.41758067710874
 21
66.14647815885131
 31
0.0
  0
LINE
  5
5A6
330
1F
100
AcDbEntity
  8
0
100
AcDbLine
 10
75.41758067710873
 20
79.14647815885129
 30
0.0
 11
75.41758067710873
 21
66.14647815885131
 31
0.0
  0
ARC
  5
5A7
330
1F
100
AcDbEntity
  8
0
100
AcDbCircle
 10
61.91758067710875
 20
79.14647815885129
 30
0.0
 40
0.5
100
AcDbArc
 50
90.0
 51
180.0
  0
ARC
  5
5A8
330
1F
100
AcDbEntity
  8
0
100
AcDbCircle
 10
74.91758067710875
 20
79.14647815885129
 30
0.0
 40
0.5
100
AcDbArc
 50
0.0
 51
90.0
  0
ARC
  5
5A9
330
1F
100
AcDbEntity
  8
0
100
AcDbCircle
 10
61.91758067710875
 20
66.14647815885131
 30
0.0
 40
0.5
100
AcDbArc
 50
180.0
 51
270.0
  0
ARC
  5
5AA
330
1F
100
AcDbEntity
  8
0
100
AcDbCircle
 10
74.91758067710875
 20
66.14647815885131
 30
0.0
 40
0.5
100
AcDbArc
 50
270.0
 51
0.0
  0
LINE
  5
5AB
330
1F
100
AcDbEntity
  8
0
100
AcDbLine
 10
100.0175806771087
 20
79.64647815885129
 30
0.0
 11
113.0175806771088
 21
79.64647815885129
 31
0.0
  0
LINE
  5
5AC
330
1F
100
AcDbEntity
  8
0
100
AcDbLine
 10
100.0175806771087
 20
65.6464781588513
 30
0.0
 11
113.0175806771088
 21
65.6464781588513
 31
0.0
  0
LINE
  5
5AD
330
1F
100
AcDbEntity
  8
0
100
AcDbLine
 10
99.51758067710878
 20
79.14647815885129
 30
0.0
 11
99.51758067710878
 21
66.14647815885131
 31
0.0
  0
LINE
  5
5AE
330
1F
100
AcDbEntity
  8
0
100
AcDbLine
 10
113.5175806771087
 20
79.14647815885129
 30
0.0
 11
113.5175806771087
 21
66.14647815885131
 31
0.0
  0
ARC
  5
5AF
330
1F
100
AcDbEntity
  8
0
100
AcDbCircle
 10
100.0175806771087
 20
79.14647815885129
 30
0.0
 40
0.5
100
AcDbArc
 50
90.0
 51
180.0
  0
ARC
  5
5B0
330
1F
100
AcDbEntity
  8
0
100
AcDbCircle
 10
113.0175806771088
 20
79.14647815885129
 30
0.0
 40
0.5
100
AcDbArc
 50
0.0
 51
90.0
  0
ARC
  5
5B1
330
1F
100
AcDbEntity
  8
0
100
AcDbCircle
 10
100.0175806771087
 20
66.14647815885131
 30
0.0
 40
0.5
100
AcDbArc
 50
180.0
 51
270.0
  0
ARC
  5
5B2
330
1F
100
AcDbEntity
  8
0
100
AcDbCircle
 10
113.0175806771088
 20
66.14647815885131
 30
0.0
 40
0.5
100
AcDbArc
 50
270.0
 51
0.0
  0
LINE
  5
5B3
330
1F
100
AcDbEntity
  8
0
100
AcDbLine
 10
119.0675806771087
 20
77.36047815885129
 30
0.0
 11
132.0675806771087
 21
77.36047815885129
 31
0.0
  0
LINE
  5
5B4
330
1F
100
AcDbEntity
  8
0
100
AcDbLine
 10
119.0675806771087
 20
63.36047815885128
 30
0.0
 11
132.0675806771087
 21
63.36047815885128
 31
0.0
  0
LINE
  5
5B5
330
1F
100
AcDbEntity
  8
0
100
AcDbLine
 10
118.5675806771088
 20
76.86047815885129
 30
0.0
 11
118.5675806771088
 21
63.86047815885127
 31
0.0
  0
LINE
  5
5B6
330
1F
100
AcDbEntity
  8
0
100
AcDbLine
 10
132.5675806771086
 20
76.86047815885129
 30
0.0
 11
132.5675806771086
 21
63.86047815885127
 31
0.0
  0
ARC
  5
5B7
330
1F
100
AcDbEntity
  8
0
100
AcDbCircle
 10
119.0675806771087
 20
76.86047815885129
 30
0.0
 40
0.5
100
AcDbArc
 50
90.0
 51
180.0
  0
ARC
  5
5B8
330
1F
100
AcDbEntity
  8
0
100
AcDbCircle
 10
132.0675806771087
 20
76.86047815885129
 30
0.0
 40
0.5
100
AcDbArc
 50
0.0
 51
90.0
  0
ARC
  5
5B9
330
1F
100
AcDbEntity
  8
0
100
AcDbCircle
 10
119.0675806771087
 20
63.86047815885127
 30
0.0
 40
0.5
100
AcDbArc
 50
180.0
 51
270.0
  0
ARC
  5
5BA
330
1F
100
AcDbEntity
  8
0
100
AcDbCircle
 10
132.0675806771087
 20
63.86047815885127
 30
0.0
 40
0.5
100
AcDbArc
 50
270.0
 51
0.0
  0
LINE
  5
5BB
330
1F
100
AcDbEntity
  8
0
100
AcDbLine
 10
42.86758067710876
 20
72.5979781588513
 30
0.0
 11
55.86758067710874
 21
72.5979781588513
 31
0.0
  0
LINE
  5
5BC
330
1F
100
AcDbEntity
  8
0
100
AcDbLine
 10
42.86758067710876
 20
58.5979781588513
 30
0.0
 11
55.86758067710874
 21
58.5979781588513
 31
0.0
  0
LINE
  5
5BD
330
1F
100
AcDbEntity
  8
0
100
AcDbLine
 10
42.36758067710876
 20
72.09797815885131
 30
0.0
 11
42.36758067710876
 21
59.09797815885129
 31
0.0
  0
LINE
  5
5BE
330
1F
100
AcDbEntity
  8
0
100
AcDbLine
 10
56.36758067710875
 20
72.09797815885131
 30
0.0
 11
56.36758067710875
 21
59.09797815885129
 31
0.0
  0
ARC
  5
5BF
330
1F
100
AcDbEntity
  8
0
100
AcDbCircle
 10
42.86758067710876
 20
72.09797815885131
 30
0.0
 40
0.5
100
AcDbArc
 50
90.0
 51
180.0
  0
ARC
  5
5C0
330
1F
100
AcDbEntity
  8
0
100
AcDbCircle
 10
55.86758067710874
 20
72.09797815885131
 30
0.0
 40
0.5
100
AcDbArc
 50
0.0
 51
90.0
  0
ARC
  5
5C1
330
1F
100
AcDbEntity
  8
0
100
AcDbCircle
 10
42.86758067710876
 20
59.09797815885129
 30
0.0
 40
0.5
100
AcDbArc
 50
180.0
 51
270.0
  0
ARC
  5
5C2
330
1F
100
AcDbEntity
  8
0
100
AcDbCircle
 10
55.86758067710874
 20
59.09797815885129
 30
0.0
 40
0.5
100
AcDbArc
 50
270.0
 51
0.0
  0
LINE
  5
5C3
330
1F
100
AcDbEntity
  8
0
100
AcDbLine
 10
23.81758067710876
 20
70.1214781588513
 30
0.0
 11
36.81758067710876
 21
70.1214781588513
 31
0.0
  0
LINE
  5
5C4
330
1F
100
AcDbEntity
  8
0
100
AcDbLine
 10
23.81758067710876
 20
56.12147815885129
 30
0.0
 11
36.81758067710876
 21
56.12147815885129
 31
0.0
  0
LINE
  5
5C5
330
1F
100
AcDbEntity
  8
0
100
AcDbLine
 10
23.31758067710877
 20
69.6214781588513
 30
0.0
 11
23.31758067710877
 21
56.62147815885129
 31
0.0
  0
LINE
  5
5C6
330
1F
100
AcDbEntity
  8
0
100
AcDbLine
 10
37.31758067710875
 20
69.6214781588513
 30
0.0
 11
37.31758067710875
 21
56.62147815885129
 31
0.0
  0
ARC
  5
5C7
330
1F
100
AcDbEntity
  8
0
100
AcDbCircle
 10
23.81758067710876
 20
69.6214781588513
 30
0.0
 40
0.5
100
AcDbArc
 50
90.0
 51
180.0
  0
ARC
  5
5C8
330
1F
100
AcDbEntity
  8
0
100
AcDbCircle
 10
36.81758067710876
 20
69.6214781588513
 30
0.0
 40
0.5
100
AcDbArc
 50
0.0
 51
90.0
  0
ARC
  5
5C9
330
1F
100
AcDbEntity
  8
0
100
AcDbCircle
 10
23.81758067710876
 20
56.62147815885129
 30
0.0
 40
0.5
100
AcDbArc
 50
180.0
 51
270.0
  0
ARC
  5
5CA
330
1F
100
AcDbEntity
  8
0
100
AcDbCircle
 10
36.81758067710876
 20
56.62147815885129
 30
0.0
 40
0.5
100
AcDbArc
 50
270.0
 51
0.0
  0
LINE
  5
5CB
330
1F
100
AcDbEntity
  8
0
100
AcDbLine
 10
80.96758067710878
 20
65.3589781588513
 30
0.0
 11
93.96758067710878
 21
65.3589781588513
 31
0.0
  0
LINE
  5
5CC
330
1F
100
AcDbEntity
  8
0
100
AcDbLine
 10
80.96758067710878
 20
51.3589781588513
 30
0.0
 11
93.96758067710878
 21
51.3589781588513
 31
0.0
  0
LINE
  5
5CD
330
1F
100
AcDbEntity
  8
0
100
AcDbLine
 10
80.46758067710877
 20
64.8589781588513
 30
0.0
 11
80.46758067710877
 21
51.8589781588513
 31
0.0
  0
LINE
  5
5CE
330
1F
100
AcDbEntity
  8
0
100
AcDbLine
 10
94.46758067710868
 20
64.8589781588513
 30
0.0
 11
94.46758067710868
 21
51.8589781588513
 31
0.0
  0
ARC
  5
5CF
330
1F
100
AcDbEntity
  8
0
100
AcDbCircle
 10
80.96758067710878
 20
64.8589781588513
 30
0.0
 40
0.5
100
AcDbArc
 50
90.0
 51
180.0
  0
ARC
  5
5D0
330
1F
100
AcDbEntity
  8
0
100
AcDbCircle
 10
93.96758067710878
 20
64.8589781588513
 30
0.0
 40
0.5
100
AcDbArc
 50
0.0
 51
90.0
  0
ARC
  5
5D1
330
1F
100
AcDbEntity
  8
0
100
AcDbCircle
 10
80.96758067710878
 20
51.8589781588513
 30
0.0
 40
0.5
100
AcDbArc
 50
180.0
 51
270.0
  0
ARC
  5
5D2
330
1F
100
AcDbEntity
  8
0
100
AcDbCircle
 10
93.96758067710878
 20
51.8589781588513
 30
0.0
 40
0.5
100
AcDbArc
 50
270.0
 51
0.0
  0
LINE
  5
5D3
330
1F
100
AcDbEntity
  8
0
100
AcDbLine
 10
61.91758067710875
 20
60.59647815885131
 30
0.0
 11
74.91758067710875
 21
60.59647815885131
 31
0.0
  0
LINE
  5
5D4
330
1F
100
AcDbEntity
  8
0
100
AcDbLine
 10
61.91758067710875
 20
46.59647815885128
 30
0.0
 11
74.91758067710875
 21
46.59647815885128
 31
0.0
  0
LINE
  5
5D5
330
1F
100
AcDbEntity
  8
0
100
AcDbLine
 10
61.41758067710874
 20
60.09647815885131
 30
0.0
 11
61.41758067710874
 21
47.09647815885129
 31
0.0
  0
LINE
  5
5D6
330
1F
100
AcDbEntity
  8
0
100
AcDbLine
 10
75.41758067710873
 20
60.09647815885131
 30
0.0
 11
75.41758067710873
 21
47.09647815885129
 31
0.0
  0
ARC
  5
5D7
330
1F
100
AcDbEntity
  8
0
100
AcDbCircle
 10
61.91758067710875
 20
60.09647815885131
 30
0.0
 40
0.5
100
AcDbArc
 50
90.0
 51
180.0
  0
ARC
  5
5D8
330
1F
100
AcDbEntity
  8
0
100
AcDbCircle
 10
74.91758067710875
 20
60.09647815885131
 30
0.0
 40
0.5
100
AcDbArc
 50
0.0
 51
90.0
  0
ARC
  5
5D9
330
1F
100
AcDbEntity
  8
0
100
AcDbCircle
 10
61.91758067710875
 20
47.09647815885129
 30
0.0
 40
0.5
100
AcDbArc
 50
180.0
 51
270.0
  0
ARC
  5
5DA
330
1F
100
AcDbEntity
  8
0
100
AcDbCircle
 10
74.91758067710875
 20
47.09647815885129
 30
0.0
 40
0.5
100
AcDbArc
 50
270.0
 51
0.0
  0
LINE
  5
5DB
330
1F
100
AcDbEntity
  8
0
100
AcDbLine
 10
100.0175806771087
 20
60.59647815885131
 30
0.0
 11
113.0175806771088
 21
60.59647815885131
 31
0.0
  0
LINE
  5
5DC
330
1F
100
AcDbEntity
  8
0
100
AcDbLine
 10
100.0175806771087
 20
46.59647815885128
 30
0.0
 11
113.0175806771088
 21
46.59647815885128
 31
0.0
  0
LINE
  5
5DD
330
1F
100
AcDbEntity
  8
0
100
AcDbLine
 10
99.51758067710878
 20
60.09647815885131
 30
0.0
 11
99.51758067710878
 21
47.09647815885129
 31
0.0
  0
LINE
  5
5DE
330
1F
100
AcDbEntity
  8
0
100
AcDbLine
 10
113.5175806771087
 20
60.09647815885131
 30
0.0
 11
113.5175806771087
 21
47.09647815885129
 31
0.0
  0
ARC
  5
5DF
330
1F
100
AcDbEntity
  8
0
100
AcDbCircle
 10
100.0175806771087
 20
60.09647815885131
 30
0.0
 40
0.5
100
AcDbArc
 50
90.0
 51
180.0
  0
ARC
  5
5E0
330
1F
100
AcDbEntity
  8
0
100
AcDbCircle
 10
113.0175806771088
 20
60.09647815885131
 30
0.0
 40
0.5
100
AcDbArc
 50
0.0
 51
90.0
  0
ARC
  5
5E1
330
1F
100
AcDbEntity
  8
0
100
AcDbCircle
 10
100.0175806771087
 20
47.09647815885129
 30
0.0
 40
0.5
100
AcDbArc
 50
180.0
 51
270.0
  0
ARC
  5
5E2
330
1F
100
AcDbEntity
  8
0
100
AcDbCircle
 10
113.0175806771088
 20
47.09647815885129
 30
0.0
 40
0.5
100
AcDbArc
 50
270.0
 51
0.0
  0
LINE
  5
5E3
330
1F
100
AcDbEntity
  8
0
100
AcDbLine
 10
119.0675806771087
 20
58.31047815885129
 30
0.0
 11
132.0675806771087
 21
58.31047815885129
 31
0.0
  0
LINE
  5
5E4
330
1F
100
AcDbEntity
  8
0
100
AcDbLine
 10
119.0675806771087
 20
44.31047815885128
 30
0.0
 11
132.0675806771087
 21
44.31047815885128
 31
0.0
  0
LINE
  5
5E5
330
1F
100
AcDbEntity
  8
0
100
AcDbLine
 10
118.5675806771088
 20
57.81047815885129
 30
0.0
 11
118.5675806771088
 21
44.81047815885129
 31
0.0
  0
LINE
  5
5E6
330
1F
100
AcDbEntity
  8
0
100
AcDbLine
 10
132.5675806771086
 20
57.81047815885129
 30
0.0
 11
132.5675806771086
 21
44.81047815885129
 31
0.0
  0
ARC
  5
5E7
330
1F
100
AcDbEntity
  8
0
100
AcDbCircle
 10
119.0675806771087
 20
57.81047815885129
 30
0.0
 40
0.5
100
AcDbArc
 50
90.0
 51
180.0
  0
ARC
  5
5E8
330
1F
100
AcDbEntity
  8
0
100
AcDbCircle
 10
132.0675806771087
 20
57.81047815885129
 30
0.0
 40
0.5
100
AcDbArc
 50
0.0
 51
90.0
  0
ARC
  5
5E9
330
1F
100
AcDbEntity
  8
0
100
AcDbCircle
 10
119.0675806771087
 20
44.81047815885129
 30
0.0
 40
0.5
100
AcDbArc
 50
180.0
 51
270.0
  0
ARC
  5
5EA
330
1F
100
AcDbEntity
  8
0
100
AcDbCircle
 10
132.0675806771087
 20
44.81047815885129
 30
0.0
 40
0.5
100
AcDbArc
 50
270.0
 51
0.0
  0
LINE
  5
5EB
330
1F
100
AcDbEntity
  8
0
100
AcDbLine
 10
4.767580677108758
 20
55.83397815885128
 30
0.0
 11
17.76758067710877
 21
55.83397815885128
 31
0.0
  0
LINE
  5
5EC
330
1F
100
AcDbEntity
  8
0
100
AcDbLine
 10
4.767580677108758
 20
41.83397815885128
 30
0.0
 11
17.76758067710877
 21
41.83397815885128
 31
0.0
  0
LINE
  5
5ED
330
1F
100
AcDbEntity
  8
0
100
AcDbLine
 10
4.267580677108758
 20
55.33397815885129
 30
0.0
 11
4.267580677108758
 21
42.33397815885131
 31
0.0
  0
LINE
  5
5EE
330
1F
100
AcDbEntity
  8
0
100
AcDbLine
 10
18.26758067710876
 20
55.33397815885129
 30
0.0
 11
18.26758067710876
 21
42.33397815885131
 31
0.0
  0
ARC
  5
5EF
330
1F
100
AcDbEntity
  8
0
100
AcDbCircle
 10
4.767580677108758
 20
55.33397815885129
 30
0.0
 40
0.5
100
AcDbArc
 50
90.0
 51
180.0
  0
ARC
  5
5F0
330
1F
100
AcDbEntity
  8
0
100
AcDbCircle
 10
17.76758067710877
 20
55.33397815885129
 30
0.0
 40
0.5
100
AcDbArc
 50
0.0
 51
90.0
  0
ARC
  5
5F1
330
1F
100
AcDbEntity
  8
0
100
AcDbCircle
 10
4.767580677108758
 20
42.33397815885131
 30
0.0
 40
0.5
100
AcDbArc
 50
180.0
 51
270.0
  0
ARC
  5
5F2
330
1F
100
AcDbEntity
  8
0
100
AcDbCircle
 10
17.76758067710877
 20
42.33397815885131
 30
0.0
 40
0.5
100
AcDbArc
 50
270.0
 51
0.0
  0
LINE
  5
5F3
330
1F
100
AcDbEntity
  8
0
100
AcDbLine
 10
42.86758067710876
 20
53.5479781588513
 30
0.0
 11
55.86758067710874
 21
53.5479781588513
 31
0.0
  0
LINE
  5
5F4
330
1F
100
AcDbEntity
  8
0
100
AcDbLine
 10
42.86758067710876
 20
39.54797815885129
 30
0.0
 11
55.86758067710874
 21
39.54797815885129
 31
0.0
  0
LINE
  5
5F5
330
1F
100
AcDbEntity
  8
0
100
AcDbLine
 10
42.36758067710876
 20
53.0479781588513
 30
0.0
 11
42.36758067710876
 21
40.04797815885129
 31
0.0
  0
LINE
  5
5F6
330
1F
100
AcDbEntity
  8
0
100
AcDbLine
 10
56.36758067710875
 20
53.0479781588513
 30
0.0
 11
56.36758067710875
 21
40.04797815885129
 31
0.0
  0
ARC
  5
5F7
330
1F
100
AcDbEntity
  8
0
100
AcDbCircle
 10
42.86758067710876
 20
53.0479781588513
 30
0.0
 40
0.5
100
AcDbArc
 50
90.0
 51
180.0
  0
ARC
  5
5F8
330
1F
100
AcDbEntity
  8
0
100
AcDbCircle
 10
55.86758067710874
 20
53.0479781588513
 30
0.0
 40
0.5
100
AcDbArc
 50
0.0
 51
90.0
  0
ARC
  5
5F9
330
1F
100
AcDbEntity
  8
0
100
AcDbCircle
 10
42.86758067710876
 20
40.04797815885129
 30
0.0
 40
0.5
100
AcDbArc
 50
180.0
 51
270.0
  0
ARC
  5
5FA
330
1F
100
AcDbEntity
  8
0
100
AcDbCircle
 10
55.86758067710874
 20
40.04797815885129
 30
0.0
 40
0.5
100
AcDbArc
 50
270.0
 51
0.0
  0
LINE
  5
5FB
330
1F
100
AcDbEntity
  8
0
100
AcDbLine
 10
23.81758067710876
 20
51.0714781588513
 30
0.0
 11
36.81758067710876
 21
51.0714781588513
 31
0.0
  0
LINE
  5
5FC
330
1F
100
AcDbEntity
  8
0
100
AcDbLine
 10
23.81758067710876
 20
37.07147815885129
 30
0.0
 11
36.81758067710876
 21
37.07147815885129
 31
0.0
  0
LINE
  5
5FD
330
1F
100
AcDbEntity
  8
0
100
AcDbLine
 10
23.31758067710877
 20
50.5714781588513
 30
0.0
 11
23.31758067710877
 21
37.57147815885132
 31
0.0
  0
LINE
  5
5FE
330
1F
100
AcDbEntity
  8
0
100
AcDbLine
 10
37.31758067710875
 20
50.5714781588513
 30
0.0
 11
37.31758067710875
 21
37.57147815885132
 31
0.0
  0
ARC
  5
5FF
330
1F
100
AcDbEntity
  8
0
100
AcDbCircle
 10
23.81758067710876
 20
50.5714781588513
 30
0.0
 40
0.5
100
AcDbArc
 50
90.0
 51
180.0
  0
ARC
  5
600
330
1F
100
AcDbEntity
  8
0
100
AcDbCircle
 10
36.81758067710876
 20
50.5714781588513
 30
0.0
 40
0.5
100
AcDbArc
 50
0.0
 51
90.0
  0
ARC
  5
601
330
1F
100
AcDbEntity
  8
0
100
AcDbCircle
 10
23.81758067710876
 20
37.57147815885132
 30
0.0
 40
0.5
100
AcDbArc
 50
180.0
 51
270.0
  0
ARC
  5
602
330
1F
100
AcDbEntity
  8
0
100
AcDbCircle
 10
36.81758067710876
 20
37.57147815885132
 30
0.0
 40
0.5
100
AcDbArc
 50
270.0
 51
0.0
  0
LINE
  5
603
330
1F
100
AcDbEntity
  8
0
100
AcDbLine
 10
80.96758067710878
 20
46.30897815885129
 30
0.0
 11
93.96758067710878
 21
46.30897815885129
 31
0.0
  0
LINE
  5
604
330
1F
100
AcDbEntity
  8
0
100
AcDbLine
 10
80.96758067710878
 20
32.30897815885131
 30
0.0
 11
93.96758067710878
 21
32.30897815885131
 31
0.0
  0
LINE
  5
605
330
1F
100
AcDbEntity
  8
0
100
AcDbLine
 10
80.46758067710877
 20
45.80897815885129
 30
0.0
 11
80.46758067710877
 21
32.8089781588513
 31
0.0
  0
LINE
  5
606
330
1F
100
AcDbEntity
  8
0
100
AcDbLine
 10
94.46758067710868
 20
45.80897815885129
 30
0.0
 11
94.46758067710868
 21
32.8089781588513
 31
0.0
  0
ARC
  5
607
330
1F
100
AcDbEntity
  8
0
100
AcDbCircle
 10
80.96758067710878
 20
45.80897815885129
 30
0.0
 40
0.5
100
AcDbArc
 50
90.0
 51
180.0
  0
ARC
  5
608
330
1F
100
AcDbEntity
  8
0
100
AcDbCircle
 10
93.96758067710878
 20
45.80897815885129
 30
0.0
 40
0.5
100
AcDbArc
 50
0.0
 51
90.0
  0
ARC
  5
609
330
1F
100
AcDbEntity
  8
0
100
AcDbCircle
 10
80.96758067710878
 20
32.8089781588513
 30
0.0
 40
0.5
100
AcDbArc
 50
180.0
 51
270.0
  0
ARC
  5
60A
330
1F
100
AcDbEntity
  8
0
100
AcDbCircle
 10
93.96758067710878
 20
32.8089781588513
 30
0.0
 40
0.5
100
AcDbArc
 50
270.0
 51
0.0
  0
LINE
  5
60B
330
1F
100
AcDbEntity
  8
0
100
AcDbLine
 10
61.91758067710875
 20
41.54647815885128
 30
0.0
 11
74.91758067710875
 21
41.54647815885128
 31
0.0
  0
LINE
  5
60C
330
1F
100
AcDbEntity
  8
0
100
AcDbLine
 10
61.91758067710875
 20
27.5464781588513
 30
0.0
 11
74.91758067710875
 21
27.5464781588513
 31
0.0
  0
LINE
  5
60D
330
1F
100
AcDbEntity
  8
0
100
AcDbLine
 10
61.41758067710874
 20
41.04647815885129
 30
0.0
 11
61.41758067710874
 21
28.0464781588513
 31
0.0
  0
LINE
  5
60E
330
1F
100
AcDbEntity
  8
0
100
AcDbLine
 10
75.41758067710873
 20
41.04647815885129
 30
0.0
 11
75.41758067710873
 21
28.0464781588513
 31
0.0
  0
ARC
  5
60F
330
1F
100
AcDbEntity
  8
0
100
AcDbCircle
 10
61.91758067710875
 20
41.04647815885129
 30
0.0
 40
0.5
100
AcDbArc
 50
90.0
 51
180.0
  0
ARC
  5
610
330
1F
100
AcDbEntity
  8
0
100
AcDbCircle
 10
74.91758067710875
 20
41.04647815885129
 30
0.0
 40
0.5
100
AcDbArc
 50
0.0
 51
90.0
  0
ARC
  5
611
330
1F
100
AcDbEntity
  8
0
100
AcDbCircle
 10
61.91758067710875
 20
28.0464781588513
 30
0.0
 40
0.5
100
AcDbArc
 50
180.0
 51
270.0
  0
ARC
  5
612
330
1F
100
AcDbEntity
  8
0
100
AcDbCircle
 10
74.91758067710875
 20
28.0464781588513
 30
0.0
 40
0.5
100
AcDbArc
 50
270.0
 51
0.0
  0
LINE
  5
613
330
1F
100
AcDbEntity
  8
0
100
AcDbLine
 10
100.0175806771087
 20
41.54647815885128
 30
0.0
 11
113.0175806771088
 21
41.54647815885128
 31
0.0
  0
LINE
  5
614
330
1F
100
AcDbEntity
  8
0
100
AcDbLine
 10
100.0175806771087
 20
27.5464781588513
 30
0.0
 11
113.0175806771088
 21
27.5464781588513
 31
0.0
  0
LINE
  5
615
330
1F
100
AcDbEntity
  8
0
100
AcDbLine
 10
99.51758067710878
 20
41.04647815885129
 30
0.0
 11
99.51758067710878
 21
28.0464781588513
 31
0.0
  0
LINE
  5
616
330
1F
100
AcDbEntity
  8
0
100
AcDbLine
 10
113.5175806771087
 20
41.04647815885129
 30
0.0
 11
113.5175806771087
 21
28.0464781588513
 31
0.0
  0
ARC
  5
617
330
1F
100
AcDbEntity
  8
0
100
AcDbCircle
 10
100.0175806771087
 20
41.04647815885129
 30
0.0
 40
0.5
100
AcDbArc
 50
90.0
 51
180.0
  0
ARC
  5
618
330
1F
100
AcDbEntity
  8
0
100
AcDbCircle
 10
113.0175806771088
 20
41.04647815885129
 30
0.0
 40
0.5
100
AcDbArc
 50
0.0
 51
90.0
  0
ARC
  5
619
330
1F
100
AcDbEntity
  8
0
100
AcDbCircle
 10
100.0175806771087
 20
28.0464781588513
 30
0.0
 40
0.5
100
AcDbArc
 50
180.0
 51
270.0
  0
ARC
  5
61A
330
1F
100
AcDbEntity
  8
0
100
AcDbCircle
 10
113.0175806771088
 20
28.0464781588513
 30
0.0
 40
0.5
100
AcDbArc
 50
270.0
 51
0.0
  0
LINE
  5
61B
330
1F
100
AcDbEntity
  8
0
100
AcDbLine
 10
119.0675806771087
 20
39.26047815885129
 30
0.0
 11
132.0675806771087
 21
39.26047815885129
 31
0.0
  0
LINE
  5
61C
330
1F
100
AcDbEntity
  8
0
100
AcDbLine
 10
119.0675806771087
 20
25.2604781588513
 30
0.0
 11
132.0675806771087
 21
25.2604781588513
 31
0.0
  0
LINE
  5
61D
330
1F
100
AcDbEntity
  8
0
100
AcDbLine
 10
118.5675806771088
 20
38.76047815885129
 30
0.0
 11
118.5675806771088
 21
25.7604781588513
 31
0.0
  0
LINE
  5
61E
330
1F
100
AcDbEntity
  8
0
100
AcDbLine
 10
132.5675806771086
 20
38.76047815885129
 30
0.0
 11
132.5675806771086
 21
25.7604781588513
 31
0.0
  0
ARC
  5
61F
330
1F
100
AcDbEntity
  8
0
100
AcDbCircle
 10
119.0675806771087
 20
38.76047815885129
 30
0.0
 40
0.5
100
AcDbArc
 50
90.0
 51
180.0
  0
ARC
  5
620
330
1F
100
AcDbEntity
  8
0
100
AcDbCircle
 10
132.0675806771087
 20
38.76047815885129
 30
0.0
 40
0.5
100
AcDbArc
 50
0.0
 51
90.0
  0
ARC
  5
621
330
1F
100
AcDbEntity
  8
0
100
AcDbCircle
 10
119.0675806771087
 20
25.7604781588513
 30
0.0
 40
0.5
100
AcDbArc
 50
180.0
 51
270.0
  0
ARC
  5
622
330
1F
100
AcDbEntity
  8
0
100
AcDbCircle
 10
132.0675806771087
 20
25.7604781588513
 30
0.0
 40
0.5
100
AcDbArc
 50
270.0
 51
0.0
  0
LINE
  5
623
330
1F
100
AcDbEntity
  8
0
100
AcDbLine
 10
42.86758067710876
 20
34.4979781588513
 30
0.0
 11
55.86758067710874
 21
34.4979781588513
 31
0.0
  0
LINE
  5
624
330
1F
100
AcDbEntity
  8
0
100
AcDbLine
 10
42.86758067710876
 20
20.49797815885129
 30
0.0
 11
55.86758067710874
 21
20.49797815885129
 31
0.0
  0
LINE
  5
625
330
1F
100
AcDbEntity
  8
0
100
AcDbLine
 10
42.36758067710876
 20
33.9979781588513
 30
0.0
 11
42.36758067710876
 21
20.9979781588513
 31
0.0
  0
LINE
  5
626
330
1F
100
AcDbEntity
  8
0
100
AcDbLine
 10
56.36758067710875
 20
33.9979781588513
 30
0.0
 11
56.36758067710875
 21
20.9979781588513
 31
0.0
  0
ARC
  5
627
330
1F
100
AcDbEntity
  8
0
100
AcDbCircle
 10
42.86758067710876
 20
33.9979781588513
 30
0.0
 40
0.5
100
AcDbArc
 50
90.0
 51
180.0
  0
ARC
  5
628
330
1F
100
AcDbEntity
  8
0
100
AcDbCircle
 10
55.86758067710874
 20
33.9979781588513
 30
0.0
 40
0.5
100
AcDbArc
 50
0.0
 51
90.0
  0
ARC
  5
629
330
1F
100
AcDbEntity
  8
0
100
AcDbCircle
 10
42.86758067710876
 20
20.9979781588513
 30
0.0
 40
0.5
100
AcDbArc
 50
180.0
 51
270.0
  0
ARC
  5
62A
330
1F
100
AcDbEntity
  8
0
100
AcDbCircle
 10
55.86758067710874
 20
20.9979781588513
 30
0.0
 40
0.5
100
AcDbArc
 50
270.0
 51
0.0
  0
LINE
  5
62B
330
1F
100
AcDbEntity
  8
0
100
AcDbLine
 10
23.81758067710876
 20
32.02147815885131
 30
0.0
 11
36.81758067710876
 21
32.02147815885131
 31
0.0
  0
LINE
  5
62C
330
1F
100
AcDbEntity
  8
0
100
AcDbLine
 10
23.81758067710876
 20
18.0214781588513
 30
0.0
 11
36.81758067710876
 21
18.0214781588513
 31
0.0
  0
LINE
  5
62D
330
1F
100
AcDbEntity
  8
0
100
AcDbLine
 10
23.31758067710877
 20
31.52147815885131
 30
0.0
 11
23.31758067710877
 21
18.5214781588513
 31
0.0
  0
LINE
  5
62E
330
1F
100
AcDbEntity
  8
0
100
AcDbLine
 10
37.31758067710875
 20
31.52147815885131
 30
0.0
 11
37.31758067710875
 21
18.5214781588513
 31
0.0
  0
ARC
  5
62F
330
1F
100
AcDbEntity
  8
0
100
AcDbCircle
 10
23.81758067710876
 20
31.52147815885131
 30
0.0
 40
0.5
100
AcDbArc
 50
90.0
 51
180.0
  0
ARC
  5
630
330
1F
100
AcDbEntity
  8
0
100
AcDbCircle
 10
36.81758067710876
 20
31.52147815885131
 30
0.0
 40
0.5
100
AcDbArc
 50
0.0
 51
90.0
  0
ARC
  5
631
330
1F
100
AcDbEntity
  8
0
100
AcDbCircle
 10
23.81758067710876
 20
18.5214781588513
 30
0.0
 40
0.5
100
AcDbArc
 50
180.0
 51
270.0
  0
ARC
  5
632
330
1F
100
AcDbEntity
  8
0
100
AcDbCircle
 10
36.81758067710876
 20
18.5214781588513
 30
0.0
 40
0.5
100
AcDbArc
 50
270.0
 51
0.0
  0
LINE
  5
633
330
1F
100
AcDbEntity
  8
0
100
AcDbLine
 10
100.0175806771087
 20
22.4964781588513
 30
0.0
 11
113.0175806771088
 21
22.4964781588513
 31
0.0
  0
LINE
  5
634
330
1F
100
AcDbEntity
  8
0
100
AcDbLine
 10
100.0175806771087
 20
8.496478158851299
 30
0.0
 11
113.0175806771088
 21
8.496478158851299
 31
0.0
  0
LINE
  5
635
330
1F
100
AcDbEntity
  8
0
100
AcDbLine
 10
99.51758067710878
 20
21.99647815885131
 30
0.0
 11
99.51758067710878
 21
8.996478158851299
 31
0.0
  0
LINE
  5
636
330
1F
100
AcDbEntity
  8
0
100
AcDbLine
 10
113.5175806771087
 20
21.99647815885131
 30
0.0
 11
113.5175806771087
 21
8.996478158851299
 31
0.0
  0
ARC
  5
637
330
1F
100
AcDbEntity
  8
0
100
AcDbCircle
 10
100.0175806771087
 20
21.99647815885131
 30
0.0
 40
0.5
100
AcDbArc
 50
90.0
 51
180.0
  0
ARC
  5
638
330
1F
100
AcDbEntity
  8
0
100
AcDbCircle
 10
113.0175806771088
 20
21.99647815885131
 30
0.0
 40
0.5
100
AcDbArc
 50
0.0
 51
90.0
  0
ARC
  5
639
330
1F
100
AcDbEntity
  8
0
100
AcDbCircle
 10
100.0175806771087
 20
8.996478158851299
 30
0.0
 40
0.5
100
AcDbArc
 50
180.0
 51
270.0
  0
ARC
  5
63A
330
1F
100
AcDbEntity
  8
0
100
AcDbCircle
 10
113.0175806771088
 20
8.996478158851299
 30
0.0
 40
0.5
100
AcDbArc
 50
270.0
 51
0.0
  0
LINE
  5
63B
330
1F
100
AcDbEntity
  8
0
100
AcDbLine
 10
119.0675806771087
 20
20.2104781588513
 30
0.0
 11
132.0675806771087
 21
20.2104781588513
 31
0.0
  0
LINE
  5
63C
330
1F
100
AcDbEntity
  8
0
100
AcDbLine
 10
119.0675806771087
 20
6.210478158851299
 30
0.0
 11
132.0675806771087
 21
6.210478158851299
 31
0.0
  0
LINE
  5
63D
330
1F
100
AcDbEntity
  8
0
100
AcDbLine
 10
118.5675806771088
 20
19.7104781588513
 30
0.0
 11
118.5675806771088
 21
6.710478158851299
 31
0.0
  0
LINE
  5
63E
330
1F
100
AcDbEntity
  8
0
100
AcDbLine
 10
132.5675806771086
 20
19.7104781588513
 30
0.0
 11
132.5675806771086
 21
6.710478158851299
 31
0.0
  0
ARC
  5
63F
330
1F
100
AcDbEntity
  8
0
100
AcDbCircle
 10
119.0675806771087
 20
19.7104781588513
 30
0.0
 40
0.5
100
AcDbArc
 50
90.0
 51
180.0
  0
ARC
  5
640
330
1F
100
AcDbEntity
  8
0
100
AcDbCircle
 10
132.0675806771087
 20
19.7104781588513
 30
0.0
 40
0.5
100
AcDbArc
 50
0.0
 51
90.0
  0
ARC
  5
641
330
1F
100
AcDbEntity
  8
0
100
AcDbCircle
 10
119.0675806771087
 20
6.710478158851299
 30
0.0
 40
0.5
100
AcDbArc
 50
180.0
 51
270.0
  0
ARC
  5
642
330
1F
100
AcDbEntity
  8
0
100
AcDbCircle
 10
132.0675806771087
 20
6.710478158851299
 30
0.0
 40
0.5
100
AcDbArc
 50
270.0
 51
0.0
  0
LINE
  5
643
330
1F
100
AcDbEntity
  8
0
100
AcDbLine
 10
138.1175806771087
 20
17.7339781588513
 30
0.0
 11
151.1175806771087
 21
17.7339781588513
 31
0.0
  0
LINE
  5
644
330
1F
100
AcDbEntity
  8
0
100
AcDbLine
 10
138.1175806771087
 20
3.733978158851297
 30
0.0
 11
151.1175806771087
 21
3.733978158851297
 31
0.0
  0
LINE
  5
645
330
1F
100
AcDbEntity
  8
0
100
AcDbLine
 10
137.6175806771087
 20
17.23397815885129
 30
0.0
 11
137.6175806771087
 21
4.233978158851297
 31
0.0
  0
LINE
  5
646
330
1F
100
AcDbEntity
  8
0
100
AcDbLine
 10
151.6175806771087
 20
17.23397815885129
 30
0.0
 11
151.6175806771087
 21
4.233978158851297
 31
0.0
  0
ARC
  5
647
330
1F
100
AcDbEntity
  8
0
100
AcDbCircle
 10
138.1175806771087
 20
17.23397815885129
 30
0.0
 40
0.5
100
AcDbArc
 50
90.0
 51
180.0
  0
ARC
  5
648
330
1F
100
AcDbEntity
  8
0
100
AcDbCircle
 10
151.1175806771087
 20
17.23397815885129
 30
0.0
 40
0.5
100
AcDbArc
 50
0.0
 51
90.0
  0
ARC
  5
649
330
1F
100
AcDbEntity
  8
0
100
AcDbCircle
 10
138.1175806771087
 20
4.233978158851297
 30
0.0
 40
0.5
100
AcDbArc
 50
180.0
 51
270.0
  0
ARC
  5
64A
330
1F
100
AcDbEntity
  8
0
100
AcDbCircle
 10
151.1175806771087
 20
4.233978158851297
 30
0.0
 40
0.5
100
AcDbArc
 50
270.0
 51
0.0
  0
LINE
  5
82D
330
1F
100
AcDbEntity
  8
0
100
AcDbLine
 10
21.76758067710875
 20
91.6714781588513
 30
0.0
 11
38.86758076946016
 21
91.6714781588513
 31
0.0
  0
LINE
  5
840
330
1F
100
AcDbEntity
  8
0
100
AcDbLine
 10
97.01758067710869
 20
6.996478158851298
 30
0.0
 11
97.01758067710869
 21
28.80897815885131
 31
0.0
  0
LINE
  5
855
330
1F
100
AcDbEntity
  8
0
100
AcDbLine
 10
40.86758076946014
 20
94.1479782492617
 30
0.0
 11
57.91758076946014
 21
94.1479782492617
 31
0.0
  0
LINE
  5
856
330
1F
100
AcDbEntity
  8
0
100
AcDbLine
 10
59.91758076946014
 20
101.1964782492617
 30
0.0
 11
76.96758076946015
 21
101.1964782492617
 31
0.0
  0
LINE
  5
857
330
1F
100
AcDbEntity
  8
0
100
AcDbLine
 10
78.96758076946013
 20
105.9589782492617
 30
0.0
 11
95.96758076946008
 21
105.9589782492617
 31
0.0
  0
LINE
  5
858
330
1F
100
AcDbEntity
  8
0
100
AcDbLine
 10
97.96758076946009
 20
101.1964782492617
 30
0.0
 11
115.0175807694602
 21
101.1964782492617
 31
0.0
  0
LINE
  5
85D
330
1F
100
AcDbEntity
  8
0
100
AcDbLine
 10
21.81758067710877
 20
15.52147815885131
 30
0.0
 11
38.81758067710876
 21
15.52147815885131
 31
0.0
  0
LINE
  5
85E
330
1F
100
AcDbEntity
  8
0
100
AcDbLine
 10
40.81758067710874
 20
17.99797815885129
 30
0.0
 11
57.86758067710874
 21
17.99797815885129
 31
0.0
  0
LINE
  5
85F
330
1F
100
AcDbEntity
  8
0
100
AcDbLine
 10
59.86758067710876
 20
25.04647815885131
 30
0.0
 11
76.91758067710875
 21
25.04647815885131
 31
0.0
  0
LINE
  5
860
330
1F
100
AcDbEntity
  8
0
100
AcDbLine
 10
78.91758067710878
 20
29.80897815885131
 30
0.0
 11
96.01758067710873
 21
29.80897815885131
 31
0.0
  0
LINE
  5
861
330
1F
100
AcDbEntity
  8
0
100
AcDbLine
 10
98.01758067710872
 20
5.996478158851298
 30
0.0
 11
115.0675806771087
 21
5.996478158851298
 31
0.0
  0
LINE
  5
862
330
1F
100
AcDbEntity
  8
0
100
AcDbLine
 10
117.0675806771087
 20
3.710478158851298
 30
0.0
 11
134.1175806771087
 21
3.710478158851298
 31
0.0
  0
LINE
  5
863
330
1F
100
AcDbEntity
  8
0
100
AcDbLine
 10
136.1175806771087
 20
1.233978158851301
 30
0.0
 11
153.1175806771087
 21
1.233978158851301
 31
0.0
  0
LINE
  5
86B
330
1F
100
AcDbEntity
  8
0
100
AcDbLine
 10
20.81758067710877
 20
38.33397815885131
 30
0.0
 11
20.81758067710877
 21
16.52147815885131
 31
0.0
  0
LINE
  5
86C
330
1F
100
AcDbEntity
  8
0
100
AcDbLine
 10
2.767580677108749
 20
39.33397815885129
 30
0.0
 11
19.81758067710877
 21
39.33397815885129
 31
0.0
  0
LINE
  5
86D
330
1F
100
AcDbEntity
  8
0
100
AcDbLine
 10
1.76758067710875
 20
57.33397815885131
 30
0.0
 11
1.76758067710875
 21
40.3339781588513
 31
0.0
  0
LINE
  5
86E
330
1F
100
AcDbEntity
  8
0
100
AcDbLine
 10
2.767580677108749
 20
58.33397815885131
 30
0.0
 11
19.76758067710875
 21
58.33397815885131
 31
0.0
  0
LINE
  5
86F
330
1F
100
AcDbEntity
  8
0
100
AcDbLine
 10
20.76758067710877
 20
90.6714781588513
 30
0.0
 11
20.76758067710875
 21
59.33397815885131
 31
0.0
  0
LINE
  5
870
330
1F
100
AcDbEntity
  8
0
100
AcDbLine
 10
39.86758076946016
 20
93.1479782492617
 30
0.0
 11
39.86758076946016
 21
92.67147815885129
 31
0.0
  0
LINE
  5
871
330
1F
100
AcDbEntity
  8
0
100
AcDbLine
 10
58.91758076946015
 20
100.1964782492617
 30
0.0
 11
58.91758076946015
 21
95.14797824926167
 31
0.0
  0
LINE
  5
872
330
1F
100
AcDbEntity
  8
0
100
AcDbLine
 10
77.96758076946014
 20
104.9589782492617
 30
0.0
 11
77.96758076946014
 21
102.1964782492617
 31
0.0
  0
LINE
  5
873
330
1F
100
AcDbEntity
  8
0
100
AcDbLine
 10
96.96758076946009
 20
104.9589782492617
 30
0.0
 11
96.96758076946009
 21
102.1964782492617
 31
0.0
  0
LINE
  5
874
330
1F
100
AcDbEntity
  8
0
100
AcDbLine
 10
116.0175807694602
 20
100.1964782492617
 30
0.0
 11
116.0175807694602
 21
99.91047815885131
 31
0.0
  0
LINE
  5
875
330
1F
100
AcDbEntity
  8
0
100
AcDbLine
 10
135.1175806771087
 20
2.710478158851301
 30
0.0
 11
135.1175806771087
 21
2.233978158851298
 31
0.0
  0
LINE
  5
876
330
1F
100
AcDbEntity
  8
0
100
AcDbLine
 10
116.0675806771087
 20
4.996478158851298
 30
0.0
 11
116.0675806771087
 21
4.7104781588513
 31
0.0
  0
LINE
  5
877
330
1F
100
AcDbEntity
  8
0
100
AcDbLine
 10
77.91758067710873
 20
28.80897815885131
 30
0.0
 11
77.91758067710873
 21
26.0464781588513
 31
0.0
  0
LINE
  5
878
330
1F
100
AcDbEntity
  8
0
100
AcDbLine
 10
58.86758067710875
 20
24.04647815885131
 30
0.0
 11
58.86758067710875
 21
18.99797815885129
 31
0.0
  0
LINE
  5
879
330
1F
100
AcDbEntity
  8
0
100
AcDbLine
 10
39.81758067710875
 20
16.99797815885129
 30
0.0
 11
39.81758067710875
 21
16.52147815885131
 31
0.0
  0
ARC
  5
881
330
1F
100
AcDbEntity
  8
0
100
AcDbCircle
 10
40.86758076946014
 20
93.1479782492617
 30
0.0
 40
1.0
100
AcDbArc
 50
90.0
 51
180.0
  0
ARC
  5
884
330
1F
100
AcDbEntity
  8
0
100
AcDbCircle
 10
38.86758076946016
 20
92.67147815885129
 30
0.0
 40
1.0
100
AcDbArc
 50
270.0
 51
0.0
  0
ARC
  5
885
330
1F
100
AcDbEntity
  8
0
100
AcDbCircle
 10
57.91758076946014
 20
95.14797824926167
 30
0.0
 40
1.0
100
AcDbArc
 50
270.0
 51
0.0
  0
ARC
  5
886
330
1F
100
AcDbEntity
  8
0
100
AcDbCircle
 10
59.91758076946014
 20
100.1964782492617
 30
0.0
 40
1.0
100
AcDbArc
 50
90.0
 51
180.0
  0
ARC
  5
887
330
1F
100
AcDbEntity
  8
0
100
AcDbCircle
 10
76.96758076946015
 20
102.1964782492617
 30
0.0
 40
1.0
100
AcDbArc
 50
270.0
 51
0.0
  0
ARC
  5
888
330
1F
100
AcDbEntity
  8
0
100
AcDbCircle
 10
78.96758076946013
 20
104.9589782492617
 30
0.0
 40
1.0
100
AcDbArc
 50
90.0
 51
180.0
  0
ARC
  5
889
330
1F
100
AcDbEntity
  8
0
100
AcDbCircle
 10
95.96758076946008
 20
104.9589782492617
 30
0.0
 40
1.0
100
AcDbArc
 50
0.0
 51
90.0
  0
ARC
  5
88A
330
1F
100
AcDbEntity
  8
0
100
AcDbCircle
 10
97.96758076946009
 20
102.1964782492617
 30
0.0
 40
1.0
100
AcDbArc
 50
180.0
 51
270.0
  0
ARC
  5
88B
330
1F
100
AcDbEntity
  8
0
100
AcDbCircle
 10
115.0175807694602
 20
100.1964782492617
 30
0.0
 40
1.0
100
AcDbArc
 50
0.0
 51
90.0
  0
ARC
  5
88C
330
1F
100
AcDbEntity
  8
0
100
AcDbCircle
 10
117.0175807694602
 20
99.91047815885131
 30
0.0
 40
1.0
100
AcDbArc
 50
180.0
 51
270.0
  0
ARC
  5
890
330
1F
100
AcDbEntity
  8
0
100
AcDbCircle
 10
153.1175806771087
 20
2.233978158851298
 30
0.0
 40
1.0
100
AcDbArc
 50
270.0
 51
0.0
  0
ARC
  5
891
330
1F
100
AcDbEntity
  8
0
100
AcDbCircle
 10
136.1175806771087
 20
2.233978158851298
 30
0.0
 40
1.0
100
AcDbArc
 50
180.0
 51
270.0
  0
ARC
  5
892
330
1F
100
AcDbEntity
  8
0
100
AcDbCircle
 10
134.1175806771087
 20
2.710478158851301
 30
0.0
 40
1.0
100
AcDbArc
 50
0.0
 51
90.0
  0
ARC
  5
893
330
1F
100
AcDbEntity
  8
0
100
AcDbCircle
 10
117.0675806771087
 20
4.7104781588513
 30
0.0
 40
1.0
100
AcDbArc
 50
180.0
 51
270.0
  0
ARC
  5
894
330
1F
100
AcDbEntity
  8
0
100
AcDbCircle
 10
115.0675806771087
 20
4.996478158851298
 30
0.0
 40
1.0
100
AcDbArc
 50
0.0
 51
90.0
  0
ARC
  5
895
330
1F
100
AcDbEntity
  8
0
100
AcDbCircle
 10
98.01758067710872
 20
6.996478158851298
 30
0.0
 40
1.0
100
AcDbArc
 50
180.0
 51
270.0
  0
ARC
  5
896
330
1F
100
AcDbEntity
  8
0
100
AcDbCircle
 10
96.01758067710873
 20
28.80897815885131
 30
0.0
 40
1.0
100
AcDbArc
 50
0.0
 51
90.0
  0
ARC
  5
897
330
1F
100
AcDbEntity
  8
0
100
AcDbCircle
 10
78.91758067710878
 20
28.80897815885131
 30
0.0
 40
1.0
100
AcDbArc
 50
90.0
 51
180.0
  0
ARC
  5
898
330
1F
100
AcDbEntity
  8
0
100
AcDbCircle
 10
76.91758067710875
 20
26.0464781588513
 30
0.0
 40
1.0
100
AcDbArc
 50
270.0
 51
0.0
  0
ARC
  5
899
330
1F
100
AcDbEntity
  8
0
100
AcDbCircle
 10
59.86758067710876
 20
24.04647815885131
 30
0.0
 40
1.0
100
AcDbArc
 50
90.0
 51
180.0
  0
ARC
  5
89A
330
1F
100
AcDbEntity
  8
0
100
AcDbCircle
 10
57.86758067710874
 20
18.99797815885129
 30
0.0
 40
1.0
100
AcDbArc
 50
270.0
 51
0.0
  0
ARC
  5
89B
330
1F
100
AcDbEntity
  8
0
100
AcDbCircle
 10
40.81758067710874
 20
16.99797815885129
 30
0.0
 40
1.0
100
AcDbArc
 50
90.0
 51
180.0
  0
ARC
  5
89C
330
1F
100
AcDbEntity
  8
0
100
AcDbCircle
 10
38.81758067710876
 20
16.52147815885131
 30
0.0
 40
1.0
100
AcDbArc
 50
270.0
 51
0.0
  0
ARC
  5
89D
330
1F
100
AcDbEntity
  8
0
100
AcDbCircle
 10
21.81758067710877
 20
16.52147815885131
 30
0.0
 40
1.0
100
AcDbArc
 50
180.0
 51
270.0
  0
ARC
  5
89E
330
1F
100
AcDbEntity
  8
0
100
AcDbCircle
 10
19.81758067710877
 20
38.33397815885131
 30
0.0
 40
1.0
100
AcDbArc
 50
0.0
 51
90.0
  0
ARC
  5
89F
330
1F
100
AcDbEntity
  8
0
100
AcDbCircle
 10
19.76758067710875
 20
59.33397815885131
 30
0.0
 40
1.0
100
AcDbArc
 50
270.0
 51
0.0
  0
ARC
  5
8A0
330
1F
100
AcDbEntity
  8
0
100
AcDbCircle
 10
2.767580677108749
 20
57.33397815885131
 30
0.0
 40
1.0
100
AcDbArc
 50
90.0
 51
180.0
  0
ARC
  5
8A1
330
1F
100
AcDbEntity
  8
0
100
AcDbCircle
 10
2.767580677108749
 20
40.3339781588513
 30
0.0
 40
1.0
100
AcDbArc
 50
180.0
 51
270.0
  0
ARC
  5
8A2
330
1F
100
AcDbEntity
  8
0
100
AcDbCircle
 10
21.76758067710875
 20
90.6714781588513
 30
0.0
 40
1.0
100
AcDbArc
 50
90.0
 51
180.0
  0
LINE
  5
1830
330
1F
100
AcDbEntity
  8
0
100
AcDbLine
 10
154.1175806771087
 20
2.233978158851298
 30
0.0
 11
154.1175806771087
 21
20.2339781588513
 31
0.0
  0
ARC
  5
1AB2
330
1F
100
AcDbEntity
  8
0
100
AcDbCircle
 10
349.5675806771085
 20
72.22147815885133
 30
0.0
 40
1.0
100
AcDbArc
 50
0.0
 51
90.0
  0
LINE
  5
1AB3
330
1F
100
AcDbEntity
  8
0
100
AcDbLine
 10
349.5675806771085
 20
73.22147815885131
 30
0.0
 11
331.5175806771085
 21
73.22147815885131
 31
0.0
  0
ARC
  5
1AB4
330
1F
100
AcDbEntity
  8
0
100
AcDbCircle
 10
332.5175806771085
 20
17.52147815885132
 30
0.0
 40
1.0
100
AcDbArc
 50
180.0
 51
270.0
  0
LINE
  5
1AB5
330
1F
100
AcDbEntity
  8
0
100
AcDbLine
 10
332.5175806771085
 20
16.52147815885132
 30
0.0
 11
350.5675806771086
 21
16.52147815885132
 31
0.0
  0
CIRCLE
  5
1AB6
330
1F
100
AcDbEntity
  8
0
100
AcDbCircle
 10
348.0175806771085
 20
70.22147815885133
 30
0.0
 40
1.0
  0
CIRCLE
  5
1AB7
330
1F
100
AcDbEntity
  8
0
100
AcDbCircle
 10
334.0175806771085
 20
70.22147815885133
 30
0.0
 40
1.0
  0
LINE
  5
1AB8
330
1F
100
AcDbEntity
  8
0
100
AcDbLine
 10
331.5175806771085
 20
73.22147815885131
 30
0.0
 11
331.5175806771085
 21
17.52147815885132
 31
0.0
  0
LINE
  5
1ABF
330
1F
100
AcDbEntity
  8
0
100
AcDbLine
 10
350.5675806771086
 20
72.22147815885133
 30
0.0
 11
350.5675806771086
 21
16.52147815885132
 31
0.0
  0
ARC
  5
1D24
330
1F
100
AcDbEntity
  8
0
100
AcDbCircle
 10
311.4675806771086
 20
72.22147815885133
 30
0.0
 40
1.0
100
AcDbArc
 50
90.0
 51
180.0
  0
LINE
  5
1D25
330
1F
100
AcDbEntity
  8
0
100
AcDbLine
 10
311.4675806771086
 20
73.22147815885131
 30
0.0
 11
329.5175806771085
 21
73.22147815885131
 31
0.0
  0
ARC
  5
1D26
330
1F
100
AcDbEntity
  8
0
100
AcDbCircle
 10
328.5175806771085
 20
17.52147815885132
 30
0.0
 40
1.0
100
AcDbArc
 50
270.0
 51
0.0
  0
LINE
  5
1D27
330
1F
100
AcDbEntity
  8
0
100
AcDbLine
 10
328.5175806771085
 20
16.52147815885132
 30
0.0
 11
310.4675806771086
 21
16.52147815885132
 31
0.0
  0
CIRCLE
  5
1D28
330
1F
100
AcDbEntity
  8
0
100
AcDbCircle
 10
313.0175806771085
 20
70.22147815885133
 30
0.0
 40
1.0
  0
CIRCLE
  5
1D29
330
1F
100
AcDbEntity
  8
0
100
AcDbCircle
 10
327.0175806771085
 20
70.22147815885133
 30
0.0
 40
1.0
  0
LINE
  5
1D2A
330
1F
100
AcDbEntity
  8
0
100
AcDbLine
 10
329.5175806771085
 20
73.22147815885131
 30
0.0
 11
329.5175806771085
 21
17.52147815885132
 31
0.0
  0
LINE
  5
1D2B
330
1F
100
AcDbEntity
  8
0
100
AcDbLine
 10
310.4675806771086
 20
72.22147815885133
 30
0.0
 11
310.4675806771086
 21
16.52147815885132
 31
0.0
  0
LINE
  5
1D7B
330
1F
100
AcDbEntity
  8
0
100
AcDbLine
 10
21.76758067710881
 20
122.0674729222836
 30
0.0
 11
38.86758076946018
 21
122.0674729222836
 31
0.0
  0
ARC
  5
1D7C
330
1F
100
AcDbEntity
  8
0
100
AcDbCircle
 10
38.86758076946018
 20
121.0674729222836
 30
0.0
 40
1.0
100
AcDbArc
 50
0.0
 51
90.0
  0
LINE
  5
1D7D
330
1F
100
AcDbEntity
  8
0
100
AcDbLine
 10
97.01758067710869
 20
206.7424729222836
 30
0.0
 11
97.01758067710869
 21
184.9299729222836
 31
0.0
  0
ARC
  5
1D7E
330
1F
100
AcDbEntity
  8
0
100
AcDbCircle
 10
96.01758067710882
 20
184.9299729222836
 30
0.0
 40
1.0
100
AcDbArc
 50
270.0
 51
0.0
  0
ARC
  5
1D7F
330
1F
100
AcDbEntity
  8
0
100
AcDbCircle
 10
98.01758067710879
 20
206.7424729222836
 30
0.0
 40
1.0
100
AcDbArc
 50
90.0
 51
180.0
  0
LINE
  5
1D80
330
1F
100
AcDbEntity
  8
0
100
AcDbLine
 10
40.86758076946018
 20
119.5909728318732
 30
0.0
 11
57.91758076946013
 21
119.5909728318732
 31
0.0
  0
ARC
  5
1D81
330
1F
100
AcDbEntity
  8
0
100
AcDbCircle
 10
57.91758076946013
 20
118.5909728318733
 30
0.0
 40
1.0
100
AcDbArc
 50
0.0
 51
90.0
  0
LINE
  5
1D82
330
1F
100
AcDbEntity
  8
0
100
AcDbLine
 10
59.91758076946013
 20
112.5424728318732
 30
0.0
 11
76.9675807694602
 21
112.5424728318732
 31
0.0
  0
ARC
  5
1D83
330
1F
100
AcDbEntity
  8
0
100
AcDbCircle
 10
76.9675807694602
 20
111.5424728318732
 30
0.0
 40
1.0
100
AcDbArc
 50
0.0
 51
90.0
  0
LINE
  5
1D84
330
1F
100
AcDbEntity
  8
0
100
AcDbLine
 10
78.9675807694602
 20
107.7799728318732
 30
0.0
 11
95.96758076946008
 21
107.7799728318732
 31
0.0
  0
LINE
  5
1D85
330
1F
100
AcDbEntity
  8
0
100
AcDbLine
 10
97.96758076946009
 20
112.5424728318732
 30
0.0
 11
115.0175807694602
 21
112.5424728318732
 31
0.0
  0
ARC
  5
1D86
330
1F
100
AcDbEntity
  8
0
100
AcDbCircle
 10
115.0175807694602
 20
113.5424728318732
 30
0.0
 40
1.0
100
AcDbArc
 50
270.0
 51
0.0
  0
LINE
  5
1D89
330
1F
100
AcDbEntity
  8
0
100
AcDbLine
 10
21.81758067710877
 20
198.2174729222836
 30
0.0
 11
38.81758067710876
 21
198.2174729222836
 31
0.0
  0
ARC
  5
1D8A
330
1F
100
AcDbEntity
  8
0
100
AcDbCircle
 10
21.81758067710877
 20
197.2174729222836
 30
0.0
 40
1.0
100
AcDbArc
 50
90.0
 51
180.0
  0
ARC
  5
1D8B
330
1F
100
AcDbEntity
  8
0
100
AcDbCircle
 10
38.81758067710876
 20
197.2174729222836
 30
0.0
 40
1.0
100
AcDbArc
 50
0.0
 51
90.0
  0
LINE
  5
1D8C
330
1F
100
AcDbEntity
  8
0
100
AcDbLine
 10
40.81758067710874
 20
195.7409729222836
 30
0.0
 11
57.86758067710883
 21
195.7409729222836
 31
0.0
  0
ARC
  5
1D8D
330
1F
100
AcDbEntity
  8
0
100
AcDbCircle
 10
57.86758067710883
 20
194.7409729222836
 30
0.0
 40
1.0
100
AcDbArc
 50
0.0
 51
90.0
  0
LINE
  5
1D8E
330
1F
100
AcDbEntity
  8
0
100
AcDbLine
 10
59.86758067710884
 20
188.6924729222836
 30
0.0
 11
76.91758067710878
 21
188.6924729222836
 31
0.0
  0
ARC
  5
1D8F
330
1F
100
AcDbEntity
  8
0
100
AcDbCircle
 10
76.91758067710878
 20
187.6924729222836
 30
0.0
 40
1.0
100
AcDbArc
 50
0.0
 51
90.0
  0
LINE
  5
1D90
330
1F
100
AcDbEntity
  8
0
100
AcDbLine
 10
78.91758067710878
 20
183.9299729222836
 30
0.0
 11
96.01758067710882
 21
183.9299729222836
 31
0.0
  0
LINE
  5
1D91
330
1F
100
AcDbEntity
  8
0
100
AcDbLine
 10
98.01758067710879
 20
207.7424729222836
 30
0.0
 11
115.0675806771087
 21
207.7424729222836
 31
0.0
  0
ARC
  5
1D92
330
1F
100
AcDbEntity
  8
0
100
AcDbCircle
 10
115.0675806771087
 20
208.7424729222836
 30
0.0
 40
1.0
100
AcDbArc
 50
270.0
 51
0.0
  0
LINE
  5
1D93
330
1F
100
AcDbEntity
  8
0
100
AcDbLine
 10
117.0675806771087
 20
210.0284729222837
 30
0.0
 11
134.1175806771087
 21
210.0284729222837
 31
0.0
  0
ARC
  5
1D94
330
1F
100
AcDbEntity
  8
0
100
AcDbCircle
 10
134.1175806771087
 20
211.0284729222836
 30
0.0
 40
1.0
100
AcDbArc
 50
270.0
 51
0.0
  0
LINE
  5
1D95
330
1F
100
AcDbEntity
  8
0
100
AcDbLine
 10
136.1175806771087
 20
212.5049729222836
 30
0.0
 11
153.1175806771087
 21
212.5049729222836
 31
0.0
  0
ARC
  5
1D96
330
1F
100
AcDbEntity
  8
0
100
AcDbCircle
 10
136.1175806771087
 20
211.5049729222836
 30
0.0
 40
1.0
100
AcDbArc
 50
90.0
 51
180.0
  0
ARC
  5
1D97
330
1F
100
AcDbEntity
  8
0
100
AcDbCircle
 10
153.1175806771087
 20
211.5049729222836
 30
0.0
 40
1.0
100
AcDbArc
 50
0.0
 51
90.0
  0
LINE
  5
1D98
330
1F
100
AcDbEntity
  8
0
100
AcDbLine
 10
20.81758067710877
 20
175.4049729222836
 30
0.0
 11
20.81758067710877
 21
197.2174729222836
 31
0.0
  0
ARC
  5
1D99
330
1F
100
AcDbEntity
  8
0
100
AcDbCircle
 10
19.81758067710876
 20
175.4049729222836
 30
0.0
 40
1.0
100
AcDbArc
 50
270.0
 51
0.0
  0
LINE
  5
1D9A
330
1F
100
AcDbEntity
  8
0
100
AcDbLine
 10
2.76758067710881
 20
174.4049729222836
 30
0.0
 11
19.81758067710876
 21
174.4049729222836
 31
0.0
  0
LINE
  5
1D9B
330
1F
100
AcDbEntity
  8
0
100
AcDbLine
 10
1.767580677108808
 20
156.4049729222836
 30
0.0
 11
1.767580677108808
 21
173.4049729222836
 31
0.0
  0
ARC
  5
1D9C
330
1F
100
AcDbEntity
  8
0
100
AcDbCircle
 10
2.76758067710881
 20
173.4049729222836
 30
0.0
 40
1.0
100
AcDbArc
 50
90.0
 51
180.0
  0
ARC
  5
1D9D
330
1F
100
AcDbEntity
  8
0
100
AcDbCircle
 10
2.76758067710881
 20
156.4049729222836
 30
0.0
 40
1.0
100
AcDbArc
 50
180.0
 51
270.0
  0
LINE
  5
1D9E
330
1F
100
AcDbEntity
  8
0
100
AcDbLine
 10
2.76758067710881
 20
155.4049729222836
 30
0.0
 11
19.7675806771088
 21
155.4049729222836
 31
0.0
  0
ARC
  5
1D9F
330
1F
100
AcDbEntity
  8
0
100
AcDbCircle
 10
19.7675806771088
 20
154.4049729222836
 30
0.0
 40
1.0
100
AcDbArc
 50
0.0
 51
90.0
  0
LINE
  5
1DA0
330
1F
100
AcDbEntity
  8
0
100
AcDbLine
 10
20.76758067710881
 20
123.0674729222836
 30
0.0
 11
20.76758067710881
 21
154.4049729222836
 31
0.0
  0
ARC
  5
1DA1
330
1F
100
AcDbEntity
  8
0
100
AcDbCircle
 10
21.76758067710881
 20
123.0674729222836
 30
0.0
 40
1.0
100
AcDbArc
 50
180.0
 51
270.0
  0
LINE
  5
1DA2
330
1F
100
AcDbEntity
  8
0
100
AcDbLine
 10
39.86758076946017
 20
120.5909728318732
 30
0.0
 11
39.86758076946017
 21
121.0674729222836
 31
0.0
  0
ARC
  5
1DA3
330
1F
100
AcDbEntity
  8
0
100
AcDbCircle
 10
40.86758076946018
 20
120.5909728318732
 30
0.0
 40
1.0
100
AcDbArc
 50
180.0
 51
270.0
  0
LINE
  5
1DA4
330
1F
100
AcDbEntity
  8
0
100
AcDbLine
 10
58.91758076946015
 20
113.5424728318732
 30
0.0
 11
58.91758076946015
 21
118.5909728318733
 31
0.0
  0
ARC
  5
1DA5
330
1F
100
AcDbEntity
  8
0
100
AcDbCircle
 10
59.91758076946013
 20
113.5424728318732
 30
0.0
 40
1.0
100
AcDbArc
 50
180.0
 51
270.0
  0
LINE
  5
1DA6
330
1F
100
AcDbEntity
  8
0
100
AcDbLine
 10
77.96758076946019
 20
108.7799728318732
 30
0.0
 11
77.96758076946019
 21
111.5424728318732
 31
0.0
  0
ARC
  5
1DA7
330
1F
100
AcDbEntity
  8
0
100
AcDbCircle
 10
78.9675807694602
 20
108.7799728318732
 30
0.0
 40
1.0
100
AcDbArc
 50
180.0
 51
270.0
  0
LINE
  5
1DA8
330
1F
100
AcDbEntity
  8
0
100
AcDbLine
 10
96.96758076946009
 20
108.7799728318732
 30
0.0
 11
96.96758076946009
 21
111.5424728318732
 31
0.0
  0
ARC
  5
1DA9
330
1F
100
AcDbEntity
  8
0
100
AcDbCircle
 10
97.96758076946009
 20
111.5424728318732
 30
0.0
 40
1.0
100
AcDbArc
 50
90.0
 51
180.0
  0
ARC
  5
1DAA
330
1F
100
AcDbEntity
  8
0
100
AcDbCircle
 10
95.96758076946008
 20
108.7799728318732
 30
0.0
 40
1.0
100
AcDbArc
 50
270.0
 51
0.0
  0
LINE
  5
1DAB
330
1F
100
AcDbEntity
  8
0
100
AcDbLine
 10
116.0175807694602
 20
113.5424728318732
 30
0.0
 11
116.0175807694602
 21
113.8284729222836
 31
0.0
  0
ARC
  5
1DAC
330
1F
100
AcDbEntity
  8
0
100
AcDbCircle
 10
117.0175807694602
 20
113.8284729222836
 30
0.0
 40
1.0
100
AcDbArc
 50
90.0
 51
180.0
  0
LINE
  5
1DAD
330
1F
100
AcDbEntity
  8
0
100
AcDbLine
 10
135.1175806771087
 20
211.0284729222836
 30
0.0
 11
135.1175806771087
 21
211.5049729222836
 31
0.0
  0
LINE
  5
1DAE
330
1F
100
AcDbEntity
  8
0
100
AcDbLine
 10
116.0675806771087
 20
208.7424729222836
 30
0.0
 11
116.0675806771087
 21
209.0284729222836
 31
0.0
  0
ARC
  5
1DAF
330
1F
100
AcDbEntity
  8
0
100
AcDbCircle
 10
117.0675806771087
 20
209.0284729222836
 30
0.0
 40
1.0
100
AcDbArc
 50
90.0
 51
180.0
  0
LINE
  5
1DB0
330
1F
100
AcDbEntity
  8
0
100
AcDbLine
 10
77.91758067710879
 20
184.9299729222836
 30
0.0
 11
77.91758067710879
 21
187.6924729222836
 31
0.0
  0
ARC
  5
1DB1
330
1F
100
AcDbEntity
  8
0
100
AcDbCircle
 10
78.91758067710878
 20
184.9299729222836
 30
0.0
 40
1.0
100
AcDbArc
 50
180.0
 51
270.0
  0
LINE
  5
1DB2
330
1F
100
AcDbEntity
  8
0
100
AcDbLine
 10
58.86758067710883
 20
189.6924729222836
 30
0.0
 11
58.86758067710883
 21
194.7409729222836
 31
0.0
  0
ARC
  5
1DB3
330
1F
100
AcDbEntity
  8
0
100
AcDbCircle
 10
59.86758067710884
 20
189.6924729222836
 30
0.0
 40
1.0
100
AcDbArc
 50
180.0
 51
270.0
  0
LINE
  5
1DB4
330
1F
100
AcDbEntity
  8
0
100
AcDbLine
 10
39.81758067710877
 20
196.7409729222836
 30
0.0
 11
39.81758067710877
 21
197.2174729222836
 31
0.0
  0
ARC
  5
1DB5
330
1F
100
AcDbEntity
  8
0
100
AcDbCircle
 10
40.81758067710874
 20
196.7409729222836
 30
0.0
 40
1.0
100
AcDbArc
 50
180.0
 51
270.0
  0
CIRCLE
  5
1DB6
330
1F
100
AcDbEntity
  8
0
100
AcDbCircle
 10
116.0425806771088
 20
132.7104729222836
 30
0.0
 40
1.0
  0
ARC
  5
1DBD
330
1F
100
AcDbEntity
  8
0
100
AcDbCircle
 10
153.1175806771087
 20
137.8049729222835
 30
0.0
 40
1.0
100
AcDbArc
 50
270.0
 51
0.0
  0
LINE
  5
1DBF
330
1F
100
AcDbEntity
  8
0
100
AcDbLine
 10
154.1175806771087
 20
211.5049729222836
 30
0.0
 11
154.1175806771087
 21
193.5049729222836
 31
0.0
  0
LINE
  5
1DC0
330
1F
100
AcDbEntity
  8
0
100
AcDbLine
 10
154.1175806771087
 20
193.5049729222836
 30
0.0
 11
154.1175806771087
 21
137.8049729222835
 31
0.0
  0
LINE
  5
1DE8
330
1F
100
AcDbEntity
  8
0
100
AcDbLine
 10
134.5675806771087
 20
97.9104781588513
 30
0.0
 11
134.5675806771086
 21
21.2339781588513
 31
0.0
  0
LINE
  5
1DE9
330
1F
100
AcDbEntity
  8
0
100
AcDbLine
 10
135.5675806771086
 20
20.2339781588513
 30
0.0
 11
154.1175806771087
 21
20.2339781588513
 31
0.0
  0
LINE
  5
1DEA
330
1F
100
AcDbEntity
  8
0
100
AcDbLine
 10
133.5675806771087
 20
98.9104781588513
 30
0.0
 11
117.0175807694602
 21
98.91047815885132
 31
0.0
  0
LINE
  5
1DF5
330
1F
100
AcDbEntity
  8
0
100
AcDbLine
 10
135.0675806771087
 20
115.8284729222836
 30
0.0
 11
135.0675806771087
 21
135.8049729222835
 31
0.0
  0
ARC
  5
1DF8
330
1F
100
AcDbEntity
  8
0
100
AcDbCircle
 10
134.0675806771087
 20
115.8284729222836
 30
0.0
 40
1.0
100
AcDbArc
 50
270.0
 51
0.0
  0
ARC
  5
1DF9
330
1F
100
AcDbEntity
  8
0
100
AcDbCircle
 10
136.0675806771087
 20
135.8049729222835
 30
0.0
 40
1.0
100
AcDbArc
 50
90.0
 51
180.0
  0
ARC
  5
1DFC
330
1F
100
AcDbEntity
  8
0
100
AcDbCircle
 10
133.5675806771087
 20
97.9104781588513
 30
0.0
 40
1.0
100
AcDbArc
 50
360.0
 51
89.99999999999994
  0
ARC
  5
1DFF
330
1F
100
AcDbEntity
  8
0
100
AcDbCircle
 10
135.5675806771086
 20
21.2339781588513
 30
0.0
 40
1.0
100
AcDbArc
 50
179.9999999999999
 51
270.0
  0
CIRCLE
  5
1E13
330
1F
100
AcDbEntity
  8
0
100
AcDbCircle
 10
39.84258067710876
 20
73.8847281588513
 30
0.0
 40
1.0
  0
CIRCLE
  5
1E1F
330
1F
100
AcDbEntity
  8
0
100
AcDbCircle
 10
116.0425806771087
 20
81.02847815885128
 30
0.0
 40
1.0
  0
CIRCLE
  5
1E20
330
1F
100
AcDbEntity
  8
0
100
AcDbCircle
 10
116.0425806771087
 20
23.87847815885131
 30
0.0
 40
1.0
  0
CIRCLE
  5
1E22
330
1F
100
AcDbEntity
  8
0
100
AcDbCircle
 10
20.76758067710873
 20
53.57147815885132
 30
0.0
 40
1.0
  0
CIRCLE
  5
1E23
330
1F
100
AcDbEntity
  8
0
100
AcDbCircle
 10
39.84258067710866
 20
35.78472815885131
 30
0.0
 40
1.0
  0
LINE
  5
1E27
330
1F
100
AcDbEntity
  8
0
100
AcDbLine
 10
136.0675806771087
 20
136.8049729222835
 30
0.0
 11
153.1175806771087
 21
136.8049729222835
 31
0.0
  0
LINE
  5
1E28
330
1F
100
AcDbEntity
  8
0
100
AcDbLine
 10
134.0675806771087
 20
114.8284729222836
 30
0.0
 11
117.0175807694602
 21
114.8284729222836
 31
0.0
  0
CIRCLE
  5
1E34
330
1F
100
AcDbEntity
  8
0
100
AcDbCircle
 10
39.8425806771088
 20
139.8542229222835
 30
0.0
 40
1.0
  0
CIRCLE
  5
1E36
330
1F
100
AcDbEntity
  8
0
100
AcDbCircle
 10
116.0425806771087
 20
189.8604729222835
 30
0.0
 40
1.0
  0
CIRCLE
  5
1E37
330
1F
100
AcDbEntity
  8
0
100
AcDbCircle
 10
20.76758067710875
 20
160.1674729222835
 30
0.0
 40
1.0
  0
CIRCLE
  5
1E38
330
1F
100
AcDbEntity
  8
0
100
AcDbCircle
 10
39.84258067710868
 20
177.9542229222836
 30
0.0
 40
1.0
  0
LINE
  5
1FA9
330
1F
100
AcDbEntity
  8
0
100
AcDbLine
 10
229.2675806771085
 20
103.4589781588513
 30
0.0
 11
216.2675806771086
 21
103.4589781588513
 31
0.0
  0
LINE
  5
1FAA
330
1F
100
AcDbEntity
  8
0
100
AcDbLine
 10
229.2675806771085
 20
89.4589781588513
 30
0.0
 11
216.2675806771086
 21
89.4589781588513
 31
0.0
  0
LINE
  5
1FAB
330
1F
100
AcDbEntity
  8
0
100
AcDbLine
 10
229.7675806771085
 20
102.9589781588513
 30
0.0
 11
229.7675806771085
 21
89.95897815885129
 31
0.0
  0
LINE
  5
1FAC
330
1F
100
AcDbEntity
  8
0
100
AcDbLine
 10
215.7675806771087
 20
102.9589781588513
 30
0.0
 11
215.7675806771087
 21
89.95897815885129
 31
0.0
  0
ARC
  5
1FAD
330
1F
100
AcDbEntity
  8
0
100
AcDbCircle
 10
229.2675806771085
 20
102.9589781588513
 30
0.0
 40
0.5
100
AcDbArc
 50
0.0
 51
90.0
  0
ARC
  5
1FAE
330
1F
100
AcDbEntity
  8
0
100
AcDbCircle
 10
216.2675806771086
 20
102.9589781588513
 30
0.0
 40
0.5
100
AcDbArc
 50
90.0
 51
180.0
  0
ARC
  5
1FAF
330
1F
100
AcDbEntity
  8
0
100
AcDbCircle
 10
229.2675806771085
 20
89.95897815885129
 30
0.0
 40
0.5
100
AcDbArc
 50
270.0
 51
0.0
  0
ARC
  5
1FB0
330
1F
100
AcDbEntity
  8
0
100
AcDbCircle
 10
216.2675806771086
 20
89.95897815885129
 30
0.0
 40
0.5
100
AcDbArc
 50
180.0
 51
270.0
  0
LINE
  5
1FB1
330
1F
100
AcDbEntity
  8
0
100
AcDbLine
 10
248.3175806771086
 20
98.6964781588513
 30
0.0
 11
235.3175806771086
 21
98.6964781588513
 31
0.0
  0
LINE
  5
1FB2
330
1F
100
AcDbEntity
  8
0
100
AcDbLine
 10
248.3175806771086
 20
84.69647815885128
 30
0.0
 11
235.3175806771086
 21
84.69647815885128
 31
0.0
  0
LINE
  5
1FB3
330
1F
100
AcDbEntity
  8
0
100
AcDbLine
 10
248.8175806771086
 20
98.19647815885128
 30
0.0
 11
248.8175806771086
 21
85.1964781588513
 31
0.0
  0
LINE
  5
1FB4
330
1F
100
AcDbEntity
  8
0
100
AcDbLine
 10
234.8175806771086
 20
98.19647815885128
 30
0.0
 11
234.8175806771086
 21
85.1964781588513
 31
0.0
  0
ARC
  5
1FB5
330
1F
100
AcDbEntity
  8
0
100
AcDbCircle
 10
248.3175806771086
 20
98.19647815885128
 30
0.0
 40
0.5
100
AcDbArc
 50
0.0
 51
90.0
  0
ARC
  5
1FB6
330
1F
100
AcDbEntity
  8
0
100
AcDbCircle
 10
235.3175806771086
 20
98.19647815885128
 30
0.0
 40
0.5
100
AcDbArc
 50
90.0
 51
180.0
  0
ARC
  5
1FB7
330
1F
100
AcDbEntity
  8
0
100
AcDbCircle
 10
248.3175806771086
 20
85.1964781588513
 30
0.0
 40
0.5
100
AcDbArc
 50
270.0
 51
0.0
  0
ARC
  5
1FB8
330
1F
100
AcDbEntity
  8
0
100
AcDbCircle
 10
235.3175806771086
 20
85.1964781588513
 30
0.0
 40
0.5
100
AcDbArc
 50
180.0
 51
270.0
  0
LINE
  5
1FB9
330
1F
100
AcDbEntity
  8
0
100
AcDbLine
 10
210.2175806771087
 20
98.6964781588513
 30
0.0
 11
197.2175806771085
 21
98.6964781588513
 31
0.0
  0
LINE
  5
1FBA
330
1F
100
AcDbEntity
  8
0
100
AcDbLine
 10
210.2175806771087
 20
84.69647815885128
 30
0.0
 11
197.2175806771085
 21
84.69647815885128
 31
0.0
  0
LINE
  5
1FBB
330
1F
100
AcDbEntity
  8
0
100
AcDbLine
 10
210.7175806771086
 20
98.19647815885128
 30
0.0
 11
210.7175806771086
 21
85.1964781588513
 31
0.0
  0
LINE
  5
1FBC
330
1F
100
AcDbEntity
  8
0
100
AcDbLine
 10
196.7175806771086
 20
98.19647815885128
 30
0.0
 11
196.7175806771086
 21
85.1964781588513
 31
0.0
  0
ARC
  5
1FBD
330
1F
100
AcDbEntity
  8
0
100
AcDbCircle
 10
210.2175806771087
 20
98.19647815885128
 30
0.0
 40
0.5
100
AcDbArc
 50
0.0
 51
90.0
  0
ARC
  5
1FBE
330
1F
100
AcDbEntity
  8
0
100
AcDbCircle
 10
197.2175806771085
 20
98.19647815885128
 30
0.0
 40
0.5
100
AcDbArc
 50
90.0
 51
180.0
  0
ARC
  5
1FBF
330
1F
100
AcDbEntity
  8
0
100
AcDbCircle
 10
210.2175806771087
 20
85.1964781588513
 30
0.0
 40
0.5
100
AcDbArc
 50
270.0
 51
0.0
  0
ARC
  5
1FC0
330
1F
100
AcDbEntity
  8
0
100
AcDbCircle
 10
197.2175806771085
 20
85.1964781588513
 30
0.0
 40
0.5
100
AcDbArc
 50
180.0
 51
270.0
  0
LINE
  5
1FC1
330
1F
100
AcDbEntity
  8
0
100
AcDbLine
 10
191.1675806771086
 20
96.4104781588513
 30
0.0
 11
178.1675806771086
 21
96.4104781588513
 31
0.0
  0
LINE
  5
1FC2
330
1F
100
AcDbEntity
  8
0
100
AcDbLine
 10
191.1675806771086
 20
82.41047815885128
 30
0.0
 11
178.1675806771086
 21
82.41047815885128
 31
0.0
  0
LINE
  5
1FC3
330
1F
100
AcDbEntity
  8
0
100
AcDbLine
 10
191.6675806771085
 20
95.91047815885128
 30
0.0
 11
191.6675806771085
 21
82.9104781588513
 31
0.0
  0
LINE
  5
1FC4
330
1F
100
AcDbEntity
  8
0
100
AcDbLine
 10
177.6675806771087
 20
95.91047815885128
 30
0.0
 11
177.6675806771087
 21
82.9104781588513
 31
0.0
  0
ARC
  5
1FC5
330
1F
100
AcDbEntity
  8
0
100
AcDbCircle
 10
191.1675806771086
 20
95.91047815885128
 30
0.0
 40
0.5
100
AcDbArc
 50
0.0
 51
90.0
  0
ARC
  5
1FC6
330
1F
100
AcDbEntity
  8
0
100
AcDbCircle
 10
178.1675806771086
 20
95.91047815885128
 30
0.0
 40
0.5
100
AcDbArc
 50
90.0
 51
180.0
  0
ARC
  5
1FC7
330
1F
100
AcDbEntity
  8
0
100
AcDbCircle
 10
191.1675806771086
 20
82.9104781588513
 30
0.0
 40
0.5
100
AcDbArc
 50
270.0
 51
0.0
  0
ARC
  5
1FC8
330
1F
100
AcDbEntity
  8
0
100
AcDbCircle
 10
178.1675806771086
 20
82.9104781588513
 30
0.0
 40
0.5
100
AcDbArc
 50
180.0
 51
270.0
  0
LINE
  5
1FC9
330
1F
100
AcDbEntity
  8
0
100
AcDbLine
 10
267.3675806771086
 20
91.6479781588513
 30
0.0
 11
254.3675806771086
 21
91.6479781588513
 31
0.0
  0
LINE
  5
1FCA
330
1F
100
AcDbEntity
  8
0
100
AcDbLine
 10
267.3675806771086
 20
77.6479781588513
 30
0.0
 11
254.3675806771086
 21
77.6479781588513
 31
0.0
  0
LINE
  5
1FCB
330
1F
100
AcDbEntity
  8
0
100
AcDbLine
 10
267.8675806771086
 20
91.14797815885131
 30
0.0
 11
267.8675806771086
 21
78.1479781588513
 31
0.0
  0
LINE
  5
1FCC
330
1F
100
AcDbEntity
  8
0
100
AcDbLine
 10
253.8675806771086
 20
91.14797815885131
 30
0.0
 11
253.8675806771086
 21
78.1479781588513
 31
0.0
  0
ARC
  5
1FCD
330
1F
100
AcDbEntity
  8
0
100
AcDbCircle
 10
267.3675806771086
 20
91.14797815885131
 30
0.0
 40
0.5
100
AcDbArc
 50
0.0
 51
90.0
  0
ARC
  5
1FCE
330
1F
100
AcDbEntity
  8
0
100
AcDbCircle
 10
254.3675806771086
 20
91.14797815885131
 30
0.0
 40
0.5
100
AcDbArc
 50
90.0
 51
180.0
  0
ARC
  5
1FCF
330
1F
100
AcDbEntity
  8
0
100
AcDbCircle
 10
267.3675806771086
 20
78.1479781588513
 30
0.0
 40
0.5
100
AcDbArc
 50
270.0
 51
0.0
  0
ARC
  5
1FD0
330
1F
100
AcDbEntity
  8
0
100
AcDbCircle
 10
254.3675806771086
 20
78.1479781588513
 30
0.0
 40
0.5
100
AcDbArc
 50
180.0
 51
270.0
  0
LINE
  5
1FD1
330
1F
100
AcDbEntity
  8
0
100
AcDbLine
 10
286.4175806771086
 20
89.1714781588513
 30
0.0
 11
273.4175806771086
 21
89.1714781588513
 31
0.0
  0
LINE
  5
1FD2
330
1F
100
AcDbEntity
  8
0
100
AcDbLine
 10
286.4175806771086
 20
75.1714781588513
 30
0.0
 11
273.4175806771086
 21
75.1714781588513
 31
0.0
  0
LINE
  5
1FD3
330
1F
100
AcDbEntity
  8
0
100
AcDbLine
 10
286.9175806771086
 20
88.67147815885131
 30
0.0
 11
286.9175806771086
 21
75.6714781588513
 31
0.0
  0
LINE
  5
1FD4
330
1F
100
AcDbEntity
  8
0
100
AcDbLine
 10
272.9175806771086
 20
88.67147815885131
 30
0.0
 11
272.9175806771086
 21
75.6714781588513
 31
0.0
  0
ARC
  5
1FD5
330
1F
100
AcDbEntity
  8
0
100
AcDbCircle
 10
286.4175806771086
 20
88.67147815885131
 30
0.0
 40
0.5
100
AcDbArc
 50
0.0
 51
90.0
  0
ARC
  5
1FD6
330
1F
100
AcDbEntity
  8
0
100
AcDbCircle
 10
273.4175806771086
 20
88.67147815885131
 30
0.0
 40
0.5
100
AcDbArc
 50
90.0
 51
180.0
  0
ARC
  5
1FD7
330
1F
100
AcDbEntity
  8
0
100
AcDbCircle
 10
286.4175806771086
 20
75.6714781588513
 30
0.0
 40
0.5
100
AcDbArc
 50
270.0
 51
0.0
  0
ARC
  5
1FD8
330
1F
100
AcDbEntity
  8
0
100
AcDbCircle
 10
273.4175806771086
 20
75.6714781588513
 30
0.0
 40
0.5
100
AcDbArc
 50
180.0
 51
270.0
  0
LINE
  5
1FD9
330
1F
100
AcDbEntity
  8
0
100
AcDbLine
 10
229.2675806771085
 20
84.40897815885129
 30
0.0
 11
216.2675806771086
 21
84.40897815885129
 31
0.0
  0
LINE
  5
1FDA
330
1F
100
AcDbEntity
  8
0
100
AcDbLine
 10
229.2675806771085
 20
70.40897815885131
 30
0.0
 11
216.2675806771086
 21
70.40897815885131
 31
0.0
  0
LINE
  5
1FDB
330
1F
100
AcDbEntity
  8
0
100
AcDbLine
 10
229.7675806771085
 20
83.9089781588513
 30
0.0
 11
229.7675806771085
 21
70.90897815885131
 31
0.0
  0
LINE
  5
1FDC
330
1F
100
AcDbEntity
  8
0
100
AcDbLine
 10
215.7675806771087
 20
83.9089781588513
 30
0.0
 11
215.7675806771087
 21
70.90897815885131
 31
0.0
  0
ARC
  5
1FDD
330
1F
100
AcDbEntity
  8
0
100
AcDbCircle
 10
229.2675806771085
 20
83.9089781588513
 30
0.0
 40
0.5
100
AcDbArc
 50
0.0
 51
90.0
  0
ARC
  5
1FDE
330
1F
100
AcDbEntity
  8
0
100
AcDbCircle
 10
216.2675806771086
 20
83.9089781588513
 30
0.0
 40
0.5
100
AcDbArc
 50
90.0
 51
180.0
  0
ARC
  5
1FDF
330
1F
100
AcDbEntity
  8
0
100
AcDbCircle
 10
229.2675806771085
 20
70.90897815885131
 30
0.0
 40
0.5
100
AcDbArc
 50
270.0
 51
0.0
  0
ARC
  5
1FE0
330
1F
100
AcDbEntity
  8
0
100
AcDbCircle
 10
216.2675806771086
 20
70.90897815885131
 30
0.0
 40
0.5
100
AcDbArc
 50
180.0
 51
270.0
  0
LINE
  5
1FE1
330
1F
100
AcDbEntity
  8
0
100
AcDbLine
 10
248.3175806771086
 20
79.64647815885129
 30
0.0
 11
235.3175806771086
 21
79.64647815885129
 31
0.0
  0
LINE
  5
1FE2
330
1F
100
AcDbEntity
  8
0
100
AcDbLine
 10
248.3175806771086
 20
65.6464781588513
 30
0.0
 11
235.3175806771086
 21
65.6464781588513
 31
0.0
  0
LINE
  5
1FE3
330
1F
100
AcDbEntity
  8
0
100
AcDbLine
 10
248.8175806771086
 20
79.14647815885129
 30
0.0
 11
248.8175806771086
 21
66.14647815885131
 31
0.0
  0
LINE
  5
1FE4
330
1F
100
AcDbEntity
  8
0
100
AcDbLine
 10
234.8175806771086
 20
79.14647815885129
 30
0.0
 11
234.8175806771086
 21
66.14647815885131
 31
0.0
  0
ARC
  5
1FE5
330
1F
100
AcDbEntity
  8
0
100
AcDbCircle
 10
248.3175806771086
 20
79.14647815885129
 30
0.0
 40
0.5
100
AcDbArc
 50
0.0
 51
90.0
  0
ARC
  5
1FE6
330
1F
100
AcDbEntity
  8
0
100
AcDbCircle
 10
235.3175806771086
 20
79.14647815885129
 30
0.0
 40
0.5
100
AcDbArc
 50
90.0
 51
180.0
  0
ARC
  5
1FE7
330
1F
100
AcDbEntity
  8
0
100
AcDbCircle
 10
248.3175806771086
 20
66.14647815885131
 30
0.0
 40
0.5
100
AcDbArc
 50
270.0
 51
0.0
  0
ARC
  5
1FE8
330
1F
100
AcDbEntity
  8
0
100
AcDbCircle
 10
235.3175806771086
 20
66.14647815885131
 30
0.0
 40
0.5
100
AcDbArc
 50
180.0
 51
270.0
  0
LINE
  5
1FE9
330
1F
100
AcDbEntity
  8
0
100
AcDbLine
 10
210.2175806771087
 20
79.64647815885129
 30
0.0
 11
197.2175806771085
 21
79.64647815885129
 31
0.0
  0
LINE
  5
1FEA
330
1F
100
AcDbEntity
  8
0
100
AcDbLine
 10
210.2175806771087
 20
65.6464781588513
 30
0.0
 11
197.2175806771085
 21
65.6464781588513
 31
0.0
  0
LINE
  5
1FEB
330
1F
100
AcDbEntity
  8
0
100
AcDbLine
 10
210.7175806771086
 20
79.14647815885129
 30
0.0
 11
210.7175806771086
 21
66.14647815885131
 31
0.0
  0
LINE
  5
1FEC
330
1F
100
AcDbEntity
  8
0
100
AcDbLine
 10
196.7175806771086
 20
79.14647815885129
 30
0.0
 11
196.7175806771086
 21
66.14647815885131
 31
0.0
  0
ARC
  5
1FED
330
1F
100
AcDbEntity
  8
0
100
AcDbCircle
 10
210.2175806771087
 20
79.14647815885129
 30
0.0
 40
0.5
100
AcDbArc
 50
0.0
 51
90.0
  0
ARC
  5
1FEE
330
1F
100
AcDbEntity
  8
0
100
AcDbCircle
 10
197.2175806771085
 20
79.14647815885129
 30
0.0
 40
0.5
100
AcDbArc
 50
90.0
 51
180.0
  0
ARC
  5
1FEF
330
1F
100
AcDbEntity
  8
0
100
AcDbCircle
 10
210.2175806771087
 20
66.14647815885131
 30
0.0
 40
0.5
100
AcDbArc
 50
270.0
 51
0.0
  0
ARC
  5
1FF0
330
1F
100
AcDbEntity
  8
0
100
AcDbCircle
 10
197.2175806771085
 20
66.14647815885131
 30
0.0
 40
0.5
100
AcDbArc
 50
180.0
 51
270.0
  0
LINE
  5
1FF1
330
1F
100
AcDbEntity
  8
0
100
AcDbLine
 10
191.1675806771086
 20
77.36047815885129
 30
0.0
 11
178.1675806771086
 21
77.36047815885129
 31
0.0
  0
LINE
  5
1FF2
330
1F
100
AcDbEntity
  8
0
100
AcDbLine
 10
191.1675806771086
 20
63.36047815885128
 30
0.0
 11
178.1675806771086
 21
63.36047815885128
 31
0.0
  0
LINE
  5
1FF3
330
1F
100
AcDbEntity
  8
0
100
AcDbLine
 10
191.6675806771085
 20
76.86047815885129
 30
0.0
 11
191.6675806771085
 21
63.86047815885127
 31
0.0
  0
LINE
  5
1FF4
330
1F
100
AcDbEntity
  8
0
100
AcDbLine
 10
177.6675806771087
 20
76.86047815885129
 30
0.0
 11
177.6675806771087
 21
63.86047815885127
 31
0.0
  0
ARC
  5
1FF5
330
1F
100
AcDbEntity
  8
0
100
AcDbCircle
 10
191.1675806771086
 20
76.86047815885129
 30
0.0
 40
0.5
100
AcDbArc
 50
0.0
 51
90.0
  0
ARC
  5
1FF6
330
1F
100
AcDbEntity
  8
0
100
AcDbCircle
 10
178.1675806771086
 20
76.86047815885129
 30
0.0
 40
0.5
100
AcDbArc
 50
90.0
 51
180.0
  0
ARC
  5
1FF7
330
1F
100
AcDbEntity
  8
0
100
AcDbCircle
 10
191.1675806771086
 20
63.86047815885127
 30
0.0
 40
0.5
100
AcDbArc
 50
270.0
 51
0.0
  0
ARC
  5
1FF8
330
1F
100
AcDbEntity
  8
0
100
AcDbCircle
 10
178.1675806771086
 20
63.86047815885127
 30
0.0
 40
0.5
100
AcDbArc
 50
180.0
 51
270.0
  0
LINE
  5
1FF9
330
1F
100
AcDbEntity
  8
0
100
AcDbLine
 10
267.3675806771086
 20
72.5979781588513
 30
0.0
 11
254.3675806771086
 21
72.5979781588513
 31
0.0
  0
LINE
  5
1FFA
330
1F
100
AcDbEntity
  8
0
100
AcDbLine
 10
267.3675806771086
 20
58.5979781588513
 30
0.0
 11
254.3675806771086
 21
58.5979781588513
 31
0.0
  0
LINE
  5
1FFB
330
1F
100
AcDbEntity
  8
0
100
AcDbLine
 10
267.8675806771086
 20
72.09797815885131
 30
0.0
 11
267.8675806771086
 21
59.09797815885129
 31
0.0
  0
LINE
  5
1FFC
330
1F
100
AcDbEntity
  8
0
100
AcDbLine
 10
253.8675806771086
 20
72.09797815885131
 30
0.0
 11
253.8675806771086
 21
59.09797815885129
 31
0.0
  0
ARC
  5
1FFD
330
1F
100
AcDbEntity
  8
0
100
AcDbCircle
 10
267.3675806771086
 20
72.09797815885131
 30
0.0
 40
0.5
100
AcDbArc
 50
0.0
 51
90.0
  0
ARC
  5
1FFE
330
1F
100
AcDbEntity
  8
0
100
AcDbCircle
 10
254.3675806771086
 20
72.09797815885131
 30
0.0
 40
0.5
100
AcDbArc
 50
90.0
 51
180.0
  0
ARC
  5
1FFF
330
1F
100
AcDbEntity
  8
0
100
AcDbCircle
 10
267.3675806771086
 20
59.09797815885129
 30
0.0
 40
0.5
100
AcDbArc
 50
270.0
 51
0.0
  0
ARC
  5
2000
330
1F
100
AcDbEntity
  8
0
100
AcDbCircle
 10
254.3675806771086
 20
59.09797815885129
 30
0.0
 40
0.5
100
AcDbArc
 50
180.0
 51
270.0
  0
LINE
  5
2001
330
1F
100
AcDbEntity
  8
0
100
AcDbLine
 10
286.4175806771086
 20
70.1214781588513
 30
0.0
 11
273.4175806771086
 21
70.1214781588513
 31
0.0
  0
LINE
  5
2002
330
1F
100
AcDbEntity
  8
0
100
AcDbLine
 10
286.4175806771086
 20
56.12147815885129
 30
0.0
 11
273.4175806771086
 21
56.12147815885129
 31
0.0
  0
LINE
  5
2003
330
1F
100
AcDbEntity
  8
0
100
AcDbLine
 10
286.9175806771086
 20
69.6214781588513
 30
0.0
 11
286.9175806771086
 21
56.62147815885129
 31
0.0
  0
LINE
  5
2004
330
1F
100
AcDbEntity
  8
0
100
AcDbLine
 10
272.9175806771086
 20
69.6214781588513
 30
0.0
 11
272.9175806771086
 21
56.62147815885129
 31
0.0
  0
ARC
  5
2005
330
1F
100
AcDbEntity
  8
0
100
AcDbCircle
 10
286.4175806771086
 20
69.6214781588513
 30
0.0
 40
0.5
100
AcDbArc
 50
0.0
 51
90.0
  0
ARC
  5
2006
330
1F
100
AcDbEntity
  8
0
100
AcDbCircle
 10
273.4175806771086
 20
69.6214781588513
 30
0.0
 40
0.5
100
AcDbArc
 50
90.0
 51
180.0
  0
ARC
  5
2007
330
1F
100
AcDbEntity
  8
0
100
AcDbCircle
 10
286.4175806771086
 20
56.62147815885129
 30
0.0
 40
0.5
100
AcDbArc
 50
270.0
 51
0.0
  0
ARC
  5
2008
330
1F
100
AcDbEntity
  8
0
100
AcDbCircle
 10
273.4175806771086
 20
56.62147815885129
 30
0.0
 40
0.5
100
AcDbArc
 50
180.0
 51
270.0
  0
LINE
  5
2009
330
1F
100
AcDbEntity
  8
0
100
AcDbLine
 10
229.2675806771085
 20
65.3589781588513
 30
0.0
 11
216.2675806771086
 21
65.3589781588513
 31
0.0
  0
LINE
  5
200A
330
1F
100
AcDbEntity
  8
0
100
AcDbLine
 10
229.2675806771085
 20
51.3589781588513
 30
0.0
 11
216.2675806771086
 21
51.3589781588513
 31
0.0
  0
LINE
  5
200B
330
1F
100
AcDbEntity
  8
0
100
AcDbLine
 10
229.7675806771085
 20
64.8589781588513
 30
0.0
 11
229.7675806771085
 21
51.8589781588513
 31
0.0
  0
LINE
  5
200C
330
1F
100
AcDbEntity
  8
0
100
AcDbLine
 10
215.7675806771087
 20
64.8589781588513
 30
0.0
 11
215.7675806771087
 21
51.8589781588513
 31
0.0
  0
ARC
  5
200D
330
1F
100
AcDbEntity
  8
0
100
AcDbCircle
 10
229.2675806771085
 20
64.8589781588513
 30
0.0
 40
0.5
100
AcDbArc
 50
0.0
 51
90.0
  0
ARC
  5
200E
330
1F
100
AcDbEntity
  8
0
100
AcDbCircle
 10
216.2675806771086
 20
64.8589781588513
 30
0.0
 40
0.5
100
AcDbArc
 50
90.0
 51
180.0
  0
ARC
  5
200F
330
1F
100
AcDbEntity
  8
0
100
AcDbCircle
 10
229.2675806771085
 20
51.8589781588513
 30
0.0
 40
0.5
100
AcDbArc
 50
270.0
 51
0.0
  0
ARC
  5
2010
330
1F
100
AcDbEntity
  8
0
100
AcDbCircle
 10
216.2675806771086
 20
51.8589781588513
 30
0.0
 40
0.5
100
AcDbArc
 50
180.0
 51
270.0
  0
LINE
  5
2011
330
1F
100
AcDbEntity
  8
0
100
AcDbLine
 10
248.3175806771086
 20
60.59647815885131
 30
0.0
 11
235.3175806771086
 21
60.59647815885131
 31
0.0
  0
LINE
  5
2012
330
1F
100
AcDbEntity
  8
0
100
AcDbLine
 10
248.3175806771086
 20
46.59647815885128
 30
0.0
 11
235.3175806771086
 21
46.59647815885128
 31
0.0
  0
LINE
  5
2013
330
1F
100
AcDbEntity
  8
0
100
AcDbLine
 10
248.8175806771086
 20
60.09647815885131
 30
0.0
 11
248.8175806771086
 21
47.09647815885129
 31
0.0
  0
LINE
  5
2014
330
1F
100
AcDbEntity
  8
0
100
AcDbLine
 10
234.8175806771086
 20
60.09647815885131
 30
0.0
 11
234.8175806771086
 21
47.09647815885129
 31
0.0
  0
ARC
  5
2015
330
1F
100
AcDbEntity
  8
0
100
AcDbCircle
 10
248.3175806771086
 20
60.09647815885131
 30
0.0
 40
0.5
100
AcDbArc
 50
0.0
 51
90.0
  0
ARC
  5
2016
330
1F
100
AcDbEntity
  8
0
100
AcDbCircle
 10
235.3175806771086
 20
60.09647815885131
 30
0.0
 40
0.5
100
AcDbArc
 50
90.0
 51
180.0
  0
ARC
  5
2017
330
1F
100
AcDbEntity
  8
0
100
AcDbCircle
 10
248.3175806771086
 20
47.09647815885129
 30
0.0
 40
0.5
100
AcDbArc
 50
270.0
 51
0.0
  0
ARC
  5
2018
330
1F
100
AcDbEntity
  8
0
100
AcDbCircle
 10
235.3175806771086
 20
47.09647815885129
 30
0.0
 40
0.5
100
AcDbArc
 50
180.0
 51
270.0
  0
LINE
  5
2019
330
1F
100
AcDbEntity
  8
0
100
AcDbLine
 10
210.2175806771087
 20
60.59647815885131
 30
0.0
 11
197.2175806771085
 21
60.59647815885131
 31
0.0
  0
LINE
  5
201A
330
1F
100
AcDbEntity
  8
0
100
AcDbLine
 10
210.2175806771087
 20
46.59647815885128
 30
0.0
 11
197.2175806771085
 21
46.59647815885128
 31
0.0
  0
LINE
  5
201B
330
1F
100
AcDbEntity
  8
0
100
AcDbLine
 10
210.7175806771086
 20
60.09647815885131
 30
0.0
 11
210.7175806771086
 21
47.09647815885129
 31
0.0
  0
LINE
  5
201C
330
1F
100
AcDbEntity
  8
0
100
AcDbLine
 10
196.7175806771086
 20
60.09647815885131
 30
0.0
 11
196.7175806771086
 21
47.09647815885129
 31
0.0
  0
ARC
  5
201D
330
1F
100
AcDbEntity
  8
0
100
AcDbCircle
 10
210.2175806771087
 20
60.09647815885131
 30
0.0
 40
0.5
100
AcDbArc
 50
0.0
 51
90.0
  0
ARC
  5
201E
330
1F
100
AcDbEntity
  8
0
100
AcDbCircle
 10
197.2175806771085
 20
60.09647815885131
 30
0.0
 40
0.5
100
AcDbArc
 50
90.0
 51
180.0
  0
ARC
  5
201F
330
1F
100
AcDbEntity
  8
0
100
AcDbCircle
 10
210.2175806771087
 20
47.09647815885129
 30
0.0
 40
0.5
100
AcDbArc
 50
270.0
 51
0.0
  0
ARC
  5
2020
330
1F
100
AcDbEntity
  8
0
100
AcDbCircle
 10
197.2175806771085
 20
47.09647815885129
 30
0.0
 40
0.5
100
AcDbArc
 50
180.0
 51
270.0
  0
LINE
  5
2021
330
1F
100
AcDbEntity
  8
0
100
AcDbLine
 10
191.1675806771086
 20
58.31047815885129
 30
0.0
 11
178.1675806771086
 21
58.31047815885129
 31
0.0
  0
LINE
  5
2022
330
1F
100
AcDbEntity
  8
0
100
AcDbLine
 10
191.1675806771086
 20
44.31047815885128
 30
0.0
 11
178.1675806771086
 21
44.31047815885128
 31
0.0
  0
LINE
  5
2023
330
1F
100
AcDbEntity
  8
0
100
AcDbLine
 10
191.6675806771085
 20
57.81047815885129
 30
0.0
 11
191.6675806771085
 21
44.81047815885129
 31
0.0
  0
LINE
  5
2024
330
1F
100
AcDbEntity
  8
0
100
AcDbLine
 10
177.6675806771087
 20
57.81047815885129
 30
0.0
 11
177.6675806771087
 21
44.81047815885129
 31
0.0
  0
ARC
  5
2025
330
1F
100
AcDbEntity
  8
0
100
AcDbCircle
 10
191.1675806771086
 20
57.81047815885129
 30
0.0
 40
0.5
100
AcDbArc
 50
0.0
 51
90.0
  0
ARC
  5
2026
330
1F
100
AcDbEntity
  8
0
100
AcDbCircle
 10
178.1675806771086
 20
57.81047815885129
 30
0.0
 40
0.5
100
AcDbArc
 50
90.0
 51
180.0
  0
ARC
  5
2027
330
1F
100
AcDbEntity
  8
0
100
AcDbCircle
 10
191.1675806771086
 20
44.81047815885129
 30
0.0
 40
0.5
100
AcDbArc
 50
270.0
 51
0.0
  0
ARC
  5
2028
330
1F
100
AcDbEntity
  8
0
100
AcDbCircle
 10
178.1675806771086
 20
44.81047815885129
 30
0.0
 40
0.5
100
AcDbArc
 50
180.0
 51
270.0
  0
LINE
  5
2029
330
1F
100
AcDbEntity
  8
0
100
AcDbLine
 10
305.4675806771086
 20
55.83397815885128
 30
0.0
 11
292.4675806771086
 21
55.83397815885128
 31
0.0
  0
LINE
  5
202A
330
1F
100
AcDbEntity
  8
0
100
AcDbLine
 10
305.4675806771086
 20
41.83397815885128
 30
0.0
 11
292.4675806771086
 21
41.83397815885128
 31
0.0
  0
LINE
  5
202B
330
1F
100
AcDbEntity
  8
0
100
AcDbLine
 10
305.9675806771086
 20
55.33397815885129
 30
0.0
 11
305.9675806771086
 21
42.33397815885131
 31
0.0
  0
LINE
  5
202C
330
1F
100
AcDbEntity
  8
0
100
AcDbLine
 10
291.9675806771086
 20
55.33397815885129
 30
0.0
 11
291.9675806771086
 21
42.33397815885131
 31
0.0
  0
ARC
  5
202D
330
1F
100
AcDbEntity
  8
0
100
AcDbCircle
 10
305.4675806771086
 20
55.33397815885129
 30
0.0
 40
0.5
100
AcDbArc
 50
0.0
 51
90.0
  0
ARC
  5
202E
330
1F
100
AcDbEntity
  8
0
100
AcDbCircle
 10
292.4675806771086
 20
55.33397815885129
 30
0.0
 40
0.5
100
AcDbArc
 50
90.0
 51
180.0
  0
ARC
  5
202F
330
1F
100
AcDbEntity
  8
0
100
AcDbCircle
 10
305.4675806771086
 20
42.33397815885131
 30
0.0
 40
0.5
100
AcDbArc
 50
270.0
 51
0.0
  0
ARC
  5
2030
330
1F
100
AcDbEntity
  8
0
100
AcDbCircle
 10
292.4675806771086
 20
42.33397815885131
 30
0.0
 40
0.5
100
AcDbArc
 50
180.0
 51
270.0
  0
LINE
  5
2031
330
1F
100
AcDbEntity
  8
0
100
AcDbLine
 10
267.3675806771086
 20
53.5479781588513
 30
0.0
 11
254.3675806771086
 21
53.5479781588513
 31
0.0
  0
LINE
  5
2032
330
1F
100
AcDbEntity
  8
0
100
AcDbLine
 10
267.3675806771086
 20
39.54797815885129
 30
0.0
 11
254.3675806771086
 21
39.54797815885129
 31
0.0
  0
LINE
  5
2033
330
1F
100
AcDbEntity
  8
0
100
AcDbLine
 10
267.8675806771086
 20
53.0479781588513
 30
0.0
 11
267.8675806771086
 21
40.04797815885129
 31
0.0
  0
LINE
  5
2034
330
1F
100
AcDbEntity
  8
0
100
AcDbLine
 10
253.8675806771086
 20
53.0479781588513
 30
0.0
 11
253.8675806771086
 21
40.04797815885129
 31
0.0
  0
ARC
  5
2035
330
1F
100
AcDbEntity
  8
0
100
AcDbCircle
 10
267.3675806771086
 20
53.0479781588513
 30
0.0
 40
0.5
100
AcDbArc
 50
0.0
 51
90.0
  0
ARC
  5
2036
330
1F
100
AcDbEntity
  8
0
100
AcDbCircle
 10
254.3675806771086
 20
53.0479781588513
 30
0.0
 40
0.5
100
AcDbArc
 50
90.0
 51
180.0
  0
ARC
  5
2037
330
1F
100
AcDbEntity
  8
0
100
AcDbCircle
 10
267.3675806771086
 20
40.04797815885129
 30
0.0
 40
0.5
100
AcDbArc
 50
270.0
 51
0.0
  0
ARC
  5
2038
330
1F
100
AcDbEntity
  8
0
100
AcDbCircle
 10
254.3675806771086
 20
40.04797815885129
 30
0.0
 40
0.5
100
AcDbArc
 50
180.0
 51
270.0
  0
LINE
  5
2039
330
1F
100
AcDbEntity
  8
0
100
AcDbLine
 10
286.4175806771086
 20
51.0714781588513
 30
0.0
 11
273.4175806771086
 21
51.0714781588513
 31
0.0
  0
LINE
  5
203A
330
1F
100
AcDbEntity
  8
0
100
AcDbLine
 10
286.4175806771086
 20
37.07147815885129
 30
0.0
 11
273.4175806771086
 21
37.07147815885129
 31
0.0
  0
LINE
  5
203B
330
1F
100
AcDbEntity
  8
0
100
AcDbLine
 10
286.9175806771086
 20
50.5714781588513
 30
0.0
 11
286.9175806771086
 21
37.57147815885132
 31
0.0
  0
LINE
  5
203C
330
1F
100
AcDbEntity
  8
0
100
AcDbLine
 10
272.9175806771086
 20
50.5714781588513
 30
0.0
 11
272.9175806771086
 21
37.57147815885132
 31
0.0
  0
ARC
  5
203D
330
1F
100
AcDbEntity
  8
0
100
AcDbCircle
 10
286.4175806771086
 20
50.5714781588513
 30
0.0
 40
0.5
100
AcDbArc
 50
0.0
 51
90.0
  0
ARC
  5
203E
330
1F
100
AcDbEntity
  8
0
100
AcDbCircle
 10
273.4175806771086
 20
50.5714781588513
 30
0.0
 40
0.5
100
AcDbArc
 50
90.0
 51
180.0
  0
ARC
  5
203F
330
1F
100
AcDbEntity
  8
0
100
AcDbCircle
 10
286.4175806771086
 20
37.57147815885132
 30
0.0
 40
0.5
100
AcDbArc
 50
270.0
 51
0.0
  0
ARC
  5
2040
330
1F
100
AcDbEntity
  8
0
100
AcDbCircle
 10
273.4175806771086
 20
37.57147815885132
 30
0.0
 40
0.5
100
AcDbArc
 50
180.0
 51
270.0
  0
LINE
  5
2041
330
1F
100
AcDbEntity
  8
0
100
AcDbLine
 10
229.2675806771085
 20
46.30897815885129
 30
0.0
 11
216.2675806771086
 21
46.30897815885129
 31
0.0
  0
LINE
  5
2042
330
1F
100
AcDbEntity
  8
0
100
AcDbLine
 10
229.2675806771085
 20
32.30897815885131
 30
0.0
 11
216.2675806771086
 21
32.30897815885131
 31
0.0
  0
LINE
  5
2043
330
1F
100
AcDbEntity
  8
0
100
AcDbLine
 10
229.7675806771085
 20
45.80897815885129
 30
0.0
 11
229.7675806771085
 21
32.8089781588513
 31
0.0
  0
LINE
  5
2044
330
1F
100
AcDbEntity
  8
0
100
AcDbLine
 10
215.7675806771087
 20
45.80897815885129
 30
0.0
 11
215.7675806771087
 21
32.8089781588513
 31
0.0
  0
ARC
  5
2045
330
1F
100
AcDbEntity
  8
0
100
AcDbCircle
 10
229.2675806771085
 20
45.80897815885129
 30
0.0
 40
0.5
100
AcDbArc
 50
0.0
 51
90.0
  0
ARC
  5
2046
330
1F
100
AcDbEntity
  8
0
100
AcDbCircle
 10
216.2675806771086
 20
45.80897815885129
 30
0.0
 40
0.5
100
AcDbArc
 50
90.0
 51
180.0
  0
ARC
  5
2047
330
1F
100
AcDbEntity
  8
0
100
AcDbCircle
 10
229.2675806771085
 20
32.8089781588513
 30
0.0
 40
0.5
100
AcDbArc
 50
270.0
 51
0.0
  0
ARC
  5
2048
330
1F
100
AcDbEntity
  8
0
100
AcDbCircle
 10
216.2675806771086
 20
32.8089781588513
 30
0.0
 40
0.5
100
AcDbArc
 50
180.0
 51
270.0
  0
LINE
  5
2049
330
1F
100
AcDbEntity
  8
0
100
AcDbLine
 10
248.3175806771086
 20
41.54647815885128
 30
0.0
 11
235.3175806771086
 21
41.54647815885128
 31
0.0
  0
LINE
  5
204A
330
1F
100
AcDbEntity
  8
0
100
AcDbLine
 10
248.3175806771086
 20
27.5464781588513
 30
0.0
 11
235.3175806771086
 21
27.5464781588513
 31
0.0
  0
LINE
  5
204B
330
1F
100
AcDbEntity
  8
0
100
AcDbLine
 10
248.8175806771086
 20
41.04647815885129
 30
0.0
 11
248.8175806771086
 21
28.0464781588513
 31
0.0
  0
LINE
  5
204C
330
1F
100
AcDbEntity
  8
0
100
AcDbLine
 10
234.8175806771086
 20
41.04647815885129
 30
0.0
 11
234.8175806771086
 21
28.0464781588513
 31
0.0
  0
ARC
  5
204D
330
1F
100
AcDbEntity
  8
0
100
AcDbCircle
 10
248.3175806771086
 20
41.04647815885129
 30
0.0
 40
0.5
100
AcDbArc
 50
0.0
 51
90.0
  0
ARC
  5
204E
330
1F
100
AcDbEntity
  8
0
100
AcDbCircle
 10
235.3175806771086
 20
41.04647815885129
 30
0.0
 40
0.5
100
AcDbArc
 50
90.0
 51
180.0
  0
ARC
  5
204F
330
1F
100
AcDbEntity
  8
0
100
AcDbCircle
 10
248.3175806771086
 20
28.0464781588513
 30
0.0
 40
0.5
100
AcDbArc
 50
270.0
 51
0.0
  0
ARC
  5
2050
330
1F
100
AcDbEntity
  8
0
100
AcDbCircle
 10
235.3175806771086
 20
28.0464781588513
 30
0.0
 40
0.5
100
AcDbArc
 50
180.0
 51
270.0
  0
LINE
  5
2051
330
1F
100
AcDbEntity
  8
0
100
AcDbLine
 10
210.2175806771087
 20
41.54647815885128
 30
0.0
 11
197.2175806771085
 21
41.54647815885128
 31
0.0
  0
LINE
  5
2052
330
1F
100
AcDbEntity
  8
0
100
AcDbLine
 10
210.2175806771087
 20
27.5464781588513
 30
0.0
 11
197.2175806771085
 21
27.5464781588513
 31
0.0
  0
LINE
  5
2053
330
1F
100
AcDbEntity
  8
0
100
AcDbLine
 10
210.7175806771086
 20
41.04647815885129
 30
0.0
 11
210.7175806771086
 21
28.0464781588513
 31
0.0
  0
LINE
  5
2054
330
1F
100
AcDbEntity
  8
0
100
AcDbLine
 10
196.7175806771086
 20
41.04647815885129
 30
0.0
 11
196.7175806771086
 21
28.0464781588513
 31
0.0
  0
ARC
  5
2055
330
1F
100
AcDbEntity
  8
0
100
AcDbCircle
 10
210.2175806771087
 20
41.04647815885129
 30
0.0
 40
0.5
100
AcDbArc
 50
0.0
 51
90.0
  0
ARC
  5
2056
330
1F
100
AcDbEntity
  8
0
100
AcDbCircle
 10
197.2175806771085
 20
41.04647815885129
 30
0.0
 40
0.5
100
AcDbArc
 50
90.0
 51
180.0
  0
ARC
  5
2057
330
1F
100
AcDbEntity
  8
0
100
AcDbCircle
 10
210.2175806771087
 20
28.0464781588513
 30
0.0
 40
0.5
100
AcDbArc
 50
270.0
 51
0.0
  0
ARC
  5
2058
330
1F
100
AcDbEntity
  8
0
100
AcDbCircle
 10
197.2175806771085
 20
28.0464781588513
 30
0.0
 40
0.5
100
AcDbArc
 50
180.0
 51
270.0
  0
LINE
  5
2059
330
1F
100
AcDbEntity
  8
0
100
AcDbLine
 10
191.1675806771086
 20
39.26047815885129
 30
0.0
 11
178.1675806771086
 21
39.26047815885129
 31
0.0
  0
LINE
  5
205A
330
1F
100
AcDbEntity
  8
0
100
AcDbLine
 10
191.1675806771086
 20
25.2604781588513
 30
0.0
 11
178.1675806771086
 21
25.2604781588513
 31
0.0
  0
LINE
  5
205B
330
1F
100
AcDbEntity
  8
0
100
AcDbLine
 10
191.6675806771085
 20
38.76047815885129
 30
0.0
 11
191.6675806771085
 21
25.7604781588513
 31
0.0
  0
LINE
  5
205C
330
1F
100
AcDbEntity
  8
0
100
AcDbLine
 10
177.6675806771087
 20
38.76047815885129
 30
0.0
 11
177.6675806771087
 21
25.7604781588513
 31
0.0
  0
ARC
  5
205D
330
1F
100
AcDbEntity
  8
0
100
AcDbCircle
 10
191.1675806771086
 20
38.76047815885129
 30
0.0
 40
0.5
100
AcDbArc
 50
0.0
 51
90.0
  0
ARC
  5
205E
330
1F
100
AcDbEntity
  8
0
100
AcDbCircle
 10
178.1675806771086
 20
38.76047815885129
 30
0.0
 40
0.5
100
AcDbArc
 50
90.0
 51
180.0
  0
ARC
  5
205F
330
1F
100
AcDbEntity
  8
0
100
AcDbCircle
 10
191.1675806771086
 20
25.7604781588513
 30
0.0
 40
0.5
100
AcDbArc
 50
270.0
 51
0.0
  0
ARC
  5
2060
330
1F
100
AcDbEntity
  8
0
100
AcDbCircle
 10
178.1675806771086
 20
25.7604781588513
 30
0.0
 40
0.5
100
AcDbArc
 50
180.0
 51
270.0
  0
LINE
  5
2061
330
1F
100
AcDbEntity
  8
0
100
AcDbLine
 10
267.3675806771086
 20
34.4979781588513
 30
0.0
 11
254.3675806771086
 21
34.4979781588513
 31
0.0
  0
LINE
  5
2062
330
1F
100
AcDbEntity
  8
0
100
AcDbLine
 10
267.3675806771086
 20
20.49797815885129
 30
0.0
 11
254.3675806771086
 21
20.49797815885129
 31
0.0
  0
LINE
  5
2063
330
1F
100
AcDbEntity
  8
0
100
AcDbLine
 10
267.8675806771086
 20
33.9979781588513
 30
0.0
 11
267.8675806771086
 21
20.9979781588513
 31
0.0
  0
LINE
  5
2064
330
1F
100
AcDbEntity
  8
0
100
AcDbLine
 10
253.8675806771086
 20
33.9979781588513
 30
0.0
 11
253.8675806771086
 21
20.9979781588513
 31
0.0
  0
ARC
  5
2065
330
1F
100
AcDbEntity
  8
0
100
AcDbCircle
 10
267.3675806771086
 20
33.9979781588513
 30
0.0
 40
0.5
100
AcDbArc
 50
0.0
 51
90.0
  0
ARC
  5
2066
330
1F
100
AcDbEntity
  8
0
100
AcDbCircle
 10
254.3675806771086
 20
33.9979781588513
 30
0.0
 40
0.5
100
AcDbArc
 50
90.0
 51
180.0
  0
ARC
  5
2067
330
1F
100
AcDbEntity
  8
0
100
AcDbCircle
 10
267.3675806771086
 20
20.9979781588513
 30
0.0
 40
0.5
100
AcDbArc
 50
270.0
 51
0.0
  0
ARC
  5
2068
330
1F
100
AcDbEntity
  8
0
100
AcDbCircle
 10
254.3675806771086
 20
20.9979781588513
 30
0.0
 40
0.5
100
AcDbArc
 50
180.0
 51
270.0
  0
LINE
  5
2069
330
1F
100
AcDbEntity
  8
0
100
AcDbLine
 10
286.4175806771086
 20
32.02147815885131
 30
0.0
 11
273.4175806771086
 21
32.02147815885131
 31
0.0
  0
LINE
  5
206A
330
1F
100
AcDbEntity
  8
0
100
AcDbLine
 10
286.4175806771086
 20
18.0214781588513
 30
0.0
 11
273.4175806771086
 21
18.0214781588513
 31
0.0
  0
LINE
  5
206B
330
1F
100
AcDbEntity
  8
0
100
AcDbLine
 10
286.9175806771086
 20
31.52147815885131
 30
0.0
 11
286.9175806771086
 21
18.5214781588513
 31
0.0
  0
LINE
  5
206C
330
1F
100
AcDbEntity
  8
0
100
AcDbLine
 10
272.9175806771086
 20
31.52147815885131
 30
0.0
 11
272.9175806771086
 21
18.5214781588513
 31
0.0
  0
ARC
  5
206D
330
1F
100
AcDbEntity
  8
0
100
AcDbCircle
 10
286.4175806771086
 20
31.52147815885131
 30
0.0
 40
0.5
100
AcDbArc
 50
0.0
 51
90.0
  0
ARC
  5
206E
330
1F
100
AcDbEntity
  8
0
100
AcDbCircle
 10
273.4175806771086
 20
31.52147815885131
 30
0.0
 40
0.5
100
AcDbArc
 50
90.0
 51
180.0
  0
ARC
  5
206F
330
1F
100
AcDbEntity
  8
0
100
AcDbCircle
 10
286.4175806771086
 20
18.5214781588513
 30
0.0
 40
0.5
100
AcDbArc
 50
270.0
 51
0.0
  0
ARC
  5
2070
330
1F
100
AcDbEntity
  8
0
100
AcDbCircle
 10
273.4175806771086
 20
18.5214781588513
 30
0.0
 40
0.5
100
AcDbArc
 50
180.0
 51
270.0
  0
LINE
  5
2071
330
1F
100
AcDbEntity
  8
0
100
AcDbLine
 10
210.2175806771087
 20
22.4964781588513
 30
0.0
 11
197.2175806771085
 21
22.4964781588513
 31
0.0
  0
LINE
  5
2072
330
1F
100
AcDbEntity
  8
0
100
AcDbLine
 10
210.2175806771087
 20
8.496478158851303
 30
0.0
 11
197.2175806771085
 21
8.496478158851303
 31
0.0
  0
LINE
  5
2073
330
1F
100
AcDbEntity
  8
0
100
AcDbLine
 10
210.7175806771086
 20
21.99647815885131
 30
0.0
 11
210.7175806771086
 21
8.996478158851303
 31
0.0
  0
LINE
  5
2074
330
1F
100
AcDbEntity
  8
0
100
AcDbLine
 10
196.7175806771086
 20
21.99647815885131
 30
0.0
 11
196.7175806771086
 21
8.996478158851303
 31
0.0
  0
ARC
  5
2075
330
1F
100
AcDbEntity
  8
0
100
AcDbCircle
 10
210.2175806771087
 20
21.99647815885131
 30
0.0
 40
0.5
100
AcDbArc
 50
0.0
 51
90.0
  0
ARC
  5
2076
330
1F
100
AcDbEntity
  8
0
100
AcDbCircle
 10
197.2175806771085
 20
21.99647815885131
 30
0.0
 40
0.5
100
AcDbArc
 50
90.0
 51
180.0
  0
ARC
  5
2077
330
1F
100
AcDbEntity
  8
0
100
AcDbCircle
 10
210.2175806771087
 20
8.996478158851303
 30
0.0
 40
0.5
100
AcDbArc
 50
270.0
 51
0.0
  0
ARC
  5
2078
330
1F
100
AcDbEntity
  8
0
100
AcDbCircle
 10
197.2175806771085
 20
8.996478158851303
 30
0.0
 40
0.5
100
AcDbArc
 50
180.0
 51
270.0
  0
LINE
  5
2079
330
1F
100
AcDbEntity
  8
0
100
AcDbLine
 10
191.1675806771086
 20
20.2104781588513
 30
0.0
 11
178.1675806771086
 21
20.2104781588513
 31
0.0
  0
LINE
  5
207A
330
1F
100
AcDbEntity
  8
0
100
AcDbLine
 10
191.1675806771086
 20
6.210478158851302
 30
0.0
 11
178.1675806771086
 21
6.210478158851302
 31
0.0
  0
LINE
  5
207B
330
1F
100
AcDbEntity
  8
0
100
AcDbLine
 10
191.6675806771085
 20
19.7104781588513
 30
0.0
 11
191.6675806771085
 21
6.710478158851302
 31
0.0
  0
LINE
  5
207C
330
1F
100
AcDbEntity
  8
0
100
AcDbLine
 10
177.6675806771087
 20
19.7104781588513
 30
0.0
 11
177.6675806771087
 21
6.710478158851302
 31
0.0
  0
ARC
  5
207D
330
1F
100
AcDbEntity
  8
0
100
AcDbCircle
 10
191.1675806771086
 20
19.7104781588513
 30
0.0
 40
0.5
100
AcDbArc
 50
0.0
 51
90.0
  0
ARC
  5
207E
330
1F
100
AcDbEntity
  8
0
100
AcDbCircle
 10
178.1675806771086
 20
19.7104781588513
 30
0.0
 40
0.5
100
AcDbArc
 50
90.0
 51
180.0
  0
ARC
  5
207F
330
1F
100
AcDbEntity
  8
0
100
AcDbCircle
 10
191.1675806771086
 20
6.710478158851302
 30
0.0
 40
0.5
100
AcDbArc
 50
270.0
 51
0.0
  0
ARC
  5
2080
330
1F
100
AcDbEntity
  8
0
100
AcDbCircle
 10
178.1675806771086
 20
6.710478158851302
 30
0.0
 40
0.5
100
AcDbArc
 50
180.0
 51
270.0
  0
LINE
  5
2081
330
1F
100
AcDbEntity
  8
0
100
AcDbLine
 10
172.1175806771086
 20
17.7339781588513
 30
0.0
 11
159.1175806771087
 21
17.7339781588513
 31
0.0
  0
LINE
  5
2082
330
1F
100
AcDbEntity
  8
0
100
AcDbLine
 10
172.1175806771086
 20
3.7339781588513
 30
0.0
 11
159.1175806771087
 21
3.7339781588513
 31
0.0
  0
LINE
  5
2083
330
1F
100
AcDbEntity
  8
0
100
AcDbLine
 10
172.6175806771086
 20
17.23397815885128
 30
0.0
 11
172.6175806771086
 21
4.2339781588513
 31
0.0
  0
LINE
  5
2084
330
1F
100
AcDbEntity
  8
0
100
AcDbLine
 10
158.6175806771087
 20
17.23397815885128
 30
0.0
 11
158.6175806771087
 21
4.2339781588513
 31
0.0
  0
ARC
  5
2085
330
1F
100
AcDbEntity
  8
0
100
AcDbCircle
 10
172.1175806771086
 20
17.23397815885128
 30
0.0
 40
0.5
100
AcDbArc
 50
0.0
 51
90.0
  0
ARC
  5
2086
330
1F
100
AcDbEntity
  8
0
100
AcDbCircle
 10
159.1175806771087
 20
17.23397815885128
 30
0.0
 40
0.5
100
AcDbArc
 50
90.0
 51
180.0
  0
ARC
  5
2087
330
1F
100
AcDbEntity
  8
0
100
AcDbCircle
 10
172.1175806771086
 20
4.2339781588513
 30
0.0
 40
0.5
100
AcDbArc
 50
270.0
 51
0.0
  0
ARC
  5
2088
330
1F
100
AcDbEntity
  8
0
100
AcDbCircle
 10
159.1175806771087
 20
4.2339781588513
 30
0.0
 40
0.5
100
AcDbArc
 50
180.0
 51
270.0
  0
LINE
  5
2089
330
1F
100
AcDbEntity
  8
0
100
AcDbLine
 10
288.4675806771086
 20
91.6714781588513
 30
0.0
 11
271.3675805847572
 21
91.6714781588513
 31
0.0
  0
ARC
  5
208A
330
1F
100
AcDbEntity
  8
0
100
AcDbCircle
 10
271.3675805847572
 20
92.67147815885129
 30
0.0
 40
1.0
100
AcDbArc
 50
180.0
 51
270.0
  0
LINE
  5
208B
330
1F
100
AcDbEntity
  8
0
100
AcDbLine
 10
213.2175806771086
 20
6.996478158851296
 30
0.0
 11
213.2175806771086
 21
28.80897815885131
 31
0.0
  0
ARC
  5
208C
330
1F
100
AcDbEntity
  8
0
100
AcDbCircle
 10
214.2175806771086
 20
28.80897815885131
 30
0.0
 40
1.0
100
AcDbArc
 50
90.0
 51
180.0
  0
ARC
  5
208D
330
1F
100
AcDbEntity
  8
0
100
AcDbCircle
 10
212.2175806771086
 20
6.996478158851296
 30
0.0
 40
1.0
100
AcDbArc
 50
270.0
 51
0.0
  0
LINE
  5
208E
330
1F
100
AcDbEntity
  8
0
100
AcDbLine
 10
269.3675805847572
 20
94.1479782492617
 30
0.0
 11
252.3175805847573
 21
94.1479782492617
 31
0.0
  0
ARC
  5
208F
330
1F
100
AcDbEntity
  8
0
100
AcDbCircle
 10
252.3175805847573
 20
95.14797824926167
 30
0.0
 40
1.0
100
AcDbArc
 50
180.0
 51
270.0
  0
LINE
  5
2090
330
1F
100
AcDbEntity
  8
0
100
AcDbLine
 10
250.3175805847573
 20
101.1964782492617
 30
0.0
 11
233.2675805847572
 21
101.1964782492617
 31
0.0
  0
ARC
  5
2091
330
1F
100
AcDbEntity
  8
0
100
AcDbCircle
 10
233.2675805847572
 20
102.1964782492617
 30
0.0
 40
1.0
100
AcDbArc
 50
180.0
 51
270.0
  0
LINE
  5
2092
330
1F
100
AcDbEntity
  8
0
100
AcDbLine
 10
231.2675805847572
 20
105.9589782492617
 30
0.0
 11
214.2675805847573
 21
105.9589782492617
 31
0.0
  0
LINE
  5
2093
330
1F
100
AcDbEntity
  8
0
100
AcDbLine
 10
212.2675805847573
 20
101.1964782492617
 30
0.0
 11
195.2175805847571
 21
101.1964782492617
 31
0.0
  0
ARC
  5
2094
330
1F
100
AcDbEntity
  8
0
100
AcDbCircle
 10
195.2175805847571
 20
100.1964782492617
 30
0.0
 40
1.0
100
AcDbArc
 50
90.0
 51
180.0
  0
LINE
  5
2095
330
1F
100
AcDbEntity
  8
0
100
AcDbLine
 10
288.4175806771086
 20
15.52147815885131
 30
0.0
 11
271.4175806771086
 21
15.52147815885131
 31
0.0
  0
ARC
  5
2096
330
1F
100
AcDbEntity
  8
0
100
AcDbCircle
 10
288.4175806771086
 20
16.52147815885131
 30
0.0
 40
1.0
100
AcDbArc
 50
270.0
 51
0.0
  0
ARC
  5
2097
330
1F
100
AcDbEntity
  8
0
100
AcDbCircle
 10
271.4175806771086
 20
16.52147815885131
 30
0.0
 40
1.0
100
AcDbArc
 50
180.0
 51
270.0
  0
LINE
  5
2098
330
1F
100
AcDbEntity
  8
0
100
AcDbLine
 10
269.4175806771086
 20
17.99797815885129
 30
0.0
 11
252.3675806771086
 21
17.99797815885129
 31
0.0
  0
ARC
  5
2099
330
1F
100
AcDbEntity
  8
0
100
AcDbCircle
 10
252.3675806771086
 20
18.99797815885129
 30
0.0
 40
1.0
100
AcDbArc
 50
180.0
 51
270.0
  0
LINE
  5
209A
330
1F
100
AcDbEntity
  8
0
100
AcDbLine
 10
250.3675806771086
 20
25.04647815885131
 30
0.0
 11
233.3175806771086
 21
25.04647815885131
 31
0.0
  0
ARC
  5
209B
330
1F
100
AcDbEntity
  8
0
100
AcDbCircle
 10
233.3175806771086
 20
26.0464781588513
 30
0.0
 40
1.0
100
AcDbArc
 50
180.0
 51
270.0
  0
LINE
  5
209C
330
1F
100
AcDbEntity
  8
0
100
AcDbLine
 10
231.3175806771086
 20
29.80897815885131
 30
0.0
 11
214.2175806771086
 21
29.80897815885131
 31
0.0
  0
LINE
  5
209D
330
1F
100
AcDbEntity
  8
0
100
AcDbLine
 10
212.2175806771086
 20
5.996478158851296
 30
0.0
 11
195.1675806771086
 21
5.996478158851296
 31
0.0
  0
ARC
  5
209E
330
1F
100
AcDbEntity
  8
0
100
AcDbCircle
 10
195.1675806771086
 20
4.996478158851296
 30
0.0
 40
1.0
100
AcDbArc
 50
90.0
 51
180.0
  0
LINE
  5
209F
330
1F
100
AcDbEntity
  8
0
100
AcDbLine
 10
193.1675806771086
 20
3.710478158851294
 30
0.0
 11
176.1175806771086
 21
3.710478158851294
 31
0.0
  0
ARC
  5
20A0
330
1F
100
AcDbEntity
  8
0
100
AcDbCircle
 10
176.1175806771086
 20
2.710478158851302
 30
0.0
 40
1.0
100
AcDbArc
 50
90.0
 51
180.0
  0
LINE
  5
20A1
330
1F
100
AcDbEntity
  8
0
100
AcDbLine
 10
174.1175806771086
 20
1.2339781588513
 30
0.0
 11
157.1175806771087
 21
1.2339781588513
 31
0.0
  0
ARC
  5
20A2
330
1F
100
AcDbEntity
  8
0
100
AcDbCircle
 10
174.1175806771086
 20
2.2339781588513
 30
0.0
 40
1.0
100
AcDbArc
 50
270.0
 51
0.0
  0
ARC
  5
20A3
330
1F
100
AcDbEntity
  8
0
100
AcDbCircle
 10
157.1175806771087
 20
2.2339781588513
 30
0.0
 40
1.0
100
AcDbArc
 50
180.0
 51
270.0
  0
LINE
  5
20A4
330
1F
100
AcDbEntity
  8
0
100
AcDbLine
 10
289.4175806771086
 20
38.33397815885131
 30
0.0
 11
289.4175806771086
 21
16.52147815885131
 31
0.0
  0
ARC
  5
20A5
330
1F
100
AcDbEntity
  8
0
100
AcDbCircle
 10
290.4175806771086
 20
38.33397815885131
 30
0.0
 40
1.0
100
AcDbArc
 50
90.0
 51
180.0
  0
LINE
  5
20A6
330
1F
100
AcDbEntity
  8
0
100
AcDbLine
 10
307.4675806771086
 20
39.33397815885129
 30
0.0
 11
290.4175806771086
 21
39.33397815885129
 31
0.0
  0
LINE
  5
20A7
330
1F
100
AcDbEntity
  8
0
100
AcDbLine
 10
308.4675806771086
 20
57.33397815885131
 30
0.0
 11
308.4675806771086
 21
40.3339781588513
 31
0.0
  0
ARC
  5
20A8
330
1F
100
AcDbEntity
  8
0
100
AcDbCircle
 10
307.4675806771086
 20
40.3339781588513
 30
0.0
 40
1.0
100
AcDbArc
 50
270.0
 51
0.0
  0
ARC
  5
20A9
330
1F
100
AcDbEntity
  8
0
100
AcDbCircle
 10
307.4675806771086
 20
57.33397815885131
 30
0.0
 40
1.0
100
AcDbArc
 50
0.0
 51
90.0
  0
LINE
  5
20AA
330
1F
100
AcDbEntity
  8
0
100
AcDbLine
 10
307.4675806771086
 20
58.33397815885131
 30
0.0
 11
290.4675806771086
 21
58.33397815885131
 31
0.0
  0
ARC
  5
20AB
330
1F
100
AcDbEntity
  8
0
100
AcDbCircle
 10
290.4675806771086
 20
59.33397815885131
 30
0.0
 40
1.0
100
AcDbArc
 50
180.0
 51
270.0
  0
LINE
  5
20AC
330
1F
100
AcDbEntity
  8
0
100
AcDbLine
 10
289.4675806771086
 20
90.6714781588513
 30
0.0
 11
289.4675806771086
 21
59.33397815885131
 31
0.0
  0
ARC
  5
20AD
330
1F
100
AcDbEntity
  8
0
100
AcDbCircle
 10
288.4675806771086
 20
90.6714781588513
 30
0.0
 40
1.0
100
AcDbArc
 50
0.0
 51
90.0
  0
LINE
  5
20AE
330
1F
100
AcDbEntity
  8
0
100
AcDbLine
 10
270.3675805847572
 20
93.1479782492617
 30
0.0
 11
270.3675805847572
 21
92.67147815885129
 31
0.0
  0
ARC
  5
20AF
330
1F
100
AcDbEntity
  8
0
100
AcDbCircle
 10
269.3675805847572
 20
93.1479782492617
 30
0.0
 40
1.0
100
AcDbArc
 50
0.0
 51
90.0
  0
LINE
  5
20B0
330
1F
100
AcDbEntity
  8
0
100
AcDbLine
 10
251.3175805847573
 20
100.1964782492617
 30
0.0
 11
251.3175805847573
 21
95.14797824926167
 31
0.0
  0
ARC
  5
20B1
330
1F
100
AcDbEntity
  8
0
100
AcDbCircle
 10
250.3175805847573
 20
100.1964782492617
 30
0.0
 40
1.0
100
AcDbArc
 50
0.0
 51
90.0
  0
LINE
  5
20B2
330
1F
100
AcDbEntity
  8
0
100
AcDbLine
 10
232.2675805847572
 20
104.9589782492617
 30
0.0
 11
232.2675805847572
 21
102.1964782492617
 31
0.0
  0
ARC
  5
20B3
330
1F
100
AcDbEntity
  8
0
100
AcDbCircle
 10
231.2675805847572
 20
104.9589782492617
 30
0.0
 40
1.0
100
AcDbArc
 50
0.0
 51
90.0
  0
LINE
  5
20B4
330
1F
100
AcDbEntity
  8
0
100
AcDbLine
 10
213.2675805847572
 20
104.9589782492617
 30
0.0
 11
213.2675805847572
 21
102.1964782492617
 31
0.0
  0
ARC
  5
20B5
330
1F
100
AcDbEntity
  8
0
100
AcDbCircle
 10
212.2675805847573
 20
102.1964782492617
 30
0.0
 40
1.0
100
AcDbArc
 50
270.0
 51
0.0
  0
ARC
  5
20B6
330
1F
100
AcDbEntity
  8
0
100
AcDbCircle
 10
214.2675805847573
 20
104.9589782492617
 30
0.0
 40
1.0
100
AcDbArc
 50
90.0
 51
180.0
  0
LINE
  5
20B7
330
1F
100
AcDbEntity
  8
0
100
AcDbLine
 10
194.2175805847571
 20
100.1964782492617
 30
0.0
 11
194.2175805847571
 21
99.91047815885131
 31
0.0
  0
ARC
  5
20B8
330
1F
100
AcDbEntity
  8
0
100
AcDbCircle
 10
193.2175805847571
 20
99.91047815885131
 30
0.0
 40
1.0
100
AcDbArc
 50
270.0
 51
0.0
  0
LINE
  5
20B9
330
1F
100
AcDbEntity
  8
0
100
AcDbLine
 10
175.1175806771086
 20
2.710478158851302
 30
0.0
 11
175.1175806771086
 21
2.2339781588513
 31
0.0
  0
LINE
  5
20BA
330
1F
100
AcDbEntity
  8
0
100
AcDbLine
 10
194.1675806771086
 20
4.996478158851296
 30
0.0
 11
194.1675806771086
 21
4.710478158851302
 31
0.0
  0
ARC
  5
20BB
330
1F
100
AcDbEntity
  8
0
100
AcDbCircle
 10
193.1675806771086
 20
4.710478158851302
 30
0.0
 40
1.0
100
AcDbArc
 50
270.0
 51
0.0
  0
LINE
  5
20BC
330
1F
100
AcDbEntity
  8
0
100
AcDbLine
 10
232.3175806771086
 20
28.80897815885131
 30
0.0
 11
232.3175806771086
 21
26.0464781588513
 31
0.0
  0
ARC
  5
20BD
330
1F
100
AcDbEntity
  8
0
100
AcDbCircle
 10
231.3175806771086
 20
28.80897815885131
 30
0.0
 40
1.0
100
AcDbArc
 50
0.0
 51
90.0
  0
LINE
  5
20BE
330
1F
100
AcDbEntity
  8
0
100
AcDbLine
 10
251.3675806771086
 20
24.04647815885131
 30
0.0
 11
251.3675806771086
 21
18.99797815885129
 31
0.0
  0
ARC
  5
20BF
330
1F
100
AcDbEntity
  8
0
100
AcDbCircle
 10
250.3675806771086
 20
24.04647815885131
 30
0.0
 40
1.0
100
AcDbArc
 50
0.0
 51
90.0
  0
LINE
  5
20C0
330
1F
100
AcDbEntity
  8
0
100
AcDbLine
 10
270.4175806771086
 20
16.99797815885129
 30
0.0
 11
270.4175806771086
 21
16.52147815885131
 31
0.0
  0
ARC
  5
20C1
330
1F
100
AcDbEntity
  8
0
100
AcDbCircle
 10
269.4175806771086
 20
16.99797815885129
 30
0.0
 40
1.0
100
AcDbArc
 50
0.0
 51
90.0
  0
LINE
  5
20C2
330
1F
100
AcDbEntity
  8
0
100
AcDbLine
 10
156.1175806771087
 20
2.2339781588513
 30
0.0
 11
156.1175806771087
 21
20.2339781588513
 31
0.0
  0
LINE
  5
20C3
330
1F
100
AcDbEntity
  8
0
100
AcDbLine
 10
288.4675806771086
 20
122.0674729222836
 30
0.0
 11
271.3675805847572
 21
122.0674729222836
 31
0.0
  0
ARC
  5
20C4
330
1F
100
AcDbEntity
  8
0
100
AcDbCircle
 10
271.3675805847572
 20
121.0674729222836
 30
0.0
 40
1.0
100
AcDbArc
 50
90.0
 51
180.0
  0
LINE
  5
20C5
330
1F
100
AcDbEntity
  8
0
100
AcDbLine
 10
213.2175806771086
 20
206.7424729222836
 30
0.0
 11
213.2175806771086
 21
184.9299729222836
 31
0.0
  0
ARC
  5
20C6
330
1F
100
AcDbEntity
  8
0
100
AcDbCircle
 10
214.2175806771085
 20
184.9299729222836
 30
0.0
 40
1.0
100
AcDbArc
 50
180.0
 51
270.0
  0
ARC
  5
20C7
330
1F
100
AcDbEntity
  8
0
100
AcDbCircle
 10
212.2175806771085
 20
206.7424729222836
 30
0.0
 40
1.0
100
AcDbArc
 50
0.0
 51
90.0
  0
LINE
  5
20C8
330
1F
100
AcDbEntity
  8
0
100
AcDbLine
 10
269.3675805847572
 20
119.5909728318732
 30
0.0
 11
252.3175805847573
 21
119.5909728318732
 31
0.0
  0
ARC
  5
20C9
330
1F
100
AcDbEntity
  8
0
100
AcDbCircle
 10
252.3175805847573
 20
118.5909728318733
 30
0.0
 40
1.0
100
AcDbArc
 50
90.0
 51
180.0
  0
LINE
  5
20CA
330
1F
100
AcDbEntity
  8
0
100
AcDbLine
 10
250.3175805847573
 20
112.5424728318732
 30
0.0
 11
233.2675805847571
 21
112.5424728318732
 31
0.0
  0
ARC
  5
20CB
330
1F
100
AcDbEntity
  8
0
100
AcDbCircle
 10
233.2675805847571
 20
111.5424728318732
 30
0.0
 40
1.0
100
AcDbArc
 50
90.0
 51
180.0
  0
LINE
  5
20CC
330
1F
100
AcDbEntity
  8
0
100
AcDbLine
 10
231.2675805847572
 20
107.7799728318732
 30
0.0
 11
214.2675805847573
 21
107.7799728318732
 31
0.0
  0
LINE
  5
20CD
330
1F
100
AcDbEntity
  8
0
100
AcDbLine
 10
212.2675805847573
 20
112.5424728318732
 30
0.0
 11
195.2175805847571
 21
112.5424728318732
 31
0.0
  0
ARC
  5
20CE
330
1F
100
AcDbEntity
  8
0
100
AcDbCircle
 10
195.2175805847571
 20
113.5424728318732
 30
0.0
 40
1.0
100
AcDbArc
 50
180.0
 51
270.0
  0
LINE
  5
20CF
330
1F
100
AcDbEntity
  8
0
100
AcDbLine
 10
288.4175806771086
 20
198.2174729222836
 30
0.0
 11
271.4175806771086
 21
198.2174729222836
 31
0.0
  0
ARC
  5
20D0
330
1F
100
AcDbEntity
  8
0
100
AcDbCircle
 10
288.4175806771086
 20
197.2174729222836
 30
0.0
 40
1.0
100
AcDbArc
 50
0.0
 51
90.0
  0
ARC
  5
20D1
330
1F
100
AcDbEntity
  8
0
100
AcDbCircle
 10
271.4175806771086
 20
197.2174729222836
 30
0.0
 40
1.0
100
AcDbArc
 50
90.0
 51
180.0
  0
LINE
  5
20D2
330
1F
100
AcDbEntity
  8
0
100
AcDbLine
 10
269.4175806771086
 20
195.7409729222836
 30
0.0
 11
252.3675806771084
 21
195.7409729222836
 31
0.0
  0
ARC
  5
20D3
330
1F
100
AcDbEntity
  8
0
100
AcDbCircle
 10
252.3675806771084
 20
194.7409729222836
 30
0.0
 40
1.0
100
AcDbArc
 50
90.0
 51
180.0
  0
LINE
  5
20D4
330
1F
100
AcDbEntity
  8
0
100
AcDbLine
 10
250.3675806771084
 20
188.6924729222836
 30
0.0
 11
233.3175806771086
 21
188.6924729222836
 31
0.0
  0
ARC
  5
20D5
330
1F
100
AcDbEntity
  8
0
100
AcDbCircle
 10
233.3175806771086
 20
187.6924729222836
 30
0.0
 40
1.0
100
AcDbArc
 50
90.0
 51
180.0
  0
LINE
  5
20D6
330
1F
100
AcDbEntity
  8
0
100
AcDbLine
 10
231.3175806771086
 20
183.9299729222836
 30
0.0
 11
214.2175806771085
 21
183.9299729222836
 31
0.0
  0
LINE
  5
20D7
330
1F
100
AcDbEntity
  8
0
100
AcDbLine
 10
212.2175806771085
 20
207.7424729222836
 30
0.0
 11
195.1675806771086
 21
207.7424729222836
 31
0.0
  0
ARC
  5
20D8
330
1F
100
AcDbEntity
  8
0
100
AcDbCircle
 10
195.1675806771086
 20
208.7424729222836
 30
0.0
 40
1.0
100
AcDbArc
 50
180.0
 51
270.0
  0
LINE
  5
20D9
330
1F
100
AcDbEntity
  8
0
100
AcDbLine
 10
193.1675806771086
 20
210.0284729222837
 30
0.0
 11
176.1175806771086
 21
210.0284729222837
 31
0.0
  0
ARC
  5
20DA
330
1F
100
AcDbEntity
  8
0
100
AcDbCircle
 10
176.1175806771086
 20
211.0284729222836
 30
0.0
 40
1.0
100
AcDbArc
 50
180.0
 51
270.0
  0
LINE
  5
20DB
330
1F
100
AcDbEntity
  8
0
100
AcDbLine
 10
174.1175806771086
 20
212.5049729222836
 30
0.0
 11
157.1175806771087
 21
212.5049729222836
 31
0.0
  0
ARC
  5
20DC
330
1F
100
AcDbEntity
  8
0
100
AcDbCircle
 10
174.1175806771086
 20
211.5049729222836
 30
0.0
 40
1.0
100
AcDbArc
 50
0.0
 51
90.0
  0
ARC
  5
20DD
330
1F
100
AcDbEntity
  8
0
100
AcDbCircle
 10
157.1175806771087
 20
211.5049729222836
 30
0.0
 40
1.0
100
AcDbArc
 50
90.0
 51
180.0
  0
LINE
  5
20DE
330
1F
100
AcDbEntity
  8
0
100
AcDbLine
 10
289.4175806771086
 20
175.4049729222836
 30
0.0
 11
289.4175806771086
 21
197.2174729222836
 31
0.0
  0
ARC
  5
20DF
330
1F
100
AcDbEntity
  8
0
100
AcDbCircle
 10
290.4175806771086
 20
175.4049729222836
 30
0.0
 40
1.0
100
AcDbArc
 50
180.0
 51
270.0
  0
LINE
  5
20E0
330
1F
100
AcDbEntity
  8
0
100
AcDbLine
 10
307.4675806771086
 20
174.4049729222836
 30
0.0
 11
290.4175806771086
 21
174.4049729222836
 31
0.0
  0
LINE
  5
20E1
330
1F
100
AcDbEntity
  8
0
100
AcDbLine
 10
308.4675806771086
 20
156.4049729222836
 30
0.0
 11
308.4675806771086
 21
173.4049729222836
 31
0.0
  0
ARC
  5
20E2
330
1F
100
AcDbEntity
  8
0
100
AcDbCircle
 10
307.4675806771086
 20
173.4049729222836
 30
0.0
 40
1.0
100
AcDbArc
 50
0.0
 51
90.0
  0
ARC
  5
20E3
330
1F
100
AcDbEntity
  8
0
100
AcDbCircle
 10
307.4675806771086
 20
156.4049729222836
 30
0.0
 40
1.0
100
AcDbArc
 50
270.0
 51
0.0
  0
LINE
  5
20E4
330
1F
100
AcDbEntity
  8
0
100
AcDbLine
 10
307.4675806771086
 20
155.4049729222836
 30
0.0
 11
290.4675806771086
 21
155.4049729222836
 31
0.0
  0
ARC
  5
20E5
330
1F
100
AcDbEntity
  8
0
100
AcDbCircle
 10
290.4675806771086
 20
154.4049729222836
 30
0.0
 40
1.0
100
AcDbArc
 50
90.0
 51
180.0
  0
LINE
  5
20E6
330
1F
100
AcDbEntity
  8
0
100
AcDbLine
 10
289.4675806771086
 20
123.0674729222836
 30
0.0
 11
289.4675806771086
 21
154.4049729222836
 31
0.0
  0
ARC
  5
20E7
330
1F
100
AcDbEntity
  8
0
100
AcDbCircle
 10
288.4675806771086
 20
123.0674729222836
 30
0.0
 40
1.0
100
AcDbArc
 50
270.0
 51
0.0
  0
LINE
  5
20E8
330
1F
100
AcDbEntity
  8
0
100
AcDbLine
 10
270.3675805847572
 20
120.5909728318732
 30
0.0
 11
270.3675805847572
 21
121.0674729222836
 31
0.0
  0
ARC
  5
20E9
330
1F
100
AcDbEntity
  8
0
100
AcDbCircle
 10
269.3675805847572
 20
120.5909728318732
 30
0.0
 40
1.0
100
AcDbArc
 50
270.0
 51
0.0
  0
LINE
  5
20EA
330
1F
100
AcDbEntity
  8
0
100
AcDbLine
 10
251.3175805847573
 20
113.5424728318732
 30
0.0
 11
251.3175805847573
 21
118.5909728318733
 31
0.0
  0
ARC
  5
20EB
330
1F
100
AcDbEntity
  8
0
100
AcDbCircle
 10
250.3175805847573
 20
113.5424728318732
 30
0.0
 40
1.0
100
AcDbArc
 50
270.0
 51
0.0
  0
LINE
  5
20EC
330
1F
100
AcDbEntity
  8
0
100
AcDbLine
 10
232.2675805847572
 20
108.7799728318732
 30
0.0
 11
232.2675805847572
 21
111.5424728318732
 31
0.0
  0
ARC
  5
20ED
330
1F
100
AcDbEntity
  8
0
100
AcDbCircle
 10
231.2675805847572
 20
108.7799728318732
 30
0.0
 40
1.0
100
AcDbArc
 50
270.0
 51
0.0
  0
LINE
  5
20EE
330
1F
100
AcDbEntity
  8
0
100
AcDbLine
 10
213.2675805847572
 20
108.7799728318732
 30
0.0
 11
213.2675805847572
 21
111.5424728318732
 31
0.0
  0
ARC
  5
20EF
330
1F
100
AcDbEntity
  8
0
100
AcDbCircle
 10
212.2675805847573
 20
111.5424728318732
 30
0.0
 40
1.0
100
AcDbArc
 50
0.0
 51
90.0
  0
ARC
  5
20F0
330
1F
100
AcDbEntity
  8
0
100
AcDbCircle
 10
214.2675805847573
 20
108.7799728318732
 30
0.0
 40
1.0
100
AcDbArc
 50
180.0
 51
270.0
  0
LINE
  5
20F1
330
1F
100
AcDbEntity
  8
0
100
AcDbLine
 10
194.2175805847571
 20
113.5424728318732
 30
0.0
 11
194.2175805847571
 21
113.8284729222836
 31
0.0
  0
ARC
  5
20F2
330
1F
100
AcDbEntity
  8
0
100
AcDbCircle
 10
193.2175805847571
 20
113.8284729222836
 30
0.0
 40
1.0
100
AcDbArc
 50
0.0
 51
90.0
  0
LINE
  5
20F3
330
1F
100
AcDbEntity
  8
0
100
AcDbLine
 10
175.1175806771086
 20
211.0284729222836
 30
0.0
 11
175.1175806771086
 21
211.5049729222836
 31
0.0
  0
LINE
  5
20F4
330
1F
100
AcDbEntity
  8
0
100
AcDbLine
 10
194.1675806771086
 20
208.7424729222836
 30
0.0
 11
194.1675806771086
 21
209.0284729222836
 31
0.0
  0
ARC
  5
20F5
330
1F
100
AcDbEntity
  8
0
100
AcDbCircle
 10
193.1675806771086
 20
209.0284729222836
 30
0.0
 40
1.0
100
AcDbArc
 50
0.0
 51
90.0
  0
LINE
  5
20F6
330
1F
100
AcDbEntity
  8
0
100
AcDbLine
 10
232.3175806771086
 20
184.9299729222836
 30
0.0
 11
232.3175806771086
 21
187.6924729222836
 31
0.0
  0
ARC
  5
20F7
330
1F
100
AcDbEntity
  8
0
100
AcDbCircle
 10
231.3175806771086
 20
184.9299729222836
 30
0.0
 40
1.0
100
AcDbArc
 50
270.0
 51
0.0
  0
LINE
  5
20F8
330
1F
100
AcDbEntity
  8
0
100
AcDbLine
 10
251.3675806771085
 20
189.6924729222836
 30
0.0
 11
251.3675806771085
 21
194.7409729222836
 31
0.0
  0
ARC
  5
20F9
330
1F
100
AcDbEntity
  8
0
100
AcDbCircle
 10
250.3675806771084
 20
189.6924729222836
 30
0.0
 40
1.0
100
AcDbArc
 50
270.0
 51
0.0
  0
LINE
  5
20FA
330
1F
100
AcDbEntity
  8
0
100
AcDbLine
 10
270.4175806771086
 20
196.7409729222836
 30
0.0
 11
270.4175806771086
 21
197.2174729222836
 31
0.0
  0
ARC
  5
20FB
330
1F
100
AcDbEntity
  8
0
100
AcDbCircle
 10
269.4175806771086
 20
196.7409729222836
 30
0.0
 40
1.0
100
AcDbArc
 50
270.0
 51
0.0
  0
CIRCLE
  5
20FC
330
1F
100
AcDbEntity
  8
0
100
AcDbCircle
 10
194.1925806771085
 20
132.7104729222836
 30
0.0
 40
1.0
  0
ARC
  5
20FD
330
1F
100
AcDbEntity
  8
0
100
AcDbCircle
 10
157.1175806771087
 20
137.8049729222835
 30
0.0
 40
1.0
100
AcDbArc
 50
180.0
 51
270.0
  0
LINE
  5
20FE
330
1F
100
AcDbEntity
  8
0
100
AcDbLine
 10
156.1175806771087
 20
211.5049729222836
 30
0.0
 11
156.1175806771087
 21
193.5049729222836
 31
0.0
  0
LINE
  5
20FF
330
1F
100
AcDbEntity
  8
0
100
AcDbLine
 10
156.1175806771087
 20
193.5049729222836
 30
0.0
 11
156.1175806771087
 21
137.8049729222835
 31
0.0
  0
LINE
  5
2100
330
1F
100
AcDbEntity
  8
0
100
AcDbLine
 10
175.6675806771086
 20
97.9104781588513
 30
0.0
 11
175.6675806771087
 21
21.2339781588513
 31
0.0
  0
ARC
  5
2101
330
1F
100
AcDbEntity
  8
0
100
AcDbCircle
 10
176.6675806771086
 20
97.9104781588513
 30
0.0
 40
1.0
100
AcDbArc
 50
90.0
 51
180.0
  0
LINE
  5
2102
330
1F
100
AcDbEntity
  8
0
100
AcDbLine
 10
174.6675806771087
 20
20.2339781588513
 30
0.0
 11
156.1175806771087
 21
20.2339781588513
 31
0.0
  0
ARC
  5
2103
330
1F
100
AcDbEntity
  8
0
100
AcDbCircle
 10
174.6675806771087
 20
21.2339781588513
 30
0.0
 40
1.0
100
AcDbArc
 50
270.0
 51
0.0
  0
LINE
  5
2104
330
1F
100
AcDbEntity
  8
0
100
AcDbLine
 10
176.6675806771086
 20
98.9104781588513
 30
0.0
 11
193.2175805847571
 21
98.91047815885132
 31
0.0
  0
LINE
  5
2105
330
1F
100
AcDbEntity
  8
0
100
AcDbLine
 10
175.1675806771086
 20
115.8284729222836
 30
0.0
 11
175.1675806771086
 21
135.8049729222835
 31
0.0
  0
ARC
  5
2106
330
1F
100
AcDbEntity
  8
0
100
AcDbCircle
 10
174.1675806771086
 20
135.8049729222835
 30
0.0
 40
1.0
100
AcDbArc
 50
0.0
 51
90.0
  0
ARC
  5
2107
330
1F
100
AcDbEntity
  8
0
100
AcDbCircle
 10
176.1675806771086
 20
115.8284729222836
 30
0.0
 40
1.0
100
AcDbArc
 50
180.0
 51
270.0
  0
CIRCLE
  5
2108
330
1F
100
AcDbEntity
  8
0
100
AcDbCircle
 10
270.3925806771085
 20
73.8847281588513
 30
0.0
 40
1.0
  0
CIRCLE
  5
2109
330
1F
100
AcDbEntity
  8
0
100
AcDbCircle
 10
194.1925806771086
 20
81.02847815885128
 30
0.0
 40
1.0
  0
CIRCLE
  5
210A
330
1F
100
AcDbEntity
  8
0
100
AcDbCircle
 10
194.1925806771086
 20
23.87847815885131
 30
0.0
 40
1.0
  0
CIRCLE
  5
210B
330
1F
100
AcDbEntity
  8
0
100
AcDbCircle
 10
289.4675806771086
 20
53.57147815885132
 30
0.0
 40
1.0
  0
CIRCLE
  5
210C
330
1F
100
AcDbEntity
  8
0
100
AcDbCircle
 10
270.3925806771086
 20
35.78472815885131
 30
0.0
 40
1.0
  0
LINE
  5
210D
330
1F
100
AcDbEntity
  8
0
100
AcDbLine
 10
174.1675806771086
 20
136.8049729222835
 30
0.0
 11
157.1175806771087
 21
136.8049729222835
 31
0.0
  0
LINE
  5
210E
330
1F
100
AcDbEntity
  8
0
100
AcDbLine
 10
176.1675806771086
 20
114.8284729222836
 30
0.0
 11
193.2175805847571
 21
114.8284729222836
 31
0.0
  0
CIRCLE
  5
210F
330
1F
100
AcDbEntity
  8
0
100
AcDbCircle
 10
270.3925806771085
 20
139.8542229222835
 30
0.0
 40
1.0
  0
CIRCLE
  5
2110
330
1F
100
AcDbEntity
  8
0
100
AcDbCircle
 10
194.1925806771085
 20
189.8604729222835
 30
0.0
 40
1.0
  0
CIRCLE
  5
2111
330
1F
100
AcDbEntity
  8
0
100
AcDbCircle
 10
289.4675806771086
 20
160.1674729222835
 30
0.0
 40
1.0
  0
CIRCLE
  5
2112
330
1F
100
AcDbEntity
  8
0
100
AcDbCircle
 10
270.3925806771086
 20
177.9542229222836
 30
0.0
 40
1.0
  0
ENDSEC
  0
SECTION
  2
OBJECTS
  0
DICTIONARY
  5
C
330
0
100
AcDbDictionary
281
     1
  3
ACAD_CIP_PREVIOUS_PRODUCT_INFO
350
69D
  3
ACAD_COLOR
350
4E1
  3
ACAD_DETAILVIEWSTYLE
350
697
  3
ACAD_GROUP
350
4E2
  3
ACAD_LAYOUT
350
4E3
  3
ACAD_MATERIAL
350
4E4
  3
ACAD_MLEADERSTYLE
350
4E5
  3
ACAD_MLINESTYLE
350
4E6
  3
ACAD_PLOTSETTINGS
350
4E7
  3
ACAD_PLOTSTYLENAME
350
4E9
  3
ACAD_SCALELIST
350
4EA
  3
ACAD_SECTIONVIEWSTYLE
350
695
  3
ACAD_TABLESTYLE
350
4EB
  3
ACAD_VISUALSTYLE
350
4EC
  3
ACDB_RECOMPOSE_DATA
350
2124
  3
AcDbVariableDictionary
350
6BD
  0
DICTIONARY
  5
6AB
330
2
100
AcDbDictionary
280
     1
281
     1
  3
ACAD_LAYERSTATES
360
6AC
  0
DICTIONARY
  5
882
330
1F
100
AcDbDictionary
280
     1
281
     1
  3
ACAD_SORTENTS
360
883
  0
DICTIONARY
  5
F00
330
EFB
100
AcDbDictionary
280
     1
281
     1
  3
ACAD_SORTENTS
360
F01
  0
XRECORD
  5
69D
102
{ACAD_REACTORS
330
C
102
}
330
C
100
AcDbXrecord
280
     1
300
ACD
300
2020
300
ACD_F_S
  0
DICTIONARY
  5
4E1
330
C
100
AcDbDictionary
281
     1
  0
DICTIONARY
  5
697
102
{ACAD_REACTORS
330
C
102
}
330
C
100
AcDbDictionary
281
     1
  3
Metric50
350
698
  0
DICTIONARY
  5
4E2
330
C
100
AcDbDictionary
281
     1
  0
DICTIONARY
  5
4E3
330
C
100
AcDbDictionary
281
     1
  3
Layout1
350
4EE
  3
Model
350
4ED
  0
DICTIONARY
  5
4E4
330
C
100
AcDbDictionary
281
     1
  3
ByBlock
350
659
  3
ByLayer
350
651
  3
Global
350
661
  0
DICTIONARY
  5
4E5
330
C
100
AcDbDictionary
281
     1
  3
Standard
350
694
  0
DICTIONARY
  5
4E6
330
C
100
AcDbDictionary
281
     1
  3
Standard
350
682
  0
DICTIONARY
  5
4E7
330
C
100
AcDbDictionary
281
     1
  0
ACDBDICTIONARYWDFLT
  5
4E9
330
C
100
AcDbDictionary
281
     1
  3
Normal
350
4E8
100
AcDbDictionaryWithDefault
340
4E8
  0
DICTIONARY
  5
4EA
330
C
100
AcDbDictionary
281
     1
  3
A0
350
683
  3
A1
350
684
  3
A2
350
685
  3
A3
350
686
  3
A4
350
687
  3
A5
350
688
  3
A6
350
689
  3
A7
350
68A
  3
A8
350
68B
  3
A9
350
68C
  3
B0
350
68D
  3
B1
350
68E
  3
B2
350
68F
  3
B3
350
690
  3
B4
350
691
  3
B5
350
692
  3
B6
350
693
  0
DICTIONARY
  5
695
102
{ACAD_REACTORS
330
C
102
}
330
C
100
AcDbDictionary
281
     1
  3
Metric50
350
696
  0
DICTIONARY
  5
4EB
330
C
100
AcDbDictionary
281
     1
  3
Standard
350
681
  0
DICTIONARY
  5
4EC
330
C
100
AcDbDictionary
281
     1
  3
2dWireframe
350
66E
  3
Basic
350
66D
  3
Brighten
350
674
  3
ColorChange
350
678
  3
Conceptual
350
671
  3
Dim
350
673
  3
EdgeColorOff
350
680
  3
Facepattern
350
677
  3
Flat
350
669
  3
FlatWithEdges
350
66A
  3
Gouraud
350
66B
  3
GouraudWithEdges
350
66C
  3
Hidden
350
670
  3
JitterOff
350
67E
  3
Linepattern
350
676
  3
OverhangOff
350
67F
  3
Realistic
350
672
  3
Shaded
350
67D
  3
Shaded with edges
350
67C
  3
Shades of Gray
350
679
  3
Sketchy
350
67A
  3
Thicken
350
675
  3
Wireframe
350
66F
  3
X-Ray
350
67B
  0
XRECORD
  5
2124
102
{ACAD_REACTORS
330
C
102
}
330
C
100
AcDbXrecord
280
     1
 90
        1
330
681
  0
DICTIONARY
  5
6BD
102
{ACAD_REACTORS
330
C
102
}
330
C
100
AcDbDictionary
281
     1
  3
CANNOSCALE
350
6C2
  3
CMLEADERSTYLE
350
6BF
  3
CTABLESTYLE
350
6BE
  3
CVIEWDETAILSTYLE
350
6C0
  3
CVIEWSECTIONSTYLE
350
6C1
  0
DICTIONARY
  5
6AC
102
{ACAD_REACTORS
330
6AB
102
}
330
6AB
100
AcDbDictionary
281
     1
  0
SORTENTSTABLE
  5
883
102
{ACAD_REACTORS
330
882
102
}
330
882
100
AcDbSortentsTable
330
1F
331
840
  5
855
331
855
  5
858
331
856
  5
85A
331
857
  5
85C
331
858
  5
85D
331
85D
  5
86D
331
85E
  5
870
331
85F
  5
872
331
860
  5
874
331
861
  5
875
331
862
  5
877
331
863
  5
879
331
86B
  5
885
331
86C
  5
887
331
86D
  5
888
331
86E
  5
88B
331
86F
  5
88D
331
870
  5
88F
331
871
  5
891
331
872
  5
893
331
873
  5
895
331
874
  5
898
331
875
  5
89A
331
876
  5
89B
331
877
  5
89D
331
878
  5
89F
331
879
  5
8A1
331
881
  5
890
331
884
  5
840
331
885
  5
859
331
886
  5
892
331
887
  5
85B
331
888
  5
894
331
889
  5
897
331
88A
  5
896
331
88B
  5
85E
331
88C
  5
899
331
890
  5
884
331
891
  5
881
331
892
  5
878
331
893
  5
89C
331
894
  5
876
331
895
  5
857
331
896
  5
856
331
897
  5
89E
331
898
  5
873
331
899
  5
8A0
331
89A
  5
871
331
89B
  5
8A2
331
89C
  5
86F
331
89D
  5
86E
331
89E
  5
886
331
89F
  5
88C
331
8A0
  5
88A
331
8A1
  5
889
331
8A2
  5
88E
331
1DE9
  5
1DEA
331
1DEA
  5
1DED
331
1DF5
  5
1DFB
331
1DF8
  5
1DFF
331
1DF9
  5
1DFC
331
1DFC
  5
1DE9
331
1DFF
  5
1DEC
  0
SORTENTSTABLE
  5
F01
102
{ACAD_REACTORS
330
F00
102
}
330
F00
100
AcDbSortentsTable
330
EFB
  0
ACDBDETAILVIEWSTYLE
  5
698
102
{ACAD_REACTORS
330
697
102
}
330
697
100
AcDbModelDocViewStyle
 70
     0
  3
Metric50
290
     0
300
Metric50
 90
        0
100
AcDbDetailViewStyle
 70
     0
 71
     0
 90
        3
 71
     1
340
11
 62
   256
 40
5.0
340
0
 62
   256
 40
5.0
300

 40
0.0
280
     1
 71
     2
340
16
 90
       25
 62
   256
 71
     3
340
11
 62
   256
 40
5.0
 90
        0
 40
15.0
 90
        1
300
%<\AcVar ViewDetailId>% (%<\AcVar ViewScale \f "%sn">%)
 71
     4
340
16
 90
       25
 62
   256
340
16
 90
       25
 62
   256
280
     0
  0
LAYOUT
  5
4EE
330
4E3
100
AcDbPlotSettings
  1

  2
DWFx ePlot (XPS Compatible).pc3
  4
ANSI_A_(8.50_x_11.00_Inches)
  6

 40
5.799999999999998
 41
17.8
 42
5.799999999999998
 43
17.8
 44
215.9
 45
279.4
 46
0.0
 47
0.0
 48
0.0
 49
0.0
140
0.0
141
0.0
142
1.0
143
1.0
 70
   688
 72
     0
 73
     1
 74
     5
  7
acad.ctb
 75
    16
147
1.0
 76
     0
 77
     2
 78
   300
148
0.0
149
0.0
100
AcDbLayout
  1
Layout1
 70
     1
 71
     1
 10
-0.7005418191744587
 20
-0.2281003861915408
 11
10.29945794052965
 21
8.271899373512571
 12
0.0
 22
0.0
 32
0.0
 14
0.6288667663970601
 24
0.7999999523162842
 34
0.0
 15
9.028866384927335
 25
7.199999570846557
 35
0.0
146
0.0
 13
0.0
 23
0.0
 33
0.0
 16
1.0
 26
0.0
 36
0.0
 17
0.0
 27
1.0
 37
0.0
 76
     0
330
58
  0
LAYOUT
  5
4ED
330
4E3
100
AcDbPlotSettings
  1

  2
DWFx ePlot (XPS Compatible).pc3
  4
ANSI_A_(8.50_x_11.00_Inches)
  6

 40
5.799999999999998
 41
17.8
 42
5.799999999999998
 43
17.8
 44
215.9
 45
279.4
 46
0.0
 47
0.0
 48
0.0
 49
0.0
140
0.0
141
0.0
142
1.0
143
14.53
 70
 11952
 72
     0
 73
     1
 74
     0
  7

 75
     0
147
0.069
 76
     0
 77
     2
 78
   300
148
114.98
149
300.29
100
AcDbLayout
  1
Model
 70
     1
 71
     0
 10
0.0
 20
0.0
 11
12.0
 21
9.0
 12
0.0
 22
0.0
 32
0.0
 14
0.0
 24
0.0
 34
0.0
 15
0.0
 25
0.0
 35
0.0
146
0.0
 13
0.0
 23
0.0
 33
0.0
 16
1.0
 26
0.0
 36
0.0
 17
0.0
 27
1.0
 37
0.0
 76
     0
330
1F
331
69C
  0
MATERIAL
  5
659
102
{ACAD_XDICTIONARY
360
65A
102
}
102
{ACAD_REACTORS
330
4E4
102
}
330
4E4
100
AcDbMaterial
  1
ByBlock
 72
     0
 43
0.0008202099737533
 43
0.0
 43
0.0
 43
0.0
 43
0.0
 43
0.0008202099737533
 43
0.0
 43
0.0
 43
0.0
 43
0.0
 43
1.0
 43
0.0
 43
0.0
 43
0.0
 43
0.0
 43
1.0
 77
     0
 47
0.0008202099737533
 47
0.0
 47
0.0
 47
0.0
 47
0.0
 47
0.0008202099737533
 47
0.0
 47
0.0
 47
0.0
 47
0.0
 47
1.0
 47
0.0
 47
0.0
 47
0.0
 47
0.0
 47
1.0
171
     0
 49
0.0008202099737533
 49
0.0
 49
0.0
 49
0.0
 49
0.0
 49
0.0008202099737533
 49
0.0
 49
0.0
 49
0.0
 49
0.0
 49
1.0
 49
0.0
 49
0.0
 49
0.0
 49
0.0
 49
1.0
175
     0
142
0.0008202099737533
142
0.0
142
0.0
142
0.0
142
0.0
142
0.0008202099737533
142
0.0
142
0.0
142
0.0
142
0.0
142
1.0
142
0.0
142
0.0
142
0.0
142
0.0
142
1.0
179
     0
144
0.0008202099737533
144
0.0
144
0.0
144
0.0
144
0.0
144
0.0008202099737533
144
0.0
144
0.0
144
0.0
144
0.0
144
1.0
144
0.0
144
0.0
144
0.0
144
0.0
144
1.0
147
0.0008202099737533
147
0.0
147
0.0
147
0.0
147
0.0
147
0.0008202099737533
147
0.0
147
0.0
147
0.0
147
0.0
147
1.0
147
0.0
147
0.0
147
0.0
147
0.0
147
1.0
  0
MATERIAL
  5
651
102
{ACAD_XDICTIONARY
360
652
102
}
102
{ACAD_REACTORS
330
4E4
102
}
330
4E4
100
AcDbMaterial
  1
ByLayer
 72
     0
 43
0.0008202099737533
 43
0.0
 43
0.0
 43
0.0
 43
0.0
 43
0.0008202099737533
 43
0.0
 43
0.0
 43
0.0
 43
0.0
 43
1.0
 43
0.0
 43
0.0
 43
0.0
 43
0.0
 43
1.0
 77
     0
 47
0.0008202099737533
 47
0.0
 47
0.0
 47
0.0
 47
0.0
 47
0.0008202099737533
 47
0.0
 47
0.0
 47
0.0
 47
0.0
 47
1.0
 47
0.0
 47
0.0
 47
0.0
 47
0.0
 47
1.0
171
     0
 49
0.0008202099737533
 49
0.0
 49
0.0
 49
0.0
 49
0.0
 49
0.0008202099737533
 49
0.0
 49
0.0
 49
0.0
 49
0.0
 49
1.0
 49
0.0
 49
0.0
 49
0.0
 49
0.0
 49
1.0
175
     0
142
0.0008202099737533
142
0.0
142
0.0
142
0.0
142
0.0
142
0.0008202099737533
142
0.0
142
0.0
142
0.0
142
0.0
142
1.0
142
0.0
142
0.0
142
0.0
142
0.0
142
1.0
179
     0
144
0.0008202099737533
144
0.0
144
0.0
144
0.0
144
0.0
144
0.0008202099737533
144
0.0
144
0.0
144
0.0
144
0.0
144
1.0
144
0.0
144
0.0
144
0.0
144
0.0
144
1.0
147
0.0008202099737533
147
0.0
147
0.0
147
0.0
147
0.0
147
0.0008202099737533
147
0.0
147
0.0
147
0.0
147
0.0
147
1.0
147
0.0
147
0.0
147
0.0
147
0.0
147
1.0
  0
MATERIAL
  5
661
102
{ACAD_XDICTIONARY
360
662
102
}
102
{ACAD_REACTORS
330
4E4
102
}
330
4E4
100
AcDbMaterial
  1
Global
 72
     0
 43
0.0008202099737533
 43
0.0
 43
0.0
 43
0.0
 43
0.0
 43
0.0008202099737533
 43
0.0
 43
0.0
 43
0.0
 43
0.0
 43
1.0
 43
0.0
 43
0.0
 43
0.0
 43
0.0
 43
1.0
 77
     0
 47
0.0008202099737533
 47
0.0
 47
0.0
 47
0.0
 47
0.0
 47
0.0008202099737533
 47
0.0
 47
0.0
 47
0.0
 47
0.0
 47
1.0
 47
0.0
 47
0.0
 47
0.0
 47
0.0
 47
1.0
171
     0
 49
0.0008202099737533
 49
0.0
 49
0.0
 49
0.0
 49
0.0
 49
0.0008202099737533
 49
0.0
 49
0.0
 49
0.0
 49
0.0
 49
1.0
 49
0.0
 49
0.0
 49
0.0
 49
0.0
 49
1.0
175
     0
142
0.0008202099737533
142
0.0
142
0.0
142
0.0
142
0.0
142
0.0008202099737533
142
0.0
142
0.0
142
0.0
142
0.0
142
1.0
142
0.0
142
0.0
142
0.0
142
0.0
142
1.0
179
     0
144
0.0008202099737533
144
0.0
144
0.0
144
0.0
144
0.0
144
0.0008202099737533
144
0.0
144
0.0
144
0.0
144
0.0
144
1.0
144
0.0
144
0.0
144
0.0
144
0.0
144
1.0
147
0.0008202099737533
147
0.0
147
0.0
147
0.0
147
0.0
147
0.0008202099737533
147
0.0
147
0.0
147
0.0
147
0.0
147
1.0
147
0.0
147
0.0
147
0.0
147
0.0
147
1.0
  0
MLEADERSTYLE
  5
694
102
{ACAD_REACTORS
330
4E5
102
}
330
4E5
100
AcDbMLeaderStyle
179
     2
170
     2
171
     1
172
     0
 90
        2
 40
0.0
 41
0.0
173
     1
 91
-1056964608
340
14
 92
       -2
290
     1
 42
2.0
291
     1
 43
0.36
  3
Standard
 44
4.0
300

342
11
174
     1
178
     6
175
     1
176
     0
 93
-1056964608
 45
4.0
292
     0
297
     0
 46
4.0
 94
-1056964608
 47
1.0
 49
1.0
140
1.0
293
     1
141
0.0
294
     1
177
     0
142
1.0
295
     0
296
     0
143
0.125
271
     0
272
     9
273
     9
298
     0
  0
MLINESTYLE
  5
682
102
{ACAD_REACTORS
330
4E6
102
}
330
4E6
100
AcDbMlineStyle
  2
STANDARD
 70
     0
  3

 62
   256
 51
90.0
 52
90.0
 71
     2
 49
0.5
 62
   256
  6
BYLAYER
 49
-0.5
 62
   256
  6
BYLAYER
  0
ACDBPLACEHOLDER
  5
4E8
330
4E9
  0
SCALE
  5
683
102
{ACAD_REACTORS
330
4EA
102
}
330
4EA
100
AcDbScale
 70
     0
300
1:1
140
1.0
141
1.0
290
     1
  0
SCALE
  5
684
102
{ACAD_REACTORS
330
4EA
102
}
330
4EA
100
AcDbScale
 70
     0
300
1:2
140
1.0
141
2.0
290
     0
  0
SCALE
  5
685
102
{ACAD_REACTORS
330
4EA
102
}
330
4EA
100
AcDbScale
 70
     0
300
1:4
140
1.0
141
4.0
290
     0
  0
SCALE
  5
686
102
{ACAD_REACTORS
330
4EA
102
}
330
4EA
100
AcDbScale
 70
     0
300
1:5
140
1.0
141
5.0
290
     0
  0
SCALE
  5
687
102
{ACAD_REACTORS
330
4EA
102
}
330
4EA
100
AcDbScale
 70
     0
300
1:8
140
1.0
141
8.0
290
     0
  0
SCALE
  5
688
102
{ACAD_REACTORS
330
4EA
102
}
330
4EA
100
AcDbScale
 70
     0
300
1:10
140
1.0
141
10.0
290
     0
  0
SCALE
  5
689
102
{ACAD_REACTORS
330
4EA
102
}
330
4EA
100
AcDbScale
 70
     0
300
1:16
140
1.0
141
16.0
290
     0
  0
SCALE
  5
68A
102
{ACAD_REACTORS
330
4EA
102
}
330
4EA
100
AcDbScale
 70
     0
300
1:20
140
1.0
141
20.0
290
     0
  0
SCALE
  5
68B
102
{ACAD_REACTORS
330
4EA
102
}
330
4EA
100
AcDbScale
 70
     0
300
1:30
140
1.0
141
30.0
290
     0
  0
SCALE
  5
68C
102
{ACAD_REACTORS
330
4EA
102
}
330
4EA
100
AcDbScale
 70
     0
300
1:40
140
1.0
141
40.0
290
     0
  0
SCALE
  5
68D
102
{ACAD_REACTORS
330
4EA
102
}
330
4EA
100
AcDbScale
 70
     0
300
1:50
140
1.0
141
50.0
290
     0
  0
SCALE
  5
68E
102
{ACAD_REACTORS
330
4EA
102
}
330
4EA
100
AcDbScale
 70
     0
300
1:100
140
1.0
141
100.0
290
     0
  0
SCALE
  5
68F
102
{ACAD_REACTORS
330
4EA
102
}
330
4EA
100
AcDbScale
 70
     0
300
2:1
140
2.0
141
1.0
290
     0
  0
SCALE
  5
690
102
{ACAD_REACTORS
330
4EA
102
}
330
4EA
100
AcDbScale
 70
     0
300
4:1
140
4.0
141
1.0
290
     0
  0
SCALE
  5
691
102
{ACAD_REACTORS
330
4EA
102
}
330
4EA
100
AcDbScale
 70
     0
300
8:1
140
8.0
141
1.0
290
     0
  0
SCALE
  5
692
102
{ACAD_REACTORS
330
4EA
102
}
330
4EA
100
AcDbScale
 70
     0
300
10:1
140
10.0
141
1.0
290
     0
  0
SCALE
  5
693
102
{ACAD_REACTORS
330
4EA
102
}
330
4EA
100
AcDbScale
 70
     0
300
100:1
140
100.0
141
1.0
290
     0
  0
ACDBSECTIONVIEWSTYLE
  5
696
102
{ACAD_REACTORS
330
695
102
}
330
695
100
AcDbModelDocViewStyle
 70
     0
  3
Metric50
290
     0
300
Metric50
 90
        0
100
AcDbSectionViewStyle
 70
     0
 71
     0
 90
      102
 71
     1
340
11
 62
   256
 40
5.0
340
0
340
0
 62
   256
 40
5.0
300
I, O, Q, S, X, Z
 40
10.0
 90
        0
 40
2.5
 90
        0
 71
     2
340
16
 90
       25
 62
   256
340
16
 90
       50
 62
   256
 40
5.0
 40
2.5
 40
5.0
 71
     3
340
11
 62
   256
 40
5.0
 90
        0
 40
15.0
 90
        1
300
%<\AcVar ViewSectionStartId>%-%<\AcVar ViewSectionEndId>% (%<\AcVar ViewScale \f "%sn">%)
 71
     4
 62
   256
 62
   257
300
ANSI31
 40
1.0
 90
        0
290
     0
290
     0
 90
        6
 40
0.0
 40
1.570796326794896
 40
0.2617993877991494
 40
1.308996938995747
 40
-0.2617993877991494
 40
1.832595714594044
  0
TABLESTYLE
  5
681
102
{ACAD_XDICTIONARY
360
8D9
102
}
102
{ACAD_REACTORS
330
4EB
102
}
330
4EB
100
AcDbTableStyle
280
     0
  3
Standard
 70
     0
 71
     0
 40
1.5
 41
1.5
280
     0
281
     0
  7
Standard
140
4.5
170
     2
 62
     0
 63
     7
283
     0
 90
      512
 91
        0
  1

274
    -2
284
     1
 64
     0
275
    -2
285
     1
 65
     0
276
    -2
286
     1
 66
     0
277
    -2
287
     1
 67
     0
278
    -2
288
     1
 68
     0
279
    -2
289
     1
 69
     0
  7
Standard
140
6.0
170
     5
 62
     0
 63
     7
283
     0
 90
      512
 91
        0
  1

274
    -2
284
     1
 64
     0
275
    -2
285
     1
 65
     0
276
    -2
286
     1
 66
     0
277
    -2
287
     1
 67
     0
278
    -2
288
     1
 68
     0
279
    -2
289
     1
 69
     0
  7
Standard
140
4.5
170
     5
 62
     0
 63
     7
283
     0
 90
      512
 91
        0
  1

274
    -2
284
     1
 64
     0
275
    -2
285
     1
 65
     0
276
    -2
286
     1
 66
     0
277
    -2
287
     1
 67
     0
278
    -2
288
     1
 68
     0
279
    -2
289
     1
 69
     0
  0
VISUALSTYLE
  5
66E
102
{ACAD_REACTORS
330
4EC
102
}
330
4EC
100
AcDbVisualStyle
  2
2dWireframe
 70
     4
177
     3
291
     0
 70
    58
 90
        0
176
     1
 90
        2
176
     1
 90
        0
176
     1
 90
        0
176
     1
 40
0.6
176
     1
 40
30.0
176
     1
 62
     7
420
 16777215
176
     1
 90
        1
176
     1
 90
        4
176
     1
 62
     7
176
     1
 62
   257
176
     1
 90
        1
176
     1
 90
        1
176
     1
 40
1.0
176
     1
 90
        0
176
     1
 62
   257
176
     1
 40
1.0
176
     1
 90
        1
176
     1
 90
        6
176
     1
 90
        2
176
     1
 62
     7
176
     1
 90
        5
176
     1
 90
        0
176
     1
 90
        0
176
     1
290
     0
176
     1
 90
        1
176
     1
 40
0.0
176
     1
 90
        0
176
     1
290
     1
176
     1
290
     1
176
     1
290
     0
176
     1
290
     0
176
     1
290
     0
176
     1
290
     0
176
     1
290
     0
176
     1
290
     0
176
     1
290
     0
176
     1
 90
       50
176
     1
 40
0.0
176
     1
 40
1.0
176
     1
 90
        0
176
     1
 62
    18
176
     1
 90
       50
176
     1
 90
        3
176
     1
 62
     5
420
      255
176
     1
290
     0
176
     1
 90
       50
176
     1
 90
       50
176
     1
 90
       50
176
     1
290
     0
176
     1
 90
       50
176
     1
 62
   256
176
     0
 40
1.0
176
     0
 90
        2
176
     1
  1
strokes_ogs.tif
176
     1
290
     0
176
     1
 40
1.0
176
     1
 40
1.0
176
     1
  0
VISUALSTYLE
  5
66D
102
{ACAD_REACTORS
330
4EC
102
}
330
4EC
100
AcDbVisualStyle
  2
Basic
 70
     7
177
     3
291
     1
 70
    58
 90
        1
176
     1
 90
        0
176
     1
 90
        1
176
     1
 90
        0
176
     1
 40
0.6
176
     1
 40
30.0
176
     1
 62
     7
420
 16777215
176
     1
 90
        0
176
     1
 90
        4
176
     1
 62
     7
176
     1
 62
   257
176
     1
 90
        1
176
     1
 90
        1
176
     1
 40
1.0
176
     1
 90
        8
176
     1
 62
     7
176
     1
 40
1.0
176
     1
 90
        1
176
     1
 90
        6
176
     1
 90
        2
176
     1
 62
     7
176
     1
 90
        5
176
     1
 90
        0
176
     1
 90
        0
176
     1
290
     0
176
     1
 90
        1
176
     1
 40
0.0
176
     1
 90
        0
176
     1
290
     0
176
     1
290
     1
176
     1
290
     1
176
     1
290
     0
176
     1
290
     0
176
     1
290
     0
176
     1
290
     0
176
     1
290
     0
176
     1
290
     0
176
     1
 90
       50
176
     1
 40
0.0
176
     1
 40
1.0
176
     1
 90
        0
176
     1
 62
    18
176
     1
 90
       50
176
     1
 90
        3
176
     1
 62
     5
420
      255
176
     1
290
     0
176
     1
 90
       50
176
     1
 90
       50
176
     1
 90
       50
176
     1
290
     0
176
     1
 90
       50
176
     1
 62
   256
176
     0
 40
1.0
176
     0
 90
        2
176
     1
  1
strokes_ogs.tif
176
     1
290
     0
176
     1
 40
1.0
176
     1
 40
1.0
176
     1
  0
VISUALSTYLE
  5
674
102
{ACAD_REACTORS
330
4EC
102
}
330
4EC
100
AcDbVisualStyle
  2
Brighten
 70
    12
177
     3
291
     1
 70
    58
 90
        2
176
     1
 90
        2
176
     1
 90
        0
176
     1
 90
        0
176
     1
 40
0.6
176
     1
 40
30.0
176
     1
 62
     7
420
 16777215
176
     1
 90
        1
176
     1
 90
        4
176
     1
 62
     7
176
     1
 62
   257
176
     1
 90
        1
176
     1
 90
        1
176
     1
 40
1.0
176
     1
 90
        8
176
     1
 62
     7
176
     1
 40
1.0
176
     1
 90
        1
176
     1
 90
        6
176
     1
 90
        2
176
     1
 62
     7
176
     1
 90
        5
176
     1
 90
        0
176
     1
 90
        0
176
     1
290
     0
176
     1
 90
        1
176
     1
 40
50.0
176
     1
 90
        0
176
     1
290
     0
176
     1
290
     1
176
     1
290
     1
176
     1
290
     0
176
     1
290
     0
176
     1
290
     0
176
     1
290
     0
176
     1
290
     0
176
     1
290
     0
176
     1
 90
       50
176
     1
 40
0.0
176
     1
 40
1.0
176
     1
 90
        0
176
     1
 62
    18
176
     1
 90
       50
176
     1
 90
        3
176
     1
 62
     5
420
      255
176
     1
290
     0
176
     1
 90
       50
176
     1
 90
       50
176
     1
 90
       50
176
     1
290
     0
176
     1
 90
       50
176
     1
 62
   256
176
     0
 40
1.0
176
     0
 90
        2
176
     1
  1
strokes_ogs.tif
176
     1
290
     0
176
     1
 40
1.0
176
     1
 40
1.0
176
     1
  0
VISUALSTYLE
  5
678
102
{ACAD_REACTORS
330
4EC
102
}
330
4EC
100
AcDbVisualStyle
  2
ColorChange
 70
    16
177
     3
291
     1
 70
    58
 90
        2
176
     1
 90
        2
176
     1
 90
        3
176
     1
 90
        0
176
     1
 40
0.6
176
     1
 40
30.0
176
     1
 62
     8
420
  8421504
176
     1
 90
        1
176
     1
 90
        4
176
     1
 62
     7
176
     1
 62
   257
176
     1
 90
        1
176
     1
 90
        1
176
     1
 40
1.0
176
     1
 90
        8
176
     1
 62
     8
420
  8421504
176
     1
 40
1.0
176
     1
 90
        1
176
     1
 90
        6
176
     1
 90
        2
176
     1
 62
     7
176
     1
 90
        5
176
     1
 90
        0
176
     1
 90
        0
176
     1
290
     0
176
     1
 90
        1
176
     1
 40
0.0
176
     1
 90
        0
176
     1
290
     0
176
     1
290
     1
176
     1
290
     1
176
     1
290
     0
176
     1
290
     0
176
     1
290
     0
176
     1
290
     0
176
     1
290
     0
176
     1
290
     0
176
     1
 90
       50
176
     1
 40
0.0
176
     1
 40
1.0
176
     1
 90
        0
176
     1
 62
    18
176
     1
 90
       50
176
     1
 90
        3
176
     1
 62
     5
420
      255
176
     1
290
     0
176
     1
 90
       50
176
     1
 90
       50
176
     1
 90
       50
176
     1
290
     0
176
     1
 90
       50
176
     1
 62
   256
176
     0
 40
1.0
176
     0
 90
        2
176
     1
  1
strokes_ogs.tif
176
     1
290
     0
176
     1
 40
1.0
176
     1
 40
1.0
176
     1
  0
VISUALSTYLE
  5
671
102
{ACAD_REACTORS
330
4EC
102
}
330
4EC
100
AcDbVisualStyle
  2
Conceptual
 70
     9
177
     3
291
     0
 70
    58
 90
        3
176
     1
 90
        2
176
     1
 90
        0
176
     1
 90
        0
176
     1
 40
0.6
176
     1
 40
30.0
176
     1
 62
     7
420
 16777215
176
     1
 90
        2
176
     1
 90
        2
176
     1
 62
     7
176
     1
 62
   257
176
     1
 90
        1
176
     1
 90
        1
176
     1
 40
179.0
176
     1
 90
        8
176
     1
 62
     7
176
     1
 40
1.0
176
     1
 90
        1
176
     1
 90
        6
176
     1
 90
        2
176
     1
 62
     7
176
     1
 90
        3
176
     1
 90
        0
176
     1
 90
        0
176
     1
290
     0
176
     1
 90
        1
176
     1
 40
0.0
176
     1
 90
        0
176
     1
290
     0
176
     1
290
     1
176
     1
290
     1
176
     1
290
     0
176
     1
290
     0
176
     1
290
     0
176
     1
290
     0
176
     1
290
     0
176
     1
290
     0
176
     1
 90
       50
176
     1
 40
0.0
176
     1
 40
1.0
176
     1
 90
        0
176
     1
 62
    18
176
     1
 90
       50
176
     1
 90
        3
176
     1
 62
     5
420
      255
176
     1
290
     0
176
     1
 90
       50
176
     1
 90
       50
176
     1
 90
       50
176
     1
290
     0
176
     1
 90
       50
176
     1
 62
   256
176
     0
 40
1.0
176
     0
 90
        2
176
     1
  1
strokes_ogs.tif
176
     1
290
     0
176
     1
 40
1.0
176
     1
 40
1.0
176
     1
  0
VISUALSTYLE
  5
673
102
{ACAD_REACTORS
330
4EC
102
}
330
4EC
100
AcDbVisualStyle
  2
Dim
 70
    11
177
     3
291
     1
 70
    58
 90
        2
176
     1
 90
        2
176
     1
 90
        0
176
     1
 90
        0
176
     1
 40
0.6
176
     1
 40
30.0
176
     1
 62
     7
420
 16777215
176
     1
 90
        1
176
     1
 90
        4
176
     1
 62
     7
176
     1
 62
   257
176
     1
 90
        1
176
     1
 90
        1
176
     1
 40
1.0
176
     1
 90
        8
176
     1
 62
     7
176
     1
 40
1.0
176
     1
 90
        1
176
     1
 90
        6
176
     1
 90
        2
176
     1
 62
     7
176
     1
 90
        5
176
     1
 90
        0
176
     1
 90
        0
176
     1
290
     0
176
     1
 90
        1
176
     1
 40
-50.0
176
     1
 90
        0
176
     1
290
     0
176
     1
290
     1
176
     1
290
     1
176
     1
290
     0
176
     1
290
     0
176
     1
290
     0
176
     1
290
     0
176
     1
290
     0
176
     1
290
     0
176
     1
 90
       50
176
     1
 40
0.0
176
     1
 40
1.0
176
     1
 90
        0
176
     1
 62
    18
176
     1
 90
       50
176
     1
 90
        3
176
     1
 62
     5
420
      255
176
     1
290
     0
176
     1
 90
       50
176
     1
 90
       50
176
     1
 90
       50
176
     1
290
     0
176
     1
 90
       50
176
     1
 62
   256
176
     0
 40
1.0
176
     0
 90
        2
176
     1
  1
strokes_ogs.tif
176
     1
290
     0
176
     1
 40
1.0
176
     1
 40
1.0
176
     1
  0
VISUALSTYLE
  5
680
102
{ACAD_REACTORS
330
4EC
102
}
330
4EC
100
AcDbVisualStyle
  2
EdgeColorOff
 70
    22
177
     3
291
     1
 70
    58
 90
        2
176
     0
 90
        2
176
     0
 90
        0
176
     0
 90
        0
176
     0
 40
0.6
176
     0
 40
30.0
176
     0
 62
     7
420
 16777215
176
     0
 90
        1
176
     0
 90
        4
176
     0
 62
     7
176
     0
 62
   257
176
     0
 90
        1
176
     0
 90
        1
176
     0
 40
1.0
176
     0
 90
        8
176
     2
 62
     7
176
     0
 40
1.0
176
     0
 90
        1
176
     0
 90
        6
176
     0
 90
        2
176
     0
 62
     7
176
     0
 90
        5
176
     0
 90
        0
176
     0
 90
        0
176
     0
290
     0
176
     0
 90
        1
176
     0
 40
0.0
176
     0
 90
        0
176
     0
290
     0
176
     1
290
     1
176
     1
290
     1
176
     1
290
     0
176
     1
290
     0
176
     1
290
     0
176
     1
290
     0
176
     1
290
     0
176
     1
290
     0
176
     1
 90
       50
176
     0
 40
0.0
176
     0
 40
1.0
176
     0
 90
        0
176
     0
 62
    18
176
     0
 90
       50
176
     0
 90
        3
176
     0
 62
     5
420
      255
176
     0
290
     0
176
     1
 90
       50
176
     0
 90
       50
176
     0
 90
       50
176
     0
290
     0
176
     1
 90
       50
176
     0
 62
   256
176
     0
 40
1.0
176
     0
 90
        2
176
     0
  1
strokes_ogs.tif
176
     0
290
     0
176
     1
 40
1.0
176
     0
 40
1.0
176
     0
  0
VISUALSTYLE
  5
677
102
{ACAD_REACTORS
330
4EC
102
}
330
4EC
100
AcDbVisualStyle
  2
Facepattern
 70
    15
177
     3
291
     1
 70
    58
 90
        2
176
     1
 90
        2
176
     1
 90
        0
176
     1
 90
        0
176
     1
 40
0.6
176
     1
 40
30.0
176
     1
 62
     7
420
 16777215
176
     1
 90
        1
176
     1
 90
        4
176
     1
 62
     7
176
     1
 62
   257
176
     1
 90
        1
176
     1
 90
        1
176
     1
 40
1.0
176
     1
 90
        8
176
     1
 62
     7
176
     1
 40
1.0
176
     1
 90
        1
176
     1
 90
        6
176
     1
 90
        2
176
     1
 62
     7
176
     1
 90
        5
176
     1
 90
        0
176
     1
 90
        0
176
     1
290
     0
176
     1
 90
        1
176
     1
 40
0.0
176
     1
 90
        0
176
     1
290
     0
176
     1
290
     1
176
     1
290
     1
176
     1
290
     0
176
     1
290
     0
176
     1
290
     0
176
     1
290
     0
176
     1
290
     0
176
     1
290
     0
176
     1
 90
       50
176
     1
 40
0.0
176
     1
 40
1.0
176
     1
 90
        0
176
     1
 62
    18
176
     1
 90
       50
176
     1
 90
        3
176
     1
 62
     5
420
      255
176
     1
290
     0
176
     1
 90
       50
176
     1
 90
       50
176
     1
 90
       50
176
     1
290
     0
176
     1
 90
       50
176
     1
 62
   256
176
     0
 40
1.0
176
     0
 90
        2
176
     1
  1
strokes_ogs.tif
176
     1
290
     0
176
     1
 40
1.0
176
     1
 40
1.0
176
     1
  0
VISUALSTYLE
  5
669
102
{ACAD_REACTORS
330
4EC
102
}
330
4EC
100
AcDbVisualStyle
  2
Flat
 70
     0
177
     3
291
     1
 70
    58
 90
        2
176
     1
 90
        1
176
     1
 90
        1
176
     1
 90
        2
176
     1
 40
0.6
176
     1
 40
30.0
176
     1
 62
     7
420
 16777215
176
     1
 90
        0
176
     1
 90
        0
176
     1
 62
     7
176
     1
 62
   257
176
     1
 90
        1
176
     1
 90
        1
176
     1
 40
1.0
176
     1
 90
        8
176
     1
 62
     7
176
     1
 40
1.0
176
     1
 90
        1
176
     1
 90
        6
176
     1
 90
        2
176
     1
 62
     7
176
     1
 90
        5
176
     1
 90
        0
176
     1
 90
        0
176
     1
290
     0
176
     1
 90
       13
176
     1
 40
0.0
176
     1
 90
        0
176
     1
290
     0
176
     1
290
     1
176
     1
290
     1
176
     1
290
     0
176
     1
290
     0
176
     1
290
     0
176
     1
290
     0
176
     1
290
     0
176
     1
290
     0
176
     1
 90
       50
176
     1
 40
0.0
176
     1
 40
1.0
176
     1
 90
        0
176
     1
 62
    18
176
     1
 90
       50
176
     1
 90
        3
176
     1
 62
     5
420
      255
176
     1
290
     0
176
     1
 90
       50
176
     1
 90
       50
176
     1
 90
       50
176
     1
290
     0
176
     1
 90
       50
176
     1
 62
   256
176
     0
 40
1.0
176
     0
 90
        2
176
     1
  1
strokes_ogs.tif
176
     1
290
     0
176
     1
 40
1.0
176
     1
 40
1.0
176
     1
  0
VISUALSTYLE
  5
66A
102
{ACAD_REACTORS
330
4EC
102
}
330
4EC
100
AcDbVisualStyle
  2
FlatWithEdges
 70
     1
177
     3
291
     1
 70
    58
 90
        2
176
     1
 90
        1
176
     1
 90
        1
176
     1
 90
        2
176
     1
 40
0.6
176
     1
 40
30.0
176
     1
 62
     7
420
 16777215
176
     1
 90
        1
176
     1
 90
        0
176
     1
 62
     7
176
     1
 62
   257
176
     1
 90
        1
176
     1
 90
        1
176
     1
 40
1.0
176
     1
 90
        0
176
     1
 62
   257
176
     1
 40
1.0
176
     1
 90
        1
176
     1
 90
        6
176
     1
 90
        2
176
     1
 62
     7
176
     1
 90
        5
176
     1
 90
        0
176
     1
 90
        0
176
     1
290
     0
176
     1
 90
       13
176
     1
 40
0.0
176
     1
 90
        0
176
     1
290
     0
176
     1
290
     1
176
     1
290
     1
176
     1
290
     0
176
     1
290
     0
176
     1
290
     0
176
     1
290
     0
176
     1
290
     0
176
     1
290
     0
176
     1
 90
       50
176
     1
 40
0.0
176
     1
 40
1.0
176
     1
 90
        0
176
     1
 62
    18
176
     1
 90
       50
176
     1
 90
        3
176
     1
 62
     5
420
      255
176
     1
290
     0
176
     1
 90
       50
176
     1
 90
       50
176
     1
 90
       50
176
     1
290
     0
176
     1
 90
       50
176
     1
 62
   256
176
     0
 40
1.0
176
     0
 90
        2
176
     1
  1
strokes_ogs.tif
176
     1
290
     0
176
     1
 40
1.0
176
     1
 40
1.0
176
     1
  0
VISUALSTYLE
  5
66B
102
{ACAD_REACTORS
330
4EC
102
}
330
4EC
100
AcDbVisualStyle
  2
Gouraud
 70
     2
177
     3
291
     1
 70
    58
 90
        2
176
     1
 90
        2
176
     1
 90
        1
176
     1
 90
        2
176
     1
 40
0.6
176
     1
 40
30.0
176
     1
 62
     7
420
 16777215
176
     1
 90
        0
176
     1
 90
        0
176
     1
 62
     7
176
     1
 62
   257
176
     1
 90
        1
176
     1
 90
        1
176
     1
 40
1.0
176
     1
 90
        0
176
     1
 62
     7
176
     1
 40
1.0
176
     1
 90
        1
176
     1
 90
        6
176
     1
 90
        2
176
     1
 62
     7
176
     1
 90
        5
176
     1
 90
        0
176
     1
 90
        0
176
     1
290
     0
176
     1
 90
       13
176
     1
 40
0.0
176
     1
 90
        0
176
     1
290
     0
176
     1
290
     1
176
     1
290
     1
176
     1
290
     0
176
     1
290
     0
176
     1
290
     0
176
     1
290
     0
176
     1
290
     0
176
     1
290
     0
176
     1
 90
       50
176
     1
 40
0.0
176
     1
 40
1.0
176
     1
 90
        0
176
     1
 62
    18
176
     1
 90
       50
176
     1
 90
        3
176
     1
 62
     5
420
      255
176
     1
290
     0
176
     1
 90
       50
176
     1
 90
       50
176
     1
 90
       50
176
     1
290
     0
176
     1
 90
       50
176
     1
 62
   256
176
     0
 40
1.0
176
     0
 90
        2
176
     1
  1
strokes_ogs.tif
176
     1
290
     0
176
     1
 40
1.0
176
     1
 40
1.0
176
     1
  0
VISUALSTYLE
  5
66C
102
{ACAD_REACTORS
330
4EC
102
}
330
4EC
100
AcDbVisualStyle
  2
GouraudWithEdges
 70
     3
177
     3
291
     1
 70
    58
 90
        2
176
     1
 90
        2
176
     1
 90
        1
176
     1
 90
        2
176
     1
 40
0.6
176
     1
 40
30.0
176
     1
 62
     7
420
 16777215
176
     1
 90
        1
176
     1
 90
        0
176
     1
 62
     7
176
     1
 62
   257
176
     1
 90
        1
176
     1
 90
        1
176
     1
 40
1.0
176
     1
 90
        0
176
     1
 62
   257
176
     1
 40
1.0
176
     1
 90
        1
176
     1
 90
        6
176
     1
 90
        2
176
     1
 62
     7
176
     1
 90
        5
176
     1
 90
        0
176
     1
 90
        0
176
     1
290
     0
176
     1
 90
       13
176
     1
 40
0.0
176
     1
 90
        0
176
     1
290
     0
176
     1
290
     1
176
     1
290
     1
176
     1
290
     0
176
     1
290
     0
176
     1
290
     0
176
     1
290
     0
176
     1
290
     0
176
     1
290
     0
176
     1
 90
       50
176
     1
 40
0.0
176
     1
 40
1.0
176
     1
 90
        0
176
     1
 62
    18
176
     1
 90
       50
176
     1
 90
        3
176
     1
 62
     5
420
      255
176
     1
290
     0
176
     1
 90
       50
176
     1
 90
       50
176
     1
 90
       50
176
     1
290
     0
176
     1
 90
       50
176
     1
 62
   256
176
     0
 40
1.0
176
     0
 90
        2
176
     1
  1
strokes_ogs.tif
176
     1
290
     0
176
     1
 40
1.0
176
     1
 40
1.0
176
     1
  0
VISUALSTYLE
  5
670
102
{ACAD_REACTORS
330
4EC
102
}
330
4EC
100
AcDbVisualStyle
  2
Hidden
 70
     6
177
     3
291
     0
 70
    58
 90
        1
176
     1
 90
        2
176
     1
 90
        2
176
     1
 90
        0
176
     1
 40
0.6
176
     1
 40
30.0
176
     1
 62
     7
420
 16777215
176
     1
 90
        2
176
     1
 90
        2
176
     1
 62
     7
176
     1
 62
   257
176
     1
 90
        2
176
     1
 90
        1
176
     1
 40
40.0
176
     1
 90
        0
176
     1
 62
   257
176
     1
 40
1.0
176
     1
 90
        1
176
     1
 90
        6
176
     1
 90
        2
176
     1
 62
     7
176
     1
 90
        3
176
     1
 90
        0
176
     1
 90
        0
176
     1
290
     0
176
     1
 90
        1
176
     1
 40
0.0
176
     1
 90
        0
176
     1
290
     0
176
     1
290
     1
176
     1
290
     1
176
     1
290
     0
176
     1
290
     0
176
     1
290
     0
176
     1
290
     0
176
     1
290
     0
176
     1
290
     0
176
     1
 90
       50
176
     1
 40
0.0
176
     1
 40
1.0
176
     1
 90
        0
176
     1
 62
    18
176
     1
 90
       50
176
     1
 90
        3
176
     1
 62
     5
420
      255
176
     1
290
     0
176
     1
 90
       50
176
     1
 90
       50
176
     1
 90
       50
176
     1
290
     0
176
     1
 90
       50
176
     1
 62
   256
176
     0
 40
1.0
176
     0
 90
        2
176
     1
  1
strokes_ogs.tif
176
     1
290
     0
176
     1
 40
1.0
176
     1
 40
1.0
176
     1
  0
VISUALSTYLE
  5
67E
102
{ACAD_REACTORS
330
4EC
102
}
330
4EC
100
AcDbVisualStyle
  2
JitterOff
 70
    20
177
     3
291
     1
 70
    58
 90
        2
176
     0
 90
        2
176
     0
 90
        0
176
     0
 90
        0
176
     0
 40
0.6
176
     0
 40
30.0
176
     0
 62
     7
420
 16777215
176
     0
 90
        1
176
     0
 90
        4
176
     0
 62
     7
176
     0
 62
   257
176
     0
 90
        1
176
     0
 90
        1
176
     0
 40
1.0
176
     0
 90
       10
176
     2
 62
     7
176
     0
 40
1.0
176
     0
 90
        1
176
     0
 90
        6
176
     0
 90
        2
176
     0
 62
     7
176
     0
 90
        5
176
     0
 90
        0
176
     0
 90
        0
176
     0
290
     0
176
     0
 90
        1
176
     0
 40
0.0
176
     0
 90
        0
176
     0
290
     0
176
     1
290
     1
176
     1
290
     1
176
     1
290
     0
176
     1
290
     0
176
     1
290
     0
176
     1
290
     0
176
     1
290
     0
176
     1
290
     0
176
     1
 90
       50
176
     0
 40
0.0
176
     0
 40
1.0
176
     0
 90
        0
176
     0
 62
    18
176
     0
 90
       50
176
     0
 90
        3
176
     0
 62
     5
420
      255
176
     0
290
     0
176
     1
 90
       50
176
     0
 90
       50
176
     0
 90
       50
176
     0
290
     0
176
     1
 90
       50
176
     0
 62
   256
176
     0
 40
1.0
176
     0
 90
        2
176
     0
  1
strokes_ogs.tif
176
     0
290
     0
176
     1
 40
1.0
176
     0
 40
1.0
176
     0
  0
VISUALSTYLE
  5
676
102
{ACAD_REACTORS
330
4EC
102
}
330
4EC
100
AcDbVisualStyle
  2
Linepattern
 70
    14
177
     3
291
     1
 70
    58
 90
        2
176
     1
 90
        2
176
     1
 90
        0
176
     1
 90
        0
176
     1
 40
0.6
176
     1
 40
30.0
176
     1
 62
     7
420
 16777215
176
     1
 90
        1
176
     1
 90
        4
176
     1
 62
     7
176
     1
 62
   257
176
     1
 90
        7
176
     1
 90
        7
176
     1
 40
1.0
176
     1
 90
        8
176
     1
 62
     7
176
     1
 40
1.0
176
     1
 90
        1
176
     1
 90
        6
176
     1
 90
        2
176
     1
 62
     7
176
     1
 90
        5
176
     1
 90
        0
176
     1
 90
        0
176
     1
290
     0
176
     1
 90
        1
176
     1
 40
0.0
176
     1
 90
        0
176
     1
290
     0
176
     1
290
     1
176
     1
290
     1
176
     1
290
     0
176
     1
290
     0
176
     1
290
     0
176
     1
290
     0
176
     1
290
     0
176
     1
290
     0
176
     1
 90
       50
176
     1
 40
0.0
176
     1
 40
1.0
176
     1
 90
        0
176
     1
 62
    18
176
     1
 90
       50
176
     1
 90
        3
176
     1
 62
     5
420
      255
176
     1
290
     0
176
     1
 90
       50
176
     1
 90
       50
176
     1
 90
       50
176
     1
290
     0
176
     1
 90
       50
176
     1
 62
   256
176
     0
 40
1.0
176
     0
 90
        2
176
     1
  1
strokes_ogs.tif
176
     1
290
     0
176
     1
 40
1.0
176
     1
 40
1.0
176
     1
  0
VISUALSTYLE
  5
67F
102
{ACAD_REACTORS
330
4EC
102
}
330
4EC
100
AcDbVisualStyle
  2
OverhangOff
 70
    21
177
     3
291
     1
 70
    58
 90
        2
176
     0
 90
        2
176
     0
 90
        0
176
     0
 90
        0
176
     0
 40
0.6
176
     0
 40
30.0
176
     0
 62
     7
420
 16777215
176
     0
 90
        1
176
     0
 90
        4
176
     0
 62
     7
176
     0
 62
   257
176
     0
 90
        1
176
     0
 90
        1
176
     0
 40
1.0
176
     0
 90
        9
176
     2
 62
     7
176
     0
 40
1.0
176
     0
 90
        1
176
     0
 90
        6
176
     0
 90
        2
176
     0
 62
     7
176
     0
 90
        5
176
     0
 90
        0
176
     0
 90
        0
176
     0
290
     0
176
     0
 90
        1
176
     0
 40
0.0
176
     0
 90
        0
176
     0
290
     0
176
     1
290
     1
176
     1
290
     1
176
     1
290
     0
176
     1
290
     0
176
     1
290
     0
176
     1
290
     0
176
     1
290
     0
176
     1
290
     0
176
     1
 90
       50
176
     0
 40
0.0
176
     0
 40
1.0
176
     0
 90
        0
176
     0
 62
    18
176
     0
 90
       50
176
     0
 90
        3
176
     0
 62
     5
420
      255
176
     0
290
     0
176
     1
 90
       50
176
     0
 90
       50
176
     0
 90
       50
176
     0
290
     0
176
     1
 90
       50
176
     0
 62
   256
176
     0
 40
1.0
176
     0
 90
        2
176
     0
  1
strokes_ogs.tif
176
     0
290
     0
176
     1
 40
1.0
176
     0
 40
1.0
176
     0
  0
VISUALSTYLE
  5
672
102
{ACAD_REACTORS
330
4EC
102
}
330
4EC
100
AcDbVisualStyle
  2
Realistic
 70
     8
177
     3
291
     0
 70
    58
 90
        2
176
     1
 90
        3
176
     1
 90
        0
176
     1
 90
        2
176
     1
 40
0.6
176
     1
 40
30.0
176
     1
 62
     7
420
 16777215
176
     1
 90
        0
176
     1
 90
        0
176
     1
 62
     7
176
     1
 62
   257
176
     1
 90
        1
176
     1
 90
        1
176
     1
 40
1.0
176
     1
 90
        8
176
     1
 62
   257
176
     1
 40
1.0
176
     1
 90
        1
176
     1
 90
        6
176
     1
 90
        2
176
     1
 62
     7
176
     1
 90
        3
176
     1
 90
        0
176
     1
 90
        0
176
     1
290
     0
176
     1
 90
       13
176
     1
 40
0.0
176
     1
 90
        0
176
     1
290
     0
176
     1
290
     1
176
     1
290
     1
176
     1
290
     0
176
     1
290
     0
176
     1
290
     0
176
     1
290
     0
176
     1
290
     0
176
     1
290
     0
176
     1
 90
       50
176
     1
 40
0.0
176
     1
 40
1.0
176
     1
 90
        0
176
     1
 62
    18
176
     1
 90
       50
176
     1
 90
        3
176
     1
 62
     5
420
      255
176
     1
290
     0
176
     1
 90
       50
176
     1
 90
       50
176
     1
 90
       50
176
     1
290
     0
176
     1
 90
       50
176
     1
 62
   256
176
     0
 40
1.0
176
     0
 90
        2
176
     1
  1
strokes_ogs.tif
176
     1
290
     0
176
     1
 40
1.0
176
     1
 40
1.0
176
     1
  0
VISUALSTYLE
  5
67D
102
{ACAD_REACTORS
330
4EC
102
}
330
4EC
100
AcDbVisualStyle
  2
Shaded
 70
    27
177
     3
291
     0
 70
    58
 90
        2
176
     1
 90
        2
176
     1
 90
        1
176
     1
 90
        2
176
     1
 40
0.6
176
     1
 40
30.0
176
     1
 62
     7
420
 16777215
176
     1
 90
        0
176
     1
 90
        4
176
     1
 62
     7
176
     1
 62
   257
176
     1
 90
        1
176
     1
 90
        1
176
     1
 40
1.0
176
     1
 90
        8
176
     1
 62
   257
176
     1
 40
1.0
176
     1
 90
        1
176
     1
 90
        6
176
     1
 90
        2
176
     1
 62
     8
420
  7895160
176
     1
 90
        3
176
     1
 90
        0
176
     1
 90
        0
176
     1
290
     0
176
     1
 90
        5
176
     1
 40
0.0
176
     1
 90
        0
176
     1
290
     0
176
     1
290
     1
176
     1
290
     1
176
     1
290
     0
176
     1
290
     0
176
     1
290
     0
176
     1
290
     0
176
     1
290
     0
176
     1
290
     0
176
     1
 90
       50
176
     1
 40
0.0
176
     1
 40
1.0
176
     1
 90
        0
176
     1
 62
    18
176
     1
 90
       50
176
     1
 90
        3
176
     1
 62
     5
420
      255
176
     1
290
     0
176
     1
 90
       50
176
     1
 90
       50
176
     1
 90
       50
176
     1
290
     0
176
     1
 90
       50
176
     1
 62
   256
176
     0
 40
1.0
176
     0
 90
        2
176
     1
  1
strokes_ogs.tif
176
     1
290
     0
176
     1
 40
1.0
176
     1
 40
1.0
176
     1
  0
VISUALSTYLE
  5
67C
102
{ACAD_REACTORS
330
4EC
102
}
330
4EC
100
AcDbVisualStyle
  2
Shaded with edges
 70
    26
177
     3
291
     0
 70
    58
 90
        2
176
     1
 90
        2
176
     1
 90
        1
176
     1
 90
        2
176
     1
 40
0.6
176
     1
 40
30.0
176
     1
 62
     7
420
 16777215
176
     1
 90
        1
176
     1
 90
        2
176
     1
 62
     7
176
     1
 62
   257
176
     1
 90
        2
176
     1
 90
        1
176
     1
 40
1.0
176
     1
 90
        8
176
     1
 62
   257
176
     1
 40
1.0
176
     1
 90
        1
176
     1
 90
        6
176
     1
 90
        2
176
     1
 62
     7
176
     1
 90
        3
176
     1
 90
        0
176
     1
 90
        0
176
     1
290
     0
176
     1
 90
        5
176
     1
 40
0.0
176
     1
 90
        0
176
     1
290
     0
176
     1
290
     1
176
     1
290
     1
176
     1
290
     0
176
     1
290
     0
176
     1
290
     0
176
     1
290
     0
176
     1
290
     0
176
     1
290
     0
176
     1
 90
       50
176
     1
 40
0.0
176
     1
 40
1.0
176
     1
 90
        0
176
     1
 62
    18
176
     1
 90
       50
176
     1
 90
        3
176
     1
 62
     5
420
      255
176
     1
290
     0
176
     1
 90
       50
176
     1
 90
       50
176
     1
 90
       50
176
     1
290
     0
176
     1
 90
       50
176
     1
 62
   256
176
     0
 40
1.0
176
     0
 90
        2
176
     1
  1
strokes_ogs.tif
176
     1
290
     0
176
     1
 40
1.0
176
     1
 40
1.0
176
     1
  0
VISUALSTYLE
  5
679
102
{ACAD_REACTORS
330
4EC
102
}
330
4EC
100
AcDbVisualStyle
  2
Shades of Gray
 70
    23
177
     3
291
     0
 70
    58
 90
        2
176
     1
 90
        2
176
     1
 90
        3
176
     1
 90
        0
176
     1
 40
0.6
176
     1
 40
30.0
176
     1
 62
     7
420
 16777215
176
     1
 90
        2
176
     1
 90
        2
176
     1
 62
     7
176
     1
 62
     7
176
     1
 90
        1
176
     1
 90
        1
176
     1
 40
40.0
176
     1
 90
        8
176
     1
 62
     7
176
     1
 40
1.0
176
     1
 90
        1
176
     1
 90
        6
176
     1
 90
        2
176
     1
 62
     7
176
     1
 90
        3
176
     1
 90
        0
176
     1
 90
        0
176
     1
290
     0
176
     1
 90
        1
176
     1
 40
0.0
176
     1
 90
        0
176
     1
290
     0
176
     1
290
     1
176
     1
290
     1
176
     1
290
     0
176
     1
290
     0
176
     1
290
     0
176
     1
290
     0
176
     1
290
     0
176
     1
290
     0
176
     1
 90
       50
176
     1
 40
0.0
176
     1
 40
1.0
176
     1
 90
        0
176
     1
 62
    18
176
     1
 90
       50
176
     1
 90
        3
176
     1
 62
     5
420
      255
176
     1
290
     0
176
     1
 90
       50
176
     1
 90
       50
176
     1
 90
       50
176
     1
290
     0
176
     1
 90
       50
176
     1
 62
   256
176
     0
 40
1.0
176
     0
 90
        2
176
     1
  1
strokes_ogs.tif
176
     1
290
     0
176
     1
 40
1.0
176
     1
 40
1.0
176
     1
  0
VISUALSTYLE
  5
67A
102
{ACAD_REACTORS
330
4EC
102
}
330
4EC
100
AcDbVisualStyle
  2
Sketchy
 70
    24
177
     3
291
     0
 70
    58
 90
        1
176
     1
 90
        2
176
     1
 90
        2
176
     1
 90
        0
176
     1
 40
0.6
176
     1
 40
30.0
176
     1
 62
     7
420
 16777215
176
     1
 90
        2
176
     1
 90
        2
176
     1
 62
     7
176
     1
 62
     7
176
     1
 90
        1
176
     1
 90
        1
176
     1
 40
40.0
176
     1
 90
       11
176
     1
 62
     7
176
     1
 40
1.0
176
     1
 90
        1
176
     1
 90
        6
176
     1
 90
        2
176
     1
 62
     7
176
     1
 90
        6
176
     1
 90
        0
176
     1
 90
        0
176
     1
290
     0
176
     1
 90
        1
176
     1
 40
0.0
176
     1
 90
        0
176
     1
290
     0
176
     1
290
     1
176
     1
290
     1
176
     1
290
     0
176
     1
290
     0
176
     1
290
     0
176
     1
290
     0
176
     1
290
     0
176
     1
290
     0
176
     1
 90
       50
176
     1
 40
0.0
176
     1
 40
1.0
176
     1
 90
        0
176
     1
 62
    18
176
     1
 90
       50
176
     1
 90
        3
176
     1
 62
     5
420
      255
176
     1
290
     0
176
     1
 90
       50
176
     1
 90
       50
176
     1
 90
       50
176
     1
290
     0
176
     1
 90
       50
176
     1
 62
   256
176
     0
 40
1.0
176
     0
 90
        2
176
     1
  1
strokes_ogs.tif
176
     1
290
     0
176
     1
 40
1.0
176
     1
 40
1.0
176
     1
  0
VISUALSTYLE
  5
675
102
{ACAD_REACTORS
330
4EC
102
}
330
4EC
100
AcDbVisualStyle
  2
Thicken
 70
    13
177
     3
291
     1
 70
    58
 90
        2
176
     1
 90
        2
176
     1
 90
        0
176
     1
 90
        0
176
     1
 40
0.6
176
     1
 40
30.0
176
     1
 62
     7
420
 16777215
176
     1
 90
        1
176
     1
 90
        4
176
     1
 62
     7
176
     1
 62
   257
176
     1
 90
        1
176
     1
 90
        1
176
     1
 40
1.0
176
     1
 90
       12
176
     1
 62
     7
176
     1
 40
1.0
176
     1
 90
        1
176
     1
 90
        6
176
     1
 90
        2
176
     1
 62
     7
176
     1
 90
        5
176
     1
 90
        0
176
     1
 90
        0
176
     1
290
     0
176
     1
 90
        1
176
     1
 40
0.0
176
     1
 90
        0
176
     1
290
     0
176
     1
290
     1
176
     1
290
     1
176
     1
290
     0
176
     1
290
     0
176
     1
290
     0
176
     1
290
     0
176
     1
290
     0
176
     1
290
     0
176
     1
 90
       50
176
     1
 40
0.0
176
     1
 40
1.0
176
     1
 90
        0
176
     1
 62
    18
176
     1
 90
       50
176
     1
 90
        3
176
     1
 62
     5
420
      255
176
     1
290
     0
176
     1
 90
       50
176
     1
 90
       50
176
     1
 90
       50
176
     1
290
     0
176
     1
 90
       50
176
     1
 62
   256
176
     0
 40
1.0
176
     0
 90
        2
176
     1
  1
strokes_ogs.tif
176
     1
290
     0
176
     1
 40
1.0
176
     1
 40
1.0
176
     1
  0
VISUALSTYLE
  5
66F
102
{ACAD_REACTORS
330
4EC
102
}
330
4EC
100
AcDbVisualStyle
  2
Wireframe
 70
     5
177
     3
291
     0
 70
    58
 90
        0
176
     1
 90
        2
176
     1
 90
        0
176
     1
 90
        0
176
     1
 40
0.6
176
     1
 40
30.0
176
     1
 62
     7
420
 16777215
176
     1
 90
        1
176
     1
 90
        4
176
     1
 62
     7
176
     1
 62
   257
176
     1
 90
        1
176
     1
 90
        1
176
     1
 40
1.0
176
     1
 90
        0
176
     1
 62
   257
176
     1
 40
1.0
176
     1
 90
        1
176
     1
 90
        6
176
     1
 90
        2
176
     1
 62
     7
176
     1
 90
        3
176
     1
 90
        0
176
     1
 90
        0
176
     1
290
     0
176
     1
 90
        1
176
     1
 40
0.0
176
     1
 90
        0
176
     1
290
     0
176
     1
290
     1
176
     1
290
     1
176
     1
290
     0
176
     1
290
     0
176
     1
290
     0
176
     1
290
     0
176
     1
290
     0
176
     1
290
     0
176
     1
 90
       50
176
     1
 40
0.0
176
     1
 40
1.0
176
     1
 90
        0
176
     1
 62
    18
176
     1
 90
       50
176
     1
 90
        3
176
     1
 62
     5
420
      255
176
     1
290
     0
176
     1
 90
       50
176
     1
 90
       50
176
     1
 90
       50
176
     1
290
     0
176
     1
 90
       50
176
     1
 62
   256
176
     0
 40
1.0
176
     0
 90
        2
176
     1
  1
strokes_ogs.tif
176
     1
290
     0
176
     1
 40
1.0
176
     1
 40
1.0
176
     1
  0
VISUALSTYLE
  5
67B
102
{ACAD_REACTORS
330
4EC
102
}
330
4EC
100
AcDbVisualStyle
  2
X-Ray
 70
    25
177
     3
291
     0
 70
    58
 90
        2
176
     1
 90
        2
176
     1
 90
        1
176
     1
 90
        1
176
     1
 40
0.5
176
     1
 40
30.0
176
     1
 62
     7
420
 16777215
176
     1
 90
        1
176
     1
 90
        0
176
     1
 62
     7
176
     1
 62
   257
176
     1
 90
        1
176
     1
 90
        1
176
     1
 40
1.0
176
     1
 90
        8
176
     1
 62
     7
176
     1
 40
1.0
176
     1
 90
        1
176
     1
 90
        6
176
     1
 90
        2
176
     1
 62
     7
176
     1
 90
        3
176
     1
 90
        0
176
     1
 90
        0
176
     1
290
     0
176
     1
 90
       13
176
     1
 40
0.0
176
     1
 90
        0
176
     1
290
     0
176
     1
290
     1
176
     1
290
     1
176
     1
290
     0
176
     1
290
     0
176
     1
290
     0
176
     1
290
     0
176
     1
290
     0
176
     1
290
     0
176
     1
 90
       50
176
     1
 40
0.0
176
     1
 40
1.0
176
     1
 90
        0
176
     1
 62
    18
176
     1
 90
       50
176
     1
 90
        3
176
     1
 62
     5
420
      255
176
     1
290
     0
176
     1
 90
       50
176
     1
 90
       50
176
     1
 90
       50
176
     1
290
     0
176
     1
 90
       50
176
     1
 62
   256
176
     0
 40
1.0
176
     0
 90
        2
176
     1
  1
strokes_ogs.tif
176
     1
290
     0
176
     1
 40
1.0
176
     1
 40
1.0
176
     1
  0
DICTIONARYVAR
  5
6C2
102
{ACAD_REACTORS
330
6BD
102
}
330
6BD
100
DictionaryVariables
280
     0
  1
1:1
  0
DICTIONARYVAR
  5
6BF
102
{ACAD_REACTORS
330
6BD
102
}
330
6BD
100
DictionaryVariables
280
     0
  1
STANDARD
  0
DICTIONARYVAR
  5
6BE
102
{ACAD_REACTORS
330
6BD
102
}
330
6BD
100
DictionaryVariables
280
     0
  1
STANDARD
  0
DICTIONARYVAR
  5
6C0
102
{ACAD_REACTORS
330
6BD
102
}
330
6BD
100
DictionaryVariables
280
     0
  1
Metric50
  0
DICTIONARYVAR
  5
6C1
102
{ACAD_REACTORS
330
6BD
102
}
330
6BD
100
DictionaryVariables
280
     0
  1
Metric50
  0
DICTIONARY
  5
65A
330
659
100
AcDbDictionary
280
     1
281
     1
  3
BUMPTILE
360
65C
  3
DIFFUSETILE
360
65B
  3
OPACITYTILE
360
65F
  3
REFLECTIONTILE
360
65E
  3
REFRACTIONTILE
360
660
  3
SPECULARTILE
360
65D
  0
DICTIONARY
  5
652
330
651
100
AcDbDictionary
280
     1
281
     1
  3
BUMPTILE
360
654
  3
DIFFUSETILE
360
653
  3
OPACITYTILE
360
657
  3
REFLECTIONTILE
360
656
  3
REFRACTIONTILE
360
658
  3
SPECULARTILE
360
655
  0
DICTIONARY
  5
662
330
661
100
AcDbDictionary
280
     1
281
     1
  3
BUMPTILE
360
664
  3
DIFFUSETILE
360
663
  3
OPACITYTILE
360
667
  3
REFLECTIONTILE
360
666
  3
REFRACTIONTILE
360
668
  3
SPECULARTILE
360
665
  0
DICTIONARY
  5
8D9
330
681
100
AcDbDictionary
280
     1
281
     1
  3
ACAD_ROUNDTRIP_2008_TABLESTYLE_CELLSTYLEMAP
360
2123
  0
XRECORD
  5
65C
102
{ACAD_REACTORS
330
65A
102
}
330
65A
100
AcDbXrecord
280
     1
270
     1
271
     1
  0
XRECORD
  5
65B
102
{ACAD_REACTORS
330
65A
102
}
330
65A
100
AcDbXrecord
280
     1
270
     1
271
     1
  0
XRECORD
  5
65F
102
{ACAD_REACTORS
330
65A
102
}
330
65A
100
AcDbXrecord
280
     1
270
     1
271
     1
  0
XRECORD
  5
65E
102
{ACAD_REACTORS
330
65A
102
}
330
65A
100
AcDbXrecord
280
     1
270
     1
271
     1
  0
XRECORD
  5
660
102
{ACAD_REACTORS
330
65A
102
}
330
65A
100
AcDbXrecord
280
     1
270
     1
271
     1
  0
XRECORD
  5
65D
102
{ACAD_REACTORS
330
65A
102
}
330
65A
100
AcDbXrecord
280
     1
270
     1
271
     1
  0
XRECORD
  5
654
102
{ACAD_REACTORS
330
652
102
}
330
652
100
AcDbXrecord
280
     1
270
     1
271
     1
  0
XRECORD
  5
653
102
{ACAD_REACTORS
330
652
102
}
330
652
100
AcDbXrecord
280
     1
270
     1
271
     1
  0
XRECORD
  5
657
102
{ACAD_REACTORS
330
652
102
}
330
652
100
AcDbXrecord
280
     1
270
     1
271
     1
  0
XRECORD
  5
656
102
{ACAD_REACTORS
330
652
102
}
330
652
100
AcDbXrecord
280
     1
270
     1
271
     1
  0
XRECORD
  5
658
102
{ACAD_REACTORS
330
652
102
}
330
652
100
AcDbXrecord
280
     1
270
     1
271
     1
  0
XRECORD
  5
655
102
{ACAD_REACTORS
330
652
102
}
330
652
100
AcDbXrecord
280
     1
270
     1
271
     1
  0
XRECORD
  5
664
102
{ACAD_REACTORS
330
662
102
}
330
662
100
AcDbXrecord
280
     1
270
     1
271
     1
  0
XRECORD
  5
663
102
{ACAD_REACTORS
330
662
102
}
330
662
100
AcDbXrecord
280
     1
270
     1
271
     1
  0
XRECORD
  5
667
102
{ACAD_REACTORS
330
662
102
}
330
662
100
AcDbXrecord
280
     1
270
     1
271
     1
  0
XRECORD
  5
666
102
{ACAD_REACTORS
330
662
102
}
330
662
100
AcDbXrecord
280
     1
270
     1
271
     1
  0
XRECORD
  5
668
102
{ACAD_REACTORS
330
662
102
}
330
662
100
AcDbXrecord
280
     1
270
     1
271
     1
  0
XRECORD
  5
665
102
{ACAD_REACTORS
330
662
102
}
330
662
100
AcDbXrecord
280
     1
270
     1
271
     1
  0
CELLSTYLEMAP
  5
2123
102
{ACAD_REACTORS
330
8D9
102
}
330
8D9
100
AcDbCellStyleMap
 90
        3
300
CELLSTYLE
  1
TABLEFORMAT_BEGIN
 90
        5
170
     1
 91
        0
 92
    32768
 62
   257
 93
        1
300
CONTENTFORMAT
  1
CONTENTFORMAT_BEGIN
 90
        0
 91
        0
 92
      512
 93
        0
300

 40
0.0
140
1.0
 94
        5
 62
     0
340
11
144
6.0
309
CONTENTFORMAT_END
171
     1
301
MARGIN
  1
CELLMARGIN_BEGIN
 40
1.5
 40
1.5
 40
1.5
 40
1.5
 40
0.18
 40
0.18
309
CELLMARGIN_END
 94
        6
 95
        1
302
GRIDFORMAT
  1
GRIDFORMAT_BEGIN
 90
        0
 91
        1
 62
     0
 92
       -2
340
0
 93
        0
 40
1.125
309
GRIDFORMAT_END
 95
        2
302
GRIDFORMAT
  1
GRIDFORMAT_BEGIN
 90
        0
 91
        1
 62
     0
 92
       -2
340
0
 93
        0
 40
1.125
309
GRIDFORMAT_END
 95
        4
302
GRIDFORMAT
  1
GRIDFORMAT_BEGIN
 90
        0
 91
        1
 62
     0
 92
       -2
340
0
 93
        0
 40
1.125
309
GRIDFORMAT_END
 95
        8
302
GRIDFORMAT
  1
GRIDFORMAT_BEGIN
 90
        0
 91
        1
 62
     0
 92
       -2
340
0
 93
        0
 40
1.125
309
GRIDFORMAT_END
 95
       16
302
GRIDFORMAT
  1
GRIDFORMAT_BEGIN
 90
        0
 91
        1
 62
     0
 92
       -2
340
0
 93
        0
 40
1.125
309
GRIDFORMAT_END
 95
       32
302
GRIDFORMAT
  1
GRIDFORMAT_BEGIN
 90
        0
 91
        1
 62
     0
 92
       -2
340
0
 93
        0
 40
1.125
309
GRIDFORMAT_END
309
TABLEFORMAT_END
  1
CELLSTYLE_BEGIN
 90
        1
 91
        1
300
_TITLE
309
CELLSTYLE_END
300
CELLSTYLE
  1
TABLEFORMAT_BEGIN
 90
        5
170
     1
 91
        0
 92
        0
 62
   257
 93
        1
300
CONTENTFORMAT
  1
CONTENTFORMAT_BEGIN
 90
        0
 91
        0
 92
      512
 93
        0
300

 40
0.0
140
1.0
 94
        5
 62
     0
340
11
144
4.5
309
CONTENTFORMAT_END
171
     1
301
MARGIN
  1
CELLMARGIN_BEGIN
 40
1.5
 40
1.5
 40
1.5
 40
1.5
 40
0.18
 40
0.18
309
CELLMARGIN_END
 94
        6
 95
        1
302
GRIDFORMAT
  1
GRIDFORMAT_BEGIN
 90
        0
 91
        1
 62
     0
 92
       -2
340
0
 93
        0
 40
1.125
309
GRIDFORMAT_END
 95
        2
302
GRIDFORMAT
  1
GRIDFORMAT_BEGIN
 90
        0
 91
        1
 62
     0
 92
       -2
340
0
 93
        0
 40
1.125
309
GRIDFORMAT_END
 95
        4
302
GRIDFORMAT
  1
GRIDFORMAT_BEGIN
 90
        0
 91
        1
 62
     0
 92
       -2
340
0
 93
        0
 40
1.125
309
GRIDFORMAT_END
 95
        8
302
GRIDFORMAT
  1
GRIDFORMAT_BEGIN
 90
        0
 91
        1
 62
     0
 92
       -2
340
0
 93
        0
 40
1.125
309
GRIDFORMAT_END
 95
       16
302
GRIDFORMAT
  1
GRIDFORMAT_BEGIN
 90
        0
 91
        1
 62
     0
 92
       -2
340
0
 93
        0
 40
1.125
309
GRIDFORMAT_END
 95
       32
302
GRIDFORMAT
  1
GRIDFORMAT_BEGIN
 90
        0
 91
        1
 62
     0
 92
       -2
340
0
 93
        0
 40
1.125
309
GRIDFORMAT_END
309
TABLEFORMAT_END
  1
CELLSTYLE_BEGIN
 90
        2
 91
        1
300
_HEADER
309
CELLSTYLE_END
300
CELLSTYLE
  1
TABLEFORMAT_BEGIN
 90
        5
170
     1
 91
        0
 92
        0
 62
   257
 93
        1
300
CONTENTFORMAT
  1
CONTENTFORMAT_BEGIN
 90
        0
 91
        0
 92
      512
 93
        0
300

 40
0.0
140
1.0
 94
        2
 62
     0
340
11
144
4.5
309
CONTENTFORMAT_END
171
     1
301
MARGIN
  1
CELLMARGIN_BEGIN
 40
1.5
 40
1.5
 40
1.5
 40
1.5
 40
0.18
 40
0.18
309
CELLMARGIN_END
 94
        6
 95
        1
302
GRIDFORMAT
  1
GRIDFORMAT_BEGIN
 90
        0
 91
        1
 62
     0
 92
       -2
340
0
 93
        0
 40
1.125
309
GRIDFORMAT_END
 95
        2
302
GRIDFORMAT
  1
GRIDFORMAT_BEGIN
 90
        0
 91
        1
 62
     0
 92
       -2
340
0
 93
        0
 40
1.125
309
GRIDFORMAT_END
 95
        4
302
GRIDFORMAT
  1
GRIDFORMAT_BEGIN
 90
        0
 91
        1
 62
     0
 92
       -2
340
0
 93
        0
 40
1.125
309
GRIDFORMAT_END
 95
        8
302
GRIDFORMAT
  1
GRIDFORMAT_BEGIN
 90
        0
 91
        1
 62
     0
 92
       -2
340
0
 93
        0
 40
1.125
309
GRIDFORMAT_END
 95
       16
302
GRIDFORMAT
  1
GRIDFORMAT_BEGIN
 90
        0
 91
        1
 62
     0
 92
       -2
340
0
 93
        0
 40
1.125
309
GRIDFORMAT_END
 95
       32
302
GRIDFORMAT
  1
GRIDFORMAT_BEGIN
 90
        0
 91
        1
 62
     0
 92
       -2
340
0
 93
        0
 40
1.125
309
GRIDFORMAT_END
309
TABLEFORMAT_END
  1
CELLSTYLE_BEGIN
 90
        3
 91
        2
300
_DATA
309
CELLSTYLE_END
  0
ENDSEC
  0
SECTION
  2
ACDSDATA
 70
     2
 71
     8
  0
ACDSSCHEMA
 90
        0
  1
AcDb_Thumbnail_Schema
  2
AcDbDs::ID
280
    10
 91
        8
  2
Thumbnail_Data
280
    15
 91
        0
101
ACDSRECORD
 95
        0
 90
        1
  2
AcDbDs::TreatedAsObjectData
280
     1
291
     1
101
ACDSRECORD
 95
        0
 90
        2
  2
AcDbDs::Legacy
280
     1
291
     1
101
ACDSRECORD
  1
AcDbDs::ID
 90
        3
  2
AcDs:Indexable
280
     1
291
     1
101
ACDSRECORD
  1
AcDbDs::ID
 90
        4
  2
AcDbDs::HandleAttribute
280
     7
282
     1
  0
ACDSSCHEMA
 90
        1
  1
AcDbDs::TreatedAsObjectDataSchema
  2
AcDbDs::TreatedAsObjectData
280
     1
 91
        0
  0
ACDSSCHEMA
 90
        2
  1
AcDbDs::LegacySchema
  2
AcDbDs::Legacy
280
     1
 91
        0
  0
ACDSSCHEMA
 90
        3
  1
AcDbDs::IndexedPropertySchema
  2
AcDs:Indexable
280
     1
 91
        0
  0
ACDSSCHEMA
 90
        4
  1
AcDbDs::HandleAttributeSchema
  2
AcDbDs::HandleAttribute
280
     7
 91
        1
284
     1
  0
ACDSRECORD
 90
        0
  2
AcDbDs::ID
280
    10
320
4ED
  2
Thumbnail_Data
280
    15
 94
     1788
310
89504E470D0A1A0A0000000D49484452000001000000006E0803000000FF253DCA00000300504C5445212830FFFFFF2128300000000000000000000000000000000000000000000000000000330000660000990000CC0000FF0033000033330033660033990033CC0033FF0066000066330066660066990066CC0066FF0099
310
000099330099660099990099CC0099FF00CC0000CC3300CC6600CC9900CCCC00CCFF00FF0000FF3300FF6600FF9900FFCC00FFFF3300003300333300663300993300CC3300FF3333003333333333663333993333CC3333FF3366003366333366663366993366CC3366FF3399003399333399663399993399CC3399FF33CC00
310
33CC3333CC6633CC9933CCCC33CCFF33FF0033FF3333FF6633FF9933FFCC33FFFF6600006600336600666600996600CC6600FF6633006633336633666633996633CC6633FF6666006666336666666666996666CC6666FF6699006699336699666699996699CC6699FF66CC0066CC3366CC6666CC9966CCCC66CCFF66FF0066
310
FF3366FF6666FF9966FFCC66FFFF9900009900339900669900999900CC9900FF9933009933339933669933999933CC9933FF9966009966339966669966999966CC9966FF9999009999339999669999999999CC9999FF99CC0099CC3399CC6699CC9999CCCC99CCFF99FF0099FF3399FF6699FF9999FFCC99FFFFCC0000CC00
310
33CC0066CC0099CC00CCCC00FFCC3300CC3333CC3366CC3399CC33CCCC33FFCC6600CC6633CC6666CC6699CC66CCCC66FFCC9900CC9933CC9966CC9999CC99CCCC99FFCCCC00CCCC33CCCC66CCCC99CCCCCCCCCCFFCCFF00CCFF33CCFF66CCFF99CCFFCCCCFFFFFF0000FF0033FF0066FF0099FF00CCFF00FFFF3300FF3333
310
FF3366FF3399FF33CCFF33FFFF6600FF6633FF6666FF6699FF66CCFF66FFFF9900FF9933FF9966FF9999FF99CCFF99FFFFCC00FFCC33FFCC66FFCC99FFCCCCFFCCFFFFFF00FFFF33FFFF66FFFF99FFFFCCFFFFFF0000000D0D0D1A1A1A2828283535354343435050505D5D5D6B6B6B787878868686939393A1A1A1AEAEAEBB
310
BBBBC9C9C9D6D6D6E4E4E4F1F1F1FFFFFF0000000000000000000000000000000000000000000000000000000000002E4550F10000031D4944415478DAED5CD1962A210CEBFFFF6FDEEFC3EEAC52D20AC85C5B6C1ED6A32B0A9992B480235228140A8542A150B80F007FFC969183E0781ED4C87504343C9C79E99B910B0D7D
310
FEA6B366FDFAAB27CC80D1A1E2A428DF4640F8F901A5F0FB08504E81E0517E2939E8985C11FCFB08F562E3914832CDAF2B053534782E20E8D9EA9C238BCEB57361250266265358A1F7672E56DAA4733A47BBB1D2263A01331D9C52F4242288991ECE10A015326C0674730404CC875646FE46D60F09970FE10DEE3EF0A54540
310
1110C0FFDED680800460A14F0B040474C37281756B5E6A12765DE4FF6A80140145405583550DE68D80476537DB26BB06A89A56EF151E2F82461CF335E3235D805F6AC8B74480F15EDCF43545C0472A02DC4300E2EF8E4E142B5304AC2FBA7E28121C41BF0681A1971B6FC8766C826E0A5A616C9C118ABE1F3E53B8BF08633A
310
7D8E3831B472AC21FE51889540B8BBCD11E698C6F0E63500731A8071434D72E921B4FAEBDFFCF34FD526DBC8AFDE3F9BB89F26E9F840EBFF49F2003D444EC04022D435CD9109C28AE37D04C43F29F918B8EEFE24013D850F229214017FA360DE6E12C0DA2846F310D08EC2CD717474AB364909A096F66A4D90B4C947802D82
310
A3D52015C1040490C8DDE102DEE7475A29D362BDDB06F549EA70EE68A573BB6CB017CADFBF08523B7722D8AFEE8C124026512782688F8A4424E0F7323E3F183F10D4E59F7AE00488B0E701F380B6779E0B086F139E8026169F348BE601E2E401029E07B436D8867C00022C31DE550EFB5F142202DA9D80AB7BFBF2807607BD
310
5D310D44804ED8F6D92059208A1B01B7DBA0E42180DAE05039ECD9601E02B8A5B922386283F108A0A59CECB441710ACA18114057F3B7D9A0B7C3102B137CBE60DBCB6123882211A0E6F3461B6447E9A247009FB26304B8A292A718F2F6067D1B649955BE6AD0F8F5F8C8AA303C694C4480AD0CD6AA304894A723C0BD610E5E
310
804D10E3664B106933A2304B823E01060F8E445A07ABC32F8A0E38BD167A4322DD1C2AC94D77DE21E008800B1A15CE4309608707C60ED01CC9C06B2F38135F7C3F4126895F7847C942A15028140A8542A15028140A85423CFC034008DF82A47A96B60000000049454E44AE426082E5B07FE8980A0025B2C15F0E6B1ED200D0
310
A44640F38F0C4F1E48FB011300E2919D8E82030025CA92074168002821625EB1E62149165006381CD3A02B0FE4002C2E2A3CE3B00B0FEC0044B3A4B5D82B01387DF7A2950AE900D87DF681F5CD02370272AEC04690519F9EE4C1E1A8159E73A85E03E24D0F65656565656565656565656565657F00B17F1713C418F1B30000
310
000049454E44AE426082
  0
ENDSEC
  0
EOF
