<svg id="Слой_1" data-name="Слой 1" xmlns="http://www.w3.org/2000/svg" viewBox="0 0 400 400"><defs><style>.cls-1{fill:#fff;}</style></defs><title>Монтажная область 7 копия</title><rect class="cls-1" x="-15.06" y="-15.06" width="430.13" height="430.13"/><path d="M275.86,112.46H229.18V65.78L217.51,54.11h-35L170.82,65.78v46.68H124.14l-11.68,11.68V275.86l11.68,11.68h46.68v46.68l11.67,11.67h35l11.67-11.67V287.54h46.68l11.68-11.68V124.14ZM124.14,129l4.83-4.83h53.52V70.61l4.84-4.83h25.34l4.84,4.83v53.53H271l4.83,4.83v25.35L271,159.15H217.51v53.52l-4.84,4.84H187.33l-4.84-4.84V159.15H129l-4.83-4.83Zm35,146.89H129L124.14,271V170.82h46.68v105Zm53.52,58.36H187.33l-4.84-4.83V229.18h35V329.39ZM275.86,271,271,275.86H229.18v-105h46.68Z"/></svg>