<?xml version="1.0" encoding="utf-8"?>
<svg viewBox="0 0 500 500" xmlns="http://www.w3.org/2000/svg">
  <polygon points="310.03 302.597 252.34 335.897 194.64 302.597 194.64 359.287 139.95 327.707 139.95 271.017 83.26 238.287 83.26 183.897 139.95 216.627 139.95 159.937 194.64 191.517 194.64 248.207 252.34 281.517 310.03 248.207 310.03 191.517 364.72 159.937 364.72 216.627 421.42 183.897 421.42 238.287 364.72 271.017 364.72 327.707 310.03 359.287 310.03 302.597"/>
  <path d="M 363.73 161.667 L 363.73 218.357 L 366.73 216.627 L 420.42 185.627 L 420.42 237.697 L 364.73 269.857 L 363.73 270.437 L 363.73 327.127 L 311.03 357.547 L 311.03 300.857 L 308.03 302.587 L 252.39 334.747 L 196.7 302.587 L 193.7 300.857 L 193.7 357.547 L 141.01 327.127 L 141.01 270.447 L 140.01 269.867 L 84.31 237.707 L 84.31 185.627 L 138.01 216.627 L 141.01 218.357 L 141.01 161.667 L 193.7 192.087 L 193.7 248.787 L 194.7 249.357 L 251.39 282.087 L 252.39 282.667 L 253.39 282.087 L 310.08 249.357 L 311.08 248.787 L 311.08 192.087 L 363.78 161.667 M 365.78 158.207 L 309.08 190.937 L 309.08 247.627 L 252.39 280.357 L 195.7 247.627 L 195.7 190.937 L 139.01 158.207 L 139.01 214.897 L 82.31 182.167 L 82.31 238.857 L 139.01 271.587 L 139.01 328.277 L 195.7 361.017 L 195.7 304.317 L 252.39 337.047 L 309.08 304.317 L 309.08 361.017 L 365.78 328.277 L 365.78 271.587 L 422.39 238.857 L 422.39 182.167 L 365.7 214.897 L 365.7 158.207 Z"/>
</svg>