G04 #@! TF.GenerationSoftware,KiCad,Pcbnew,(5.1.2)-2*
G04 #@! TF.CreationDate,2020-03-06T16:15:23+08:00*
G04 #@! TF.ProjectId,cover,636f7665-722e-46b6-9963-61645f706362,rev?*
G04 #@! TF.SameCoordinates,Original*
G04 #@! TF.FileFunction,Soldermask,Bot*
G04 #@! TF.FilePolarity,Negative*
%FSLAX46Y46*%
G04 Gerber Fmt 4.6, Leading zero omitted, Abs format (unit mm)*
G04 Created by KiCad (PCBNEW (5.1.2)-2) date 2020-03-06 16:15:23*
%MOMM*%
%LPD*%
G04 APERTURE LIST*
%ADD10C,0.100000*%
G04 APERTURE END LIST*
D10*
G36*
X170510674Y-132729296D02*
G01*
X170883931Y-132883904D01*
X170883933Y-132883905D01*
X171219856Y-133108362D01*
X171505536Y-133394042D01*
X171729994Y-133729967D01*
X171884602Y-134103224D01*
X171963420Y-134499471D01*
X171963420Y-134903485D01*
X171884602Y-135299732D01*
X171729994Y-135672989D01*
X171729993Y-135672991D01*
X171505536Y-136008914D01*
X171219856Y-136294594D01*
X170883933Y-136519051D01*
X170883932Y-136519052D01*
X170883931Y-136519052D01*
X170510674Y-136673660D01*
X170114427Y-136752478D01*
X169710413Y-136752478D01*
X169314166Y-136673660D01*
X168940909Y-136519052D01*
X168940908Y-136519052D01*
X168940907Y-136519051D01*
X168604984Y-136294594D01*
X168319304Y-136008914D01*
X168094847Y-135672991D01*
X168094846Y-135672989D01*
X167940238Y-135299732D01*
X167861420Y-134903485D01*
X167861420Y-134499471D01*
X167940238Y-134103224D01*
X168094846Y-133729967D01*
X168319304Y-133394042D01*
X168604984Y-133108362D01*
X168940907Y-132883905D01*
X168940909Y-132883904D01*
X169314166Y-132729296D01*
X169710413Y-132650478D01*
X170114427Y-132650478D01*
X170510674Y-132729296D01*
X170510674Y-132729296D01*
G37*
G36*
X156510674Y-132729296D02*
G01*
X156883931Y-132883904D01*
X156883933Y-132883905D01*
X157219856Y-133108362D01*
X157505536Y-133394042D01*
X157729994Y-133729967D01*
X157884602Y-134103224D01*
X157963420Y-134499471D01*
X157963420Y-134903485D01*
X157884602Y-135299732D01*
X157729994Y-135672989D01*
X157729993Y-135672991D01*
X157505536Y-136008914D01*
X157219856Y-136294594D01*
X156883933Y-136519051D01*
X156883932Y-136519052D01*
X156883931Y-136519052D01*
X156510674Y-136673660D01*
X156114427Y-136752478D01*
X155710413Y-136752478D01*
X155314166Y-136673660D01*
X154940909Y-136519052D01*
X154940908Y-136519052D01*
X154940907Y-136519051D01*
X154604984Y-136294594D01*
X154319304Y-136008914D01*
X154094847Y-135672991D01*
X154094846Y-135672989D01*
X153940238Y-135299732D01*
X153861420Y-134903485D01*
X153861420Y-134499471D01*
X153940238Y-134103224D01*
X154094846Y-133729967D01*
X154319304Y-133394042D01*
X154604984Y-133108362D01*
X154940907Y-132883905D01*
X154940909Y-132883904D01*
X155314166Y-132729296D01*
X155710413Y-132650478D01*
X156114427Y-132650478D01*
X156510674Y-132729296D01*
X156510674Y-132729296D01*
G37*
M02*
