G04 #@! TF.GenerationSoftware,KiCad,Pcbnew,(5.1.5)-3*
G04 #@! TF.CreationDate,2020-03-09T16:33:39+08:00*
G04 #@! TF.ProjectId,cover,636f7665-722e-46b6-9963-61645f706362,rev?*
G04 #@! TF.SameCoordinates,Original*
G04 #@! TF.FileFunction,Soldermask,Bot*
G04 #@! TF.FilePolarity,Negative*
%FSLAX46Y46*%
G04 Gerber Fmt 4.6, Leading zero omitted, Abs format (unit mm)*
G04 Created by KiCad (PCBNEW (5.1.5)-3) date 2020-03-09 16:33:39*
%MOMM*%
%LPD*%
G04 APERTURE LIST*
%ADD10C,0.100000*%
G04 APERTURE END LIST*
D10*
G36*
X207590674Y-125229296D02*
G01*
X207963931Y-125383904D01*
X207963933Y-125383905D01*
X208299856Y-125608362D01*
X208585536Y-125894042D01*
X208809994Y-126229967D01*
X208964602Y-126603224D01*
X209043420Y-126999471D01*
X209043420Y-127403485D01*
X208964602Y-127799732D01*
X208809994Y-128172989D01*
X208809993Y-128172991D01*
X208585536Y-128508914D01*
X208299856Y-128794594D01*
X207963933Y-129019051D01*
X207963932Y-129019052D01*
X207963931Y-129019052D01*
X207590674Y-129173660D01*
X207194427Y-129252478D01*
X206790413Y-129252478D01*
X206394166Y-129173660D01*
X206020909Y-129019052D01*
X206020908Y-129019052D01*
X206020907Y-129019051D01*
X205684984Y-128794594D01*
X205399304Y-128508914D01*
X205174847Y-128172991D01*
X205174846Y-128172989D01*
X205020238Y-127799732D01*
X204941420Y-127403485D01*
X204941420Y-126999471D01*
X205020238Y-126603224D01*
X205174846Y-126229967D01*
X205399304Y-125894042D01*
X205684984Y-125608362D01*
X206020907Y-125383905D01*
X206020909Y-125383904D01*
X206394166Y-125229296D01*
X206790413Y-125150478D01*
X207194427Y-125150478D01*
X207590674Y-125229296D01*
G37*
G36*
X221590674Y-125229296D02*
G01*
X221963931Y-125383904D01*
X221963933Y-125383905D01*
X222299856Y-125608362D01*
X222585536Y-125894042D01*
X222809994Y-126229967D01*
X222964602Y-126603224D01*
X223043420Y-126999471D01*
X223043420Y-127403485D01*
X222964602Y-127799732D01*
X222809994Y-128172989D01*
X222809993Y-128172991D01*
X222585536Y-128508914D01*
X222299856Y-128794594D01*
X221963933Y-129019051D01*
X221963932Y-129019052D01*
X221963931Y-129019052D01*
X221590674Y-129173660D01*
X221194427Y-129252478D01*
X220790413Y-129252478D01*
X220394166Y-129173660D01*
X220020909Y-129019052D01*
X220020908Y-129019052D01*
X220020907Y-129019051D01*
X219684984Y-128794594D01*
X219399304Y-128508914D01*
X219174847Y-128172991D01*
X219174846Y-128172989D01*
X219020238Y-127799732D01*
X218941420Y-127403485D01*
X218941420Y-126999471D01*
X219020238Y-126603224D01*
X219174846Y-126229967D01*
X219399304Y-125894042D01*
X219684984Y-125608362D01*
X220020907Y-125383905D01*
X220020909Y-125383904D01*
X220394166Y-125229296D01*
X220790413Y-125150478D01*
X221194427Y-125150478D01*
X221590674Y-125229296D01*
G37*
G36*
X244855834Y-125229296D02*
G01*
X245229091Y-125383904D01*
X245229093Y-125383905D01*
X245565016Y-125608362D01*
X245850696Y-125894042D01*
X246075154Y-126229967D01*
X246229762Y-126603224D01*
X246308580Y-126999471D01*
X246308580Y-127403485D01*
X246229762Y-127799732D01*
X246075154Y-128172989D01*
X246075153Y-128172991D01*
X245850696Y-128508914D01*
X245565016Y-128794594D01*
X245229093Y-129019051D01*
X245229092Y-129019052D01*
X245229091Y-129019052D01*
X244855834Y-129173660D01*
X244459587Y-129252478D01*
X244055573Y-129252478D01*
X243659326Y-129173660D01*
X243286069Y-129019052D01*
X243286068Y-129019052D01*
X243286067Y-129019051D01*
X242950144Y-128794594D01*
X242664464Y-128508914D01*
X242440007Y-128172991D01*
X242440006Y-128172989D01*
X242285398Y-127799732D01*
X242206580Y-127403485D01*
X242206580Y-126999471D01*
X242285398Y-126603224D01*
X242440006Y-126229967D01*
X242664464Y-125894042D01*
X242950144Y-125608362D01*
X243286067Y-125383905D01*
X243286069Y-125383904D01*
X243659326Y-125229296D01*
X244055573Y-125150478D01*
X244459587Y-125150478D01*
X244855834Y-125229296D01*
G37*
G36*
X230855834Y-125229296D02*
G01*
X231229091Y-125383904D01*
X231229093Y-125383905D01*
X231565016Y-125608362D01*
X231850696Y-125894042D01*
X232075154Y-126229967D01*
X232229762Y-126603224D01*
X232308580Y-126999471D01*
X232308580Y-127403485D01*
X232229762Y-127799732D01*
X232075154Y-128172989D01*
X232075153Y-128172991D01*
X231850696Y-128508914D01*
X231565016Y-128794594D01*
X231229093Y-129019051D01*
X231229092Y-129019052D01*
X231229091Y-129019052D01*
X230855834Y-129173660D01*
X230459587Y-129252478D01*
X230055573Y-129252478D01*
X229659326Y-129173660D01*
X229286069Y-129019052D01*
X229286068Y-129019052D01*
X229286067Y-129019051D01*
X228950144Y-128794594D01*
X228664464Y-128508914D01*
X228440007Y-128172991D01*
X228440006Y-128172989D01*
X228285398Y-127799732D01*
X228206580Y-127403485D01*
X228206580Y-126999471D01*
X228285398Y-126603224D01*
X228440006Y-126229967D01*
X228664464Y-125894042D01*
X228950144Y-125608362D01*
X229286067Y-125383905D01*
X229286069Y-125383904D01*
X229659326Y-125229296D01*
X230055573Y-125150478D01*
X230459587Y-125150478D01*
X230855834Y-125229296D01*
G37*
G36*
X223631552Y-119136331D02*
G01*
X223713627Y-119170328D01*
X223713629Y-119170329D01*
X223750813Y-119195175D01*
X223787495Y-119219685D01*
X223850315Y-119282505D01*
X223899672Y-119356373D01*
X223933669Y-119438448D01*
X223951000Y-119525579D01*
X223951000Y-119614421D01*
X223933669Y-119701552D01*
X223899672Y-119783627D01*
X223899671Y-119783629D01*
X223850314Y-119857496D01*
X223787496Y-119920314D01*
X223713629Y-119969671D01*
X223713628Y-119969672D01*
X223713627Y-119969672D01*
X223631552Y-120003669D01*
X223544421Y-120021000D01*
X223455579Y-120021000D01*
X223368448Y-120003669D01*
X223286373Y-119969672D01*
X223286372Y-119969672D01*
X223286371Y-119969671D01*
X223212504Y-119920314D01*
X223149686Y-119857496D01*
X223100329Y-119783629D01*
X223100328Y-119783627D01*
X223066331Y-119701552D01*
X223049000Y-119614421D01*
X223049000Y-119525579D01*
X223066331Y-119438448D01*
X223100328Y-119356373D01*
X223149685Y-119282505D01*
X223212505Y-119219685D01*
X223249187Y-119195175D01*
X223286371Y-119170329D01*
X223286373Y-119170328D01*
X223368448Y-119136331D01*
X223455579Y-119119000D01*
X223544421Y-119119000D01*
X223631552Y-119136331D01*
G37*
G36*
X227871552Y-119136331D02*
G01*
X227953627Y-119170328D01*
X227953629Y-119170329D01*
X227990813Y-119195175D01*
X228027495Y-119219685D01*
X228090315Y-119282505D01*
X228139672Y-119356373D01*
X228173669Y-119438448D01*
X228191000Y-119525579D01*
X228191000Y-119614421D01*
X228173669Y-119701552D01*
X228139672Y-119783627D01*
X228139671Y-119783629D01*
X228090314Y-119857496D01*
X228027496Y-119920314D01*
X227953629Y-119969671D01*
X227953628Y-119969672D01*
X227953627Y-119969672D01*
X227871552Y-120003669D01*
X227784421Y-120021000D01*
X227695579Y-120021000D01*
X227608448Y-120003669D01*
X227526373Y-119969672D01*
X227526372Y-119969672D01*
X227526371Y-119969671D01*
X227452504Y-119920314D01*
X227389686Y-119857496D01*
X227340329Y-119783629D01*
X227340328Y-119783627D01*
X227306331Y-119701552D01*
X227289000Y-119614421D01*
X227289000Y-119525579D01*
X227306331Y-119438448D01*
X227340328Y-119356373D01*
X227389685Y-119282505D01*
X227452505Y-119219685D01*
X227489187Y-119195175D01*
X227526371Y-119170329D01*
X227526373Y-119170328D01*
X227608448Y-119136331D01*
X227695579Y-119119000D01*
X227784421Y-119119000D01*
X227871552Y-119136331D01*
G37*
G36*
X227861552Y-117866331D02*
G01*
X227943627Y-117900328D01*
X227943629Y-117900329D01*
X227980813Y-117925175D01*
X228017495Y-117949685D01*
X228080315Y-118012505D01*
X228129672Y-118086373D01*
X228163669Y-118168448D01*
X228181000Y-118255579D01*
X228181000Y-118344421D01*
X228163669Y-118431552D01*
X228129672Y-118513627D01*
X228129671Y-118513629D01*
X228080314Y-118587496D01*
X228017496Y-118650314D01*
X227943629Y-118699671D01*
X227943628Y-118699672D01*
X227943627Y-118699672D01*
X227861552Y-118733669D01*
X227774421Y-118751000D01*
X227685579Y-118751000D01*
X227598448Y-118733669D01*
X227516373Y-118699672D01*
X227516372Y-118699672D01*
X227516371Y-118699671D01*
X227442504Y-118650314D01*
X227379686Y-118587496D01*
X227330329Y-118513629D01*
X227330328Y-118513627D01*
X227296331Y-118431552D01*
X227279000Y-118344421D01*
X227279000Y-118255579D01*
X227296331Y-118168448D01*
X227330328Y-118086373D01*
X227379685Y-118012505D01*
X227442505Y-117949685D01*
X227479187Y-117925175D01*
X227516371Y-117900329D01*
X227516373Y-117900328D01*
X227598448Y-117866331D01*
X227685579Y-117849000D01*
X227774421Y-117849000D01*
X227861552Y-117866331D01*
G37*
G36*
X223621552Y-117866331D02*
G01*
X223703627Y-117900328D01*
X223703629Y-117900329D01*
X223740813Y-117925175D01*
X223777495Y-117949685D01*
X223840315Y-118012505D01*
X223889672Y-118086373D01*
X223923669Y-118168448D01*
X223941000Y-118255579D01*
X223941000Y-118344421D01*
X223923669Y-118431552D01*
X223889672Y-118513627D01*
X223889671Y-118513629D01*
X223840314Y-118587496D01*
X223777496Y-118650314D01*
X223703629Y-118699671D01*
X223703628Y-118699672D01*
X223703627Y-118699672D01*
X223621552Y-118733669D01*
X223534421Y-118751000D01*
X223445579Y-118751000D01*
X223358448Y-118733669D01*
X223276373Y-118699672D01*
X223276372Y-118699672D01*
X223276371Y-118699671D01*
X223202504Y-118650314D01*
X223139686Y-118587496D01*
X223090329Y-118513629D01*
X223090328Y-118513627D01*
X223056331Y-118431552D01*
X223039000Y-118344421D01*
X223039000Y-118255579D01*
X223056331Y-118168448D01*
X223090328Y-118086373D01*
X223139685Y-118012505D01*
X223202505Y-117949685D01*
X223239187Y-117925175D01*
X223276371Y-117900329D01*
X223276373Y-117900328D01*
X223358448Y-117866331D01*
X223445579Y-117849000D01*
X223534421Y-117849000D01*
X223621552Y-117866331D01*
G37*
G36*
X227861552Y-116646331D02*
G01*
X227943627Y-116680328D01*
X227943629Y-116680329D01*
X227980813Y-116705175D01*
X228017495Y-116729685D01*
X228080315Y-116792505D01*
X228129672Y-116866373D01*
X228163669Y-116948448D01*
X228181000Y-117035579D01*
X228181000Y-117124421D01*
X228163669Y-117211552D01*
X228129672Y-117293627D01*
X228129671Y-117293629D01*
X228080314Y-117367496D01*
X228017496Y-117430314D01*
X227943629Y-117479671D01*
X227943628Y-117479672D01*
X227943627Y-117479672D01*
X227861552Y-117513669D01*
X227774421Y-117531000D01*
X227685579Y-117531000D01*
X227598448Y-117513669D01*
X227516373Y-117479672D01*
X227516372Y-117479672D01*
X227516371Y-117479671D01*
X227442504Y-117430314D01*
X227379686Y-117367496D01*
X227330329Y-117293629D01*
X227330328Y-117293627D01*
X227296331Y-117211552D01*
X227279000Y-117124421D01*
X227279000Y-117035579D01*
X227296331Y-116948448D01*
X227330328Y-116866373D01*
X227379685Y-116792505D01*
X227442505Y-116729685D01*
X227479187Y-116705175D01*
X227516371Y-116680329D01*
X227516373Y-116680328D01*
X227598448Y-116646331D01*
X227685579Y-116629000D01*
X227774421Y-116629000D01*
X227861552Y-116646331D01*
G37*
G36*
X223621552Y-116646331D02*
G01*
X223703627Y-116680328D01*
X223703629Y-116680329D01*
X223740813Y-116705175D01*
X223777495Y-116729685D01*
X223840315Y-116792505D01*
X223889672Y-116866373D01*
X223923669Y-116948448D01*
X223941000Y-117035579D01*
X223941000Y-117124421D01*
X223923669Y-117211552D01*
X223889672Y-117293627D01*
X223889671Y-117293629D01*
X223840314Y-117367496D01*
X223777496Y-117430314D01*
X223703629Y-117479671D01*
X223703628Y-117479672D01*
X223703627Y-117479672D01*
X223621552Y-117513669D01*
X223534421Y-117531000D01*
X223445579Y-117531000D01*
X223358448Y-117513669D01*
X223276373Y-117479672D01*
X223276372Y-117479672D01*
X223276371Y-117479671D01*
X223202504Y-117430314D01*
X223139686Y-117367496D01*
X223090329Y-117293629D01*
X223090328Y-117293627D01*
X223056331Y-117211552D01*
X223039000Y-117124421D01*
X223039000Y-117035579D01*
X223056331Y-116948448D01*
X223090328Y-116866373D01*
X223139685Y-116792505D01*
X223202505Y-116729685D01*
X223239187Y-116705175D01*
X223276371Y-116680329D01*
X223276373Y-116680328D01*
X223358448Y-116646331D01*
X223445579Y-116629000D01*
X223534421Y-116629000D01*
X223621552Y-116646331D01*
G37*
G36*
X227871552Y-115386331D02*
G01*
X227953627Y-115420328D01*
X227953629Y-115420329D01*
X227990813Y-115445175D01*
X228027495Y-115469685D01*
X228090315Y-115532505D01*
X228139672Y-115606373D01*
X228173669Y-115688448D01*
X228191000Y-115775579D01*
X228191000Y-115864421D01*
X228173669Y-115951552D01*
X228139672Y-116033627D01*
X228139671Y-116033629D01*
X228090314Y-116107496D01*
X228027496Y-116170314D01*
X227953629Y-116219671D01*
X227953628Y-116219672D01*
X227953627Y-116219672D01*
X227871552Y-116253669D01*
X227784421Y-116271000D01*
X227695579Y-116271000D01*
X227608448Y-116253669D01*
X227526373Y-116219672D01*
X227526372Y-116219672D01*
X227526371Y-116219671D01*
X227452504Y-116170314D01*
X227389686Y-116107496D01*
X227340329Y-116033629D01*
X227340328Y-116033627D01*
X227306331Y-115951552D01*
X227289000Y-115864421D01*
X227289000Y-115775579D01*
X227306331Y-115688448D01*
X227340328Y-115606373D01*
X227389685Y-115532505D01*
X227452505Y-115469685D01*
X227489187Y-115445175D01*
X227526371Y-115420329D01*
X227526373Y-115420328D01*
X227608448Y-115386331D01*
X227695579Y-115369000D01*
X227784421Y-115369000D01*
X227871552Y-115386331D01*
G37*
G36*
X223631552Y-115386331D02*
G01*
X223713627Y-115420328D01*
X223713629Y-115420329D01*
X223750813Y-115445175D01*
X223787495Y-115469685D01*
X223850315Y-115532505D01*
X223899672Y-115606373D01*
X223933669Y-115688448D01*
X223951000Y-115775579D01*
X223951000Y-115864421D01*
X223933669Y-115951552D01*
X223899672Y-116033627D01*
X223899671Y-116033629D01*
X223850314Y-116107496D01*
X223787496Y-116170314D01*
X223713629Y-116219671D01*
X223713628Y-116219672D01*
X223713627Y-116219672D01*
X223631552Y-116253669D01*
X223544421Y-116271000D01*
X223455579Y-116271000D01*
X223368448Y-116253669D01*
X223286373Y-116219672D01*
X223286372Y-116219672D01*
X223286371Y-116219671D01*
X223212504Y-116170314D01*
X223149686Y-116107496D01*
X223100329Y-116033629D01*
X223100328Y-116033627D01*
X223066331Y-115951552D01*
X223049000Y-115864421D01*
X223049000Y-115775579D01*
X223066331Y-115688448D01*
X223100328Y-115606373D01*
X223149685Y-115532505D01*
X223212505Y-115469685D01*
X223249187Y-115445175D01*
X223286371Y-115420329D01*
X223286373Y-115420328D01*
X223368448Y-115386331D01*
X223455579Y-115369000D01*
X223544421Y-115369000D01*
X223631552Y-115386331D01*
G37*
G36*
X223621552Y-88446331D02*
G01*
X223703627Y-88480328D01*
X223703629Y-88480329D01*
X223740813Y-88505175D01*
X223777495Y-88529685D01*
X223840315Y-88592505D01*
X223889672Y-88666373D01*
X223923669Y-88748448D01*
X223941000Y-88835579D01*
X223941000Y-88924421D01*
X223923669Y-89011552D01*
X223889672Y-89093627D01*
X223889671Y-89093629D01*
X223840314Y-89167496D01*
X223777496Y-89230314D01*
X223703629Y-89279671D01*
X223703628Y-89279672D01*
X223703627Y-89279672D01*
X223621552Y-89313669D01*
X223534421Y-89331000D01*
X223445579Y-89331000D01*
X223358448Y-89313669D01*
X223276373Y-89279672D01*
X223276372Y-89279672D01*
X223276371Y-89279671D01*
X223202504Y-89230314D01*
X223139686Y-89167496D01*
X223090329Y-89093629D01*
X223090328Y-89093627D01*
X223056331Y-89011552D01*
X223039000Y-88924421D01*
X223039000Y-88835579D01*
X223056331Y-88748448D01*
X223090328Y-88666373D01*
X223139685Y-88592505D01*
X223202505Y-88529685D01*
X223239187Y-88505175D01*
X223276371Y-88480329D01*
X223276373Y-88480328D01*
X223358448Y-88446331D01*
X223445579Y-88429000D01*
X223534421Y-88429000D01*
X223621552Y-88446331D01*
G37*
G36*
X227881552Y-88446331D02*
G01*
X227963627Y-88480328D01*
X227963629Y-88480329D01*
X228000813Y-88505175D01*
X228037495Y-88529685D01*
X228100315Y-88592505D01*
X228149672Y-88666373D01*
X228183669Y-88748448D01*
X228201000Y-88835579D01*
X228201000Y-88924421D01*
X228183669Y-89011552D01*
X228149672Y-89093627D01*
X228149671Y-89093629D01*
X228100314Y-89167496D01*
X228037496Y-89230314D01*
X227963629Y-89279671D01*
X227963628Y-89279672D01*
X227963627Y-89279672D01*
X227881552Y-89313669D01*
X227794421Y-89331000D01*
X227705579Y-89331000D01*
X227618448Y-89313669D01*
X227536373Y-89279672D01*
X227536372Y-89279672D01*
X227536371Y-89279671D01*
X227462504Y-89230314D01*
X227399686Y-89167496D01*
X227350329Y-89093629D01*
X227350328Y-89093627D01*
X227316331Y-89011552D01*
X227299000Y-88924421D01*
X227299000Y-88835579D01*
X227316331Y-88748448D01*
X227350328Y-88666373D01*
X227399685Y-88592505D01*
X227462505Y-88529685D01*
X227499187Y-88505175D01*
X227536371Y-88480329D01*
X227536373Y-88480328D01*
X227618448Y-88446331D01*
X227705579Y-88429000D01*
X227794421Y-88429000D01*
X227881552Y-88446331D01*
G37*
G36*
X223611552Y-87176331D02*
G01*
X223693627Y-87210328D01*
X223693629Y-87210329D01*
X223730813Y-87235175D01*
X223767495Y-87259685D01*
X223830315Y-87322505D01*
X223879672Y-87396373D01*
X223913669Y-87478448D01*
X223931000Y-87565579D01*
X223931000Y-87654421D01*
X223913669Y-87741552D01*
X223879672Y-87823627D01*
X223879671Y-87823629D01*
X223830314Y-87897496D01*
X223767496Y-87960314D01*
X223693629Y-88009671D01*
X223693628Y-88009672D01*
X223693627Y-88009672D01*
X223611552Y-88043669D01*
X223524421Y-88061000D01*
X223435579Y-88061000D01*
X223348448Y-88043669D01*
X223266373Y-88009672D01*
X223266372Y-88009672D01*
X223266371Y-88009671D01*
X223192504Y-87960314D01*
X223129686Y-87897496D01*
X223080329Y-87823629D01*
X223080328Y-87823627D01*
X223046331Y-87741552D01*
X223029000Y-87654421D01*
X223029000Y-87565579D01*
X223046331Y-87478448D01*
X223080328Y-87396373D01*
X223129685Y-87322505D01*
X223192505Y-87259685D01*
X223229187Y-87235175D01*
X223266371Y-87210329D01*
X223266373Y-87210328D01*
X223348448Y-87176331D01*
X223435579Y-87159000D01*
X223524421Y-87159000D01*
X223611552Y-87176331D01*
G37*
G36*
X227871552Y-87176331D02*
G01*
X227953627Y-87210328D01*
X227953629Y-87210329D01*
X227990813Y-87235175D01*
X228027495Y-87259685D01*
X228090315Y-87322505D01*
X228139672Y-87396373D01*
X228173669Y-87478448D01*
X228191000Y-87565579D01*
X228191000Y-87654421D01*
X228173669Y-87741552D01*
X228139672Y-87823627D01*
X228139671Y-87823629D01*
X228090314Y-87897496D01*
X228027496Y-87960314D01*
X227953629Y-88009671D01*
X227953628Y-88009672D01*
X227953627Y-88009672D01*
X227871552Y-88043669D01*
X227784421Y-88061000D01*
X227695579Y-88061000D01*
X227608448Y-88043669D01*
X227526373Y-88009672D01*
X227526372Y-88009672D01*
X227526371Y-88009671D01*
X227452504Y-87960314D01*
X227389686Y-87897496D01*
X227340329Y-87823629D01*
X227340328Y-87823627D01*
X227306331Y-87741552D01*
X227289000Y-87654421D01*
X227289000Y-87565579D01*
X227306331Y-87478448D01*
X227340328Y-87396373D01*
X227389685Y-87322505D01*
X227452505Y-87259685D01*
X227489187Y-87235175D01*
X227526371Y-87210329D01*
X227526373Y-87210328D01*
X227608448Y-87176331D01*
X227695579Y-87159000D01*
X227784421Y-87159000D01*
X227871552Y-87176331D01*
G37*
G36*
X223611552Y-85956331D02*
G01*
X223693627Y-85990328D01*
X223693629Y-85990329D01*
X223730813Y-86015175D01*
X223767495Y-86039685D01*
X223830315Y-86102505D01*
X223879672Y-86176373D01*
X223913669Y-86258448D01*
X223931000Y-86345579D01*
X223931000Y-86434421D01*
X223913669Y-86521552D01*
X223879672Y-86603627D01*
X223879671Y-86603629D01*
X223830314Y-86677496D01*
X223767496Y-86740314D01*
X223693629Y-86789671D01*
X223693628Y-86789672D01*
X223693627Y-86789672D01*
X223611552Y-86823669D01*
X223524421Y-86841000D01*
X223435579Y-86841000D01*
X223348448Y-86823669D01*
X223266373Y-86789672D01*
X223266372Y-86789672D01*
X223266371Y-86789671D01*
X223192504Y-86740314D01*
X223129686Y-86677496D01*
X223080329Y-86603629D01*
X223080328Y-86603627D01*
X223046331Y-86521552D01*
X223029000Y-86434421D01*
X223029000Y-86345579D01*
X223046331Y-86258448D01*
X223080328Y-86176373D01*
X223129685Y-86102505D01*
X223192505Y-86039685D01*
X223229187Y-86015175D01*
X223266371Y-85990329D01*
X223266373Y-85990328D01*
X223348448Y-85956331D01*
X223435579Y-85939000D01*
X223524421Y-85939000D01*
X223611552Y-85956331D01*
G37*
G36*
X227871552Y-85956331D02*
G01*
X227953627Y-85990328D01*
X227953629Y-85990329D01*
X227990813Y-86015175D01*
X228027495Y-86039685D01*
X228090315Y-86102505D01*
X228139672Y-86176373D01*
X228173669Y-86258448D01*
X228191000Y-86345579D01*
X228191000Y-86434421D01*
X228173669Y-86521552D01*
X228139672Y-86603627D01*
X228139671Y-86603629D01*
X228090314Y-86677496D01*
X228027496Y-86740314D01*
X227953629Y-86789671D01*
X227953628Y-86789672D01*
X227953627Y-86789672D01*
X227871552Y-86823669D01*
X227784421Y-86841000D01*
X227695579Y-86841000D01*
X227608448Y-86823669D01*
X227526373Y-86789672D01*
X227526372Y-86789672D01*
X227526371Y-86789671D01*
X227452504Y-86740314D01*
X227389686Y-86677496D01*
X227340329Y-86603629D01*
X227340328Y-86603627D01*
X227306331Y-86521552D01*
X227289000Y-86434421D01*
X227289000Y-86345579D01*
X227306331Y-86258448D01*
X227340328Y-86176373D01*
X227389685Y-86102505D01*
X227452505Y-86039685D01*
X227489187Y-86015175D01*
X227526371Y-85990329D01*
X227526373Y-85990328D01*
X227608448Y-85956331D01*
X227695579Y-85939000D01*
X227784421Y-85939000D01*
X227871552Y-85956331D01*
G37*
G36*
X223621552Y-84696331D02*
G01*
X223703627Y-84730328D01*
X223703629Y-84730329D01*
X223740813Y-84755175D01*
X223777495Y-84779685D01*
X223840315Y-84842505D01*
X223889672Y-84916373D01*
X223923669Y-84998448D01*
X223941000Y-85085579D01*
X223941000Y-85174421D01*
X223923669Y-85261552D01*
X223889672Y-85343627D01*
X223889671Y-85343629D01*
X223840314Y-85417496D01*
X223777496Y-85480314D01*
X223703629Y-85529671D01*
X223703628Y-85529672D01*
X223703627Y-85529672D01*
X223621552Y-85563669D01*
X223534421Y-85581000D01*
X223445579Y-85581000D01*
X223358448Y-85563669D01*
X223276373Y-85529672D01*
X223276372Y-85529672D01*
X223276371Y-85529671D01*
X223202504Y-85480314D01*
X223139686Y-85417496D01*
X223090329Y-85343629D01*
X223090328Y-85343627D01*
X223056331Y-85261552D01*
X223039000Y-85174421D01*
X223039000Y-85085579D01*
X223056331Y-84998448D01*
X223090328Y-84916373D01*
X223139685Y-84842505D01*
X223202505Y-84779685D01*
X223239187Y-84755175D01*
X223276371Y-84730329D01*
X223276373Y-84730328D01*
X223358448Y-84696331D01*
X223445579Y-84679000D01*
X223534421Y-84679000D01*
X223621552Y-84696331D01*
G37*
G36*
X227881552Y-84696331D02*
G01*
X227963627Y-84730328D01*
X227963629Y-84730329D01*
X228000813Y-84755175D01*
X228037495Y-84779685D01*
X228100315Y-84842505D01*
X228149672Y-84916373D01*
X228183669Y-84998448D01*
X228201000Y-85085579D01*
X228201000Y-85174421D01*
X228183669Y-85261552D01*
X228149672Y-85343627D01*
X228149671Y-85343629D01*
X228100314Y-85417496D01*
X228037496Y-85480314D01*
X227963629Y-85529671D01*
X227963628Y-85529672D01*
X227963627Y-85529672D01*
X227881552Y-85563669D01*
X227794421Y-85581000D01*
X227705579Y-85581000D01*
X227618448Y-85563669D01*
X227536373Y-85529672D01*
X227536372Y-85529672D01*
X227536371Y-85529671D01*
X227462504Y-85480314D01*
X227399686Y-85417496D01*
X227350329Y-85343629D01*
X227350328Y-85343627D01*
X227316331Y-85261552D01*
X227299000Y-85174421D01*
X227299000Y-85085579D01*
X227316331Y-84998448D01*
X227350328Y-84916373D01*
X227399685Y-84842505D01*
X227462505Y-84779685D01*
X227499187Y-84755175D01*
X227536371Y-84730329D01*
X227536373Y-84730328D01*
X227618448Y-84696331D01*
X227705579Y-84679000D01*
X227794421Y-84679000D01*
X227881552Y-84696331D01*
G37*
M02*
