G04 #@! TF.GenerationSoftware,KiCad,Pcbnew,(5.1.5)-3*
G04 #@! TF.CreationDate,2020-03-09T16:33:39+08:00*
G04 #@! TF.ProjectId,cover,636f7665-722e-46b6-9963-61645f706362,rev?*
G04 #@! TF.SameCoordinates,Original*
G04 #@! TF.FileFunction,Copper,L2,Bot*
G04 #@! TF.FilePolarity,Positive*
%FSLAX46Y46*%
G04 Gerber Fmt 4.6, Leading zero omitted, Abs format (unit mm)*
G04 Created by KiCad (PCBNEW (5.1.5)-3) date 2020-03-09 16:33:39*
%MOMM*%
%LPD*%
G04 APERTURE LIST*
%ADD10C,4.000000*%
%ADD11C,0.254000*%
G04 APERTURE END LIST*
D10*
X230257580Y-127201478D03*
X244257580Y-127201478D03*
X220992420Y-127201478D03*
X206992420Y-127201478D03*
D11*
G36*
X222832420Y-129541478D02*
G01*
X222228748Y-129541478D01*
X222240561Y-129536585D01*
X222672135Y-129248216D01*
X222832420Y-129087931D01*
X222832420Y-129541478D01*
G37*
X222832420Y-129541478D02*
X222228748Y-129541478D01*
X222240561Y-129536585D01*
X222672135Y-129248216D01*
X222832420Y-129087931D01*
X222832420Y-129541478D01*
G36*
X205312705Y-129248216D02*
G01*
X205744279Y-129536585D01*
X205756092Y-129541478D01*
X205474699Y-129541478D01*
X205376996Y-129531898D01*
X205314063Y-129512898D01*
X205256014Y-129482032D01*
X205205077Y-129440489D01*
X205163172Y-129389834D01*
X205131905Y-129332007D01*
X205112464Y-129269206D01*
X205102420Y-129173643D01*
X205102420Y-129037931D01*
X205312705Y-129248216D01*
G37*
X205312705Y-129248216D02*
X205744279Y-129536585D01*
X205756092Y-129541478D01*
X205474699Y-129541478D01*
X205376996Y-129531898D01*
X205314063Y-129512898D01*
X205256014Y-129482032D01*
X205205077Y-129440489D01*
X205163172Y-129389834D01*
X205131905Y-129332007D01*
X205112464Y-129269206D01*
X205102420Y-129173643D01*
X205102420Y-129037931D01*
X205312705Y-129248216D01*
G36*
X246142420Y-129169199D02*
G01*
X246132840Y-129266902D01*
X246113840Y-129329835D01*
X246082974Y-129387884D01*
X246041431Y-129438821D01*
X245990776Y-129480726D01*
X245932949Y-129511993D01*
X245870148Y-129531434D01*
X245774585Y-129541478D01*
X245493908Y-129541478D01*
X245505721Y-129536585D01*
X245937295Y-129248216D01*
X246142420Y-129043091D01*
X246142420Y-129169199D01*
G37*
X246142420Y-129169199D02*
X246132840Y-129266902D01*
X246113840Y-129329835D01*
X246082974Y-129387884D01*
X246041431Y-129438821D01*
X245990776Y-129480726D01*
X245932949Y-129511993D01*
X245870148Y-129531434D01*
X245774585Y-129541478D01*
X245493908Y-129541478D01*
X245505721Y-129536585D01*
X245937295Y-129248216D01*
X246142420Y-129043091D01*
X246142420Y-129169199D01*
G36*
X246142420Y-125359865D02*
G01*
X245937295Y-125154740D01*
X245505721Y-124866371D01*
X245026181Y-124667739D01*
X244517105Y-124566478D01*
X243998055Y-124566478D01*
X243488979Y-124667739D01*
X243009439Y-124866371D01*
X242577865Y-125154740D01*
X242210842Y-125521763D01*
X241922473Y-125953337D01*
X241723841Y-126432877D01*
X241622580Y-126941953D01*
X241622580Y-127461003D01*
X241723841Y-127970079D01*
X241922473Y-128449619D01*
X242210842Y-128881193D01*
X242577865Y-129248216D01*
X243009439Y-129536585D01*
X243021252Y-129541478D01*
X231493908Y-129541478D01*
X231505721Y-129536585D01*
X231937295Y-129248216D01*
X232304318Y-128881193D01*
X232592687Y-128449619D01*
X232791319Y-127970079D01*
X232892580Y-127461003D01*
X232892580Y-126941953D01*
X232791319Y-126432877D01*
X232592687Y-125953337D01*
X232304318Y-125521763D01*
X231937295Y-125154740D01*
X231505721Y-124866371D01*
X231026181Y-124667739D01*
X230517105Y-124566478D01*
X229998055Y-124566478D01*
X229488979Y-124667739D01*
X229009439Y-124866371D01*
X228577865Y-125154740D01*
X228412420Y-125320185D01*
X228412420Y-120361291D01*
X228543937Y-120229774D01*
X228657205Y-120060256D01*
X228735226Y-119871898D01*
X228775000Y-119671939D01*
X228775000Y-119468061D01*
X228735226Y-119268102D01*
X228657205Y-119079744D01*
X228555490Y-118927517D01*
X228647205Y-118790256D01*
X228725226Y-118601898D01*
X228765000Y-118401939D01*
X228765000Y-118198061D01*
X228725226Y-117998102D01*
X228647205Y-117809744D01*
X228567195Y-117690000D01*
X228647205Y-117570256D01*
X228725226Y-117381898D01*
X228765000Y-117181939D01*
X228765000Y-116978061D01*
X228725226Y-116778102D01*
X228647205Y-116589744D01*
X228558831Y-116457483D01*
X228657205Y-116310256D01*
X228735226Y-116121898D01*
X228775000Y-115921939D01*
X228775000Y-115718061D01*
X228735226Y-115518102D01*
X228657205Y-115329744D01*
X228543937Y-115160226D01*
X228412420Y-115028709D01*
X228412420Y-89681291D01*
X228553937Y-89539774D01*
X228667205Y-89370256D01*
X228745226Y-89181898D01*
X228785000Y-88981939D01*
X228785000Y-88778061D01*
X228745226Y-88578102D01*
X228667205Y-88389744D01*
X228565490Y-88237517D01*
X228657205Y-88100256D01*
X228735226Y-87911898D01*
X228775000Y-87711939D01*
X228775000Y-87508061D01*
X228735226Y-87308102D01*
X228657205Y-87119744D01*
X228577195Y-87000000D01*
X228657205Y-86880256D01*
X228735226Y-86691898D01*
X228775000Y-86491939D01*
X228775000Y-86288061D01*
X228735226Y-86088102D01*
X228657205Y-85899744D01*
X228568831Y-85767483D01*
X228667205Y-85620256D01*
X228745226Y-85431898D01*
X228785000Y-85231939D01*
X228785000Y-85028061D01*
X228745226Y-84828102D01*
X228667205Y-84639744D01*
X228553937Y-84470226D01*
X228412420Y-84328709D01*
X228412420Y-74533757D01*
X228422000Y-74436054D01*
X228441000Y-74373122D01*
X228471865Y-74315073D01*
X228513409Y-74264135D01*
X228564064Y-74222230D01*
X228621891Y-74190963D01*
X228684692Y-74171522D01*
X228780255Y-74161478D01*
X246142421Y-74161478D01*
X246142420Y-125359865D01*
G37*
X246142420Y-125359865D02*
X245937295Y-125154740D01*
X245505721Y-124866371D01*
X245026181Y-124667739D01*
X244517105Y-124566478D01*
X243998055Y-124566478D01*
X243488979Y-124667739D01*
X243009439Y-124866371D01*
X242577865Y-125154740D01*
X242210842Y-125521763D01*
X241922473Y-125953337D01*
X241723841Y-126432877D01*
X241622580Y-126941953D01*
X241622580Y-127461003D01*
X241723841Y-127970079D01*
X241922473Y-128449619D01*
X242210842Y-128881193D01*
X242577865Y-129248216D01*
X243009439Y-129536585D01*
X243021252Y-129541478D01*
X231493908Y-129541478D01*
X231505721Y-129536585D01*
X231937295Y-129248216D01*
X232304318Y-128881193D01*
X232592687Y-128449619D01*
X232791319Y-127970079D01*
X232892580Y-127461003D01*
X232892580Y-126941953D01*
X232791319Y-126432877D01*
X232592687Y-125953337D01*
X232304318Y-125521763D01*
X231937295Y-125154740D01*
X231505721Y-124866371D01*
X231026181Y-124667739D01*
X230517105Y-124566478D01*
X229998055Y-124566478D01*
X229488979Y-124667739D01*
X229009439Y-124866371D01*
X228577865Y-125154740D01*
X228412420Y-125320185D01*
X228412420Y-120361291D01*
X228543937Y-120229774D01*
X228657205Y-120060256D01*
X228735226Y-119871898D01*
X228775000Y-119671939D01*
X228775000Y-119468061D01*
X228735226Y-119268102D01*
X228657205Y-119079744D01*
X228555490Y-118927517D01*
X228647205Y-118790256D01*
X228725226Y-118601898D01*
X228765000Y-118401939D01*
X228765000Y-118198061D01*
X228725226Y-117998102D01*
X228647205Y-117809744D01*
X228567195Y-117690000D01*
X228647205Y-117570256D01*
X228725226Y-117381898D01*
X228765000Y-117181939D01*
X228765000Y-116978061D01*
X228725226Y-116778102D01*
X228647205Y-116589744D01*
X228558831Y-116457483D01*
X228657205Y-116310256D01*
X228735226Y-116121898D01*
X228775000Y-115921939D01*
X228775000Y-115718061D01*
X228735226Y-115518102D01*
X228657205Y-115329744D01*
X228543937Y-115160226D01*
X228412420Y-115028709D01*
X228412420Y-89681291D01*
X228553937Y-89539774D01*
X228667205Y-89370256D01*
X228745226Y-89181898D01*
X228785000Y-88981939D01*
X228785000Y-88778061D01*
X228745226Y-88578102D01*
X228667205Y-88389744D01*
X228565490Y-88237517D01*
X228657205Y-88100256D01*
X228735226Y-87911898D01*
X228775000Y-87711939D01*
X228775000Y-87508061D01*
X228735226Y-87308102D01*
X228657205Y-87119744D01*
X228577195Y-87000000D01*
X228657205Y-86880256D01*
X228735226Y-86691898D01*
X228775000Y-86491939D01*
X228775000Y-86288061D01*
X228735226Y-86088102D01*
X228657205Y-85899744D01*
X228568831Y-85767483D01*
X228667205Y-85620256D01*
X228745226Y-85431898D01*
X228785000Y-85231939D01*
X228785000Y-85028061D01*
X228745226Y-84828102D01*
X228667205Y-84639744D01*
X228553937Y-84470226D01*
X228412420Y-84328709D01*
X228412420Y-74533757D01*
X228422000Y-74436054D01*
X228441000Y-74373122D01*
X228471865Y-74315073D01*
X228513409Y-74264135D01*
X228564064Y-74222230D01*
X228621891Y-74190963D01*
X228684692Y-74171522D01*
X228780255Y-74161478D01*
X246142421Y-74161478D01*
X246142420Y-125359865D01*
G36*
X228577865Y-129248216D02*
G01*
X229009439Y-129536585D01*
X229021252Y-129541478D01*
X228412420Y-129541478D01*
X228412420Y-129082771D01*
X228577865Y-129248216D01*
G37*
X228577865Y-129248216D02*
X229009439Y-129536585D01*
X229021252Y-129541478D01*
X228412420Y-129541478D01*
X228412420Y-129082771D01*
X228577865Y-129248216D01*
G36*
X222557844Y-74171058D02*
G01*
X222620776Y-74190058D01*
X222678825Y-74220923D01*
X222729763Y-74262467D01*
X222771668Y-74313122D01*
X222802935Y-74370949D01*
X222822376Y-74433750D01*
X222832420Y-74529313D01*
X222832421Y-84324596D01*
X222830226Y-84326063D01*
X222686063Y-84470226D01*
X222572795Y-84639744D01*
X222494774Y-84828102D01*
X222455000Y-85028061D01*
X222455000Y-85231939D01*
X222494774Y-85431898D01*
X222572795Y-85620256D01*
X222661169Y-85752517D01*
X222562795Y-85899744D01*
X222484774Y-86088102D01*
X222445000Y-86288061D01*
X222445000Y-86491939D01*
X222484774Y-86691898D01*
X222562795Y-86880256D01*
X222642805Y-87000000D01*
X222562795Y-87119744D01*
X222484774Y-87308102D01*
X222445000Y-87508061D01*
X222445000Y-87711939D01*
X222484774Y-87911898D01*
X222562795Y-88100256D01*
X222664510Y-88252483D01*
X222572795Y-88389744D01*
X222494774Y-88578102D01*
X222455000Y-88778061D01*
X222455000Y-88981939D01*
X222494774Y-89181898D01*
X222572795Y-89370256D01*
X222686063Y-89539774D01*
X222830226Y-89683937D01*
X222832420Y-89685403D01*
X222832421Y-115023868D01*
X222696063Y-115160226D01*
X222582795Y-115329744D01*
X222504774Y-115518102D01*
X222465000Y-115718061D01*
X222465000Y-115921939D01*
X222504774Y-116121898D01*
X222582795Y-116310256D01*
X222671169Y-116442517D01*
X222572795Y-116589744D01*
X222494774Y-116778102D01*
X222455000Y-116978061D01*
X222455000Y-117181939D01*
X222494774Y-117381898D01*
X222572795Y-117570256D01*
X222652805Y-117690000D01*
X222572795Y-117809744D01*
X222494774Y-117998102D01*
X222455000Y-118198061D01*
X222455000Y-118401939D01*
X222494774Y-118601898D01*
X222572795Y-118790256D01*
X222674510Y-118942483D01*
X222582795Y-119079744D01*
X222504774Y-119268102D01*
X222465000Y-119468061D01*
X222465000Y-119671939D01*
X222504774Y-119871898D01*
X222582795Y-120060256D01*
X222696063Y-120229774D01*
X222832421Y-120366132D01*
X222832420Y-125315025D01*
X222672135Y-125154740D01*
X222240561Y-124866371D01*
X221761021Y-124667739D01*
X221251945Y-124566478D01*
X220732895Y-124566478D01*
X220223819Y-124667739D01*
X219744279Y-124866371D01*
X219312705Y-125154740D01*
X218945682Y-125521763D01*
X218657313Y-125953337D01*
X218458681Y-126432877D01*
X218357420Y-126941953D01*
X218357420Y-127461003D01*
X218458681Y-127970079D01*
X218657313Y-128449619D01*
X218945682Y-128881193D01*
X219312705Y-129248216D01*
X219744279Y-129536585D01*
X219756092Y-129541478D01*
X208228748Y-129541478D01*
X208240561Y-129536585D01*
X208672135Y-129248216D01*
X209039158Y-128881193D01*
X209327527Y-128449619D01*
X209526159Y-127970079D01*
X209627420Y-127461003D01*
X209627420Y-126941953D01*
X209526159Y-126432877D01*
X209327527Y-125953337D01*
X209039158Y-125521763D01*
X208672135Y-125154740D01*
X208240561Y-124866371D01*
X207761021Y-124667739D01*
X207251945Y-124566478D01*
X206732895Y-124566478D01*
X206223819Y-124667739D01*
X205744279Y-124866371D01*
X205312705Y-125154740D01*
X205102420Y-125365025D01*
X205102420Y-74161478D01*
X222460141Y-74161478D01*
X222557844Y-74171058D01*
G37*
X222557844Y-74171058D02*
X222620776Y-74190058D01*
X222678825Y-74220923D01*
X222729763Y-74262467D01*
X222771668Y-74313122D01*
X222802935Y-74370949D01*
X222822376Y-74433750D01*
X222832420Y-74529313D01*
X222832421Y-84324596D01*
X222830226Y-84326063D01*
X222686063Y-84470226D01*
X222572795Y-84639744D01*
X222494774Y-84828102D01*
X222455000Y-85028061D01*
X222455000Y-85231939D01*
X222494774Y-85431898D01*
X222572795Y-85620256D01*
X222661169Y-85752517D01*
X222562795Y-85899744D01*
X222484774Y-86088102D01*
X222445000Y-86288061D01*
X222445000Y-86491939D01*
X222484774Y-86691898D01*
X222562795Y-86880256D01*
X222642805Y-87000000D01*
X222562795Y-87119744D01*
X222484774Y-87308102D01*
X222445000Y-87508061D01*
X222445000Y-87711939D01*
X222484774Y-87911898D01*
X222562795Y-88100256D01*
X222664510Y-88252483D01*
X222572795Y-88389744D01*
X222494774Y-88578102D01*
X222455000Y-88778061D01*
X222455000Y-88981939D01*
X222494774Y-89181898D01*
X222572795Y-89370256D01*
X222686063Y-89539774D01*
X222830226Y-89683937D01*
X222832420Y-89685403D01*
X222832421Y-115023868D01*
X222696063Y-115160226D01*
X222582795Y-115329744D01*
X222504774Y-115518102D01*
X222465000Y-115718061D01*
X222465000Y-115921939D01*
X222504774Y-116121898D01*
X222582795Y-116310256D01*
X222671169Y-116442517D01*
X222572795Y-116589744D01*
X222494774Y-116778102D01*
X222455000Y-116978061D01*
X222455000Y-117181939D01*
X222494774Y-117381898D01*
X222572795Y-117570256D01*
X222652805Y-117690000D01*
X222572795Y-117809744D01*
X222494774Y-117998102D01*
X222455000Y-118198061D01*
X222455000Y-118401939D01*
X222494774Y-118601898D01*
X222572795Y-118790256D01*
X222674510Y-118942483D01*
X222582795Y-119079744D01*
X222504774Y-119268102D01*
X222465000Y-119468061D01*
X222465000Y-119671939D01*
X222504774Y-119871898D01*
X222582795Y-120060256D01*
X222696063Y-120229774D01*
X222832421Y-120366132D01*
X222832420Y-125315025D01*
X222672135Y-125154740D01*
X222240561Y-124866371D01*
X221761021Y-124667739D01*
X221251945Y-124566478D01*
X220732895Y-124566478D01*
X220223819Y-124667739D01*
X219744279Y-124866371D01*
X219312705Y-125154740D01*
X218945682Y-125521763D01*
X218657313Y-125953337D01*
X218458681Y-126432877D01*
X218357420Y-126941953D01*
X218357420Y-127461003D01*
X218458681Y-127970079D01*
X218657313Y-128449619D01*
X218945682Y-128881193D01*
X219312705Y-129248216D01*
X219744279Y-129536585D01*
X219756092Y-129541478D01*
X208228748Y-129541478D01*
X208240561Y-129536585D01*
X208672135Y-129248216D01*
X209039158Y-128881193D01*
X209327527Y-128449619D01*
X209526159Y-127970079D01*
X209627420Y-127461003D01*
X209627420Y-126941953D01*
X209526159Y-126432877D01*
X209327527Y-125953337D01*
X209039158Y-125521763D01*
X208672135Y-125154740D01*
X208240561Y-124866371D01*
X207761021Y-124667739D01*
X207251945Y-124566478D01*
X206732895Y-124566478D01*
X206223819Y-124667739D01*
X205744279Y-124866371D01*
X205312705Y-125154740D01*
X205102420Y-125365025D01*
X205102420Y-74161478D01*
X222460141Y-74161478D01*
X222557844Y-74171058D01*
G36*
X226705000Y-115921939D02*
G01*
X226744774Y-116121898D01*
X226822795Y-116310256D01*
X226911169Y-116442517D01*
X226812795Y-116589744D01*
X226734774Y-116778102D01*
X226695000Y-116978061D01*
X226695000Y-117181939D01*
X226734774Y-117381898D01*
X226812795Y-117570256D01*
X226892805Y-117690000D01*
X226812795Y-117809744D01*
X226734774Y-117998102D01*
X226695000Y-118198061D01*
X226695000Y-118401939D01*
X226734774Y-118601898D01*
X226812795Y-118790256D01*
X226914510Y-118942483D01*
X226822795Y-119079744D01*
X226744774Y-119268102D01*
X226705000Y-119468061D01*
X226705000Y-119540000D01*
X224535000Y-119540000D01*
X224535000Y-119468061D01*
X224495226Y-119268102D01*
X224417205Y-119079744D01*
X224315490Y-118927517D01*
X224407205Y-118790256D01*
X224485226Y-118601898D01*
X224525000Y-118401939D01*
X224525000Y-118198061D01*
X224485226Y-117998102D01*
X224407205Y-117809744D01*
X224327195Y-117690000D01*
X224407205Y-117570256D01*
X224485226Y-117381898D01*
X224525000Y-117181939D01*
X224525000Y-116978061D01*
X224485226Y-116778102D01*
X224407205Y-116589744D01*
X224318831Y-116457483D01*
X224417205Y-116310256D01*
X224495226Y-116121898D01*
X224535000Y-115921939D01*
X224535000Y-115860000D01*
X226705000Y-115860000D01*
X226705000Y-115921939D01*
G37*
X226705000Y-115921939D02*
X226744774Y-116121898D01*
X226822795Y-116310256D01*
X226911169Y-116442517D01*
X226812795Y-116589744D01*
X226734774Y-116778102D01*
X226695000Y-116978061D01*
X226695000Y-117181939D01*
X226734774Y-117381898D01*
X226812795Y-117570256D01*
X226892805Y-117690000D01*
X226812795Y-117809744D01*
X226734774Y-117998102D01*
X226695000Y-118198061D01*
X226695000Y-118401939D01*
X226734774Y-118601898D01*
X226812795Y-118790256D01*
X226914510Y-118942483D01*
X226822795Y-119079744D01*
X226744774Y-119268102D01*
X226705000Y-119468061D01*
X226705000Y-119540000D01*
X224535000Y-119540000D01*
X224535000Y-119468061D01*
X224495226Y-119268102D01*
X224417205Y-119079744D01*
X224315490Y-118927517D01*
X224407205Y-118790256D01*
X224485226Y-118601898D01*
X224525000Y-118401939D01*
X224525000Y-118198061D01*
X224485226Y-117998102D01*
X224407205Y-117809744D01*
X224327195Y-117690000D01*
X224407205Y-117570256D01*
X224485226Y-117381898D01*
X224525000Y-117181939D01*
X224525000Y-116978061D01*
X224485226Y-116778102D01*
X224407205Y-116589744D01*
X224318831Y-116457483D01*
X224417205Y-116310256D01*
X224495226Y-116121898D01*
X224535000Y-115921939D01*
X224535000Y-115860000D01*
X226705000Y-115860000D01*
X226705000Y-115921939D01*
G36*
X226715000Y-85231939D02*
G01*
X226754774Y-85431898D01*
X226832795Y-85620256D01*
X226921169Y-85752517D01*
X226822795Y-85899744D01*
X226744774Y-86088102D01*
X226705000Y-86288061D01*
X226705000Y-86491939D01*
X226744774Y-86691898D01*
X226822795Y-86880256D01*
X226902805Y-87000000D01*
X226822795Y-87119744D01*
X226744774Y-87308102D01*
X226705000Y-87508061D01*
X226705000Y-87711939D01*
X226744774Y-87911898D01*
X226822795Y-88100256D01*
X226924510Y-88252483D01*
X226832795Y-88389744D01*
X226754774Y-88578102D01*
X226715000Y-88778061D01*
X226715000Y-88850000D01*
X224525000Y-88850000D01*
X224525000Y-88778061D01*
X224485226Y-88578102D01*
X224407205Y-88389744D01*
X224305490Y-88237517D01*
X224397205Y-88100256D01*
X224475226Y-87911898D01*
X224515000Y-87711939D01*
X224515000Y-87508061D01*
X224475226Y-87308102D01*
X224397205Y-87119744D01*
X224317195Y-87000000D01*
X224397205Y-86880256D01*
X224475226Y-86691898D01*
X224515000Y-86491939D01*
X224515000Y-86288061D01*
X224475226Y-86088102D01*
X224397205Y-85899744D01*
X224308831Y-85767483D01*
X224407205Y-85620256D01*
X224485226Y-85431898D01*
X224525000Y-85231939D01*
X224525000Y-85170000D01*
X226715000Y-85170000D01*
X226715000Y-85231939D01*
G37*
X226715000Y-85231939D02*
X226754774Y-85431898D01*
X226832795Y-85620256D01*
X226921169Y-85752517D01*
X226822795Y-85899744D01*
X226744774Y-86088102D01*
X226705000Y-86288061D01*
X226705000Y-86491939D01*
X226744774Y-86691898D01*
X226822795Y-86880256D01*
X226902805Y-87000000D01*
X226822795Y-87119744D01*
X226744774Y-87308102D01*
X226705000Y-87508061D01*
X226705000Y-87711939D01*
X226744774Y-87911898D01*
X226822795Y-88100256D01*
X226924510Y-88252483D01*
X226832795Y-88389744D01*
X226754774Y-88578102D01*
X226715000Y-88778061D01*
X226715000Y-88850000D01*
X224525000Y-88850000D01*
X224525000Y-88778061D01*
X224485226Y-88578102D01*
X224407205Y-88389744D01*
X224305490Y-88237517D01*
X224397205Y-88100256D01*
X224475226Y-87911898D01*
X224515000Y-87711939D01*
X224515000Y-87508061D01*
X224475226Y-87308102D01*
X224397205Y-87119744D01*
X224317195Y-87000000D01*
X224397205Y-86880256D01*
X224475226Y-86691898D01*
X224515000Y-86491939D01*
X224515000Y-86288061D01*
X224475226Y-86088102D01*
X224397205Y-85899744D01*
X224308831Y-85767483D01*
X224407205Y-85620256D01*
X224485226Y-85431898D01*
X224525000Y-85231939D01*
X224525000Y-85170000D01*
X226715000Y-85170000D01*
X226715000Y-85231939D01*
M02*
