G04 #@! TF.GenerationSoftware,KiCad,Pcbnew,(5.1.2)-2*
G04 #@! TF.CreationDate,2020-03-06T16:15:23+08:00*
G04 #@! TF.ProjectId,cover,636f7665-722e-46b6-9963-61645f706362,rev?*
G04 #@! TF.SameCoordinates,Original*
G04 #@! TF.FileFunction,Copper,L2,Bot*
G04 #@! TF.FilePolarity,Positive*
%FSLAX46Y46*%
G04 Gerber Fmt 4.6, Leading zero omitted, Abs format (unit mm)*
G04 Created by KiCad (PCBNEW (5.1.2)-2) date 2020-03-06 16:15:23*
%MOMM*%
%LPD*%
G04 APERTURE LIST*
%ADD10C,4.000000*%
%ADD11C,0.254000*%
G04 APERTURE END LIST*
D10*
X169912420Y-134701478D03*
X155912420Y-134701478D03*
D11*
G36*
X154232705Y-136748216D02*
G01*
X154664279Y-137036585D01*
X154676092Y-137041478D01*
X154394699Y-137041478D01*
X154296996Y-137031898D01*
X154234063Y-137012898D01*
X154176014Y-136982032D01*
X154125077Y-136940489D01*
X154083172Y-136889834D01*
X154051905Y-136832007D01*
X154032464Y-136769206D01*
X154022420Y-136673643D01*
X154022420Y-136537931D01*
X154232705Y-136748216D01*
X154232705Y-136748216D01*
G37*
X154232705Y-136748216D02*
X154664279Y-137036585D01*
X154676092Y-137041478D01*
X154394699Y-137041478D01*
X154296996Y-137031898D01*
X154234063Y-137012898D01*
X154176014Y-136982032D01*
X154125077Y-136940489D01*
X154083172Y-136889834D01*
X154051905Y-136832007D01*
X154032464Y-136769206D01*
X154022420Y-136673643D01*
X154022420Y-136537931D01*
X154232705Y-136748216D01*
G36*
X171477844Y-81671058D02*
G01*
X171540776Y-81690058D01*
X171598825Y-81720923D01*
X171649763Y-81762467D01*
X171691668Y-81813122D01*
X171722935Y-81870949D01*
X171742376Y-81933750D01*
X171752421Y-82029323D01*
X171752420Y-132815025D01*
X171592135Y-132654740D01*
X171160561Y-132366371D01*
X170681021Y-132167739D01*
X170171945Y-132066478D01*
X169652895Y-132066478D01*
X169143819Y-132167739D01*
X168664279Y-132366371D01*
X168232705Y-132654740D01*
X167865682Y-133021763D01*
X167577313Y-133453337D01*
X167378681Y-133932877D01*
X167277420Y-134441953D01*
X167277420Y-134961003D01*
X167378681Y-135470079D01*
X167577313Y-135949619D01*
X167865682Y-136381193D01*
X168232705Y-136748216D01*
X168664279Y-137036585D01*
X168676092Y-137041478D01*
X157148748Y-137041478D01*
X157160561Y-137036585D01*
X157592135Y-136748216D01*
X157959158Y-136381193D01*
X158247527Y-135949619D01*
X158446159Y-135470079D01*
X158547420Y-134961003D01*
X158547420Y-134441953D01*
X158446159Y-133932877D01*
X158247527Y-133453337D01*
X157959158Y-133021763D01*
X157592135Y-132654740D01*
X157160561Y-132366371D01*
X156681021Y-132167739D01*
X156171945Y-132066478D01*
X155652895Y-132066478D01*
X155143819Y-132167739D01*
X154664279Y-132366371D01*
X154232705Y-132654740D01*
X154022420Y-132865025D01*
X154022420Y-81661478D01*
X171380141Y-81661478D01*
X171477844Y-81671058D01*
X171477844Y-81671058D01*
G37*
X171477844Y-81671058D02*
X171540776Y-81690058D01*
X171598825Y-81720923D01*
X171649763Y-81762467D01*
X171691668Y-81813122D01*
X171722935Y-81870949D01*
X171742376Y-81933750D01*
X171752421Y-82029323D01*
X171752420Y-132815025D01*
X171592135Y-132654740D01*
X171160561Y-132366371D01*
X170681021Y-132167739D01*
X170171945Y-132066478D01*
X169652895Y-132066478D01*
X169143819Y-132167739D01*
X168664279Y-132366371D01*
X168232705Y-132654740D01*
X167865682Y-133021763D01*
X167577313Y-133453337D01*
X167378681Y-133932877D01*
X167277420Y-134441953D01*
X167277420Y-134961003D01*
X167378681Y-135470079D01*
X167577313Y-135949619D01*
X167865682Y-136381193D01*
X168232705Y-136748216D01*
X168664279Y-137036585D01*
X168676092Y-137041478D01*
X157148748Y-137041478D01*
X157160561Y-137036585D01*
X157592135Y-136748216D01*
X157959158Y-136381193D01*
X158247527Y-135949619D01*
X158446159Y-135470079D01*
X158547420Y-134961003D01*
X158547420Y-134441953D01*
X158446159Y-133932877D01*
X158247527Y-133453337D01*
X157959158Y-133021763D01*
X157592135Y-132654740D01*
X157160561Y-132366371D01*
X156681021Y-132167739D01*
X156171945Y-132066478D01*
X155652895Y-132066478D01*
X155143819Y-132167739D01*
X154664279Y-132366371D01*
X154232705Y-132654740D01*
X154022420Y-132865025D01*
X154022420Y-81661478D01*
X171380141Y-81661478D01*
X171477844Y-81671058D01*
G36*
X171752420Y-137041478D02*
G01*
X171148748Y-137041478D01*
X171160561Y-137036585D01*
X171592135Y-136748216D01*
X171752420Y-136587931D01*
X171752420Y-137041478D01*
X171752420Y-137041478D01*
G37*
X171752420Y-137041478D02*
X171148748Y-137041478D01*
X171160561Y-137036585D01*
X171592135Y-136748216D01*
X171752420Y-136587931D01*
X171752420Y-137041478D01*
M02*
