G04 #@! TF.GenerationSoftware,KiCad,Pcbnew,(5.1.5)-3*
G04 #@! TF.CreationDate,2020-03-09T16:33:39+08:00*
G04 #@! TF.ProjectId,cover,636f7665-722e-46b6-9963-61645f706362,rev?*
G04 #@! TF.SameCoordinates,Original*
G04 #@! TF.FileFunction,Profile,NP*
%FSLAX46Y46*%
G04 Gerber Fmt 4.6, Leading zero omitted, Abs format (unit mm)*
G04 Created by KiCad (PCBNEW (5.1.5)-3) date 2020-03-09 16:33:39*
%MOMM*%
%LPD*%
G04 APERTURE LIST*
%ADD10C,0.050000*%
G04 APERTURE END LIST*
D10*
X223492420Y-89510000D02*
X227752420Y-89510000D01*
X223492420Y-115200000D02*
X227752420Y-115200000D01*
X227752420Y-115200000D02*
X227752420Y-89510000D01*
X223492420Y-89510000D02*
X223492420Y-115200000D01*
X227752420Y-74501478D02*
X227752420Y-84510000D01*
X223492420Y-84510000D02*
X227752420Y-84510000D01*
X223492420Y-74501478D02*
X223492420Y-84510000D01*
X223492420Y-120200000D02*
X227752420Y-120200000D01*
X223492420Y-130201478D02*
X223492420Y-120200000D01*
X227752420Y-130201478D02*
X227752420Y-120200000D01*
X223492420Y-130201478D02*
X205442420Y-130201478D01*
X246802420Y-129201478D02*
X246802420Y-73501478D01*
X228752420Y-73501478D02*
X246802420Y-73501478D01*
X228752420Y-73501478D02*
G75*
G03X227752420Y-74501478I0J-1000000D01*
G01*
X245802420Y-130201478D02*
X227752420Y-130201478D01*
X245802420Y-130201478D02*
G75*
G03X246802420Y-129201478I0J1000000D01*
G01*
X222492420Y-73501478D02*
G75*
G02X223492420Y-74501478I0J-1000000D01*
G01*
X204442420Y-129201478D02*
X204442420Y-73501478D01*
X205442420Y-130201478D02*
G75*
G02X204442420Y-129201478I0J1000000D01*
G01*
X222492420Y-73501478D02*
X204442420Y-73501478D01*
M02*
