G04 #@! TF.GenerationSoftware,KiCad,Pcbnew,(5.1.5)-3*
G04 #@! TF.CreationDate,2020-03-09T04:33:48+08:00*
G04 #@! TF.ProjectId,cover,636f7665-722e-46b6-9963-61645f706362,rev?*
G04 #@! TF.SameCoordinates,Original*
G04 #@! TF.FileFunction,Soldermask,Bot*
G04 #@! TF.FilePolarity,Negative*
%FSLAX46Y46*%
G04 Gerber Fmt 4.6, Leading zero omitted, Abs format (unit mm)*
G04 Created by KiCad (PCBNEW (5.1.5)-3) date 2020-03-09 04:33:48*
%MOMM*%
%LPD*%
G04 APERTURE LIST*
%ADD10C,0.100000*%
G04 APERTURE END LIST*
D10*
G36*
X240675834Y-125289296D02*
G01*
X241049091Y-125443904D01*
X241049093Y-125443905D01*
X241385016Y-125668362D01*
X241670696Y-125954042D01*
X241895154Y-126289967D01*
X242049762Y-126663224D01*
X242128580Y-127059471D01*
X242128580Y-127463485D01*
X242049762Y-127859732D01*
X241895154Y-128232989D01*
X241895153Y-128232991D01*
X241670696Y-128568914D01*
X241385016Y-128854594D01*
X241049093Y-129079051D01*
X241049092Y-129079052D01*
X241049091Y-129079052D01*
X240675834Y-129233660D01*
X240279587Y-129312478D01*
X239875573Y-129312478D01*
X239479326Y-129233660D01*
X239106069Y-129079052D01*
X239106068Y-129079052D01*
X239106067Y-129079051D01*
X238770144Y-128854594D01*
X238484464Y-128568914D01*
X238260007Y-128232991D01*
X238260006Y-128232989D01*
X238105398Y-127859732D01*
X238026580Y-127463485D01*
X238026580Y-127059471D01*
X238105398Y-126663224D01*
X238260006Y-126289967D01*
X238484464Y-125954042D01*
X238770144Y-125668362D01*
X239106067Y-125443905D01*
X239106069Y-125443904D01*
X239479326Y-125289296D01*
X239875573Y-125210478D01*
X240279587Y-125210478D01*
X240675834Y-125289296D01*
G37*
G36*
X226675834Y-125289296D02*
G01*
X227049091Y-125443904D01*
X227049093Y-125443905D01*
X227385016Y-125668362D01*
X227670696Y-125954042D01*
X227895154Y-126289967D01*
X228049762Y-126663224D01*
X228128580Y-127059471D01*
X228128580Y-127463485D01*
X228049762Y-127859732D01*
X227895154Y-128232989D01*
X227895153Y-128232991D01*
X227670696Y-128568914D01*
X227385016Y-128854594D01*
X227049093Y-129079051D01*
X227049092Y-129079052D01*
X227049091Y-129079052D01*
X226675834Y-129233660D01*
X226279587Y-129312478D01*
X225875573Y-129312478D01*
X225479326Y-129233660D01*
X225106069Y-129079052D01*
X225106068Y-129079052D01*
X225106067Y-129079051D01*
X224770144Y-128854594D01*
X224484464Y-128568914D01*
X224260007Y-128232991D01*
X224260006Y-128232989D01*
X224105398Y-127859732D01*
X224026580Y-127463485D01*
X224026580Y-127059471D01*
X224105398Y-126663224D01*
X224260006Y-126289967D01*
X224484464Y-125954042D01*
X224770144Y-125668362D01*
X225106067Y-125443905D01*
X225106069Y-125443904D01*
X225479326Y-125289296D01*
X225875573Y-125210478D01*
X226279587Y-125210478D01*
X226675834Y-125289296D01*
G37*
G36*
X221670674Y-125289296D02*
G01*
X222043931Y-125443904D01*
X222043933Y-125443905D01*
X222379856Y-125668362D01*
X222665536Y-125954042D01*
X222889994Y-126289967D01*
X223044602Y-126663224D01*
X223123420Y-127059471D01*
X223123420Y-127463485D01*
X223044602Y-127859732D01*
X222889994Y-128232989D01*
X222889993Y-128232991D01*
X222665536Y-128568914D01*
X222379856Y-128854594D01*
X222043933Y-129079051D01*
X222043932Y-129079052D01*
X222043931Y-129079052D01*
X221670674Y-129233660D01*
X221274427Y-129312478D01*
X220870413Y-129312478D01*
X220474166Y-129233660D01*
X220100909Y-129079052D01*
X220100908Y-129079052D01*
X220100907Y-129079051D01*
X219764984Y-128854594D01*
X219479304Y-128568914D01*
X219254847Y-128232991D01*
X219254846Y-128232989D01*
X219100238Y-127859732D01*
X219021420Y-127463485D01*
X219021420Y-127059471D01*
X219100238Y-126663224D01*
X219254846Y-126289967D01*
X219479304Y-125954042D01*
X219764984Y-125668362D01*
X220100907Y-125443905D01*
X220100909Y-125443904D01*
X220474166Y-125289296D01*
X220870413Y-125210478D01*
X221274427Y-125210478D01*
X221670674Y-125289296D01*
G37*
G36*
X207670674Y-125289296D02*
G01*
X208043931Y-125443904D01*
X208043933Y-125443905D01*
X208379856Y-125668362D01*
X208665536Y-125954042D01*
X208889994Y-126289967D01*
X209044602Y-126663224D01*
X209123420Y-127059471D01*
X209123420Y-127463485D01*
X209044602Y-127859732D01*
X208889994Y-128232989D01*
X208889993Y-128232991D01*
X208665536Y-128568914D01*
X208379856Y-128854594D01*
X208043933Y-129079051D01*
X208043932Y-129079052D01*
X208043931Y-129079052D01*
X207670674Y-129233660D01*
X207274427Y-129312478D01*
X206870413Y-129312478D01*
X206474166Y-129233660D01*
X206100909Y-129079052D01*
X206100908Y-129079052D01*
X206100907Y-129079051D01*
X205764984Y-128854594D01*
X205479304Y-128568914D01*
X205254847Y-128232991D01*
X205254846Y-128232989D01*
X205100238Y-127859732D01*
X205021420Y-127463485D01*
X205021420Y-127059471D01*
X205100238Y-126663224D01*
X205254846Y-126289967D01*
X205479304Y-125954042D01*
X205764984Y-125668362D01*
X206100907Y-125443905D01*
X206100909Y-125443904D01*
X206474166Y-125289296D01*
X206870413Y-125210478D01*
X207274427Y-125210478D01*
X207670674Y-125289296D01*
G37*
M02*
