  0
SECTION
  2
HEADER
  9
$ACADVER
  1
AC1032
  9
$ACADMAINTVER
 90
      157
  9
$DWGCODEPAGE
  3
ANSI_1251
  9
$LASTSAVEDBY
  1
Ladniy
  9
$REQUIREDVERSIONS
160
                 0
  9
$INSBASE
 10
0.0
 20
0.0
 30
0.0
  9
$EXTMIN
 10
-186.4790362592106
 20
-177.2154858796248
 30
0.0
  9
$EXTMAX
 10
536.3118112626779
 20
289.9821305568994
 30
0.0
  9
$LIMMIN
 10
0.0
 20
0.0
  9
$LIMMAX
 10
12.0
 20
9.0
  9
$ORTHOMODE
 70
     0
  9
$REGENMODE
 70
     1
  9
$FILLMODE
 70
     1
  9
$QTEXTMODE
 70
     0
  9
$MIRRTEXT
 70
     0
  9
$LTSCALE
 40
1.0
  9
$ATTMODE
 70
     1
  9
$TEXTSIZE
 40
0.2
  9
$TRACEWID
 40
0.05
  9
$TEXTSTYLE
  7
Notes
  9
$CLAYER
  8
0
  9
$CELTYPE
  6
ByLayer
  9
$CECOLOR
 62
   256
  9
$CELTSCALE
 40
1.0
  9
$DISPSILH
 70
     0
  9
$DIMSCALE
 40
1.0
  9
$DIMASZ
 40
3.0
  9
$DIMEXO
 40
1.5
  9
$DIMDLI
 40
6.0
  9
$DIMRND
 40
0.0
  9
$DIMDLE
 40
0.0
  9
$DIMEXE
 40
3.0
  9
$DIMTP
 40
0.0
  9
$DIMTM
 40
0.0
  9
$DIMTXT
 40
3.0
  9
$DIMCEN
 40
3.0
  9
$DIMTSZ
 40
0.0
  9
$DIMTOL
 70
     0
  9
$DIMLIM
 70
     0
  9
$DIMTIH
 70
     0
  9
$DIMTOH
 70
     0
  9
$DIMSE1
 70
     0
  9
$DIMSE2
 70
     0
  9
$DIMTAD
 70
     1
  9
$DIMZIN
 70
     3
  9
$DIMBLK
  1

  9
$DIMASO
 70
     1
  9
$DIMSHO
 70
     1
  9
$DIMPOST
  1

  9
$DIMAPOST
  1

  9
$DIMALT
 70
     0
  9
$DIMALTD
 70
     2
  9
$DIMALTF
 40
25.4
  9
$DIMLFAC
 40
1.0
  9
$DIMTOFL
 70
     0
  9
$DIMTVP
 40
0.0
  9
$DIMTIX
 70
     0
  9
$DIMSOXD
 70
     0
  9
$DIMSAH
 70
     0
  9
$DIMBLK1
  1

  9
$DIMBLK2
  1

  9
$DIMSTYLE
  2
Civil-Metric
  9
$DIMCLRD
 70
     0
  9
$DIMCLRE
 70
     0
  9
$DIMCLRT
 70
     0
  9
$DIMTFAC
 40
1.0
  9
$DIMGAP
 40
2.0
  9
$DIMJUST
 70
     0
  9
$DIMSD1
 70
     0
  9
$DIMSD2
 70
     0
  9
$DIMTOLJ
 70
     1
  9
$DIMTZIN
 70
     0
  9
$DIMALTZ
 70
     0
  9
$DIMALTTZ
 70
     0
  9
$DIMUPT
 70
     0
  9
$DIMDEC
 70
     2
  9
$DIMTDEC
 70
     2
  9
$DIMALTU
 70
     2
  9
$DIMALTTD
 70
     2
  9
$DIMTXSTY
  7
Standard
  9
$DIMAUNIT
 70
     0
  9
$DIMADEC
 70
     2
  9
$DIMALTRND
 40
0.0
  9
$DIMAZIN
 70
     2
  9
$DIMDSEP
 70
    46
  9
$DIMATFIT
 70
     3
  9
$DIMFRAC
 70
     1
  9
$DIMLDRBLK
  1

  9
$DIMLUNIT
 70
     2
  9
$DIMLWD
 70
    -2
  9
$DIMLWE
 70
    -2
  9
$DIMTMOVE
 70
     0
  9
$DIMFXL
 40
1.0
  9
$DIMFXLON
 70
     0
  9
$DIMJOGANG
 40
0.7853981633974483
  9
$DIMTFILL
 70
     0
  9
$DIMTFILLCLR
 70
     0
  9
$DIMARCSYM
 70
     0
  9
$DIMLTYPE
  6

  9
$DIMLTEX1
  6

  9
$DIMLTEX2
  6

  9
$DIMTXTDIRECTION
 70
     0
  9
$LUNITS
 70
     2
  9
$LUPREC
 70
     4
  9
$SKETCHINC
 40
0.1
  9
$FILLETRAD
 40
1.0
  9
$AUNITS
 70
     4
  9
$AUPREC
 70
     5
  9
$MENU
  1
.
  9
$ELEVATION
 40
0.0
  9
$PELEVATION
 40
0.0
  9
$THICKNESS
 40
0.0
  9
$LIMCHECK
 70
     0
  9
$CHAMFERA
 40
0.0
  9
$CHAMFERB
 40
0.0
  9
$CHAMFERC
 40
0.0
  9
$CHAMFERD
 40
0.0
  9
$SKPOLY
 70
     0
  9
$TDCREATE
 40
2458775.849224537
  9
$TDUCREATE
 40
2458775.515891204
  9
$TDUPDATE
 40
2458792.930231481
  9
$TDUUPDATE
 40
2458792.596898148
  9
$TDINDWG
 40
0.3886805556
  9
$TDUSRTIMER
 40
0.3886805556
  9
$USRTIMER
 70
     1
  9
$ANGBASE
 50
0.0
  9
$ANGDIR
 70
     0
  9
$PDMODE
 70
     0
  9
$PDSIZE
 40
0.0
  9
$PLINEWID
 40
0.0
  9
$SPLFRAME
 70
     0
  9
$SPLINETYPE
 70
     6
  9
$SPLINESEGS
 70
     8
  9
$HANDSEED
  5
22BD
  9
$SURFTAB1
 70
     6
  9
$SURFTAB2
 70
     6
  9
$SURFTYPE
 70
     6
  9
$SURFU
 70
     6
  9
$SURFV
 70
     6
  9
$UCSBASE
  2

  9
$UCSNAME
  2

  9
$UCSORG
 10
0.0
 20
0.0
 30
0.0
  9
$UCSXDIR
 10
1.0
 20
0.0
 30
0.0
  9
$UCSYDIR
 10
0.0
 20
1.0
 30
0.0
  9
$UCSORTHOREF
  2

  9
$UCSORTHOVIEW
 70
     0
  9
$UCSORGTOP
 10
0.0
 20
0.0
 30
0.0
  9
$UCSORGBOTTOM
 10
0.0
 20
0.0
 30
0.0
  9
$UCSORGLEFT
 10
0.0
 20
0.0
 30
0.0
  9
$UCSORGRIGHT
 10
0.0
 20
0.0
 30
0.0
  9
$UCSORGFRONT
 10
0.0
 20
0.0
 30
0.0
  9
$UCSORGBACK
 10
0.0
 20
0.0
 30
0.0
  9
$PUCSBASE
  2

  9
$PUCSNAME
  2

  9
$PUCSORG
 10
0.0
 20
0.0
 30
0.0
  9
$PUCSXDIR
 10
1.0
 20
0.0
 30
0.0
  9
$PUCSYDIR
 10
0.0
 20
1.0
 30
0.0
  9
$PUCSORTHOREF
  2

  9
$PUCSORTHOVIEW
 70
     0
  9
$PUCSORGTOP
 10
0.0
 20
0.0
 30
0.0
  9
$PUCSORGBOTTOM
 10
0.0
 20
0.0
 30
0.0
  9
$PUCSORGLEFT
 10
0.0
 20
0.0
 30
0.0
  9
$PUCSORGRIGHT
 10
0.0
 20
0.0
 30
0.0
  9
$PUCSORGFRONT
 10
0.0
 20
0.0
 30
0.0
  9
$PUCSORGBACK
 10
0.0
 20
0.0
 30
0.0
  9
$USERI1
 70
     0
  9
$USERI2
 70
     0
  9
$USERI3
 70
     0
  9
$USERI4
 70
     0
  9
$USERI5
 70
     0
  9
$USERR1
 40
0.0
  9
$USERR2
 40
0.0
  9
$USERR3
 40
0.0
  9
$USERR4
 40
0.0
  9
$USERR5
 40
0.0
  9
$WORLDVIEW
 70
     1
  9
$SHADEDGE
 70
     3
  9
$SHADEDIF
 70
    70
  9
$TILEMODE
 70
     1
  9
$MAXACTVP
 70
    64
  9
$PINSBASE
 10
0.0
 20
0.0
 30
0.0
  9
$PLIMCHECK
 70
     0
  9
$PEXTMIN
 10
0.6288667663970601
 20
0.7999999523162842
 30
0.0
  9
$PEXTMAX
 10
9.028866384927335
 20
7.199999570846557
 30
0.0
  9
$PLIMMIN
 10
-0.7005418191744587
 20
-0.2281003861915408
  9
$PLIMMAX
 10
10.29945794052965
 20
8.271899373512571
  9
$UNITMODE
 70
     0
  9
$VISRETAIN
 70
     1
  9
$PLINEGEN
 70
     0
  9
$PSLTSCALE
 70
     1
  9
$TREEDEPTH
 70
  3020
  9
$CMLSTYLE
  2
Standard
  9
$CMLJUST
 70
     0
  9
$CMLSCALE
 40
1.0
  9
$PROXYGRAPHICS
 70
     1
  9
$MEASUREMENT
 70
     1
  9
$CELWEIGHT
370
    -1
  9
$ENDCAPS
280
     0
  9
$JOINSTYLE
280
     0
  9
$LWDISPLAY
290
     0
  9
$INSUNITS
 70
     4
  9
$HYPERLINKBASE
  1

  9
$STYLESHEET
  1

  9
$XEDIT
290
     1
  9
$CEPSNTYPE
380
     0
  9
$PSTYLEMODE
290
     1
  9
$FINGERPRINTGUID
  2
BCF53B60-F21F-11E9-BE28-4E5CEDBD4935
  9
$VERSIONGUID
  2
{5A343865-B9BA-BF41-BCD9-6814A796FA3B}
  9
$EXTNAMES
290
     1
  9
$PSVPSCALE
 40
0.0
  9
$OLESTARTUP
290
     0
  9
$SORTENTS
280
   127
  9
$INDEXCTL
280
     0
  9
$HIDETEXT
280
     1
  9
$XCLIPFRAME
280
     0
  9
$HALOGAP
280
     0
  9
$OBSCOLOR
 70
   257
  9
$OBSLTYPE
280
     0
  9
$INTERSECTIONDISPLAY
280
     0
  9
$INTERSECTIONCOLOR
 70
   257
  9
$DIMASSOC
280
     2
  9
$PROJECTNAME
  1

  9
$CAMERADISPLAY
290
     0
  9
$LENSLENGTH
 40
50.0
  9
$CAMERAHEIGHT
 40
0.0
  9
$STEPSPERSEC
 40
2.0
  9
$STEPSIZE
 40
6.0
  9
$3DDWFPREC
 40
2.0
  9
$PSOLWIDTH
 40
0.25
  9
$PSOLHEIGHT
 40
4.0
  9
$LOFTANG1
 40
1.570796326794896
  9
$LOFTANG2
 40
1.570796326794896
  9
$LOFTMAG1
 40
0.0
  9
$LOFTMAG2
 40
0.0
  9
$LOFTPARAM
 70
     7
  9
$LOFTNORMALS
280
     1
  9
$LATITUDE
 40
37.795
  9
$LONGITUDE
 40
-122.394
  9
$NORTHDIRECTION
 40
0.0
  9
$TIMEZONE
 70
 -8000
  9
$LIGHTGLYPHDISPLAY
280
     1
  9
$TILEMODELIGHTSYNCH
280
     1
  9
$CMATERIAL
347
651
  9
$SOLIDHIST
280
     1
  9
$SHOWHIST
280
     1
  9
$DWFFRAME
280
     2
  9
$DGNFRAME
280
     0
  9
$REALWORLDSCALE
290
     1
  9
$INTERFERECOLOR
 62
     1
  9
$INTERFEREOBJVS
345
672
  9
$INTERFEREVPVS
346
66F
  9
$CSHADOW
280
     0
  9
$SHADOWPLANELOCATION
 40
0.0
  0
ENDSEC
  0
SECTION
  2
CLASSES
  0
CLASS
  1
ACDBDICTIONARYWDFLT
  2
AcDbDictionaryWithDefault
  3
ObjectDBX Classes
 90
        0
 91
        1
280
     0
281
     0
  0
CLASS
  1
DICTIONARYVAR
  2
AcDbDictionaryVar
  3
ObjectDBX Classes
 90
        0
 91
        5
280
     0
281
     0
  0
CLASS
  1
TABLESTYLE
  2
AcDbTableStyle
  3
ObjectDBX Classes
 90
     4095
 91
        1
280
     0
281
     0
  0
CLASS
  1
MATERIAL
  2
AcDbMaterial
  3
ObjectDBX Classes
 90
     1153
 91
        3
280
     0
281
     0
  0
CLASS
  1
VISUALSTYLE
  2
AcDbVisualStyle
  3
ObjectDBX Classes
 90
     4095
 91
       24
280
     0
281
     0
  0
CLASS
  1
SCALE
  2
AcDbScale
  3
ObjectDBX Classes
 90
     1153
 91
       17
280
     0
281
     0
  0
CLASS
  1
MLEADERSTYLE
  2
AcDbMLeaderStyle
  3
ACDB_MLEADERSTYLE_CLASS
 90
     4095
 91
        1
280
     0
281
     0
  0
CLASS
  1
CELLSTYLEMAP
  2
AcDbCellStyleMap
  3
ObjectDBX Classes
 90
     1152
 91
        2
280
     0
281
     0
  0
CLASS
  1
EXACXREFPANELOBJECT
  2
ExAcXREFPanelObject
  3
EXAC_ESW
 90
     1025
 91
        0
280
     0
281
     0
  0
CLASS
  1
NPOCOLLECTION
  2
AcDbImpNonPersistentObjectsCollection
  3
ObjectDBX Classes
 90
     1153
 91
        0
280
     0
281
     0
  0
CLASS
  1
LAYER_INDEX
  2
AcDbLayerIndex
  3
ObjectDBX Classes
 90
        0
 91
        0
280
     0
281
     0
  0
CLASS
  1
SPATIAL_INDEX
  2
AcDbSpatialIndex
  3
ObjectDBX Classes
 90
        0
 91
        0
280
     0
281
     0
  0
CLASS
  1
IDBUFFER
  2
AcDbIdBuffer
  3
ObjectDBX Classes
 90
        0
 91
        0
280
     0
281
     0
  0
CLASS
  1
DIMASSOC
  2
AcDbDimAssoc
  3
"AcDbDimAssoc|Product Desc:     AcDim ARX App For Dimension|Company:          Autodesk, Inc.|WEB Address:      www.autodesk.com"
 90
        0
 91
        0
280
     0
281
     0
  0
CLASS
  1
IMAGEDEF
  2
AcDbRasterImageDef
  3
ISM
 90
        0
 91
        0
280
     0
281
     0
  0
CLASS
  1
RASTERVARIABLES
  2
AcDbRasterVariables
  3
ISM
 90
        0
 91
        0
280
     0
281
     0
  0
CLASS
  1
IMAGEDEF_REACTOR
  2
AcDbRasterImageDefReactor
  3
ISM
 90
        1
 91
        0
280
     0
281
     0
  0
CLASS
  1
IMAGE
  2
AcDbRasterImage
  3
ISM
 90
     2175
 91
        0
280
     0
281
     1
  0
CLASS
  1
PDFDEFINITION
  2
AcDbPdfDefinition
  3
ObjectDBX Classes
 90
     1153
 91
        0
280
     0
281
     0
  0
CLASS
  1
PDFUNDERLAY
  2
AcDbPdfReference
  3
ObjectDBX Classes
 90
     4095
 91
        0
280
     0
281
     1
  0
CLASS
  1
DWFDEFINITION
  2
AcDbDwfDefinition
  3
ObjectDBX Classes
 90
     1153
 91
        0
280
     0
281
     0
  0
CLASS
  1
DWFUNDERLAY
  2
AcDbDwfReference
  3
ObjectDBX Classes
 90
     1153
 91
        0
280
     0
281
     1
  0
CLASS
  1
DGNDEFINITION
  2
AcDbDgnDefinition
  3
ObjectDBX Classes
 90
     1153
 91
        0
280
     0
281
     0
  0
CLASS
  1
DGNUNDERLAY
  2
AcDbDgnReference
  3
ObjectDBX Classes
 90
     1153
 91
        0
280
     0
281
     1
  0
CLASS
  1
ACDBSECTIONVIEWSTYLE
  2
AcDbSectionViewStyle
  3
ObjectDBX Classes
 90
     1025
 91
        1
280
     0
281
     0
  0
CLASS
  1
ACDBDETAILVIEWSTYLE
  2
AcDbDetailViewStyle
  3
ObjectDBX Classes
 90
     1025
 91
        1
280
     0
281
     0
  0
CLASS
  1
SORTENTSTABLE
  2
AcDbSortentsTable
  3
ObjectDBX Classes
 90
        0
 91
        7
280
     0
281
     0
  0
ENDSEC
  0
SECTION
  2
TABLES
  0
TABLE
  2
VPORT
  5
8
330
0
100
AcDbSymbolTable
 70
     1
1001
ACAD
1000
DbSaveVer
1071
      207
  0
VPORT
  5
69C
330
8
100
AcDbSymbolTableRecord
100
AcDbViewportTableRecord
  2
*Active
 70
     0
 10
0.0
 20
0.0
 11
1.0
 21
1.0
 12
177.8038134007148
 22
66.62693077031741
 13
0.0
 23
0.0
 14
1.0
 24
1.0
 15
0.0
 25
0.0
 16
0.0
 26
0.0
 36
1.0
 17
0.0
 27
0.0
 37
0.0
 40
205.5038983139046
 41
2.278375149342891
 42
50.0
 43
0.0
 44
0.0
 50
0.0
 51
0.0
 71
     0
 72
  1000
 73
     1
 74
     3
 75
     0
 76
     1
 77
     0
 78
     0
281
     0
 65
     1
110
0.0
120
0.0
130
0.0
111
1.0
121
0.0
131
0.0
112
0.0
122
1.0
132
0.0
 79
     0
146
0.0
348
66E
 60
     3
 61
     5
292
     1
282
     1
141
0.0
142
0.0
 63
   250
421
  3355443
1001
ACAD_NAV_VCDISPLAY
1070
     1
  0
ENDTAB
  0
TABLE
  2
LTYPE
  5
5F
330
0
100
AcDbSymbolTable
 70
     6
  0
LTYPE
  5
14
330
5F
100
AcDbSymbolTableRecord
100
AcDbLinetypeTableRecord
  2
ByBlock
 70
     0
  3

 72
    65
 73
     0
 40
0.0
  0
LTYPE
  5
15
330
5F
100
AcDbSymbolTableRecord
100
AcDbLinetypeTableRecord
  2
ByLayer
 70
     0
  3

 72
    65
 73
     0
 40
0.0
  0
LTYPE
  5
16
330
5F
100
AcDbSymbolTableRecord
100
AcDbLinetypeTableRecord
  2
Continuous
 70
     0
  3
Solid line
 72
    65
 73
     0
 40
0.0
  0
LTYPE
  5
1B1
330
5F
100
AcDbSymbolTableRecord
100
AcDbLinetypeTableRecord
  2
CENTER
 70
     0
  3
Center ____ _ ____ _ ____ _ ____ _ ____ _ ____
 72
    65
 73
     4
 40
2.0
 49
1.25
 74
     0
 49
-0.25
 74
     0
 49
0.25
 74
     0
 49
-0.25
 74
     0
  0
LTYPE
  5
1B2
330
5F
100
AcDbSymbolTableRecord
100
AcDbLinetypeTableRecord
  2
DASHED
 70
     0
  3
Dashed __ __ __ __ __ __ __ __ __ __ __ __ __ _
 72
    65
 73
     2
 40
0.75
 49
0.5
 74
     0
 49
-0.25
 74
     0
  0
LTYPE
  5
1B3
330
5F
100
AcDbSymbolTableRecord
100
AcDbLinetypeTableRecord
  2
PHANTOM
 70
     0
  3
Phantom ______  __  __  ______  __  __  ______
 72
    65
 73
     6
 40
2.5
 49
1.25
 74
     0
 49
-0.25
 74
     0
 49
0.25
 74
     0
 49
-0.25
 74
     0
 49
0.25
 74
     0
 49
-0.25
 74
     0
  0
LTYPE
  5
39E
330
5F
100
AcDbSymbolTableRecord
100
AcDbLinetypeTableRecord
  2
HIDDEN
 70
     0
  3
Hidden __ __ __ __ __ __ __ __ __ __ __ __ __ __
 72
    65
 73
     2
 40
9.525
 49
6.349999999999997
 74
     0
 49
-3.174999999999998
 74
     0
  0
ENDTAB
  0
TABLE
  2
LAYER
  5
2
102
{ACAD_XDICTIONARY
360
6AB
102
}
330
0
100
AcDbSymbolTable
 70
     3
  0
LAYER
  5
10
330
2
100
AcDbSymbolTableRecord
100
AcDbLayerTableRecord
  2
0
 70
     0
 62
     7
  6
Continuous
370
    -3
390
4E8
347
661
348
0
  0
LAYER
  5
1B4
330
2
100
AcDbSymbolTableRecord
100
AcDbLayerTableRecord
  2
View Port
 70
     0
 62
     7
  6
Continuous
290
     0
370
    -3
390
4E8
347
661
348
0
  0
LAYER
  5
21D
330
2
100
AcDbSymbolTableRecord
100
AcDbLayerTableRecord
  2
Defpoints
 70
     0
 62
     7
  6
Continuous
290
     0
370
    -3
390
4E8
347
661
348
0
  0
ENDTAB
  0
TABLE
  2
STYLE
  5
3
330
0
100
AcDbSymbolTable
 70
     3
  0
STYLE
  5
11
330
3
100
AcDbSymbolTableRecord
100
AcDbTextStyleTableRecord
  2
Standard
 70
     0
 40
0.0
 41
1.0
 50
0.0
 71
     0
 42
0.2
  3
arial.ttf
  4

1001
ACAD
1000
Arial
1071
       34
  0
STYLE
  5
DC
330
3
100
AcDbSymbolTableRecord
100
AcDbTextStyleTableRecord
  2
Annotative
 70
     0
 40
0.0
 41
1.0
 50
0.0
 71
     0
 42
0.2
  3
arial.ttf
  4

1001
ACAD
1000
Arial
1071
       34
  0
STYLE
  5
178
330
3
100
AcDbSymbolTableRecord
100
AcDbTextStyleTableRecord
  2
Notes
 70
     0
 40
3.0
 41
1.0
 50
0.0
 71
     0
 42
0.2
  3
arial.ttf
  4

1001
ACAD
1000
Arial
1071
       34
  0
ENDTAB
  0
TABLE
  2
VIEW
  5
6
330
0
100
AcDbSymbolTable
 70
     0
  0
ENDTAB
  0
TABLE
  2
UCS
  5
7
330
0
100
AcDbSymbolTable
 70
     0
  0
ENDTAB
  0
TABLE
  2
APPID
  5
9
330
0
100
AcDbSymbolTable
 70
    12
  0
APPID
  5
12
330
9
100
AcDbSymbolTableRecord
100
AcDbRegAppTableRecord
  2
ACAD
 70
     0
  0
APPID
  5
DD
330
9
100
AcDbSymbolTableRecord
100
AcDbRegAppTableRecord
  2
AcadAnnoPO
 70
     0
  0
APPID
  5
DE
330
9
100
AcDbSymbolTableRecord
100
AcDbRegAppTableRecord
  2
AcadAnnotative
 70
     0
  0
APPID
  5
DF
330
9
100
AcDbSymbolTableRecord
100
AcDbRegAppTableRecord
  2
ACAD_DSTYLE_DIMJAG
 70
     0
  0
APPID
  5
E0
330
9
100
AcDbSymbolTableRecord
100
AcDbRegAppTableRecord
  2
ACAD_DSTYLE_DIMTALN
 70
     0
  0
APPID
  5
107
330
9
100
AcDbSymbolTableRecord
100
AcDbRegAppTableRecord
  2
ACAD_MLEADERVER
 70
     0
  0
APPID
  5
1B5
330
9
100
AcDbSymbolTableRecord
100
AcDbRegAppTableRecord
  2
AcAecLayerStandard
 70
     0
  0
APPID
  5
1BA
330
9
100
AcDbSymbolTableRecord
100
AcDbRegAppTableRecord
  2
ACAD_EXEMPT_FROM_CAD_STANDARDS
 70
     0
  0
APPID
  5
237
330
9
100
AcDbSymbolTableRecord
100
AcDbRegAppTableRecord
  2
ACAD_DSTYLE_DIMBREAK
 70
     0
  0
APPID
  5
28E
330
9
100
AcDbSymbolTableRecord
100
AcDbRegAppTableRecord
  2
ACAD_PSEXT
 70
     0
  0
APPID
  5
4C4
330
9
100
AcDbSymbolTableRecord
100
AcDbRegAppTableRecord
  2
HATCHBACKGROUNDCOLOR
 70
     0
  0
APPID
  5
69B
330
9
100
AcDbSymbolTableRecord
100
AcDbRegAppTableRecord
  2
ACAD_NAV_VCDISPLAY
 70
     0
  0
ENDTAB
  0
TABLE
  2
DIMSTYLE
  5
A
330
0
100
AcDbSymbolTable
 70
     6
100
AcDbDimStyleTable
 71
     3
340
242
340
27
340
E1
  0
DIMSTYLE
105
27
330
A
100
AcDbSymbolTableRecord
100
AcDbDimStyleTableRecord
  2
Standard
 70
     0
 41
3.0
 42
2.0
 43
9.0
 44
5.0
140
3.0
141
2.0
147
2.0
340
11
1001
ACAD_DSTYLE_DIMJAG
1070
   388
1040
38.0
1001
ACAD_DSTYLE_DIMBREAK
1070
   391
1040
90.0
1001
ACAD_DSTYLE_DIMTALN
1070
   392
1070
     0
  0
DIMSTYLE
105
E1
330
A
100
AcDbSymbolTableRecord
100
AcDbDimStyleTableRecord
  2
Annotative
 70
     0
 40
0.0
 41
3.0
 42
2.5
 43
10.0
 44
5.0
140
3.0
141
2.0
147
2.0
340
11
1001
AcadAnnotative
1000
AnnotativeData
1002
{
1070
     1
1070
     1
1002
}
1001
ACAD_DSTYLE_DIMJAG
1070
   388
1040
38.0
1001
ACAD_DSTYLE_DIMBREAK
1070
   391
1040
90.0
1001
ACAD_DSTYLE_DIMTALN
1070
   392
1070
     0
  0
DIMSTYLE
105
242
330
A
100
AcDbSymbolTableRecord
100
AcDbDimStyleTableRecord
  2
Civil-Metric
 70
     0
 41
3.0
 42
1.5
 43
6.0
 44
3.0
 73
     0
 74
     0
 77
     1
 78
     3
 79
     2
140
3.0
141
3.0
147
2.0
179
     2
271
     2
272
     2
276
     1
340
11
1001
ACAD_DSTYLE_DIMBREAK
1070
   391
1040
3.0
1001
ACAD_DSTYLE_DIMJAG
1070
   388
1040
38.0
1001
ACAD_DSTYLE_DIMTALN
1070
   392
1070
     0
  0
DIMSTYLE
105
F70
330
A
100
AcDbSymbolTableRecord
100
AcDbDimStyleTableRecord
  2
Аннотативный
 70
     0
 40
0.0
 41
2.5
 42
0.625
 43
3.75
 44
1.25
 73
     0
 74
     0
 77
     1
 78
     8
140
2.5
141
2.5
143
0.03937007874016
147
0.625
171
     3
172
     1
271
     2
272
     2
274
     3
278
    44
283
     0
284
     8
340
11
1001
AcadAnnotative
1000
AnnotativeData
1002
{
1070
     1
1070
     1
1002
}
1001
ACAD_DSTYLE_DIMJAG
1070
   388
1040
1.5
1001
ACAD_DSTYLE_DIMTALN
1070
   392
1070
     0
  0
DIMSTYLE
105
F71
330
A
100
AcDbSymbolTableRecord
100
AcDbDimStyleTableRecord
  2
ISO-25
 70
     0
 41
2.5
 42
0.625
 43
3.75
 44
1.25
 73
     0
 74
     0
 77
     1
 78
     8
140
2.5
141
2.5
143
0.03937007874016
147
0.625
171
     3
172
     1
271
     2
272
     2
274
     3
278
    44
283
     0
284
     8
340
11
  0
ENDTAB
  0
TABLE
  2
BLOCK_RECORD
  5
1
330
0
100
AcDbSymbolTable
 70
    10
  0
BLOCK_RECORD
  5
1F
102
{ACAD_XDICTIONARY
360
882
102
}
330
1
100
AcDbSymbolTableRecord
100
AcDbBlockTableRecord
  2
*Model_Space
340
4ED
 70
     0
280
     1
281
     0
  0
BLOCK_RECORD
  5
58
330
1
100
AcDbSymbolTableRecord
100
AcDbBlockTableRecord
  2
*Paper_Space
340
4EE
 70
     0
280
     1
281
     0
  0
BLOCK_RECORD
  5
238
330
1
100
AcDbSymbolTableRecord
100
AcDbBlockTableRecord
  2
_ArchTick
340
0
 70
     0
280
     1
281
     0
  0
BLOCK_RECORD
  5
23C
330
1
100
AcDbSymbolTableRecord
100
AcDbBlockTableRecord
  2
_Open30
340
0
 70
     0
280
     1
281
     0
  0
BLOCK_RECORD
  5
6E6
330
1
100
AcDbSymbolTableRecord
100
AcDbBlockTableRecord
  2
A$C51dd9ed7
340
0
 70
     4
280
     1
281
     0
  0
BLOCK_RECORD
  5
EFB
102
{ACAD_XDICTIONARY
360
F00
102
}
330
1
100
AcDbSymbolTableRecord
100
AcDbBlockTableRecord
  2
A$C7211f684
340
0
 70
     4
280
     1
281
     0
  0
BLOCK_RECORD
  5
2245
102
{ACAD_XDICTIONARY
360
228A
102
}
330
1
100
AcDbSymbolTableRecord
100
AcDbBlockTableRecord
  2
A$C6039d85f
340
0
 70
     4
280
     1
281
     0
  0
ENDTAB
  0
ENDSEC
  0
SECTION
  2
BLOCKS
  0
BLOCK
  5
20
330
1F
100
AcDbEntity
  8
0
100
AcDbBlockBegin
  2
*Model_Space
 70
     0
 10
0.0
 20
0.0
 30
0.0
  3
*Model_Space
  1

  0
ENDBLK
  5
21
330
1F
100
AcDbEntity
  8
0
100
AcDbBlockEnd
  0
BLOCK
  5
5A
330
58
100
AcDbEntity
 67
     1
  8
0
100
AcDbBlockBegin
  2
*Paper_Space
 70
     0
 10
0.0
 20
0.0
 30
0.0
  3
*Paper_Space
  1

  0
ENDBLK
  5
5B
330
58
100
AcDbEntity
 67
     1
  8
0
100
AcDbBlockEnd
  0
BLOCK
  5
23A
330
238
100
AcDbEntity
  8
0
100
AcDbBlockBegin
  2
_ArchTick
 70
     0
 10
0.0
 20
0.0
 30
0.0
  3
_ArchTick
  1

  0
LWPOLYLINE
  5
239
330
238
100
AcDbEntity
  8
0
  6
ByBlock
 62
     0
100
AcDbPolyline
 90
        2
 70
     0
 43
0.15
 10
-0.5
 20
-0.5
 10
0.5
 20
0.5
  0
ENDBLK
  5
23B
330
238
100
AcDbEntity
  8
0
100
AcDbBlockEnd
  0
BLOCK
  5
240
330
23C
100
AcDbEntity
  8
0
100
AcDbBlockBegin
  2
_Open30
 70
     0
 10
0.0
 20
0.0
 30
0.0
  3
_Open30
  1

  0
LINE
  5
23D
330
23C
100
AcDbEntity
  8
0
  6
ByBlock
 62
     0
370
    -2
100
AcDbLine
 10
-1.0
 20
0.26794919
 30
0.0
 11
0.0
 21
0.0
 31
0.0
  0
LINE
  5
23E
330
23C
100
AcDbEntity
  8
0
  6
ByBlock
 62
     0
370
    -2
100
AcDbLine
 10
0.0
 20
0.0
 30
0.0
 11
-1.0
 21
-0.26794919
 31
0.0
  0
LINE
  5
23F
330
23C
100
AcDbEntity
  8
0
  6
ByBlock
 62
     0
370
    -2
100
AcDbLine
 10
0.0
 20
0.0
 30
0.0
 11
-1.0
 21
0.0
 31
0.0
  0
ENDBLK
  5
241
330
23C
100
AcDbEntity
  8
0
100
AcDbBlockEnd
  0
BLOCK
  5
6E8
330
6E6
100
AcDbEntity
  8
0
100
AcDbBlockBegin
  2
A$C51dd9ed7
 70
     0
 10
0.0
 20
0.0
 30
0.0
  3
A$C51dd9ed7
  1

  0
LINE
  5
6E7
330
6E6
100
AcDbEntity
  8
0
100
AcDbLine
 10
-0.00000031730616
 20
2.499999897510829
 30
0.0
 11
-0.00000031730616
 21
-0.0000001024891674
 31
0.0
  0
ENDBLK
  5
6E9
330
6E6
100
AcDbEntity
  8
0
100
AcDbBlockEnd
  0
BLOCK
  5
F02
330
EFB
100
AcDbEntity
  8
0
100
AcDbBlockBegin
  2
A$C7211f684
 70
     0
 10
0.0
 20
0.0
 30
0.0
  3
A$C7211f684
  1

  0
LINE
  5
EFC
330
EFB
100
AcDbEntity
  8
0
100
AcDbLine
 10
0.0
 20
1.99999996447684
 30
0.0
 11
0.0
 21
-0.0000000355231577
 31
0.0
  0
LINE
  5
EFD
330
EFB
100
AcDbEntity
  8
0
100
AcDbLine
 10
0.0
 20
-0.0000000355231577
 30
0.0
 11
2.0
 21
-0.0000000355231577
 31
0.0
  0
LINE
  5
EFE
330
EFB
100
AcDbEntity
  8
0
100
AcDbLine
 10
2.0
 20
-0.0000000355231577
 30
0.0
 11
2.0
 21
1.99999996447684
 31
0.0
  0
LINE
  5
EFF
330
EFB
100
AcDbEntity
  8
0
100
AcDbLine
 10
2.0
 20
1.99999996447684
 30
0.0
 11
0.0
 21
1.99999996447684
 31
0.0
  0
ENDBLK
  5
F03
330
EFB
100
AcDbEntity
  8
0
100
AcDbBlockEnd
  0
BLOCK
  5
228C
330
2245
100
AcDbEntity
  8
0
100
AcDbBlockBegin
  2
A$C6039d85f
 70
     0
 10
0.0
 20
0.0
 30
0.0
  3
A$C6039d85f
  1

  0
LINE
  5
2246
330
2245
100
AcDbEntity
  8
0
100
AcDbLine
 10
19.99999937072107
 20
71.3875002022433
 30
0.0
 11
37.09999946307248
 21
71.3875002022433
 31
0.0
  0
ARC
  5
2247
330
2245
100
AcDbEntity
  8
0
100
AcDbCircle
 10
37.09999946307248
 20
72.3875002022433
 30
0.0
 40
1.0
100
AcDbArc
 50
270.0
 51
0.0
  0
LINE
  5
2248
330
2245
100
AcDbEntity
  8
0
100
AcDbLine
 10
95.24999937072101
 20
5.762500202243302
 30
0.0
 11
95.24999937072101
 21
27.57500020224333
 31
0.0
  0
ARC
  5
2249
330
2245
100
AcDbEntity
  8
0
100
AcDbCircle
 10
94.24999937072104
 20
27.57500020224333
 30
0.0
 40
1.0
100
AcDbArc
 50
0.0
 51
90.0
  0
ARC
  5
224A
330
2245
100
AcDbEntity
  8
0
100
AcDbCircle
 10
96.24999937072104
 20
5.762500202243302
 30
0.0
 40
1.0
100
AcDbArc
 50
180.0
 51
270.0
  0
LINE
  5
224B
330
2245
100
AcDbEntity
  8
0
100
AcDbLine
 10
39.09999946307246
 20
73.86400029265371
 30
0.0
 11
56.14999946307246
 21
73.86400029265371
 31
0.0
  0
ARC
  5
224C
330
2245
100
AcDbEntity
  8
0
100
AcDbCircle
 10
56.14999946307246
 20
74.86400029265372
 30
0.0
 40
1.0
100
AcDbArc
 50
270.0
 51
0.0
  0
LINE
  5
224D
330
2245
100
AcDbEntity
  8
0
100
AcDbLine
 10
58.14999946307246
 20
80.91250029265371
 30
0.0
 11
75.19999946307247
 21
80.91250029265371
 31
0.0
  0
ARC
  5
224E
330
2245
100
AcDbEntity
  8
0
100
AcDbCircle
 10
75.19999946307247
 20
81.9125002926537
 30
0.0
 40
1.0
100
AcDbArc
 50
270.0
 51
0.0
  0
LINE
  5
224F
330
2245
100
AcDbEntity
  8
0
100
AcDbLine
 10
77.19999946307244
 20
85.67500029265373
 30
0.0
 11
94.19999946307241
 21
85.67500029265373
 31
0.0
  0
LINE
  5
2250
330
2245
100
AcDbEntity
  8
0
100
AcDbLine
 10
96.1999994630724
 20
80.91250029265371
 30
0.0
 11
113.2499994630725
 21
80.91250029265371
 31
0.0
  0
ARC
  5
2251
330
2245
100
AcDbEntity
  8
0
100
AcDbCircle
 10
113.2499994630725
 20
79.9125002926537
 30
0.0
 40
1.0
100
AcDbArc
 50
0.0
 51
90.0
  0
LINE
  5
2252
330
2245
100
AcDbEntity
  8
0
100
AcDbLine
 10
115.2499994630725
 20
78.62650020224333
 30
0.0
 11
132.299999370721
 21
78.62650020224333
 31
0.0
  0
ARC
  5
2253
330
2245
100
AcDbEntity
  8
0
100
AcDbCircle
 10
132.299999370721
 20
77.62650020224327
 30
0.0
 40
1.0
100
AcDbArc
 50
0.0
 51
90.0
  0
LINE
  5
2254
330
2245
100
AcDbEntity
  8
0
100
AcDbLine
 10
20.04999937072108
 20
14.28750020224333
 30
0.0
 11
37.04999937072108
 21
14.28750020224333
 31
0.0
  0
ARC
  5
2255
330
2245
100
AcDbEntity
  8
0
100
AcDbCircle
 10
20.04999937072108
 20
15.28750020224333
 30
0.0
 40
1.0
100
AcDbArc
 50
180.0
 51
270.0
  0
ARC
  5
2256
330
2245
100
AcDbEntity
  8
0
100
AcDbCircle
 10
37.04999937072108
 20
15.28750020224333
 30
0.0
 40
1.0
100
AcDbArc
 50
270.0
 51
0.0
  0
LINE
  5
2257
330
2245
100
AcDbEntity
  8
0
100
AcDbLine
 10
39.04999937072106
 20
16.76400020224329
 30
0.0
 11
56.09999937072107
 21
16.76400020224329
 31
0.0
  0
ARC
  5
2258
330
2245
100
AcDbEntity
  8
0
100
AcDbCircle
 10
56.09999937072107
 20
17.76400020224329
 30
0.0
 40
1.0
100
AcDbArc
 50
270.0
 51
0.0
  0
LINE
  5
2259
330
2245
100
AcDbEntity
  8
0
100
AcDbLine
 10
58.09999937072106
 20
23.81250020224332
 30
0.0
 11
75.14999937072106
 21
23.81250020224332
 31
0.0
  0
ARC
  5
225A
330
2245
100
AcDbEntity
  8
0
100
AcDbCircle
 10
75.14999937072106
 20
24.81250020224332
 30
0.0
 40
1.0
100
AcDbArc
 50
270.0
 51
0.0
  0
LINE
  5
225B
330
2245
100
AcDbEntity
  8
0
100
AcDbLine
 10
77.14999937072111
 20
28.57500020224333
 30
0.0
 11
94.24999937072104
 21
28.57500020224333
 31
0.0
  0
LINE
  5
225C
330
2245
100
AcDbEntity
  8
0
100
AcDbLine
 10
96.24999937072104
 20
4.762500202243302
 30
0.0
 11
113.299999370721
 21
4.762500202243302
 31
0.0
  0
ARC
  5
225D
330
2245
100
AcDbEntity
  8
0
100
AcDbCircle
 10
113.299999370721
 20
3.762500202243302
 30
0.0
 40
1.0
100
AcDbArc
 50
0.0
 51
90.0
  0
LINE
  5
225E
330
2245
100
AcDbEntity
  8
0
100
AcDbLine
 10
115.299999370721
 20
2.4765002022433
 30
0.0
 11
132.349999370721
 21
2.4765002022433
 31
0.0
  0
ARC
  5
225F
330
2245
100
AcDbEntity
  8
0
100
AcDbCircle
 10
132.349999370721
 20
1.4765002022433
 30
0.0
 40
1.0
100
AcDbArc
 50
0.0
 51
90.0
  0
LINE
  5
2260
330
2245
100
AcDbEntity
  8
0
100
AcDbLine
 10
134.349999370721
 20
0.0000002022433137
 30
0.0
 11
151.349999370721
 21
0.0000002022433137
 31
0.0
  0
ARC
  5
2261
330
2245
100
AcDbEntity
  8
0
100
AcDbCircle
 10
134.349999370721
 20
1.000000202243313
 30
0.0
 40
1.0
100
AcDbArc
 50
180.0
 51
270.0
  0
ARC
  5
2262
330
2245
100
AcDbEntity
  8
0
100
AcDbCircle
 10
151.349999370721
 20
1.000000202243313
 30
0.0
 40
1.0
100
AcDbArc
 50
270.0
 51
0.0
  0
LINE
  5
2263
330
2245
100
AcDbEntity
  8
0
100
AcDbLine
 10
19.04999937072108
 20
37.10000020224334
 30
0.0
 11
19.04999937072108
 21
15.28750020224333
 31
0.0
  0
ARC
  5
2264
330
2245
100
AcDbEntity
  8
0
100
AcDbCircle
 10
18.04999937072108
 20
37.10000020224334
 30
0.0
 40
1.0
100
AcDbArc
 50
0.0
 51
90.0
  0
LINE
  5
2265
330
2245
100
AcDbEntity
  8
0
100
AcDbLine
 10
0.999999370721067
 20
38.10000020224331
 30
0.0
 11
18.04999937072108
 21
38.10000020224331
 31
0.0
  0
LINE
  5
2266
330
2245
100
AcDbEntity
  8
0
100
AcDbLine
 10
-0.000000629278933
 20
56.10000020224333
 30
0.0
 11
-0.000000629278933
 21
39.10000020224331
 31
0.0
  0
ARC
  5
2267
330
2245
100
AcDbEntity
  8
0
100
AcDbCircle
 10
0.999999370721067
 20
39.10000020224331
 30
0.0
 40
1.0
100
AcDbArc
 50
180.0
 51
270.0
  0
ARC
  5
2268
330
2245
100
AcDbEntity
  8
0
100
AcDbCircle
 10
0.999999370721067
 20
56.10000020224333
 30
0.0
 40
1.0
100
AcDbArc
 50
90.0
 51
180.0
  0
LINE
  5
2269
330
2245
100
AcDbEntity
  8
0
100
AcDbLine
 10
0.999999370721067
 20
57.10000020224334
 30
0.0
 11
17.99999937072107
 21
57.10000020224334
 31
0.0
  0
ARC
  5
226A
330
2245
100
AcDbEntity
  8
0
100
AcDbCircle
 10
17.99999937072107
 20
58.10000020224333
 30
0.0
 40
1.0
100
AcDbArc
 50
270.0
 51
0.0
  0
ARC
  5
226B
330
2245
100
AcDbEntity
  8
0
100
AcDbCircle
 10
19.99999937072107
 20
70.3875002022433
 30
0.0
 40
1.0
100
AcDbArc
 50
90.0
 51
180.0
  0
LINE
  5
226C
330
2245
100
AcDbEntity
  8
0
100
AcDbLine
 10
38.09999946307248
 20
72.86400029265371
 30
0.0
 11
38.09999946307248
 21
72.3875002022433
 31
0.0
  0
ARC
  5
226D
330
2245
100
AcDbEntity
  8
0
100
AcDbCircle
 10
39.09999946307246
 20
72.86400029265371
 30
0.0
 40
1.0
100
AcDbArc
 50
90.0
 51
180.0
  0
LINE
  5
226E
330
2245
100
AcDbEntity
  8
0
100
AcDbLine
 10
57.14999946307246
 20
79.9125002926537
 30
0.0
 11
57.14999946307246
 21
74.86400029265372
 31
0.0
  0
ARC
  5
226F
330
2245
100
AcDbEntity
  8
0
100
AcDbCircle
 10
58.14999946307246
 20
79.9125002926537
 30
0.0
 40
1.0
100
AcDbArc
 50
90.0
 51
180.0
  0
LINE
  5
2270
330
2245
100
AcDbEntity
  8
0
100
AcDbLine
 10
76.19999946307245
 20
84.67500029265371
 30
0.0
 11
76.19999946307245
 21
81.9125002926537
 31
0.0
  0
ARC
  5
2271
330
2245
100
AcDbEntity
  8
0
100
AcDbCircle
 10
77.19999946307244
 20
84.67500029265371
 30
0.0
 40
1.0
100
AcDbArc
 50
90.0
 51
180.0
  0
LINE
  5
2272
330
2245
100
AcDbEntity
  8
0
100
AcDbLine
 10
95.1999994630724
 20
84.67500029265371
 30
0.0
 11
95.1999994630724
 21
81.9125002926537
 31
0.0
  0
ARC
  5
2273
330
2245
100
AcDbEntity
  8
0
100
AcDbCircle
 10
96.1999994630724
 20
81.9125002926537
 30
0.0
 40
1.0
100
AcDbArc
 50
180.0
 51
270.0
  0
ARC
  5
2274
330
2245
100
AcDbEntity
  8
0
100
AcDbCircle
 10
94.19999946307241
 20
84.67500029265371
 30
0.0
 40
1.0
100
AcDbArc
 50
0.0
 51
90.0
  0
LINE
  5
2275
330
2245
100
AcDbEntity
  8
0
100
AcDbLine
 10
114.2499994630725
 20
79.9125002926537
 30
0.0
 11
114.2499994630725
 21
79.62650020224334
 31
0.0
  0
ARC
  5
2276
330
2245
100
AcDbEntity
  8
0
100
AcDbCircle
 10
115.2499994630725
 20
79.62650020224334
 30
0.0
 40
1.0
100
AcDbArc
 50
180.0
 51
270.0
  0
LINE
  5
2277
330
2245
100
AcDbEntity
  8
0
100
AcDbLine
 10
133.349999370721
 20
1.4765002022433
 30
0.0
 11
133.349999370721
 21
1.000000202243313
 31
0.0
  0
LINE
  5
2278
330
2245
100
AcDbEntity
  8
0
100
AcDbLine
 10
114.299999370721
 20
3.762500202243302
 30
0.0
 11
114.299999370721
 21
3.4765002022433
 31
0.0
  0
ARC
  5
2279
330
2245
100
AcDbEntity
  8
0
100
AcDbCircle
 10
115.299999370721
 20
3.4765002022433
 30
0.0
 40
1.0
100
AcDbArc
 50
180.0
 51
270.0
  0
LINE
  5
227A
330
2245
100
AcDbEntity
  8
0
100
AcDbLine
 10
76.14999937072105
 20
27.57500020224333
 30
0.0
 11
76.14999937072105
 21
24.81250020224332
 31
0.0
  0
ARC
  5
227B
330
2245
100
AcDbEntity
  8
0
100
AcDbCircle
 10
77.14999937072111
 20
27.57500020224333
 30
0.0
 40
1.0
100
AcDbArc
 50
90.0
 51
180.0
  0
LINE
  5
227C
330
2245
100
AcDbEntity
  8
0
100
AcDbLine
 10
57.09999937072106
 20
22.81250020224331
 30
0.0
 11
57.09999937072106
 21
17.76400020224329
 31
0.0
  0
ARC
  5
227D
330
2245
100
AcDbEntity
  8
0
100
AcDbCircle
 10
58.09999937072106
 20
22.81250020224331
 30
0.0
 40
1.0
100
AcDbArc
 50
90.0
 51
180.0
  0
LINE
  5
227E
330
2245
100
AcDbEntity
  8
0
100
AcDbLine
 10
38.04999937072107
 20
15.76400020224329
 30
0.0
 11
38.04999937072107
 21
15.28750020224333
 31
0.0
  0
ARC
  5
227F
330
2245
100
AcDbEntity
  8
0
100
AcDbCircle
 10
39.04999937072106
 20
15.76400020224329
 30
0.0
 40
1.0
100
AcDbArc
 50
90.0
 51
180.0
  0
CIRCLE
  5
2280
330
2245
100
AcDbEntity
  8
0
100
AcDbCircle
 10
114.2749993707211
 20
22.64450020224331
 30
0.0
 40
1.0
  0
CIRCLE
  5
2281
330
2245
100
AcDbEntity
  8
0
100
AcDbCircle
 10
18.99999937072108
 20
52.33750020224332
 30
0.0
 40
1.0
  0
CIRCLE
  5
2282
330
2245
100
AcDbEntity
  8
0
100
AcDbCircle
 10
38.07499937072107
 20
34.55075020224331
 30
0.0
 40
1.0
  0
CIRCLE
  5
2283
330
2245
100
AcDbEntity
  8
0
100
AcDbCircle
 10
76.11993560321457
 20
64.28278873702843
 30
0.0
 40
1.0
  0
CIRCLE
  5
2284
330
2245
100
AcDbEntity
  8
0
100
AcDbCircle
 10
114.2749993707211
 20
60.7445002022433
 30
0.0
 40
1.0
  0
ARC
  5
2285
330
2245
100
AcDbEntity
  8
0
100
AcDbCircle
 10
134.299999370721
 20
20.00000020224331
 30
0.0
 40
1.0
100
AcDbArc
 50
180.0
 51
270.0
  0
LINE
  5
2286
330
2245
100
AcDbEntity
  8
0
100
AcDbLine
 10
134.299999370721
 20
19.00000020224331
 30
0.0
 11
152.349999370721
 21
19.00000020224331
 31
0.0
  0
LINE
  5
2287
330
2245
100
AcDbEntity
  8
0
100
AcDbLine
 10
152.349999370721
 20
1.000000202243313
 30
0.0
 11
152.349999370721
 21
19.00000020224331
 31
0.0
  0
LINE
  5
2288
330
2245
100
AcDbEntity
  8
0
100
AcDbLine
 10
18.99999937072107
 20
70.3875002022433
 30
0.0
 11
18.99999937072106
 21
58.10000020224333
 31
0.0
  0
LINE
  5
2289
330
2245
100
AcDbEntity
  8
0
100
AcDbLine
 10
133.299999370721
 20
20.00000020224331
 30
0.0
 11
133.299999370721
 21
77.62650020224327
 31
0.0
  0
ENDBLK
  5
228D
330
2245
100
AcDbEntity
  8
0
100
AcDbBlockEnd
  0
ENDSEC
  0
SECTION
  2
ENTITIES
  0
LINE
  5
59B
330
1F
100
AcDbEntity
  8
0
100
AcDbLine
 10
80.96758067710878
 20
84.40897815885129
 30
0.0
 11
93.96758067710878
 21
84.40897815885129
 31
0.0
  0
LINE
  5
59C
330
1F
100
AcDbEntity
  8
0
100
AcDbLine
 10
80.96758067710878
 20
70.40897815885131
 30
0.0
 11
93.96758067710878
 21
70.40897815885131
 31
0.0
  0
LINE
  5
59D
330
1F
100
AcDbEntity
  8
0
100
AcDbLine
 10
80.46758067710877
 20
83.9089781588513
 30
0.0
 11
80.46758067710877
 21
70.90897815885131
 31
0.0
  0
LINE
  5
59E
330
1F
100
AcDbEntity
  8
0
100
AcDbLine
 10
94.46758067710868
 20
83.9089781588513
 30
0.0
 11
94.46758067710868
 21
70.90897815885131
 31
0.0
  0
ARC
  5
59F
330
1F
100
AcDbEntity
  8
0
100
AcDbCircle
 10
80.96758067710878
 20
83.9089781588513
 30
0.0
 40
0.5
100
AcDbArc
 50
90.0
 51
180.0
  0
ARC
  5
5A0
330
1F
100
AcDbEntity
  8
0
100
AcDbCircle
 10
93.96758067710878
 20
83.9089781588513
 30
0.0
 40
0.5
100
AcDbArc
 50
0.0
 51
90.0
  0
ARC
  5
5A1
330
1F
100
AcDbEntity
  8
0
100
AcDbCircle
 10
80.96758067710878
 20
70.90897815885131
 30
0.0
 40
0.5
100
AcDbArc
 50
180.0
 51
270.0
  0
ARC
  5
5A2
330
1F
100
AcDbEntity
  8
0
100
AcDbCircle
 10
93.96758067710878
 20
70.90897815885131
 30
0.0
 40
0.5
100
AcDbArc
 50
270.0
 51
0.0
  0
LINE
  5
5A3
330
1F
100
AcDbEntity
  8
0
100
AcDbLine
 10
61.91758067710875
 20
79.64647815885129
 30
0.0
 11
74.91758067710875
 21
79.64647815885129
 31
0.0
  0
LINE
  5
5A4
330
1F
100
AcDbEntity
  8
0
100
AcDbLine
 10
61.91758067710875
 20
65.6464781588513
 30
0.0
 11
74.91758067710875
 21
65.6464781588513
 31
0.0
  0
LINE
  5
5A5
330
1F
100
AcDbEntity
  8
0
100
AcDbLine
 10
61.41758067710874
 20
79.14647815885129
 30
0.0
 11
61.41758067710874
 21
66.14647815885131
 31
0.0
  0
LINE
  5
5A6
330
1F
100
AcDbEntity
  8
0
100
AcDbLine
 10
75.41758067710873
 20
79.14647815885129
 30
0.0
 11
75.41758067710873
 21
66.14647815885131
 31
0.0
  0
ARC
  5
5A7
330
1F
100
AcDbEntity
  8
0
100
AcDbCircle
 10
61.91758067710875
 20
79.14647815885129
 30
0.0
 40
0.5
100
AcDbArc
 50
90.0
 51
180.0
  0
ARC
  5
5A8
330
1F
100
AcDbEntity
  8
0
100
AcDbCircle
 10
74.91758067710875
 20
79.14647815885129
 30
0.0
 40
0.5
100
AcDbArc
 50
0.0
 51
90.0
  0
ARC
  5
5A9
330
1F
100
AcDbEntity
  8
0
100
AcDbCircle
 10
61.91758067710875
 20
66.14647815885131
 30
0.0
 40
0.5
100
AcDbArc
 50
180.0
 51
270.0
  0
ARC
  5
5AA
330
1F
100
AcDbEntity
  8
0
100
AcDbCircle
 10
74.91758067710875
 20
66.14647815885131
 30
0.0
 40
0.5
100
AcDbArc
 50
270.0
 51
0.0
  0
LINE
  5
5AB
330
1F
100
AcDbEntity
  8
0
100
AcDbLine
 10
100.0175806771087
 20
79.64647815885129
 30
0.0
 11
113.0175806771088
 21
79.64647815885129
 31
0.0
  0
LINE
  5
5AC
330
1F
100
AcDbEntity
  8
0
100
AcDbLine
 10
100.0175806771087
 20
65.6464781588513
 30
0.0
 11
113.0175806771088
 21
65.6464781588513
 31
0.0
  0
LINE
  5
5AD
330
1F
100
AcDbEntity
  8
0
100
AcDbLine
 10
99.51758067710878
 20
79.14647815885129
 30
0.0
 11
99.51758067710878
 21
66.14647815885131
 31
0.0
  0
LINE
  5
5AE
330
1F
100
AcDbEntity
  8
0
100
AcDbLine
 10
113.5175806771087
 20
79.14647815885129
 30
0.0
 11
113.5175806771087
 21
66.14647815885131
 31
0.0
  0
ARC
  5
5AF
330
1F
100
AcDbEntity
  8
0
100
AcDbCircle
 10
100.0175806771087
 20
79.14647815885129
 30
0.0
 40
0.5
100
AcDbArc
 50
90.0
 51
180.0
  0
ARC
  5
5B0
330
1F
100
AcDbEntity
  8
0
100
AcDbCircle
 10
113.0175806771088
 20
79.14647815885129
 30
0.0
 40
0.5
100
AcDbArc
 50
0.0
 51
90.0
  0
ARC
  5
5B1
330
1F
100
AcDbEntity
  8
0
100
AcDbCircle
 10
100.0175806771087
 20
66.14647815885131
 30
0.0
 40
0.5
100
AcDbArc
 50
180.0
 51
270.0
  0
ARC
  5
5B2
330
1F
100
AcDbEntity
  8
0
100
AcDbCircle
 10
113.0175806771088
 20
66.14647815885131
 30
0.0
 40
0.5
100
AcDbArc
 50
270.0
 51
0.0
  0
LINE
  5
5B3
330
1F
100
AcDbEntity
  8
0
100
AcDbLine
 10
119.0675806771087
 20
77.36047815885129
 30
0.0
 11
132.0675806771087
 21
77.36047815885129
 31
0.0
  0
LINE
  5
5B4
330
1F
100
AcDbEntity
  8
0
100
AcDbLine
 10
119.0675806771087
 20
63.36047815885128
 30
0.0
 11
132.0675806771087
 21
63.36047815885128
 31
0.0
  0
LINE
  5
5B5
330
1F
100
AcDbEntity
  8
0
100
AcDbLine
 10
118.5675806771088
 20
76.86047815885129
 30
0.0
 11
118.5675806771088
 21
63.86047815885127
 31
0.0
  0
LINE
  5
5B6
330
1F
100
AcDbEntity
  8
0
100
AcDbLine
 10
132.5675806771086
 20
76.86047815885129
 30
0.0
 11
132.5675806771086
 21
63.86047815885127
 31
0.0
  0
ARC
  5
5B7
330
1F
100
AcDbEntity
  8
0
100
AcDbCircle
 10
119.0675806771087
 20
76.86047815885129
 30
0.0
 40
0.5
100
AcDbArc
 50
90.0
 51
180.0
  0
ARC
  5
5B8
330
1F
100
AcDbEntity
  8
0
100
AcDbCircle
 10
132.0675806771087
 20
76.86047815885129
 30
0.0
 40
0.5
100
AcDbArc
 50
0.0
 51
90.0
  0
ARC
  5
5B9
330
1F
100
AcDbEntity
  8
0
100
AcDbCircle
 10
119.0675806771087
 20
63.86047815885127
 30
0.0
 40
0.5
100
AcDbArc
 50
180.0
 51
270.0
  0
ARC
  5
5BA
330
1F
100
AcDbEntity
  8
0
100
AcDbCircle
 10
132.0675806771087
 20
63.86047815885127
 30
0.0
 40
0.5
100
AcDbArc
 50
270.0
 51
0.0
  0
LINE
  5
5BB
330
1F
100
AcDbEntity
  8
0
100
AcDbLine
 10
42.86758067710876
 20
72.5979781588513
 30
0.0
 11
55.86758067710874
 21
72.5979781588513
 31
0.0
  0
LINE
  5
5BC
330
1F
100
AcDbEntity
  8
0
100
AcDbLine
 10
42.86758067710876
 20
58.5979781588513
 30
0.0
 11
55.86758067710874
 21
58.5979781588513
 31
0.0
  0
LINE
  5
5BD
330
1F
100
AcDbEntity
  8
0
100
AcDbLine
 10
42.36758067710876
 20
72.09797815885131
 30
0.0
 11
42.36758067710876
 21
59.09797815885129
 31
0.0
  0
LINE
  5
5BE
330
1F
100
AcDbEntity
  8
0
100
AcDbLine
 10
56.36758067710875
 20
72.09797815885131
 30
0.0
 11
56.36758067710875
 21
59.09797815885129
 31
0.0
  0
ARC
  5
5BF
330
1F
100
AcDbEntity
  8
0
100
AcDbCircle
 10
42.86758067710876
 20
72.09797815885131
 30
0.0
 40
0.5
100
AcDbArc
 50
90.0
 51
180.0
  0
ARC
  5
5C0
330
1F
100
AcDbEntity
  8
0
100
AcDbCircle
 10
55.86758067710874
 20
72.09797815885131
 30
0.0
 40
0.5
100
AcDbArc
 50
0.0
 51
90.0
  0
ARC
  5
5C1
330
1F
100
AcDbEntity
  8
0
100
AcDbCircle
 10
42.86758067710876
 20
59.09797815885129
 30
0.0
 40
0.5
100
AcDbArc
 50
180.0
 51
270.0
  0
ARC
  5
5C2
330
1F
100
AcDbEntity
  8
0
100
AcDbCircle
 10
55.86758067710874
 20
59.09797815885129
 30
0.0
 40
0.5
100
AcDbArc
 50
270.0
 51
0.0
  0
LINE
  5
5C3
330
1F
100
AcDbEntity
  8
0
100
AcDbLine
 10
23.81758067710876
 20
70.1214781588513
 30
0.0
 11
36.81758067710876
 21
70.1214781588513
 31
0.0
  0
LINE
  5
5C4
330
1F
100
AcDbEntity
  8
0
100
AcDbLine
 10
23.81758067710876
 20
56.12147815885129
 30
0.0
 11
36.81758067710876
 21
56.12147815885129
 31
0.0
  0
LINE
  5
5C5
330
1F
100
AcDbEntity
  8
0
100
AcDbLine
 10
23.31758067710877
 20
69.6214781588513
 30
0.0
 11
23.31758067710877
 21
56.62147815885129
 31
0.0
  0
LINE
  5
5C6
330
1F
100
AcDbEntity
  8
0
100
AcDbLine
 10
37.31758067710875
 20
69.6214781588513
 30
0.0
 11
37.31758067710875
 21
56.62147815885129
 31
0.0
  0
ARC
  5
5C7
330
1F
100
AcDbEntity
  8
0
100
AcDbCircle
 10
23.81758067710876
 20
69.6214781588513
 30
0.0
 40
0.5
100
AcDbArc
 50
90.0
 51
180.0
  0
ARC
  5
5C8
330
1F
100
AcDbEntity
  8
0
100
AcDbCircle
 10
36.81758067710876
 20
69.6214781588513
 30
0.0
 40
0.5
100
AcDbArc
 50
0.0
 51
90.0
  0
ARC
  5
5C9
330
1F
100
AcDbEntity
  8
0
100
AcDbCircle
 10
23.81758067710876
 20
56.62147815885129
 30
0.0
 40
0.5
100
AcDbArc
 50
180.0
 51
270.0
  0
ARC
  5
5CA
330
1F
100
AcDbEntity
  8
0
100
AcDbCircle
 10
36.81758067710876
 20
56.62147815885129
 30
0.0
 40
0.5
100
AcDbArc
 50
270.0
 51
0.0
  0
LINE
  5
5CB
330
1F
100
AcDbEntity
  8
0
100
AcDbLine
 10
80.96758067710878
 20
65.3589781588513
 30
0.0
 11
93.96758067710878
 21
65.3589781588513
 31
0.0
  0
LINE
  5
5CC
330
1F
100
AcDbEntity
  8
0
100
AcDbLine
 10
80.96758067710878
 20
51.3589781588513
 30
0.0
 11
93.96758067710878
 21
51.3589781588513
 31
0.0
  0
LINE
  5
5CD
330
1F
100
AcDbEntity
  8
0
100
AcDbLine
 10
80.46758067710877
 20
64.8589781588513
 30
0.0
 11
80.46758067710877
 21
51.8589781588513
 31
0.0
  0
LINE
  5
5CE
330
1F
100
AcDbEntity
  8
0
100
AcDbLine
 10
94.46758067710868
 20
64.8589781588513
 30
0.0
 11
94.46758067710868
 21
51.8589781588513
 31
0.0
  0
ARC
  5
5CF
330
1F
100
AcDbEntity
  8
0
100
AcDbCircle
 10
80.96758067710878
 20
64.8589781588513
 30
0.0
 40
0.5
100
AcDbArc
 50
90.0
 51
180.0
  0
ARC
  5
5D0
330
1F
100
AcDbEntity
  8
0
100
AcDbCircle
 10
93.96758067710878
 20
64.8589781588513
 30
0.0
 40
0.5
100
AcDbArc
 50
0.0
 51
90.0
  0
ARC
  5
5D1
330
1F
100
AcDbEntity
  8
0
100
AcDbCircle
 10
80.96758067710878
 20
51.8589781588513
 30
0.0
 40
0.5
100
AcDbArc
 50
180.0
 51
270.0
  0
ARC
  5
5D2
330
1F
100
AcDbEntity
  8
0
100
AcDbCircle
 10
93.96758067710878
 20
51.8589781588513
 30
0.0
 40
0.5
100
AcDbArc
 50
270.0
 51
0.0
  0
LINE
  5
5D3
330
1F
100
AcDbEntity
  8
0
100
AcDbLine
 10
61.91758067710875
 20
60.59647815885131
 30
0.0
 11
74.91758067710875
 21
60.59647815885131
 31
0.0
  0
LINE
  5
5D4
330
1F
100
AcDbEntity
  8
0
100
AcDbLine
 10
61.91758067710875
 20
46.59647815885128
 30
0.0
 11
74.91758067710875
 21
46.59647815885128
 31
0.0
  0
LINE
  5
5D5
330
1F
100
AcDbEntity
  8
0
100
AcDbLine
 10
61.41758067710874
 20
60.09647815885131
 30
0.0
 11
61.41758067710874
 21
47.09647815885129
 31
0.0
  0
LINE
  5
5D6
330
1F
100
AcDbEntity
  8
0
100
AcDbLine
 10
75.41758067710873
 20
60.09647815885131
 30
0.0
 11
75.41758067710873
 21
47.09647815885129
 31
0.0
  0
ARC
  5
5D7
330
1F
100
AcDbEntity
  8
0
100
AcDbCircle
 10
61.91758067710875
 20
60.09647815885131
 30
0.0
 40
0.5
100
AcDbArc
 50
90.0
 51
180.0
  0
ARC
  5
5D8
330
1F
100
AcDbEntity
  8
0
100
AcDbCircle
 10
74.91758067710875
 20
60.09647815885131
 30
0.0
 40
0.5
100
AcDbArc
 50
0.0
 51
90.0
  0
ARC
  5
5D9
330
1F
100
AcDbEntity
  8
0
100
AcDbCircle
 10
61.91758067710875
 20
47.09647815885129
 30
0.0
 40
0.5
100
AcDbArc
 50
180.0
 51
270.0
  0
ARC
  5
5DA
330
1F
100
AcDbEntity
  8
0
100
AcDbCircle
 10
74.91758067710875
 20
47.09647815885129
 30
0.0
 40
0.5
100
AcDbArc
 50
270.0
 51
0.0
  0
LINE
  5
5DB
330
1F
100
AcDbEntity
  8
0
100
AcDbLine
 10
100.0175806771087
 20
60.59647815885131
 30
0.0
 11
113.0175806771088
 21
60.59647815885131
 31
0.0
  0
LINE
  5
5DC
330
1F
100
AcDbEntity
  8
0
100
AcDbLine
 10
100.0175806771087
 20
46.59647815885128
 30
0.0
 11
113.0175806771088
 21
46.59647815885128
 31
0.0
  0
LINE
  5
5DD
330
1F
100
AcDbEntity
  8
0
100
AcDbLine
 10
99.51758067710878
 20
60.09647815885131
 30
0.0
 11
99.51758067710878
 21
47.09647815885129
 31
0.0
  0
LINE
  5
5DE
330
1F
100
AcDbEntity
  8
0
100
AcDbLine
 10
113.5175806771087
 20
60.09647815885131
 30
0.0
 11
113.5175806771087
 21
47.09647815885129
 31
0.0
  0
ARC
  5
5DF
330
1F
100
AcDbEntity
  8
0
100
AcDbCircle
 10
100.0175806771087
 20
60.09647815885131
 30
0.0
 40
0.5
100
AcDbArc
 50
90.0
 51
180.0
  0
ARC
  5
5E0
330
1F
100
AcDbEntity
  8
0
100
AcDbCircle
 10
113.0175806771088
 20
60.09647815885131
 30
0.0
 40
0.5
100
AcDbArc
 50
0.0
 51
90.0
  0
ARC
  5
5E1
330
1F
100
AcDbEntity
  8
0
100
AcDbCircle
 10
100.0175806771087
 20
47.09647815885129
 30
0.0
 40
0.5
100
AcDbArc
 50
180.0
 51
270.0
  0
ARC
  5
5E2
330
1F
100
AcDbEntity
  8
0
100
AcDbCircle
 10
113.0175806771088
 20
47.09647815885129
 30
0.0
 40
0.5
100
AcDbArc
 50
270.0
 51
0.0
  0
LINE
  5
5E3
330
1F
100
AcDbEntity
  8
0
100
AcDbLine
 10
119.0675806771087
 20
58.31047815885129
 30
0.0
 11
132.0675806771087
 21
58.31047815885129
 31
0.0
  0
LINE
  5
5E4
330
1F
100
AcDbEntity
  8
0
100
AcDbLine
 10
119.0675806771087
 20
44.31047815885128
 30
0.0
 11
132.0675806771087
 21
44.31047815885128
 31
0.0
  0
LINE
  5
5E5
330
1F
100
AcDbEntity
  8
0
100
AcDbLine
 10
118.5675806771088
 20
57.81047815885129
 30
0.0
 11
118.5675806771088
 21
44.81047815885129
 31
0.0
  0
LINE
  5
5E6
330
1F
100
AcDbEntity
  8
0
100
AcDbLine
 10
132.5675806771086
 20
57.81047815885129
 30
0.0
 11
132.5675806771086
 21
44.81047815885129
 31
0.0
  0
ARC
  5
5E7
330
1F
100
AcDbEntity
  8
0
100
AcDbCircle
 10
119.0675806771087
 20
57.81047815885129
 30
0.0
 40
0.5
100
AcDbArc
 50
90.0
 51
180.0
  0
ARC
  5
5E8
330
1F
100
AcDbEntity
  8
0
100
AcDbCircle
 10
132.0675806771087
 20
57.81047815885129
 30
0.0
 40
0.5
100
AcDbArc
 50
0.0
 51
90.0
  0
ARC
  5
5E9
330
1F
100
AcDbEntity
  8
0
100
AcDbCircle
 10
119.0675806771087
 20
44.81047815885129
 30
0.0
 40
0.5
100
AcDbArc
 50
180.0
 51
270.0
  0
ARC
  5
5EA
330
1F
100
AcDbEntity
  8
0
100
AcDbCircle
 10
132.0675806771087
 20
44.81047815885129
 30
0.0
 40
0.5
100
AcDbArc
 50
270.0
 51
0.0
  0
LINE
  5
5EB
330
1F
100
AcDbEntity
  8
0
100
AcDbLine
 10
4.767580677108758
 20
55.83397815885128
 30
0.0
 11
17.76758067710877
 21
55.83397815885128
 31
0.0
  0
LINE
  5
5EC
330
1F
100
AcDbEntity
  8
0
100
AcDbLine
 10
4.767580677108758
 20
41.83397815885128
 30
0.0
 11
17.76758067710877
 21
41.83397815885128
 31
0.0
  0
LINE
  5
5ED
330
1F
100
AcDbEntity
  8
0
100
AcDbLine
 10
4.267580677108758
 20
55.33397815885129
 30
0.0
 11
4.267580677108758
 21
42.33397815885131
 31
0.0
  0
LINE
  5
5EE
330
1F
100
AcDbEntity
  8
0
100
AcDbLine
 10
18.26758067710876
 20
55.33397815885129
 30
0.0
 11
18.26758067710876
 21
42.33397815885131
 31
0.0
  0
ARC
  5
5EF
330
1F
100
AcDbEntity
  8
0
100
AcDbCircle
 10
4.767580677108758
 20
55.33397815885129
 30
0.0
 40
0.5
100
AcDbArc
 50
90.0
 51
180.0
  0
ARC
  5
5F0
330
1F
100
AcDbEntity
  8
0
100
AcDbCircle
 10
17.76758067710877
 20
55.33397815885129
 30
0.0
 40
0.5
100
AcDbArc
 50
0.0
 51
90.0
  0
ARC
  5
5F1
330
1F
100
AcDbEntity
  8
0
100
AcDbCircle
 10
4.767580677108758
 20
42.33397815885131
 30
0.0
 40
0.5
100
AcDbArc
 50
180.0
 51
270.0
  0
ARC
  5
5F2
330
1F
100
AcDbEntity
  8
0
100
AcDbCircle
 10
17.76758067710877
 20
42.33397815885131
 30
0.0
 40
0.5
100
AcDbArc
 50
270.0
 51
0.0
  0
LINE
  5
5F3
330
1F
100
AcDbEntity
  8
0
100
AcDbLine
 10
42.86758067710876
 20
53.5479781588513
 30
0.0
 11
55.86758067710874
 21
53.5479781588513
 31
0.0
  0
LINE
  5
5F4
330
1F
100
AcDbEntity
  8
0
100
AcDbLine
 10
42.86758067710876
 20
39.54797815885129
 30
0.0
 11
55.86758067710874
 21
39.54797815885129
 31
0.0
  0
LINE
  5
5F5
330
1F
100
AcDbEntity
  8
0
100
AcDbLine
 10
42.36758067710876
 20
53.0479781588513
 30
0.0
 11
42.36758067710876
 21
40.04797815885129
 31
0.0
  0
LINE
  5
5F6
330
1F
100
AcDbEntity
  8
0
100
AcDbLine
 10
56.36758067710875
 20
53.0479781588513
 30
0.0
 11
56.36758067710875
 21
40.04797815885129
 31
0.0
  0
ARC
  5
5F7
330
1F
100
AcDbEntity
  8
0
100
AcDbCircle
 10
42.86758067710876
 20
53.0479781588513
 30
0.0
 40
0.5
100
AcDbArc
 50
90.0
 51
180.0
  0
ARC
  5
5F8
330
1F
100
AcDbEntity
  8
0
100
AcDbCircle
 10
55.86758067710874
 20
53.0479781588513
 30
0.0
 40
0.5
100
AcDbArc
 50
0.0
 51
90.0
  0
ARC
  5
5F9
330
1F
100
AcDbEntity
  8
0
100
AcDbCircle
 10
42.86758067710876
 20
40.04797815885129
 30
0.0
 40
0.5
100
AcDbArc
 50
180.0
 51
270.0
  0
ARC
  5
5FA
330
1F
100
AcDbEntity
  8
0
100
AcDbCircle
 10
55.86758067710874
 20
40.04797815885129
 30
0.0
 40
0.5
100
AcDbArc
 50
270.0
 51
0.0
  0
LINE
  5
5FB
330
1F
100
AcDbEntity
  8
0
100
AcDbLine
 10
23.81758067710876
 20
51.0714781588513
 30
0.0
 11
36.81758067710876
 21
51.0714781588513
 31
0.0
  0
LINE
  5
5FC
330
1F
100
AcDbEntity
  8
0
100
AcDbLine
 10
23.81758067710876
 20
37.07147815885129
 30
0.0
 11
36.81758067710876
 21
37.07147815885129
 31
0.0
  0
LINE
  5
5FD
330
1F
100
AcDbEntity
  8
0
100
AcDbLine
 10
23.31758067710877
 20
50.5714781588513
 30
0.0
 11
23.31758067710877
 21
37.57147815885132
 31
0.0
  0
LINE
  5
5FE
330
1F
100
AcDbEntity
  8
0
100
AcDbLine
 10
37.31758067710875
 20
50.5714781588513
 30
0.0
 11
37.31758067710875
 21
37.57147815885132
 31
0.0
  0
ARC
  5
5FF
330
1F
100
AcDbEntity
  8
0
100
AcDbCircle
 10
23.81758067710876
 20
50.5714781588513
 30
0.0
 40
0.5
100
AcDbArc
 50
90.0
 51
180.0
  0
ARC
  5
600
330
1F
100
AcDbEntity
  8
0
100
AcDbCircle
 10
36.81758067710876
 20
50.5714781588513
 30
0.0
 40
0.5
100
AcDbArc
 50
0.0
 51
90.0
  0
ARC
  5
601
330
1F
100
AcDbEntity
  8
0
100
AcDbCircle
 10
23.81758067710876
 20
37.57147815885132
 30
0.0
 40
0.5
100
AcDbArc
 50
180.0
 51
270.0
  0
ARC
  5
602
330
1F
100
AcDbEntity
  8
0
100
AcDbCircle
 10
36.81758067710876
 20
37.57147815885132
 30
0.0
 40
0.5
100
AcDbArc
 50
270.0
 51
0.0
  0
LINE
  5
603
330
1F
100
AcDbEntity
  8
0
100
AcDbLine
 10
80.96758067710878
 20
46.30897815885129
 30
0.0
 11
93.96758067710878
 21
46.30897815885129
 31
0.0
  0
LINE
  5
604
330
1F
100
AcDbEntity
  8
0
100
AcDbLine
 10
80.96758067710878
 20
32.30897815885131
 30
0.0
 11
93.96758067710878
 21
32.30897815885131
 31
0.0
  0
LINE
  5
605
330
1F
100
AcDbEntity
  8
0
100
AcDbLine
 10
80.46758067710877
 20
45.80897815885129
 30
0.0
 11
80.46758067710877
 21
32.8089781588513
 31
0.0
  0
LINE
  5
606
330
1F
100
AcDbEntity
  8
0
100
AcDbLine
 10
94.46758067710868
 20
45.80897815885129
 30
0.0
 11
94.46758067710868
 21
32.8089781588513
 31
0.0
  0
ARC
  5
607
330
1F
100
AcDbEntity
  8
0
100
AcDbCircle
 10
80.96758067710878
 20
45.80897815885129
 30
0.0
 40
0.5
100
AcDbArc
 50
90.0
 51
180.0
  0
ARC
  5
608
330
1F
100
AcDbEntity
  8
0
100
AcDbCircle
 10
93.96758067710878
 20
45.80897815885129
 30
0.0
 40
0.5
100
AcDbArc
 50
0.0
 51
90.0
  0
ARC
  5
609
330
1F
100
AcDbEntity
  8
0
100
AcDbCircle
 10
80.96758067710878
 20
32.8089781588513
 30
0.0
 40
0.5
100
AcDbArc
 50
180.0
 51
270.0
  0
ARC
  5
60A
330
1F
100
AcDbEntity
  8
0
100
AcDbCircle
 10
93.96758067710878
 20
32.8089781588513
 30
0.0
 40
0.5
100
AcDbArc
 50
270.0
 51
0.0
  0
LINE
  5
60B
330
1F
100
AcDbEntity
  8
0
100
AcDbLine
 10
61.91758067710875
 20
41.54647815885128
 30
0.0
 11
74.91758067710875
 21
41.54647815885128
 31
0.0
  0
LINE
  5
60C
330
1F
100
AcDbEntity
  8
0
100
AcDbLine
 10
61.91758067710875
 20
27.5464781588513
 30
0.0
 11
74.91758067710875
 21
27.5464781588513
 31
0.0
  0
LINE
  5
60D
330
1F
100
AcDbEntity
  8
0
100
AcDbLine
 10
61.41758067710874
 20
41.04647815885129
 30
0.0
 11
61.41758067710874
 21
28.0464781588513
 31
0.0
  0
LINE
  5
60E
330
1F
100
AcDbEntity
  8
0
100
AcDbLine
 10
75.41758067710873
 20
41.04647815885129
 30
0.0
 11
75.41758067710873
 21
28.0464781588513
 31
0.0
  0
ARC
  5
60F
330
1F
100
AcDbEntity
  8
0
100
AcDbCircle
 10
61.91758067710875
 20
41.04647815885129
 30
0.0
 40
0.5
100
AcDbArc
 50
90.0
 51
180.0
  0
ARC
  5
610
330
1F
100
AcDbEntity
  8
0
100
AcDbCircle
 10
74.91758067710875
 20
41.04647815885129
 30
0.0
 40
0.5
100
AcDbArc
 50
0.0
 51
90.0
  0
ARC
  5
611
330
1F
100
AcDbEntity
  8
0
100
AcDbCircle
 10
61.91758067710875
 20
28.0464781588513
 30
0.0
 40
0.5
100
AcDbArc
 50
180.0
 51
270.0
  0
ARC
  5
612
330
1F
100
AcDbEntity
  8
0
100
AcDbCircle
 10
74.91758067710875
 20
28.0464781588513
 30
0.0
 40
0.5
100
AcDbArc
 50
270.0
 51
0.0
  0
LINE
  5
613
330
1F
100
AcDbEntity
  8
0
100
AcDbLine
 10
100.0175806771087
 20
41.54647815885128
 30
0.0
 11
113.0175806771088
 21
41.54647815885128
 31
0.0
  0
LINE
  5
614
330
1F
100
AcDbEntity
  8
0
100
AcDbLine
 10
100.0175806771087
 20
27.5464781588513
 30
0.0
 11
113.0175806771088
 21
27.5464781588513
 31
0.0
  0
LINE
  5
615
330
1F
100
AcDbEntity
  8
0
100
AcDbLine
 10
99.51758067710878
 20
41.04647815885129
 30
0.0
 11
99.51758067710878
 21
28.0464781588513
 31
0.0
  0
LINE
  5
616
330
1F
100
AcDbEntity
  8
0
100
AcDbLine
 10
113.5175806771087
 20
41.04647815885129
 30
0.0
 11
113.5175806771087
 21
28.0464781588513
 31
0.0
  0
ARC
  5
617
330
1F
100
AcDbEntity
  8
0
100
AcDbCircle
 10
100.0175806771087
 20
41.04647815885129
 30
0.0
 40
0.5
100
AcDbArc
 50
90.0
 51
180.0
  0
ARC
  5
618
330
1F
100
AcDbEntity
  8
0
100
AcDbCircle
 10
113.0175806771088
 20
41.04647815885129
 30
0.0
 40
0.5
100
AcDbArc
 50
0.0
 51
90.0
  0
ARC
  5
619
330
1F
100
AcDbEntity
  8
0
100
AcDbCircle
 10
100.0175806771087
 20
28.0464781588513
 30
0.0
 40
0.5
100
AcDbArc
 50
180.0
 51
270.0
  0
ARC
  5
61A
330
1F
100
AcDbEntity
  8
0
100
AcDbCircle
 10
113.0175806771088
 20
28.0464781588513
 30
0.0
 40
0.5
100
AcDbArc
 50
270.0
 51
0.0
  0
LINE
  5
61B
330
1F
100
AcDbEntity
  8
0
100
AcDbLine
 10
119.0675806771087
 20
39.26047815885129
 30
0.0
 11
132.0675806771087
 21
39.26047815885129
 31
0.0
  0
LINE
  5
61C
330
1F
100
AcDbEntity
  8
0
100
AcDbLine
 10
119.0675806771087
 20
25.2604781588513
 30
0.0
 11
132.0675806771087
 21
25.2604781588513
 31
0.0
  0
LINE
  5
61D
330
1F
100
AcDbEntity
  8
0
100
AcDbLine
 10
118.5675806771088
 20
38.76047815885129
 30
0.0
 11
118.5675806771088
 21
25.7604781588513
 31
0.0
  0
LINE
  5
61E
330
1F
100
AcDbEntity
  8
0
100
AcDbLine
 10
132.5675806771086
 20
38.76047815885129
 30
0.0
 11
132.5675806771086
 21
25.7604781588513
 31
0.0
  0
ARC
  5
61F
330
1F
100
AcDbEntity
  8
0
100
AcDbCircle
 10
119.0675806771087
 20
38.76047815885129
 30
0.0
 40
0.5
100
AcDbArc
 50
90.0
 51
180.0
  0
ARC
  5
620
330
1F
100
AcDbEntity
  8
0
100
AcDbCircle
 10
132.0675806771087
 20
38.76047815885129
 30
0.0
 40
0.5
100
AcDbArc
 50
0.0
 51
90.0
  0
ARC
  5
621
330
1F
100
AcDbEntity
  8
0
100
AcDbCircle
 10
119.0675806771087
 20
25.7604781588513
 30
0.0
 40
0.5
100
AcDbArc
 50
180.0
 51
270.0
  0
ARC
  5
622
330
1F
100
AcDbEntity
  8
0
100
AcDbCircle
 10
132.0675806771087
 20
25.7604781588513
 30
0.0
 40
0.5
100
AcDbArc
 50
270.0
 51
0.0
  0
LINE
  5
623
330
1F
100
AcDbEntity
  8
0
100
AcDbLine
 10
42.86758067710876
 20
34.4979781588513
 30
0.0
 11
55.86758067710874
 21
34.4979781588513
 31
0.0
  0
LINE
  5
624
330
1F
100
AcDbEntity
  8
0
100
AcDbLine
 10
42.86758067710876
 20
20.49797815885129
 30
0.0
 11
55.86758067710874
 21
20.49797815885129
 31
0.0
  0
LINE
  5
625
330
1F
100
AcDbEntity
  8
0
100
AcDbLine
 10
42.36758067710876
 20
33.9979781588513
 30
0.0
 11
42.36758067710876
 21
20.9979781588513
 31
0.0
  0
LINE
  5
626
330
1F
100
AcDbEntity
  8
0
100
AcDbLine
 10
56.36758067710875
 20
33.9979781588513
 30
0.0
 11
56.36758067710875
 21
20.9979781588513
 31
0.0
  0
ARC
  5
627
330
1F
100
AcDbEntity
  8
0
100
AcDbCircle
 10
42.86758067710876
 20
33.9979781588513
 30
0.0
 40
0.5
100
AcDbArc
 50
90.0
 51
180.0
  0
ARC
  5
628
330
1F
100
AcDbEntity
  8
0
100
AcDbCircle
 10
55.86758067710874
 20
33.9979781588513
 30
0.0
 40
0.5
100
AcDbArc
 50
0.0
 51
90.0
  0
ARC
  5
629
330
1F
100
AcDbEntity
  8
0
100
AcDbCircle
 10
42.86758067710876
 20
20.9979781588513
 30
0.0
 40
0.5
100
AcDbArc
 50
180.0
 51
270.0
  0
ARC
  5
62A
330
1F
100
AcDbEntity
  8
0
100
AcDbCircle
 10
55.86758067710874
 20
20.9979781588513
 30
0.0
 40
0.5
100
AcDbArc
 50
270.0
 51
0.0
  0
LINE
  5
62B
330
1F
100
AcDbEntity
  8
0
100
AcDbLine
 10
23.81758067710876
 20
32.02147815885131
 30
0.0
 11
36.81758067710876
 21
32.02147815885131
 31
0.0
  0
LINE
  5
62C
330
1F
100
AcDbEntity
  8
0
100
AcDbLine
 10
23.81758067710876
 20
18.0214781588513
 30
0.0
 11
36.81758067710876
 21
18.0214781588513
 31
0.0
  0
LINE
  5
62D
330
1F
100
AcDbEntity
  8
0
100
AcDbLine
 10
23.31758067710877
 20
31.52147815885131
 30
0.0
 11
23.31758067710877
 21
18.5214781588513
 31
0.0
  0
LINE
  5
62E
330
1F
100
AcDbEntity
  8
0
100
AcDbLine
 10
37.31758067710875
 20
31.52147815885131
 30
0.0
 11
37.31758067710875
 21
18.5214781588513
 31
0.0
  0
ARC
  5
62F
330
1F
100
AcDbEntity
  8
0
100
AcDbCircle
 10
23.81758067710876
 20
31.52147815885131
 30
0.0
 40
0.5
100
AcDbArc
 50
90.0
 51
180.0
  0
ARC
  5
630
330
1F
100
AcDbEntity
  8
0
100
AcDbCircle
 10
36.81758067710876
 20
31.52147815885131
 30
0.0
 40
0.5
100
AcDbArc
 50
0.0
 51
90.0
  0
ARC
  5
631
330
1F
100
AcDbEntity
  8
0
100
AcDbCircle
 10
23.81758067710876
 20
18.5214781588513
 30
0.0
 40
0.5
100
AcDbArc
 50
180.0
 51
270.0
  0
ARC
  5
632
330
1F
100
AcDbEntity
  8
0
100
AcDbCircle
 10
36.81758067710876
 20
18.5214781588513
 30
0.0
 40
0.5
100
AcDbArc
 50
270.0
 51
0.0
  0
LINE
  5
633
330
1F
100
AcDbEntity
  8
0
100
AcDbLine
 10
100.0175806771087
 20
22.4964781588513
 30
0.0
 11
113.0175806771088
 21
22.4964781588513
 31
0.0
  0
LINE
  5
634
330
1F
100
AcDbEntity
  8
0
100
AcDbLine
 10
100.0175806771087
 20
8.496478158851299
 30
0.0
 11
113.0175806771088
 21
8.496478158851299
 31
0.0
  0
LINE
  5
635
330
1F
100
AcDbEntity
  8
0
100
AcDbLine
 10
99.51758067710878
 20
21.99647815885131
 30
0.0
 11
99.51758067710878
 21
8.996478158851299
 31
0.0
  0
LINE
  5
636
330
1F
100
AcDbEntity
  8
0
100
AcDbLine
 10
113.5175806771087
 20
21.99647815885131
 30
0.0
 11
113.5175806771087
 21
8.996478158851299
 31
0.0
  0
ARC
  5
637
330
1F
100
AcDbEntity
  8
0
100
AcDbCircle
 10
100.0175806771087
 20
21.99647815885131
 30
0.0
 40
0.5
100
AcDbArc
 50
90.0
 51
180.0
  0
ARC
  5
638
330
1F
100
AcDbEntity
  8
0
100
AcDbCircle
 10
113.0175806771088
 20
21.99647815885131
 30
0.0
 40
0.5
100
AcDbArc
 50
0.0
 51
90.0
  0
ARC
  5
639
330
1F
100
AcDbEntity
  8
0
100
AcDbCircle
 10
100.0175806771087
 20
8.996478158851299
 30
0.0
 40
0.5
100
AcDbArc
 50
180.0
 51
270.0
  0
ARC
  5
63A
330
1F
100
AcDbEntity
  8
0
100
AcDbCircle
 10
113.0175806771088
 20
8.996478158851299
 30
0.0
 40
0.5
100
AcDbArc
 50
270.0
 51
0.0
  0
LINE
  5
63B
330
1F
100
AcDbEntity
  8
0
100
AcDbLine
 10
119.0675806771087
 20
20.2104781588513
 30
0.0
 11
132.0675806771087
 21
20.2104781588513
 31
0.0
  0
LINE
  5
63C
330
1F
100
AcDbEntity
  8
0
100
AcDbLine
 10
119.0675806771087
 20
6.210478158851299
 30
0.0
 11
132.0675806771087
 21
6.210478158851299
 31
0.0
  0
LINE
  5
63D
330
1F
100
AcDbEntity
  8
0
100
AcDbLine
 10
118.5675806771088
 20
19.7104781588513
 30
0.0
 11
118.5675806771088
 21
6.710478158851299
 31
0.0
  0
LINE
  5
63E
330
1F
100
AcDbEntity
  8
0
100
AcDbLine
 10
132.5675806771086
 20
19.7104781588513
 30
0.0
 11
132.5675806771086
 21
6.710478158851299
 31
0.0
  0
ARC
  5
63F
330
1F
100
AcDbEntity
  8
0
100
AcDbCircle
 10
119.0675806771087
 20
19.7104781588513
 30
0.0
 40
0.5
100
AcDbArc
 50
90.0
 51
180.0
  0
ARC
  5
640
330
1F
100
AcDbEntity
  8
0
100
AcDbCircle
 10
132.0675806771087
 20
19.7104781588513
 30
0.0
 40
0.5
100
AcDbArc
 50
0.0
 51
90.0
  0
ARC
  5
641
330
1F
100
AcDbEntity
  8
0
100
AcDbCircle
 10
119.0675806771087
 20
6.710478158851299
 30
0.0
 40
0.5
100
AcDbArc
 50
180.0
 51
270.0
  0
ARC
  5
642
330
1F
100
AcDbEntity
  8
0
100
AcDbCircle
 10
132.0675806771087
 20
6.710478158851299
 30
0.0
 40
0.5
100
AcDbArc
 50
270.0
 51
0.0
  0
LINE
  5
643
330
1F
100
AcDbEntity
  8
0
100
AcDbLine
 10
138.1175806771087
 20
17.7339781588513
 30
0.0
 11
151.1175806771087
 21
17.7339781588513
 31
0.0
  0
LINE
  5
644
330
1F
100
AcDbEntity
  8
0
100
AcDbLine
 10
138.1175806771087
 20
3.733978158851297
 30
0.0
 11
151.1175806771087
 21
3.733978158851297
 31
0.0
  0
LINE
  5
645
330
1F
100
AcDbEntity
  8
0
100
AcDbLine
 10
137.6175806771087
 20
17.23397815885129
 30
0.0
 11
137.6175806771087
 21
4.233978158851297
 31
0.0
  0
LINE
  5
646
330
1F
100
AcDbEntity
  8
0
100
AcDbLine
 10
151.6175806771087
 20
17.23397815885129
 30
0.0
 11
151.6175806771087
 21
4.233978158851297
 31
0.0
  0
ARC
  5
647
330
1F
100
AcDbEntity
  8
0
100
AcDbCircle
 10
138.1175806771087
 20
17.23397815885129
 30
0.0
 40
0.5
100
AcDbArc
 50
90.0
 51
180.0
  0
ARC
  5
648
330
1F
100
AcDbEntity
  8
0
100
AcDbCircle
 10
151.1175806771087
 20
17.23397815885129
 30
0.0
 40
0.5
100
AcDbArc
 50
0.0
 51
90.0
  0
ARC
  5
649
330
1F
100
AcDbEntity
  8
0
100
AcDbCircle
 10
138.1175806771087
 20
4.233978158851297
 30
0.0
 40
0.5
100
AcDbArc
 50
180.0
 51
270.0
  0
ARC
  5
64A
330
1F
100
AcDbEntity
  8
0
100
AcDbCircle
 10
151.1175806771087
 20
4.233978158851297
 30
0.0
 40
0.5
100
AcDbArc
 50
270.0
 51
0.0
  0
LINE
  5
82D
330
1F
100
AcDbEntity
  8
0
100
AcDbLine
 10
21.76758067710875
 20
72.6214781588513
 30
0.0
 11
38.86758076946016
 21
72.6214781588513
 31
0.0
  0
LINE
  5
840
330
1F
100
AcDbEntity
  8
0
100
AcDbLine
 10
97.01758067710869
 20
6.996478158851298
 30
0.0
 11
97.01758067710869
 21
28.80897815885131
 31
0.0
  0
LINE
  5
855
330
1F
100
AcDbEntity
  8
0
100
AcDbLine
 10
40.86758076946014
 20
75.0979782492617
 30
0.0
 11
57.91758076946014
 21
75.0979782492617
 31
0.0
  0
LINE
  5
856
330
1F
100
AcDbEntity
  8
0
100
AcDbLine
 10
59.91758076946014
 20
82.14647824926171
 30
0.0
 11
76.96758076946015
 21
82.14647824926171
 31
0.0
  0
LINE
  5
857
330
1F
100
AcDbEntity
  8
0
100
AcDbLine
 10
78.96758076946013
 20
86.90897824926171
 30
0.0
 11
95.96758076946008
 21
86.90897824926171
 31
0.0
  0
LINE
  5
858
330
1F
100
AcDbEntity
  8
0
100
AcDbLine
 10
97.96758076946009
 20
82.14647824926171
 30
0.0
 11
115.0175807694602
 21
82.14647824926171
 31
0.0
  0
LINE
  5
859
330
1F
100
AcDbEntity
  8
0
100
AcDbLine
 10
117.0175807694602
 20
79.86047815885131
 30
0.0
 11
134.0675806771087
 21
79.86047815885131
 31
0.0
  0
LINE
  5
85D
330
1F
100
AcDbEntity
  8
0
100
AcDbLine
 10
21.81758067710877
 20
15.52147815885131
 30
0.0
 11
38.81758067710876
 21
15.52147815885131
 31
0.0
  0
LINE
  5
85E
330
1F
100
AcDbEntity
  8
0
100
AcDbLine
 10
40.81758067710874
 20
17.99797815885129
 30
0.0
 11
57.86758067710874
 21
17.99797815885129
 31
0.0
  0
LINE
  5
85F
330
1F
100
AcDbEntity
  8
0
100
AcDbLine
 10
59.86758067710876
 20
25.04647815885131
 30
0.0
 11
76.91758067710875
 21
25.04647815885131
 31
0.0
  0
LINE
  5
860
330
1F
100
AcDbEntity
  8
0
100
AcDbLine
 10
78.91758067710878
 20
29.80897815885131
 30
0.0
 11
96.01758067710873
 21
29.80897815885131
 31
0.0
  0
LINE
  5
861
330
1F
100
AcDbEntity
  8
0
100
AcDbLine
 10
98.01758067710872
 20
5.996478158851298
 30
0.0
 11
115.0675806771087
 21
5.996478158851298
 31
0.0
  0
LINE
  5
862
330
1F
100
AcDbEntity
  8
0
100
AcDbLine
 10
117.0675806771087
 20
3.710478158851298
 30
0.0
 11
134.1175806771087
 21
3.710478158851298
 31
0.0
  0
LINE
  5
863
330
1F
100
AcDbEntity
  8
0
100
AcDbLine
 10
136.1175806771087
 20
1.233978158851301
 30
0.0
 11
153.1175806771087
 21
1.233978158851301
 31
0.0
  0
LINE
  5
86B
330
1F
100
AcDbEntity
  8
0
100
AcDbLine
 10
20.81758067710877
 20
38.33397815885131
 30
0.0
 11
20.81758067710877
 21
16.52147815885131
 31
0.0
  0
LINE
  5
86C
330
1F
100
AcDbEntity
  8
0
100
AcDbLine
 10
2.767580677108749
 20
39.33397815885129
 30
0.0
 11
19.81758067710877
 21
39.33397815885129
 31
0.0
  0
LINE
  5
86D
330
1F
100
AcDbEntity
  8
0
100
AcDbLine
 10
1.76758067710875
 20
57.33397815885131
 30
0.0
 11
1.76758067710875
 21
40.3339781588513
 31
0.0
  0
LINE
  5
86E
330
1F
100
AcDbEntity
  8
0
100
AcDbLine
 10
2.767580677108749
 20
58.33397815885131
 30
0.0
 11
19.76758067710875
 21
58.33397815885131
 31
0.0
  0
LINE
  5
870
330
1F
100
AcDbEntity
  8
0
100
AcDbLine
 10
39.86758076946016
 20
74.0979782492617
 30
0.0
 11
39.86758076946016
 21
73.62147815885129
 31
0.0
  0
LINE
  5
871
330
1F
100
AcDbEntity
  8
0
100
AcDbLine
 10
58.91758076946015
 20
81.14647824926171
 30
0.0
 11
58.91758076946015
 21
76.09797824926168
 31
0.0
  0
LINE
  5
872
330
1F
100
AcDbEntity
  8
0
100
AcDbLine
 10
77.96758076946014
 20
85.90897824926171
 30
0.0
 11
77.96758076946014
 21
83.1464782492617
 31
0.0
  0
LINE
  5
873
330
1F
100
AcDbEntity
  8
0
100
AcDbLine
 10
96.96758076946009
 20
85.90897824926171
 30
0.0
 11
96.96758076946009
 21
83.1464782492617
 31
0.0
  0
LINE
  5
874
330
1F
100
AcDbEntity
  8
0
100
AcDbLine
 10
116.0175807694602
 20
81.14647824926171
 30
0.0
 11
116.0175807694602
 21
80.86047815885132
 31
0.0
  0
LINE
  5
875
330
1F
100
AcDbEntity
  8
0
100
AcDbLine
 10
135.1175806771087
 20
2.710478158851301
 30
0.0
 11
135.1175806771087
 21
2.233978158851298
 31
0.0
  0
LINE
  5
876
330
1F
100
AcDbEntity
  8
0
100
AcDbLine
 10
116.0675806771087
 20
4.996478158851299
 30
0.0
 11
116.0675806771087
 21
4.7104781588513
 31
0.0
  0
LINE
  5
877
330
1F
100
AcDbEntity
  8
0
100
AcDbLine
 10
77.91758067710873
 20
28.80897815885131
 30
0.0
 11
77.91758067710873
 21
26.0464781588513
 31
0.0
  0
LINE
  5
878
330
1F
100
AcDbEntity
  8
0
100
AcDbLine
 10
58.86758067710875
 20
24.04647815885131
 30
0.0
 11
58.86758067710875
 21
18.99797815885129
 31
0.0
  0
LINE
  5
879
330
1F
100
AcDbEntity
  8
0
100
AcDbLine
 10
39.81758067710875
 20
16.99797815885129
 30
0.0
 11
39.81758067710875
 21
16.52147815885131
 31
0.0
  0
ARC
  5
881
330
1F
100
AcDbEntity
  8
0
100
AcDbCircle
 10
40.86758076946014
 20
74.0979782492617
 30
0.0
 40
1.0
100
AcDbArc
 50
90.0
 51
180.0
  0
ARC
  5
884
330
1F
100
AcDbEntity
  8
0
100
AcDbCircle
 10
38.86758076946016
 20
73.62147815885129
 30
0.0
 40
1.0
100
AcDbArc
 50
270.0
 51
0.0
  0
ARC
  5
885
330
1F
100
AcDbEntity
  8
0
100
AcDbCircle
 10
57.91758076946014
 20
76.09797824926168
 30
0.0
 40
1.0
100
AcDbArc
 50
270.0
 51
0.0
  0
ARC
  5
886
330
1F
100
AcDbEntity
  8
0
100
AcDbCircle
 10
59.91758076946014
 20
81.14647824926171
 30
0.0
 40
1.0
100
AcDbArc
 50
90.0
 51
180.0
  0
ARC
  5
887
330
1F
100
AcDbEntity
  8
0
100
AcDbCircle
 10
76.96758076946015
 20
83.1464782492617
 30
0.0
 40
1.0
100
AcDbArc
 50
270.0
 51
0.0
  0
ARC
  5
888
330
1F
100
AcDbEntity
  8
0
100
AcDbCircle
 10
78.96758076946013
 20
85.90897824926171
 30
0.0
 40
1.0
100
AcDbArc
 50
90.0
 51
180.0
  0
ARC
  5
889
330
1F
100
AcDbEntity
  8
0
100
AcDbCircle
 10
95.96758076946008
 20
85.90897824926171
 30
0.0
 40
1.0
100
AcDbArc
 50
0.0
 51
90.0
  0
ARC
  5
88A
330
1F
100
AcDbEntity
  8
0
100
AcDbCircle
 10
97.96758076946009
 20
83.1464782492617
 30
0.0
 40
1.0
100
AcDbArc
 50
180.0
 51
270.0
  0
ARC
  5
88B
330
1F
100
AcDbEntity
  8
0
100
AcDbCircle
 10
115.0175807694602
 20
81.14647824926171
 30
0.0
 40
1.0
100
AcDbArc
 50
0.0
 51
90.0
  0
ARC
  5
88C
330
1F
100
AcDbEntity
  8
0
100
AcDbCircle
 10
117.0175807694602
 20
80.86047815885132
 30
0.0
 40
1.0
100
AcDbArc
 50
180.0
 51
270.0
  0
ARC
  5
88D
330
1F
100
AcDbEntity
  8
0
100
AcDbCircle
 10
134.0675806771087
 20
78.86047815885127
 30
0.0
 40
1.0
100
AcDbArc
 50
0.0
 51
90.0
  0
ARC
  5
890
330
1F
100
AcDbEntity
  8
0
100
AcDbCircle
 10
153.1175806771087
 20
2.233978158851298
 30
0.0
 40
1.0
100
AcDbArc
 50
270.0
 51
0.0
  0
ARC
  5
891
330
1F
100
AcDbEntity
  8
0
100
AcDbCircle
 10
136.1175806771087
 20
2.233978158851298
 30
0.0
 40
1.0
100
AcDbArc
 50
180.0
 51
270.0
  0
ARC
  5
892
330
1F
100
AcDbEntity
  8
0
100
AcDbCircle
 10
134.1175806771087
 20
2.710478158851301
 30
0.0
 40
1.0
100
AcDbArc
 50
0.0
 51
90.0
  0
ARC
  5
893
330
1F
100
AcDbEntity
  8
0
100
AcDbCircle
 10
117.0675806771087
 20
4.7104781588513
 30
0.0
 40
1.0
100
AcDbArc
 50
180.0
 51
270.0
  0
ARC
  5
894
330
1F
100
AcDbEntity
  8
0
100
AcDbCircle
 10
115.0675806771087
 20
4.996478158851299
 30
0.0
 40
1.0
100
AcDbArc
 50
0.0
 51
90.0
  0
ARC
  5
895
330
1F
100
AcDbEntity
  8
0
100
AcDbCircle
 10
98.01758067710872
 20
6.996478158851298
 30
0.0
 40
1.0
100
AcDbArc
 50
180.0
 51
270.0
  0
ARC
  5
896
330
1F
100
AcDbEntity
  8
0
100
AcDbCircle
 10
96.01758067710873
 20
28.80897815885131
 30
0.0
 40
1.0
100
AcDbArc
 50
0.0
 51
90.0
  0
ARC
  5
897
330
1F
100
AcDbEntity
  8
0
100
AcDbCircle
 10
78.91758067710878
 20
28.80897815885131
 30
0.0
 40
1.0
100
AcDbArc
 50
90.0
 51
180.0
  0
ARC
  5
898
330
1F
100
AcDbEntity
  8
0
100
AcDbCircle
 10
76.91758067710875
 20
26.0464781588513
 30
0.0
 40
1.0
100
AcDbArc
 50
270.0
 51
0.0
  0
ARC
  5
899
330
1F
100
AcDbEntity
  8
0
100
AcDbCircle
 10
59.86758067710876
 20
24.04647815885131
 30
0.0
 40
1.0
100
AcDbArc
 50
90.0
 51
180.0
  0
ARC
  5
89A
330
1F
100
AcDbEntity
  8
0
100
AcDbCircle
 10
57.86758067710874
 20
18.99797815885129
 30
0.0
 40
1.0
100
AcDbArc
 50
270.0
 51
0.0
  0
ARC
  5
89B
330
1F
100
AcDbEntity
  8
0
100
AcDbCircle
 10
40.81758067710874
 20
16.99797815885129
 30
0.0
 40
1.0
100
AcDbArc
 50
90.0
 51
180.0
  0
ARC
  5
89C
330
1F
100
AcDbEntity
  8
0
100
AcDbCircle
 10
38.81758067710876
 20
16.52147815885131
 30
0.0
 40
1.0
100
AcDbArc
 50
270.0
 51
0.0
  0
ARC
  5
89D
330
1F
100
AcDbEntity
  8
0
100
AcDbCircle
 10
21.81758067710877
 20
16.52147815885131
 30
0.0
 40
1.0
100
AcDbArc
 50
180.0
 51
270.0
  0
ARC
  5
89E
330
1F
100
AcDbEntity
  8
0
100
AcDbCircle
 10
19.81758067710877
 20
38.33397815885131
 30
0.0
 40
1.0
100
AcDbArc
 50
0.0
 51
90.0
  0
ARC
  5
89F
330
1F
100
AcDbEntity
  8
0
100
AcDbCircle
 10
19.76758067710875
 20
59.33397815885131
 30
0.0
 40
1.0
100
AcDbArc
 50
270.0
 51
0.0
  0
ARC
  5
8A0
330
1F
100
AcDbEntity
  8
0
100
AcDbCircle
 10
2.767580677108749
 20
57.33397815885131
 30
0.0
 40
1.0
100
AcDbArc
 50
90.0
 51
180.0
  0
ARC
  5
8A1
330
1F
100
AcDbEntity
  8
0
100
AcDbCircle
 10
2.767580677108749
 20
40.3339781588513
 30
0.0
 40
1.0
100
AcDbArc
 50
180.0
 51
270.0
  0
ARC
  5
8A2
330
1F
100
AcDbEntity
  8
0
100
AcDbCircle
 10
21.76758067710875
 20
71.62147815885131
 30
0.0
 40
1.0
100
AcDbArc
 50
90.0
 51
180.0
  0
CIRCLE
  5
8BA
330
1F
100
AcDbEntity
  8
0
100
AcDbCircle
 10
116.0425806771088
 20
23.87847815885131
 30
0.0
 40
1.0
  0
CIRCLE
  5
8C0
330
1F
100
AcDbEntity
  8
0
100
AcDbCircle
 10
20.76758067710877
 20
53.5714781588513
 30
0.0
 40
1.0
  0
CIRCLE
  5
8C3
330
1F
100
AcDbEntity
  8
0
100
AcDbCircle
 10
39.84258067710876
 20
35.78472815885129
 30
0.0
 40
1.0
  0
CIRCLE
  5
126C
330
1F
100
AcDbEntity
  8
0
100
AcDbCircle
 10
77.88751690960225
 20
65.51676669363641
 30
0.0
 40
1.0
  0
CIRCLE
  5
126D
330
1F
100
AcDbEntity
  8
0
100
AcDbCircle
 10
116.0425806771088
 20
61.97847815885129
 30
0.0
 40
1.0
  0
LINE
  5
1824
330
1F
100
AcDbEntity
  8
0
100
AcDbLine
 10
136.0675806771087
 20
20.23397815885131
 30
0.0
 11
154.1175806771087
 21
20.2339781588513
 31
0.0
  0
ARC
  5
1825
330
1F
100
AcDbEntity
  8
0
100
AcDbCircle
 10
136.0675806771087
 20
21.2339781588513
 30
0.0
 40
1.0
100
AcDbArc
 50
180.0
 51
270.0
  0
LINE
  5
1830
330
1F
100
AcDbEntity
  8
0
100
AcDbLine
 10
154.1175806771087
 20
2.233978158851298
 30
0.0
 11
154.1175806771087
 21
20.2339781588513
 31
0.0
  0
ARC
  5
1AB2
330
1F
100
AcDbEntity
  8
0
100
AcDbCircle
 10
349.5675806771085
 20
71.22147815885132
 30
0.0
 40
1.0
100
AcDbArc
 50
0.0
 51
90.0
  0
LINE
  5
1AB3
330
1F
100
AcDbEntity
  8
0
100
AcDbLine
 10
349.5675806771085
 20
72.22147815885131
 30
0.0
 11
331.5175806771084
 21
72.22147815885131
 31
0.0
  0
ARC
  5
1AB4
330
1F
100
AcDbEntity
  8
0
100
AcDbCircle
 10
332.5175806771084
 20
16.52147815885132
 30
0.0
 40
1.0
100
AcDbArc
 50
180.0
 51
270.0
  0
LINE
  5
1AB5
330
1F
100
AcDbEntity
  8
0
100
AcDbLine
 10
332.5175806771084
 20
15.52147815885132
 30
0.0
 11
350.5675806771085
 21
15.52147815885132
 31
0.0
  0
CIRCLE
  5
1AB6
330
1F
100
AcDbEntity
  8
0
100
AcDbCircle
 10
348.0175806771085
 20
69.22147815885132
 30
0.0
 40
1.0
  0
CIRCLE
  5
1AB7
330
1F
100
AcDbEntity
  8
0
100
AcDbCircle
 10
334.0175806771084
 20
69.22147815885132
 30
0.0
 40
1.0
  0
LINE
  5
1AB8
330
1F
100
AcDbEntity
  8
0
100
AcDbLine
 10
331.5175806771084
 20
72.22147815885131
 30
0.0
 11
331.5175806771084
 21
16.52147815885132
 31
0.0
  0
LINE
  5
1ABF
330
1F
100
AcDbEntity
  8
0
100
AcDbLine
 10
350.5675806771085
 20
71.22147815885132
 30
0.0
 11
350.5675806771085
 21
15.52147815885132
 31
0.0
  0
ARC
  5
1D24
330
1F
100
AcDbEntity
  8
0
100
AcDbCircle
 10
311.4675806771086
 20
71.22147815885132
 30
0.0
 40
1.0
100
AcDbArc
 50
90.0
 51
180.0
  0
LINE
  5
1D25
330
1F
100
AcDbEntity
  8
0
100
AcDbLine
 10
311.4675806771086
 20
72.22147815885131
 30
0.0
 11
329.5175806771084
 21
72.22147815885131
 31
0.0
  0
ARC
  5
1D26
330
1F
100
AcDbEntity
  8
0
100
AcDbCircle
 10
328.5175806771084
 20
16.52147815885132
 30
0.0
 40
1.0
100
AcDbArc
 50
270.0
 51
0.0
  0
LINE
  5
1D27
330
1F
100
AcDbEntity
  8
0
100
AcDbLine
 10
328.5175806771084
 20
15.52147815885132
 30
0.0
 11
310.4675806771086
 21
15.52147815885132
 31
0.0
  0
CIRCLE
  5
1D28
330
1F
100
AcDbEntity
  8
0
100
AcDbCircle
 10
313.0175806771084
 20
69.22147815885132
 30
0.0
 40
1.0
  0
CIRCLE
  5
1D29
330
1F
100
AcDbEntity
  8
0
100
AcDbCircle
 10
327.0175806771084
 20
69.22147815885132
 30
0.0
 40
1.0
  0
LINE
  5
1D2A
330
1F
100
AcDbEntity
  8
0
100
AcDbLine
 10
329.5175806771084
 20
72.22147815885131
 30
0.0
 11
329.5175806771084
 21
16.52147815885132
 31
0.0
  0
LINE
  5
1D2B
330
1F
100
AcDbEntity
  8
0
100
AcDbLine
 10
310.4675806771086
 20
71.22147815885132
 30
0.0
 11
310.4675806771086
 21
15.52147815885132
 31
0.0
  0
LINE
  5
1DD6
330
1F
100
AcDbEntity
  8
0
100
AcDbLine
 10
20.76758067710875
 20
71.62147815885131
 30
0.0
 11
20.76758067710875
 21
59.33397815885131
 31
0.0
  0
LINE
  5
1DD7
330
1F
100
AcDbEntity
  8
0
100
AcDbLine
 10
135.0675806771087
 20
21.2339781588513
 30
0.0
 11
135.0675806771087
 21
78.86047815885127
 31
0.0
  0
LINE
  5
1F82
330
1F
100
AcDbEntity
  8
0
100
AcDbLine
 10
288.4675806771086
 20
103.1964783396721
 30
0.0
 11
271.3675805847572
 21
103.1964783396721
 31
0.0
  0
ARC
  5
1F83
330
1F
100
AcDbEntity
  8
0
100
AcDbCircle
 10
271.3675805847572
 20
102.1964783396721
 30
0.0
 40
1.0
100
AcDbArc
 50
90.0
 51
180.0
  0
LINE
  5
1F84
330
1F
100
AcDbEntity
  8
0
100
AcDbLine
 10
213.2175806771087
 20
168.8214783396722
 30
0.0
 11
213.2175806771087
 21
147.0089783396721
 31
0.0
  0
ARC
  5
1F85
330
1F
100
AcDbEntity
  8
0
100
AcDbCircle
 10
214.2175806771086
 20
147.0089783396721
 30
0.0
 40
1.0
100
AcDbArc
 50
180.0
 51
270.0
  0
ARC
  5
1F86
330
1F
100
AcDbEntity
  8
0
100
AcDbCircle
 10
212.2175806771086
 20
168.8214783396722
 30
0.0
 40
1.0
100
AcDbArc
 50
0.0
 51
90.0
  0
LINE
  5
1F87
330
1F
100
AcDbEntity
  8
0
100
AcDbLine
 10
269.3675805847572
 20
100.7199782492617
 30
0.0
 11
252.3175805847572
 21
100.7199782492617
 31
0.0
  0
ARC
  5
1F88
330
1F
100
AcDbEntity
  8
0
100
AcDbCircle
 10
252.3175805847572
 20
99.71997824926171
 30
0.0
 40
1.0
100
AcDbArc
 50
90.0
 51
180.0
  0
LINE
  5
1F89
330
1F
100
AcDbEntity
  8
0
100
AcDbLine
 10
250.3175805847572
 20
93.67147824926172
 30
0.0
 11
233.2675805847572
 21
93.67147824926172
 31
0.0
  0
ARC
  5
1F8A
330
1F
100
AcDbEntity
  8
0
100
AcDbCircle
 10
233.2675805847572
 20
92.67147824926173
 30
0.0
 40
1.0
100
AcDbArc
 50
90.0
 51
180.0
  0
LINE
  5
1F8B
330
1F
100
AcDbEntity
  8
0
100
AcDbLine
 10
231.2675805847572
 20
88.9089782492617
 30
0.0
 11
214.2675805847573
 21
88.90897824926174
 31
0.0
  0
LINE
  5
1F8C
330
1F
100
AcDbEntity
  8
0
100
AcDbLine
 10
212.2675805847573
 20
93.67147824926176
 30
0.0
 11
195.2175805847571
 21
93.67147824926176
 31
0.0
  0
ARC
  5
1F8D
330
1F
100
AcDbEntity
  8
0
100
AcDbCircle
 10
195.2175805847571
 20
94.67147824926176
 30
0.0
 40
1.0
100
AcDbArc
 50
180.0
 51
270.0
  0
LINE
  5
1F8E
330
1F
100
AcDbEntity
  8
0
100
AcDbLine
 10
193.2175805847571
 20
95.95747833967212
 30
0.0
 11
176.1675806771086
 21
95.95747833967212
 31
0.0
  0
ARC
  5
1F8F
330
1F
100
AcDbEntity
  8
0
100
AcDbCircle
 10
176.1675806771086
 20
96.95747833967217
 30
0.0
 40
1.0
100
AcDbArc
 50
180.0
 51
270.0
  0
LINE
  5
1F90
330
1F
100
AcDbEntity
  8
0
100
AcDbLine
 10
288.4175806771086
 20
160.2964783396721
 30
0.0
 11
271.4175806771086
 21
160.2964783396721
 31
0.0
  0
ARC
  5
1F91
330
1F
100
AcDbEntity
  8
0
100
AcDbCircle
 10
288.4175806771086
 20
159.2964783396721
 30
0.0
 40
1.0
100
AcDbArc
 50
0.0
 51
90.0
  0
ARC
  5
1F92
330
1F
100
AcDbEntity
  8
0
100
AcDbCircle
 10
271.4175806771086
 20
159.2964783396721
 30
0.0
 40
1.0
100
AcDbArc
 50
90.0
 51
180.0
  0
LINE
  5
1F93
330
1F
100
AcDbEntity
  8
0
100
AcDbLine
 10
269.4175806771086
 20
157.8199783396721
 30
0.0
 11
252.3675806771086
 21
157.8199783396721
 31
0.0
  0
ARC
  5
1F94
330
1F
100
AcDbEntity
  8
0
100
AcDbCircle
 10
252.3675806771086
 20
156.8199783396721
 30
0.0
 40
1.0
100
AcDbArc
 50
90.0
 51
180.0
  0
LINE
  5
1F95
330
1F
100
AcDbEntity
  8
0
100
AcDbLine
 10
250.3675806771086
 20
150.7714783396721
 30
0.0
 11
233.3175806771086
 21
150.7714783396721
 31
0.0
  0
ARC
  5
1F96
330
1F
100
AcDbEntity
  8
0
100
AcDbCircle
 10
233.3175806771086
 20
149.7714783396721
 30
0.0
 40
1.0
100
AcDbArc
 50
90.0
 51
180.0
  0
LINE
  5
1F97
330
1F
100
AcDbEntity
  8
0
100
AcDbLine
 10
231.3175806771086
 20
146.0089783396721
 30
0.0
 11
214.2175806771086
 21
146.0089783396721
 31
0.0
  0
LINE
  5
1F98
330
1F
100
AcDbEntity
  8
0
100
AcDbLine
 10
212.2175806771086
 20
169.8214783396722
 30
0.0
 11
195.1675806771086
 21
169.8214783396722
 31
0.0
  0
ARC
  5
1F99
330
1F
100
AcDbEntity
  8
0
100
AcDbCircle
 10
195.1675806771086
 20
170.8214783396722
 30
0.0
 40
1.0
100
AcDbArc
 50
180.0
 51
270.0
  0
LINE
  5
1F9A
330
1F
100
AcDbEntity
  8
0
100
AcDbLine
 10
193.1675806771086
 20
172.1074783396721
 30
0.0
 11
176.1175806771086
 21
172.1074783396721
 31
0.0
  0
ARC
  5
1F9B
330
1F
100
AcDbEntity
  8
0
100
AcDbCircle
 10
176.1175806771086
 20
173.1074783396721
 30
0.0
 40
1.0
100
AcDbArc
 50
180.0
 51
270.0
  0
LINE
  5
1F9C
330
1F
100
AcDbEntity
  8
0
100
AcDbLine
 10
174.1175806771086
 20
174.5839783396721
 30
0.0
 11
157.1175806771086
 21
174.5839783396721
 31
0.0
  0
ARC
  5
1F9D
330
1F
100
AcDbEntity
  8
0
100
AcDbCircle
 10
174.1175806771086
 20
173.5839783396721
 30
0.0
 40
1.0
100
AcDbArc
 50
0.0
 51
90.0
  0
ARC
  5
1F9E
330
1F
100
AcDbEntity
  8
0
100
AcDbCircle
 10
157.1175806771086
 20
173.5839783396721
 30
0.0
 40
1.0
100
AcDbArc
 50
90.0
 51
180.0
  0
LINE
  5
1F9F
330
1F
100
AcDbEntity
  8
0
100
AcDbLine
 10
289.4175806771086
 20
137.4839783396721
 30
0.0
 11
289.4175806771086
 21
159.2964783396721
 31
0.0
  0
ARC
  5
1FA0
330
1F
100
AcDbEntity
  8
0
100
AcDbCircle
 10
290.4175806771086
 20
137.4839783396721
 30
0.0
 40
1.0
100
AcDbArc
 50
180.0
 51
270.0
  0
LINE
  5
1FA1
330
1F
100
AcDbEntity
  8
0
100
AcDbLine
 10
307.4675806771086
 20
136.4839783396721
 30
0.0
 11
290.4175806771086
 21
136.4839783396721
 31
0.0
  0
LINE
  5
1FA2
330
1F
100
AcDbEntity
  8
0
100
AcDbLine
 10
308.4675806771086
 20
118.4839783396721
 30
0.0
 11
308.4675806771086
 21
135.4839783396721
 31
0.0
  0
ARC
  5
1FA3
330
1F
100
AcDbEntity
  8
0
100
AcDbCircle
 10
307.4675806771086
 20
135.4839783396721
 30
0.0
 40
1.0
100
AcDbArc
 50
0.0
 51
90.0
  0
ARC
  5
1FA4
330
1F
100
AcDbEntity
  8
0
100
AcDbCircle
 10
307.4675806771086
 20
118.4839783396721
 30
0.0
 40
1.0
100
AcDbArc
 50
270.0
 51
0.0
  0
LINE
  5
1FA5
330
1F
100
AcDbEntity
  8
0
100
AcDbLine
 10
307.4675806771086
 20
117.4839783396721
 30
0.0
 11
290.4675806771086
 21
117.4839783396721
 31
0.0
  0
ARC
  5
1FA6
330
1F
100
AcDbEntity
  8
0
100
AcDbCircle
 10
290.4675806771086
 20
116.4839783396721
 30
0.0
 40
1.0
100
AcDbArc
 50
90.0
 51
180.0
  0
ARC
  5
1FA7
330
1F
100
AcDbEntity
  8
0
100
AcDbCircle
 10
288.4675806771086
 20
104.1964783396721
 30
0.0
 40
1.0
100
AcDbArc
 50
270.0
 51
0.0
  0
LINE
  5
1FA8
330
1F
100
AcDbEntity
  8
0
100
AcDbLine
 10
270.3675805847572
 20
101.7199782492617
 30
0.0
 11
270.3675805847572
 21
102.1964783396721
 31
0.0
  0
ARC
  5
1FA9
330
1F
100
AcDbEntity
  8
0
100
AcDbCircle
 10
269.3675805847572
 20
101.7199782492617
 30
0.0
 40
1.0
100
AcDbArc
 50
270.0
 51
0.0
  0
LINE
  5
1FAA
330
1F
100
AcDbEntity
  8
0
100
AcDbLine
 10
251.3175805847572
 20
94.67147824926172
 30
0.0
 11
251.3175805847572
 21
99.71997824926171
 31
0.0
  0
ARC
  5
1FAB
330
1F
100
AcDbEntity
  8
0
100
AcDbCircle
 10
250.3175805847572
 20
94.67147824926172
 30
0.0
 40
1.0
100
AcDbArc
 50
270.0
 51
0.0
  0
LINE
  5
1FAC
330
1F
100
AcDbEntity
  8
0
100
AcDbLine
 10
232.2675805847572
 20
89.9089782492617
 30
0.0
 11
232.2675805847572
 21
92.67147824926173
 31
0.0
  0
ARC
  5
1FAD
330
1F
100
AcDbEntity
  8
0
100
AcDbCircle
 10
231.2675805847572
 20
89.9089782492617
 30
0.0
 40
1.0
100
AcDbArc
 50
270.0
 51
0.0
  0
LINE
  5
1FAE
330
1F
100
AcDbEntity
  8
0
100
AcDbLine
 10
213.2675805847572
 20
89.90897824926173
 30
0.0
 11
213.2675805847572
 21
92.67147824926174
 31
0.0
  0
ARC
  5
1FAF
330
1F
100
AcDbEntity
  8
0
100
AcDbCircle
 10
212.2675805847573
 20
92.67147824926174
 30
0.0
 40
1.0
100
AcDbArc
 50
0.0
 51
90.0
  0
ARC
  5
1FB0
330
1F
100
AcDbEntity
  8
0
100
AcDbCircle
 10
214.2675805847573
 20
89.90897824926173
 30
0.0
 40
1.0
100
AcDbArc
 50
180.0
 51
270.0
  0
LINE
  5
1FB1
330
1F
100
AcDbEntity
  8
0
100
AcDbLine
 10
194.2175805847571
 20
94.67147824926176
 30
0.0
 11
194.2175805847571
 21
94.95747833967213
 31
0.0
  0
ARC
  5
1FB2
330
1F
100
AcDbEntity
  8
0
100
AcDbCircle
 10
193.2175805847571
 20
94.95747833967213
 30
0.0
 40
1.0
100
AcDbArc
 50
0.0
 51
90.0
  0
LINE
  5
1FB3
330
1F
100
AcDbEntity
  8
0
100
AcDbLine
 10
175.1175806771086
 20
173.1074783396721
 30
0.0
 11
175.1175806771086
 21
173.5839783396721
 31
0.0
  0
LINE
  5
1FB4
330
1F
100
AcDbEntity
  8
0
100
AcDbLine
 10
194.1675806771086
 20
170.8214783396722
 30
0.0
 11
194.1675806771086
 21
171.1074783396721
 31
0.0
  0
ARC
  5
1FB5
330
1F
100
AcDbEntity
  8
0
100
AcDbCircle
 10
193.1675806771086
 20
171.1074783396721
 30
0.0
 40
1.0
100
AcDbArc
 50
0.0
 51
90.0
  0
LINE
  5
1FB6
330
1F
100
AcDbEntity
  8
0
100
AcDbLine
 10
232.3175806771086
 20
147.0089783396721
 30
0.0
 11
232.3175806771086
 21
149.7714783396721
 31
0.0
  0
ARC
  5
1FB7
330
1F
100
AcDbEntity
  8
0
100
AcDbCircle
 10
231.3175806771086
 20
147.0089783396721
 30
0.0
 40
1.0
100
AcDbArc
 50
270.0
 51
0.0
  0
LINE
  5
1FB8
330
1F
100
AcDbEntity
  8
0
100
AcDbLine
 10
251.3675806771086
 20
151.7714783396721
 30
0.0
 11
251.3675806771086
 21
156.8199783396721
 31
0.0
  0
ARC
  5
1FB9
330
1F
100
AcDbEntity
  8
0
100
AcDbCircle
 10
250.3675806771086
 20
151.7714783396721
 30
0.0
 40
1.0
100
AcDbArc
 50
270.0
 51
0.0
  0
LINE
  5
1FBA
330
1F
100
AcDbEntity
  8
0
100
AcDbLine
 10
270.4175806771086
 20
158.8199783396721
 30
0.0
 11
270.4175806771086
 21
159.2964783396721
 31
0.0
  0
ARC
  5
1FBB
330
1F
100
AcDbEntity
  8
0
100
AcDbCircle
 10
269.4175806771086
 20
158.8199783396721
 30
0.0
 40
1.0
100
AcDbArc
 50
270.0
 51
0.0
  0
CIRCLE
  5
1FBC
330
1F
100
AcDbEntity
  8
0
100
AcDbCircle
 10
194.1925806771085
 20
151.9394783396721
 30
0.0
 40
1.0
  0
CIRCLE
  5
1FBD
330
1F
100
AcDbEntity
  8
0
100
AcDbCircle
 10
289.4675806771086
 20
122.2464783396721
 30
0.0
 40
1.0
  0
CIRCLE
  5
1FBE
330
1F
100
AcDbEntity
  8
0
100
AcDbCircle
 10
270.3925806771086
 20
140.0332283396721
 30
0.0
 40
1.0
  0
CIRCLE
  5
1FBF
330
1F
100
AcDbEntity
  8
0
100
AcDbCircle
 10
232.3476444446151
 20
110.301189804887
 30
0.0
 40
1.0
  0
CIRCLE
  5
1FC0
330
1F
100
AcDbEntity
  8
0
100
AcDbCircle
 10
194.1925806771085
 20
113.8394783396721
 30
0.0
 40
1.0
  0
LINE
  5
1FC4
330
1F
100
AcDbEntity
  8
0
100
AcDbLine
 10
289.4675806771086
 20
104.1964783396721
 30
0.0
 11
289.4675806771086
 21
116.4839783396721
 31
0.0
  0
LINE
  5
20C0
330
1F
100
AcDbEntity
  8
0
100
AcDbLine
 10
229.2675806771085
 20
84.40897815885131
 30
0.0
 11
216.2675806771086
 21
84.40897815885131
 31
0.0
  0
LINE
  5
20C1
330
1F
100
AcDbEntity
  8
0
100
AcDbLine
 10
229.2675806771085
 20
70.40897815885131
 30
0.0
 11
216.2675806771086
 21
70.40897815885131
 31
0.0
  0
LINE
  5
20C2
330
1F
100
AcDbEntity
  8
0
100
AcDbLine
 10
229.7675806771085
 20
83.9089781588513
 30
0.0
 11
229.7675806771085
 21
70.90897815885131
 31
0.0
  0
LINE
  5
20C3
330
1F
100
AcDbEntity
  8
0
100
AcDbLine
 10
215.7675806771087
 20
83.9089781588513
 30
0.0
 11
215.7675806771087
 21
70.90897815885131
 31
0.0
  0
ARC
  5
20C4
330
1F
100
AcDbEntity
  8
0
100
AcDbCircle
 10
229.2675806771085
 20
83.9089781588513
 30
0.0
 40
0.5
100
AcDbArc
 50
0.0
 51
90.0
  0
ARC
  5
20C5
330
1F
100
AcDbEntity
  8
0
100
AcDbCircle
 10
216.2675806771086
 20
83.9089781588513
 30
0.0
 40
0.5
100
AcDbArc
 50
90.0
 51
180.0
  0
ARC
  5
20C6
330
1F
100
AcDbEntity
  8
0
100
AcDbCircle
 10
229.2675806771085
 20
70.90897815885131
 30
0.0
 40
0.5
100
AcDbArc
 50
270.0
 51
0.0
  0
ARC
  5
20C7
330
1F
100
AcDbEntity
  8
0
100
AcDbCircle
 10
216.2675806771086
 20
70.90897815885131
 30
0.0
 40
0.5
100
AcDbArc
 50
180.0
 51
270.0
  0
LINE
  5
20C8
330
1F
100
AcDbEntity
  8
0
100
AcDbLine
 10
248.3175806771086
 20
79.64647815885129
 30
0.0
 11
235.3175806771086
 21
79.64647815885129
 31
0.0
  0
LINE
  5
20C9
330
1F
100
AcDbEntity
  8
0
100
AcDbLine
 10
248.3175806771086
 20
65.6464781588513
 30
0.0
 11
235.3175806771086
 21
65.6464781588513
 31
0.0
  0
LINE
  5
20CA
330
1F
100
AcDbEntity
  8
0
100
AcDbLine
 10
248.8175806771086
 20
79.14647815885129
 30
0.0
 11
248.8175806771086
 21
66.14647815885132
 31
0.0
  0
LINE
  5
20CB
330
1F
100
AcDbEntity
  8
0
100
AcDbLine
 10
234.8175806771086
 20
79.14647815885129
 30
0.0
 11
234.8175806771086
 21
66.14647815885132
 31
0.0
  0
ARC
  5
20CC
330
1F
100
AcDbEntity
  8
0
100
AcDbCircle
 10
248.3175806771086
 20
79.14647815885129
 30
0.0
 40
0.5
100
AcDbArc
 50
0.0
 51
90.0
  0
ARC
  5
20CD
330
1F
100
AcDbEntity
  8
0
100
AcDbCircle
 10
235.3175806771086
 20
79.14647815885129
 30
0.0
 40
0.5
100
AcDbArc
 50
90.0
 51
180.0
  0
ARC
  5
20CE
330
1F
100
AcDbEntity
  8
0
100
AcDbCircle
 10
248.3175806771086
 20
66.14647815885132
 30
0.0
 40
0.5
100
AcDbArc
 50
270.0
 51
0.0
  0
ARC
  5
20CF
330
1F
100
AcDbEntity
  8
0
100
AcDbCircle
 10
235.3175806771086
 20
66.14647815885132
 30
0.0
 40
0.5
100
AcDbArc
 50
180.0
 51
270.0
  0
LINE
  5
20D0
330
1F
100
AcDbEntity
  8
0
100
AcDbLine
 10
210.2175806771087
 20
79.64647815885129
 30
0.0
 11
197.2175806771085
 21
79.64647815885129
 31
0.0
  0
LINE
  5
20D1
330
1F
100
AcDbEntity
  8
0
100
AcDbLine
 10
210.2175806771087
 20
65.6464781588513
 30
0.0
 11
197.2175806771085
 21
65.6464781588513
 31
0.0
  0
LINE
  5
20D2
330
1F
100
AcDbEntity
  8
0
100
AcDbLine
 10
210.7175806771086
 20
79.14647815885129
 30
0.0
 11
210.7175806771086
 21
66.14647815885132
 31
0.0
  0
LINE
  5
20D3
330
1F
100
AcDbEntity
  8
0
100
AcDbLine
 10
196.7175806771086
 20
79.14647815885129
 30
0.0
 11
196.7175806771086
 21
66.14647815885132
 31
0.0
  0
ARC
  5
20D4
330
1F
100
AcDbEntity
  8
0
100
AcDbCircle
 10
210.2175806771087
 20
79.14647815885129
 30
0.0
 40
0.5
100
AcDbArc
 50
0.0
 51
90.0
  0
ARC
  5
20D5
330
1F
100
AcDbEntity
  8
0
100
AcDbCircle
 10
197.2175806771085
 20
79.14647815885129
 30
0.0
 40
0.5
100
AcDbArc
 50
90.0
 51
180.0
  0
ARC
  5
20D6
330
1F
100
AcDbEntity
  8
0
100
AcDbCircle
 10
210.2175806771087
 20
66.14647815885132
 30
0.0
 40
0.5
100
AcDbArc
 50
270.0
 51
0.0
  0
ARC
  5
20D7
330
1F
100
AcDbEntity
  8
0
100
AcDbCircle
 10
197.2175806771085
 20
66.14647815885132
 30
0.0
 40
0.5
100
AcDbArc
 50
180.0
 51
270.0
  0
LINE
  5
20D8
330
1F
100
AcDbEntity
  8
0
100
AcDbLine
 10
191.1675806771086
 20
77.36047815885129
 30
0.0
 11
178.1675806771086
 21
77.36047815885129
 31
0.0
  0
LINE
  5
20D9
330
1F
100
AcDbEntity
  8
0
100
AcDbLine
 10
191.1675806771086
 20
63.36047815885127
 30
0.0
 11
178.1675806771086
 21
63.36047815885127
 31
0.0
  0
LINE
  5
20DA
330
1F
100
AcDbEntity
  8
0
100
AcDbLine
 10
191.6675806771085
 20
76.86047815885129
 30
0.0
 11
191.6675806771085
 21
63.86047815885127
 31
0.0
  0
LINE
  5
20DB
330
1F
100
AcDbEntity
  8
0
100
AcDbLine
 10
177.6675806771087
 20
76.86047815885129
 30
0.0
 11
177.6675806771087
 21
63.86047815885127
 31
0.0
  0
ARC
  5
20DC
330
1F
100
AcDbEntity
  8
0
100
AcDbCircle
 10
191.1675806771086
 20
76.86047815885129
 30
0.0
 40
0.5
100
AcDbArc
 50
0.0
 51
90.0
  0
ARC
  5
20DD
330
1F
100
AcDbEntity
  8
0
100
AcDbCircle
 10
178.1675806771086
 20
76.86047815885129
 30
0.0
 40
0.5
100
AcDbArc
 50
90.0
 51
180.0
  0
ARC
  5
20DE
330
1F
100
AcDbEntity
  8
0
100
AcDbCircle
 10
191.1675806771086
 20
63.86047815885127
 30
0.0
 40
0.5
100
AcDbArc
 50
270.0
 51
0.0
  0
ARC
  5
20DF
330
1F
100
AcDbEntity
  8
0
100
AcDbCircle
 10
178.1675806771086
 20
63.86047815885127
 30
0.0
 40
0.5
100
AcDbArc
 50
180.0
 51
270.0
  0
LINE
  5
20E0
330
1F
100
AcDbEntity
  8
0
100
AcDbLine
 10
267.3675806771086
 20
72.5979781588513
 30
0.0
 11
254.3675806771086
 21
72.5979781588513
 31
0.0
  0
LINE
  5
20E1
330
1F
100
AcDbEntity
  8
0
100
AcDbLine
 10
267.3675806771086
 20
58.5979781588513
 30
0.0
 11
254.3675806771086
 21
58.5979781588513
 31
0.0
  0
LINE
  5
20E2
330
1F
100
AcDbEntity
  8
0
100
AcDbLine
 10
267.8675806771086
 20
72.09797815885131
 30
0.0
 11
267.8675806771086
 21
59.09797815885127
 31
0.0
  0
LINE
  5
20E3
330
1F
100
AcDbEntity
  8
0
100
AcDbLine
 10
253.8675806771086
 20
72.09797815885131
 30
0.0
 11
253.8675806771086
 21
59.09797815885127
 31
0.0
  0
ARC
  5
20E4
330
1F
100
AcDbEntity
  8
0
100
AcDbCircle
 10
267.3675806771086
 20
72.09797815885131
 30
0.0
 40
0.5
100
AcDbArc
 50
0.0
 51
90.0
  0
ARC
  5
20E5
330
1F
100
AcDbEntity
  8
0
100
AcDbCircle
 10
254.3675806771086
 20
72.09797815885131
 30
0.0
 40
0.5
100
AcDbArc
 50
90.0
 51
180.0
  0
ARC
  5
20E6
330
1F
100
AcDbEntity
  8
0
100
AcDbCircle
 10
267.3675806771086
 20
59.09797815885127
 30
0.0
 40
0.5
100
AcDbArc
 50
270.0
 51
0.0
  0
ARC
  5
20E7
330
1F
100
AcDbEntity
  8
0
100
AcDbCircle
 10
254.3675806771086
 20
59.09797815885127
 30
0.0
 40
0.5
100
AcDbArc
 50
180.0
 51
270.0
  0
LINE
  5
20E8
330
1F
100
AcDbEntity
  8
0
100
AcDbLine
 10
286.4175806771085
 20
70.12147815885128
 30
0.0
 11
273.4175806771086
 21
70.12147815885128
 31
0.0
  0
LINE
  5
20E9
330
1F
100
AcDbEntity
  8
0
100
AcDbLine
 10
286.4175806771085
 20
56.12147815885129
 30
0.0
 11
273.4175806771086
 21
56.12147815885129
 31
0.0
  0
LINE
  5
20EA
330
1F
100
AcDbEntity
  8
0
100
AcDbLine
 10
286.9175806771085
 20
69.62147815885129
 30
0.0
 11
286.9175806771085
 21
56.62147815885129
 31
0.0
  0
LINE
  5
20EB
330
1F
100
AcDbEntity
  8
0
100
AcDbLine
 10
272.9175806771086
 20
69.62147815885129
 30
0.0
 11
272.9175806771086
 21
56.62147815885129
 31
0.0
  0
ARC
  5
20EC
330
1F
100
AcDbEntity
  8
0
100
AcDbCircle
 10
286.4175806771085
 20
69.62147815885129
 30
0.0
 40
0.5
100
AcDbArc
 50
0.0
 51
90.0
  0
ARC
  5
20ED
330
1F
100
AcDbEntity
  8
0
100
AcDbCircle
 10
273.4175806771086
 20
69.62147815885129
 30
0.0
 40
0.5
100
AcDbArc
 50
90.0
 51
180.0
  0
ARC
  5
20EE
330
1F
100
AcDbEntity
  8
0
100
AcDbCircle
 10
286.4175806771085
 20
56.62147815885129
 30
0.0
 40
0.5
100
AcDbArc
 50
270.0
 51
0.0
  0
ARC
  5
20EF
330
1F
100
AcDbEntity
  8
0
100
AcDbCircle
 10
273.4175806771086
 20
56.62147815885129
 30
0.0
 40
0.5
100
AcDbArc
 50
180.0
 51
270.0
  0
LINE
  5
20F0
330
1F
100
AcDbEntity
  8
0
100
AcDbLine
 10
229.2675806771085
 20
65.3589781588513
 30
0.0
 11
216.2675806771086
 21
65.3589781588513
 31
0.0
  0
LINE
  5
20F1
330
1F
100
AcDbEntity
  8
0
100
AcDbLine
 10
229.2675806771085
 20
51.3589781588513
 30
0.0
 11
216.2675806771086
 21
51.3589781588513
 31
0.0
  0
LINE
  5
20F2
330
1F
100
AcDbEntity
  8
0
100
AcDbLine
 10
229.7675806771085
 20
64.8589781588513
 30
0.0
 11
229.7675806771085
 21
51.8589781588513
 31
0.0
  0
LINE
  5
20F3
330
1F
100
AcDbEntity
  8
0
100
AcDbLine
 10
215.7675806771087
 20
64.8589781588513
 30
0.0
 11
215.7675806771087
 21
51.8589781588513
 31
0.0
  0
ARC
  5
20F4
330
1F
100
AcDbEntity
  8
0
100
AcDbCircle
 10
229.2675806771085
 20
64.8589781588513
 30
0.0
 40
0.5
100
AcDbArc
 50
0.0
 51
90.0
  0
ARC
  5
20F5
330
1F
100
AcDbEntity
  8
0
100
AcDbCircle
 10
216.2675806771086
 20
64.8589781588513
 30
0.0
 40
0.5
100
AcDbArc
 50
90.0
 51
180.0
  0
ARC
  5
20F6
330
1F
100
AcDbEntity
  8
0
100
AcDbCircle
 10
229.2675806771085
 20
51.8589781588513
 30
0.0
 40
0.5
100
AcDbArc
 50
270.0
 51
0.0
  0
ARC
  5
20F7
330
1F
100
AcDbEntity
  8
0
100
AcDbCircle
 10
216.2675806771086
 20
51.8589781588513
 30
0.0
 40
0.5
100
AcDbArc
 50
180.0
 51
270.0
  0
LINE
  5
20F8
330
1F
100
AcDbEntity
  8
0
100
AcDbLine
 10
248.3175806771086
 20
60.59647815885131
 30
0.0
 11
235.3175806771086
 21
60.59647815885131
 31
0.0
  0
LINE
  5
20F9
330
1F
100
AcDbEntity
  8
0
100
AcDbLine
 10
248.3175806771086
 20
46.59647815885128
 30
0.0
 11
235.3175806771086
 21
46.59647815885128
 31
0.0
  0
LINE
  5
20FA
330
1F
100
AcDbEntity
  8
0
100
AcDbLine
 10
248.8175806771086
 20
60.09647815885131
 30
0.0
 11
248.8175806771086
 21
47.09647815885128
 31
0.0
  0
LINE
  5
20FB
330
1F
100
AcDbEntity
  8
0
100
AcDbLine
 10
234.8175806771086
 20
60.09647815885131
 30
0.0
 11
234.8175806771086
 21
47.09647815885128
 31
0.0
  0
ARC
  5
20FC
330
1F
100
AcDbEntity
  8
0
100
AcDbCircle
 10
248.3175806771086
 20
60.09647815885131
 30
0.0
 40
0.5
100
AcDbArc
 50
0.0
 51
90.0
  0
ARC
  5
20FD
330
1F
100
AcDbEntity
  8
0
100
AcDbCircle
 10
235.3175806771086
 20
60.09647815885131
 30
0.0
 40
0.5
100
AcDbArc
 50
90.0
 51
180.0
  0
ARC
  5
20FE
330
1F
100
AcDbEntity
  8
0
100
AcDbCircle
 10
248.3175806771086
 20
47.09647815885128
 30
0.0
 40
0.5
100
AcDbArc
 50
270.0
 51
0.0
  0
ARC
  5
20FF
330
1F
100
AcDbEntity
  8
0
100
AcDbCircle
 10
235.3175806771086
 20
47.09647815885128
 30
0.0
 40
0.5
100
AcDbArc
 50
180.0
 51
270.0
  0
LINE
  5
2100
330
1F
100
AcDbEntity
  8
0
100
AcDbLine
 10
210.2175806771087
 20
60.59647815885131
 30
0.0
 11
197.2175806771085
 21
60.59647815885131
 31
0.0
  0
LINE
  5
2101
330
1F
100
AcDbEntity
  8
0
100
AcDbLine
 10
210.2175806771087
 20
46.59647815885128
 30
0.0
 11
197.2175806771085
 21
46.59647815885128
 31
0.0
  0
LINE
  5
2102
330
1F
100
AcDbEntity
  8
0
100
AcDbLine
 10
210.7175806771086
 20
60.09647815885131
 30
0.0
 11
210.7175806771086
 21
47.09647815885128
 31
0.0
  0
LINE
  5
2103
330
1F
100
AcDbEntity
  8
0
100
AcDbLine
 10
196.7175806771086
 20
60.09647815885131
 30
0.0
 11
196.7175806771086
 21
47.09647815885128
 31
0.0
  0
ARC
  5
2104
330
1F
100
AcDbEntity
  8
0
100
AcDbCircle
 10
210.2175806771087
 20
60.09647815885131
 30
0.0
 40
0.5
100
AcDbArc
 50
0.0
 51
90.0
  0
ARC
  5
2105
330
1F
100
AcDbEntity
  8
0
100
AcDbCircle
 10
197.2175806771085
 20
60.09647815885131
 30
0.0
 40
0.5
100
AcDbArc
 50
90.0
 51
180.0
  0
ARC
  5
2106
330
1F
100
AcDbEntity
  8
0
100
AcDbCircle
 10
210.2175806771087
 20
47.09647815885128
 30
0.0
 40
0.5
100
AcDbArc
 50
270.0
 51
0.0
  0
ARC
  5
2107
330
1F
100
AcDbEntity
  8
0
100
AcDbCircle
 10
197.2175806771085
 20
47.09647815885128
 30
0.0
 40
0.5
100
AcDbArc
 50
180.0
 51
270.0
  0
LINE
  5
2108
330
1F
100
AcDbEntity
  8
0
100
AcDbLine
 10
191.1675806771086
 20
58.31047815885128
 30
0.0
 11
178.1675806771086
 21
58.31047815885128
 31
0.0
  0
LINE
  5
2109
330
1F
100
AcDbEntity
  8
0
100
AcDbLine
 10
191.1675806771086
 20
44.31047815885128
 30
0.0
 11
178.1675806771086
 21
44.31047815885128
 31
0.0
  0
LINE
  5
210A
330
1F
100
AcDbEntity
  8
0
100
AcDbLine
 10
191.6675806771085
 20
57.81047815885128
 30
0.0
 11
191.6675806771085
 21
44.81047815885128
 31
0.0
  0
LINE
  5
210B
330
1F
100
AcDbEntity
  8
0
100
AcDbLine
 10
177.6675806771087
 20
57.81047815885128
 30
0.0
 11
177.6675806771087
 21
44.81047815885128
 31
0.0
  0
ARC
  5
210C
330
1F
100
AcDbEntity
  8
0
100
AcDbCircle
 10
191.1675806771086
 20
57.81047815885128
 30
0.0
 40
0.5
100
AcDbArc
 50
0.0
 51
90.0
  0
ARC
  5
210D
330
1F
100
AcDbEntity
  8
0
100
AcDbCircle
 10
178.1675806771086
 20
57.81047815885128
 30
0.0
 40
0.5
100
AcDbArc
 50
90.0
 51
180.0
  0
ARC
  5
210E
330
1F
100
AcDbEntity
  8
0
100
AcDbCircle
 10
191.1675806771086
 20
44.81047815885128
 30
0.0
 40
0.5
100
AcDbArc
 50
270.0
 51
0.0
  0
ARC
  5
210F
330
1F
100
AcDbEntity
  8
0
100
AcDbCircle
 10
178.1675806771086
 20
44.81047815885128
 30
0.0
 40
0.5
100
AcDbArc
 50
180.0
 51
270.0
  0
LINE
  5
2110
330
1F
100
AcDbEntity
  8
0
100
AcDbLine
 10
305.4675806771086
 20
55.83397815885127
 30
0.0
 11
292.4675806771086
 21
55.83397815885127
 31
0.0
  0
LINE
  5
2111
330
1F
100
AcDbEntity
  8
0
100
AcDbLine
 10
305.4675806771086
 20
41.83397815885126
 30
0.0
 11
292.4675806771086
 21
41.83397815885126
 31
0.0
  0
LINE
  5
2112
330
1F
100
AcDbEntity
  8
0
100
AcDbLine
 10
305.9675806771086
 20
55.3339781588513
 30
0.0
 11
305.9675806771086
 21
42.33397815885132
 31
0.0
  0
LINE
  5
2113
330
1F
100
AcDbEntity
  8
0
100
AcDbLine
 10
291.9675806771086
 20
55.3339781588513
 30
0.0
 11
291.9675806771086
 21
42.33397815885132
 31
0.0
  0
ARC
  5
2114
330
1F
100
AcDbEntity
  8
0
100
AcDbCircle
 10
305.4675806771086
 20
55.3339781588513
 30
0.0
 40
0.5
100
AcDbArc
 50
0.0
 51
90.0
  0
ARC
  5
2115
330
1F
100
AcDbEntity
  8
0
100
AcDbCircle
 10
292.4675806771086
 20
55.3339781588513
 30
0.0
 40
0.5
100
AcDbArc
 50
90.0
 51
180.0
  0
ARC
  5
2116
330
1F
100
AcDbEntity
  8
0
100
AcDbCircle
 10
305.4675806771086
 20
42.33397815885132
 30
0.0
 40
0.5
100
AcDbArc
 50
270.0
 51
0.0
  0
ARC
  5
2117
330
1F
100
AcDbEntity
  8
0
100
AcDbCircle
 10
292.4675806771086
 20
42.33397815885132
 30
0.0
 40
0.5
100
AcDbArc
 50
180.0
 51
270.0
  0
LINE
  5
2118
330
1F
100
AcDbEntity
  8
0
100
AcDbLine
 10
267.3675806771086
 20
53.54797815885129
 30
0.0
 11
254.3675806771086
 21
53.54797815885129
 31
0.0
  0
LINE
  5
2119
330
1F
100
AcDbEntity
  8
0
100
AcDbLine
 10
267.3675806771086
 20
39.54797815885129
 30
0.0
 11
254.3675806771086
 21
39.54797815885129
 31
0.0
  0
LINE
  5
211A
330
1F
100
AcDbEntity
  8
0
100
AcDbLine
 10
267.8675806771086
 20
53.04797815885129
 30
0.0
 11
267.8675806771086
 21
40.04797815885129
 31
0.0
  0
LINE
  5
211B
330
1F
100
AcDbEntity
  8
0
100
AcDbLine
 10
253.8675806771086
 20
53.04797815885129
 30
0.0
 11
253.8675806771086
 21
40.04797815885129
 31
0.0
  0
ARC
  5
211C
330
1F
100
AcDbEntity
  8
0
100
AcDbCircle
 10
267.3675806771086
 20
53.04797815885129
 30
0.0
 40
0.5
100
AcDbArc
 50
0.0
 51
90.0
  0
ARC
  5
211D
330
1F
100
AcDbEntity
  8
0
100
AcDbCircle
 10
254.3675806771086
 20
53.04797815885129
 30
0.0
 40
0.5
100
AcDbArc
 50
90.0
 51
180.0
  0
ARC
  5
211E
330
1F
100
AcDbEntity
  8
0
100
AcDbCircle
 10
267.3675806771086
 20
40.04797815885129
 30
0.0
 40
0.5
100
AcDbArc
 50
270.0
 51
0.0
  0
ARC
  5
211F
330
1F
100
AcDbEntity
  8
0
100
AcDbCircle
 10
254.3675806771086
 20
40.04797815885129
 30
0.0
 40
0.5
100
AcDbArc
 50
180.0
 51
270.0
  0
LINE
  5
2120
330
1F
100
AcDbEntity
  8
0
100
AcDbLine
 10
286.4175806771085
 20
51.07147815885131
 30
0.0
 11
273.4175806771086
 21
51.07147815885131
 31
0.0
  0
LINE
  5
2121
330
1F
100
AcDbEntity
  8
0
100
AcDbLine
 10
286.4175806771085
 20
37.07147815885128
 30
0.0
 11
273.4175806771086
 21
37.07147815885128
 31
0.0
  0
LINE
  5
2122
330
1F
100
AcDbEntity
  8
0
100
AcDbLine
 10
286.9175806771085
 20
50.5714781588513
 30
0.0
 11
286.9175806771085
 21
37.57147815885133
 31
0.0
  0
LINE
  5
2123
330
1F
100
AcDbEntity
  8
0
100
AcDbLine
 10
272.9175806771086
 20
50.5714781588513
 30
0.0
 11
272.9175806771086
 21
37.57147815885133
 31
0.0
  0
ARC
  5
2124
330
1F
100
AcDbEntity
  8
0
100
AcDbCircle
 10
286.4175806771085
 20
50.5714781588513
 30
0.0
 40
0.5
100
AcDbArc
 50
0.0
 51
90.0
  0
ARC
  5
2125
330
1F
100
AcDbEntity
  8
0
100
AcDbCircle
 10
273.4175806771086
 20
50.5714781588513
 30
0.0
 40
0.5
100
AcDbArc
 50
90.0
 51
180.0
  0
ARC
  5
2126
330
1F
100
AcDbEntity
  8
0
100
AcDbCircle
 10
286.4175806771085
 20
37.57147815885133
 30
0.0
 40
0.5
100
AcDbArc
 50
270.0
 51
0.0
  0
ARC
  5
2127
330
1F
100
AcDbEntity
  8
0
100
AcDbCircle
 10
273.4175806771086
 20
37.57147815885133
 30
0.0
 40
0.5
100
AcDbArc
 50
180.0
 51
270.0
  0
LINE
  5
2128
330
1F
100
AcDbEntity
  8
0
100
AcDbLine
 10
229.2675806771085
 20
46.30897815885129
 30
0.0
 11
216.2675806771086
 21
46.30897815885129
 31
0.0
  0
LINE
  5
2129
330
1F
100
AcDbEntity
  8
0
100
AcDbLine
 10
229.2675806771085
 20
32.30897815885132
 30
0.0
 11
216.2675806771086
 21
32.30897815885132
 31
0.0
  0
LINE
  5
212A
330
1F
100
AcDbEntity
  8
0
100
AcDbLine
 10
229.7675806771085
 20
45.80897815885129
 30
0.0
 11
229.7675806771085
 21
32.80897815885129
 31
0.0
  0
LINE
  5
212B
330
1F
100
AcDbEntity
  8
0
100
AcDbLine
 10
215.7675806771087
 20
45.80897815885129
 30
0.0
 11
215.7675806771087
 21
32.80897815885129
 31
0.0
  0
ARC
  5
212C
330
1F
100
AcDbEntity
  8
0
100
AcDbCircle
 10
229.2675806771085
 20
45.80897815885129
 30
0.0
 40
0.5
100
AcDbArc
 50
0.0
 51
90.0
  0
ARC
  5
212D
330
1F
100
AcDbEntity
  8
0
100
AcDbCircle
 10
216.2675806771086
 20
45.80897815885129
 30
0.0
 40
0.5
100
AcDbArc
 50
90.0
 51
180.0
  0
ARC
  5
212E
330
1F
100
AcDbEntity
  8
0
100
AcDbCircle
 10
229.2675806771085
 20
32.80897815885129
 30
0.0
 40
0.5
100
AcDbArc
 50
270.0
 51
0.0
  0
ARC
  5
212F
330
1F
100
AcDbEntity
  8
0
100
AcDbCircle
 10
216.2675806771086
 20
32.80897815885129
 30
0.0
 40
0.5
100
AcDbArc
 50
180.0
 51
270.0
  0
LINE
  5
2130
330
1F
100
AcDbEntity
  8
0
100
AcDbLine
 10
248.3175806771086
 20
41.54647815885127
 30
0.0
 11
235.3175806771086
 21
41.54647815885127
 31
0.0
  0
LINE
  5
2131
330
1F
100
AcDbEntity
  8
0
100
AcDbLine
 10
248.3175806771086
 20
27.5464781588513
 30
0.0
 11
235.3175806771086
 21
27.5464781588513
 31
0.0
  0
LINE
  5
2132
330
1F
100
AcDbEntity
  8
0
100
AcDbLine
 10
248.8175806771086
 20
41.0464781588513
 30
0.0
 11
248.8175806771086
 21
28.0464781588513
 31
0.0
  0
LINE
  5
2133
330
1F
100
AcDbEntity
  8
0
100
AcDbLine
 10
234.8175806771086
 20
41.0464781588513
 30
0.0
 11
234.8175806771086
 21
28.0464781588513
 31
0.0
  0
ARC
  5
2134
330
1F
100
AcDbEntity
  8
0
100
AcDbCircle
 10
248.3175806771086
 20
41.0464781588513
 30
0.0
 40
0.5
100
AcDbArc
 50
0.0
 51
90.0
  0
ARC
  5
2135
330
1F
100
AcDbEntity
  8
0
100
AcDbCircle
 10
235.3175806771086
 20
41.0464781588513
 30
0.0
 40
0.5
100
AcDbArc
 50
90.0
 51
180.0
  0
ARC
  5
2136
330
1F
100
AcDbEntity
  8
0
100
AcDbCircle
 10
248.3175806771086
 20
28.0464781588513
 30
0.0
 40
0.5
100
AcDbArc
 50
270.0
 51
0.0
  0
ARC
  5
2137
330
1F
100
AcDbEntity
  8
0
100
AcDbCircle
 10
235.3175806771086
 20
28.0464781588513
 30
0.0
 40
0.5
100
AcDbArc
 50
180.0
 51
270.0
  0
LINE
  5
2138
330
1F
100
AcDbEntity
  8
0
100
AcDbLine
 10
210.2175806771087
 20
41.54647815885127
 30
0.0
 11
197.2175806771085
 21
41.54647815885127
 31
0.0
  0
LINE
  5
2139
330
1F
100
AcDbEntity
  8
0
100
AcDbLine
 10
210.2175806771087
 20
27.5464781588513
 30
0.0
 11
197.2175806771085
 21
27.5464781588513
 31
0.0
  0
LINE
  5
213A
330
1F
100
AcDbEntity
  8
0
100
AcDbLine
 10
210.7175806771086
 20
41.0464781588513
 30
0.0
 11
210.7175806771086
 21
28.0464781588513
 31
0.0
  0
LINE
  5
213B
330
1F
100
AcDbEntity
  8
0
100
AcDbLine
 10
196.7175806771086
 20
41.0464781588513
 30
0.0
 11
196.7175806771086
 21
28.0464781588513
 31
0.0
  0
ARC
  5
213C
330
1F
100
AcDbEntity
  8
0
100
AcDbCircle
 10
210.2175806771087
 20
41.0464781588513
 30
0.0
 40
0.5
100
AcDbArc
 50
0.0
 51
90.0
  0
ARC
  5
213D
330
1F
100
AcDbEntity
  8
0
100
AcDbCircle
 10
197.2175806771085
 20
41.0464781588513
 30
0.0
 40
0.5
100
AcDbArc
 50
90.0
 51
180.0
  0
ARC
  5
213E
330
1F
100
AcDbEntity
  8
0
100
AcDbCircle
 10
210.2175806771087
 20
28.0464781588513
 30
0.0
 40
0.5
100
AcDbArc
 50
270.0
 51
0.0
  0
ARC
  5
213F
330
1F
100
AcDbEntity
  8
0
100
AcDbCircle
 10
197.2175806771085
 20
28.0464781588513
 30
0.0
 40
0.5
100
AcDbArc
 50
180.0
 51
270.0
  0
LINE
  5
2140
330
1F
100
AcDbEntity
  8
0
100
AcDbLine
 10
191.1675806771086
 20
39.2604781588513
 30
0.0
 11
178.1675806771086
 21
39.2604781588513
 31
0.0
  0
LINE
  5
2141
330
1F
100
AcDbEntity
  8
0
100
AcDbLine
 10
191.1675806771086
 20
25.2604781588513
 30
0.0
 11
178.1675806771086
 21
25.2604781588513
 31
0.0
  0
LINE
  5
2142
330
1F
100
AcDbEntity
  8
0
100
AcDbLine
 10
191.6675806771085
 20
38.7604781588513
 30
0.0
 11
191.6675806771085
 21
25.7604781588513
 31
0.0
  0
LINE
  5
2143
330
1F
100
AcDbEntity
  8
0
100
AcDbLine
 10
177.6675806771087
 20
38.7604781588513
 30
0.0
 11
177.6675806771087
 21
25.7604781588513
 31
0.0
  0
ARC
  5
2144
330
1F
100
AcDbEntity
  8
0
100
AcDbCircle
 10
191.1675806771086
 20
38.7604781588513
 30
0.0
 40
0.5
100
AcDbArc
 50
0.0
 51
90.0
  0
ARC
  5
2145
330
1F
100
AcDbEntity
  8
0
100
AcDbCircle
 10
178.1675806771086
 20
38.7604781588513
 30
0.0
 40
0.5
100
AcDbArc
 50
90.0
 51
180.0
  0
ARC
  5
2146
330
1F
100
AcDbEntity
  8
0
100
AcDbCircle
 10
191.1675806771086
 20
25.7604781588513
 30
0.0
 40
0.5
100
AcDbArc
 50
270.0
 51
0.0
  0
ARC
  5
2147
330
1F
100
AcDbEntity
  8
0
100
AcDbCircle
 10
178.1675806771086
 20
25.7604781588513
 30
0.0
 40
0.5
100
AcDbArc
 50
180.0
 51
270.0
  0
LINE
  5
2148
330
1F
100
AcDbEntity
  8
0
100
AcDbLine
 10
267.3675806771086
 20
34.49797815885131
 30
0.0
 11
254.3675806771086
 21
34.49797815885131
 31
0.0
  0
LINE
  5
2149
330
1F
100
AcDbEntity
  8
0
100
AcDbLine
 10
267.3675806771086
 20
20.49797815885128
 30
0.0
 11
254.3675806771086
 21
20.49797815885128
 31
0.0
  0
LINE
  5
214A
330
1F
100
AcDbEntity
  8
0
100
AcDbLine
 10
267.8675806771086
 20
33.99797815885131
 30
0.0
 11
267.8675806771086
 21
20.99797815885131
 31
0.0
  0
LINE
  5
214B
330
1F
100
AcDbEntity
  8
0
100
AcDbLine
 10
253.8675806771086
 20
33.99797815885131
 30
0.0
 11
253.8675806771086
 21
20.99797815885131
 31
0.0
  0
ARC
  5
214C
330
1F
100
AcDbEntity
  8
0
100
AcDbCircle
 10
267.3675806771086
 20
33.99797815885131
 30
0.0
 40
0.5
100
AcDbArc
 50
0.0
 51
90.0
  0
ARC
  5
214D
330
1F
100
AcDbEntity
  8
0
100
AcDbCircle
 10
254.3675806771086
 20
33.99797815885131
 30
0.0
 40
0.5
100
AcDbArc
 50
90.0
 51
180.0
  0
ARC
  5
214E
330
1F
100
AcDbEntity
  8
0
100
AcDbCircle
 10
267.3675806771086
 20
20.99797815885131
 30
0.0
 40
0.5
100
AcDbArc
 50
270.0
 51
0.0
  0
ARC
  5
214F
330
1F
100
AcDbEntity
  8
0
100
AcDbCircle
 10
254.3675806771086
 20
20.99797815885131
 30
0.0
 40
0.5
100
AcDbArc
 50
180.0
 51
270.0
  0
LINE
  5
2150
330
1F
100
AcDbEntity
  8
0
100
AcDbLine
 10
286.4175806771085
 20
32.02147815885132
 30
0.0
 11
273.4175806771086
 21
32.02147815885132
 31
0.0
  0
LINE
  5
2151
330
1F
100
AcDbEntity
  8
0
100
AcDbLine
 10
286.4175806771085
 20
18.02147815885129
 30
0.0
 11
273.4175806771086
 21
18.02147815885129
 31
0.0
  0
LINE
  5
2152
330
1F
100
AcDbEntity
  8
0
100
AcDbLine
 10
286.9175806771085
 20
31.52147815885133
 30
0.0
 11
286.9175806771085
 21
18.52147815885129
 31
0.0
  0
LINE
  5
2153
330
1F
100
AcDbEntity
  8
0
100
AcDbLine
 10
272.9175806771086
 20
31.52147815885133
 30
0.0
 11
272.9175806771086
 21
18.52147815885129
 31
0.0
  0
ARC
  5
2154
330
1F
100
AcDbEntity
  8
0
100
AcDbCircle
 10
286.4175806771085
 20
31.52147815885133
 30
0.0
 40
0.5
100
AcDbArc
 50
0.0
 51
90.0
  0
ARC
  5
2155
330
1F
100
AcDbEntity
  8
0
100
AcDbCircle
 10
273.4175806771086
 20
31.52147815885133
 30
0.0
 40
0.5
100
AcDbArc
 50
90.0
 51
180.0
  0
ARC
  5
2156
330
1F
100
AcDbEntity
  8
0
100
AcDbCircle
 10
286.4175806771085
 20
18.52147815885129
 30
0.0
 40
0.5
100
AcDbArc
 50
270.0
 51
0.0
  0
ARC
  5
2157
330
1F
100
AcDbEntity
  8
0
100
AcDbCircle
 10
273.4175806771086
 20
18.52147815885129
 30
0.0
 40
0.5
100
AcDbArc
 50
180.0
 51
270.0
  0
LINE
  5
2158
330
1F
100
AcDbEntity
  8
0
100
AcDbLine
 10
210.2175806771087
 20
22.49647815885129
 30
0.0
 11
197.2175806771085
 21
22.49647815885129
 31
0.0
  0
LINE
  5
2159
330
1F
100
AcDbEntity
  8
0
100
AcDbLine
 10
210.2175806771087
 20
8.496478158851289
 30
0.0
 11
197.2175806771085
 21
8.496478158851289
 31
0.0
  0
LINE
  5
215A
330
1F
100
AcDbEntity
  8
0
100
AcDbLine
 10
210.7175806771086
 20
21.99647815885132
 30
0.0
 11
210.7175806771086
 21
8.996478158851289
 31
0.0
  0
LINE
  5
215B
330
1F
100
AcDbEntity
  8
0
100
AcDbLine
 10
196.7175806771086
 20
21.99647815885132
 30
0.0
 11
196.7175806771086
 21
8.996478158851289
 31
0.0
  0
ARC
  5
215C
330
1F
100
AcDbEntity
  8
0
100
AcDbCircle
 10
210.2175806771087
 20
21.99647815885132
 30
0.0
 40
0.5
100
AcDbArc
 50
0.0
 51
90.0
  0
ARC
  5
215D
330
1F
100
AcDbEntity
  8
0
100
AcDbCircle
 10
197.2175806771085
 20
21.99647815885132
 30
0.0
 40
0.5
100
AcDbArc
 50
90.0
 51
180.0
  0
ARC
  5
215E
330
1F
100
AcDbEntity
  8
0
100
AcDbCircle
 10
210.2175806771087
 20
8.996478158851289
 30
0.0
 40
0.5
100
AcDbArc
 50
270.0
 51
0.0
  0
ARC
  5
215F
330
1F
100
AcDbEntity
  8
0
100
AcDbCircle
 10
197.2175806771085
 20
8.996478158851289
 30
0.0
 40
0.5
100
AcDbArc
 50
180.0
 51
270.0
  0
LINE
  5
2160
330
1F
100
AcDbEntity
  8
0
100
AcDbLine
 10
191.1675806771086
 20
20.21047815885129
 30
0.0
 11
178.1675806771086
 21
20.21047815885129
 31
0.0
  0
LINE
  5
2161
330
1F
100
AcDbEntity
  8
0
100
AcDbLine
 10
191.1675806771086
 20
6.210478158851287
 30
0.0
 11
178.1675806771086
 21
6.210478158851287
 31
0.0
  0
LINE
  5
2162
330
1F
100
AcDbEntity
  8
0
100
AcDbLine
 10
191.6675806771085
 20
19.71047815885128
 30
0.0
 11
191.6675806771085
 21
6.710478158851287
 31
0.0
  0
LINE
  5
2163
330
1F
100
AcDbEntity
  8
0
100
AcDbLine
 10
177.6675806771087
 20
19.71047815885128
 30
0.0
 11
177.6675806771087
 21
6.710478158851287
 31
0.0
  0
ARC
  5
2164
330
1F
100
AcDbEntity
  8
0
100
AcDbCircle
 10
191.1675806771086
 20
19.71047815885128
 30
0.0
 40
0.5
100
AcDbArc
 50
0.0
 51
90.0
  0
ARC
  5
2165
330
1F
100
AcDbEntity
  8
0
100
AcDbCircle
 10
178.1675806771086
 20
19.71047815885128
 30
0.0
 40
0.5
100
AcDbArc
 50
90.0
 51
180.0
  0
ARC
  5
2166
330
1F
100
AcDbEntity
  8
0
100
AcDbCircle
 10
191.1675806771086
 20
6.710478158851287
 30
0.0
 40
0.5
100
AcDbArc
 50
270.0
 51
0.0
  0
ARC
  5
2167
330
1F
100
AcDbEntity
  8
0
100
AcDbCircle
 10
178.1675806771086
 20
6.710478158851287
 30
0.0
 40
0.5
100
AcDbArc
 50
180.0
 51
270.0
  0
LINE
  5
2168
330
1F
100
AcDbEntity
  8
0
100
AcDbLine
 10
172.1175806771086
 20
17.7339781588513
 30
0.0
 11
159.1175806771087
 21
17.7339781588513
 31
0.0
  0
LINE
  5
2169
330
1F
100
AcDbEntity
  8
0
100
AcDbLine
 10
172.1175806771086
 20
3.7339781588513
 30
0.0
 11
159.1175806771087
 21
3.7339781588513
 31
0.0
  0
LINE
  5
216A
330
1F
100
AcDbEntity
  8
0
100
AcDbLine
 10
172.6175806771086
 20
17.2339781588513
 30
0.0
 11
172.6175806771086
 21
4.2339781588513
 31
0.0
  0
LINE
  5
216B
330
1F
100
AcDbEntity
  8
0
100
AcDbLine
 10
158.6175806771087
 20
17.2339781588513
 30
0.0
 11
158.6175806771087
 21
4.2339781588513
 31
0.0
  0
ARC
  5
216C
330
1F
100
AcDbEntity
  8
0
100
AcDbCircle
 10
172.1175806771086
 20
17.2339781588513
 30
0.0
 40
0.5
100
AcDbArc
 50
0.0
 51
90.0
  0
ARC
  5
216D
330
1F
100
AcDbEntity
  8
0
100
AcDbCircle
 10
159.1175806771087
 20
17.2339781588513
 30
0.0
 40
0.5
100
AcDbArc
 50
90.0
 51
180.0
  0
ARC
  5
216E
330
1F
100
AcDbEntity
  8
0
100
AcDbCircle
 10
172.1175806771086
 20
4.2339781588513
 30
0.0
 40
0.5
100
AcDbArc
 50
270.0
 51
0.0
  0
ARC
  5
216F
330
1F
100
AcDbEntity
  8
0
100
AcDbCircle
 10
159.1175806771087
 20
4.2339781588513
 30
0.0
 40
0.5
100
AcDbArc
 50
180.0
 51
270.0
  0
LINE
  5
2170
330
1F
100
AcDbEntity
  8
0
100
AcDbLine
 10
288.4675806771086
 20
72.62147815885128
 30
0.0
 11
271.3675805847572
 21
72.62147815885128
 31
0.0
  0
ARC
  5
2171
330
1F
100
AcDbEntity
  8
0
100
AcDbCircle
 10
271.3675805847572
 20
73.62147815885129
 30
0.0
 40
1.0
100
AcDbArc
 50
180.0
 51
270.0
  0
LINE
  5
2172
330
1F
100
AcDbEntity
  8
0
100
AcDbLine
 10
213.2175806771086
 20
6.996478158851289
 30
0.0
 11
213.2175806771086
 21
28.80897815885132
 31
0.0
  0
ARC
  5
2173
330
1F
100
AcDbEntity
  8
0
100
AcDbCircle
 10
214.2175806771086
 20
28.80897815885132
 30
0.0
 40
1.0
100
AcDbArc
 50
90.0
 51
180.0
  0
ARC
  5
2174
330
1F
100
AcDbEntity
  8
0
100
AcDbCircle
 10
212.2175806771086
 20
6.996478158851289
 30
0.0
 40
1.0
100
AcDbArc
 50
270.0
 51
0.0
  0
LINE
  5
2175
330
1F
100
AcDbEntity
  8
0
100
AcDbLine
 10
269.3675805847572
 20
75.0979782492617
 30
0.0
 11
252.3175805847572
 21
75.0979782492617
 31
0.0
  0
ARC
  5
2176
330
1F
100
AcDbEntity
  8
0
100
AcDbCircle
 10
252.3175805847572
 20
76.0979782492617
 30
0.0
 40
1.0
100
AcDbArc
 50
180.0
 51
270.0
  0
LINE
  5
2177
330
1F
100
AcDbEntity
  8
0
100
AcDbLine
 10
250.3175805847572
 20
82.14647824926169
 30
0.0
 11
233.2675805847572
 21
82.14647824926169
 31
0.0
  0
ARC
  5
2178
330
1F
100
AcDbEntity
  8
0
100
AcDbCircle
 10
233.2675805847572
 20
83.14647824926169
 30
0.0
 40
1.0
100
AcDbArc
 50
180.0
 51
270.0
  0
LINE
  5
2179
330
1F
100
AcDbEntity
  8
0
100
AcDbLine
 10
231.2675805847572
 20
86.90897824926171
 30
0.0
 11
214.2675805847573
 21
86.90897824926171
 31
0.0
  0
LINE
  5
217A
330
1F
100
AcDbEntity
  8
0
100
AcDbLine
 10
212.2675805847573
 20
82.14647824926169
 30
0.0
 11
195.2175805847571
 21
82.14647824926169
 31
0.0
  0
ARC
  5
217B
330
1F
100
AcDbEntity
  8
0
100
AcDbCircle
 10
195.2175805847571
 20
81.14647824926169
 30
0.0
 40
1.0
100
AcDbArc
 50
90.0
 51
180.0
  0
LINE
  5
217C
330
1F
100
AcDbEntity
  8
0
100
AcDbLine
 10
193.2175805847571
 20
79.86047815885132
 30
0.0
 11
176.1675806771086
 21
79.86047815885132
 31
0.0
  0
ARC
  5
217D
330
1F
100
AcDbEntity
  8
0
100
AcDbCircle
 10
176.1675806771086
 20
78.86047815885127
 30
0.0
 40
1.0
100
AcDbArc
 50
90.0
 51
180.0
  0
LINE
  5
217E
330
1F
100
AcDbEntity
  8
0
100
AcDbLine
 10
288.4175806771085
 20
15.52147815885132
 30
0.0
 11
271.4175806771086
 21
15.52147815885132
 31
0.0
  0
ARC
  5
217F
330
1F
100
AcDbEntity
  8
0
100
AcDbCircle
 10
288.4175806771085
 20
16.52147815885132
 30
0.0
 40
1.0
100
AcDbArc
 50
270.0
 51
0.0
  0
ARC
  5
2180
330
1F
100
AcDbEntity
  8
0
100
AcDbCircle
 10
271.4175806771086
 20
16.52147815885132
 30
0.0
 40
1.0
100
AcDbArc
 50
180.0
 51
270.0
  0
LINE
  5
2181
330
1F
100
AcDbEntity
  8
0
100
AcDbLine
 10
269.4175806771086
 20
17.99797815885128
 30
0.0
 11
252.3675806771086
 21
17.99797815885128
 31
0.0
  0
ARC
  5
2182
330
1F
100
AcDbEntity
  8
0
100
AcDbCircle
 10
252.3675806771086
 20
18.99797815885128
 30
0.0
 40
1.0
100
AcDbArc
 50
180.0
 51
270.0
  0
LINE
  5
2183
330
1F
100
AcDbEntity
  8
0
100
AcDbLine
 10
250.3675806771086
 20
25.0464781588513
 30
0.0
 11
233.3175806771086
 21
25.0464781588513
 31
0.0
  0
ARC
  5
2184
330
1F
100
AcDbEntity
  8
0
100
AcDbCircle
 10
233.3175806771086
 20
26.0464781588513
 30
0.0
 40
1.0
100
AcDbArc
 50
180.0
 51
270.0
  0
LINE
  5
2185
330
1F
100
AcDbEntity
  8
0
100
AcDbLine
 10
231.3175806771086
 20
29.80897815885132
 30
0.0
 11
214.2175806771086
 21
29.80897815885132
 31
0.0
  0
LINE
  5
2186
330
1F
100
AcDbEntity
  8
0
100
AcDbLine
 10
212.2175806771086
 20
5.996478158851289
 30
0.0
 11
195.1675806771086
 21
5.996478158851289
 31
0.0
  0
ARC
  5
2187
330
1F
100
AcDbEntity
  8
0
100
AcDbCircle
 10
195.1675806771086
 20
4.996478158851289
 30
0.0
 40
1.0
100
AcDbArc
 50
90.0
 51
180.0
  0
LINE
  5
2188
330
1F
100
AcDbEntity
  8
0
100
AcDbLine
 10
193.1675806771086
 20
3.710478158851287
 30
0.0
 11
176.1175806771086
 21
3.710478158851287
 31
0.0
  0
ARC
  5
2189
330
1F
100
AcDbEntity
  8
0
100
AcDbCircle
 10
176.1175806771086
 20
2.710478158851287
 30
0.0
 40
1.0
100
AcDbArc
 50
90.0
 51
180.0
  0
LINE
  5
218A
330
1F
100
AcDbEntity
  8
0
100
AcDbLine
 10
174.1175806771086
 20
1.2339781588513
 30
0.0
 11
157.1175806771087
 21
1.2339781588513
 31
0.0
  0
ARC
  5
218B
330
1F
100
AcDbEntity
  8
0
100
AcDbCircle
 10
174.1175806771086
 20
2.2339781588513
 30
0.0
 40
1.0
100
AcDbArc
 50
270.0
 51
0.0
  0
ARC
  5
218C
330
1F
100
AcDbEntity
  8
0
100
AcDbCircle
 10
157.1175806771087
 20
2.2339781588513
 30
0.0
 40
1.0
100
AcDbArc
 50
180.0
 51
270.0
  0
LINE
  5
218D
330
1F
100
AcDbEntity
  8
0
100
AcDbLine
 10
289.4175806771085
 20
38.33397815885133
 30
0.0
 11
289.4175806771085
 21
16.52147815885132
 31
0.0
  0
ARC
  5
218E
330
1F
100
AcDbEntity
  8
0
100
AcDbCircle
 10
290.4175806771085
 20
38.33397815885133
 30
0.0
 40
1.0
100
AcDbArc
 50
90.0
 51
180.0
  0
LINE
  5
218F
330
1F
100
AcDbEntity
  8
0
100
AcDbLine
 10
307.4675806771086
 20
39.33397815885129
 30
0.0
 11
290.4175806771085
 21
39.33397815885129
 31
0.0
  0
LINE
  5
2190
330
1F
100
AcDbEntity
  8
0
100
AcDbLine
 10
308.4675806771086
 20
57.33397815885132
 30
0.0
 11
308.4675806771086
 21
40.3339781588513
 31
0.0
  0
ARC
  5
2191
330
1F
100
AcDbEntity
  8
0
100
AcDbCircle
 10
307.4675806771086
 20
40.3339781588513
 30
0.0
 40
1.0
100
AcDbArc
 50
270.0
 51
0.0
  0
ARC
  5
2192
330
1F
100
AcDbEntity
  8
0
100
AcDbCircle
 10
307.4675806771086
 20
57.33397815885132
 30
0.0
 40
1.0
100
AcDbArc
 50
0.0
 51
90.0
  0
LINE
  5
2193
330
1F
100
AcDbEntity
  8
0
100
AcDbLine
 10
307.4675806771086
 20
58.33397815885132
 30
0.0
 11
290.4675806771086
 21
58.33397815885132
 31
0.0
  0
ARC
  5
2194
330
1F
100
AcDbEntity
  8
0
100
AcDbCircle
 10
290.4675806771086
 20
59.33397815885133
 30
0.0
 40
1.0
100
AcDbArc
 50
180.0
 51
270.0
  0
ARC
  5
2195
330
1F
100
AcDbEntity
  8
0
100
AcDbCircle
 10
288.4675806771086
 20
71.62147815885129
 30
0.0
 40
1.0
100
AcDbArc
 50
0.0
 51
90.0
  0
LINE
  5
2196
330
1F
100
AcDbEntity
  8
0
100
AcDbLine
 10
270.3675805847572
 20
74.0979782492617
 30
0.0
 11
270.3675805847572
 21
73.62147815885129
 31
0.0
  0
ARC
  5
2197
330
1F
100
AcDbEntity
  8
0
100
AcDbCircle
 10
269.3675805847572
 20
74.0979782492617
 30
0.0
 40
1.0
100
AcDbArc
 50
0.0
 51
90.0
  0
LINE
  5
2198
330
1F
100
AcDbEntity
  8
0
100
AcDbLine
 10
251.3175805847572
 20
81.14647824926169
 30
0.0
 11
251.3175805847572
 21
76.0979782492617
 31
0.0
  0
ARC
  5
2199
330
1F
100
AcDbEntity
  8
0
100
AcDbCircle
 10
250.3175805847572
 20
81.14647824926169
 30
0.0
 40
1.0
100
AcDbArc
 50
0.0
 51
90.0
  0
LINE
  5
219A
330
1F
100
AcDbEntity
  8
0
100
AcDbLine
 10
232.2675805847572
 20
85.90897824926171
 30
0.0
 11
232.2675805847572
 21
83.14647824926169
 31
0.0
  0
ARC
  5
219B
330
1F
100
AcDbEntity
  8
0
100
AcDbCircle
 10
231.2675805847572
 20
85.90897824926171
 30
0.0
 40
1.0
100
AcDbArc
 50
0.0
 51
90.0
  0
LINE
  5
219C
330
1F
100
AcDbEntity
  8
0
100
AcDbLine
 10
213.2675805847572
 20
85.90897824926171
 30
0.0
 11
213.2675805847572
 21
83.14647824926169
 31
0.0
  0
ARC
  5
219D
330
1F
100
AcDbEntity
  8
0
100
AcDbCircle
 10
212.2675805847573
 20
83.14647824926169
 30
0.0
 40
1.0
100
AcDbArc
 50
270.0
 51
0.0
  0
ARC
  5
219E
330
1F
100
AcDbEntity
  8
0
100
AcDbCircle
 10
214.2675805847573
 20
85.90897824926171
 30
0.0
 40
1.0
100
AcDbArc
 50
90.0
 51
180.0
  0
LINE
  5
219F
330
1F
100
AcDbEntity
  8
0
100
AcDbLine
 10
194.2175805847571
 20
81.14647824926169
 30
0.0
 11
194.2175805847571
 21
80.86047815885132
 31
0.0
  0
ARC
  5
21A0
330
1F
100
AcDbEntity
  8
0
100
AcDbCircle
 10
193.2175805847571
 20
80.86047815885132
 30
0.0
 40
1.0
100
AcDbArc
 50
270.0
 51
0.0
  0
LINE
  5
21A1
330
1F
100
AcDbEntity
  8
0
100
AcDbLine
 10
175.1175806771086
 20
2.710478158851287
 30
0.0
 11
175.1175806771086
 21
2.2339781588513
 31
0.0
  0
LINE
  5
21A2
330
1F
100
AcDbEntity
  8
0
100
AcDbLine
 10
194.1675806771086
 20
4.996478158851289
 30
0.0
 11
194.1675806771086
 21
4.710478158851287
 31
0.0
  0
ARC
  5
21A3
330
1F
100
AcDbEntity
  8
0
100
AcDbCircle
 10
193.1675806771086
 20
4.710478158851287
 30
0.0
 40
1.0
100
AcDbArc
 50
270.0
 51
0.0
  0
LINE
  5
21A4
330
1F
100
AcDbEntity
  8
0
100
AcDbLine
 10
232.3175806771086
 20
28.80897815885132
 30
0.0
 11
232.3175806771086
 21
26.0464781588513
 31
0.0
  0
ARC
  5
21A5
330
1F
100
AcDbEntity
  8
0
100
AcDbCircle
 10
231.3175806771086
 20
28.80897815885132
 30
0.0
 40
1.0
100
AcDbArc
 50
0.0
 51
90.0
  0
LINE
  5
21A6
330
1F
100
AcDbEntity
  8
0
100
AcDbLine
 10
251.3675806771086
 20
24.0464781588513
 30
0.0
 11
251.3675806771086
 21
18.99797815885128
 31
0.0
  0
ARC
  5
21A7
330
1F
100
AcDbEntity
  8
0
100
AcDbCircle
 10
250.3675806771086
 20
24.0464781588513
 30
0.0
 40
1.0
100
AcDbArc
 50
0.0
 51
90.0
  0
LINE
  5
21A8
330
1F
100
AcDbEntity
  8
0
100
AcDbLine
 10
270.4175806771086
 20
16.99797815885128
 30
0.0
 11
270.4175806771086
 21
16.52147815885132
 31
0.0
  0
ARC
  5
21A9
330
1F
100
AcDbEntity
  8
0
100
AcDbCircle
 10
269.4175806771086
 20
16.99797815885128
 30
0.0
 40
1.0
100
AcDbArc
 50
0.0
 51
90.0
  0
CIRCLE
  5
21AA
330
1F
100
AcDbEntity
  8
0
100
AcDbCircle
 10
194.1925806771085
 20
23.87847815885129
 30
0.0
 40
1.0
  0
CIRCLE
  5
21AB
330
1F
100
AcDbEntity
  8
0
100
AcDbCircle
 10
289.4675806771086
 20
53.57147815885131
 30
0.0
 40
1.0
  0
CIRCLE
  5
21AC
330
1F
100
AcDbEntity
  8
0
100
AcDbCircle
 10
270.3925806771086
 20
35.7847281588513
 30
0.0
 40
1.0
  0
CIRCLE
  5
21AD
330
1F
100
AcDbEntity
  8
0
100
AcDbCircle
 10
232.3476444446151
 20
65.51676669363641
 30
0.0
 40
1.0
  0
CIRCLE
  5
21AE
330
1F
100
AcDbEntity
  8
0
100
AcDbCircle
 10
194.1925806771085
 20
61.97847815885129
 30
0.0
 40
1.0
  0
ARC
  5
21AF
330
1F
100
AcDbEntity
  8
0
100
AcDbCircle
 10
174.1675806771086
 20
21.2339781588513
 30
0.0
 40
1.0
100
AcDbArc
 50
270.0
 51
0.0
  0
LINE
  5
21B0
330
1F
100
AcDbEntity
  8
0
100
AcDbLine
 10
174.1675806771086
 20
20.2339781588513
 30
0.0
 11
156.1175806771087
 21
20.2339781588513
 31
0.0
  0
LINE
  5
21B1
330
1F
100
AcDbEntity
  8
0
100
AcDbLine
 10
156.1175806771087
 20
2.2339781588513
 30
0.0
 11
156.1175806771087
 21
20.2339781588513
 31
0.0
  0
LINE
  5
21B2
330
1F
100
AcDbEntity
  8
0
100
AcDbLine
 10
289.4675806771086
 20
71.62147815885129
 30
0.0
 11
289.4675806771086
 21
59.33397815885133
 31
0.0
  0
LINE
  5
21B3
330
1F
100
AcDbEntity
  8
0
100
AcDbLine
 10
175.1675806771086
 20
21.2339781588513
 30
0.0
 11
175.1675806771086
 21
78.86047815885127
 31
0.0
  0
LINE
  5
21FF
330
1F
100
AcDbEntity
  8
0
100
AcDbLine
 10
21.76758067710875
 20
103.1964783396721
 30
0.0
 11
38.86758076946012
 21
103.1964783396721
 31
0.0
  0
ARC
  5
2200
330
1F
100
AcDbEntity
  8
0
100
AcDbCircle
 10
38.86758076946012
 20
102.1964783396721
 30
0.0
 40
1.0
100
AcDbArc
 50
0.0
 51
90.0
  0
LINE
  5
2201
330
1F
100
AcDbEntity
  8
0
100
AcDbLine
 10
97.01758067710869
 20
168.8214783396722
 30
0.0
 11
97.01758067710869
 21
147.0089783396721
 31
0.0
  0
ARC
  5
2202
330
1F
100
AcDbEntity
  8
0
100
AcDbCircle
 10
96.01758067710875
 20
147.0089783396721
 30
0.0
 40
1.0
100
AcDbArc
 50
270.0
 51
0.0
  0
ARC
  5
2203
330
1F
100
AcDbEntity
  8
0
100
AcDbCircle
 10
98.01758067710876
 20
168.8214783396722
 30
0.0
 40
1.0
100
AcDbArc
 50
90.0
 51
180.0
  0
LINE
  5
2204
330
1F
100
AcDbEntity
  8
0
100
AcDbLine
 10
40.86758076946011
 20
100.7199782492617
 30
0.0
 11
57.91758076946007
 21
100.7199782492617
 31
0.0
  0
ARC
  5
2205
330
1F
100
AcDbEntity
  8
0
100
AcDbCircle
 10
57.91758076946007
 20
99.71997824926175
 30
0.0
 40
1.0
100
AcDbArc
 50
0.0
 51
90.0
  0
LINE
  5
2206
330
1F
100
AcDbEntity
  8
0
100
AcDbLine
 10
59.91758076946007
 20
93.67147824926176
 30
0.0
 11
76.96758076946014
 21
93.67147824926176
 31
0.0
  0
ARC
  5
2207
330
1F
100
AcDbEntity
  8
0
100
AcDbCircle
 10
76.96758076946014
 20
92.67147824926174
 30
0.0
 40
1.0
100
AcDbArc
 50
0.0
 51
90.0
  0
LINE
  5
2208
330
1F
100
AcDbEntity
  8
0
100
AcDbLine
 10
78.96758076946014
 20
88.9089782492617
 30
0.0
 11
95.96758076946008
 21
88.9089782492617
 31
0.0
  0
LINE
  5
2209
330
1F
100
AcDbEntity
  8
0
100
AcDbLine
 10
97.96758076946009
 20
93.67147824926176
 30
0.0
 11
115.0175807694602
 21
93.67147824926176
 31
0.0
  0
ARC
  5
220A
330
1F
100
AcDbEntity
  8
0
100
AcDbCircle
 10
115.0175807694602
 20
94.67147824926176
 30
0.0
 40
1.0
100
AcDbArc
 50
270.0
 51
0.0
  0
LINE
  5
220B
330
1F
100
AcDbEntity
  8
0
100
AcDbLine
 10
117.0175807694602
 20
95.95747833967212
 30
0.0
 11
134.0675806771087
 21
95.95747833967212
 31
0.0
  0
ARC
  5
220C
330
1F
100
AcDbEntity
  8
0
100
AcDbCircle
 10
134.0675806771087
 20
96.95747833967217
 30
0.0
 40
1.0
100
AcDbArc
 50
270.0
 51
0.0
  0
LINE
  5
220D
330
1F
100
AcDbEntity
  8
0
100
AcDbLine
 10
21.81758067710877
 20
160.2964783396721
 30
0.0
 11
38.81758067710876
 21
160.2964783396721
 31
0.0
  0
ARC
  5
220E
330
1F
100
AcDbEntity
  8
0
100
AcDbCircle
 10
21.81758067710877
 20
159.2964783396721
 30
0.0
 40
1.0
100
AcDbArc
 50
90.0
 51
180.0
  0
ARC
  5
220F
330
1F
100
AcDbEntity
  8
0
100
AcDbCircle
 10
38.81758067710876
 20
159.2964783396721
 30
0.0
 40
1.0
100
AcDbArc
 50
0.0
 51
90.0
  0
LINE
  5
2210
330
1F
100
AcDbEntity
  8
0
100
AcDbLine
 10
40.81758067710876
 20
157.8199783396721
 30
0.0
 11
57.86758067710883
 21
157.8199783396721
 31
0.0
  0
ARC
  5
2211
330
1F
100
AcDbEntity
  8
0
100
AcDbCircle
 10
57.86758067710883
 20
156.8199783396721
 30
0.0
 40
1.0
100
AcDbArc
 50
0.0
 51
90.0
  0
LINE
  5
2212
330
1F
100
AcDbEntity
  8
0
100
AcDbLine
 10
59.86758067710884
 20
150.7714783396721
 30
0.0
 11
76.91758067710873
 21
150.7714783396721
 31
0.0
  0
ARC
  5
2213
330
1F
100
AcDbEntity
  8
0
100
AcDbCircle
 10
76.91758067710873
 20
149.7714783396721
 30
0.0
 40
1.0
100
AcDbArc
 50
0.0
 51
90.0
  0
LINE
  5
2214
330
1F
100
AcDbEntity
  8
0
100
AcDbLine
 10
78.91758067710878
 20
146.0089783396721
 30
0.0
 11
96.01758067710875
 21
146.0089783396721
 31
0.0
  0
LINE
  5
2215
330
1F
100
AcDbEntity
  8
0
100
AcDbLine
 10
98.01758067710876
 20
169.8214783396722
 30
0.0
 11
115.0675806771087
 21
169.8214783396722
 31
0.0
  0
ARC
  5
2216
330
1F
100
AcDbEntity
  8
0
100
AcDbCircle
 10
115.0675806771087
 20
170.8214783396722
 30
0.0
 40
1.0
100
AcDbArc
 50
270.0
 51
0.0
  0
LINE
  5
2217
330
1F
100
AcDbEntity
  8
0
100
AcDbLine
 10
117.0675806771087
 20
172.1074783396721
 30
0.0
 11
134.1175806771087
 21
172.1074783396721
 31
0.0
  0
ARC
  5
2218
330
1F
100
AcDbEntity
  8
0
100
AcDbCircle
 10
134.1175806771087
 20
173.1074783396721
 30
0.0
 40
1.0
100
AcDbArc
 50
270.0
 51
0.0
  0
LINE
  5
2219
330
1F
100
AcDbEntity
  8
0
100
AcDbLine
 10
136.1175806771087
 20
174.5839783396721
 30
0.0
 11
153.1175806771086
 21
174.5839783396721
 31
0.0
  0
ARC
  5
221A
330
1F
100
AcDbEntity
  8
0
100
AcDbCircle
 10
136.1175806771087
 20
173.5839783396721
 30
0.0
 40
1.0
100
AcDbArc
 50
90.0
 51
180.0
  0
ARC
  5
221B
330
1F
100
AcDbEntity
  8
0
100
AcDbCircle
 10
153.1175806771086
 20
173.5839783396721
 30
0.0
 40
1.0
100
AcDbArc
 50
0.0
 51
90.0
  0
LINE
  5
221C
330
1F
100
AcDbEntity
  8
0
100
AcDbLine
 10
20.81758067710877
 20
137.4839783396721
 30
0.0
 11
20.81758067710877
 21
159.2964783396721
 31
0.0
  0
ARC
  5
221D
330
1F
100
AcDbEntity
  8
0
100
AcDbCircle
 10
19.81758067710876
 20
137.4839783396721
 30
0.0
 40
1.0
100
AcDbArc
 50
270.0
 51
0.0
  0
LINE
  5
221E
330
1F
100
AcDbEntity
  8
0
100
AcDbLine
 10
2.76758067710881
 20
136.4839783396721
 30
0.0
 11
19.81758067710876
 21
136.4839783396721
 31
0.0
  0
LINE
  5
221F
330
1F
100
AcDbEntity
  8
0
100
AcDbLine
 10
1.76758067710881
 20
118.4839783396721
 30
0.0
 11
1.76758067710881
 21
135.4839783396721
 31
0.0
  0
ARC
  5
2220
330
1F
100
AcDbEntity
  8
0
100
AcDbCircle
 10
2.76758067710881
 20
135.4839783396721
 30
0.0
 40
1.0
100
AcDbArc
 50
90.0
 51
180.0
  0
ARC
  5
2221
330
1F
100
AcDbEntity
  8
0
100
AcDbCircle
 10
2.76758067710881
 20
118.4839783396721
 30
0.0
 40
1.0
100
AcDbArc
 50
180.0
 51
270.0
  0
LINE
  5
2222
330
1F
100
AcDbEntity
  8
0
100
AcDbLine
 10
2.76758067710881
 20
117.4839783396721
 30
0.0
 11
19.76758067710881
 21
117.4839783396721
 31
0.0
  0
ARC
  5
2223
330
1F
100
AcDbEntity
  8
0
100
AcDbCircle
 10
19.76758067710881
 20
116.4839783396721
 30
0.0
 40
1.0
100
AcDbArc
 50
0.0
 51
90.0
  0
ARC
  5
2224
330
1F
100
AcDbEntity
  8
0
100
AcDbCircle
 10
21.76758067710875
 20
104.1964783396721
 30
0.0
 40
1.0
100
AcDbArc
 50
180.0
 51
270.0
  0
LINE
  5
2225
330
1F
100
AcDbEntity
  8
0
100
AcDbLine
 10
39.86758076946012
 20
101.7199782492617
 30
0.0
 11
39.86758076946012
 21
102.1964783396721
 31
0.0
  0
ARC
  5
2226
330
1F
100
AcDbEntity
  8
0
100
AcDbCircle
 10
40.86758076946011
 20
101.7199782492617
 30
0.0
 40
1.0
100
AcDbArc
 50
180.0
 51
270.0
  0
LINE
  5
2227
330
1F
100
AcDbEntity
  8
0
100
AcDbLine
 10
58.91758076946008
 20
94.67147824926176
 30
0.0
 11
58.91758076946008
 21
99.71997824926175
 31
0.0
  0
ARC
  5
2228
330
1F
100
AcDbEntity
  8
0
100
AcDbCircle
 10
59.91758076946007
 20
94.67147824926176
 30
0.0
 40
1.0
100
AcDbArc
 50
180.0
 51
270.0
  0
LINE
  5
2229
330
1F
100
AcDbEntity
  8
0
100
AcDbLine
 10
77.96758076946014
 20
89.9089782492617
 30
0.0
 11
77.96758076946014
 21
92.67147824926174
 31
0.0
  0
ARC
  5
222A
330
1F
100
AcDbEntity
  8
0
100
AcDbCircle
 10
78.96758076946014
 20
89.9089782492617
 30
0.0
 40
1.0
100
AcDbArc
 50
180.0
 51
270.0
  0
LINE
  5
222B
330
1F
100
AcDbEntity
  8
0
100
AcDbLine
 10
96.96758076946009
 20
89.9089782492617
 30
0.0
 11
96.96758076946009
 21
92.67147824926174
 31
0.0
  0
ARC
  5
222C
330
1F
100
AcDbEntity
  8
0
100
AcDbCircle
 10
97.96758076946009
 20
92.67147824926174
 30
0.0
 40
1.0
100
AcDbArc
 50
90.0
 51
180.0
  0
ARC
  5
222D
330
1F
100
AcDbEntity
  8
0
100
AcDbCircle
 10
95.96758076946008
 20
89.9089782492617
 30
0.0
 40
1.0
100
AcDbArc
 50
270.0
 51
0.0
  0
LINE
  5
222E
330
1F
100
AcDbEntity
  8
0
100
AcDbLine
 10
116.0175807694602
 20
94.67147824926176
 30
0.0
 11
116.0175807694602
 21
94.95747833967213
 31
0.0
  0
ARC
  5
222F
330
1F
100
AcDbEntity
  8
0
100
AcDbCircle
 10
117.0175807694602
 20
94.95747833967213
 30
0.0
 40
1.0
100
AcDbArc
 50
90.0
 51
180.0
  0
LINE
  5
2230
330
1F
100
AcDbEntity
  8
0
100
AcDbLine
 10
135.1175806771087
 20
173.1074783396721
 30
0.0
 11
135.1175806771087
 21
173.5839783396721
 31
0.0
  0
LINE
  5
2231
330
1F
100
AcDbEntity
  8
0
100
AcDbLine
 10
116.0675806771087
 20
170.8214783396722
 30
0.0
 11
116.0675806771087
 21
171.1074783396721
 31
0.0
  0
ARC
  5
2232
330
1F
100
AcDbEntity
  8
0
100
AcDbCircle
 10
117.0675806771087
 20
171.1074783396721
 30
0.0
 40
1.0
100
AcDbArc
 50
90.0
 51
180.0
  0
LINE
  5
2233
330
1F
100
AcDbEntity
  8
0
100
AcDbLine
 10
77.91758067710873
 20
147.0089783396721
 30
0.0
 11
77.91758067710873
 21
149.7714783396721
 31
0.0
  0
ARC
  5
2234
330
1F
100
AcDbEntity
  8
0
100
AcDbCircle
 10
78.91758067710878
 20
147.0089783396721
 30
0.0
 40
1.0
100
AcDbArc
 50
180.0
 51
270.0
  0
LINE
  5
2235
330
1F
100
AcDbEntity
  8
0
100
AcDbLine
 10
58.86758067710883
 20
151.7714783396721
 30
0.0
 11
58.86758067710883
 21
156.8199783396721
 31
0.0
  0
ARC
  5
2236
330
1F
100
AcDbEntity
  8
0
100
AcDbCircle
 10
59.86758067710884
 20
151.7714783396721
 30
0.0
 40
1.0
100
AcDbArc
 50
180.0
 51
270.0
  0
LINE
  5
2237
330
1F
100
AcDbEntity
  8
0
100
AcDbLine
 10
39.81758067710877
 20
158.8199783396721
 30
0.0
 11
39.81758067710877
 21
159.2964783396721
 31
0.0
  0
ARC
  5
2238
330
1F
100
AcDbEntity
  8
0
100
AcDbCircle
 10
40.81758067710876
 20
158.8199783396721
 30
0.0
 40
1.0
100
AcDbArc
 50
180.0
 51
270.0
  0
CIRCLE
  5
2239
330
1F
100
AcDbEntity
  8
0
100
AcDbCircle
 10
116.0425806771088
 20
151.9394783396721
 30
0.0
 40
1.0
  0
CIRCLE
  5
223A
330
1F
100
AcDbEntity
  8
0
100
AcDbCircle
 10
20.76758067710881
 20
122.2464783396721
 30
0.0
 40
1.0
  0
CIRCLE
  5
223B
330
1F
100
AcDbEntity
  8
0
100
AcDbCircle
 10
39.84258067710874
 20
140.0332283396721
 30
0.0
 40
1.0
  0
CIRCLE
  5
223C
330
1F
100
AcDbEntity
  8
0
100
AcDbCircle
 10
77.88751690960225
 20
110.301189804887
 30
0.0
 40
1.0
  0
CIRCLE
  5
223D
330
1F
100
AcDbEntity
  8
0
100
AcDbCircle
 10
116.0425806771088
 20
113.8394783396721
 30
0.0
 40
1.0
  0
LINE
  5
2241
330
1F
100
AcDbEntity
  8
0
100
AcDbLine
 10
20.76758067710875
 20
104.1964783396721
 30
0.0
 11
20.76758067710881
 21
116.4839783396721
 31
0.0
  0
ARC
  5
22A6
330
1F
100
AcDbEntity
  8
0
100
AcDbCircle
 10
157.1175806771086
 20
99.88397833967212
 30
0.0
 40
1.0
100
AcDbArc
 50
180.0
 51
270.0
  0
LINE
  5
22A7
330
1F
100
AcDbEntity
  8
0
100
AcDbLine
 10
157.1175806771086
 20
98.88397833967212
 30
0.0
 11
174.1675806771086
 21
98.88397833967212
 31
0.0
  0
ARC
  5
22AE
330
1F
100
AcDbEntity
  8
0
100
AcDbCircle
 10
153.1175806771086
 20
99.88397833967212
 30
0.0
 40
1.0
100
AcDbArc
 50
270.0
 51
0.0
  0
LINE
  5
22AF
330
1F
100
AcDbEntity
  8
0
100
AcDbLine
 10
153.1175806771086
 20
98.88397833967212
 30
0.0
 11
136.0675806771087
 21
98.88397833967212
 31
0.0
  0
LINE
  5
22B4
330
1F
100
AcDbEntity
  8
0
100
AcDbLine
 10
135.0675806771087
 20
96.95747833967217
 30
0.0
 11
135.0675806771087
 21
97.88397833967213
 31
0.0
  0
LINE
  5
22B5
330
1F
100
AcDbEntity
  8
0
100
AcDbLine
 10
154.1175806771086
 20
99.88397833967212
 30
0.0
 11
154.1175806771086
 21
173.5839783396721
 31
0.0
  0
LINE
  5
22B6
330
1F
100
AcDbEntity
  8
0
100
AcDbLine
 10
175.1675806771086
 20
96.95747833967217
 30
0.0
 11
175.1675806771086
 21
97.88397833967213
 31
0.0
  0
LINE
  5
22B7
330
1F
100
AcDbEntity
  8
0
100
AcDbLine
 10
156.1175806771086
 20
99.88397833967212
 30
0.0
 11
156.1175806771086
 21
173.5839783396721
 31
0.0
  0
ARC
  5
22B8
330
1F
100
AcDbEntity
  8
0
100
AcDbCircle
 10
136.0675806771087
 20
97.88397833967213
 30
0.0
 40
1.0
100
AcDbArc
 50
90.0
 51
180.0
  0
ARC
  5
22B9
330
1F
100
AcDbEntity
  8
0
100
AcDbCircle
 10
174.1675806771086
 20
97.88397833967213
 30
0.0
 40
1.0
100
AcDbArc
 50
0.0
 51
90.0
  0
ENDSEC
  0
SECTION
  2
OBJECTS
  0
DICTIONARY
  5
C
330
0
100
AcDbDictionary
281
     1
  3
ACAD_CIP_PREVIOUS_PRODUCT_INFO
350
69D
  3
ACAD_COLOR
350
4E1
  3
ACAD_DETAILVIEWSTYLE
350
697
  3
ACAD_GROUP
350
4E2
  3
ACAD_LAYOUT
350
4E3
  3
ACAD_MATERIAL
350
4E4
  3
ACAD_MLEADERSTYLE
350
4E5
  3
ACAD_MLINESTYLE
350
4E6
  3
ACAD_PLOTSETTINGS
350
4E7
  3
ACAD_PLOTSTYLENAME
350
4E9
  3
ACAD_SCALELIST
350
4EA
  3
ACAD_SECTIONVIEWSTYLE
350
695
  3
ACAD_TABLESTYLE
350
4EB
  3
ACAD_VISUALSTYLE
350
4EC
  3
ACDB_RECOMPOSE_DATA
350
22BC
  3
AcDbVariableDictionary
350
6BD
  0
DICTIONARY
  5
6AB
330
2
100
AcDbDictionary
280
     1
281
     1
  3
ACAD_LAYERSTATES
360
6AC
  0
DICTIONARY
  5
882
330
1F
100
AcDbDictionary
280
     1
281
     1
  3
ACAD_SORTENTS
360
883
  0
DICTIONARY
  5
F00
330
EFB
100
AcDbDictionary
280
     1
281
     1
  3
ACAD_SORTENTS
360
F01
  0
DICTIONARY
  5
228A
330
2245
100
AcDbDictionary
280
     1
281
     1
  3
ACAD_SORTENTS
360
228B
  0
XRECORD
  5
69D
102
{ACAD_REACTORS
330
C
102
}
330
C
100
AcDbXrecord
280
     1
300
ACD
300
2020
300
ACD_F_S
  0
DICTIONARY
  5
4E1
330
C
100
AcDbDictionary
281
     1
  0
DICTIONARY
  5
697
102
{ACAD_REACTORS
330
C
102
}
330
C
100
AcDbDictionary
281
     1
  3
Metric50
350
698
  0
DICTIONARY
  5
4E2
330
C
100
AcDbDictionary
281
     1
  0
DICTIONARY
  5
4E3
330
C
100
AcDbDictionary
281
     1
  3
Layout1
350
4EE
  3
Model
350
4ED
  0
DICTIONARY
  5
4E4
330
C
100
AcDbDictionary
281
     1
  3
ByBlock
350
659
  3
ByLayer
350
651
  3
Global
350
661
  0
DICTIONARY
  5
4E5
330
C
100
AcDbDictionary
281
     1
  3
Standard
350
694
  0
DICTIONARY
  5
4E6
330
C
100
AcDbDictionary
281
     1
  3
Standard
350
682
  0
DICTIONARY
  5
4E7
330
C
100
AcDbDictionary
281
     1
  0
ACDBDICTIONARYWDFLT
  5
4E9
330
C
100
AcDbDictionary
281
     1
  3
Normal
350
4E8
100
AcDbDictionaryWithDefault
340
4E8
  0
DICTIONARY
  5
4EA
330
C
100
AcDbDictionary
281
     1
  3
A0
350
683
  3
A1
350
684
  3
A2
350
685
  3
A3
350
686
  3
A4
350
687
  3
A5
350
688
  3
A6
350
689
  3
A7
350
68A
  3
A8
350
68B
  3
A9
350
68C
  3
B0
350
68D
  3
B1
350
68E
  3
B2
350
68F
  3
B3
350
690
  3
B4
350
691
  3
B5
350
692
  3
B6
350
693
  0
DICTIONARY
  5
695
102
{ACAD_REACTORS
330
C
102
}
330
C
100
AcDbDictionary
281
     1
  3
Metric50
350
696
  0
DICTIONARY
  5
4EB
330
C
100
AcDbDictionary
281
     1
  3
Standard
350
681
  0
DICTIONARY
  5
4EC
330
C
100
AcDbDictionary
281
     1
  3
2dWireframe
350
66E
  3
Basic
350
66D
  3
Brighten
350
674
  3
ColorChange
350
678
  3
Conceptual
350
671
  3
Dim
350
673
  3
EdgeColorOff
350
680
  3
Facepattern
350
677
  3
Flat
350
669
  3
FlatWithEdges
350
66A
  3
Gouraud
350
66B
  3
GouraudWithEdges
350
66C
  3
Hidden
350
670
  3
JitterOff
350
67E
  3
Linepattern
350
676
  3
OverhangOff
350
67F
  3
Realistic
350
672
  3
Shaded
350
67D
  3
Shaded with edges
350
67C
  3
Shades of Gray
350
679
  3
Sketchy
350
67A
  3
Thicken
350
675
  3
Wireframe
350
66F
  3
X-Ray
350
67B
  0
XRECORD
  5
22BC
102
{ACAD_REACTORS
330
C
102
}
330
C
100
AcDbXrecord
280
     1
 90
        1
330
681
  0
DICTIONARY
  5
6BD
102
{ACAD_REACTORS
330
C
102
}
330
C
100
AcDbDictionary
281
     1
  3
CANNOSCALE
350
6C2
  3
CMLEADERSTYLE
350
6BF
  3
CTABLESTYLE
350
6BE
  3
CVIEWDETAILSTYLE
350
6C0
  3
CVIEWSECTIONSTYLE
350
6C1
  0
DICTIONARY
  5
6AC
102
{ACAD_REACTORS
330
6AB
102
}
330
6AB
100
AcDbDictionary
281
     1
  0
SORTENTSTABLE
  5
883
102
{ACAD_REACTORS
330
882
102
}
330
882
100
AcDbSortentsTable
330
1F
331
840
  5
855
331
855
  5
858
331
856
  5
85A
331
857
  5
85C
331
858
  5
85D
331
859
  5
85F
331
85D
  5
86D
331
85E
  5
870
331
85F
  5
872
331
860
  5
874
331
861
  5
875
331
862
  5
877
331
863
  5
879
331
86B
  5
885
331
86C
  5
887
331
86D
  5
888
331
86E
  5
88B
331
870
  5
88F
331
871
  5
891
331
872
  5
893
331
873
  5
895
331
874
  5
898
331
875
  5
89A
331
876
  5
89B
331
877
  5
89D
331
878
  5
89F
331
879
  5
8A1
331
881
  5
890
331
884
  5
840
331
885
  5
859
331
886
  5
892
331
887
  5
85B
331
888
  5
894
331
889
  5
897
331
88A
  5
896
331
88B
  5
85E
331
88C
  5
899
331
88D
  5
861
331
890
  5
884
331
891
  5
881
331
892
  5
878
331
893
  5
89C
331
894
  5
876
331
895
  5
857
331
896
  5
856
331
897
  5
89E
331
898
  5
873
331
899
  5
8A0
331
89A
  5
871
331
89B
  5
8A2
331
89C
  5
86F
331
89D
  5
86E
331
89E
  5
886
331
89F
  5
88C
331
8A0
  5
88A
331
8A1
  5
889
331
8A2
  5
88E
331
1824
  5
1825
331
1825
  5
1824
331
22B5
  5
22B6
331
22B6
  5
22B7
331
22B7
  5
22B9
331
22B8
  5
22B5
331
22B9
  5
22B8
  0
SORTENTSTABLE
  5
F01
102
{ACAD_REACTORS
330
F00
102
}
330
F00
100
AcDbSortentsTable
330
EFB
  0
SORTENTSTABLE
  5
228B
102
{ACAD_REACTORS
330
228A
102
}
330
228A
100
AcDbSortentsTable
330
2245
  0
ACDBDETAILVIEWSTYLE
  5
698
102
{ACAD_REACTORS
330
697
102
}
330
697
100
AcDbModelDocViewStyle
 70
     0
  3
Metric50
290
     0
300
Metric50
 90
        0
100
AcDbDetailViewStyle
 70
     0
 71
     0
 90
        3
 71
     1
340
11
 62
   256
 40
5.0
340
0
 62
   256
 40
5.0
300

 40
0.0
280
     1
 71
     2
340
16
 90
       25
 62
   256
 71
     3
340
11
 62
   256
 40
5.0
 90
        0
 40
15.0
 90
        1
300
%<\AcVar ViewDetailId>% (%<\AcVar ViewScale \f "%sn">%)
 71
     4
340
16
 90
       25
 62
   256
340
16
 90
       25
 62
   256
280
     0
  0
LAYOUT
  5
4EE
330
4E3
100
AcDbPlotSettings
  1

  2
DWFx ePlot (XPS Compatible).pc3
  4
ANSI_A_(8.50_x_11.00_Inches)
  6

 40
5.799999999999998
 41
17.8
 42
5.799999999999998
 43
17.8
 44
215.9
 45
279.4
 46
0.0
 47
0.0
 48
0.0
 49
0.0
140
0.0
141
0.0
142
1.0
143
1.0
 70
   688
 72
     0
 73
     1
 74
     5
  7
acad.ctb
 75
    16
147
1.0
 76
     0
 77
     2
 78
   300
148
0.0
149
0.0
100
AcDbLayout
  1
Layout1
 70
     1
 71
     1
 10
-0.7005418191744587
 20
-0.2281003861915408
 11
10.29945794052965
 21
8.271899373512571
 12
0.0
 22
0.0
 32
0.0
 14
0.6288667663970601
 24
0.7999999523162842
 34
0.0
 15
9.028866384927335
 25
7.199999570846557
 35
0.0
146
0.0
 13
0.0
 23
0.0
 33
0.0
 16
1.0
 26
0.0
 36
0.0
 17
0.0
 27
1.0
 37
0.0
 76
     0
330
58
  0
LAYOUT
  5
4ED
330
4E3
100
AcDbPlotSettings
  1

  2
DWFx ePlot (XPS Compatible).pc3
  4
ANSI_A_(8.50_x_11.00_Inches)
  6

 40
5.799999999999998
 41
17.8
 42
5.799999999999998
 43
17.8
 44
215.9
 45
279.4
 46
0.0
 47
0.0
 48
0.0
 49
0.0
140
0.0
141
0.0
142
1.0
143
14.53
 70
 11952
 72
     0
 73
     1
 74
     0
  7

 75
     0
147
0.069
 76
     0
 77
     2
 78
   300
148
114.98
149
300.29
100
AcDbLayout
  1
Model
 70
     1
 71
     0
 10
0.0
 20
0.0
 11
12.0
 21
9.0
 12
0.0
 22
0.0
 32
0.0
 14
0.0
 24
0.0
 34
0.0
 15
0.0
 25
0.0
 35
0.0
146
0.0
 13
0.0
 23
0.0
 33
0.0
 16
1.0
 26
0.0
 36
0.0
 17
0.0
 27
1.0
 37
0.0
 76
     0
330
1F
331
69C
  0
MATERIAL
  5
659
102
{ACAD_XDICTIONARY
360
65A
102
}
102
{ACAD_REACTORS
330
4E4
102
}
330
4E4
100
AcDbMaterial
  1
ByBlock
 72
     0
 43
0.0008202099737533
 43
0.0
 43
0.0
 43
0.0
 43
0.0
 43
0.0008202099737533
 43
0.0
 43
0.0
 43
0.0
 43
0.0
 43
1.0
 43
0.0
 43
0.0
 43
0.0
 43
0.0
 43
1.0
 77
     0
 47
0.0008202099737533
 47
0.0
 47
0.0
 47
0.0
 47
0.0
 47
0.0008202099737533
 47
0.0
 47
0.0
 47
0.0
 47
0.0
 47
1.0
 47
0.0
 47
0.0
 47
0.0
 47
0.0
 47
1.0
171
     0
 49
0.0008202099737533
 49
0.0
 49
0.0
 49
0.0
 49
0.0
 49
0.0008202099737533
 49
0.0
 49
0.0
 49
0.0
 49
0.0
 49
1.0
 49
0.0
 49
0.0
 49
0.0
 49
0.0
 49
1.0
175
     0
142
0.0008202099737533
142
0.0
142
0.0
142
0.0
142
0.0
142
0.0008202099737533
142
0.0
142
0.0
142
0.0
142
0.0
142
1.0
142
0.0
142
0.0
142
0.0
142
0.0
142
1.0
179
     0
144
0.0008202099737533
144
0.0
144
0.0
144
0.0
144
0.0
144
0.0008202099737533
144
0.0
144
0.0
144
0.0
144
0.0
144
1.0
144
0.0
144
0.0
144
0.0
144
0.0
144
1.0
147
0.0008202099737533
147
0.0
147
0.0
147
0.0
147
0.0
147
0.0008202099737533
147
0.0
147
0.0
147
0.0
147
0.0
147
1.0
147
0.0
147
0.0
147
0.0
147
0.0
147
1.0
  0
MATERIAL
  5
651
102
{ACAD_XDICTIONARY
360
652
102
}
102
{ACAD_REACTORS
330
4E4
102
}
330
4E4
100
AcDbMaterial
  1
ByLayer
 72
     0
 43
0.0008202099737533
 43
0.0
 43
0.0
 43
0.0
 43
0.0
 43
0.0008202099737533
 43
0.0
 43
0.0
 43
0.0
 43
0.0
 43
1.0
 43
0.0
 43
0.0
 43
0.0
 43
0.0
 43
1.0
 77
     0
 47
0.0008202099737533
 47
0.0
 47
0.0
 47
0.0
 47
0.0
 47
0.0008202099737533
 47
0.0
 47
0.0
 47
0.0
 47
0.0
 47
1.0
 47
0.0
 47
0.0
 47
0.0
 47
0.0
 47
1.0
171
     0
 49
0.0008202099737533
 49
0.0
 49
0.0
 49
0.0
 49
0.0
 49
0.0008202099737533
 49
0.0
 49
0.0
 49
0.0
 49
0.0
 49
1.0
 49
0.0
 49
0.0
 49
0.0
 49
0.0
 49
1.0
175
     0
142
0.0008202099737533
142
0.0
142
0.0
142
0.0
142
0.0
142
0.0008202099737533
142
0.0
142
0.0
142
0.0
142
0.0
142
1.0
142
0.0
142
0.0
142
0.0
142
0.0
142
1.0
179
     0
144
0.0008202099737533
144
0.0
144
0.0
144
0.0
144
0.0
144
0.0008202099737533
144
0.0
144
0.0
144
0.0
144
0.0
144
1.0
144
0.0
144
0.0
144
0.0
144
0.0
144
1.0
147
0.0008202099737533
147
0.0
147
0.0
147
0.0
147
0.0
147
0.0008202099737533
147
0.0
147
0.0
147
0.0
147
0.0
147
1.0
147
0.0
147
0.0
147
0.0
147
0.0
147
1.0
  0
MATERIAL
  5
661
102
{ACAD_XDICTIONARY
360
662
102
}
102
{ACAD_REACTORS
330
4E4
102
}
330
4E4
100
AcDbMaterial
  1
Global
 72
     0
 43
0.0008202099737533
 43
0.0
 43
0.0
 43
0.0
 43
0.0
 43
0.0008202099737533
 43
0.0
 43
0.0
 43
0.0
 43
0.0
 43
1.0
 43
0.0
 43
0.0
 43
0.0
 43
0.0
 43
1.0
 77
     0
 47
0.0008202099737533
 47
0.0
 47
0.0
 47
0.0
 47
0.0
 47
0.0008202099737533
 47
0.0
 47
0.0
 47
0.0
 47
0.0
 47
1.0
 47
0.0
 47
0.0
 47
0.0
 47
0.0
 47
1.0
171
     0
 49
0.0008202099737533
 49
0.0
 49
0.0
 49
0.0
 49
0.0
 49
0.0008202099737533
 49
0.0
 49
0.0
 49
0.0
 49
0.0
 49
1.0
 49
0.0
 49
0.0
 49
0.0
 49
0.0
 49
1.0
175
     0
142
0.0008202099737533
142
0.0
142
0.0
142
0.0
142
0.0
142
0.0008202099737533
142
0.0
142
0.0
142
0.0
142
0.0
142
1.0
142
0.0
142
0.0
142
0.0
142
0.0
142
1.0
179
     0
144
0.0008202099737533
144
0.0
144
0.0
144
0.0
144
0.0
144
0.0008202099737533
144
0.0
144
0.0
144
0.0
144
0.0
144
1.0
144
0.0
144
0.0
144
0.0
144
0.0
144
1.0
147
0.0008202099737533
147
0.0
147
0.0
147
0.0
147
0.0
147
0.0008202099737533
147
0.0
147
0.0
147
0.0
147
0.0
147
1.0
147
0.0
147
0.0
147
0.0
147
0.0
147
1.0
  0
MLEADERSTYLE
  5
694
102
{ACAD_REACTORS
330
4E5
102
}
330
4E5
100
AcDbMLeaderStyle
179
     2
170
     2
171
     1
172
     0
 90
        2
 40
0.0
 41
0.0
173
     1
 91
-1056964608
340
14
 92
       -2
290
     1
 42
2.0
291
     1
 43
0.36
  3
Standard
 44
4.0
300

342
11
174
     1
178
     6
175
     1
176
     0
 93
-1056964608
 45
4.0
292
     0
297
     0
 46
4.0
 94
-1056964608
 47
1.0
 49
1.0
140
1.0
293
     1
141
0.0
294
     1
177
     0
142
1.0
295
     0
296
     0
143
0.125
271
     0
272
     9
273
     9
298
     0
  0
MLINESTYLE
  5
682
102
{ACAD_REACTORS
330
4E6
102
}
330
4E6
100
AcDbMlineStyle
  2
STANDARD
 70
     0
  3

 62
   256
 51
90.0
 52
90.0
 71
     2
 49
0.5
 62
   256
  6
BYLAYER
 49
-0.5
 62
   256
  6
BYLAYER
  0
ACDBPLACEHOLDER
  5
4E8
330
4E9
  0
SCALE
  5
683
102
{ACAD_REACTORS
330
4EA
102
}
330
4EA
100
AcDbScale
 70
     0
300
1:1
140
1.0
141
1.0
290
     1
  0
SCALE
  5
684
102
{ACAD_REACTORS
330
4EA
102
}
330
4EA
100
AcDbScale
 70
     0
300
1:2
140
1.0
141
2.0
290
     0
  0
SCALE
  5
685
102
{ACAD_REACTORS
330
4EA
102
}
330
4EA
100
AcDbScale
 70
     0
300
1:4
140
1.0
141
4.0
290
     0
  0
SCALE
  5
686
102
{ACAD_REACTORS
330
4EA
102
}
330
4EA
100
AcDbScale
 70
     0
300
1:5
140
1.0
141
5.0
290
     0
  0
SCALE
  5
687
102
{ACAD_REACTORS
330
4EA
102
}
330
4EA
100
AcDbScale
 70
     0
300
1:8
140
1.0
141
8.0
290
     0
  0
SCALE
  5
688
102
{ACAD_REACTORS
330
4EA
102
}
330
4EA
100
AcDbScale
 70
     0
300
1:10
140
1.0
141
10.0
290
     0
  0
SCALE
  5
689
102
{ACAD_REACTORS
330
4EA
102
}
330
4EA
100
AcDbScale
 70
     0
300
1:16
140
1.0
141
16.0
290
     0
  0
SCALE
  5
68A
102
{ACAD_REACTORS
330
4EA
102
}
330
4EA
100
AcDbScale
 70
     0
300
1:20
140
1.0
141
20.0
290
     0
  0
SCALE
  5
68B
102
{ACAD_REACTORS
330
4EA
102
}
330
4EA
100
AcDbScale
 70
     0
300
1:30
140
1.0
141
30.0
290
     0
  0
SCALE
  5
68C
102
{ACAD_REACTORS
330
4EA
102
}
330
4EA
100
AcDbScale
 70
     0
300
1:40
140
1.0
141
40.0
290
     0
  0
SCALE
  5
68D
102
{ACAD_REACTORS
330
4EA
102
}
330
4EA
100
AcDbScale
 70
     0
300
1:50
140
1.0
141
50.0
290
     0
  0
SCALE
  5
68E
102
{ACAD_REACTORS
330
4EA
102
}
330
4EA
100
AcDbScale
 70
     0
300
1:100
140
1.0
141
100.0
290
     0
  0
SCALE
  5
68F
102
{ACAD_REACTORS
330
4EA
102
}
330
4EA
100
AcDbScale
 70
     0
300
2:1
140
2.0
141
1.0
290
     0
  0
SCALE
  5
690
102
{ACAD_REACTORS
330
4EA
102
}
330
4EA
100
AcDbScale
 70
     0
300
4:1
140
4.0
141
1.0
290
     0
  0
SCALE
  5
691
102
{ACAD_REACTORS
330
4EA
102
}
330
4EA
100
AcDbScale
 70
     0
300
8:1
140
8.0
141
1.0
290
     0
  0
SCALE
  5
692
102
{ACAD_REACTORS
330
4EA
102
}
330
4EA
100
AcDbScale
 70
     0
300
10:1
140
10.0
141
1.0
290
     0
  0
SCALE
  5
693
102
{ACAD_REACTORS
330
4EA
102
}
330
4EA
100
AcDbScale
 70
     0
300
100:1
140
100.0
141
1.0
290
     0
  0
ACDBSECTIONVIEWSTYLE
  5
696
102
{ACAD_REACTORS
330
695
102
}
330
695
100
AcDbModelDocViewStyle
 70
     0
  3
Metric50
290
     0
300
Metric50
 90
        0
100
AcDbSectionViewStyle
 70
     0
 71
     0
 90
      102
 71
     1
340
11
 62
   256
 40
5.0
340
0
340
0
 62
   256
 40
5.0
300
I, O, Q, S, X, Z
 40
10.0
 90
        0
 40
2.5
 90
        0
 71
     2
340
16
 90
       25
 62
   256
340
16
 90
       50
 62
   256
 40
5.0
 40
2.5
 40
5.0
 71
     3
340
11
 62
   256
 40
5.0
 90
        0
 40
15.0
 90
        1
300
%<\AcVar ViewSectionStartId>%-%<\AcVar ViewSectionEndId>% (%<\AcVar ViewScale \f "%sn">%)
 71
     4
 62
   256
 62
   257
300
ANSI31
 40
1.0
 90
        0
290
     0
290
     0
 90
        6
 40
0.0
 40
1.570796326794896
 40
0.2617993877991494
 40
1.308996938995747
 40
-0.2617993877991494
 40
1.832595714594044
  0
TABLESTYLE
  5
681
102
{ACAD_XDICTIONARY
360
8D9
102
}
102
{ACAD_REACTORS
330
4EB
102
}
330
4EB
100
AcDbTableStyle
280
     0
  3
Standard
 70
     0
 71
     0
 40
1.5
 41
1.5
280
     0
281
     0
  7
Standard
140
4.5
170
     2
 62
     0
 63
     7
283
     0
 90
      512
 91
        0
  1

274
    -2
284
     1
 64
     0
275
    -2
285
     1
 65
     0
276
    -2
286
     1
 66
     0
277
    -2
287
     1
 67
     0
278
    -2
288
     1
 68
     0
279
    -2
289
     1
 69
     0
  7
Standard
140
6.0
170
     5
 62
     0
 63
     7
283
     0
 90
      512
 91
        0
  1

274
    -2
284
     1
 64
     0
275
    -2
285
     1
 65
     0
276
    -2
286
     1
 66
     0
277
    -2
287
     1
 67
     0
278
    -2
288
     1
 68
     0
279
    -2
289
     1
 69
     0
  7
Standard
140
4.5
170
     5
 62
     0
 63
     7
283
     0
 90
      512
 91
        0
  1

274
    -2
284
     1
 64
     0
275
    -2
285
     1
 65
     0
276
    -2
286
     1
 66
     0
277
    -2
287
     1
 67
     0
278
    -2
288
     1
 68
     0
279
    -2
289
     1
 69
     0
  0
VISUALSTYLE
  5
66E
102
{ACAD_REACTORS
330
4EC
102
}
330
4EC
100
AcDbVisualStyle
  2
2dWireframe
 70
     4
177
     3
291
     0
 70
    58
 90
        0
176
     1
 90
        2
176
     1
 90
        0
176
     1
 90
        0
176
     1
 40
0.6
176
     1
 40
30.0
176
     1
 62
     7
420
 16777215
176
     1
 90
        1
176
     1
 90
        4
176
     1
 62
     7
176
     1
 62
   257
176
     1
 90
        1
176
     1
 90
        1
176
     1
 40
1.0
176
     1
 90
        0
176
     1
 62
   257
176
     1
 40
1.0
176
     1
 90
        1
176
     1
 90
        6
176
     1
 90
        2
176
     1
 62
     7
176
     1
 90
        5
176
     1
 90
        0
176
     1
 90
        0
176
     1
290
     0
176
     1
 90
        1
176
     1
 40
0.0
176
     1
 90
        0
176
     1
290
     1
176
     1
290
     1
176
     1
290
     0
176
     1
290
     0
176
     1
290
     0
176
     1
290
     0
176
     1
290
     0
176
     1
290
     0
176
     1
290
     0
176
     1
 90
       50
176
     1
 40
0.0
176
     1
 40
1.0
176
     1
 90
        0
176
     1
 62
    18
176
     1
 90
       50
176
     1
 90
        3
176
     1
 62
     5
420
      255
176
     1
290
     0
176
     1
 90
       50
176
     1
 90
       50
176
     1
 90
       50
176
     1
290
     0
176
     1
 90
       50
176
     1
 62
   256
176
     0
 40
1.0
176
     0
 90
        2
176
     1
  1
strokes_ogs.tif
176
     1
290
     0
176
     1
 40
1.0
176
     1
 40
1.0
176
     1
  0
VISUALSTYLE
  5
66D
102
{ACAD_REACTORS
330
4EC
102
}
330
4EC
100
AcDbVisualStyle
  2
Basic
 70
     7
177
     3
291
     1
 70
    58
 90
        1
176
     1
 90
        0
176
     1
 90
        1
176
     1
 90
        0
176
     1
 40
0.6
176
     1
 40
30.0
176
     1
 62
     7
420
 16777215
176
     1
 90
        0
176
     1
 90
        4
176
     1
 62
     7
176
     1
 62
   257
176
     1
 90
        1
176
     1
 90
        1
176
     1
 40
1.0
176
     1
 90
        8
176
     1
 62
     7
176
     1
 40
1.0
176
     1
 90
        1
176
     1
 90
        6
176
     1
 90
        2
176
     1
 62
     7
176
     1
 90
        5
176
     1
 90
        0
176
     1
 90
        0
176
     1
290
     0
176
     1
 90
        1
176
     1
 40
0.0
176
     1
 90
        0
176
     1
290
     0
176
     1
290
     1
176
     1
290
     1
176
     1
290
     0
176
     1
290
     0
176
     1
290
     0
176
     1
290
     0
176
     1
290
     0
176
     1
290
     0
176
     1
 90
       50
176
     1
 40
0.0
176
     1
 40
1.0
176
     1
 90
        0
176
     1
 62
    18
176
     1
 90
       50
176
     1
 90
        3
176
     1
 62
     5
420
      255
176
     1
290
     0
176
     1
 90
       50
176
     1
 90
       50
176
     1
 90
       50
176
     1
290
     0
176
     1
 90
       50
176
     1
 62
   256
176
     0
 40
1.0
176
     0
 90
        2
176
     1
  1
strokes_ogs.tif
176
     1
290
     0
176
     1
 40
1.0
176
     1
 40
1.0
176
     1
  0
VISUALSTYLE
  5
674
102
{ACAD_REACTORS
330
4EC
102
}
330
4EC
100
AcDbVisualStyle
  2
Brighten
 70
    12
177
     3
291
     1
 70
    58
 90
        2
176
     1
 90
        2
176
     1
 90
        0
176
     1
 90
        0
176
     1
 40
0.6
176
     1
 40
30.0
176
     1
 62
     7
420
 16777215
176
     1
 90
        1
176
     1
 90
        4
176
     1
 62
     7
176
     1
 62
   257
176
     1
 90
        1
176
     1
 90
        1
176
     1
 40
1.0
176
     1
 90
        8
176
     1
 62
     7
176
     1
 40
1.0
176
     1
 90
        1
176
     1
 90
        6
176
     1
 90
        2
176
     1
 62
     7
176
     1
 90
        5
176
     1
 90
        0
176
     1
 90
        0
176
     1
290
     0
176
     1
 90
        1
176
     1
 40
50.0
176
     1
 90
        0
176
     1
290
     0
176
     1
290
     1
176
     1
290
     1
176
     1
290
     0
176
     1
290
     0
176
     1
290
     0
176
     1
290
     0
176
     1
290
     0
176
     1
290
     0
176
     1
 90
       50
176
     1
 40
0.0
176
     1
 40
1.0
176
     1
 90
        0
176
     1
 62
    18
176
     1
 90
       50
176
     1
 90
        3
176
     1
 62
     5
420
      255
176
     1
290
     0
176
     1
 90
       50
176
     1
 90
       50
176
     1
 90
       50
176
     1
290
     0
176
     1
 90
       50
176
     1
 62
   256
176
     0
 40
1.0
176
     0
 90
        2
176
     1
  1
strokes_ogs.tif
176
     1
290
     0
176
     1
 40
1.0
176
     1
 40
1.0
176
     1
  0
VISUALSTYLE
  5
678
102
{ACAD_REACTORS
330
4EC
102
}
330
4EC
100
AcDbVisualStyle
  2
ColorChange
 70
    16
177
     3
291
     1
 70
    58
 90
        2
176
     1
 90
        2
176
     1
 90
        3
176
     1
 90
        0
176
     1
 40
0.6
176
     1
 40
30.0
176
     1
 62
     8
420
  8421504
176
     1
 90
        1
176
     1
 90
        4
176
     1
 62
     7
176
     1
 62
   257
176
     1
 90
        1
176
     1
 90
        1
176
     1
 40
1.0
176
     1
 90
        8
176
     1
 62
     8
420
  8421504
176
     1
 40
1.0
176
     1
 90
        1
176
     1
 90
        6
176
     1
 90
        2
176
     1
 62
     7
176
     1
 90
        5
176
     1
 90
        0
176
     1
 90
        0
176
     1
290
     0
176
     1
 90
        1
176
     1
 40
0.0
176
     1
 90
        0
176
     1
290
     0
176
     1
290
     1
176
     1
290
     1
176
     1
290
     0
176
     1
290
     0
176
     1
290
     0
176
     1
290
     0
176
     1
290
     0
176
     1
290
     0
176
     1
 90
       50
176
     1
 40
0.0
176
     1
 40
1.0
176
     1
 90
        0
176
     1
 62
    18
176
     1
 90
       50
176
     1
 90
        3
176
     1
 62
     5
420
      255
176
     1
290
     0
176
     1
 90
       50
176
     1
 90
       50
176
     1
 90
       50
176
     1
290
     0
176
     1
 90
       50
176
     1
 62
   256
176
     0
 40
1.0
176
     0
 90
        2
176
     1
  1
strokes_ogs.tif
176
     1
290
     0
176
     1
 40
1.0
176
     1
 40
1.0
176
     1
  0
VISUALSTYLE
  5
671
102
{ACAD_REACTORS
330
4EC
102
}
330
4EC
100
AcDbVisualStyle
  2
Conceptual
 70
     9
177
     3
291
     0
 70
    58
 90
        3
176
     1
 90
        2
176
     1
 90
        0
176
     1
 90
        0
176
     1
 40
0.6
176
     1
 40
30.0
176
     1
 62
     7
420
 16777215
176
     1
 90
        2
176
     1
 90
        2
176
     1
 62
     7
176
     1
 62
   257
176
     1
 90
        1
176
     1
 90
        1
176
     1
 40
179.0
176
     1
 90
        8
176
     1
 62
     7
176
     1
 40
1.0
176
     1
 90
        1
176
     1
 90
        6
176
     1
 90
        2
176
     1
 62
     7
176
     1
 90
        3
176
     1
 90
        0
176
     1
 90
        0
176
     1
290
     0
176
     1
 90
        1
176
     1
 40
0.0
176
     1
 90
        0
176
     1
290
     0
176
     1
290
     1
176
     1
290
     1
176
     1
290
     0
176
     1
290
     0
176
     1
290
     0
176
     1
290
     0
176
     1
290
     0
176
     1
290
     0
176
     1
 90
       50
176
     1
 40
0.0
176
     1
 40
1.0
176
     1
 90
        0
176
     1
 62
    18
176
     1
 90
       50
176
     1
 90
        3
176
     1
 62
     5
420
      255
176
     1
290
     0
176
     1
 90
       50
176
     1
 90
       50
176
     1
 90
       50
176
     1
290
     0
176
     1
 90
       50
176
     1
 62
   256
176
     0
 40
1.0
176
     0
 90
        2
176
     1
  1
strokes_ogs.tif
176
     1
290
     0
176
     1
 40
1.0
176
     1
 40
1.0
176
     1
  0
VISUALSTYLE
  5
673
102
{ACAD_REACTORS
330
4EC
102
}
330
4EC
100
AcDbVisualStyle
  2
Dim
 70
    11
177
     3
291
     1
 70
    58
 90
        2
176
     1
 90
        2
176
     1
 90
        0
176
     1
 90
        0
176
     1
 40
0.6
176
     1
 40
30.0
176
     1
 62
     7
420
 16777215
176
     1
 90
        1
176
     1
 90
        4
176
     1
 62
     7
176
     1
 62
   257
176
     1
 90
        1
176
     1
 90
        1
176
     1
 40
1.0
176
     1
 90
        8
176
     1
 62
     7
176
     1
 40
1.0
176
     1
 90
        1
176
     1
 90
        6
176
     1
 90
        2
176
     1
 62
     7
176
     1
 90
        5
176
     1
 90
        0
176
     1
 90
        0
176
     1
290
     0
176
     1
 90
        1
176
     1
 40
-50.0
176
     1
 90
        0
176
     1
290
     0
176
     1
290
     1
176
     1
290
     1
176
     1
290
     0
176
     1
290
     0
176
     1
290
     0
176
     1
290
     0
176
     1
290
     0
176
     1
290
     0
176
     1
 90
       50
176
     1
 40
0.0
176
     1
 40
1.0
176
     1
 90
        0
176
     1
 62
    18
176
     1
 90
       50
176
     1
 90
        3
176
     1
 62
     5
420
      255
176
     1
290
     0
176
     1
 90
       50
176
     1
 90
       50
176
     1
 90
       50
176
     1
290
     0
176
     1
 90
       50
176
     1
 62
   256
176
     0
 40
1.0
176
     0
 90
        2
176
     1
  1
strokes_ogs.tif
176
     1
290
     0
176
     1
 40
1.0
176
     1
 40
1.0
176
     1
  0
VISUALSTYLE
  5
680
102
{ACAD_REACTORS
330
4EC
102
}
330
4EC
100
AcDbVisualStyle
  2
EdgeColorOff
 70
    22
177
     3
291
     1
 70
    58
 90
        2
176
     0
 90
        2
176
     0
 90
        0
176
     0
 90
        0
176
     0
 40
0.6
176
     0
 40
30.0
176
     0
 62
     7
420
 16777215
176
     0
 90
        1
176
     0
 90
        4
176
     0
 62
     7
176
     0
 62
   257
176
     0
 90
        1
176
     0
 90
        1
176
     0
 40
1.0
176
     0
 90
        8
176
     2
 62
     7
176
     0
 40
1.0
176
     0
 90
        1
176
     0
 90
        6
176
     0
 90
        2
176
     0
 62
     7
176
     0
 90
        5
176
     0
 90
        0
176
     0
 90
        0
176
     0
290
     0
176
     0
 90
        1
176
     0
 40
0.0
176
     0
 90
        0
176
     0
290
     0
176
     1
290
     1
176
     1
290
     1
176
     1
290
     0
176
     1
290
     0
176
     1
290
     0
176
     1
290
     0
176
     1
290
     0
176
     1
290
     0
176
     1
 90
       50
176
     0
 40
0.0
176
     0
 40
1.0
176
     0
 90
        0
176
     0
 62
    18
176
     0
 90
       50
176
     0
 90
        3
176
     0
 62
     5
420
      255
176
     0
290
     0
176
     1
 90
       50
176
     0
 90
       50
176
     0
 90
       50
176
     0
290
     0
176
     1
 90
       50
176
     0
 62
   256
176
     0
 40
1.0
176
     0
 90
        2
176
     0
  1
strokes_ogs.tif
176
     0
290
     0
176
     1
 40
1.0
176
     0
 40
1.0
176
     0
  0
VISUALSTYLE
  5
677
102
{ACAD_REACTORS
330
4EC
102
}
330
4EC
100
AcDbVisualStyle
  2
Facepattern
 70
    15
177
     3
291
     1
 70
    58
 90
        2
176
     1
 90
        2
176
     1
 90
        0
176
     1
 90
        0
176
     1
 40
0.6
176
     1
 40
30.0
176
     1
 62
     7
420
 16777215
176
     1
 90
        1
176
     1
 90
        4
176
     1
 62
     7
176
     1
 62
   257
176
     1
 90
        1
176
     1
 90
        1
176
     1
 40
1.0
176
     1
 90
        8
176
     1
 62
     7
176
     1
 40
1.0
176
     1
 90
        1
176
     1
 90
        6
176
     1
 90
        2
176
     1
 62
     7
176
     1
 90
        5
176
     1
 90
        0
176
     1
 90
        0
176
     1
290
     0
176
     1
 90
        1
176
     1
 40
0.0
176
     1
 90
        0
176
     1
290
     0
176
     1
290
     1
176
     1
290
     1
176
     1
290
     0
176
     1
290
     0
176
     1
290
     0
176
     1
290
     0
176
     1
290
     0
176
     1
290
     0
176
     1
 90
       50
176
     1
 40
0.0
176
     1
 40
1.0
176
     1
 90
        0
176
     1
 62
    18
176
     1
 90
       50
176
     1
 90
        3
176
     1
 62
     5
420
      255
176
     1
290
     0
176
     1
 90
       50
176
     1
 90
       50
176
     1
 90
       50
176
     1
290
     0
176
     1
 90
       50
176
     1
 62
   256
176
     0
 40
1.0
176
     0
 90
        2
176
     1
  1
strokes_ogs.tif
176
     1
290
     0
176
     1
 40
1.0
176
     1
 40
1.0
176
     1
  0
VISUALSTYLE
  5
669
102
{ACAD_REACTORS
330
4EC
102
}
330
4EC
100
AcDbVisualStyle
  2
Flat
 70
     0
177
     3
291
     1
 70
    58
 90
        2
176
     1
 90
        1
176
     1
 90
        1
176
     1
 90
        2
176
     1
 40
0.6
176
     1
 40
30.0
176
     1
 62
     7
420
 16777215
176
     1
 90
        0
176
     1
 90
        0
176
     1
 62
     7
176
     1
 62
   257
176
     1
 90
        1
176
     1
 90
        1
176
     1
 40
1.0
176
     1
 90
        8
176
     1
 62
     7
176
     1
 40
1.0
176
     1
 90
        1
176
     1
 90
        6
176
     1
 90
        2
176
     1
 62
     7
176
     1
 90
        5
176
     1
 90
        0
176
     1
 90
        0
176
     1
290
     0
176
     1
 90
       13
176
     1
 40
0.0
176
     1
 90
        0
176
     1
290
     0
176
     1
290
     1
176
     1
290
     1
176
     1
290
     0
176
     1
290
     0
176
     1
290
     0
176
     1
290
     0
176
     1
290
     0
176
     1
290
     0
176
     1
 90
       50
176
     1
 40
0.0
176
     1
 40
1.0
176
     1
 90
        0
176
     1
 62
    18
176
     1
 90
       50
176
     1
 90
        3
176
     1
 62
     5
420
      255
176
     1
290
     0
176
     1
 90
       50
176
     1
 90
       50
176
     1
 90
       50
176
     1
290
     0
176
     1
 90
       50
176
     1
 62
   256
176
     0
 40
1.0
176
     0
 90
        2
176
     1
  1
strokes_ogs.tif
176
     1
290
     0
176
     1
 40
1.0
176
     1
 40
1.0
176
     1
  0
VISUALSTYLE
  5
66A
102
{ACAD_REACTORS
330
4EC
102
}
330
4EC
100
AcDbVisualStyle
  2
FlatWithEdges
 70
     1
177
     3
291
     1
 70
    58
 90
        2
176
     1
 90
        1
176
     1
 90
        1
176
     1
 90
        2
176
     1
 40
0.6
176
     1
 40
30.0
176
     1
 62
     7
420
 16777215
176
     1
 90
        1
176
     1
 90
        0
176
     1
 62
     7
176
     1
 62
   257
176
     1
 90
        1
176
     1
 90
        1
176
     1
 40
1.0
176
     1
 90
        0
176
     1
 62
   257
176
     1
 40
1.0
176
     1
 90
        1
176
     1
 90
        6
176
     1
 90
        2
176
     1
 62
     7
176
     1
 90
        5
176
     1
 90
        0
176
     1
 90
        0
176
     1
290
     0
176
     1
 90
       13
176
     1
 40
0.0
176
     1
 90
        0
176
     1
290
     0
176
     1
290
     1
176
     1
290
     1
176
     1
290
     0
176
     1
290
     0
176
     1
290
     0
176
     1
290
     0
176
     1
290
     0
176
     1
290
     0
176
     1
 90
       50
176
     1
 40
0.0
176
     1
 40
1.0
176
     1
 90
        0
176
     1
 62
    18
176
     1
 90
       50
176
     1
 90
        3
176
     1
 62
     5
420
      255
176
     1
290
     0
176
     1
 90
       50
176
     1
 90
       50
176
     1
 90
       50
176
     1
290
     0
176
     1
 90
       50
176
     1
 62
   256
176
     0
 40
1.0
176
     0
 90
        2
176
     1
  1
strokes_ogs.tif
176
     1
290
     0
176
     1
 40
1.0
176
     1
 40
1.0
176
     1
  0
VISUALSTYLE
  5
66B
102
{ACAD_REACTORS
330
4EC
102
}
330
4EC
100
AcDbVisualStyle
  2
Gouraud
 70
     2
177
     3
291
     1
 70
    58
 90
        2
176
     1
 90
        2
176
     1
 90
        1
176
     1
 90
        2
176
     1
 40
0.6
176
     1
 40
30.0
176
     1
 62
     7
420
 16777215
176
     1
 90
        0
176
     1
 90
        0
176
     1
 62
     7
176
     1
 62
   257
176
     1
 90
        1
176
     1
 90
        1
176
     1
 40
1.0
176
     1
 90
        0
176
     1
 62
     7
176
     1
 40
1.0
176
     1
 90
        1
176
     1
 90
        6
176
     1
 90
        2
176
     1
 62
     7
176
     1
 90
        5
176
     1
 90
        0
176
     1
 90
        0
176
     1
290
     0
176
     1
 90
       13
176
     1
 40
0.0
176
     1
 90
        0
176
     1
290
     0
176
     1
290
     1
176
     1
290
     1
176
     1
290
     0
176
     1
290
     0
176
     1
290
     0
176
     1
290
     0
176
     1
290
     0
176
     1
290
     0
176
     1
 90
       50
176
     1
 40
0.0
176
     1
 40
1.0
176
     1
 90
        0
176
     1
 62
    18
176
     1
 90
       50
176
     1
 90
        3
176
     1
 62
     5
420
      255
176
     1
290
     0
176
     1
 90
       50
176
     1
 90
       50
176
     1
 90
       50
176
     1
290
     0
176
     1
 90
       50
176
     1
 62
   256
176
     0
 40
1.0
176
     0
 90
        2
176
     1
  1
strokes_ogs.tif
176
     1
290
     0
176
     1
 40
1.0
176
     1
 40
1.0
176
     1
  0
VISUALSTYLE
  5
66C
102
{ACAD_REACTORS
330
4EC
102
}
330
4EC
100
AcDbVisualStyle
  2
GouraudWithEdges
 70
     3
177
     3
291
     1
 70
    58
 90
        2
176
     1
 90
        2
176
     1
 90
        1
176
     1
 90
        2
176
     1
 40
0.6
176
     1
 40
30.0
176
     1
 62
     7
420
 16777215
176
     1
 90
        1
176
     1
 90
        0
176
     1
 62
     7
176
     1
 62
   257
176
     1
 90
        1
176
     1
 90
        1
176
     1
 40
1.0
176
     1
 90
        0
176
     1
 62
   257
176
     1
 40
1.0
176
     1
 90
        1
176
     1
 90
        6
176
     1
 90
        2
176
     1
 62
     7
176
     1
 90
        5
176
     1
 90
        0
176
     1
 90
        0
176
     1
290
     0
176
     1
 90
       13
176
     1
 40
0.0
176
     1
 90
        0
176
     1
290
     0
176
     1
290
     1
176
     1
290
     1
176
     1
290
     0
176
     1
290
     0
176
     1
290
     0
176
     1
290
     0
176
     1
290
     0
176
     1
290
     0
176
     1
 90
       50
176
     1
 40
0.0
176
     1
 40
1.0
176
     1
 90
        0
176
     1
 62
    18
176
     1
 90
       50
176
     1
 90
        3
176
     1
 62
     5
420
      255
176
     1
290
     0
176
     1
 90
       50
176
     1
 90
       50
176
     1
 90
       50
176
     1
290
     0
176
     1
 90
       50
176
     1
 62
   256
176
     0
 40
1.0
176
     0
 90
        2
176
     1
  1
strokes_ogs.tif
176
     1
290
     0
176
     1
 40
1.0
176
     1
 40
1.0
176
     1
  0
VISUALSTYLE
  5
670
102
{ACAD_REACTORS
330
4EC
102
}
330
4EC
100
AcDbVisualStyle
  2
Hidden
 70
     6
177
     3
291
     0
 70
    58
 90
        1
176
     1
 90
        2
176
     1
 90
        2
176
     1
 90
        0
176
     1
 40
0.6
176
     1
 40
30.0
176
     1
 62
     7
420
 16777215
176
     1
 90
        2
176
     1
 90
        2
176
     1
 62
     7
176
     1
 62
   257
176
     1
 90
        2
176
     1
 90
        1
176
     1
 40
40.0
176
     1
 90
        0
176
     1
 62
   257
176
     1
 40
1.0
176
     1
 90
        1
176
     1
 90
        6
176
     1
 90
        2
176
     1
 62
     7
176
     1
 90
        3
176
     1
 90
        0
176
     1
 90
        0
176
     1
290
     0
176
     1
 90
        1
176
     1
 40
0.0
176
     1
 90
        0
176
     1
290
     0
176
     1
290
     1
176
     1
290
     1
176
     1
290
     0
176
     1
290
     0
176
     1
290
     0
176
     1
290
     0
176
     1
290
     0
176
     1
290
     0
176
     1
 90
       50
176
     1
 40
0.0
176
     1
 40
1.0
176
     1
 90
        0
176
     1
 62
    18
176
     1
 90
       50
176
     1
 90
        3
176
     1
 62
     5
420
      255
176
     1
290
     0
176
     1
 90
       50
176
     1
 90
       50
176
     1
 90
       50
176
     1
290
     0
176
     1
 90
       50
176
     1
 62
   256
176
     0
 40
1.0
176
     0
 90
        2
176
     1
  1
strokes_ogs.tif
176
     1
290
     0
176
     1
 40
1.0
176
     1
 40
1.0
176
     1
  0
VISUALSTYLE
  5
67E
102
{ACAD_REACTORS
330
4EC
102
}
330
4EC
100
AcDbVisualStyle
  2
JitterOff
 70
    20
177
     3
291
     1
 70
    58
 90
        2
176
     0
 90
        2
176
     0
 90
        0
176
     0
 90
        0
176
     0
 40
0.6
176
     0
 40
30.0
176
     0
 62
     7
420
 16777215
176
     0
 90
        1
176
     0
 90
        4
176
     0
 62
     7
176
     0
 62
   257
176
     0
 90
        1
176
     0
 90
        1
176
     0
 40
1.0
176
     0
 90
       10
176
     2
 62
     7
176
     0
 40
1.0
176
     0
 90
        1
176
     0
 90
        6
176
     0
 90
        2
176
     0
 62
     7
176
     0
 90
        5
176
     0
 90
        0
176
     0
 90
        0
176
     0
290
     0
176
     0
 90
        1
176
     0
 40
0.0
176
     0
 90
        0
176
     0
290
     0
176
     1
290
     1
176
     1
290
     1
176
     1
290
     0
176
     1
290
     0
176
     1
290
     0
176
     1
290
     0
176
     1
290
     0
176
     1
290
     0
176
     1
 90
       50
176
     0
 40
0.0
176
     0
 40
1.0
176
     0
 90
        0
176
     0
 62
    18
176
     0
 90
       50
176
     0
 90
        3
176
     0
 62
     5
420
      255
176
     0
290
     0
176
     1
 90
       50
176
     0
 90
       50
176
     0
 90
       50
176
     0
290
     0
176
     1
 90
       50
176
     0
 62
   256
176
     0
 40
1.0
176
     0
 90
        2
176
     0
  1
strokes_ogs.tif
176
     0
290
     0
176
     1
 40
1.0
176
     0
 40
1.0
176
     0
  0
VISUALSTYLE
  5
676
102
{ACAD_REACTORS
330
4EC
102
}
330
4EC
100
AcDbVisualStyle
  2
Linepattern
 70
    14
177
     3
291
     1
 70
    58
 90
        2
176
     1
 90
        2
176
     1
 90
        0
176
     1
 90
        0
176
     1
 40
0.6
176
     1
 40
30.0
176
     1
 62
     7
420
 16777215
176
     1
 90
        1
176
     1
 90
        4
176
     1
 62
     7
176
     1
 62
   257
176
     1
 90
        7
176
     1
 90
        7
176
     1
 40
1.0
176
     1
 90
        8
176
     1
 62
     7
176
     1
 40
1.0
176
     1
 90
        1
176
     1
 90
        6
176
     1
 90
        2
176
     1
 62
     7
176
     1
 90
        5
176
     1
 90
        0
176
     1
 90
        0
176
     1
290
     0
176
     1
 90
        1
176
     1
 40
0.0
176
     1
 90
        0
176
     1
290
     0
176
     1
290
     1
176
     1
290
     1
176
     1
290
     0
176
     1
290
     0
176
     1
290
     0
176
     1
290
     0
176
     1
290
     0
176
     1
290
     0
176
     1
 90
       50
176
     1
 40
0.0
176
     1
 40
1.0
176
     1
 90
        0
176
     1
 62
    18
176
     1
 90
       50
176
     1
 90
        3
176
     1
 62
     5
420
      255
176
     1
290
     0
176
     1
 90
       50
176
     1
 90
       50
176
     1
 90
       50
176
     1
290
     0
176
     1
 90
       50
176
     1
 62
   256
176
     0
 40
1.0
176
     0
 90
        2
176
     1
  1
strokes_ogs.tif
176
     1
290
     0
176
     1
 40
1.0
176
     1
 40
1.0
176
     1
  0
VISUALSTYLE
  5
67F
102
{ACAD_REACTORS
330
4EC
102
}
330
4EC
100
AcDbVisualStyle
  2
OverhangOff
 70
    21
177
     3
291
     1
 70
    58
 90
        2
176
     0
 90
        2
176
     0
 90
        0
176
     0
 90
        0
176
     0
 40
0.6
176
     0
 40
30.0
176
     0
 62
     7
420
 16777215
176
     0
 90
        1
176
     0
 90
        4
176
     0
 62
     7
176
     0
 62
   257
176
     0
 90
        1
176
     0
 90
        1
176
     0
 40
1.0
176
     0
 90
        9
176
     2
 62
     7
176
     0
 40
1.0
176
     0
 90
        1
176
     0
 90
        6
176
     0
 90
        2
176
     0
 62
     7
176
     0
 90
        5
176
     0
 90
        0
176
     0
 90
        0
176
     0
290
     0
176
     0
 90
        1
176
     0
 40
0.0
176
     0
 90
        0
176
     0
290
     0
176
     1
290
     1
176
     1
290
     1
176
     1
290
     0
176
     1
290
     0
176
     1
290
     0
176
     1
290
     0
176
     1
290
     0
176
     1
290
     0
176
     1
 90
       50
176
     0
 40
0.0
176
     0
 40
1.0
176
     0
 90
        0
176
     0
 62
    18
176
     0
 90
       50
176
     0
 90
        3
176
     0
 62
     5
420
      255
176
     0
290
     0
176
     1
 90
       50
176
     0
 90
       50
176
     0
 90
       50
176
     0
290
     0
176
     1
 90
       50
176
     0
 62
   256
176
     0
 40
1.0
176
     0
 90
        2
176
     0
  1
strokes_ogs.tif
176
     0
290
     0
176
     1
 40
1.0
176
     0
 40
1.0
176
     0
  0
VISUALSTYLE
  5
672
102
{ACAD_REACTORS
330
4EC
102
}
330
4EC
100
AcDbVisualStyle
  2
Realistic
 70
     8
177
     3
291
     0
 70
    58
 90
        2
176
     1
 90
        3
176
     1
 90
        0
176
     1
 90
        2
176
     1
 40
0.6
176
     1
 40
30.0
176
     1
 62
     7
420
 16777215
176
     1
 90
        0
176
     1
 90
        0
176
     1
 62
     7
176
     1
 62
   257
176
     1
 90
        1
176
     1
 90
        1
176
     1
 40
1.0
176
     1
 90
        8
176
     1
 62
   257
176
     1
 40
1.0
176
     1
 90
        1
176
     1
 90
        6
176
     1
 90
        2
176
     1
 62
     7
176
     1
 90
        3
176
     1
 90
        0
176
     1
 90
        0
176
     1
290
     0
176
     1
 90
       13
176
     1
 40
0.0
176
     1
 90
        0
176
     1
290
     0
176
     1
290
     1
176
     1
290
     1
176
     1
290
     0
176
     1
290
     0
176
     1
290
     0
176
     1
290
     0
176
     1
290
     0
176
     1
290
     0
176
     1
 90
       50
176
     1
 40
0.0
176
     1
 40
1.0
176
     1
 90
        0
176
     1
 62
    18
176
     1
 90
       50
176
     1
 90
        3
176
     1
 62
     5
420
      255
176
     1
290
     0
176
     1
 90
       50
176
     1
 90
       50
176
     1
 90
       50
176
     1
290
     0
176
     1
 90
       50
176
     1
 62
   256
176
     0
 40
1.0
176
     0
 90
        2
176
     1
  1
strokes_ogs.tif
176
     1
290
     0
176
     1
 40
1.0
176
     1
 40
1.0
176
     1
  0
VISUALSTYLE
  5
67D
102
{ACAD_REACTORS
330
4EC
102
}
330
4EC
100
AcDbVisualStyle
  2
Shaded
 70
    27
177
     3
291
     0
 70
    58
 90
        2
176
     1
 90
        2
176
     1
 90
        1
176
     1
 90
        2
176
     1
 40
0.6
176
     1
 40
30.0
176
     1
 62
     7
420
 16777215
176
     1
 90
        0
176
     1
 90
        4
176
     1
 62
     7
176
     1
 62
   257
176
     1
 90
        1
176
     1
 90
        1
176
     1
 40
1.0
176
     1
 90
        8
176
     1
 62
   257
176
     1
 40
1.0
176
     1
 90
        1
176
     1
 90
        6
176
     1
 90
        2
176
     1
 62
     8
420
  7895160
176
     1
 90
        3
176
     1
 90
        0
176
     1
 90
        0
176
     1
290
     0
176
     1
 90
        5
176
     1
 40
0.0
176
     1
 90
        0
176
     1
290
     0
176
     1
290
     1
176
     1
290
     1
176
     1
290
     0
176
     1
290
     0
176
     1
290
     0
176
     1
290
     0
176
     1
290
     0
176
     1
290
     0
176
     1
 90
       50
176
     1
 40
0.0
176
     1
 40
1.0
176
     1
 90
        0
176
     1
 62
    18
176
     1
 90
       50
176
     1
 90
        3
176
     1
 62
     5
420
      255
176
     1
290
     0
176
     1
 90
       50
176
     1
 90
       50
176
     1
 90
       50
176
     1
290
     0
176
     1
 90
       50
176
     1
 62
   256
176
     0
 40
1.0
176
     0
 90
        2
176
     1
  1
strokes_ogs.tif
176
     1
290
     0
176
     1
 40
1.0
176
     1
 40
1.0
176
     1
  0
VISUALSTYLE
  5
67C
102
{ACAD_REACTORS
330
4EC
102
}
330
4EC
100
AcDbVisualStyle
  2
Shaded with edges
 70
    26
177
     3
291
     0
 70
    58
 90
        2
176
     1
 90
        2
176
     1
 90
        1
176
     1
 90
        2
176
     1
 40
0.6
176
     1
 40
30.0
176
     1
 62
     7
420
 16777215
176
     1
 90
        1
176
     1
 90
        2
176
     1
 62
     7
176
     1
 62
   257
176
     1
 90
        2
176
     1
 90
        1
176
     1
 40
1.0
176
     1
 90
        8
176
     1
 62
   257
176
     1
 40
1.0
176
     1
 90
        1
176
     1
 90
        6
176
     1
 90
        2
176
     1
 62
     7
176
     1
 90
        3
176
     1
 90
        0
176
     1
 90
        0
176
     1
290
     0
176
     1
 90
        5
176
     1
 40
0.0
176
     1
 90
        0
176
     1
290
     0
176
     1
290
     1
176
     1
290
     1
176
     1
290
     0
176
     1
290
     0
176
     1
290
     0
176
     1
290
     0
176
     1
290
     0
176
     1
290
     0
176
     1
 90
       50
176
     1
 40
0.0
176
     1
 40
1.0
176
     1
 90
        0
176
     1
 62
    18
176
     1
 90
       50
176
     1
 90
        3
176
     1
 62
     5
420
      255
176
     1
290
     0
176
     1
 90
       50
176
     1
 90
       50
176
     1
 90
       50
176
     1
290
     0
176
     1
 90
       50
176
     1
 62
   256
176
     0
 40
1.0
176
     0
 90
        2
176
     1
  1
strokes_ogs.tif
176
     1
290
     0
176
     1
 40
1.0
176
     1
 40
1.0
176
     1
  0
VISUALSTYLE
  5
679
102
{ACAD_REACTORS
330
4EC
102
}
330
4EC
100
AcDbVisualStyle
  2
Shades of Gray
 70
    23
177
     3
291
     0
 70
    58
 90
        2
176
     1
 90
        2
176
     1
 90
        3
176
     1
 90
        0
176
     1
 40
0.6
176
     1
 40
30.0
176
     1
 62
     7
420
 16777215
176
     1
 90
        2
176
     1
 90
        2
176
     1
 62
     7
176
     1
 62
     7
176
     1
 90
        1
176
     1
 90
        1
176
     1
 40
40.0
176
     1
 90
        8
176
     1
 62
     7
176
     1
 40
1.0
176
     1
 90
        1
176
     1
 90
        6
176
     1
 90
        2
176
     1
 62
     7
176
     1
 90
        3
176
     1
 90
        0
176
     1
 90
        0
176
     1
290
     0
176
     1
 90
        1
176
     1
 40
0.0
176
     1
 90
        0
176
     1
290
     0
176
     1
290
     1
176
     1
290
     1
176
     1
290
     0
176
     1
290
     0
176
     1
290
     0
176
     1
290
     0
176
     1
290
     0
176
     1
290
     0
176
     1
 90
       50
176
     1
 40
0.0
176
     1
 40
1.0
176
     1
 90
        0
176
     1
 62
    18
176
     1
 90
       50
176
     1
 90
        3
176
     1
 62
     5
420
      255
176
     1
290
     0
176
     1
 90
       50
176
     1
 90
       50
176
     1
 90
       50
176
     1
290
     0
176
     1
 90
       50
176
     1
 62
   256
176
     0
 40
1.0
176
     0
 90
        2
176
     1
  1
strokes_ogs.tif
176
     1
290
     0
176
     1
 40
1.0
176
     1
 40
1.0
176
     1
  0
VISUALSTYLE
  5
67A
102
{ACAD_REACTORS
330
4EC
102
}
330
4EC
100
AcDbVisualStyle
  2
Sketchy
 70
    24
177
     3
291
     0
 70
    58
 90
        1
176
     1
 90
        2
176
     1
 90
        2
176
     1
 90
        0
176
     1
 40
0.6
176
     1
 40
30.0
176
     1
 62
     7
420
 16777215
176
     1
 90
        2
176
     1
 90
        2
176
     1
 62
     7
176
     1
 62
     7
176
     1
 90
        1
176
     1
 90
        1
176
     1
 40
40.0
176
     1
 90
       11
176
     1
 62
     7
176
     1
 40
1.0
176
     1
 90
        1
176
     1
 90
        6
176
     1
 90
        2
176
     1
 62
     7
176
     1
 90
        6
176
     1
 90
        0
176
     1
 90
        0
176
     1
290
     0
176
     1
 90
        1
176
     1
 40
0.0
176
     1
 90
        0
176
     1
290
     0
176
     1
290
     1
176
     1
290
     1
176
     1
290
     0
176
     1
290
     0
176
     1
290
     0
176
     1
290
     0
176
     1
290
     0
176
     1
290
     0
176
     1
 90
       50
176
     1
 40
0.0
176
     1
 40
1.0
176
     1
 90
        0
176
     1
 62
    18
176
     1
 90
       50
176
     1
 90
        3
176
     1
 62
     5
420
      255
176
     1
290
     0
176
     1
 90
       50
176
     1
 90
       50
176
     1
 90
       50
176
     1
290
     0
176
     1
 90
       50
176
     1
 62
   256
176
     0
 40
1.0
176
     0
 90
        2
176
     1
  1
strokes_ogs.tif
176
     1
290
     0
176
     1
 40
1.0
176
     1
 40
1.0
176
     1
  0
VISUALSTYLE
  5
675
102
{ACAD_REACTORS
330
4EC
102
}
330
4EC
100
AcDbVisualStyle
  2
Thicken
 70
    13
177
     3
291
     1
 70
    58
 90
        2
176
     1
 90
        2
176
     1
 90
        0
176
     1
 90
        0
176
     1
 40
0.6
176
     1
 40
30.0
176
     1
 62
     7
420
 16777215
176
     1
 90
        1
176
     1
 90
        4
176
     1
 62
     7
176
     1
 62
   257
176
     1
 90
        1
176
     1
 90
        1
176
     1
 40
1.0
176
     1
 90
       12
176
     1
 62
     7
176
     1
 40
1.0
176
     1
 90
        1
176
     1
 90
        6
176
     1
 90
        2
176
     1
 62
     7
176
     1
 90
        5
176
     1
 90
        0
176
     1
 90
        0
176
     1
290
     0
176
     1
 90
        1
176
     1
 40
0.0
176
     1
 90
        0
176
     1
290
     0
176
     1
290
     1
176
     1
290
     1
176
     1
290
     0
176
     1
290
     0
176
     1
290
     0
176
     1
290
     0
176
     1
290
     0
176
     1
290
     0
176
     1
 90
       50
176
     1
 40
0.0
176
     1
 40
1.0
176
     1
 90
        0
176
     1
 62
    18
176
     1
 90
       50
176
     1
 90
        3
176
     1
 62
     5
420
      255
176
     1
290
     0
176
     1
 90
       50
176
     1
 90
       50
176
     1
 90
       50
176
     1
290
     0
176
     1
 90
       50
176
     1
 62
   256
176
     0
 40
1.0
176
     0
 90
        2
176
     1
  1
strokes_ogs.tif
176
     1
290
     0
176
     1
 40
1.0
176
     1
 40
1.0
176
     1
  0
VISUALSTYLE
  5
66F
102
{ACAD_REACTORS
330
4EC
102
}
330
4EC
100
AcDbVisualStyle
  2
Wireframe
 70
     5
177
     3
291
     0
 70
    58
 90
        0
176
     1
 90
        2
176
     1
 90
        0
176
     1
 90
        0
176
     1
 40
0.6
176
     1
 40
30.0
176
     1
 62
     7
420
 16777215
176
     1
 90
        1
176
     1
 90
        4
176
     1
 62
     7
176
     1
 62
   257
176
     1
 90
        1
176
     1
 90
        1
176
     1
 40
1.0
176
     1
 90
        0
176
     1
 62
   257
176
     1
 40
1.0
176
     1
 90
        1
176
     1
 90
        6
176
     1
 90
        2
176
     1
 62
     7
176
     1
 90
        3
176
     1
 90
        0
176
     1
 90
        0
176
     1
290
     0
176
     1
 90
        1
176
     1
 40
0.0
176
     1
 90
        0
176
     1
290
     0
176
     1
290
     1
176
     1
290
     1
176
     1
290
     0
176
     1
290
     0
176
     1
290
     0
176
     1
290
     0
176
     1
290
     0
176
     1
290
     0
176
     1
 90
       50
176
     1
 40
0.0
176
     1
 40
1.0
176
     1
 90
        0
176
     1
 62
    18
176
     1
 90
       50
176
     1
 90
        3
176
     1
 62
     5
420
      255
176
     1
290
     0
176
     1
 90
       50
176
     1
 90
       50
176
     1
 90
       50
176
     1
290
     0
176
     1
 90
       50
176
     1
 62
   256
176
     0
 40
1.0
176
     0
 90
        2
176
     1
  1
strokes_ogs.tif
176
     1
290
     0
176
     1
 40
1.0
176
     1
 40
1.0
176
     1
  0
VISUALSTYLE
  5
67B
102
{ACAD_REACTORS
330
4EC
102
}
330
4EC
100
AcDbVisualStyle
  2
X-Ray
 70
    25
177
     3
291
     0
 70
    58
 90
        2
176
     1
 90
        2
176
     1
 90
        1
176
     1
 90
        1
176
     1
 40
0.5
176
     1
 40
30.0
176
     1
 62
     7
420
 16777215
176
     1
 90
        1
176
     1
 90
        0
176
     1
 62
     7
176
     1
 62
   257
176
     1
 90
        1
176
     1
 90
        1
176
     1
 40
1.0
176
     1
 90
        8
176
     1
 62
     7
176
     1
 40
1.0
176
     1
 90
        1
176
     1
 90
        6
176
     1
 90
        2
176
     1
 62
     7
176
     1
 90
        3
176
     1
 90
        0
176
     1
 90
        0
176
     1
290
     0
176
     1
 90
       13
176
     1
 40
0.0
176
     1
 90
        0
176
     1
290
     0
176
     1
290
     1
176
     1
290
     1
176
     1
290
     0
176
     1
290
     0
176
     1
290
     0
176
     1
290
     0
176
     1
290
     0
176
     1
290
     0
176
     1
 90
       50
176
     1
 40
0.0
176
     1
 40
1.0
176
     1
 90
        0
176
     1
 62
    18
176
     1
 90
       50
176
     1
 90
        3
176
     1
 62
     5
420
      255
176
     1
290
     0
176
     1
 90
       50
176
     1
 90
       50
176
     1
 90
       50
176
     1
290
     0
176
     1
 90
       50
176
     1
 62
   256
176
     0
 40
1.0
176
     0
 90
        2
176
     1
  1
strokes_ogs.tif
176
     1
290
     0
176
     1
 40
1.0
176
     1
 40
1.0
176
     1
  0
DICTIONARYVAR
  5
6C2
102
{ACAD_REACTORS
330
6BD
102
}
330
6BD
100
DictionaryVariables
280
     0
  1
1:1
  0
DICTIONARYVAR
  5
6BF
102
{ACAD_REACTORS
330
6BD
102
}
330
6BD
100
DictionaryVariables
280
     0
  1
STANDARD
  0
DICTIONARYVAR
  5
6BE
102
{ACAD_REACTORS
330
6BD
102
}
330
6BD
100
DictionaryVariables
280
     0
  1
STANDARD
  0
DICTIONARYVAR
  5
6C0
102
{ACAD_REACTORS
330
6BD
102
}
330
6BD
100
DictionaryVariables
280
     0
  1
Metric50
  0
DICTIONARYVAR
  5
6C1
102
{ACAD_REACTORS
330
6BD
102
}
330
6BD
100
DictionaryVariables
280
     0
  1
Metric50
  0
DICTIONARY
  5
65A
330
659
100
AcDbDictionary
280
     1
281
     1
  3
BUMPTILE
360
65C
  3
DIFFUSETILE
360
65B
  3
OPACITYTILE
360
65F
  3
REFLECTIONTILE
360
65E
  3
REFRACTIONTILE
360
660
  3
SPECULARTILE
360
65D
  0
DICTIONARY
  5
652
330
651
100
AcDbDictionary
280
     1
281
     1
  3
BUMPTILE
360
654
  3
DIFFUSETILE
360
653
  3
OPACITYTILE
360
657
  3
REFLECTIONTILE
360
656
  3
REFRACTIONTILE
360
658
  3
SPECULARTILE
360
655
  0
DICTIONARY
  5
662
330
661
100
AcDbDictionary
280
     1
281
     1
  3
BUMPTILE
360
664
  3
DIFFUSETILE
360
663
  3
OPACITYTILE
360
667
  3
REFLECTIONTILE
360
666
  3
REFRACTIONTILE
360
668
  3
SPECULARTILE
360
665
  0
DICTIONARY
  5
8D9
330
681
100
AcDbDictionary
280
     1
281
     1
  3
ACAD_ROUNDTRIP_2008_TABLESTYLE_CELLSTYLEMAP
360
22BB
  0
XRECORD
  5
65C
102
{ACAD_REACTORS
330
65A
102
}
330
65A
100
AcDbXrecord
280
     1
270
     1
271
     1
  0
XRECORD
  5
65B
102
{ACAD_REACTORS
330
65A
102
}
330
65A
100
AcDbXrecord
280
     1
270
     1
271
     1
  0
XRECORD
  5
65F
102
{ACAD_REACTORS
330
65A
102
}
330
65A
100
AcDbXrecord
280
     1
270
     1
271
     1
  0
XRECORD
  5
65E
102
{ACAD_REACTORS
330
65A
102
}
330
65A
100
AcDbXrecord
280
     1
270
     1
271
     1
  0
XRECORD
  5
660
102
{ACAD_REACTORS
330
65A
102
}
330
65A
100
AcDbXrecord
280
     1
270
     1
271
     1
  0
XRECORD
  5
65D
102
{ACAD_REACTORS
330
65A
102
}
330
65A
100
AcDbXrecord
280
     1
270
     1
271
     1
  0
XRECORD
  5
654
102
{ACAD_REACTORS
330
652
102
}
330
652
100
AcDbXrecord
280
     1
270
     1
271
     1
  0
XRECORD
  5
653
102
{ACAD_REACTORS
330
652
102
}
330
652
100
AcDbXrecord
280
     1
270
     1
271
     1
  0
XRECORD
  5
657
102
{ACAD_REACTORS
330
652
102
}
330
652
100
AcDbXrecord
280
     1
270
     1
271
     1
  0
XRECORD
  5
656
102
{ACAD_REACTORS
330
652
102
}
330
652
100
AcDbXrecord
280
     1
270
     1
271
     1
  0
XRECORD
  5
658
102
{ACAD_REACTORS
330
652
102
}
330
652
100
AcDbXrecord
280
     1
270
     1
271
     1
  0
XRECORD
  5
655
102
{ACAD_REACTORS
330
652
102
}
330
652
100
AcDbXrecord
280
     1
270
     1
271
     1
  0
XRECORD
  5
664
102
{ACAD_REACTORS
330
662
102
}
330
662
100
AcDbXrecord
280
     1
270
     1
271
     1
  0
XRECORD
  5
663
102
{ACAD_REACTORS
330
662
102
}
330
662
100
AcDbXrecord
280
     1
270
     1
271
     1
  0
XRECORD
  5
667
102
{ACAD_REACTORS
330
662
102
}
330
662
100
AcDbXrecord
280
     1
270
     1
271
     1
  0
XRECORD
  5
666
102
{ACAD_REACTORS
330
662
102
}
330
662
100
AcDbXrecord
280
     1
270
     1
271
     1
  0
XRECORD
  5
668
102
{ACAD_REACTORS
330
662
102
}
330
662
100
AcDbXrecord
280
     1
270
     1
271
     1
  0
XRECORD
  5
665
102
{ACAD_REACTORS
330
662
102
}
330
662
100
AcDbXrecord
280
     1
270
     1
271
     1
  0
CELLSTYLEMAP
  5
22BB
102
{ACAD_REACTORS
330
8D9
102
}
330
8D9
100
AcDbCellStyleMap
 90
        3
300
CELLSTYLE
  1
TABLEFORMAT_BEGIN
 90
        5
170
     1
 91
        0
 92
    32768
 62
   257
 93
        1
300
CONTENTFORMAT
  1
CONTENTFORMAT_BEGIN
 90
        0
 91
        0
 92
      512
 93
        0
300

 40
0.0
140
1.0
 94
        5
 62
     0
340
11
144
6.0
309
CONTENTFORMAT_END
171
     1
301
MARGIN
  1
CELLMARGIN_BEGIN
 40
1.5
 40
1.5
 40
1.5
 40
1.5
 40
0.18
 40
0.18
309
CELLMARGIN_END
 94
        6
 95
        1
302
GRIDFORMAT
  1
GRIDFORMAT_BEGIN
 90
        0
 91
        1
 62
     0
 92
       -2
340
0
 93
        0
 40
1.125
309
GRIDFORMAT_END
 95
        2
302
GRIDFORMAT
  1
GRIDFORMAT_BEGIN
 90
        0
 91
        1
 62
     0
 92
       -2
340
0
 93
        0
 40
1.125
309
GRIDFORMAT_END
 95
        4
302
GRIDFORMAT
  1
GRIDFORMAT_BEGIN
 90
        0
 91
        1
 62
     0
 92
       -2
340
0
 93
        0
 40
1.125
309
GRIDFORMAT_END
 95
        8
302
GRIDFORMAT
  1
GRIDFORMAT_BEGIN
 90
        0
 91
        1
 62
     0
 92
       -2
340
0
 93
        0
 40
1.125
309
GRIDFORMAT_END
 95
       16
302
GRIDFORMAT
  1
GRIDFORMAT_BEGIN
 90
        0
 91
        1
 62
     0
 92
       -2
340
0
 93
        0
 40
1.125
309
GRIDFORMAT_END
 95
       32
302
GRIDFORMAT
  1
GRIDFORMAT_BEGIN
 90
        0
 91
        1
 62
     0
 92
       -2
340
0
 93
        0
 40
1.125
309
GRIDFORMAT_END
309
TABLEFORMAT_END
  1
CELLSTYLE_BEGIN
 90
        1
 91
        1
300
_TITLE
309
CELLSTYLE_END
300
CELLSTYLE
  1
TABLEFORMAT_BEGIN
 90
        5
170
     1
 91
        0
 92
        0
 62
   257
 93
        1
300
CONTENTFORMAT
  1
CONTENTFORMAT_BEGIN
 90
        0
 91
        0
 92
      512
 93
        0
300

 40
0.0
140
1.0
 94
        5
 62
     0
340
11
144
4.5
309
CONTENTFORMAT_END
171
     1
301
MARGIN
  1
CELLMARGIN_BEGIN
 40
1.5
 40
1.5
 40
1.5
 40
1.5
 40
0.18
 40
0.18
309
CELLMARGIN_END
 94
        6
 95
        1
302
GRIDFORMAT
  1
GRIDFORMAT_BEGIN
 90
        0
 91
        1
 62
     0
 92
       -2
340
0
 93
        0
 40
1.125
309
GRIDFORMAT_END
 95
        2
302
GRIDFORMAT
  1
GRIDFORMAT_BEGIN
 90
        0
 91
        1
 62
     0
 92
       -2
340
0
 93
        0
 40
1.125
309
GRIDFORMAT_END
 95
        4
302
GRIDFORMAT
  1
GRIDFORMAT_BEGIN
 90
        0
 91
        1
 62
     0
 92
       -2
340
0
 93
        0
 40
1.125
309
GRIDFORMAT_END
 95
        8
302
GRIDFORMAT
  1
GRIDFORMAT_BEGIN
 90
        0
 91
        1
 62
     0
 92
       -2
340
0
 93
        0
 40
1.125
309
GRIDFORMAT_END
 95
       16
302
GRIDFORMAT
  1
GRIDFORMAT_BEGIN
 90
        0
 91
        1
 62
     0
 92
       -2
340
0
 93
        0
 40
1.125
309
GRIDFORMAT_END
 95
       32
302
GRIDFORMAT
  1
GRIDFORMAT_BEGIN
 90
        0
 91
        1
 62
     0
 92
       -2
340
0
 93
        0
 40
1.125
309
GRIDFORMAT_END
309
TABLEFORMAT_END
  1
CELLSTYLE_BEGIN
 90
        2
 91
        1
300
_HEADER
309
CELLSTYLE_END
300
CELLSTYLE
  1
TABLEFORMAT_BEGIN
 90
        5
170
     1
 91
        0
 92
        0
 62
   257
 93
        1
300
CONTENTFORMAT
  1
CONTENTFORMAT_BEGIN
 90
        0
 91
        0
 92
      512
 93
        0
300

 40
0.0
140
1.0
 94
        2
 62
     0
340
11
144
4.5
309
CONTENTFORMAT_END
171
     1
301
MARGIN
  1
CELLMARGIN_BEGIN
 40
1.5
 40
1.5
 40
1.5
 40
1.5
 40
0.18
 40
0.18
309
CELLMARGIN_END
 94
        6
 95
        1
302
GRIDFORMAT
  1
GRIDFORMAT_BEGIN
 90
        0
 91
        1
 62
     0
 92
       -2
340
0
 93
        0
 40
1.125
309
GRIDFORMAT_END
 95
        2
302
GRIDFORMAT
  1
GRIDFORMAT_BEGIN
 90
        0
 91
        1
 62
     0
 92
       -2
340
0
 93
        0
 40
1.125
309
GRIDFORMAT_END
 95
        4
302
GRIDFORMAT
  1
GRIDFORMAT_BEGIN
 90
        0
 91
        1
 62
     0
 92
       -2
340
0
 93
        0
 40
1.125
309
GRIDFORMAT_END
 95
        8
302
GRIDFORMAT
  1
GRIDFORMAT_BEGIN
 90
        0
 91
        1
 62
     0
 92
       -2
340
0
 93
        0
 40
1.125
309
GRIDFORMAT_END
 95
       16
302
GRIDFORMAT
  1
GRIDFORMAT_BEGIN
 90
        0
 91
        1
 62
     0
 92
       -2
340
0
 93
        0
 40
1.125
309
GRIDFORMAT_END
 95
       32
302
GRIDFORMAT
  1
GRIDFORMAT_BEGIN
 90
        0
 91
        1
 62
     0
 92
       -2
340
0
 93
        0
 40
1.125
309
GRIDFORMAT_END
309
TABLEFORMAT_END
  1
CELLSTYLE_BEGIN
 90
        3
 91
        2
300
_DATA
309
CELLSTYLE_END
  0
ENDSEC
  0
SECTION
  2
ACDSDATA
 70
     2
 71
     8
  0
ACDSSCHEMA
 90
        0
  1
AcDb_Thumbnail_Schema
  2
AcDbDs::ID
280
    10
 91
        8
  2
Thumbnail_Data
280
    15
 91
        0
101
ACDSRECORD
 95
        0
 90
        1
  2
AcDbDs::TreatedAsObjectData
280
     1
291
     1
101
ACDSRECORD
 95
        0
 90
        2
  2
AcDbDs::Legacy
280
     1
291
     1
101
ACDSRECORD
  1
AcDbDs::ID
 90
        3
  2
AcDs:Indexable
280
     1
291
     1
101
ACDSRECORD
  1
AcDbDs::ID
 90
        4
  2
AcDbDs::HandleAttribute
280
     7
282
     1
  0
ACDSSCHEMA
 90
        1
  1
AcDbDs::TreatedAsObjectDataSchema
  2
AcDbDs::TreatedAsObjectData
280
     1
 91
        0
  0
ACDSSCHEMA
 90
        2
  1
AcDbDs::LegacySchema
  2
AcDbDs::Legacy
280
     1
 91
        0
  0
ACDSSCHEMA
 90
        3
  1
AcDbDs::IndexedPropertySchema
  2
AcDs:Indexable
280
     1
 91
        0
  0
ACDSSCHEMA
 90
        4
  1
AcDbDs::HandleAttributeSchema
  2
AcDbDs::HandleAttribute
280
     7
 91
        1
284
     1
  0
ACDSRECORD
 90
        0
  2
AcDbDs::ID
280
    10
320
4ED
  2
Thumbnail_Data
280
    15
 94
     1788
310
89504E470D0A1A0A0000000D49484452000001000000007108030000000DA58D8400000300504C5445212830FFFFFF2128300000000000000000000000000000000000000000000000000000330000660000990000CC0000FF0033000033330033660033990033CC0033FF0066000066330066660066990066CC0066FF0099
310
000099330099660099990099CC0099FF00CC0000CC3300CC6600CC9900CCCC00CCFF00FF0000FF3300FF6600FF9900FFCC00FFFF3300003300333300663300993300CC3300FF3333003333333333663333993333CC3333FF3366003366333366663366993366CC3366FF3399003399333399663399993399CC3399FF33CC00
310
33CC3333CC6633CC9933CCCC33CCFF33FF0033FF3333FF6633FF9933FFCC33FFFF6600006600336600666600996600CC6600FF6633006633336633666633996633CC6633FF6666006666336666666666996666CC6666FF6699006699336699666699996699CC6699FF66CC0066CC3366CC6666CC9966CCCC66CCFF66FF0066
310
FF3366FF6666FF9966FFCC66FFFF9900009900339900669900999900CC9900FF9933009933339933669933999933CC9933FF9966009966339966669966999966CC9966FF9999009999339999669999999999CC9999FF99CC0099CC3399CC6699CC9999CCCC99CCFF99FF0099FF3399FF6699FF9999FFCC99FFFFCC0000CC00
310
33CC0066CC0099CC00CCCC00FFCC3300CC3333CC3366CC3399CC33CCCC33FFCC6600CC6633CC6666CC6699CC66CCCC66FFCC9900CC9933CC9966CC9999CC99CCCC99FFCCCC00CCCC33CCCC66CCCC99CCCCCCCCCCFFCCFF00CCFF33CCFF66CCFF99CCFFCCCCFFFFFF0000FF0033FF0066FF0099FF00CCFF00FFFF3300FF3333
310
FF3366FF3399FF33CCFF33FFFF6600FF6633FF6666FF6699FF66CCFF66FFFF9900FF9933FF9966FF9999FF99CCFF99FFFFCC00FFCC33FFCC66FFCC99FFCCCCFFCCFFFFFF00FFFF33FFFF66FFFF99FFFFCCFFFFFF0000000D0D0D1A1A1A2828283535354343435050505D5D5D6B6B6B787878868686939393A1A1A1AEAEAEBB
310
BBBBC9C9C9D6D6D6E4E4E4F1F1F1FFFFFF0000000000000000000000000000000000000000000000000000000000002E4550F1000002294944415478DAED5C4192C3200CE3FFFFF5BDD31B38C131D4E9604B3A6D36EDEC5A08636192D6088220088220FE06E981187F93DB9F21C71F4503328EBF4CAECACA418F784F4043D0
310
838E7020E03A27EAB1D1C572AB80EE9E8C5FAB12BF1E73EBAA1BFF2AF1B70502063D48E6988DB4E7BE925C316F8E79110274FA465480B9D44D57FE3A04584B1D8802DC41CEB2475D02D4E266144265156025C869EE284480F5496B3129498071EFAB8EF25360A1FA2F9A04ED7B5508D8AF0467D9F2F48C105408CDDDE0E90C
310
E852D85BECF80BA1D3151012721D025E7083C713F0B61BC44882A915F0B21BCC4C40881BCCAD800037989A8008375886805D37787821F8BE1B94D3C73FC60D265280BFE9BD6686B2E480FE1F94668F72CD42E8D2F5477383BD0204D10DF6037D4DE0006E50F4D12734373812009904DB669045DCE00201550BA105054CEC5F
310
6A37B84280D30CA5AA04551D104440EA4A30C00DB6446E507B01BA41343778D9CAC1DE161FF73A83AC51DED698DADB03EC0D0A606F50D81B04EF0DCADE52874180D11B9432BD41F1F60645E6CB675905346758997B830601D66937AB7E181FAA4C4DC053113DE90D76BF90D40AD85C3E332BC07DC6D33C619AF7A4A8FF11F9
310
877305A9A6C0D623C0FEA3359266062C8DD61301B77FE07C05B42802F224C11FF6924800098026C0B98F509A00CF4E12C414B0DE3B509600BD7EA6AD03A2E400F04E99356DDC244B3006A0DFBB461004411004411004411004411004411004411071F8006A4A20842885CB9E0000000049454E44AE426082EA0160A7AC642B
310
09842EBE71ADE35B2872023004C5750C8F7556B230E0B9E114AF7510DE52CB0309005DFEFFD201AB92373664CCD7191B3FC7950637009880606B0CF97480B0EAF3995BCA34A88D775C08403325DF3E00C80A80A803100660357B4B0B80A803ACA17FE71593F751D2AFF7BC5406985520C2199D8D01F3E5B56FE0F7F9FCC38C
310
FE3E031461E34F83679A0E1C87FF6BC83FAC0362EFED580138D001573100DE81DF1980761B00F6C0EFFD00741F38BD76B807007D9A4F1EF89D3FFFF0F10F511A3482A1F9FCF3EC5698A71C96DEBC6D94C3084F1F73F5039C6D71A316C8CA0098A3CD382887DD43C794E5B0161AFCE5B07FE8980A0025B2C15F0E6B1ED200D0
310
A44640F38F0C4F1E48FB011300E2919D8E82030025CA92074168002821625EB1E62149165006381CD3A02B0FE4002C2E2A3CE3B00B0FEC0044B3A4B5D82B01387DF7A2950AE900D87DF681F5CD02370272AEC04690519F9EE4C1E1A8159E73A85E03E24D0F65656565656565656565656565657F00B17F1713C418F1B30000
310
000049454E44AE426082
  0
ENDSEC
  0
EOF
