<?xml version="1.0" encoding="utf-8"?>
<svg viewBox="0 0 1024 500" xmlns="http://www.w3.org/2000/svg">
  <polygon points="930.42 364.971 902.069 348.601 902.069 320.251 873.729 303.891 873.729 332.231 845.38 315.871 845.38 344.221 873.729 360.581 873.729 388.931 902.069 405.291 902.069 376.951 930.42 393.311 930.42 364.971"/>
  <polygon points="646.949 412.131 731.989 363.041 731.989 334.691 646.949 383.791 646.949 412.131"/>
  <rect x="363.489" y="71.981" width="28.35" height="340.16"/>
  <rect x="420.18" y="71.981" width="28.35" height="175.75"/>
  <rect x="420.18" y="298.751" width="28.35" height="113.39"/>
  <polygon points="448.529 268.481 363.489 219.381 363.489 191.031 448.529 240.131 448.529 268.481"/>
  <rect x="363.489" y="71.981" width="85.04" height="28.35"/>
  <rect x="363.489" y="383.791" width="85.04" height="28.35"/>
  <rect x="476.88" y="71.981" width="28.35" height="340.16"/>
  <rect x="533.569" y="71.981" width="28.35" height="56.69"/>
  <rect x="533.569" y="157.011" width="28.35" height="198.43"/>
  <rect x="590.259" y="213.711" width="28.35" height="198.43"/>
  <rect x="476.88" y="71.981" width="85.04" height="28.35"/>
  <rect x="476.88" y="383.791" width="85.04" height="28.35"/>
  <rect x="561.91" y="213.711" width="28.35" height="28.35"/>
  <rect x="590.259" y="71.981" width="28.35" height="85.04"/>
  <rect x="646.949" y="71.981" width="28.35" height="56.69"/>
  <rect x="590.259" y="71.981" width="85.04" height="28.35"/>
  <rect x="590.259" y="157.011" width="85.04" height="28.35"/>
  <rect x="760.339" y="383.791" width="85.04" height="28.35"/>
  <rect x="646.949" y="213.711" width="28.35" height="181.42"/>
  <rect x="703.65" y="71.981" width="28.35" height="340.16"/>
  <rect x="760.339" y="71.981" width="28.35" height="323.15"/>
  <polygon points="845.38 412.131 817.029 412.131 817.029 299.501 845.38 315.871 845.38 412.131"/>
  <polygon points="278.37 412.131 250.019 412.131 250.019 125.481 278.37 141.841 278.37 412.131"/>
  <polygon points="221.67 412.131 193.329 412.131 193.329 92.771 221.67 109.131 221.67 412.131"/>
  <polygon points="278.37 167.651 278.37 195.991 306.709 179.631 306.709 412.131 335.059 412.131 335.059 134.911 278.37 167.651"/>
  <polygon points="221.759 137.401 250.099 153.761 250.099 125.421 221.759 109.051 221.759 137.401"/>
</svg>