G04 #@! TF.GenerationSoftware,KiCad,Pcbnew,(5.1.5)-3*
G04 #@! TF.CreationDate,2020-04-13T19:22:52+08:00*
G04 #@! TF.ProjectId,underplate,756e6465-7270-46c6-9174-652e6b696361,rev?*
G04 #@! TF.SameCoordinates,Original*
G04 #@! TF.FileFunction,Copper,L2,Bot*
G04 #@! TF.FilePolarity,Positive*
%FSLAX46Y46*%
G04 Gerber Fmt 4.6, Leading zero omitted, Abs format (unit mm)*
G04 Created by KiCad (PCBNEW (5.1.5)-3) date 2020-04-13 19:22:52*
%MOMM*%
%LPD*%
G04 APERTURE LIST*
%ADD10C,0.254000*%
G04 APERTURE END LIST*
D10*
G36*
X180135425Y-58837080D02*
G01*
X180198357Y-58856080D01*
X180256406Y-58886945D01*
X180307344Y-58928489D01*
X180349249Y-58979144D01*
X180380516Y-59036971D01*
X180399957Y-59099772D01*
X180410001Y-59195336D01*
X180410002Y-61962419D01*
X180412784Y-61990664D01*
X180412741Y-61996801D01*
X180413641Y-62005972D01*
X180434042Y-62200069D01*
X180446069Y-62258658D01*
X180457278Y-62317423D01*
X180459942Y-62326245D01*
X180517654Y-62512683D01*
X180540839Y-62567838D01*
X180563243Y-62623291D01*
X180567569Y-62631427D01*
X180660394Y-62803104D01*
X180693847Y-62852699D01*
X180726601Y-62902753D01*
X180732425Y-62909894D01*
X180856829Y-63060272D01*
X180899264Y-63102411D01*
X180941127Y-63145161D01*
X180948228Y-63151034D01*
X181099470Y-63274384D01*
X181149278Y-63307477D01*
X181198652Y-63341284D01*
X181206758Y-63345667D01*
X181379081Y-63437292D01*
X181434393Y-63460090D01*
X181489367Y-63483652D01*
X181498170Y-63486377D01*
X181685007Y-63542786D01*
X181743687Y-63554405D01*
X181802197Y-63566842D01*
X181811362Y-63567805D01*
X182005595Y-63586850D01*
X182005599Y-63586850D01*
X182037582Y-63590000D01*
X199087722Y-63590000D01*
X199185425Y-63599580D01*
X199248357Y-63618580D01*
X199306406Y-63649445D01*
X199357344Y-63690989D01*
X199399249Y-63741644D01*
X199430516Y-63799471D01*
X199449957Y-63862272D01*
X199460001Y-63957835D01*
X199460001Y-64248419D01*
X199462784Y-64276674D01*
X199462741Y-64282801D01*
X199463641Y-64291972D01*
X199484042Y-64486069D01*
X199496069Y-64544658D01*
X199507278Y-64603423D01*
X199509942Y-64612245D01*
X199567654Y-64798683D01*
X199590839Y-64853838D01*
X199613243Y-64909291D01*
X199617569Y-64917427D01*
X199710394Y-65089104D01*
X199743847Y-65138699D01*
X199776601Y-65188753D01*
X199782425Y-65195894D01*
X199906829Y-65346272D01*
X199949264Y-65388411D01*
X199991127Y-65431161D01*
X199998228Y-65437034D01*
X200149470Y-65560384D01*
X200199278Y-65593477D01*
X200248652Y-65627284D01*
X200256758Y-65631667D01*
X200429081Y-65723292D01*
X200484393Y-65746090D01*
X200539367Y-65769652D01*
X200548170Y-65772377D01*
X200735007Y-65828786D01*
X200793687Y-65840405D01*
X200852197Y-65852842D01*
X200861362Y-65853805D01*
X201055595Y-65872850D01*
X201055599Y-65872850D01*
X201087582Y-65876000D01*
X218137721Y-65876000D01*
X218235424Y-65885580D01*
X218298356Y-65904580D01*
X218356405Y-65935445D01*
X218407343Y-65976989D01*
X218449248Y-66027644D01*
X218480515Y-66085471D01*
X218499956Y-66148272D01*
X218510001Y-66243845D01*
X218510000Y-82717721D01*
X218500420Y-82815424D01*
X218481420Y-82878357D01*
X218450554Y-82936406D01*
X218409011Y-82987343D01*
X218358356Y-83029248D01*
X218300529Y-83060515D01*
X218237728Y-83079956D01*
X218143107Y-83089901D01*
X211557680Y-83089901D01*
X211529770Y-83092650D01*
X211526792Y-83092629D01*
X211517621Y-83093528D01*
X211469459Y-83098590D01*
X211460716Y-83099451D01*
X211460424Y-83099539D01*
X211420553Y-83103730D01*
X211361944Y-83115761D01*
X211303192Y-83126968D01*
X211294371Y-83129632D01*
X211201134Y-83158494D01*
X211145978Y-83181680D01*
X211090529Y-83204082D01*
X211082392Y-83208408D01*
X210996536Y-83254830D01*
X210946929Y-83288290D01*
X210896889Y-83321035D01*
X210889748Y-83326860D01*
X210814544Y-83389074D01*
X210772419Y-83431494D01*
X210729653Y-83473374D01*
X210723779Y-83480474D01*
X210662092Y-83556111D01*
X210629008Y-83605906D01*
X210595194Y-83655289D01*
X210590812Y-83663396D01*
X210544990Y-83749574D01*
X210522217Y-83804825D01*
X210498627Y-83859864D01*
X210495903Y-83868667D01*
X210467693Y-83962105D01*
X210456079Y-84020761D01*
X210443637Y-84079296D01*
X210442674Y-84088461D01*
X210433150Y-84185597D01*
X210433150Y-84214405D01*
X210430036Y-84243054D01*
X210430004Y-84252269D01*
X210430016Y-84255760D01*
X210432930Y-84284459D01*
X210432728Y-84313307D01*
X210433627Y-84322478D01*
X210443829Y-84419546D01*
X210455860Y-84478155D01*
X210467067Y-84536907D01*
X210469731Y-84545728D01*
X210498593Y-84638965D01*
X210521773Y-84694108D01*
X210544181Y-84749571D01*
X210548507Y-84757707D01*
X210594930Y-84843564D01*
X210628378Y-84893154D01*
X210661134Y-84943210D01*
X210666955Y-84950346D01*
X210666959Y-84950352D01*
X210666964Y-84950357D01*
X210729172Y-85025555D01*
X210771645Y-85067732D01*
X210813473Y-85110446D01*
X210820568Y-85116315D01*
X210820572Y-85116319D01*
X210820574Y-85116320D01*
X210896210Y-85178007D01*
X210946000Y-85211087D01*
X210995389Y-85244905D01*
X211003495Y-85249287D01*
X211089673Y-85295110D01*
X211144970Y-85317902D01*
X211199964Y-85341472D01*
X211208767Y-85344196D01*
X211302204Y-85372407D01*
X211360897Y-85384028D01*
X211419395Y-85396462D01*
X211428560Y-85397425D01*
X211525696Y-85406949D01*
X211525704Y-85406949D01*
X211557690Y-85410099D01*
X218137720Y-85410000D01*
X218235424Y-85419580D01*
X218298356Y-85438580D01*
X218356405Y-85469445D01*
X218407343Y-85510989D01*
X218449248Y-85561644D01*
X218480515Y-85619471D01*
X218499956Y-85682272D01*
X218510000Y-85777835D01*
X218510000Y-86258919D01*
X218512783Y-86287174D01*
X218512740Y-86293301D01*
X218513640Y-86302472D01*
X218534041Y-86496569D01*
X218546068Y-86555158D01*
X218557277Y-86613923D01*
X218559941Y-86622745D01*
X218617653Y-86809183D01*
X218640838Y-86864338D01*
X218663242Y-86919791D01*
X218667568Y-86927927D01*
X218760393Y-87099604D01*
X218793846Y-87149199D01*
X218826600Y-87199253D01*
X218832424Y-87206394D01*
X218956828Y-87356772D01*
X218999263Y-87398911D01*
X219041126Y-87441661D01*
X219048227Y-87447534D01*
X219199469Y-87570884D01*
X219249277Y-87603977D01*
X219298651Y-87637784D01*
X219306757Y-87642167D01*
X219479080Y-87733792D01*
X219534392Y-87756590D01*
X219589366Y-87780152D01*
X219598169Y-87782877D01*
X219785006Y-87839286D01*
X219843686Y-87850905D01*
X219902196Y-87863342D01*
X219911361Y-87864305D01*
X220105594Y-87883350D01*
X220105598Y-87883350D01*
X220137581Y-87886500D01*
X237187721Y-87886500D01*
X237285424Y-87896080D01*
X237348356Y-87915080D01*
X237406405Y-87945945D01*
X237457343Y-87987489D01*
X237499248Y-88038144D01*
X237530515Y-88095971D01*
X237549956Y-88158772D01*
X237560001Y-88254345D01*
X237560000Y-161860221D01*
X237550420Y-161957924D01*
X237531420Y-162020857D01*
X237500554Y-162078906D01*
X237459011Y-162129843D01*
X237408356Y-162171748D01*
X237350529Y-162203015D01*
X237287728Y-162222456D01*
X237192165Y-162232500D01*
X220252279Y-162232500D01*
X220154576Y-162222920D01*
X220091643Y-162203920D01*
X220033594Y-162173054D01*
X219982657Y-162131511D01*
X219940752Y-162080856D01*
X219909485Y-162023029D01*
X219890044Y-161960228D01*
X219880000Y-161864665D01*
X219880000Y-161387581D01*
X219877217Y-161359326D01*
X219877260Y-161353199D01*
X219876360Y-161344028D01*
X219855959Y-161149931D01*
X219843934Y-161091348D01*
X219832723Y-161032577D01*
X219830059Y-161023755D01*
X219772347Y-160837317D01*
X219749162Y-160782162D01*
X219726758Y-160726709D01*
X219722432Y-160718573D01*
X219629607Y-160546896D01*
X219596139Y-160497278D01*
X219563400Y-160447247D01*
X219557576Y-160440106D01*
X219433172Y-160289728D01*
X219390737Y-160247589D01*
X219348874Y-160204839D01*
X219341773Y-160198966D01*
X219190531Y-160075616D01*
X219140738Y-160042534D01*
X219091349Y-160008716D01*
X219083243Y-160004333D01*
X218910921Y-159912708D01*
X218855606Y-159889909D01*
X218800634Y-159866348D01*
X218791831Y-159863623D01*
X218604995Y-159807214D01*
X218546307Y-159795594D01*
X218487804Y-159783158D01*
X218478639Y-159782195D01*
X218284405Y-159763150D01*
X218284397Y-159763150D01*
X218252573Y-159760008D01*
X201202362Y-159756008D01*
X201104576Y-159746420D01*
X201041643Y-159727420D01*
X200983594Y-159696554D01*
X200932657Y-159655011D01*
X200890752Y-159604356D01*
X200859485Y-159546529D01*
X200840044Y-159483728D01*
X200830000Y-159388165D01*
X200830000Y-159097581D01*
X200827217Y-159069326D01*
X200827260Y-159063199D01*
X200826360Y-159054028D01*
X200805959Y-158859931D01*
X200793934Y-158801348D01*
X200782723Y-158742577D01*
X200780059Y-158733755D01*
X200722347Y-158547317D01*
X200699162Y-158492162D01*
X200676758Y-158436709D01*
X200672432Y-158428573D01*
X200579607Y-158256896D01*
X200546139Y-158207278D01*
X200513400Y-158157247D01*
X200507576Y-158150106D01*
X200383172Y-157999728D01*
X200340737Y-157957589D01*
X200298874Y-157914839D01*
X200291773Y-157908966D01*
X200140531Y-157785616D01*
X200090738Y-157752534D01*
X200041349Y-157718716D01*
X200033243Y-157714333D01*
X199860921Y-157622708D01*
X199805606Y-157599909D01*
X199750634Y-157576348D01*
X199741831Y-157573623D01*
X199554995Y-157517214D01*
X199496307Y-157505594D01*
X199437804Y-157493158D01*
X199428639Y-157492195D01*
X199234405Y-157473150D01*
X199234402Y-157473150D01*
X199202419Y-157470000D01*
X182152279Y-157470000D01*
X182054576Y-157460420D01*
X181991643Y-157441420D01*
X181933594Y-157410554D01*
X181882657Y-157369011D01*
X181840752Y-157318356D01*
X181809485Y-157260529D01*
X181790044Y-157197728D01*
X181780000Y-157102165D01*
X181780000Y-140079117D01*
X198410000Y-140079117D01*
X198410000Y-140420883D01*
X198476675Y-140756081D01*
X198607463Y-141071831D01*
X198797337Y-141355998D01*
X199039002Y-141597663D01*
X199323169Y-141787537D01*
X199638919Y-141918325D01*
X199974117Y-141985000D01*
X200315883Y-141985000D01*
X200651081Y-141918325D01*
X200966831Y-141787537D01*
X201250998Y-141597663D01*
X201492663Y-141355998D01*
X201682537Y-141071831D01*
X201813325Y-140756081D01*
X201880000Y-140420883D01*
X201880000Y-140079117D01*
X201813325Y-139743919D01*
X201682537Y-139428169D01*
X201492663Y-139144002D01*
X201250998Y-138902337D01*
X200966831Y-138712463D01*
X200651081Y-138581675D01*
X200315883Y-138515000D01*
X199974117Y-138515000D01*
X199638919Y-138581675D01*
X199323169Y-138712463D01*
X199039002Y-138902337D01*
X198797337Y-139144002D01*
X198607463Y-139428169D01*
X198476675Y-139743919D01*
X198410000Y-140079117D01*
X181780000Y-140079117D01*
X181780000Y-135285081D01*
X181777217Y-135256826D01*
X181777260Y-135250699D01*
X181776360Y-135241528D01*
X181755959Y-135047431D01*
X181743934Y-134988848D01*
X181732723Y-134930077D01*
X181730059Y-134921255D01*
X181672347Y-134734817D01*
X181649162Y-134679662D01*
X181626758Y-134624209D01*
X181622432Y-134616073D01*
X181529607Y-134444396D01*
X181496139Y-134394778D01*
X181463400Y-134344747D01*
X181457576Y-134337606D01*
X181333172Y-134187228D01*
X181290737Y-134145089D01*
X181248874Y-134102339D01*
X181241773Y-134096466D01*
X181090531Y-133973116D01*
X181040738Y-133940034D01*
X180991349Y-133906216D01*
X180983243Y-133901833D01*
X180810921Y-133810208D01*
X180755606Y-133787409D01*
X180700634Y-133763848D01*
X180691831Y-133761123D01*
X180504995Y-133704714D01*
X180446307Y-133693094D01*
X180387804Y-133680658D01*
X180378639Y-133679695D01*
X180184405Y-133660650D01*
X180184402Y-133660650D01*
X180152419Y-133657500D01*
X162987581Y-133657500D01*
X162959326Y-133660283D01*
X162953199Y-133660240D01*
X162944028Y-133661140D01*
X162749931Y-133681541D01*
X162691348Y-133693566D01*
X162632577Y-133704777D01*
X162623755Y-133707441D01*
X162437317Y-133765153D01*
X162382162Y-133788338D01*
X162326709Y-133810742D01*
X162318573Y-133815068D01*
X162146896Y-133907893D01*
X162097278Y-133941361D01*
X162047247Y-133974100D01*
X162040106Y-133979924D01*
X161889728Y-134104328D01*
X161847589Y-134146763D01*
X161804839Y-134188626D01*
X161798966Y-134195727D01*
X161675616Y-134346969D01*
X161642534Y-134396762D01*
X161608716Y-134446151D01*
X161604333Y-134454257D01*
X161512708Y-134626579D01*
X161489909Y-134681894D01*
X161466348Y-134736866D01*
X161463623Y-134745669D01*
X161407214Y-134932505D01*
X161395594Y-134991193D01*
X161383158Y-135049696D01*
X161382195Y-135058861D01*
X161363150Y-135253095D01*
X161360000Y-135285082D01*
X161360001Y-138047711D01*
X161350420Y-138145424D01*
X161331420Y-138208357D01*
X161300554Y-138266406D01*
X161259011Y-138317343D01*
X161208356Y-138359248D01*
X161150529Y-138390515D01*
X161087728Y-138409956D01*
X160992165Y-138420000D01*
X143937581Y-138420000D01*
X143909326Y-138422783D01*
X143903199Y-138422740D01*
X143894028Y-138423640D01*
X143699931Y-138444041D01*
X143641348Y-138456066D01*
X143582577Y-138467277D01*
X143573755Y-138469941D01*
X143387317Y-138527653D01*
X143332162Y-138550838D01*
X143276709Y-138573242D01*
X143268573Y-138577568D01*
X143096896Y-138670393D01*
X143047278Y-138703861D01*
X142997247Y-138736600D01*
X142990106Y-138742424D01*
X142839728Y-138866828D01*
X142797589Y-138909263D01*
X142754839Y-138951126D01*
X142748966Y-138958227D01*
X142625616Y-139109469D01*
X142592534Y-139159262D01*
X142558716Y-139208651D01*
X142554333Y-139216757D01*
X142462708Y-139389079D01*
X142439909Y-139444394D01*
X142416348Y-139499366D01*
X142413623Y-139508169D01*
X142357214Y-139695005D01*
X142345594Y-139753693D01*
X142333158Y-139812196D01*
X142332195Y-139821361D01*
X142313150Y-140015595D01*
X142310000Y-140047582D01*
X142310001Y-145096211D01*
X142300420Y-145193924D01*
X142281420Y-145256857D01*
X142250554Y-145314906D01*
X142209011Y-145365843D01*
X142158356Y-145407748D01*
X142100529Y-145439015D01*
X142037728Y-145458456D01*
X141942165Y-145468500D01*
X124887581Y-145468500D01*
X124859326Y-145471283D01*
X124853199Y-145471240D01*
X124844028Y-145472140D01*
X124649931Y-145492541D01*
X124591348Y-145504566D01*
X124532577Y-145515777D01*
X124523755Y-145518441D01*
X124337317Y-145576153D01*
X124282162Y-145599338D01*
X124226709Y-145621742D01*
X124218573Y-145626068D01*
X124046896Y-145718893D01*
X123997278Y-145752361D01*
X123947247Y-145785100D01*
X123940106Y-145790924D01*
X123789728Y-145915328D01*
X123747589Y-145957763D01*
X123704839Y-145999626D01*
X123698966Y-146006727D01*
X123575616Y-146157969D01*
X123542534Y-146207762D01*
X123508716Y-146257151D01*
X123504333Y-146265257D01*
X123412708Y-146437579D01*
X123389909Y-146492894D01*
X123366348Y-146547866D01*
X123363623Y-146556669D01*
X123307214Y-146743505D01*
X123295594Y-146802193D01*
X123283158Y-146860696D01*
X123282195Y-146869861D01*
X123263150Y-147064095D01*
X123260000Y-147096082D01*
X123260000Y-147572721D01*
X123250420Y-147670424D01*
X123231420Y-147733357D01*
X123200554Y-147791406D01*
X123159011Y-147842343D01*
X123108356Y-147884248D01*
X123050529Y-147915515D01*
X122987728Y-147934956D01*
X122892165Y-147945000D01*
X105952279Y-147945000D01*
X105854576Y-147935420D01*
X105791643Y-147916420D01*
X105733594Y-147885554D01*
X105682657Y-147844011D01*
X105640752Y-147793356D01*
X105609485Y-147735529D01*
X105590044Y-147672728D01*
X105580000Y-147577165D01*
X105580000Y-128172117D01*
X122210000Y-128172117D01*
X122210000Y-128513883D01*
X122276675Y-128849081D01*
X122407463Y-129164831D01*
X122597337Y-129448998D01*
X122839002Y-129690663D01*
X123123169Y-129880537D01*
X123438919Y-130011325D01*
X123774117Y-130078000D01*
X124115883Y-130078000D01*
X124451081Y-130011325D01*
X124766831Y-129880537D01*
X125050998Y-129690663D01*
X125292663Y-129448998D01*
X125482537Y-129164831D01*
X125613325Y-128849081D01*
X125680000Y-128513883D01*
X125680000Y-128172117D01*
X125613325Y-127836919D01*
X125482537Y-127521169D01*
X125292663Y-127237002D01*
X125050998Y-126995337D01*
X124766831Y-126805463D01*
X124451081Y-126674675D01*
X124115883Y-126608000D01*
X123774117Y-126608000D01*
X123438919Y-126674675D01*
X123123169Y-126805463D01*
X122839002Y-126995337D01*
X122597337Y-127237002D01*
X122407463Y-127521169D01*
X122276675Y-127836919D01*
X122210000Y-128172117D01*
X105580000Y-128172117D01*
X105580000Y-122257581D01*
X105576802Y-122225110D01*
X105576802Y-122218617D01*
X105575838Y-122209452D01*
X105571094Y-122167161D01*
X105570450Y-122160617D01*
X105570308Y-122160149D01*
X105564959Y-122112459D01*
X105552530Y-122053983D01*
X105540904Y-121995264D01*
X105538178Y-121986461D01*
X105508666Y-121893427D01*
X105485119Y-121838488D01*
X105462303Y-121783133D01*
X105457919Y-121775027D01*
X105410898Y-121689498D01*
X105377111Y-121640154D01*
X105344005Y-121590324D01*
X105338131Y-121583224D01*
X105275394Y-121508456D01*
X105232683Y-121466630D01*
X105190503Y-121424154D01*
X105183361Y-121418330D01*
X105107296Y-121357173D01*
X105057244Y-121324420D01*
X105007649Y-121290967D01*
X104999517Y-121286644D01*
X104999513Y-121286641D01*
X104999509Y-121286639D01*
X104913016Y-121241422D01*
X104857584Y-121219026D01*
X104802408Y-121195832D01*
X104793586Y-121193169D01*
X104699955Y-121165612D01*
X104641256Y-121154415D01*
X104582600Y-121142374D01*
X104573429Y-121141475D01*
X104476228Y-121132629D01*
X104416411Y-121133047D01*
X104356594Y-121132629D01*
X104347423Y-121133528D01*
X104250355Y-121143730D01*
X104191746Y-121155761D01*
X104132994Y-121166968D01*
X104124173Y-121169632D01*
X104030936Y-121198494D01*
X103975780Y-121221680D01*
X103920331Y-121244082D01*
X103912194Y-121248408D01*
X103826338Y-121294830D01*
X103776731Y-121328290D01*
X103726691Y-121361035D01*
X103719550Y-121366860D01*
X103644346Y-121429074D01*
X103602221Y-121471494D01*
X103559455Y-121513374D01*
X103553581Y-121520474D01*
X103491894Y-121596111D01*
X103458810Y-121645906D01*
X103424996Y-121695289D01*
X103420614Y-121703396D01*
X103374792Y-121789574D01*
X103352019Y-121844825D01*
X103328429Y-121899864D01*
X103325705Y-121908667D01*
X103297495Y-122002105D01*
X103285881Y-122060761D01*
X103273439Y-122119296D01*
X103272476Y-122128461D01*
X103262952Y-122225597D01*
X103259798Y-122257668D01*
X103259996Y-123760257D01*
X103250420Y-123857924D01*
X103231420Y-123920857D01*
X103200554Y-123978906D01*
X103159011Y-124029843D01*
X103108356Y-124071748D01*
X103050529Y-124103015D01*
X102987728Y-124122456D01*
X102892165Y-124132500D01*
X86902279Y-124132500D01*
X86804576Y-124122920D01*
X86741643Y-124103920D01*
X86683594Y-124073054D01*
X86632657Y-124031511D01*
X86590752Y-123980856D01*
X86559485Y-123923029D01*
X86540044Y-123860228D01*
X86530000Y-123764665D01*
X86530000Y-114177594D01*
X103259802Y-114177594D01*
X103259902Y-119462431D01*
X103263099Y-119494885D01*
X103263099Y-119501383D01*
X103264063Y-119510547D01*
X103268820Y-119552958D01*
X103269454Y-119559395D01*
X103269593Y-119559855D01*
X103274942Y-119607541D01*
X103287377Y-119666047D01*
X103298998Y-119724736D01*
X103301723Y-119733539D01*
X103331235Y-119826574D01*
X103354793Y-119881538D01*
X103377598Y-119936867D01*
X103381982Y-119944973D01*
X103429002Y-120030502D01*
X103462809Y-120079874D01*
X103495896Y-120129675D01*
X103501770Y-120136776D01*
X103564507Y-120211544D01*
X103607237Y-120253389D01*
X103649398Y-120295845D01*
X103656540Y-120301669D01*
X103732605Y-120362827D01*
X103782657Y-120395580D01*
X103832252Y-120429033D01*
X103840384Y-120433356D01*
X103840388Y-120433359D01*
X103840392Y-120433361D01*
X103926885Y-120478578D01*
X103982317Y-120500974D01*
X104037493Y-120524168D01*
X104046315Y-120526831D01*
X104139946Y-120554388D01*
X104198659Y-120565588D01*
X104257302Y-120577626D01*
X104266473Y-120578525D01*
X104363673Y-120587371D01*
X104423490Y-120586953D01*
X104483307Y-120587371D01*
X104492478Y-120586472D01*
X104589546Y-120576270D01*
X104648155Y-120564239D01*
X104706907Y-120553032D01*
X104715728Y-120550368D01*
X104808965Y-120521506D01*
X104864108Y-120498326D01*
X104919571Y-120475918D01*
X104927707Y-120471592D01*
X105013564Y-120425169D01*
X105063154Y-120391721D01*
X105113210Y-120358965D01*
X105120346Y-120353144D01*
X105120352Y-120353140D01*
X105120357Y-120353135D01*
X105195555Y-120290927D01*
X105237732Y-120248454D01*
X105280446Y-120206626D01*
X105286318Y-120199528D01*
X105286319Y-120199527D01*
X105286322Y-120199523D01*
X105348007Y-120123889D01*
X105381087Y-120074099D01*
X105414905Y-120024710D01*
X105419287Y-120016604D01*
X105465110Y-119930426D01*
X105487902Y-119875129D01*
X105511472Y-119820135D01*
X105514196Y-119811332D01*
X105542407Y-119717895D01*
X105554028Y-119659202D01*
X105566462Y-119600704D01*
X105567425Y-119591539D01*
X105576949Y-119494403D01*
X105576949Y-119494396D01*
X105580099Y-119462406D01*
X105579999Y-114177569D01*
X105576802Y-114145115D01*
X105576802Y-114138617D01*
X105575838Y-114129452D01*
X105571081Y-114087037D01*
X105570447Y-114080605D01*
X105570308Y-114080146D01*
X105564959Y-114032459D01*
X105552530Y-113973983D01*
X105540904Y-113915264D01*
X105538178Y-113906461D01*
X105508666Y-113813427D01*
X105485119Y-113758488D01*
X105462303Y-113703133D01*
X105457919Y-113695027D01*
X105410898Y-113609498D01*
X105377111Y-113560154D01*
X105344005Y-113510324D01*
X105338131Y-113503224D01*
X105275394Y-113428456D01*
X105232683Y-113386630D01*
X105190503Y-113344154D01*
X105183361Y-113338330D01*
X105107296Y-113277173D01*
X105057244Y-113244420D01*
X105007649Y-113210967D01*
X104999517Y-113206644D01*
X104999513Y-113206641D01*
X104999509Y-113206639D01*
X104913016Y-113161422D01*
X104857584Y-113139026D01*
X104802408Y-113115832D01*
X104793586Y-113113169D01*
X104699955Y-113085612D01*
X104641256Y-113074415D01*
X104582600Y-113062374D01*
X104573429Y-113061475D01*
X104476228Y-113052629D01*
X104416411Y-113053047D01*
X104356594Y-113052629D01*
X104347423Y-113053528D01*
X104250355Y-113063730D01*
X104191746Y-113075761D01*
X104132994Y-113086968D01*
X104124173Y-113089632D01*
X104030936Y-113118494D01*
X103975780Y-113141680D01*
X103920331Y-113164082D01*
X103912194Y-113168408D01*
X103826338Y-113214830D01*
X103776731Y-113248290D01*
X103726691Y-113281035D01*
X103719550Y-113286860D01*
X103644346Y-113349074D01*
X103602221Y-113391494D01*
X103559455Y-113433374D01*
X103553581Y-113440474D01*
X103491894Y-113516111D01*
X103458810Y-113565906D01*
X103424996Y-113615289D01*
X103420614Y-113623396D01*
X103374792Y-113709574D01*
X103352019Y-113764825D01*
X103328429Y-113819864D01*
X103325705Y-113828667D01*
X103297495Y-113922105D01*
X103285881Y-113980761D01*
X103273439Y-114039296D01*
X103272476Y-114048461D01*
X103262952Y-114145597D01*
X103262952Y-114145604D01*
X103259802Y-114177594D01*
X86530000Y-114177594D01*
X86530000Y-106824779D01*
X86539580Y-106727076D01*
X86558580Y-106664144D01*
X86589445Y-106606095D01*
X86630989Y-106555157D01*
X86681644Y-106513252D01*
X86739471Y-106481985D01*
X86802272Y-106462544D01*
X86897835Y-106452500D01*
X102837721Y-106452500D01*
X102935424Y-106462080D01*
X102998356Y-106481080D01*
X103056405Y-106511945D01*
X103107343Y-106553489D01*
X103149248Y-106604144D01*
X103180515Y-106661971D01*
X103199956Y-106724772D01*
X103209997Y-106820307D01*
X103209798Y-108322331D01*
X103213000Y-108354888D01*
X103213000Y-108361383D01*
X103213964Y-108370547D01*
X103218646Y-108412287D01*
X103219335Y-108419296D01*
X103219489Y-108419802D01*
X103224843Y-108467541D01*
X103237278Y-108526047D01*
X103248899Y-108584736D01*
X103251624Y-108593539D01*
X103281136Y-108686574D01*
X103304694Y-108741538D01*
X103327499Y-108796867D01*
X103331883Y-108804973D01*
X103378903Y-108890502D01*
X103412710Y-108939874D01*
X103445797Y-108989675D01*
X103451671Y-108996776D01*
X103514408Y-109071544D01*
X103557138Y-109113389D01*
X103599299Y-109155845D01*
X103606441Y-109161669D01*
X103682506Y-109222827D01*
X103723310Y-109249529D01*
X103522337Y-109450502D01*
X103332463Y-109734669D01*
X103201675Y-110050419D01*
X103135000Y-110385617D01*
X103135000Y-110727383D01*
X103201675Y-111062581D01*
X103332463Y-111378331D01*
X103522337Y-111662498D01*
X103764002Y-111904163D01*
X104048169Y-112094037D01*
X104363919Y-112224825D01*
X104699117Y-112291500D01*
X105040883Y-112291500D01*
X105376081Y-112224825D01*
X105691831Y-112094037D01*
X105975998Y-111904163D01*
X106217663Y-111662498D01*
X106407537Y-111378331D01*
X106538325Y-111062581D01*
X106605000Y-110727383D01*
X106605000Y-110385617D01*
X106538325Y-110050419D01*
X106407537Y-109734669D01*
X106217663Y-109450502D01*
X105975998Y-109208837D01*
X105855492Y-109128317D01*
X122210000Y-109128317D01*
X122210000Y-109470083D01*
X122276675Y-109805281D01*
X122407463Y-110121031D01*
X122597337Y-110405198D01*
X122839002Y-110646863D01*
X123123169Y-110836737D01*
X123438919Y-110967525D01*
X123774117Y-111034200D01*
X124115883Y-111034200D01*
X124451081Y-110967525D01*
X124766831Y-110836737D01*
X125050998Y-110646863D01*
X125292663Y-110405198D01*
X125482537Y-110121031D01*
X125613325Y-109805281D01*
X125680000Y-109470083D01*
X125680000Y-109128317D01*
X125613325Y-108793119D01*
X125482537Y-108477369D01*
X125292663Y-108193202D01*
X125050998Y-107951537D01*
X124766831Y-107761663D01*
X124451081Y-107630875D01*
X124115883Y-107564200D01*
X123774117Y-107564200D01*
X123438919Y-107630875D01*
X123123169Y-107761663D01*
X122839002Y-107951537D01*
X122597337Y-108193202D01*
X122407463Y-108477369D01*
X122276675Y-108793119D01*
X122210000Y-109128317D01*
X105855492Y-109128317D01*
X105691831Y-109018963D01*
X105376081Y-108888175D01*
X105364069Y-108885786D01*
X105364806Y-108884710D01*
X105369188Y-108876604D01*
X105415011Y-108790426D01*
X105437803Y-108735129D01*
X105461373Y-108680135D01*
X105464097Y-108671332D01*
X105492308Y-108577895D01*
X105503929Y-108519202D01*
X105516363Y-108460704D01*
X105517326Y-108451539D01*
X105526850Y-108354403D01*
X105526850Y-108354402D01*
X105530000Y-108322419D01*
X105530000Y-101978617D01*
X198410000Y-101978617D01*
X198410000Y-102320383D01*
X198476675Y-102655581D01*
X198607463Y-102971331D01*
X198797337Y-103255498D01*
X199039002Y-103497163D01*
X199323169Y-103687037D01*
X199638919Y-103817825D01*
X199974117Y-103884500D01*
X200315883Y-103884500D01*
X200651081Y-103817825D01*
X200966831Y-103687037D01*
X201250998Y-103497163D01*
X201492663Y-103255498D01*
X201682537Y-102971331D01*
X201813325Y-102655581D01*
X201880000Y-102320383D01*
X201880000Y-101978617D01*
X201813325Y-101643419D01*
X201682537Y-101327669D01*
X201492663Y-101043502D01*
X201250998Y-100801837D01*
X200966831Y-100611963D01*
X200651081Y-100481175D01*
X200315883Y-100414500D01*
X199974117Y-100414500D01*
X199638919Y-100481175D01*
X199323169Y-100611963D01*
X199039002Y-100801837D01*
X198797337Y-101043502D01*
X198607463Y-101327669D01*
X198476675Y-101643419D01*
X198410000Y-101978617D01*
X105530000Y-101978617D01*
X105530000Y-98440317D01*
X160255000Y-98440317D01*
X160255000Y-98782083D01*
X160321675Y-99117281D01*
X160452463Y-99433031D01*
X160642337Y-99717198D01*
X160884002Y-99958863D01*
X161168169Y-100148737D01*
X161483919Y-100279525D01*
X161819117Y-100346200D01*
X162160883Y-100346200D01*
X162496081Y-100279525D01*
X162811831Y-100148737D01*
X163095998Y-99958863D01*
X163337663Y-99717198D01*
X163527537Y-99433031D01*
X163658325Y-99117281D01*
X163725000Y-98782083D01*
X163725000Y-98440317D01*
X163658325Y-98105119D01*
X163527537Y-97789369D01*
X163337663Y-97505202D01*
X163095998Y-97263537D01*
X162811831Y-97073663D01*
X162496081Y-96942875D01*
X162160883Y-96876200D01*
X161819117Y-96876200D01*
X161483919Y-96942875D01*
X161168169Y-97073663D01*
X160884002Y-97263537D01*
X160642337Y-97505202D01*
X160452463Y-97789369D01*
X160321675Y-98105119D01*
X160255000Y-98440317D01*
X105530000Y-98440317D01*
X105530000Y-93012279D01*
X105539580Y-92914576D01*
X105558580Y-92851644D01*
X105589445Y-92793595D01*
X105630989Y-92742657D01*
X105681644Y-92700752D01*
X105739471Y-92669485D01*
X105802272Y-92650044D01*
X105897836Y-92640000D01*
X112522211Y-92640099D01*
X112550124Y-92637350D01*
X112553109Y-92637371D01*
X112562280Y-92636472D01*
X112610453Y-92631409D01*
X112619175Y-92630550D01*
X112619466Y-92630462D01*
X112659348Y-92626270D01*
X112717957Y-92614239D01*
X112776709Y-92603032D01*
X112785530Y-92600368D01*
X112878767Y-92571506D01*
X112933910Y-92548326D01*
X112989373Y-92525918D01*
X112997509Y-92521592D01*
X113083366Y-92475169D01*
X113132956Y-92441721D01*
X113183012Y-92408965D01*
X113190148Y-92403144D01*
X113190154Y-92403140D01*
X113190159Y-92403135D01*
X113265357Y-92340927D01*
X113307534Y-92298454D01*
X113350248Y-92256626D01*
X113356120Y-92249528D01*
X113356121Y-92249527D01*
X113356124Y-92249523D01*
X113417809Y-92173889D01*
X113450889Y-92124099D01*
X113484707Y-92074710D01*
X113489089Y-92066604D01*
X113534912Y-91980426D01*
X113557704Y-91925129D01*
X113581274Y-91870135D01*
X113583998Y-91861332D01*
X113612209Y-91767895D01*
X113623830Y-91709202D01*
X113636264Y-91650704D01*
X113637227Y-91641539D01*
X113646751Y-91544403D01*
X113646751Y-91515595D01*
X113649865Y-91486946D01*
X113649881Y-91482269D01*
X115190004Y-91482269D01*
X115190016Y-91485760D01*
X115192930Y-91514459D01*
X115192728Y-91543307D01*
X115193627Y-91552478D01*
X115203829Y-91649546D01*
X115215860Y-91708155D01*
X115227067Y-91766907D01*
X115229731Y-91775728D01*
X115258593Y-91868965D01*
X115281773Y-91924108D01*
X115304181Y-91979571D01*
X115308507Y-91987707D01*
X115354930Y-92073564D01*
X115388378Y-92123154D01*
X115421134Y-92173210D01*
X115426955Y-92180346D01*
X115426959Y-92180352D01*
X115426964Y-92180357D01*
X115489172Y-92255555D01*
X115531645Y-92297732D01*
X115573473Y-92340446D01*
X115580568Y-92346315D01*
X115580572Y-92346319D01*
X115580574Y-92346320D01*
X115656210Y-92408007D01*
X115706000Y-92441087D01*
X115755389Y-92474905D01*
X115763495Y-92479287D01*
X115849673Y-92525110D01*
X115904970Y-92547902D01*
X115959964Y-92571472D01*
X115968767Y-92574196D01*
X116062204Y-92602407D01*
X116120897Y-92614028D01*
X116179395Y-92626462D01*
X116188560Y-92627425D01*
X116285696Y-92636949D01*
X116285697Y-92636949D01*
X116317680Y-92640099D01*
X123472419Y-92640099D01*
X123501612Y-92637224D01*
X123506801Y-92637260D01*
X123515972Y-92636360D01*
X123710069Y-92615959D01*
X123768658Y-92603932D01*
X123827423Y-92592723D01*
X123836245Y-92590059D01*
X124022683Y-92532347D01*
X124077838Y-92509162D01*
X124133291Y-92486758D01*
X124141427Y-92482432D01*
X124313104Y-92389607D01*
X124362699Y-92356154D01*
X124412753Y-92323400D01*
X124419894Y-92317576D01*
X124570272Y-92193172D01*
X124612411Y-92150737D01*
X124655161Y-92108874D01*
X124661034Y-92101773D01*
X124784384Y-91950531D01*
X124817477Y-91900723D01*
X124851284Y-91851349D01*
X124855667Y-91843243D01*
X124947292Y-91670920D01*
X124970090Y-91615608D01*
X124993652Y-91560634D01*
X124996377Y-91551831D01*
X125052786Y-91364994D01*
X125064405Y-91306314D01*
X125076842Y-91247804D01*
X125077805Y-91238639D01*
X125096850Y-91044406D01*
X125096850Y-91044402D01*
X125100000Y-91012419D01*
X125100000Y-90532279D01*
X125109580Y-90434576D01*
X125128580Y-90371644D01*
X125159445Y-90313595D01*
X125200989Y-90262657D01*
X125251644Y-90220752D01*
X125309471Y-90189485D01*
X125372272Y-90170044D01*
X125467835Y-90160000D01*
X142532419Y-90160000D01*
X142560674Y-90157217D01*
X142566801Y-90157260D01*
X142575972Y-90156360D01*
X142770069Y-90135959D01*
X142828658Y-90123932D01*
X142887423Y-90112723D01*
X142896245Y-90110059D01*
X143082683Y-90052347D01*
X143137838Y-90029162D01*
X143193291Y-90006758D01*
X143201427Y-90002432D01*
X143373104Y-89909607D01*
X143422699Y-89876154D01*
X143472753Y-89843400D01*
X143479894Y-89837576D01*
X143630272Y-89713172D01*
X143672411Y-89670737D01*
X143715161Y-89628874D01*
X143721034Y-89621773D01*
X143844384Y-89470531D01*
X143877477Y-89420723D01*
X143911284Y-89371349D01*
X143915667Y-89363243D01*
X144007292Y-89190920D01*
X144030090Y-89135608D01*
X144053652Y-89080634D01*
X144056377Y-89071831D01*
X144112786Y-88884994D01*
X144124405Y-88826314D01*
X144136842Y-88767804D01*
X144137805Y-88758639D01*
X144156850Y-88564406D01*
X144156850Y-88564402D01*
X144160000Y-88532419D01*
X144160000Y-83482279D01*
X144169580Y-83384576D01*
X144188580Y-83321644D01*
X144219445Y-83263595D01*
X144260989Y-83212657D01*
X144311644Y-83170752D01*
X144369471Y-83139485D01*
X144432272Y-83120044D01*
X144527836Y-83110000D01*
X150622309Y-83110099D01*
X150650225Y-83107350D01*
X150653208Y-83107371D01*
X150662379Y-83106472D01*
X150710430Y-83101422D01*
X150719273Y-83100551D01*
X150719569Y-83100461D01*
X150759447Y-83096270D01*
X150818056Y-83084239D01*
X150876808Y-83073032D01*
X150885629Y-83070368D01*
X150978866Y-83041506D01*
X151034009Y-83018326D01*
X151089472Y-82995918D01*
X151097608Y-82991592D01*
X151183465Y-82945169D01*
X151233055Y-82911721D01*
X151283111Y-82878965D01*
X151290247Y-82873144D01*
X151290253Y-82873140D01*
X151290258Y-82873135D01*
X151365456Y-82810927D01*
X151407633Y-82768454D01*
X151450347Y-82726626D01*
X151456219Y-82719528D01*
X151456220Y-82719527D01*
X151456223Y-82719523D01*
X151517908Y-82643889D01*
X151550988Y-82594099D01*
X151584806Y-82544710D01*
X151589188Y-82536604D01*
X151635011Y-82450426D01*
X151657803Y-82395129D01*
X151681373Y-82340135D01*
X151684097Y-82331332D01*
X151712308Y-82237895D01*
X151723929Y-82179202D01*
X151736363Y-82120704D01*
X151737326Y-82111539D01*
X151746850Y-82014403D01*
X151746850Y-81985595D01*
X151749964Y-81956946D01*
X151749980Y-81952269D01*
X153290103Y-81952269D01*
X153290115Y-81955760D01*
X153293029Y-81984459D01*
X153292827Y-82013307D01*
X153293726Y-82022478D01*
X153303928Y-82119546D01*
X153315959Y-82178155D01*
X153327166Y-82236907D01*
X153329830Y-82245728D01*
X153358692Y-82338965D01*
X153381872Y-82394108D01*
X153404280Y-82449571D01*
X153408606Y-82457707D01*
X153455029Y-82543564D01*
X153488477Y-82593154D01*
X153521233Y-82643210D01*
X153527054Y-82650346D01*
X153527058Y-82650352D01*
X153527063Y-82650357D01*
X153589271Y-82725555D01*
X153631744Y-82767732D01*
X153673572Y-82810446D01*
X153680667Y-82816315D01*
X153680671Y-82816319D01*
X153680673Y-82816320D01*
X153756309Y-82878007D01*
X153806099Y-82911087D01*
X153855488Y-82944905D01*
X153863594Y-82949287D01*
X153949772Y-82995110D01*
X154005069Y-83017902D01*
X154060063Y-83041472D01*
X154068866Y-83044196D01*
X154162303Y-83072407D01*
X154220996Y-83084028D01*
X154279494Y-83096462D01*
X154288659Y-83097425D01*
X154385795Y-83106949D01*
X154385803Y-83106949D01*
X154417789Y-83110099D01*
X161582428Y-83109999D01*
X161610670Y-83107217D01*
X161616801Y-83107260D01*
X161625972Y-83106360D01*
X161820069Y-83085959D01*
X161878658Y-83073932D01*
X161937423Y-83062723D01*
X161946245Y-83060059D01*
X162132683Y-83002347D01*
X162187838Y-82979162D01*
X162243291Y-82956758D01*
X162251427Y-82952432D01*
X162423104Y-82859607D01*
X162472699Y-82826154D01*
X162522753Y-82793400D01*
X162529894Y-82787576D01*
X162680272Y-82663172D01*
X162722411Y-82620737D01*
X162765161Y-82578874D01*
X162771034Y-82571773D01*
X162894384Y-82420531D01*
X162927477Y-82370723D01*
X162961284Y-82321349D01*
X162965667Y-82313243D01*
X163057292Y-82140920D01*
X163080090Y-82085608D01*
X163103652Y-82030634D01*
X163106377Y-82021831D01*
X163162786Y-81834994D01*
X163174405Y-81776314D01*
X163186842Y-81717804D01*
X163187805Y-81708639D01*
X163206850Y-81514406D01*
X163206850Y-81514402D01*
X163210000Y-81482419D01*
X163210000Y-80869861D01*
X163392663Y-80687198D01*
X163582537Y-80403031D01*
X163713325Y-80087281D01*
X163780000Y-79752083D01*
X163780000Y-79410317D01*
X163713325Y-79075119D01*
X163582537Y-78759369D01*
X163392663Y-78475202D01*
X163348821Y-78431360D01*
X163361644Y-78420752D01*
X163419471Y-78389485D01*
X163482272Y-78370044D01*
X163577836Y-78360000D01*
X169672309Y-78360099D01*
X169700225Y-78357350D01*
X169703208Y-78357371D01*
X169712379Y-78356472D01*
X169760430Y-78351422D01*
X169769273Y-78350551D01*
X169769569Y-78350461D01*
X169809447Y-78346270D01*
X169868056Y-78334239D01*
X169926808Y-78323032D01*
X169935629Y-78320368D01*
X170028866Y-78291506D01*
X170084009Y-78268326D01*
X170139472Y-78245918D01*
X170147608Y-78241592D01*
X170233465Y-78195169D01*
X170283055Y-78161721D01*
X170333111Y-78128965D01*
X170340247Y-78123144D01*
X170340253Y-78123140D01*
X170340258Y-78123135D01*
X170415456Y-78060927D01*
X170457633Y-78018454D01*
X170500347Y-77976626D01*
X170506219Y-77969528D01*
X170506220Y-77969527D01*
X170506223Y-77969523D01*
X170567908Y-77893889D01*
X170600988Y-77844099D01*
X170634806Y-77794710D01*
X170639188Y-77786604D01*
X170685011Y-77700426D01*
X170707803Y-77645129D01*
X170731373Y-77590135D01*
X170734097Y-77581332D01*
X170762308Y-77487895D01*
X170773929Y-77429202D01*
X170786363Y-77370704D01*
X170787326Y-77361539D01*
X170796850Y-77264403D01*
X170796850Y-77235595D01*
X170799964Y-77206946D01*
X170799980Y-77202269D01*
X172340103Y-77202269D01*
X172340115Y-77205760D01*
X172343029Y-77234459D01*
X172342827Y-77263307D01*
X172343726Y-77272478D01*
X172353928Y-77369546D01*
X172365959Y-77428155D01*
X172377166Y-77486907D01*
X172379830Y-77495728D01*
X172408692Y-77588965D01*
X172431872Y-77644108D01*
X172454280Y-77699571D01*
X172458606Y-77707707D01*
X172505029Y-77793564D01*
X172538477Y-77843154D01*
X172571233Y-77893210D01*
X172577054Y-77900346D01*
X172577058Y-77900352D01*
X172577063Y-77900357D01*
X172639271Y-77975555D01*
X172681744Y-78017732D01*
X172723572Y-78060446D01*
X172730667Y-78066315D01*
X172730671Y-78066319D01*
X172730673Y-78066320D01*
X172806309Y-78128007D01*
X172856099Y-78161087D01*
X172905488Y-78194905D01*
X172913594Y-78199287D01*
X172999772Y-78245110D01*
X173055069Y-78267902D01*
X173110063Y-78291472D01*
X173118866Y-78294196D01*
X173212303Y-78322407D01*
X173270996Y-78334028D01*
X173329494Y-78346462D01*
X173338659Y-78347425D01*
X173435795Y-78356949D01*
X173435800Y-78356949D01*
X173467790Y-78360099D01*
X179557721Y-78360000D01*
X179655424Y-78369580D01*
X179718356Y-78388580D01*
X179776405Y-78419445D01*
X179827343Y-78460989D01*
X179869248Y-78511644D01*
X179900515Y-78569471D01*
X179919956Y-78632272D01*
X179930000Y-78727836D01*
X179930001Y-81492419D01*
X179932783Y-81520664D01*
X179932740Y-81526801D01*
X179933640Y-81535972D01*
X179954041Y-81730069D01*
X179966068Y-81788658D01*
X179977277Y-81847423D01*
X179979941Y-81856245D01*
X180037653Y-82042683D01*
X180060838Y-82097838D01*
X180083242Y-82153291D01*
X180087568Y-82161427D01*
X180180393Y-82333104D01*
X180213846Y-82382699D01*
X180246600Y-82432753D01*
X180252424Y-82439894D01*
X180376828Y-82590272D01*
X180419263Y-82632411D01*
X180461126Y-82675161D01*
X180468227Y-82681034D01*
X180619469Y-82804384D01*
X180669277Y-82837477D01*
X180718651Y-82871284D01*
X180726757Y-82875667D01*
X180899080Y-82967292D01*
X180954392Y-82990090D01*
X181009366Y-83013652D01*
X181018169Y-83016377D01*
X181205006Y-83072786D01*
X181263686Y-83084405D01*
X181322196Y-83096842D01*
X181331361Y-83097805D01*
X181525594Y-83116850D01*
X181525598Y-83116850D01*
X181557581Y-83120000D01*
X198410000Y-83120000D01*
X198410000Y-83276383D01*
X198476675Y-83611581D01*
X198607463Y-83927331D01*
X198797337Y-84211498D01*
X199039002Y-84453163D01*
X199210446Y-84567718D01*
X199240393Y-84623104D01*
X199273846Y-84672699D01*
X199306600Y-84722753D01*
X199312424Y-84729894D01*
X199436828Y-84880272D01*
X199479263Y-84922411D01*
X199521126Y-84965161D01*
X199528227Y-84971034D01*
X199679469Y-85094384D01*
X199729277Y-85127477D01*
X199778651Y-85161284D01*
X199786757Y-85165667D01*
X199959080Y-85257292D01*
X200014392Y-85280090D01*
X200069366Y-85303652D01*
X200078169Y-85306377D01*
X200265006Y-85362786D01*
X200323686Y-85374405D01*
X200382196Y-85386842D01*
X200391361Y-85387805D01*
X200585594Y-85406850D01*
X200585603Y-85406850D01*
X200617572Y-85409999D01*
X207772310Y-85410099D01*
X207800223Y-85407350D01*
X207803208Y-85407371D01*
X207812379Y-85406472D01*
X207860552Y-85401409D01*
X207869274Y-85400550D01*
X207869565Y-85400462D01*
X207909447Y-85396270D01*
X207968056Y-85384239D01*
X208026808Y-85373032D01*
X208035629Y-85370368D01*
X208128866Y-85341506D01*
X208184009Y-85318326D01*
X208239472Y-85295918D01*
X208247608Y-85291592D01*
X208333465Y-85245169D01*
X208383055Y-85211721D01*
X208433111Y-85178965D01*
X208440247Y-85173144D01*
X208440253Y-85173140D01*
X208440258Y-85173135D01*
X208515456Y-85110927D01*
X208557633Y-85068454D01*
X208600347Y-85026626D01*
X208606219Y-85019528D01*
X208606220Y-85019527D01*
X208606223Y-85019523D01*
X208667908Y-84943889D01*
X208700988Y-84894099D01*
X208734806Y-84844710D01*
X208739188Y-84836604D01*
X208785011Y-84750426D01*
X208807803Y-84695129D01*
X208831373Y-84640135D01*
X208834097Y-84631332D01*
X208862308Y-84537895D01*
X208873929Y-84479202D01*
X208886363Y-84420704D01*
X208887326Y-84411539D01*
X208896850Y-84314403D01*
X208896850Y-84285595D01*
X208899964Y-84256946D01*
X208899996Y-84247731D01*
X208899984Y-84244240D01*
X208897070Y-84215541D01*
X208897272Y-84186693D01*
X208896373Y-84177522D01*
X208886171Y-84080454D01*
X208874135Y-84021820D01*
X208862933Y-83963093D01*
X208860269Y-83954272D01*
X208831407Y-83861035D01*
X208808221Y-83805879D01*
X208785819Y-83750430D01*
X208781493Y-83742293D01*
X208735071Y-83656437D01*
X208701611Y-83606830D01*
X208668866Y-83556790D01*
X208663041Y-83549649D01*
X208600827Y-83474445D01*
X208558407Y-83432320D01*
X208516527Y-83389554D01*
X208509427Y-83383680D01*
X208433790Y-83321993D01*
X208383995Y-83288909D01*
X208334612Y-83255095D01*
X208326505Y-83250713D01*
X208326502Y-83250711D01*
X208326499Y-83250710D01*
X208240327Y-83204891D01*
X208185076Y-83182118D01*
X208130037Y-83158528D01*
X208121234Y-83155804D01*
X208027796Y-83127594D01*
X207969140Y-83115980D01*
X207910605Y-83103538D01*
X207901440Y-83102575D01*
X207804304Y-83093051D01*
X207804299Y-83093051D01*
X207772309Y-83089901D01*
X201880000Y-83089997D01*
X201880000Y-82934617D01*
X201813325Y-82599419D01*
X201682537Y-82283669D01*
X201492663Y-81999502D01*
X201250998Y-81757837D01*
X201096057Y-81654309D01*
X201059607Y-81586896D01*
X201026139Y-81537278D01*
X200993400Y-81487247D01*
X200987576Y-81480106D01*
X200863172Y-81329728D01*
X200820737Y-81287589D01*
X200778874Y-81244839D01*
X200771773Y-81238966D01*
X200620531Y-81115616D01*
X200570738Y-81082534D01*
X200521349Y-81048716D01*
X200513243Y-81044333D01*
X200340921Y-80952708D01*
X200285606Y-80929909D01*
X200230634Y-80906348D01*
X200221831Y-80903623D01*
X200034995Y-80847214D01*
X199976307Y-80835594D01*
X199917804Y-80823158D01*
X199908639Y-80822195D01*
X199714405Y-80803150D01*
X199714402Y-80803150D01*
X199682419Y-80800000D01*
X182622279Y-80800000D01*
X182524576Y-80790420D01*
X182461643Y-80771420D01*
X182403594Y-80740554D01*
X182352657Y-80699011D01*
X182310752Y-80648356D01*
X182279485Y-80590529D01*
X182260044Y-80527728D01*
X182250000Y-80432165D01*
X182250000Y-77667581D01*
X182247217Y-77639326D01*
X182247260Y-77633199D01*
X182246360Y-77624028D01*
X182225959Y-77429931D01*
X182213934Y-77371348D01*
X182202723Y-77312577D01*
X182200059Y-77303755D01*
X182142347Y-77117317D01*
X182119162Y-77062162D01*
X182096758Y-77006709D01*
X182092432Y-76998573D01*
X181999607Y-76826896D01*
X181966139Y-76777278D01*
X181933400Y-76727247D01*
X181927576Y-76720106D01*
X181803172Y-76569728D01*
X181760737Y-76527589D01*
X181718874Y-76484839D01*
X181711773Y-76478966D01*
X181560531Y-76355616D01*
X181510738Y-76322534D01*
X181461349Y-76288716D01*
X181453243Y-76284333D01*
X181280921Y-76192708D01*
X181225606Y-76169909D01*
X181170634Y-76146348D01*
X181161831Y-76143623D01*
X180974995Y-76087214D01*
X180916307Y-76075594D01*
X180857804Y-76063158D01*
X180848639Y-76062195D01*
X180654405Y-76043150D01*
X180654397Y-76043150D01*
X180622428Y-76040001D01*
X173467789Y-76039901D01*
X173439876Y-76042650D01*
X173436891Y-76042629D01*
X173427720Y-76043528D01*
X173379547Y-76048591D01*
X173370825Y-76049450D01*
X173370534Y-76049538D01*
X173330652Y-76053730D01*
X173272043Y-76065761D01*
X173213291Y-76076968D01*
X173204470Y-76079632D01*
X173111233Y-76108494D01*
X173056077Y-76131680D01*
X173000628Y-76154082D01*
X172992491Y-76158408D01*
X172906635Y-76204830D01*
X172857028Y-76238290D01*
X172806988Y-76271035D01*
X172799847Y-76276860D01*
X172724643Y-76339074D01*
X172682518Y-76381494D01*
X172639752Y-76423374D01*
X172633878Y-76430474D01*
X172572191Y-76506111D01*
X172539107Y-76555906D01*
X172505293Y-76605289D01*
X172500911Y-76613396D01*
X172455089Y-76699574D01*
X172432316Y-76754825D01*
X172408726Y-76809864D01*
X172406002Y-76818667D01*
X172377792Y-76912105D01*
X172366178Y-76970761D01*
X172353736Y-77029296D01*
X172352773Y-77038461D01*
X172343249Y-77135597D01*
X172343249Y-77164405D01*
X172340135Y-77193054D01*
X172340103Y-77202269D01*
X170799980Y-77202269D01*
X170799996Y-77197731D01*
X170799984Y-77194240D01*
X170797070Y-77165541D01*
X170797272Y-77136693D01*
X170796373Y-77127522D01*
X170786171Y-77030454D01*
X170774135Y-76971820D01*
X170762933Y-76913093D01*
X170760269Y-76904272D01*
X170731407Y-76811035D01*
X170708221Y-76755879D01*
X170685819Y-76700430D01*
X170681493Y-76692293D01*
X170635071Y-76606437D01*
X170601611Y-76556830D01*
X170568866Y-76506790D01*
X170563041Y-76499649D01*
X170500827Y-76424445D01*
X170458407Y-76382320D01*
X170416527Y-76339554D01*
X170409427Y-76333680D01*
X170333790Y-76271993D01*
X170283995Y-76238909D01*
X170234612Y-76205095D01*
X170226505Y-76200713D01*
X170226502Y-76200711D01*
X170226499Y-76200710D01*
X170140327Y-76154891D01*
X170085076Y-76132118D01*
X170030037Y-76108528D01*
X170021234Y-76105804D01*
X169927796Y-76077594D01*
X169869140Y-76065980D01*
X169810605Y-76053538D01*
X169801440Y-76052575D01*
X169704304Y-76043051D01*
X169704296Y-76043051D01*
X169672310Y-76039901D01*
X162517572Y-76040001D01*
X162489330Y-76042783D01*
X162483199Y-76042740D01*
X162474028Y-76043640D01*
X162279931Y-76064041D01*
X162221348Y-76076066D01*
X162162577Y-76087277D01*
X162153755Y-76089941D01*
X161967317Y-76147653D01*
X161912162Y-76170838D01*
X161856709Y-76193242D01*
X161848573Y-76197568D01*
X161676896Y-76290393D01*
X161627278Y-76323861D01*
X161577247Y-76356600D01*
X161570106Y-76362424D01*
X161419728Y-76486828D01*
X161377589Y-76529263D01*
X161334839Y-76571126D01*
X161328966Y-76578227D01*
X161205616Y-76729469D01*
X161172534Y-76779262D01*
X161138716Y-76828651D01*
X161134333Y-76836757D01*
X161042708Y-77009079D01*
X161019909Y-77064394D01*
X160996348Y-77119366D01*
X160993623Y-77128169D01*
X160937214Y-77315005D01*
X160925594Y-77373693D01*
X160913158Y-77432196D01*
X160912195Y-77441361D01*
X160893150Y-77635595D01*
X160890000Y-77667582D01*
X160890000Y-78282539D01*
X160697337Y-78475202D01*
X160507463Y-78759369D01*
X160376675Y-79075119D01*
X160310000Y-79410317D01*
X160310000Y-79752083D01*
X160376675Y-80087281D01*
X160507463Y-80403031D01*
X160697337Y-80687198D01*
X160738921Y-80728782D01*
X160738356Y-80729248D01*
X160680529Y-80760515D01*
X160617728Y-80779956D01*
X160522164Y-80790000D01*
X154417790Y-80789901D01*
X154389874Y-80792650D01*
X154386891Y-80792629D01*
X154377720Y-80793528D01*
X154329669Y-80798578D01*
X154320826Y-80799449D01*
X154320530Y-80799539D01*
X154280652Y-80803730D01*
X154222043Y-80815761D01*
X154163291Y-80826968D01*
X154154470Y-80829632D01*
X154061233Y-80858494D01*
X154006077Y-80881680D01*
X153950628Y-80904082D01*
X153942491Y-80908408D01*
X153856635Y-80954830D01*
X153807028Y-80988290D01*
X153756988Y-81021035D01*
X153749847Y-81026860D01*
X153674643Y-81089074D01*
X153632518Y-81131494D01*
X153589752Y-81173374D01*
X153583878Y-81180474D01*
X153522191Y-81256111D01*
X153489107Y-81305906D01*
X153455293Y-81355289D01*
X153450911Y-81363396D01*
X153405089Y-81449574D01*
X153382316Y-81504825D01*
X153358726Y-81559864D01*
X153356002Y-81568667D01*
X153327792Y-81662105D01*
X153316178Y-81720761D01*
X153303736Y-81779296D01*
X153302773Y-81788461D01*
X153293249Y-81885597D01*
X153293249Y-81914405D01*
X153290135Y-81943054D01*
X153290103Y-81952269D01*
X151749980Y-81952269D01*
X151749996Y-81947731D01*
X151749984Y-81944240D01*
X151747070Y-81915541D01*
X151747272Y-81886693D01*
X151746373Y-81877522D01*
X151736171Y-81780454D01*
X151724135Y-81721820D01*
X151712933Y-81663093D01*
X151710269Y-81654272D01*
X151681407Y-81561035D01*
X151658221Y-81505879D01*
X151635819Y-81450430D01*
X151631493Y-81442293D01*
X151585071Y-81356437D01*
X151551611Y-81306830D01*
X151518866Y-81256790D01*
X151513041Y-81249649D01*
X151450827Y-81174445D01*
X151408407Y-81132320D01*
X151366527Y-81089554D01*
X151359427Y-81083680D01*
X151283790Y-81021993D01*
X151233995Y-80988909D01*
X151184612Y-80955095D01*
X151176505Y-80950713D01*
X151176502Y-80950711D01*
X151176499Y-80950710D01*
X151090327Y-80904891D01*
X151035076Y-80882118D01*
X150980037Y-80858528D01*
X150971234Y-80855804D01*
X150877796Y-80827594D01*
X150819140Y-80815980D01*
X150760605Y-80803538D01*
X150751440Y-80802575D01*
X150654304Y-80793051D01*
X150654296Y-80793051D01*
X150622310Y-80789901D01*
X143467572Y-80790001D01*
X143439330Y-80792783D01*
X143433199Y-80792740D01*
X143424028Y-80793640D01*
X143229931Y-80814041D01*
X143171348Y-80826066D01*
X143112577Y-80837277D01*
X143103755Y-80839941D01*
X142917317Y-80897653D01*
X142862162Y-80920838D01*
X142806709Y-80943242D01*
X142798573Y-80947568D01*
X142626896Y-81040393D01*
X142577278Y-81073861D01*
X142527247Y-81106600D01*
X142520106Y-81112424D01*
X142369728Y-81236828D01*
X142327589Y-81279263D01*
X142284839Y-81321126D01*
X142278966Y-81328227D01*
X142155616Y-81479469D01*
X142122534Y-81529262D01*
X142088716Y-81578651D01*
X142084333Y-81586757D01*
X141992708Y-81759079D01*
X141969909Y-81814394D01*
X141946348Y-81869366D01*
X141943623Y-81878169D01*
X141887214Y-82065005D01*
X141875594Y-82123693D01*
X141863158Y-82182196D01*
X141862195Y-82191361D01*
X141843152Y-82385574D01*
X141840000Y-82417582D01*
X141840001Y-87467711D01*
X141830420Y-87565424D01*
X141811420Y-87628357D01*
X141780554Y-87686406D01*
X141739011Y-87737343D01*
X141688356Y-87779248D01*
X141630529Y-87810515D01*
X141567728Y-87829956D01*
X141472165Y-87840000D01*
X124407581Y-87840000D01*
X124379326Y-87842783D01*
X124373199Y-87842740D01*
X124364028Y-87843640D01*
X124169931Y-87864041D01*
X124111348Y-87876066D01*
X124052577Y-87887277D01*
X124043755Y-87889941D01*
X123857317Y-87947653D01*
X123802162Y-87970838D01*
X123746709Y-87993242D01*
X123738573Y-87997568D01*
X123566896Y-88090393D01*
X123517278Y-88123861D01*
X123467247Y-88156600D01*
X123460106Y-88162424D01*
X123309728Y-88286828D01*
X123267589Y-88329263D01*
X123224839Y-88371126D01*
X123218966Y-88378227D01*
X123095616Y-88529469D01*
X123062534Y-88579262D01*
X123028716Y-88628651D01*
X123024333Y-88636757D01*
X122932708Y-88809079D01*
X122909909Y-88864394D01*
X122886348Y-88919366D01*
X122883623Y-88928169D01*
X122827214Y-89115005D01*
X122815594Y-89173693D01*
X122803158Y-89232196D01*
X122802195Y-89241361D01*
X122783152Y-89435574D01*
X122780000Y-89467582D01*
X122780000Y-89947721D01*
X122770420Y-90045424D01*
X122751420Y-90108357D01*
X122720554Y-90166406D01*
X122679011Y-90217343D01*
X122628356Y-90259248D01*
X122570529Y-90290515D01*
X122507728Y-90309956D01*
X122413107Y-90319901D01*
X116317779Y-90319901D01*
X116289869Y-90322650D01*
X116286891Y-90322629D01*
X116277720Y-90323528D01*
X116229558Y-90328590D01*
X116220815Y-90329451D01*
X116220523Y-90329539D01*
X116180652Y-90333730D01*
X116122043Y-90345761D01*
X116063291Y-90356968D01*
X116054470Y-90359632D01*
X115961233Y-90388494D01*
X115906077Y-90411680D01*
X115850628Y-90434082D01*
X115842491Y-90438408D01*
X115756635Y-90484830D01*
X115707028Y-90518290D01*
X115656988Y-90551035D01*
X115649847Y-90556860D01*
X115574643Y-90619074D01*
X115532518Y-90661494D01*
X115489752Y-90703374D01*
X115483878Y-90710474D01*
X115422191Y-90786111D01*
X115389107Y-90835906D01*
X115355293Y-90885289D01*
X115350911Y-90893396D01*
X115305089Y-90979574D01*
X115282316Y-91034825D01*
X115258726Y-91089864D01*
X115256002Y-91098667D01*
X115227792Y-91192105D01*
X115216178Y-91250761D01*
X115203736Y-91309296D01*
X115202773Y-91318461D01*
X115193249Y-91415597D01*
X115193249Y-91443494D01*
X115190036Y-91473054D01*
X115190004Y-91482269D01*
X113649881Y-91482269D01*
X113649897Y-91477731D01*
X113649885Y-91474240D01*
X113646971Y-91445541D01*
X113647173Y-91416693D01*
X113646274Y-91407522D01*
X113636072Y-91310454D01*
X113624036Y-91251820D01*
X113612834Y-91193093D01*
X113610170Y-91184272D01*
X113581308Y-91091035D01*
X113558122Y-91035879D01*
X113535720Y-90980430D01*
X113531394Y-90972293D01*
X113484972Y-90886437D01*
X113451512Y-90836830D01*
X113418767Y-90786790D01*
X113412942Y-90779649D01*
X113350728Y-90704445D01*
X113308308Y-90662320D01*
X113266428Y-90619554D01*
X113259328Y-90613680D01*
X113183691Y-90551993D01*
X113133896Y-90518909D01*
X113084513Y-90485095D01*
X113076406Y-90480713D01*
X113076403Y-90480711D01*
X113076400Y-90480710D01*
X112990228Y-90434891D01*
X112934977Y-90412118D01*
X112879938Y-90388528D01*
X112871135Y-90385804D01*
X112777697Y-90357594D01*
X112719041Y-90345980D01*
X112660506Y-90333538D01*
X112651341Y-90332575D01*
X112554205Y-90323051D01*
X112554197Y-90323051D01*
X112522211Y-90319901D01*
X105902279Y-90320000D01*
X105804576Y-90310420D01*
X105741643Y-90291420D01*
X105683594Y-90260554D01*
X105632657Y-90219011D01*
X105590752Y-90168356D01*
X105559485Y-90110529D01*
X105540044Y-90047728D01*
X105530000Y-89952165D01*
X105530000Y-73487279D01*
X105539580Y-73389576D01*
X105558580Y-73326644D01*
X105589445Y-73268595D01*
X105630989Y-73217657D01*
X105681644Y-73175752D01*
X105739471Y-73144485D01*
X105802272Y-73125044D01*
X105897835Y-73115000D01*
X123002420Y-73115000D01*
X123030675Y-73112217D01*
X123036802Y-73112260D01*
X123045973Y-73111360D01*
X123240070Y-73090959D01*
X123298659Y-73078932D01*
X123357424Y-73067723D01*
X123366246Y-73065059D01*
X123552684Y-73007347D01*
X123607839Y-72984162D01*
X123663292Y-72961758D01*
X123671428Y-72957432D01*
X123843105Y-72864607D01*
X123892700Y-72831154D01*
X123942754Y-72798400D01*
X123949895Y-72792576D01*
X124100273Y-72668172D01*
X124142412Y-72625737D01*
X124185162Y-72583874D01*
X124191035Y-72576773D01*
X124314385Y-72425531D01*
X124347478Y-72375723D01*
X124381285Y-72326349D01*
X124385668Y-72318243D01*
X124477293Y-72145920D01*
X124500091Y-72090608D01*
X124523653Y-72035634D01*
X124526378Y-72026831D01*
X124582787Y-71839994D01*
X124594406Y-71781314D01*
X124606843Y-71722804D01*
X124607806Y-71713639D01*
X124626851Y-71519406D01*
X124626851Y-71519401D01*
X124630001Y-71487418D01*
X124630001Y-71010779D01*
X124639581Y-70913076D01*
X124658581Y-70850144D01*
X124689446Y-70792095D01*
X124730990Y-70741157D01*
X124781645Y-70699252D01*
X124839472Y-70667985D01*
X124902273Y-70648544D01*
X124997836Y-70638500D01*
X142052420Y-70638500D01*
X142080675Y-70635717D01*
X142086802Y-70635760D01*
X142095973Y-70634860D01*
X142290070Y-70614459D01*
X142348659Y-70602432D01*
X142407424Y-70591223D01*
X142416246Y-70588559D01*
X142602684Y-70530847D01*
X142657839Y-70507662D01*
X142713292Y-70485258D01*
X142721428Y-70480932D01*
X142893105Y-70388107D01*
X142942700Y-70354654D01*
X142992754Y-70321900D01*
X142999895Y-70316076D01*
X143150273Y-70191672D01*
X143192412Y-70149237D01*
X143235162Y-70107374D01*
X143241035Y-70100273D01*
X143364385Y-69949031D01*
X143397478Y-69899223D01*
X143431285Y-69849849D01*
X143435668Y-69841743D01*
X143527293Y-69669420D01*
X143550091Y-69614108D01*
X143573653Y-69559134D01*
X143576378Y-69550331D01*
X143632787Y-69363494D01*
X143644406Y-69304814D01*
X143656843Y-69246304D01*
X143657806Y-69237139D01*
X143676851Y-69042906D01*
X143676851Y-69042902D01*
X143680001Y-69010919D01*
X143680001Y-63962279D01*
X143689581Y-63864576D01*
X143708581Y-63801644D01*
X143739446Y-63743595D01*
X143780990Y-63692657D01*
X143831645Y-63650752D01*
X143889472Y-63619485D01*
X143952273Y-63600044D01*
X144047836Y-63590000D01*
X161102420Y-63590000D01*
X161130675Y-63587217D01*
X161136802Y-63587260D01*
X161145973Y-63586360D01*
X161340070Y-63565959D01*
X161398659Y-63553932D01*
X161457424Y-63542723D01*
X161466246Y-63540059D01*
X161652684Y-63482347D01*
X161707839Y-63459162D01*
X161763292Y-63436758D01*
X161771428Y-63432432D01*
X161943105Y-63339607D01*
X161992700Y-63306154D01*
X162042754Y-63273400D01*
X162049895Y-63267576D01*
X162200273Y-63143172D01*
X162242412Y-63100737D01*
X162285162Y-63058874D01*
X162291035Y-63051773D01*
X162414385Y-62900531D01*
X162447478Y-62850723D01*
X162481285Y-62801349D01*
X162485668Y-62793243D01*
X162577293Y-62620920D01*
X162600091Y-62565608D01*
X162623653Y-62510634D01*
X162626378Y-62501831D01*
X162682787Y-62314994D01*
X162694406Y-62256314D01*
X162706843Y-62197804D01*
X162707806Y-62188639D01*
X162726851Y-61994406D01*
X162726851Y-61994402D01*
X162730001Y-61962419D01*
X162730001Y-59199779D01*
X162739581Y-59102076D01*
X162758581Y-59039144D01*
X162789446Y-58981095D01*
X162830990Y-58930157D01*
X162881645Y-58888252D01*
X162939472Y-58856985D01*
X163002273Y-58837544D01*
X163097836Y-58827500D01*
X180037722Y-58827500D01*
X180135425Y-58837080D01*
G37*
X180135425Y-58837080D02*
X180198357Y-58856080D01*
X180256406Y-58886945D01*
X180307344Y-58928489D01*
X180349249Y-58979144D01*
X180380516Y-59036971D01*
X180399957Y-59099772D01*
X180410001Y-59195336D01*
X180410002Y-61962419D01*
X180412784Y-61990664D01*
X180412741Y-61996801D01*
X180413641Y-62005972D01*
X180434042Y-62200069D01*
X180446069Y-62258658D01*
X180457278Y-62317423D01*
X180459942Y-62326245D01*
X180517654Y-62512683D01*
X180540839Y-62567838D01*
X180563243Y-62623291D01*
X180567569Y-62631427D01*
X180660394Y-62803104D01*
X180693847Y-62852699D01*
X180726601Y-62902753D01*
X180732425Y-62909894D01*
X180856829Y-63060272D01*
X180899264Y-63102411D01*
X180941127Y-63145161D01*
X180948228Y-63151034D01*
X181099470Y-63274384D01*
X181149278Y-63307477D01*
X181198652Y-63341284D01*
X181206758Y-63345667D01*
X181379081Y-63437292D01*
X181434393Y-63460090D01*
X181489367Y-63483652D01*
X181498170Y-63486377D01*
X181685007Y-63542786D01*
X181743687Y-63554405D01*
X181802197Y-63566842D01*
X181811362Y-63567805D01*
X182005595Y-63586850D01*
X182005599Y-63586850D01*
X182037582Y-63590000D01*
X199087722Y-63590000D01*
X199185425Y-63599580D01*
X199248357Y-63618580D01*
X199306406Y-63649445D01*
X199357344Y-63690989D01*
X199399249Y-63741644D01*
X199430516Y-63799471D01*
X199449957Y-63862272D01*
X199460001Y-63957835D01*
X199460001Y-64248419D01*
X199462784Y-64276674D01*
X199462741Y-64282801D01*
X199463641Y-64291972D01*
X199484042Y-64486069D01*
X199496069Y-64544658D01*
X199507278Y-64603423D01*
X199509942Y-64612245D01*
X199567654Y-64798683D01*
X199590839Y-64853838D01*
X199613243Y-64909291D01*
X199617569Y-64917427D01*
X199710394Y-65089104D01*
X199743847Y-65138699D01*
X199776601Y-65188753D01*
X199782425Y-65195894D01*
X199906829Y-65346272D01*
X199949264Y-65388411D01*
X199991127Y-65431161D01*
X199998228Y-65437034D01*
X200149470Y-65560384D01*
X200199278Y-65593477D01*
X200248652Y-65627284D01*
X200256758Y-65631667D01*
X200429081Y-65723292D01*
X200484393Y-65746090D01*
X200539367Y-65769652D01*
X200548170Y-65772377D01*
X200735007Y-65828786D01*
X200793687Y-65840405D01*
X200852197Y-65852842D01*
X200861362Y-65853805D01*
X201055595Y-65872850D01*
X201055599Y-65872850D01*
X201087582Y-65876000D01*
X218137721Y-65876000D01*
X218235424Y-65885580D01*
X218298356Y-65904580D01*
X218356405Y-65935445D01*
X218407343Y-65976989D01*
X218449248Y-66027644D01*
X218480515Y-66085471D01*
X218499956Y-66148272D01*
X218510001Y-66243845D01*
X218510000Y-82717721D01*
X218500420Y-82815424D01*
X218481420Y-82878357D01*
X218450554Y-82936406D01*
X218409011Y-82987343D01*
X218358356Y-83029248D01*
X218300529Y-83060515D01*
X218237728Y-83079956D01*
X218143107Y-83089901D01*
X211557680Y-83089901D01*
X211529770Y-83092650D01*
X211526792Y-83092629D01*
X211517621Y-83093528D01*
X211469459Y-83098590D01*
X211460716Y-83099451D01*
X211460424Y-83099539D01*
X211420553Y-83103730D01*
X211361944Y-83115761D01*
X211303192Y-83126968D01*
X211294371Y-83129632D01*
X211201134Y-83158494D01*
X211145978Y-83181680D01*
X211090529Y-83204082D01*
X211082392Y-83208408D01*
X210996536Y-83254830D01*
X210946929Y-83288290D01*
X210896889Y-83321035D01*
X210889748Y-83326860D01*
X210814544Y-83389074D01*
X210772419Y-83431494D01*
X210729653Y-83473374D01*
X210723779Y-83480474D01*
X210662092Y-83556111D01*
X210629008Y-83605906D01*
X210595194Y-83655289D01*
X210590812Y-83663396D01*
X210544990Y-83749574D01*
X210522217Y-83804825D01*
X210498627Y-83859864D01*
X210495903Y-83868667D01*
X210467693Y-83962105D01*
X210456079Y-84020761D01*
X210443637Y-84079296D01*
X210442674Y-84088461D01*
X210433150Y-84185597D01*
X210433150Y-84214405D01*
X210430036Y-84243054D01*
X210430004Y-84252269D01*
X210430016Y-84255760D01*
X210432930Y-84284459D01*
X210432728Y-84313307D01*
X210433627Y-84322478D01*
X210443829Y-84419546D01*
X210455860Y-84478155D01*
X210467067Y-84536907D01*
X210469731Y-84545728D01*
X210498593Y-84638965D01*
X210521773Y-84694108D01*
X210544181Y-84749571D01*
X210548507Y-84757707D01*
X210594930Y-84843564D01*
X210628378Y-84893154D01*
X210661134Y-84943210D01*
X210666955Y-84950346D01*
X210666959Y-84950352D01*
X210666964Y-84950357D01*
X210729172Y-85025555D01*
X210771645Y-85067732D01*
X210813473Y-85110446D01*
X210820568Y-85116315D01*
X210820572Y-85116319D01*
X210820574Y-85116320D01*
X210896210Y-85178007D01*
X210946000Y-85211087D01*
X210995389Y-85244905D01*
X211003495Y-85249287D01*
X211089673Y-85295110D01*
X211144970Y-85317902D01*
X211199964Y-85341472D01*
X211208767Y-85344196D01*
X211302204Y-85372407D01*
X211360897Y-85384028D01*
X211419395Y-85396462D01*
X211428560Y-85397425D01*
X211525696Y-85406949D01*
X211525704Y-85406949D01*
X211557690Y-85410099D01*
X218137720Y-85410000D01*
X218235424Y-85419580D01*
X218298356Y-85438580D01*
X218356405Y-85469445D01*
X218407343Y-85510989D01*
X218449248Y-85561644D01*
X218480515Y-85619471D01*
X218499956Y-85682272D01*
X218510000Y-85777835D01*
X218510000Y-86258919D01*
X218512783Y-86287174D01*
X218512740Y-86293301D01*
X218513640Y-86302472D01*
X218534041Y-86496569D01*
X218546068Y-86555158D01*
X218557277Y-86613923D01*
X218559941Y-86622745D01*
X218617653Y-86809183D01*
X218640838Y-86864338D01*
X218663242Y-86919791D01*
X218667568Y-86927927D01*
X218760393Y-87099604D01*
X218793846Y-87149199D01*
X218826600Y-87199253D01*
X218832424Y-87206394D01*
X218956828Y-87356772D01*
X218999263Y-87398911D01*
X219041126Y-87441661D01*
X219048227Y-87447534D01*
X219199469Y-87570884D01*
X219249277Y-87603977D01*
X219298651Y-87637784D01*
X219306757Y-87642167D01*
X219479080Y-87733792D01*
X219534392Y-87756590D01*
X219589366Y-87780152D01*
X219598169Y-87782877D01*
X219785006Y-87839286D01*
X219843686Y-87850905D01*
X219902196Y-87863342D01*
X219911361Y-87864305D01*
X220105594Y-87883350D01*
X220105598Y-87883350D01*
X220137581Y-87886500D01*
X237187721Y-87886500D01*
X237285424Y-87896080D01*
X237348356Y-87915080D01*
X237406405Y-87945945D01*
X237457343Y-87987489D01*
X237499248Y-88038144D01*
X237530515Y-88095971D01*
X237549956Y-88158772D01*
X237560001Y-88254345D01*
X237560000Y-161860221D01*
X237550420Y-161957924D01*
X237531420Y-162020857D01*
X237500554Y-162078906D01*
X237459011Y-162129843D01*
X237408356Y-162171748D01*
X237350529Y-162203015D01*
X237287728Y-162222456D01*
X237192165Y-162232500D01*
X220252279Y-162232500D01*
X220154576Y-162222920D01*
X220091643Y-162203920D01*
X220033594Y-162173054D01*
X219982657Y-162131511D01*
X219940752Y-162080856D01*
X219909485Y-162023029D01*
X219890044Y-161960228D01*
X219880000Y-161864665D01*
X219880000Y-161387581D01*
X219877217Y-161359326D01*
X219877260Y-161353199D01*
X219876360Y-161344028D01*
X219855959Y-161149931D01*
X219843934Y-161091348D01*
X219832723Y-161032577D01*
X219830059Y-161023755D01*
X219772347Y-160837317D01*
X219749162Y-160782162D01*
X219726758Y-160726709D01*
X219722432Y-160718573D01*
X219629607Y-160546896D01*
X219596139Y-160497278D01*
X219563400Y-160447247D01*
X219557576Y-160440106D01*
X219433172Y-160289728D01*
X219390737Y-160247589D01*
X219348874Y-160204839D01*
X219341773Y-160198966D01*
X219190531Y-160075616D01*
X219140738Y-160042534D01*
X219091349Y-160008716D01*
X219083243Y-160004333D01*
X218910921Y-159912708D01*
X218855606Y-159889909D01*
X218800634Y-159866348D01*
X218791831Y-159863623D01*
X218604995Y-159807214D01*
X218546307Y-159795594D01*
X218487804Y-159783158D01*
X218478639Y-159782195D01*
X218284405Y-159763150D01*
X218284397Y-159763150D01*
X218252573Y-159760008D01*
X201202362Y-159756008D01*
X201104576Y-159746420D01*
X201041643Y-159727420D01*
X200983594Y-159696554D01*
X200932657Y-159655011D01*
X200890752Y-159604356D01*
X200859485Y-159546529D01*
X200840044Y-159483728D01*
X200830000Y-159388165D01*
X200830000Y-159097581D01*
X200827217Y-159069326D01*
X200827260Y-159063199D01*
X200826360Y-159054028D01*
X200805959Y-158859931D01*
X200793934Y-158801348D01*
X200782723Y-158742577D01*
X200780059Y-158733755D01*
X200722347Y-158547317D01*
X200699162Y-158492162D01*
X200676758Y-158436709D01*
X200672432Y-158428573D01*
X200579607Y-158256896D01*
X200546139Y-158207278D01*
X200513400Y-158157247D01*
X200507576Y-158150106D01*
X200383172Y-157999728D01*
X200340737Y-157957589D01*
X200298874Y-157914839D01*
X200291773Y-157908966D01*
X200140531Y-157785616D01*
X200090738Y-157752534D01*
X200041349Y-157718716D01*
X200033243Y-157714333D01*
X199860921Y-157622708D01*
X199805606Y-157599909D01*
X199750634Y-157576348D01*
X199741831Y-157573623D01*
X199554995Y-157517214D01*
X199496307Y-157505594D01*
X199437804Y-157493158D01*
X199428639Y-157492195D01*
X199234405Y-157473150D01*
X199234402Y-157473150D01*
X199202419Y-157470000D01*
X182152279Y-157470000D01*
X182054576Y-157460420D01*
X181991643Y-157441420D01*
X181933594Y-157410554D01*
X181882657Y-157369011D01*
X181840752Y-157318356D01*
X181809485Y-157260529D01*
X181790044Y-157197728D01*
X181780000Y-157102165D01*
X181780000Y-140079117D01*
X198410000Y-140079117D01*
X198410000Y-140420883D01*
X198476675Y-140756081D01*
X198607463Y-141071831D01*
X198797337Y-141355998D01*
X199039002Y-141597663D01*
X199323169Y-141787537D01*
X199638919Y-141918325D01*
X199974117Y-141985000D01*
X200315883Y-141985000D01*
X200651081Y-141918325D01*
X200966831Y-141787537D01*
X201250998Y-141597663D01*
X201492663Y-141355998D01*
X201682537Y-141071831D01*
X201813325Y-140756081D01*
X201880000Y-140420883D01*
X201880000Y-140079117D01*
X201813325Y-139743919D01*
X201682537Y-139428169D01*
X201492663Y-139144002D01*
X201250998Y-138902337D01*
X200966831Y-138712463D01*
X200651081Y-138581675D01*
X200315883Y-138515000D01*
X199974117Y-138515000D01*
X199638919Y-138581675D01*
X199323169Y-138712463D01*
X199039002Y-138902337D01*
X198797337Y-139144002D01*
X198607463Y-139428169D01*
X198476675Y-139743919D01*
X198410000Y-140079117D01*
X181780000Y-140079117D01*
X181780000Y-135285081D01*
X181777217Y-135256826D01*
X181777260Y-135250699D01*
X181776360Y-135241528D01*
X181755959Y-135047431D01*
X181743934Y-134988848D01*
X181732723Y-134930077D01*
X181730059Y-134921255D01*
X181672347Y-134734817D01*
X181649162Y-134679662D01*
X181626758Y-134624209D01*
X181622432Y-134616073D01*
X181529607Y-134444396D01*
X181496139Y-134394778D01*
X181463400Y-134344747D01*
X181457576Y-134337606D01*
X181333172Y-134187228D01*
X181290737Y-134145089D01*
X181248874Y-134102339D01*
X181241773Y-134096466D01*
X181090531Y-133973116D01*
X181040738Y-133940034D01*
X180991349Y-133906216D01*
X180983243Y-133901833D01*
X180810921Y-133810208D01*
X180755606Y-133787409D01*
X180700634Y-133763848D01*
X180691831Y-133761123D01*
X180504995Y-133704714D01*
X180446307Y-133693094D01*
X180387804Y-133680658D01*
X180378639Y-133679695D01*
X180184405Y-133660650D01*
X180184402Y-133660650D01*
X180152419Y-133657500D01*
X162987581Y-133657500D01*
X162959326Y-133660283D01*
X162953199Y-133660240D01*
X162944028Y-133661140D01*
X162749931Y-133681541D01*
X162691348Y-133693566D01*
X162632577Y-133704777D01*
X162623755Y-133707441D01*
X162437317Y-133765153D01*
X162382162Y-133788338D01*
X162326709Y-133810742D01*
X162318573Y-133815068D01*
X162146896Y-133907893D01*
X162097278Y-133941361D01*
X162047247Y-133974100D01*
X162040106Y-133979924D01*
X161889728Y-134104328D01*
X161847589Y-134146763D01*
X161804839Y-134188626D01*
X161798966Y-134195727D01*
X161675616Y-134346969D01*
X161642534Y-134396762D01*
X161608716Y-134446151D01*
X161604333Y-134454257D01*
X161512708Y-134626579D01*
X161489909Y-134681894D01*
X161466348Y-134736866D01*
X161463623Y-134745669D01*
X161407214Y-134932505D01*
X161395594Y-134991193D01*
X161383158Y-135049696D01*
X161382195Y-135058861D01*
X161363150Y-135253095D01*
X161360000Y-135285082D01*
X161360001Y-138047711D01*
X161350420Y-138145424D01*
X161331420Y-138208357D01*
X161300554Y-138266406D01*
X161259011Y-138317343D01*
X161208356Y-138359248D01*
X161150529Y-138390515D01*
X161087728Y-138409956D01*
X160992165Y-138420000D01*
X143937581Y-138420000D01*
X143909326Y-138422783D01*
X143903199Y-138422740D01*
X143894028Y-138423640D01*
X143699931Y-138444041D01*
X143641348Y-138456066D01*
X143582577Y-138467277D01*
X143573755Y-138469941D01*
X143387317Y-138527653D01*
X143332162Y-138550838D01*
X143276709Y-138573242D01*
X143268573Y-138577568D01*
X143096896Y-138670393D01*
X143047278Y-138703861D01*
X142997247Y-138736600D01*
X142990106Y-138742424D01*
X142839728Y-138866828D01*
X142797589Y-138909263D01*
X142754839Y-138951126D01*
X142748966Y-138958227D01*
X142625616Y-139109469D01*
X142592534Y-139159262D01*
X142558716Y-139208651D01*
X142554333Y-139216757D01*
X142462708Y-139389079D01*
X142439909Y-139444394D01*
X142416348Y-139499366D01*
X142413623Y-139508169D01*
X142357214Y-139695005D01*
X142345594Y-139753693D01*
X142333158Y-139812196D01*
X142332195Y-139821361D01*
X142313150Y-140015595D01*
X142310000Y-140047582D01*
X142310001Y-145096211D01*
X142300420Y-145193924D01*
X142281420Y-145256857D01*
X142250554Y-145314906D01*
X142209011Y-145365843D01*
X142158356Y-145407748D01*
X142100529Y-145439015D01*
X142037728Y-145458456D01*
X141942165Y-145468500D01*
X124887581Y-145468500D01*
X124859326Y-145471283D01*
X124853199Y-145471240D01*
X124844028Y-145472140D01*
X124649931Y-145492541D01*
X124591348Y-145504566D01*
X124532577Y-145515777D01*
X124523755Y-145518441D01*
X124337317Y-145576153D01*
X124282162Y-145599338D01*
X124226709Y-145621742D01*
X124218573Y-145626068D01*
X124046896Y-145718893D01*
X123997278Y-145752361D01*
X123947247Y-145785100D01*
X123940106Y-145790924D01*
X123789728Y-145915328D01*
X123747589Y-145957763D01*
X123704839Y-145999626D01*
X123698966Y-146006727D01*
X123575616Y-146157969D01*
X123542534Y-146207762D01*
X123508716Y-146257151D01*
X123504333Y-146265257D01*
X123412708Y-146437579D01*
X123389909Y-146492894D01*
X123366348Y-146547866D01*
X123363623Y-146556669D01*
X123307214Y-146743505D01*
X123295594Y-146802193D01*
X123283158Y-146860696D01*
X123282195Y-146869861D01*
X123263150Y-147064095D01*
X123260000Y-147096082D01*
X123260000Y-147572721D01*
X123250420Y-147670424D01*
X123231420Y-147733357D01*
X123200554Y-147791406D01*
X123159011Y-147842343D01*
X123108356Y-147884248D01*
X123050529Y-147915515D01*
X122987728Y-147934956D01*
X122892165Y-147945000D01*
X105952279Y-147945000D01*
X105854576Y-147935420D01*
X105791643Y-147916420D01*
X105733594Y-147885554D01*
X105682657Y-147844011D01*
X105640752Y-147793356D01*
X105609485Y-147735529D01*
X105590044Y-147672728D01*
X105580000Y-147577165D01*
X105580000Y-128172117D01*
X122210000Y-128172117D01*
X122210000Y-128513883D01*
X122276675Y-128849081D01*
X122407463Y-129164831D01*
X122597337Y-129448998D01*
X122839002Y-129690663D01*
X123123169Y-129880537D01*
X123438919Y-130011325D01*
X123774117Y-130078000D01*
X124115883Y-130078000D01*
X124451081Y-130011325D01*
X124766831Y-129880537D01*
X125050998Y-129690663D01*
X125292663Y-129448998D01*
X125482537Y-129164831D01*
X125613325Y-128849081D01*
X125680000Y-128513883D01*
X125680000Y-128172117D01*
X125613325Y-127836919D01*
X125482537Y-127521169D01*
X125292663Y-127237002D01*
X125050998Y-126995337D01*
X124766831Y-126805463D01*
X124451081Y-126674675D01*
X124115883Y-126608000D01*
X123774117Y-126608000D01*
X123438919Y-126674675D01*
X123123169Y-126805463D01*
X122839002Y-126995337D01*
X122597337Y-127237002D01*
X122407463Y-127521169D01*
X122276675Y-127836919D01*
X122210000Y-128172117D01*
X105580000Y-128172117D01*
X105580000Y-122257581D01*
X105576802Y-122225110D01*
X105576802Y-122218617D01*
X105575838Y-122209452D01*
X105571094Y-122167161D01*
X105570450Y-122160617D01*
X105570308Y-122160149D01*
X105564959Y-122112459D01*
X105552530Y-122053983D01*
X105540904Y-121995264D01*
X105538178Y-121986461D01*
X105508666Y-121893427D01*
X105485119Y-121838488D01*
X105462303Y-121783133D01*
X105457919Y-121775027D01*
X105410898Y-121689498D01*
X105377111Y-121640154D01*
X105344005Y-121590324D01*
X105338131Y-121583224D01*
X105275394Y-121508456D01*
X105232683Y-121466630D01*
X105190503Y-121424154D01*
X105183361Y-121418330D01*
X105107296Y-121357173D01*
X105057244Y-121324420D01*
X105007649Y-121290967D01*
X104999517Y-121286644D01*
X104999513Y-121286641D01*
X104999509Y-121286639D01*
X104913016Y-121241422D01*
X104857584Y-121219026D01*
X104802408Y-121195832D01*
X104793586Y-121193169D01*
X104699955Y-121165612D01*
X104641256Y-121154415D01*
X104582600Y-121142374D01*
X104573429Y-121141475D01*
X104476228Y-121132629D01*
X104416411Y-121133047D01*
X104356594Y-121132629D01*
X104347423Y-121133528D01*
X104250355Y-121143730D01*
X104191746Y-121155761D01*
X104132994Y-121166968D01*
X104124173Y-121169632D01*
X104030936Y-121198494D01*
X103975780Y-121221680D01*
X103920331Y-121244082D01*
X103912194Y-121248408D01*
X103826338Y-121294830D01*
X103776731Y-121328290D01*
X103726691Y-121361035D01*
X103719550Y-121366860D01*
X103644346Y-121429074D01*
X103602221Y-121471494D01*
X103559455Y-121513374D01*
X103553581Y-121520474D01*
X103491894Y-121596111D01*
X103458810Y-121645906D01*
X103424996Y-121695289D01*
X103420614Y-121703396D01*
X103374792Y-121789574D01*
X103352019Y-121844825D01*
X103328429Y-121899864D01*
X103325705Y-121908667D01*
X103297495Y-122002105D01*
X103285881Y-122060761D01*
X103273439Y-122119296D01*
X103272476Y-122128461D01*
X103262952Y-122225597D01*
X103259798Y-122257668D01*
X103259996Y-123760257D01*
X103250420Y-123857924D01*
X103231420Y-123920857D01*
X103200554Y-123978906D01*
X103159011Y-124029843D01*
X103108356Y-124071748D01*
X103050529Y-124103015D01*
X102987728Y-124122456D01*
X102892165Y-124132500D01*
X86902279Y-124132500D01*
X86804576Y-124122920D01*
X86741643Y-124103920D01*
X86683594Y-124073054D01*
X86632657Y-124031511D01*
X86590752Y-123980856D01*
X86559485Y-123923029D01*
X86540044Y-123860228D01*
X86530000Y-123764665D01*
X86530000Y-114177594D01*
X103259802Y-114177594D01*
X103259902Y-119462431D01*
X103263099Y-119494885D01*
X103263099Y-119501383D01*
X103264063Y-119510547D01*
X103268820Y-119552958D01*
X103269454Y-119559395D01*
X103269593Y-119559855D01*
X103274942Y-119607541D01*
X103287377Y-119666047D01*
X103298998Y-119724736D01*
X103301723Y-119733539D01*
X103331235Y-119826574D01*
X103354793Y-119881538D01*
X103377598Y-119936867D01*
X103381982Y-119944973D01*
X103429002Y-120030502D01*
X103462809Y-120079874D01*
X103495896Y-120129675D01*
X103501770Y-120136776D01*
X103564507Y-120211544D01*
X103607237Y-120253389D01*
X103649398Y-120295845D01*
X103656540Y-120301669D01*
X103732605Y-120362827D01*
X103782657Y-120395580D01*
X103832252Y-120429033D01*
X103840384Y-120433356D01*
X103840388Y-120433359D01*
X103840392Y-120433361D01*
X103926885Y-120478578D01*
X103982317Y-120500974D01*
X104037493Y-120524168D01*
X104046315Y-120526831D01*
X104139946Y-120554388D01*
X104198659Y-120565588D01*
X104257302Y-120577626D01*
X104266473Y-120578525D01*
X104363673Y-120587371D01*
X104423490Y-120586953D01*
X104483307Y-120587371D01*
X104492478Y-120586472D01*
X104589546Y-120576270D01*
X104648155Y-120564239D01*
X104706907Y-120553032D01*
X104715728Y-120550368D01*
X104808965Y-120521506D01*
X104864108Y-120498326D01*
X104919571Y-120475918D01*
X104927707Y-120471592D01*
X105013564Y-120425169D01*
X105063154Y-120391721D01*
X105113210Y-120358965D01*
X105120346Y-120353144D01*
X105120352Y-120353140D01*
X105120357Y-120353135D01*
X105195555Y-120290927D01*
X105237732Y-120248454D01*
X105280446Y-120206626D01*
X105286318Y-120199528D01*
X105286319Y-120199527D01*
X105286322Y-120199523D01*
X105348007Y-120123889D01*
X105381087Y-120074099D01*
X105414905Y-120024710D01*
X105419287Y-120016604D01*
X105465110Y-119930426D01*
X105487902Y-119875129D01*
X105511472Y-119820135D01*
X105514196Y-119811332D01*
X105542407Y-119717895D01*
X105554028Y-119659202D01*
X105566462Y-119600704D01*
X105567425Y-119591539D01*
X105576949Y-119494403D01*
X105576949Y-119494396D01*
X105580099Y-119462406D01*
X105579999Y-114177569D01*
X105576802Y-114145115D01*
X105576802Y-114138617D01*
X105575838Y-114129452D01*
X105571081Y-114087037D01*
X105570447Y-114080605D01*
X105570308Y-114080146D01*
X105564959Y-114032459D01*
X105552530Y-113973983D01*
X105540904Y-113915264D01*
X105538178Y-113906461D01*
X105508666Y-113813427D01*
X105485119Y-113758488D01*
X105462303Y-113703133D01*
X105457919Y-113695027D01*
X105410898Y-113609498D01*
X105377111Y-113560154D01*
X105344005Y-113510324D01*
X105338131Y-113503224D01*
X105275394Y-113428456D01*
X105232683Y-113386630D01*
X105190503Y-113344154D01*
X105183361Y-113338330D01*
X105107296Y-113277173D01*
X105057244Y-113244420D01*
X105007649Y-113210967D01*
X104999517Y-113206644D01*
X104999513Y-113206641D01*
X104999509Y-113206639D01*
X104913016Y-113161422D01*
X104857584Y-113139026D01*
X104802408Y-113115832D01*
X104793586Y-113113169D01*
X104699955Y-113085612D01*
X104641256Y-113074415D01*
X104582600Y-113062374D01*
X104573429Y-113061475D01*
X104476228Y-113052629D01*
X104416411Y-113053047D01*
X104356594Y-113052629D01*
X104347423Y-113053528D01*
X104250355Y-113063730D01*
X104191746Y-113075761D01*
X104132994Y-113086968D01*
X104124173Y-113089632D01*
X104030936Y-113118494D01*
X103975780Y-113141680D01*
X103920331Y-113164082D01*
X103912194Y-113168408D01*
X103826338Y-113214830D01*
X103776731Y-113248290D01*
X103726691Y-113281035D01*
X103719550Y-113286860D01*
X103644346Y-113349074D01*
X103602221Y-113391494D01*
X103559455Y-113433374D01*
X103553581Y-113440474D01*
X103491894Y-113516111D01*
X103458810Y-113565906D01*
X103424996Y-113615289D01*
X103420614Y-113623396D01*
X103374792Y-113709574D01*
X103352019Y-113764825D01*
X103328429Y-113819864D01*
X103325705Y-113828667D01*
X103297495Y-113922105D01*
X103285881Y-113980761D01*
X103273439Y-114039296D01*
X103272476Y-114048461D01*
X103262952Y-114145597D01*
X103262952Y-114145604D01*
X103259802Y-114177594D01*
X86530000Y-114177594D01*
X86530000Y-106824779D01*
X86539580Y-106727076D01*
X86558580Y-106664144D01*
X86589445Y-106606095D01*
X86630989Y-106555157D01*
X86681644Y-106513252D01*
X86739471Y-106481985D01*
X86802272Y-106462544D01*
X86897835Y-106452500D01*
X102837721Y-106452500D01*
X102935424Y-106462080D01*
X102998356Y-106481080D01*
X103056405Y-106511945D01*
X103107343Y-106553489D01*
X103149248Y-106604144D01*
X103180515Y-106661971D01*
X103199956Y-106724772D01*
X103209997Y-106820307D01*
X103209798Y-108322331D01*
X103213000Y-108354888D01*
X103213000Y-108361383D01*
X103213964Y-108370547D01*
X103218646Y-108412287D01*
X103219335Y-108419296D01*
X103219489Y-108419802D01*
X103224843Y-108467541D01*
X103237278Y-108526047D01*
X103248899Y-108584736D01*
X103251624Y-108593539D01*
X103281136Y-108686574D01*
X103304694Y-108741538D01*
X103327499Y-108796867D01*
X103331883Y-108804973D01*
X103378903Y-108890502D01*
X103412710Y-108939874D01*
X103445797Y-108989675D01*
X103451671Y-108996776D01*
X103514408Y-109071544D01*
X103557138Y-109113389D01*
X103599299Y-109155845D01*
X103606441Y-109161669D01*
X103682506Y-109222827D01*
X103723310Y-109249529D01*
X103522337Y-109450502D01*
X103332463Y-109734669D01*
X103201675Y-110050419D01*
X103135000Y-110385617D01*
X103135000Y-110727383D01*
X103201675Y-111062581D01*
X103332463Y-111378331D01*
X103522337Y-111662498D01*
X103764002Y-111904163D01*
X104048169Y-112094037D01*
X104363919Y-112224825D01*
X104699117Y-112291500D01*
X105040883Y-112291500D01*
X105376081Y-112224825D01*
X105691831Y-112094037D01*
X105975998Y-111904163D01*
X106217663Y-111662498D01*
X106407537Y-111378331D01*
X106538325Y-111062581D01*
X106605000Y-110727383D01*
X106605000Y-110385617D01*
X106538325Y-110050419D01*
X106407537Y-109734669D01*
X106217663Y-109450502D01*
X105975998Y-109208837D01*
X105855492Y-109128317D01*
X122210000Y-109128317D01*
X122210000Y-109470083D01*
X122276675Y-109805281D01*
X122407463Y-110121031D01*
X122597337Y-110405198D01*
X122839002Y-110646863D01*
X123123169Y-110836737D01*
X123438919Y-110967525D01*
X123774117Y-111034200D01*
X124115883Y-111034200D01*
X124451081Y-110967525D01*
X124766831Y-110836737D01*
X125050998Y-110646863D01*
X125292663Y-110405198D01*
X125482537Y-110121031D01*
X125613325Y-109805281D01*
X125680000Y-109470083D01*
X125680000Y-109128317D01*
X125613325Y-108793119D01*
X125482537Y-108477369D01*
X125292663Y-108193202D01*
X125050998Y-107951537D01*
X124766831Y-107761663D01*
X124451081Y-107630875D01*
X124115883Y-107564200D01*
X123774117Y-107564200D01*
X123438919Y-107630875D01*
X123123169Y-107761663D01*
X122839002Y-107951537D01*
X122597337Y-108193202D01*
X122407463Y-108477369D01*
X122276675Y-108793119D01*
X122210000Y-109128317D01*
X105855492Y-109128317D01*
X105691831Y-109018963D01*
X105376081Y-108888175D01*
X105364069Y-108885786D01*
X105364806Y-108884710D01*
X105369188Y-108876604D01*
X105415011Y-108790426D01*
X105437803Y-108735129D01*
X105461373Y-108680135D01*
X105464097Y-108671332D01*
X105492308Y-108577895D01*
X105503929Y-108519202D01*
X105516363Y-108460704D01*
X105517326Y-108451539D01*
X105526850Y-108354403D01*
X105526850Y-108354402D01*
X105530000Y-108322419D01*
X105530000Y-101978617D01*
X198410000Y-101978617D01*
X198410000Y-102320383D01*
X198476675Y-102655581D01*
X198607463Y-102971331D01*
X198797337Y-103255498D01*
X199039002Y-103497163D01*
X199323169Y-103687037D01*
X199638919Y-103817825D01*
X199974117Y-103884500D01*
X200315883Y-103884500D01*
X200651081Y-103817825D01*
X200966831Y-103687037D01*
X201250998Y-103497163D01*
X201492663Y-103255498D01*
X201682537Y-102971331D01*
X201813325Y-102655581D01*
X201880000Y-102320383D01*
X201880000Y-101978617D01*
X201813325Y-101643419D01*
X201682537Y-101327669D01*
X201492663Y-101043502D01*
X201250998Y-100801837D01*
X200966831Y-100611963D01*
X200651081Y-100481175D01*
X200315883Y-100414500D01*
X199974117Y-100414500D01*
X199638919Y-100481175D01*
X199323169Y-100611963D01*
X199039002Y-100801837D01*
X198797337Y-101043502D01*
X198607463Y-101327669D01*
X198476675Y-101643419D01*
X198410000Y-101978617D01*
X105530000Y-101978617D01*
X105530000Y-98440317D01*
X160255000Y-98440317D01*
X160255000Y-98782083D01*
X160321675Y-99117281D01*
X160452463Y-99433031D01*
X160642337Y-99717198D01*
X160884002Y-99958863D01*
X161168169Y-100148737D01*
X161483919Y-100279525D01*
X161819117Y-100346200D01*
X162160883Y-100346200D01*
X162496081Y-100279525D01*
X162811831Y-100148737D01*
X163095998Y-99958863D01*
X163337663Y-99717198D01*
X163527537Y-99433031D01*
X163658325Y-99117281D01*
X163725000Y-98782083D01*
X163725000Y-98440317D01*
X163658325Y-98105119D01*
X163527537Y-97789369D01*
X163337663Y-97505202D01*
X163095998Y-97263537D01*
X162811831Y-97073663D01*
X162496081Y-96942875D01*
X162160883Y-96876200D01*
X161819117Y-96876200D01*
X161483919Y-96942875D01*
X161168169Y-97073663D01*
X160884002Y-97263537D01*
X160642337Y-97505202D01*
X160452463Y-97789369D01*
X160321675Y-98105119D01*
X160255000Y-98440317D01*
X105530000Y-98440317D01*
X105530000Y-93012279D01*
X105539580Y-92914576D01*
X105558580Y-92851644D01*
X105589445Y-92793595D01*
X105630989Y-92742657D01*
X105681644Y-92700752D01*
X105739471Y-92669485D01*
X105802272Y-92650044D01*
X105897836Y-92640000D01*
X112522211Y-92640099D01*
X112550124Y-92637350D01*
X112553109Y-92637371D01*
X112562280Y-92636472D01*
X112610453Y-92631409D01*
X112619175Y-92630550D01*
X112619466Y-92630462D01*
X112659348Y-92626270D01*
X112717957Y-92614239D01*
X112776709Y-92603032D01*
X112785530Y-92600368D01*
X112878767Y-92571506D01*
X112933910Y-92548326D01*
X112989373Y-92525918D01*
X112997509Y-92521592D01*
X113083366Y-92475169D01*
X113132956Y-92441721D01*
X113183012Y-92408965D01*
X113190148Y-92403144D01*
X113190154Y-92403140D01*
X113190159Y-92403135D01*
X113265357Y-92340927D01*
X113307534Y-92298454D01*
X113350248Y-92256626D01*
X113356120Y-92249528D01*
X113356121Y-92249527D01*
X113356124Y-92249523D01*
X113417809Y-92173889D01*
X113450889Y-92124099D01*
X113484707Y-92074710D01*
X113489089Y-92066604D01*
X113534912Y-91980426D01*
X113557704Y-91925129D01*
X113581274Y-91870135D01*
X113583998Y-91861332D01*
X113612209Y-91767895D01*
X113623830Y-91709202D01*
X113636264Y-91650704D01*
X113637227Y-91641539D01*
X113646751Y-91544403D01*
X113646751Y-91515595D01*
X113649865Y-91486946D01*
X113649881Y-91482269D01*
X115190004Y-91482269D01*
X115190016Y-91485760D01*
X115192930Y-91514459D01*
X115192728Y-91543307D01*
X115193627Y-91552478D01*
X115203829Y-91649546D01*
X115215860Y-91708155D01*
X115227067Y-91766907D01*
X115229731Y-91775728D01*
X115258593Y-91868965D01*
X115281773Y-91924108D01*
X115304181Y-91979571D01*
X115308507Y-91987707D01*
X115354930Y-92073564D01*
X115388378Y-92123154D01*
X115421134Y-92173210D01*
X115426955Y-92180346D01*
X115426959Y-92180352D01*
X115426964Y-92180357D01*
X115489172Y-92255555D01*
X115531645Y-92297732D01*
X115573473Y-92340446D01*
X115580568Y-92346315D01*
X115580572Y-92346319D01*
X115580574Y-92346320D01*
X115656210Y-92408007D01*
X115706000Y-92441087D01*
X115755389Y-92474905D01*
X115763495Y-92479287D01*
X115849673Y-92525110D01*
X115904970Y-92547902D01*
X115959964Y-92571472D01*
X115968767Y-92574196D01*
X116062204Y-92602407D01*
X116120897Y-92614028D01*
X116179395Y-92626462D01*
X116188560Y-92627425D01*
X116285696Y-92636949D01*
X116285697Y-92636949D01*
X116317680Y-92640099D01*
X123472419Y-92640099D01*
X123501612Y-92637224D01*
X123506801Y-92637260D01*
X123515972Y-92636360D01*
X123710069Y-92615959D01*
X123768658Y-92603932D01*
X123827423Y-92592723D01*
X123836245Y-92590059D01*
X124022683Y-92532347D01*
X124077838Y-92509162D01*
X124133291Y-92486758D01*
X124141427Y-92482432D01*
X124313104Y-92389607D01*
X124362699Y-92356154D01*
X124412753Y-92323400D01*
X124419894Y-92317576D01*
X124570272Y-92193172D01*
X124612411Y-92150737D01*
X124655161Y-92108874D01*
X124661034Y-92101773D01*
X124784384Y-91950531D01*
X124817477Y-91900723D01*
X124851284Y-91851349D01*
X124855667Y-91843243D01*
X124947292Y-91670920D01*
X124970090Y-91615608D01*
X124993652Y-91560634D01*
X124996377Y-91551831D01*
X125052786Y-91364994D01*
X125064405Y-91306314D01*
X125076842Y-91247804D01*
X125077805Y-91238639D01*
X125096850Y-91044406D01*
X125096850Y-91044402D01*
X125100000Y-91012419D01*
X125100000Y-90532279D01*
X125109580Y-90434576D01*
X125128580Y-90371644D01*
X125159445Y-90313595D01*
X125200989Y-90262657D01*
X125251644Y-90220752D01*
X125309471Y-90189485D01*
X125372272Y-90170044D01*
X125467835Y-90160000D01*
X142532419Y-90160000D01*
X142560674Y-90157217D01*
X142566801Y-90157260D01*
X142575972Y-90156360D01*
X142770069Y-90135959D01*
X142828658Y-90123932D01*
X142887423Y-90112723D01*
X142896245Y-90110059D01*
X143082683Y-90052347D01*
X143137838Y-90029162D01*
X143193291Y-90006758D01*
X143201427Y-90002432D01*
X143373104Y-89909607D01*
X143422699Y-89876154D01*
X143472753Y-89843400D01*
X143479894Y-89837576D01*
X143630272Y-89713172D01*
X143672411Y-89670737D01*
X143715161Y-89628874D01*
X143721034Y-89621773D01*
X143844384Y-89470531D01*
X143877477Y-89420723D01*
X143911284Y-89371349D01*
X143915667Y-89363243D01*
X144007292Y-89190920D01*
X144030090Y-89135608D01*
X144053652Y-89080634D01*
X144056377Y-89071831D01*
X144112786Y-88884994D01*
X144124405Y-88826314D01*
X144136842Y-88767804D01*
X144137805Y-88758639D01*
X144156850Y-88564406D01*
X144156850Y-88564402D01*
X144160000Y-88532419D01*
X144160000Y-83482279D01*
X144169580Y-83384576D01*
X144188580Y-83321644D01*
X144219445Y-83263595D01*
X144260989Y-83212657D01*
X144311644Y-83170752D01*
X144369471Y-83139485D01*
X144432272Y-83120044D01*
X144527836Y-83110000D01*
X150622309Y-83110099D01*
X150650225Y-83107350D01*
X150653208Y-83107371D01*
X150662379Y-83106472D01*
X150710430Y-83101422D01*
X150719273Y-83100551D01*
X150719569Y-83100461D01*
X150759447Y-83096270D01*
X150818056Y-83084239D01*
X150876808Y-83073032D01*
X150885629Y-83070368D01*
X150978866Y-83041506D01*
X151034009Y-83018326D01*
X151089472Y-82995918D01*
X151097608Y-82991592D01*
X151183465Y-82945169D01*
X151233055Y-82911721D01*
X151283111Y-82878965D01*
X151290247Y-82873144D01*
X151290253Y-82873140D01*
X151290258Y-82873135D01*
X151365456Y-82810927D01*
X151407633Y-82768454D01*
X151450347Y-82726626D01*
X151456219Y-82719528D01*
X151456220Y-82719527D01*
X151456223Y-82719523D01*
X151517908Y-82643889D01*
X151550988Y-82594099D01*
X151584806Y-82544710D01*
X151589188Y-82536604D01*
X151635011Y-82450426D01*
X151657803Y-82395129D01*
X151681373Y-82340135D01*
X151684097Y-82331332D01*
X151712308Y-82237895D01*
X151723929Y-82179202D01*
X151736363Y-82120704D01*
X151737326Y-82111539D01*
X151746850Y-82014403D01*
X151746850Y-81985595D01*
X151749964Y-81956946D01*
X151749980Y-81952269D01*
X153290103Y-81952269D01*
X153290115Y-81955760D01*
X153293029Y-81984459D01*
X153292827Y-82013307D01*
X153293726Y-82022478D01*
X153303928Y-82119546D01*
X153315959Y-82178155D01*
X153327166Y-82236907D01*
X153329830Y-82245728D01*
X153358692Y-82338965D01*
X153381872Y-82394108D01*
X153404280Y-82449571D01*
X153408606Y-82457707D01*
X153455029Y-82543564D01*
X153488477Y-82593154D01*
X153521233Y-82643210D01*
X153527054Y-82650346D01*
X153527058Y-82650352D01*
X153527063Y-82650357D01*
X153589271Y-82725555D01*
X153631744Y-82767732D01*
X153673572Y-82810446D01*
X153680667Y-82816315D01*
X153680671Y-82816319D01*
X153680673Y-82816320D01*
X153756309Y-82878007D01*
X153806099Y-82911087D01*
X153855488Y-82944905D01*
X153863594Y-82949287D01*
X153949772Y-82995110D01*
X154005069Y-83017902D01*
X154060063Y-83041472D01*
X154068866Y-83044196D01*
X154162303Y-83072407D01*
X154220996Y-83084028D01*
X154279494Y-83096462D01*
X154288659Y-83097425D01*
X154385795Y-83106949D01*
X154385803Y-83106949D01*
X154417789Y-83110099D01*
X161582428Y-83109999D01*
X161610670Y-83107217D01*
X161616801Y-83107260D01*
X161625972Y-83106360D01*
X161820069Y-83085959D01*
X161878658Y-83073932D01*
X161937423Y-83062723D01*
X161946245Y-83060059D01*
X162132683Y-83002347D01*
X162187838Y-82979162D01*
X162243291Y-82956758D01*
X162251427Y-82952432D01*
X162423104Y-82859607D01*
X162472699Y-82826154D01*
X162522753Y-82793400D01*
X162529894Y-82787576D01*
X162680272Y-82663172D01*
X162722411Y-82620737D01*
X162765161Y-82578874D01*
X162771034Y-82571773D01*
X162894384Y-82420531D01*
X162927477Y-82370723D01*
X162961284Y-82321349D01*
X162965667Y-82313243D01*
X163057292Y-82140920D01*
X163080090Y-82085608D01*
X163103652Y-82030634D01*
X163106377Y-82021831D01*
X163162786Y-81834994D01*
X163174405Y-81776314D01*
X163186842Y-81717804D01*
X163187805Y-81708639D01*
X163206850Y-81514406D01*
X163206850Y-81514402D01*
X163210000Y-81482419D01*
X163210000Y-80869861D01*
X163392663Y-80687198D01*
X163582537Y-80403031D01*
X163713325Y-80087281D01*
X163780000Y-79752083D01*
X163780000Y-79410317D01*
X163713325Y-79075119D01*
X163582537Y-78759369D01*
X163392663Y-78475202D01*
X163348821Y-78431360D01*
X163361644Y-78420752D01*
X163419471Y-78389485D01*
X163482272Y-78370044D01*
X163577836Y-78360000D01*
X169672309Y-78360099D01*
X169700225Y-78357350D01*
X169703208Y-78357371D01*
X169712379Y-78356472D01*
X169760430Y-78351422D01*
X169769273Y-78350551D01*
X169769569Y-78350461D01*
X169809447Y-78346270D01*
X169868056Y-78334239D01*
X169926808Y-78323032D01*
X169935629Y-78320368D01*
X170028866Y-78291506D01*
X170084009Y-78268326D01*
X170139472Y-78245918D01*
X170147608Y-78241592D01*
X170233465Y-78195169D01*
X170283055Y-78161721D01*
X170333111Y-78128965D01*
X170340247Y-78123144D01*
X170340253Y-78123140D01*
X170340258Y-78123135D01*
X170415456Y-78060927D01*
X170457633Y-78018454D01*
X170500347Y-77976626D01*
X170506219Y-77969528D01*
X170506220Y-77969527D01*
X170506223Y-77969523D01*
X170567908Y-77893889D01*
X170600988Y-77844099D01*
X170634806Y-77794710D01*
X170639188Y-77786604D01*
X170685011Y-77700426D01*
X170707803Y-77645129D01*
X170731373Y-77590135D01*
X170734097Y-77581332D01*
X170762308Y-77487895D01*
X170773929Y-77429202D01*
X170786363Y-77370704D01*
X170787326Y-77361539D01*
X170796850Y-77264403D01*
X170796850Y-77235595D01*
X170799964Y-77206946D01*
X170799980Y-77202269D01*
X172340103Y-77202269D01*
X172340115Y-77205760D01*
X172343029Y-77234459D01*
X172342827Y-77263307D01*
X172343726Y-77272478D01*
X172353928Y-77369546D01*
X172365959Y-77428155D01*
X172377166Y-77486907D01*
X172379830Y-77495728D01*
X172408692Y-77588965D01*
X172431872Y-77644108D01*
X172454280Y-77699571D01*
X172458606Y-77707707D01*
X172505029Y-77793564D01*
X172538477Y-77843154D01*
X172571233Y-77893210D01*
X172577054Y-77900346D01*
X172577058Y-77900352D01*
X172577063Y-77900357D01*
X172639271Y-77975555D01*
X172681744Y-78017732D01*
X172723572Y-78060446D01*
X172730667Y-78066315D01*
X172730671Y-78066319D01*
X172730673Y-78066320D01*
X172806309Y-78128007D01*
X172856099Y-78161087D01*
X172905488Y-78194905D01*
X172913594Y-78199287D01*
X172999772Y-78245110D01*
X173055069Y-78267902D01*
X173110063Y-78291472D01*
X173118866Y-78294196D01*
X173212303Y-78322407D01*
X173270996Y-78334028D01*
X173329494Y-78346462D01*
X173338659Y-78347425D01*
X173435795Y-78356949D01*
X173435800Y-78356949D01*
X173467790Y-78360099D01*
X179557721Y-78360000D01*
X179655424Y-78369580D01*
X179718356Y-78388580D01*
X179776405Y-78419445D01*
X179827343Y-78460989D01*
X179869248Y-78511644D01*
X179900515Y-78569471D01*
X179919956Y-78632272D01*
X179930000Y-78727836D01*
X179930001Y-81492419D01*
X179932783Y-81520664D01*
X179932740Y-81526801D01*
X179933640Y-81535972D01*
X179954041Y-81730069D01*
X179966068Y-81788658D01*
X179977277Y-81847423D01*
X179979941Y-81856245D01*
X180037653Y-82042683D01*
X180060838Y-82097838D01*
X180083242Y-82153291D01*
X180087568Y-82161427D01*
X180180393Y-82333104D01*
X180213846Y-82382699D01*
X180246600Y-82432753D01*
X180252424Y-82439894D01*
X180376828Y-82590272D01*
X180419263Y-82632411D01*
X180461126Y-82675161D01*
X180468227Y-82681034D01*
X180619469Y-82804384D01*
X180669277Y-82837477D01*
X180718651Y-82871284D01*
X180726757Y-82875667D01*
X180899080Y-82967292D01*
X180954392Y-82990090D01*
X181009366Y-83013652D01*
X181018169Y-83016377D01*
X181205006Y-83072786D01*
X181263686Y-83084405D01*
X181322196Y-83096842D01*
X181331361Y-83097805D01*
X181525594Y-83116850D01*
X181525598Y-83116850D01*
X181557581Y-83120000D01*
X198410000Y-83120000D01*
X198410000Y-83276383D01*
X198476675Y-83611581D01*
X198607463Y-83927331D01*
X198797337Y-84211498D01*
X199039002Y-84453163D01*
X199210446Y-84567718D01*
X199240393Y-84623104D01*
X199273846Y-84672699D01*
X199306600Y-84722753D01*
X199312424Y-84729894D01*
X199436828Y-84880272D01*
X199479263Y-84922411D01*
X199521126Y-84965161D01*
X199528227Y-84971034D01*
X199679469Y-85094384D01*
X199729277Y-85127477D01*
X199778651Y-85161284D01*
X199786757Y-85165667D01*
X199959080Y-85257292D01*
X200014392Y-85280090D01*
X200069366Y-85303652D01*
X200078169Y-85306377D01*
X200265006Y-85362786D01*
X200323686Y-85374405D01*
X200382196Y-85386842D01*
X200391361Y-85387805D01*
X200585594Y-85406850D01*
X200585603Y-85406850D01*
X200617572Y-85409999D01*
X207772310Y-85410099D01*
X207800223Y-85407350D01*
X207803208Y-85407371D01*
X207812379Y-85406472D01*
X207860552Y-85401409D01*
X207869274Y-85400550D01*
X207869565Y-85400462D01*
X207909447Y-85396270D01*
X207968056Y-85384239D01*
X208026808Y-85373032D01*
X208035629Y-85370368D01*
X208128866Y-85341506D01*
X208184009Y-85318326D01*
X208239472Y-85295918D01*
X208247608Y-85291592D01*
X208333465Y-85245169D01*
X208383055Y-85211721D01*
X208433111Y-85178965D01*
X208440247Y-85173144D01*
X208440253Y-85173140D01*
X208440258Y-85173135D01*
X208515456Y-85110927D01*
X208557633Y-85068454D01*
X208600347Y-85026626D01*
X208606219Y-85019528D01*
X208606220Y-85019527D01*
X208606223Y-85019523D01*
X208667908Y-84943889D01*
X208700988Y-84894099D01*
X208734806Y-84844710D01*
X208739188Y-84836604D01*
X208785011Y-84750426D01*
X208807803Y-84695129D01*
X208831373Y-84640135D01*
X208834097Y-84631332D01*
X208862308Y-84537895D01*
X208873929Y-84479202D01*
X208886363Y-84420704D01*
X208887326Y-84411539D01*
X208896850Y-84314403D01*
X208896850Y-84285595D01*
X208899964Y-84256946D01*
X208899996Y-84247731D01*
X208899984Y-84244240D01*
X208897070Y-84215541D01*
X208897272Y-84186693D01*
X208896373Y-84177522D01*
X208886171Y-84080454D01*
X208874135Y-84021820D01*
X208862933Y-83963093D01*
X208860269Y-83954272D01*
X208831407Y-83861035D01*
X208808221Y-83805879D01*
X208785819Y-83750430D01*
X208781493Y-83742293D01*
X208735071Y-83656437D01*
X208701611Y-83606830D01*
X208668866Y-83556790D01*
X208663041Y-83549649D01*
X208600827Y-83474445D01*
X208558407Y-83432320D01*
X208516527Y-83389554D01*
X208509427Y-83383680D01*
X208433790Y-83321993D01*
X208383995Y-83288909D01*
X208334612Y-83255095D01*
X208326505Y-83250713D01*
X208326502Y-83250711D01*
X208326499Y-83250710D01*
X208240327Y-83204891D01*
X208185076Y-83182118D01*
X208130037Y-83158528D01*
X208121234Y-83155804D01*
X208027796Y-83127594D01*
X207969140Y-83115980D01*
X207910605Y-83103538D01*
X207901440Y-83102575D01*
X207804304Y-83093051D01*
X207804299Y-83093051D01*
X207772309Y-83089901D01*
X201880000Y-83089997D01*
X201880000Y-82934617D01*
X201813325Y-82599419D01*
X201682537Y-82283669D01*
X201492663Y-81999502D01*
X201250998Y-81757837D01*
X201096057Y-81654309D01*
X201059607Y-81586896D01*
X201026139Y-81537278D01*
X200993400Y-81487247D01*
X200987576Y-81480106D01*
X200863172Y-81329728D01*
X200820737Y-81287589D01*
X200778874Y-81244839D01*
X200771773Y-81238966D01*
X200620531Y-81115616D01*
X200570738Y-81082534D01*
X200521349Y-81048716D01*
X200513243Y-81044333D01*
X200340921Y-80952708D01*
X200285606Y-80929909D01*
X200230634Y-80906348D01*
X200221831Y-80903623D01*
X200034995Y-80847214D01*
X199976307Y-80835594D01*
X199917804Y-80823158D01*
X199908639Y-80822195D01*
X199714405Y-80803150D01*
X199714402Y-80803150D01*
X199682419Y-80800000D01*
X182622279Y-80800000D01*
X182524576Y-80790420D01*
X182461643Y-80771420D01*
X182403594Y-80740554D01*
X182352657Y-80699011D01*
X182310752Y-80648356D01*
X182279485Y-80590529D01*
X182260044Y-80527728D01*
X182250000Y-80432165D01*
X182250000Y-77667581D01*
X182247217Y-77639326D01*
X182247260Y-77633199D01*
X182246360Y-77624028D01*
X182225959Y-77429931D01*
X182213934Y-77371348D01*
X182202723Y-77312577D01*
X182200059Y-77303755D01*
X182142347Y-77117317D01*
X182119162Y-77062162D01*
X182096758Y-77006709D01*
X182092432Y-76998573D01*
X181999607Y-76826896D01*
X181966139Y-76777278D01*
X181933400Y-76727247D01*
X181927576Y-76720106D01*
X181803172Y-76569728D01*
X181760737Y-76527589D01*
X181718874Y-76484839D01*
X181711773Y-76478966D01*
X181560531Y-76355616D01*
X181510738Y-76322534D01*
X181461349Y-76288716D01*
X181453243Y-76284333D01*
X181280921Y-76192708D01*
X181225606Y-76169909D01*
X181170634Y-76146348D01*
X181161831Y-76143623D01*
X180974995Y-76087214D01*
X180916307Y-76075594D01*
X180857804Y-76063158D01*
X180848639Y-76062195D01*
X180654405Y-76043150D01*
X180654397Y-76043150D01*
X180622428Y-76040001D01*
X173467789Y-76039901D01*
X173439876Y-76042650D01*
X173436891Y-76042629D01*
X173427720Y-76043528D01*
X173379547Y-76048591D01*
X173370825Y-76049450D01*
X173370534Y-76049538D01*
X173330652Y-76053730D01*
X173272043Y-76065761D01*
X173213291Y-76076968D01*
X173204470Y-76079632D01*
X173111233Y-76108494D01*
X173056077Y-76131680D01*
X173000628Y-76154082D01*
X172992491Y-76158408D01*
X172906635Y-76204830D01*
X172857028Y-76238290D01*
X172806988Y-76271035D01*
X172799847Y-76276860D01*
X172724643Y-76339074D01*
X172682518Y-76381494D01*
X172639752Y-76423374D01*
X172633878Y-76430474D01*
X172572191Y-76506111D01*
X172539107Y-76555906D01*
X172505293Y-76605289D01*
X172500911Y-76613396D01*
X172455089Y-76699574D01*
X172432316Y-76754825D01*
X172408726Y-76809864D01*
X172406002Y-76818667D01*
X172377792Y-76912105D01*
X172366178Y-76970761D01*
X172353736Y-77029296D01*
X172352773Y-77038461D01*
X172343249Y-77135597D01*
X172343249Y-77164405D01*
X172340135Y-77193054D01*
X172340103Y-77202269D01*
X170799980Y-77202269D01*
X170799996Y-77197731D01*
X170799984Y-77194240D01*
X170797070Y-77165541D01*
X170797272Y-77136693D01*
X170796373Y-77127522D01*
X170786171Y-77030454D01*
X170774135Y-76971820D01*
X170762933Y-76913093D01*
X170760269Y-76904272D01*
X170731407Y-76811035D01*
X170708221Y-76755879D01*
X170685819Y-76700430D01*
X170681493Y-76692293D01*
X170635071Y-76606437D01*
X170601611Y-76556830D01*
X170568866Y-76506790D01*
X170563041Y-76499649D01*
X170500827Y-76424445D01*
X170458407Y-76382320D01*
X170416527Y-76339554D01*
X170409427Y-76333680D01*
X170333790Y-76271993D01*
X170283995Y-76238909D01*
X170234612Y-76205095D01*
X170226505Y-76200713D01*
X170226502Y-76200711D01*
X170226499Y-76200710D01*
X170140327Y-76154891D01*
X170085076Y-76132118D01*
X170030037Y-76108528D01*
X170021234Y-76105804D01*
X169927796Y-76077594D01*
X169869140Y-76065980D01*
X169810605Y-76053538D01*
X169801440Y-76052575D01*
X169704304Y-76043051D01*
X169704296Y-76043051D01*
X169672310Y-76039901D01*
X162517572Y-76040001D01*
X162489330Y-76042783D01*
X162483199Y-76042740D01*
X162474028Y-76043640D01*
X162279931Y-76064041D01*
X162221348Y-76076066D01*
X162162577Y-76087277D01*
X162153755Y-76089941D01*
X161967317Y-76147653D01*
X161912162Y-76170838D01*
X161856709Y-76193242D01*
X161848573Y-76197568D01*
X161676896Y-76290393D01*
X161627278Y-76323861D01*
X161577247Y-76356600D01*
X161570106Y-76362424D01*
X161419728Y-76486828D01*
X161377589Y-76529263D01*
X161334839Y-76571126D01*
X161328966Y-76578227D01*
X161205616Y-76729469D01*
X161172534Y-76779262D01*
X161138716Y-76828651D01*
X161134333Y-76836757D01*
X161042708Y-77009079D01*
X161019909Y-77064394D01*
X160996348Y-77119366D01*
X160993623Y-77128169D01*
X160937214Y-77315005D01*
X160925594Y-77373693D01*
X160913158Y-77432196D01*
X160912195Y-77441361D01*
X160893150Y-77635595D01*
X160890000Y-77667582D01*
X160890000Y-78282539D01*
X160697337Y-78475202D01*
X160507463Y-78759369D01*
X160376675Y-79075119D01*
X160310000Y-79410317D01*
X160310000Y-79752083D01*
X160376675Y-80087281D01*
X160507463Y-80403031D01*
X160697337Y-80687198D01*
X160738921Y-80728782D01*
X160738356Y-80729248D01*
X160680529Y-80760515D01*
X160617728Y-80779956D01*
X160522164Y-80790000D01*
X154417790Y-80789901D01*
X154389874Y-80792650D01*
X154386891Y-80792629D01*
X154377720Y-80793528D01*
X154329669Y-80798578D01*
X154320826Y-80799449D01*
X154320530Y-80799539D01*
X154280652Y-80803730D01*
X154222043Y-80815761D01*
X154163291Y-80826968D01*
X154154470Y-80829632D01*
X154061233Y-80858494D01*
X154006077Y-80881680D01*
X153950628Y-80904082D01*
X153942491Y-80908408D01*
X153856635Y-80954830D01*
X153807028Y-80988290D01*
X153756988Y-81021035D01*
X153749847Y-81026860D01*
X153674643Y-81089074D01*
X153632518Y-81131494D01*
X153589752Y-81173374D01*
X153583878Y-81180474D01*
X153522191Y-81256111D01*
X153489107Y-81305906D01*
X153455293Y-81355289D01*
X153450911Y-81363396D01*
X153405089Y-81449574D01*
X153382316Y-81504825D01*
X153358726Y-81559864D01*
X153356002Y-81568667D01*
X153327792Y-81662105D01*
X153316178Y-81720761D01*
X153303736Y-81779296D01*
X153302773Y-81788461D01*
X153293249Y-81885597D01*
X153293249Y-81914405D01*
X153290135Y-81943054D01*
X153290103Y-81952269D01*
X151749980Y-81952269D01*
X151749996Y-81947731D01*
X151749984Y-81944240D01*
X151747070Y-81915541D01*
X151747272Y-81886693D01*
X151746373Y-81877522D01*
X151736171Y-81780454D01*
X151724135Y-81721820D01*
X151712933Y-81663093D01*
X151710269Y-81654272D01*
X151681407Y-81561035D01*
X151658221Y-81505879D01*
X151635819Y-81450430D01*
X151631493Y-81442293D01*
X151585071Y-81356437D01*
X151551611Y-81306830D01*
X151518866Y-81256790D01*
X151513041Y-81249649D01*
X151450827Y-81174445D01*
X151408407Y-81132320D01*
X151366527Y-81089554D01*
X151359427Y-81083680D01*
X151283790Y-81021993D01*
X151233995Y-80988909D01*
X151184612Y-80955095D01*
X151176505Y-80950713D01*
X151176502Y-80950711D01*
X151176499Y-80950710D01*
X151090327Y-80904891D01*
X151035076Y-80882118D01*
X150980037Y-80858528D01*
X150971234Y-80855804D01*
X150877796Y-80827594D01*
X150819140Y-80815980D01*
X150760605Y-80803538D01*
X150751440Y-80802575D01*
X150654304Y-80793051D01*
X150654296Y-80793051D01*
X150622310Y-80789901D01*
X143467572Y-80790001D01*
X143439330Y-80792783D01*
X143433199Y-80792740D01*
X143424028Y-80793640D01*
X143229931Y-80814041D01*
X143171348Y-80826066D01*
X143112577Y-80837277D01*
X143103755Y-80839941D01*
X142917317Y-80897653D01*
X142862162Y-80920838D01*
X142806709Y-80943242D01*
X142798573Y-80947568D01*
X142626896Y-81040393D01*
X142577278Y-81073861D01*
X142527247Y-81106600D01*
X142520106Y-81112424D01*
X142369728Y-81236828D01*
X142327589Y-81279263D01*
X142284839Y-81321126D01*
X142278966Y-81328227D01*
X142155616Y-81479469D01*
X142122534Y-81529262D01*
X142088716Y-81578651D01*
X142084333Y-81586757D01*
X141992708Y-81759079D01*
X141969909Y-81814394D01*
X141946348Y-81869366D01*
X141943623Y-81878169D01*
X141887214Y-82065005D01*
X141875594Y-82123693D01*
X141863158Y-82182196D01*
X141862195Y-82191361D01*
X141843152Y-82385574D01*
X141840000Y-82417582D01*
X141840001Y-87467711D01*
X141830420Y-87565424D01*
X141811420Y-87628357D01*
X141780554Y-87686406D01*
X141739011Y-87737343D01*
X141688356Y-87779248D01*
X141630529Y-87810515D01*
X141567728Y-87829956D01*
X141472165Y-87840000D01*
X124407581Y-87840000D01*
X124379326Y-87842783D01*
X124373199Y-87842740D01*
X124364028Y-87843640D01*
X124169931Y-87864041D01*
X124111348Y-87876066D01*
X124052577Y-87887277D01*
X124043755Y-87889941D01*
X123857317Y-87947653D01*
X123802162Y-87970838D01*
X123746709Y-87993242D01*
X123738573Y-87997568D01*
X123566896Y-88090393D01*
X123517278Y-88123861D01*
X123467247Y-88156600D01*
X123460106Y-88162424D01*
X123309728Y-88286828D01*
X123267589Y-88329263D01*
X123224839Y-88371126D01*
X123218966Y-88378227D01*
X123095616Y-88529469D01*
X123062534Y-88579262D01*
X123028716Y-88628651D01*
X123024333Y-88636757D01*
X122932708Y-88809079D01*
X122909909Y-88864394D01*
X122886348Y-88919366D01*
X122883623Y-88928169D01*
X122827214Y-89115005D01*
X122815594Y-89173693D01*
X122803158Y-89232196D01*
X122802195Y-89241361D01*
X122783152Y-89435574D01*
X122780000Y-89467582D01*
X122780000Y-89947721D01*
X122770420Y-90045424D01*
X122751420Y-90108357D01*
X122720554Y-90166406D01*
X122679011Y-90217343D01*
X122628356Y-90259248D01*
X122570529Y-90290515D01*
X122507728Y-90309956D01*
X122413107Y-90319901D01*
X116317779Y-90319901D01*
X116289869Y-90322650D01*
X116286891Y-90322629D01*
X116277720Y-90323528D01*
X116229558Y-90328590D01*
X116220815Y-90329451D01*
X116220523Y-90329539D01*
X116180652Y-90333730D01*
X116122043Y-90345761D01*
X116063291Y-90356968D01*
X116054470Y-90359632D01*
X115961233Y-90388494D01*
X115906077Y-90411680D01*
X115850628Y-90434082D01*
X115842491Y-90438408D01*
X115756635Y-90484830D01*
X115707028Y-90518290D01*
X115656988Y-90551035D01*
X115649847Y-90556860D01*
X115574643Y-90619074D01*
X115532518Y-90661494D01*
X115489752Y-90703374D01*
X115483878Y-90710474D01*
X115422191Y-90786111D01*
X115389107Y-90835906D01*
X115355293Y-90885289D01*
X115350911Y-90893396D01*
X115305089Y-90979574D01*
X115282316Y-91034825D01*
X115258726Y-91089864D01*
X115256002Y-91098667D01*
X115227792Y-91192105D01*
X115216178Y-91250761D01*
X115203736Y-91309296D01*
X115202773Y-91318461D01*
X115193249Y-91415597D01*
X115193249Y-91443494D01*
X115190036Y-91473054D01*
X115190004Y-91482269D01*
X113649881Y-91482269D01*
X113649897Y-91477731D01*
X113649885Y-91474240D01*
X113646971Y-91445541D01*
X113647173Y-91416693D01*
X113646274Y-91407522D01*
X113636072Y-91310454D01*
X113624036Y-91251820D01*
X113612834Y-91193093D01*
X113610170Y-91184272D01*
X113581308Y-91091035D01*
X113558122Y-91035879D01*
X113535720Y-90980430D01*
X113531394Y-90972293D01*
X113484972Y-90886437D01*
X113451512Y-90836830D01*
X113418767Y-90786790D01*
X113412942Y-90779649D01*
X113350728Y-90704445D01*
X113308308Y-90662320D01*
X113266428Y-90619554D01*
X113259328Y-90613680D01*
X113183691Y-90551993D01*
X113133896Y-90518909D01*
X113084513Y-90485095D01*
X113076406Y-90480713D01*
X113076403Y-90480711D01*
X113076400Y-90480710D01*
X112990228Y-90434891D01*
X112934977Y-90412118D01*
X112879938Y-90388528D01*
X112871135Y-90385804D01*
X112777697Y-90357594D01*
X112719041Y-90345980D01*
X112660506Y-90333538D01*
X112651341Y-90332575D01*
X112554205Y-90323051D01*
X112554197Y-90323051D01*
X112522211Y-90319901D01*
X105902279Y-90320000D01*
X105804576Y-90310420D01*
X105741643Y-90291420D01*
X105683594Y-90260554D01*
X105632657Y-90219011D01*
X105590752Y-90168356D01*
X105559485Y-90110529D01*
X105540044Y-90047728D01*
X105530000Y-89952165D01*
X105530000Y-73487279D01*
X105539580Y-73389576D01*
X105558580Y-73326644D01*
X105589445Y-73268595D01*
X105630989Y-73217657D01*
X105681644Y-73175752D01*
X105739471Y-73144485D01*
X105802272Y-73125044D01*
X105897835Y-73115000D01*
X123002420Y-73115000D01*
X123030675Y-73112217D01*
X123036802Y-73112260D01*
X123045973Y-73111360D01*
X123240070Y-73090959D01*
X123298659Y-73078932D01*
X123357424Y-73067723D01*
X123366246Y-73065059D01*
X123552684Y-73007347D01*
X123607839Y-72984162D01*
X123663292Y-72961758D01*
X123671428Y-72957432D01*
X123843105Y-72864607D01*
X123892700Y-72831154D01*
X123942754Y-72798400D01*
X123949895Y-72792576D01*
X124100273Y-72668172D01*
X124142412Y-72625737D01*
X124185162Y-72583874D01*
X124191035Y-72576773D01*
X124314385Y-72425531D01*
X124347478Y-72375723D01*
X124381285Y-72326349D01*
X124385668Y-72318243D01*
X124477293Y-72145920D01*
X124500091Y-72090608D01*
X124523653Y-72035634D01*
X124526378Y-72026831D01*
X124582787Y-71839994D01*
X124594406Y-71781314D01*
X124606843Y-71722804D01*
X124607806Y-71713639D01*
X124626851Y-71519406D01*
X124626851Y-71519401D01*
X124630001Y-71487418D01*
X124630001Y-71010779D01*
X124639581Y-70913076D01*
X124658581Y-70850144D01*
X124689446Y-70792095D01*
X124730990Y-70741157D01*
X124781645Y-70699252D01*
X124839472Y-70667985D01*
X124902273Y-70648544D01*
X124997836Y-70638500D01*
X142052420Y-70638500D01*
X142080675Y-70635717D01*
X142086802Y-70635760D01*
X142095973Y-70634860D01*
X142290070Y-70614459D01*
X142348659Y-70602432D01*
X142407424Y-70591223D01*
X142416246Y-70588559D01*
X142602684Y-70530847D01*
X142657839Y-70507662D01*
X142713292Y-70485258D01*
X142721428Y-70480932D01*
X142893105Y-70388107D01*
X142942700Y-70354654D01*
X142992754Y-70321900D01*
X142999895Y-70316076D01*
X143150273Y-70191672D01*
X143192412Y-70149237D01*
X143235162Y-70107374D01*
X143241035Y-70100273D01*
X143364385Y-69949031D01*
X143397478Y-69899223D01*
X143431285Y-69849849D01*
X143435668Y-69841743D01*
X143527293Y-69669420D01*
X143550091Y-69614108D01*
X143573653Y-69559134D01*
X143576378Y-69550331D01*
X143632787Y-69363494D01*
X143644406Y-69304814D01*
X143656843Y-69246304D01*
X143657806Y-69237139D01*
X143676851Y-69042906D01*
X143676851Y-69042902D01*
X143680001Y-69010919D01*
X143680001Y-63962279D01*
X143689581Y-63864576D01*
X143708581Y-63801644D01*
X143739446Y-63743595D01*
X143780990Y-63692657D01*
X143831645Y-63650752D01*
X143889472Y-63619485D01*
X143952273Y-63600044D01*
X144047836Y-63590000D01*
X161102420Y-63590000D01*
X161130675Y-63587217D01*
X161136802Y-63587260D01*
X161145973Y-63586360D01*
X161340070Y-63565959D01*
X161398659Y-63553932D01*
X161457424Y-63542723D01*
X161466246Y-63540059D01*
X161652684Y-63482347D01*
X161707839Y-63459162D01*
X161763292Y-63436758D01*
X161771428Y-63432432D01*
X161943105Y-63339607D01*
X161992700Y-63306154D01*
X162042754Y-63273400D01*
X162049895Y-63267576D01*
X162200273Y-63143172D01*
X162242412Y-63100737D01*
X162285162Y-63058874D01*
X162291035Y-63051773D01*
X162414385Y-62900531D01*
X162447478Y-62850723D01*
X162481285Y-62801349D01*
X162485668Y-62793243D01*
X162577293Y-62620920D01*
X162600091Y-62565608D01*
X162623653Y-62510634D01*
X162626378Y-62501831D01*
X162682787Y-62314994D01*
X162694406Y-62256314D01*
X162706843Y-62197804D01*
X162707806Y-62188639D01*
X162726851Y-61994406D01*
X162726851Y-61994402D01*
X162730001Y-61962419D01*
X162730001Y-59199779D01*
X162739581Y-59102076D01*
X162758581Y-59039144D01*
X162789446Y-58981095D01*
X162830990Y-58930157D01*
X162881645Y-58888252D01*
X162939472Y-58856985D01*
X163002273Y-58837544D01*
X163097836Y-58827500D01*
X180037722Y-58827500D01*
X180135425Y-58837080D01*
M02*
