M48
; DRILL file {KiCad (5.1.2)-2} date 12/11/2019 23:35:49
; FORMAT={-:-/ absolute / inch / decimal}
; #@! TF.CreationDate,2019-11-12T23:35:49+08:00
; #@! TF.GenerationSoftware,Kicad,Pcbnew,(5.1.2)-2
; #@! TF.FileFunction,NonPlated,1,2,NPTH
FMAT,2
INCH
T1C0.0197
T2C0.0394
T3C0.0472
T4C0.0669
T5C0.0748
T6C0.1457
T7C0.1575
%
G90
G05
T1
X7.6039Y-2.1394
X7.5291Y-2.239
X5.9902Y-2.0831
X6.0823Y-1.972
X6.0976Y-2.0677
X7.4654Y-2.1571
X5.9689Y-2.0543
X7.4697Y-2.1953
X6.0031Y-1.9626
X6.0717Y-2.0921
X7.5425Y-2.0945
X6.1035Y-1.9992
X7.4933Y-2.2244
X5.9772Y-1.9854
X6.1094Y-2.0343
X5.965Y-2.0189
X7.5799Y-2.1083
X7.6087Y-2.1783
T2
X5.4563Y-3.0815
X5.8673Y-3.0815
X6.2063Y-2.8941
X6.6173Y-2.8941
X3.9563Y-4.2067
X4.3673Y-4.2067
X3.2063Y-3.2689
X3.6173Y-3.2689
X6.2063Y-1.3941
X6.6173Y-1.3941
X3.9563Y-3.4567
X4.3673Y-3.4567
X6.9563Y-2.3319
X7.3673Y-2.3319
X7.7063Y-1.6717
X8.1173Y-1.6717
X6.9563Y-3.8319
X7.3673Y-3.8319
X7.7063Y-3.1717
X8.1173Y-3.1717
X8.4563Y-4.7689
X8.8673Y-4.7689
X6.9563Y-3.0819
X7.3673Y-3.0819
X6.9563Y-4.5819
X7.3673Y-4.5819
X5.4563Y-2.3315
X5.8673Y-2.3315
X4.7063Y-4.1091
X5.1173Y-4.1091
X4.7063Y-1.8591
X5.1173Y-1.8591
X6.2063Y-3.6441
X6.6173Y-3.6441
X5.4563Y-3.8315
X5.8673Y-3.8315
X3.9563Y-1.9567
X4.3673Y-1.9567
X7.7063Y-4.6717
X8.1173Y-4.6717
X5.4563Y-1.5815
X5.8673Y-1.5815
X3.9563Y-2.7067
X4.3673Y-2.7067
X7.7063Y-3.9217
X8.1173Y-3.9217
X6.9563Y-1.5819
X7.3673Y-1.5819
X7.7063Y-2.4217
X8.1173Y-2.4217
X6.2063Y-2.1441
X6.6173Y-2.1441
X4.7063Y-3.3591
X5.1173Y-3.3591
X4.7063Y-2.6091
X5.1173Y-2.6091
T3
X8.6264Y-4.2024
X8.902Y-4.2024
T4
X6.2118Y-3.0594
X6.6118Y-3.0594
X3.9618Y-4.372
X4.3618Y-4.372
X3.2118Y-3.4343
X3.6118Y-3.4343
X6.2118Y-1.5594
X6.6118Y-1.5594
X3.9618Y-3.622
X4.3618Y-3.622
X6.9618Y-2.4972
X7.3618Y-2.4972
X7.7118Y-1.837
X8.1118Y-1.837
X6.9618Y-3.9972
X7.3618Y-3.9972
X7.7118Y-3.337
X8.1118Y-3.337
X8.4618Y-4.9343
X8.8618Y-4.9343
X6.9618Y-3.2472
X7.3618Y-3.2472
X6.9618Y-4.7472
X7.3618Y-4.7472
X5.4618Y-2.4969
X5.8618Y-2.4969
X4.7118Y-4.2744
X5.1118Y-4.2744
X4.7118Y-2.0244
X5.1118Y-2.0244
X6.2118Y-3.8094
X6.6118Y-3.8094
X5.4618Y-3.9969
X5.8618Y-3.9969
X3.9618Y-2.122
X4.3618Y-2.122
X7.7118Y-4.837
X8.1118Y-4.837
X5.4618Y-1.7469
X5.8618Y-1.7469
X3.9618Y-2.872
X4.3618Y-2.872
X7.7118Y-4.087
X8.1118Y-4.087
X6.9618Y-1.7472
X7.3618Y-1.7472
X7.7118Y-2.587
X8.1118Y-2.587
X6.2118Y-2.3094
X6.6118Y-2.3094
X4.7118Y-3.5244
X5.1118Y-3.5244
X4.7118Y-2.7744
X5.1118Y-2.7744
X5.4618Y-3.2469
X5.8618Y-3.2469
T5
X7.6953Y-3.337
X8.1283Y-3.337
X8.4453Y-4.9343
X8.8783Y-4.9343
X6.9453Y-3.2472
X7.3783Y-3.2472
X6.9453Y-4.7472
X7.3783Y-4.7472
X5.4453Y-2.4969
X5.8783Y-2.4969
X4.6953Y-4.2744
X5.1283Y-4.2744
X4.6953Y-2.0244
X5.1283Y-2.0244
X6.1953Y-3.8094
X6.6283Y-3.8094
X5.4453Y-3.9969
X5.8783Y-3.9969
X3.9453Y-2.122
X4.3783Y-2.122
X7.6953Y-4.837
X8.1283Y-4.837
X5.4453Y-1.7469
X5.8783Y-1.7469
X3.9453Y-2.872
X4.3783Y-2.872
X7.6953Y-4.087
X8.1283Y-4.087
X6.9453Y-1.7472
X7.3783Y-1.7472
X7.6953Y-2.587
X8.1283Y-2.587
X6.1953Y-2.3094
X6.6283Y-2.3094
X4.6953Y-3.5244
X5.1283Y-3.5244
X4.6953Y-2.7744
X5.1283Y-2.7744
X5.4453Y-3.2469
X5.8783Y-3.2469
X6.1953Y-3.0594
X6.6283Y-3.0594
X3.9453Y-4.372
X4.3783Y-4.372
X3.1953Y-3.4343
X3.6283Y-3.4343
X6.1953Y-1.5594
X6.6283Y-1.5594
X3.9453Y-3.622
X4.3783Y-3.622
X6.9453Y-2.4972
X7.3783Y-2.4972
X7.6953Y-1.837
X8.1283Y-1.837
X6.9453Y-3.9972
X7.3783Y-3.9972
T6
X4.5368Y-3.9481
X3.7858Y-3.2479
X7.5368Y-2.9169
X7.5368Y-4.4169
X6.0346Y-2.7776
T7
X6.4118Y-3.0594
X4.1618Y-4.372
X3.4118Y-3.4343
X6.4118Y-1.5594
X4.1618Y-3.622
X7.1618Y-2.4972
X7.9118Y-1.837
X7.1618Y-3.9972
X7.9118Y-3.337
X8.6618Y-4.9343
X7.1618Y-3.2472
X7.1618Y-4.7472
X5.6618Y-2.4969
X4.9118Y-4.2744
X4.9118Y-2.0244
X6.4118Y-3.8094
X5.6618Y-3.9969
X4.1618Y-2.122
X7.9118Y-4.837
X5.6618Y-1.7469
X4.1618Y-2.872
X7.9118Y-4.087
X7.1618Y-1.7472
X7.9118Y-2.587
X6.4118Y-2.3094
X4.9118Y-3.5244
X4.9118Y-2.7744
X5.6618Y-3.2469
T0
M30
