M48
; DRILL file {KiCad (5.1.2)-2} date 12/11/2019 23:35:49
; FORMAT={-:-/ absolute / inch / decimal}
; #@! TF.CreationDate,2019-11-12T23:35:49+08:00
; #@! TF.GenerationSoftware,Kicad,Pcbnew,(5.1.2)-2
; #@! TF.FileFunction,Plated,1,2,PTH
FMAT,2
INCH
T1C0.0157
T2C0.0319
T3C0.0320
T4C0.0394
T5C0.0472
T6C0.0512
T7C0.0591
T8C0.0866
%
G90
G05
T1
X4.0303Y-4.2833
X5.549Y-2.437
X7.6989Y-3.216
X7.7651Y-3.691
X7.8579Y-3.606
X8.1705Y-3.2055
X8.2385Y-3.2983
X8.3616Y-4.6324
X8.3992Y-3.8942
X8.4236Y-3.755
X8.4475Y-3.3611
X8.4479Y-3.2977
X8.4711Y-3.2204
X8.5448Y-3.0017
X8.6665Y-3.5243
X8.6804Y-3.374
X8.6908Y-3.4322
X8.7996Y-3.5471
X8.8007Y-2.9204
X8.8366Y-3.4959
T3
X6.2618Y-3.4937
X6.5618Y-3.4937
X6.0858Y-1.4094
X6.0858Y-1.7094
X6.0858Y-2.1594
X6.0858Y-2.4594
X8.5071Y-3.8831
X8.8071Y-3.8831
X6.8358Y-1.5972
X6.8358Y-1.8972
X6.8358Y-2.3472
X6.8358Y-2.6472
X4.7618Y-3.9587
X5.0618Y-3.9587
X4.5858Y-2.6244
X4.5858Y-2.9244
X7.0118Y-4.4315
X7.3118Y-4.4315
X7.0118Y-2.1815
X7.3118Y-2.1815
X3.8358Y-3.472
X3.8358Y-3.772
X4.0118Y-4.0563
X4.3118Y-4.0563
X4.0118Y-3.3063
X4.3118Y-3.3063
X4.5858Y-3.3744
X4.5858Y-3.6744
X4.0118Y-1.8083
X4.3118Y-1.8083
X6.0858Y-3.6594
X6.0858Y-3.9594
X5.5118Y-1.4311
X5.8118Y-1.4311
X4.5858Y-1.8744
X4.5858Y-2.1744
X4.7618Y-2.4587
X5.0618Y-2.4587
X5.3358Y-1.5969
X5.3358Y-1.8969
X5.5118Y-2.1811
X5.8118Y-2.1811
X8.5071Y-3.9976
X8.8071Y-3.9976
X7.7618Y-3.7713
X8.0618Y-3.7713
X5.3358Y-3.0969
X5.3358Y-3.3969
X6.2618Y-2.7437
X6.5618Y-2.7437
X4.5858Y-4.1244
X4.5858Y-4.4244
X4.7618Y-3.2087
X5.0618Y-3.2087
X3.8358Y-2.722
X3.8358Y-3.022
X7.7618Y-3.0213
X8.0618Y-3.0213
X7.7618Y-2.2713
X8.0618Y-2.2713
X6.8358Y-3.0972
X6.8358Y-3.3972
X5.5118Y-2.9311
X5.8118Y-2.9311
X6.8358Y-4.5972
X6.8358Y-4.8972
X6.8358Y-3.8472
X6.8358Y-4.1472
X3.0858Y-3.2843
X3.0858Y-3.5843
X5.3358Y-2.3469
X5.3358Y-2.6469
X6.2618Y-1.2437
X6.5618Y-1.2437
X4.7618Y-1.7087
X5.0618Y-1.7087
X4.0118Y-2.5563
X4.3118Y-2.5563
X7.0118Y-2.9315
X7.3118Y-2.9315
X3.8358Y-1.972
X3.8358Y-2.272
X8.5071Y-3.7685
X8.8071Y-3.7685
X7.5858Y-3.187
X7.5858Y-3.487
X5.5118Y-3.6811
X5.8118Y-3.6811
X7.5858Y-1.687
X7.5858Y-1.987
X7.0118Y-3.6815
X7.3118Y-3.6815
X6.0858Y-2.9094
X6.0858Y-3.2094
X3.2618Y-3.1185
X3.5618Y-3.1185
X7.5858Y-3.937
X7.5858Y-4.237
X3.8358Y-4.222
X3.8358Y-4.522
X7.7618Y-4.5213
X8.0618Y-4.5213
X8.3358Y-4.7843
X8.3358Y-5.0843
X5.3358Y-3.8469
X5.3358Y-4.1469
X7.5858Y-4.687
X7.5858Y-4.987
X7.5858Y-2.437
X7.5858Y-2.737
X7.7618Y-1.5213
X8.0618Y-1.5213
X7.0118Y-1.4315
X7.3118Y-1.4315
X8.5118Y-4.6185
X8.8118Y-4.6185
X8.3327Y-2.5717
X8.3327Y-2.6717
X8.3327Y-2.7717
X8.3327Y-2.8717
X8.3327Y-2.9717
X8.3327Y-3.0717
X8.3327Y-3.1717
X8.3327Y-3.2717
X8.3327Y-3.3717
X8.3327Y-3.4717
X8.3327Y-3.5717
X8.3327Y-3.6717
X8.3849Y-2.5217
X8.3849Y-2.6217
X8.3849Y-2.7217
X8.3849Y-2.8217
X8.3849Y-2.9217
X8.3849Y-3.0217
X8.3849Y-3.1217
X8.3849Y-3.2217
X8.3849Y-3.3217
X8.3849Y-3.4217
X8.3849Y-3.5217
X8.3849Y-3.6217
X8.9327Y-2.5717
X8.9327Y-2.6717
X8.9327Y-2.7717
X8.9327Y-2.8717
X8.9327Y-2.9717
X8.9327Y-3.0717
X8.9327Y-3.1717
X8.9327Y-3.2717
X8.9327Y-3.3717
X8.9327Y-3.4717
X8.9327Y-3.5717
X8.9327Y-3.6717
X8.9841Y-2.5217
X8.9841Y-2.6217
X8.9841Y-2.7217
X8.9841Y-2.8217
X8.9841Y-2.9217
X8.9841Y-3.0217
X8.9841Y-3.1217
X8.9841Y-3.2217
X8.9841Y-3.3217
X8.9841Y-3.4217
X8.9841Y-3.5217
X8.9841Y-3.6217
X6.2618Y-1.9937
X6.5618Y-1.9937
T4
X7.8618Y-2.387
X7.9618Y-2.387
X6.3618Y-2.1094
X6.4618Y-2.1094
X4.8618Y-4.0744
X4.9618Y-4.0744
X5.6118Y-3.0469
X5.7118Y-3.0469
X7.8618Y-3.137
X7.9618Y-3.137
X7.8618Y-4.637
X7.9618Y-4.637
X4.1118Y-4.172
X4.2118Y-4.172
X5.6118Y-1.5469
X5.7118Y-1.5469
X7.1118Y-3.7972
X7.2118Y-3.7972
X4.1118Y-1.922
X4.2118Y-1.922
X5.6118Y-2.2969
X5.7118Y-2.2969
X4.1118Y-3.422
X4.2118Y-3.422
X7.1118Y-3.0472
X7.2118Y-3.0472
X8.6118Y-4.7343
X8.7118Y-4.7343
X4.1118Y-2.672
X4.2118Y-2.672
X6.3618Y-3.6094
X6.4618Y-3.6094
X6.3618Y-1.3594
X6.4618Y-1.3594
X7.8618Y-3.887
X7.9618Y-3.887
X7.1118Y-2.2972
X7.2118Y-2.2972
X4.8618Y-1.8244
X4.9618Y-1.8244
X4.8618Y-3.3244
X4.9618Y-3.3244
X7.8618Y-1.637
X7.9618Y-1.637
X7.1118Y-4.5472
X7.2118Y-4.5472
X3.3618Y-3.2343
X3.4618Y-3.2343
X6.3618Y-2.8594
X6.4618Y-2.8594
X4.8618Y-2.5744
X4.9618Y-2.5744
X5.6118Y-3.7969
X5.7118Y-3.7969
X7.1118Y-1.5472
X7.2118Y-1.5472
T5
X3.961Y-3.0217
X4.3626Y-3.0217
X7.711Y-4.2366
X8.1126Y-4.2366
X6.961Y-1.8969
X7.3626Y-1.8969
X7.711Y-2.7366
X8.1126Y-2.7366
X6.211Y-2.4591
X6.6126Y-2.4591
X4.711Y-3.674
X5.1126Y-3.674
X4.711Y-2.924
X5.1126Y-2.924
X5.461Y-3.3965
X5.8626Y-3.3965
X6.211Y-3.2091
X6.6126Y-3.2091
X3.961Y-4.5217
X4.3626Y-4.5217
X3.211Y-3.5839
X3.6126Y-3.5839
X6.211Y-1.7091
X6.6126Y-1.7091
X3.961Y-3.7717
X4.3626Y-3.7717
X6.961Y-2.6469
X7.3626Y-2.6469
X7.711Y-1.9866
X8.1126Y-1.9866
X6.961Y-4.1469
X7.3626Y-4.1469
X7.711Y-3.4866
X8.1126Y-3.4866
X8.461Y-5.0839
X8.8626Y-5.0839
X6.961Y-3.3969
X7.3626Y-3.3969
X6.961Y-4.8969
X7.3626Y-4.8969
X5.461Y-2.6465
X5.8626Y-2.6465
X4.711Y-4.424
X5.1126Y-4.424
X4.711Y-2.174
X5.1126Y-2.174
X6.211Y-3.9591
X6.6126Y-3.9591
X5.461Y-4.1465
X5.8626Y-4.1465
X3.961Y-2.2717
X4.3626Y-2.2717
X7.711Y-4.9866
X8.1126Y-4.9866
X5.461Y-1.8965
X5.8626Y-1.8965
T6
X8.9598Y-3.7736
X8.9598Y-4.0295
T7
X7.0118Y-4.0933
X7.3118Y-4.0933
X7.7618Y-3.4331
X8.0618Y-3.4331
X8.5118Y-5.0303
X8.8118Y-5.0303
X7.0118Y-3.3433
X7.3118Y-3.3433
X7.0118Y-4.8433
X7.3118Y-4.8433
X5.5118Y-2.5929
X5.8118Y-2.5929
X4.7618Y-4.3705
X5.0618Y-4.3705
X4.7618Y-2.1205
X5.0618Y-2.1205
X6.2618Y-3.9055
X6.5618Y-3.9055
X5.5118Y-4.0929
X5.8118Y-4.0929
X4.0118Y-2.2181
X4.3118Y-2.2181
X7.7618Y-4.9331
X8.0618Y-4.9331
X5.5118Y-1.8429
X5.8118Y-1.8429
X4.0118Y-2.9681
X4.3118Y-2.9681
X7.7618Y-4.1831
X8.0618Y-4.1831
X7.0118Y-1.8433
X7.3118Y-1.8433
X7.7618Y-2.6831
X8.0618Y-2.6831
X6.2618Y-2.4055
X6.5618Y-2.4055
X4.7618Y-3.6205
X5.0618Y-3.6205
X4.7618Y-2.8705
X5.0618Y-2.8705
X5.5118Y-3.3429
X5.8118Y-3.3429
X6.2618Y-3.1555
X6.5618Y-3.1555
X4.0118Y-4.4681
X4.3118Y-4.4681
X3.2618Y-3.5303
X3.5618Y-3.5303
X6.2618Y-1.6555
X6.5618Y-1.6555
X4.0118Y-3.7181
X4.3118Y-3.7181
X7.0118Y-2.5933
X7.3118Y-2.5933
X7.7618Y-1.9331
X8.0618Y-1.9331
T8
X8.3862Y-4.4423
X8.9374Y-4.4423
T2
G00X6.4118Y-2.528
M15
G01X6.4118Y-2.528
M16
G05
G00X4.9118Y-3.7429
M15
G01X4.9118Y-3.7429
M16
G05
G00X4.9118Y-2.9929
M15
G01X4.9118Y-2.9929
M16
G05
G00X5.6618Y-3.4654
M15
G01X5.6618Y-3.4654
M16
G05
G00X6.4118Y-3.278
M15
G01X6.4118Y-3.278
M16
G05
G00X4.1618Y-4.5906
M15
G01X4.1618Y-4.5906
M16
G05
G00X3.4118Y-3.6528
M15
G01X3.4118Y-3.6528
M16
G05
G00X6.4118Y-1.778
M15
G01X6.4118Y-1.778
M16
G05
G00X4.1618Y-3.8406
M15
G01X4.1618Y-3.8406
M16
G05
G00X7.1618Y-2.7157
M15
G01X7.1618Y-2.7157
M16
G05
G00X7.9118Y-2.0555
M15
G01X7.9118Y-2.0555
M16
G05
G00X7.1618Y-4.2157
M15
G01X7.1618Y-4.2157
M16
G05
G00X7.9118Y-3.5555
M15
G01X7.9118Y-3.5555
M16
G05
G00X8.6618Y-5.1528
M15
G01X8.6618Y-5.1528
M16
G05
G00X7.1618Y-3.4657
M15
G01X7.1618Y-3.4657
M16
G05
G00X7.1618Y-4.9657
M15
G01X7.1618Y-4.9657
M16
G05
G00X5.6618Y-2.7154
M15
G01X5.6618Y-2.7154
M16
G05
G00X4.9118Y-4.4929
M15
G01X4.9118Y-4.4929
M16
G05
G00X4.9118Y-2.2429
M15
G01X4.9118Y-2.2429
M16
G05
G00X6.4118Y-4.028
M15
G01X6.4118Y-4.028
M16
G05
G00X5.6618Y-4.2154
M15
G01X5.6618Y-4.2154
M16
G05
G00X4.1618Y-2.3406
M15
G01X4.1618Y-2.3406
M16
G05
G00X7.9118Y-5.0555
M15
G01X7.9118Y-5.0555
M16
G05
G00X5.6618Y-1.9654
M15
G01X5.6618Y-1.9654
M16
G05
G00X4.1618Y-3.0906
M15
G01X4.1618Y-3.0906
M16
G05
G00X7.9118Y-4.3055
M15
G01X7.9118Y-4.3055
M16
G05
G00X7.1618Y-1.9657
M15
G01X7.1618Y-1.9657
M16
G05
G00X7.9118Y-2.8055
M15
G01X7.9118Y-2.8055
M16
G05
T4
G00X8.5654Y-4.1197
M15
G01X8.4866Y-4.1197
M16
G05
G00X8.5654Y-4.285
M15
G01X8.4866Y-4.285
M16
G05
G00X8.7228Y-4.1207
M15
G01X8.7031Y-4.1207
M16
G05
G00X8.7228Y-4.285
M15
G01X8.7031Y-4.285
M16
G05
G00X8.8409Y-4.1207
M15
G01X8.8213Y-4.1207
M16
G05
G00X8.8409Y-4.285
M15
G01X8.8213Y-4.285
M16
G05
T7
G00X7.0618Y-4.1882
M15
G01X7.0618Y-4.1488
M16
G05
G00X7.2618Y-4.1882
M15
G01X7.2618Y-4.1488
M16
G05
G00X7.8118Y-3.528
M15
G01X7.8118Y-3.4886
M16
G05
G00X8.0118Y-3.528
M15
G01X8.0118Y-3.4886
M16
G05
G00X8.5618Y-5.1252
M15
G01X8.5618Y-5.0858
M16
G05
G00X8.7618Y-5.1252
M15
G01X8.7618Y-5.0858
M16
G05
G00X7.0618Y-3.4382
M15
G01X7.0618Y-3.3988
M16
G05
G00X7.2618Y-3.4382
M15
G01X7.2618Y-3.3988
M16
G05
G00X7.0618Y-4.9382
M15
G01X7.0618Y-4.8988
M16
G05
G00X7.2618Y-4.9382
M15
G01X7.2618Y-4.8988
M16
G05
G00X5.5618Y-2.6878
M15
G01X5.5618Y-2.6484
M16
G05
G00X5.7618Y-2.6878
M15
G01X5.7618Y-2.6484
M16
G05
G00X4.8118Y-4.4654
M15
G01X4.8118Y-4.426
M16
G05
G00X5.0118Y-4.4654
M15
G01X5.0118Y-4.426
M16
G05
G00X4.8118Y-2.2154
M15
G01X4.8118Y-2.176
M16
G05
G00X5.0118Y-2.2154
M15
G01X5.0118Y-2.176
M16
G05
G00X6.3118Y-4.0004
M15
G01X6.3118Y-3.961
M16
G05
G00X6.5118Y-4.0004
M15
G01X6.5118Y-3.961
M16
G05
G00X5.5618Y-4.1878
M15
G01X5.5618Y-4.1484
M16
G05
G00X5.7618Y-4.1878
M15
G01X5.7618Y-4.1484
M16
G05
G00X4.0618Y-2.313
M15
G01X4.0618Y-2.2736
M16
G05
G00X4.2618Y-2.313
M15
G01X4.2618Y-2.2736
M16
G05
G00X7.8118Y-5.028
M15
G01X7.8118Y-4.9886
M16
G05
G00X8.0118Y-5.028
M15
G01X8.0118Y-4.9886
M16
G05
G00X5.5618Y-1.9378
M15
G01X5.5618Y-1.8984
M16
G05
G00X5.7618Y-1.9378
M15
G01X5.7618Y-1.8984
M16
G05
G00X4.0618Y-3.063
M15
G01X4.0618Y-3.0236
M16
G05
G00X4.2618Y-3.063
M15
G01X4.2618Y-3.0236
M16
G05
G00X7.8118Y-4.278
M15
G01X7.8118Y-4.2386
M16
G05
G00X8.0118Y-4.278
M15
G01X8.0118Y-4.2386
M16
G05
G00X7.0618Y-1.9382
M15
G01X7.0618Y-1.8988
M16
G05
G00X7.2618Y-1.9382
M15
G01X7.2618Y-1.8988
M16
G05
G00X7.8118Y-2.778
M15
G01X7.8118Y-2.7386
M16
G05
G00X8.0118Y-2.778
M15
G01X8.0118Y-2.7386
M16
G05
G00X6.3118Y-2.5004
M15
G01X6.3118Y-2.461
M16
G05
G00X6.5118Y-2.5004
M15
G01X6.5118Y-2.461
M16
G05
G00X4.8118Y-3.7154
M15
G01X4.8118Y-3.676
M16
G05
G00X5.0118Y-3.7154
M15
G01X5.0118Y-3.676
M16
G05
G00X4.8118Y-2.9654
M15
G01X4.8118Y-2.926
M16
G05
G00X5.0118Y-2.9654
M15
G01X5.0118Y-2.926
M16
G05
G00X5.5618Y-3.4378
M15
G01X5.5618Y-3.3984
M16
G05
G00X5.7618Y-3.4378
M15
G01X5.7618Y-3.3984
M16
G05
G00X6.3118Y-3.2504
M15
G01X6.3118Y-3.211
M16
G05
G00X6.5118Y-3.2504
M15
G01X6.5118Y-3.211
M16
G05
G00X4.0618Y-4.563
M15
G01X4.0618Y-4.5236
M16
G05
G00X4.2618Y-4.563
M15
G01X4.2618Y-4.5236
M16
G05
G00X3.3118Y-3.6252
M15
G01X3.3118Y-3.5858
M16
G05
G00X3.5118Y-3.6252
M15
G01X3.5118Y-3.5858
M16
G05
G00X6.3118Y-1.7504
M15
G01X6.3118Y-1.711
M16
G05
G00X6.5118Y-1.7504
M15
G01X6.5118Y-1.711
M16
G05
G00X4.0618Y-3.813
M15
G01X4.0618Y-3.7736
M16
G05
G00X4.2618Y-3.813
M15
G01X4.2618Y-3.7736
M16
G05
G00X7.0618Y-2.6882
M15
G01X7.0618Y-2.6488
M16
G05
G00X7.2618Y-2.6882
M15
G01X7.2618Y-2.6488
M16
G05
G00X7.8118Y-2.028
M15
G01X7.8118Y-1.9886
M16
G05
G00X8.0118Y-2.028
M15
G01X8.0118Y-1.9886
M16
G05
T0
M30
