M48
; DRILL file {KiCad (5.1.2)-2} date 26/02/2020 20:05:51
; FORMAT={-:-/ absolute / inch / decimal}
; #@! TF.CreationDate,2020-02-26T20:05:51+08:00
; #@! TF.GenerationSoftware,Kicad,Pcbnew,(5.1.2)-2
; #@! TF.FileFunction,NonPlated,1,2,NPTH
FMAT,2
INCH
T1C0.0472
T2C0.0669
T3C0.0748
T4C0.0866
T5C0.1575
%
G90
G05
T1
X8.6264Y-4.2024
X8.902Y-4.2024
T2
X3.9618Y-2.872
X4.3618Y-2.872
X6.9618Y-3.2472
X7.3618Y-3.2472
X5.4618Y-2.4969
X5.8618Y-2.4969
X4.7118Y-2.0244
X5.1118Y-2.0244
X3.9618Y-4.372
X4.3618Y-4.372
X7.7118Y-2.587
X8.1118Y-2.587
X6.9618Y-4.7472
X7.3618Y-4.7472
X5.4618Y-3.9969
X5.8618Y-3.9969
X4.7118Y-3.5244
X5.1118Y-3.5244
X6.2118Y-3.0594
X6.6118Y-3.0594
X6.9618Y-1.7472
X7.3618Y-1.7472
X6.2118Y-2.3094
X6.6118Y-2.3094
X8.4618Y-4.9343
X8.8618Y-4.9343
X5.4618Y-1.7469
X5.8618Y-1.7469
X7.7118Y-4.087
X8.1118Y-4.087
X6.2118Y-1.5594
X6.6118Y-1.5594
X4.7118Y-4.2744
X5.1118Y-4.2744
X6.2118Y-3.8094
X6.6118Y-3.8094
X5.4618Y-3.2469
X5.8618Y-3.2469
X7.7118Y-3.337
X8.1118Y-3.337
X3.9618Y-2.122
X4.3618Y-2.122
X6.9618Y-2.4972
X7.3618Y-2.4972
X4.7118Y-2.7744
X5.1118Y-2.7744
X7.7118Y-1.837
X8.1118Y-1.837
X6.9618Y-3.9972
X7.3618Y-3.9972
X7.7118Y-4.837
X8.1118Y-4.837
X3.2118Y-3.4343
X3.6118Y-3.4343
X3.9618Y-3.622
X4.3618Y-3.622
T3
X5.4453Y-3.2469
X5.8783Y-3.2469
X7.6953Y-3.337
X8.1283Y-3.337
X3.9453Y-2.122
X4.3783Y-2.122
X6.9453Y-2.4972
X7.3783Y-2.4972
X4.6953Y-2.7744
X5.1283Y-2.7744
X7.6953Y-1.837
X8.1283Y-1.837
X6.9453Y-3.9972
X7.3783Y-3.9972
X7.6953Y-4.837
X8.1283Y-4.837
X3.1953Y-3.4343
X3.6283Y-3.4343
X3.9453Y-3.622
X4.3783Y-3.622
X3.9453Y-2.872
X4.3783Y-2.872
X6.9453Y-3.2472
X7.3783Y-3.2472
X5.4453Y-2.4969
X5.8783Y-2.4969
X4.6953Y-2.0244
X5.1283Y-2.0244
X3.9453Y-4.372
X4.3783Y-4.372
X7.6953Y-2.587
X8.1283Y-2.587
X6.9453Y-4.7472
X7.3783Y-4.7472
X5.4453Y-3.9969
X5.8783Y-3.9969
X4.6953Y-3.5244
X5.1283Y-3.5244
X6.1953Y-3.0594
X6.6283Y-3.0594
X6.9453Y-1.7472
X7.3783Y-1.7472
X6.1953Y-2.3094
X6.6283Y-2.3094
X8.4453Y-4.9343
X8.8783Y-4.9343
X5.4453Y-1.7469
X5.8783Y-1.7469
X7.6953Y-4.087
X8.1283Y-4.087
X6.1953Y-1.5594
X6.6283Y-1.5594
X4.6953Y-4.2744
X5.1283Y-4.2744
X6.1953Y-3.8094
X6.6283Y-3.8094
T4
X4.5368Y-3.9481
X7.5368Y-2.1671
X7.5368Y-4.4169
X6.0368Y-2.0284
X7.5368Y-2.9169
X3.7858Y-3.2479
X6.0346Y-2.7776
X4.5368Y-3.1984
T5
X5.6618Y-2.4969
X4.9118Y-2.0244
X4.1618Y-4.372
X7.9118Y-2.587
X7.1618Y-4.7472
X5.6618Y-3.9969
X4.9118Y-3.5244
X6.4118Y-3.0594
X7.1618Y-1.7472
X6.4118Y-2.3094
X8.6618Y-4.9343
X5.6618Y-1.7469
X7.9118Y-4.087
X6.4118Y-1.5594
X4.9118Y-4.2744
X6.4118Y-3.8094
X5.6618Y-3.2469
X7.9118Y-3.337
X4.1618Y-2.122
X7.1618Y-2.4972
X4.9118Y-2.7744
X7.9118Y-1.837
X7.1618Y-3.9972
X7.9118Y-4.837
X3.4118Y-3.4343
X4.1618Y-3.622
X4.1618Y-2.872
X7.1618Y-3.2472
T0
M30
