G04 #@! TF.GenerationSoftware,KiCad,Pcbnew,(5.1.2)-2*
G04 #@! TF.CreationDate,2019-11-12T23:35:46+08:00*
G04 #@! TF.ProjectId,Pcb,5063622e-6b69-4636-9164-5f7063625858,rev?*
G04 #@! TF.SameCoordinates,Original*
G04 #@! TF.FileFunction,Profile,NP*
%FSLAX46Y46*%
G04 Gerber Fmt 4.6, Leading zero omitted, Abs format (unit mm)*
G04 Created by KiCad (PCBNEW (5.1.2)-2) date 2019-11-12 23:35:46*
%MOMM*%
%LPD*%
G04 APERTURE LIST*
%ADD10C,0.050000*%
G04 APERTURE END LIST*
D10*
X209460000Y-56690000D02*
G75*
G02X210460000Y-57690000I0J-1000000D01*
G01*
X211460000Y-59166500D02*
G75*
G02X210460000Y-58166500I0J1000000D01*
G01*
X209510000Y-132360000D02*
G75*
G02X210510000Y-133360000I0J-1000000D01*
G01*
X210460000Y-57690000D02*
X210460000Y-58166500D01*
X202380000Y-56690099D02*
X209460000Y-56690000D01*
X202380000Y-55689901D02*
X209460000Y-55689901D01*
X164290099Y-49640099D02*
X170880000Y-49640000D01*
X164290099Y-48639901D02*
X171880000Y-48640000D01*
X145240099Y-54390099D02*
X152840000Y-54390000D01*
X145240099Y-53389901D02*
X151840000Y-53390000D01*
X107140099Y-63920099D02*
X114730000Y-63920099D01*
X107140099Y-62919901D02*
X113730000Y-62919901D01*
X164290099Y-49640099D02*
G75*
G02X163790000Y-49140000I0J500099D01*
G01*
X163790000Y-49140000D02*
G75*
G02X164290099Y-48639901I500099J0D01*
G01*
X161930099Y-49139901D02*
G75*
G02X161430000Y-49640000I-500099J0D01*
G01*
X161429901Y-48639901D02*
G75*
G02X161930000Y-49140000I0J-500099D01*
G01*
X145240099Y-54390099D02*
G75*
G02X144740000Y-53890000I0J500099D01*
G01*
X144740000Y-53890000D02*
G75*
G02X145240099Y-53389901I500099J0D01*
G01*
X142880099Y-53889901D02*
G75*
G02X142380000Y-54390000I-500099J0D01*
G01*
X142379901Y-53389901D02*
G75*
G02X142880000Y-53890000I0J-500099D01*
G01*
X202380000Y-56690099D02*
G75*
G02X201879901Y-56190000I0J500099D01*
G01*
X201879901Y-56190000D02*
G75*
G02X202380000Y-55689901I500099J0D01*
G01*
X200030099Y-56189901D02*
G75*
G02X199530000Y-56690000I-500099J0D01*
G01*
X199529901Y-55689901D02*
G75*
G02X200030000Y-56190000I0J-500099D01*
G01*
X107140099Y-63920099D02*
G75*
G02X106640000Y-63420000I0J500099D01*
G01*
X106640000Y-63420000D02*
G75*
G02X107140099Y-62919901I500099J0D01*
G01*
X104279901Y-62919901D02*
G75*
G02X104780000Y-63420000I0J-500099D01*
G01*
X104780000Y-63420000D02*
G75*
G02X104279901Y-63920099I-500099J0D01*
G01*
X96160000Y-61920000D02*
X96160000Y-45395000D01*
X210460000Y-54690000D02*
G75*
G02X209460000Y-55690000I-1000000J0D01*
G01*
X192940000Y-55690000D02*
G75*
G02X191940000Y-54690000I0J1000000D01*
G01*
X191940000Y-56690000D02*
G75*
G02X190940000Y-55690000I0J1000000D01*
G01*
X190940000Y-53400000D02*
G75*
G02X191940000Y-54400000I0J-1000000D01*
G01*
X189940000Y-54400000D02*
G75*
G02X190940000Y-55400000I0J-1000000D01*
G01*
X173880000Y-53400000D02*
G75*
G02X172880000Y-52400000I0J1000000D01*
G01*
X172880000Y-54400000D02*
G75*
G02X171880000Y-53400000I0J1000000D01*
G01*
X171880000Y-48640000D02*
G75*
G02X172880000Y-49640000I0J-1000000D01*
G01*
X170880000Y-49640000D02*
G75*
G02X171880000Y-50640000I0J-1000000D01*
G01*
X152840000Y-49640000D02*
G75*
G02X153840000Y-48640000I1000000J0D01*
G01*
X153840000Y-50640000D02*
G75*
G02X154840000Y-49640000I1000000J0D01*
G01*
X152840000Y-52390000D02*
G75*
G02X151840000Y-53390000I-1000000J0D01*
G01*
X153840000Y-53390000D02*
G75*
G02X152840000Y-54390000I-1000000J0D01*
G01*
X133790000Y-54390000D02*
G75*
G02X134790000Y-53390000I1000000J0D01*
G01*
X134790000Y-55390000D02*
G75*
G02X135790000Y-54390000I1000000J0D01*
G01*
X133790000Y-59440000D02*
G75*
G02X132790000Y-60440000I-1000000J0D01*
G01*
X134790000Y-60440000D02*
G75*
G02X133790000Y-61440000I-1000000J0D01*
G01*
X115730000Y-62440000D02*
G75*
G02X116730000Y-61440000I1000000J0D01*
G01*
X114730000Y-61440000D02*
G75*
G02X115730000Y-60440000I1000000J0D01*
G01*
X115730000Y-62920000D02*
G75*
G02X114730000Y-63920000I-1000000J0D01*
G01*
X190940000Y-55400000D02*
X190940000Y-55690000D01*
X172880000Y-54400000D02*
X189940000Y-54400000D01*
X171880000Y-50640000D02*
X171880000Y-53400000D01*
X154840000Y-49640000D02*
X161430000Y-49640000D01*
X153840000Y-53390000D02*
X153840000Y-50640000D01*
X135790000Y-54390000D02*
X142380000Y-54390000D01*
X134790000Y-60440000D02*
X134790000Y-55390000D01*
X116730000Y-61440000D02*
X133790000Y-61440000D01*
X115730000Y-62920000D02*
X115730000Y-62440000D01*
X114730000Y-61920000D02*
G75*
G02X113730000Y-62920000I-1000000J0D01*
G01*
X114730000Y-61440000D02*
X114730000Y-61920000D01*
X132790000Y-60440000D02*
X115730000Y-60440000D01*
X133790000Y-54390000D02*
X133790000Y-59440000D01*
X142379901Y-53389901D02*
X134790000Y-53390000D01*
X152840000Y-49640000D02*
X152840000Y-52390000D01*
X161429901Y-48639901D02*
X153840000Y-48640000D01*
X172880000Y-52400000D02*
X172880000Y-49640000D01*
X190940000Y-53400000D02*
X173880000Y-53400000D01*
X191940000Y-54690000D02*
X191940000Y-54400000D01*
X199529901Y-55689901D02*
X192940000Y-55690000D01*
X199530000Y-56690000D02*
X191940000Y-56690000D01*
X97160000Y-62920000D02*
G75*
G02X96160000Y-61920000I0J1000000D01*
G01*
X104279901Y-63920099D02*
X97160000Y-63920000D01*
X104279901Y-62919901D02*
X97160000Y-62920000D01*
X96160000Y-64920000D02*
G75*
G02X97160000Y-63920000I1000000J0D01*
G01*
X211460000Y-59166500D02*
X228510000Y-59166500D01*
X228510000Y-59166500D02*
G75*
G02X229510000Y-60166500I0J-1000000D01*
G01*
X134260000Y-117068500D02*
G75*
G02X133260000Y-118068500I-1000000J0D01*
G01*
X153310000Y-107257500D02*
G75*
G02X154310000Y-106257500I1000000J0D01*
G01*
X171410000Y-106257500D02*
G75*
G02X172410000Y-107257500I0J-1000000D01*
G01*
X192410001Y-37156000D02*
G75*
G02X191410001Y-36156000I0J1000000D01*
G01*
X96160000Y-45395000D02*
G75*
G02X97160000Y-44395000I1000000J0D01*
G01*
X97210000Y-120545000D02*
G75*
G02X96210000Y-119545000I0J1000000D01*
G01*
X190460000Y-130070000D02*
G75*
G02X191460000Y-131070000I0J-1000000D01*
G01*
X209460000Y-37156000D02*
G75*
G02X210460000Y-38156000I0J-1000000D01*
G01*
X95210000Y-96732500D02*
G75*
G02X96210000Y-97732500I0J-1000000D01*
G01*
X96160000Y-76732500D02*
G75*
G02X95160000Y-77732500I-1000000J0D01*
G01*
X192460000Y-132356000D02*
G75*
G02X191460000Y-131356000I0J1000000D01*
G01*
X173410000Y-130070000D02*
G75*
G02X172410000Y-129070000I0J1000000D01*
G01*
X78160000Y-96732500D02*
G75*
G02X77160000Y-95732500I0J1000000D01*
G01*
X77160000Y-78732500D02*
G75*
G02X78160000Y-77732500I1000000J0D01*
G01*
X134260000Y-112020000D02*
G75*
G02X135260000Y-111020000I1000000J0D01*
G01*
X115210000Y-119068500D02*
G75*
G02X116210000Y-118068500I1000000J0D01*
G01*
X153310000Y-110020000D02*
G75*
G02X152310000Y-111020000I-1000000J0D01*
G01*
X229510000Y-133832500D02*
G75*
G02X228510000Y-134832500I-1000000J0D01*
G01*
X115210000Y-119545000D02*
G75*
G02X114210000Y-120545000I-1000000J0D01*
G01*
X211510000Y-134832500D02*
G75*
G02X210510000Y-133832500I0J1000000D01*
G01*
X135310001Y-34870000D02*
X152360001Y-34870000D01*
X172410000Y-129070000D02*
X172410000Y-107257500D01*
X172360001Y-31107500D02*
X172360001Y-33870000D01*
X134310001Y-35870000D02*
X134310001Y-40918500D01*
X78160000Y-96732500D02*
X95210000Y-96732500D01*
X153360001Y-31107500D02*
X153360001Y-33870000D01*
X135260000Y-111020000D02*
X152310000Y-111020000D01*
X97160000Y-44395000D02*
X114260001Y-44395000D01*
X115260001Y-42918500D02*
X115260001Y-43395000D01*
X96210000Y-97732500D02*
X96210000Y-119545000D01*
X154310000Y-106257500D02*
X171410000Y-106257500D01*
X229510000Y-133832500D02*
X229510000Y-60166500D01*
X210460000Y-54690000D02*
X210460000Y-38156000D01*
X192410001Y-37156000D02*
X209460000Y-37156000D01*
X154360001Y-30107500D02*
X171360001Y-30107500D01*
X97210000Y-120545000D02*
X114210000Y-120545000D01*
X77160000Y-78732500D02*
X77160000Y-95732500D01*
X190410001Y-34870000D02*
G75*
G02X191410001Y-35870000I0J-1000000D01*
G01*
X173360001Y-34870000D02*
G75*
G02X172360001Y-33870000I0J1000000D01*
G01*
X171360001Y-30107500D02*
G75*
G02X172360001Y-31107500I0J-1000000D01*
G01*
X153360001Y-31107500D02*
G75*
G02X154360001Y-30107500I1000000J0D01*
G01*
X134310001Y-35870000D02*
G75*
G02X135310001Y-34870000I1000000J0D01*
G01*
X191460000Y-131070000D02*
X191460000Y-131356000D01*
X173410000Y-130070000D02*
X190460000Y-130070000D01*
X210510000Y-133360000D02*
X210510000Y-133832500D01*
X116210000Y-118068500D02*
X133260000Y-118068500D01*
X192460000Y-132356000D02*
X209510000Y-132360000D01*
X96160000Y-64920000D02*
X96160000Y-76732500D01*
X173360001Y-34870000D02*
X190410001Y-34870000D01*
X78160000Y-77732500D02*
X95160000Y-77732500D01*
X153360001Y-33870000D02*
G75*
G02X152360001Y-34870000I-1000000J0D01*
G01*
X134310001Y-40918500D02*
G75*
G02X133310001Y-41918500I-1000000J0D01*
G01*
X115260001Y-43395000D02*
G75*
G02X114260001Y-44395000I-1000000J0D01*
G01*
X115260001Y-42918500D02*
G75*
G02X116260001Y-41918500I1000000J0D01*
G01*
X115210000Y-119068500D02*
X115210000Y-119545000D01*
X116260001Y-41918500D02*
X133310001Y-41918500D01*
X134260000Y-112020000D02*
X134260000Y-117068500D01*
X153310000Y-107257500D02*
X153310000Y-110020000D01*
X191410001Y-35870000D02*
X191410001Y-36156000D01*
X211510000Y-134832500D02*
X228510000Y-134832500D01*
M02*
